<svg id="BodyF" data-name="Layer 1" xmlns="http://www.w3.org/2000/svg">
    <g id="BodyF">
        <path d="M157.86,192.29s1.8,9.9-7.6,10.7c0,0-9.4.9-12.1,2.6,0,0-7.6,1.7-10.1,1.7a121.43,121.43,0,0,0-14.3,1.4s-20.2,0-21.6-.2c-6.1-1-14.3-1.4-14.3-1.4-2.5.1-10.1-1.7-10.1-1.7-2.7-1.7-12.1-2.6-12.1-2.6-9.4-.8-7.6-10.7-7.6-10.7,3.8,1.5,10.4-.1,10.4-.1s-1.1-1.6,3.3-1.1a7.87,7.87,0,0,0,6.9-2.9s6-.8,9.1.8c0,0,6.9.3,8.2-1.1,0,0,1.4-.5,5.2,1.3,0,0,3.6-2.4,6.3-1.1h10.8c2.7-1.3,6.3,1.1,6.3,1.1,3.8-1.9,5.2-1.3,5.2-1.3,1.4,1.3,8.2,1.1,8.2,1.1,3-1.6,9.1-.8,9.1-.8a7.62,7.62,0,0,0,6.9,2.9c4.4-.5,3.3,1.1,3.3,1.1S156.16,194.39,157.86,192.29Z" style="fill:#e6e6e6" />
        <path d="M149.66,39.49c-50.3,17.1-91.8,0-91.8,0l11.3,42.6L156,67.19Z" style="fill:#ccc;stroke:#000;stroke-miterlimit:10" />
        <path d="M104.46,188.19a21.05,21.05,0,0,0-6.9-.3c-2.7-1.3-6.3,1.1-6.3,1.1-3.8-1.9-5.2-1.3-5.2-1.3-1.4,1.3-8.2,1.1-8.2,1.1-3-1.6-9.1-.8-9.1-.8a7.62,7.62,0,0,1-6.9,2.9c-4.4-.5-3.3,1.1-3.3,1.1-7.1,2.1-10.4,0-10.4,0-4.4-3.7-2.7-12.3-2.7-12.3-30.8,0-18.7-38-15.4-49.8s0-26.2,0-26.2c2.4-34.9-12-49.6-12-49.6,10.7-7.5,39.2-14.5,39.2-14.5s36,30.5,91.8,0c0,0,28.5,7,39.2,14.5,0,0-14.3,14.7-12,49.6,0,0-3.3,14.4,0,26.2s15.4,49.8-15.4,49.8c0,0,1.6,8.6-2.7,12.3,0,0-3.3,2.1-10.4,0,0,0,1.1-1.6-3.3-1.1a7.87,7.87,0,0,1-6.9-2.9s-6-.8-9.1.8c0,0-6.9.3-8.2-1.1,0,0-1.4-.5-5.2,1.3,0,0-3.6-2.4-6.3-1.1a21.05,21.05,0,0,0-6.9.3" style="fill:#fff;stroke:#231f20;stroke-miterlimit:10" />
        <g style="opacity:0.30000001192092896">
            <path d="M51.56,42.19c-1.1,1.2-2.3,2.3-3.5,3.4s-2.3,2.1-3.5,3.1l-1.8,1.5c-.6.5-1.2,1-1.7,1.5l-1.7,1.4a21,21,0,0,1-1.7,1.4c-1.2.9-2.3,1.8-3.4,2.8s-2.2,1.8-3.2,2.7a17.88,17.88,0,0,0-1.4,1.3l-.6.6-.5.6c-.3.3-.5.7-.3.8h.2l.6-.3a2,2,0,0,0,.5-.5,4.35,4.35,0,0,0,.6-.7l.1-.2.2-.3.6-.9a9,9,0,0,0,.8-2.1l-4.8-13.7.5.3.4.3.4.3.8.6c.4.3.8.7,1.2,1l1,.9.5.5.4.4a32.46,32.46,0,0,1,3.1,3.5c.9,1.1,1.7,2.4,2.5,3.5l1.1,1.8c.3.6.7,1.2,1,1.7l1,1.8c.3.6.6,1.2.8,1.7.5,1.2,1.1,2.4,1.5,3.5s.9,2.3,1.3,3.5a35.8,35.8,0,0,1,1.1,3.5c.4,1.2.6,2.3.9,3.5l.9,3.5c.2,1.1.4,2.3.6,3.4s.4,2.3.5,3.4l.4,3.4c.1,1.1.3,2.3.4,3.4.1,2.2.3,4.5.4,6.7l-.1-1.9.2,1.4.1,1.2c.1.8.1,1.6.2,2.3.1,1.5.2,3.1.2,4.6v4.6a17.7,17.7,0,0,1-.1,2.3c0,.8-.1,1.5-.1,2.3l-.4,4.7-.3,2.4a20,20,0,0,1-.4,2.4l-.4,2.4c-.1.8-.4,1.6-.6,2.5-.4,1.6-.8,3.3-1.3,4.9l-1,3.5.2-1.1c0-.1-.1.1-.1.1l-.2.3-.3.6c-.2.4-.4.8-.7,1.3-.4.9-.9,1.8-1.3,2.7l-1.2,2.7-1.2,2.7c-.3.9-.7,1.8-1.1,2.7s-.7,1.8-1,2.7l-.8,2.6-.4,1.3-.3,1.2c-.1.8-.4,1.6-.5,2.4-.1.4-.1.8-.2,1.2l-.1.6v.5c0,.4-.1.8-.1,1.1V167l.1.5a1.27,1.27,0,0,0,.1.6c.1.4.1.8.2,1.2l.4,1.2.6,1.2a8.34,8.34,0,0,0,.8,1.2c.2.2.3.4.5.6a2.65,2.65,0,0,1,.5.6l1.2,1.2,1.4,1.1a14.31,14.31,0,0,0,1.5,1.1l1.6,1.1-.2,2-1.9-.2a14.81,14.81,0,0,1-1.9-.3l-1.9-.4-1.8-.6-.9-.3-.9-.4a9.15,9.15,0,0,1-1.7-.9c-.5-.3-1.1-.7-1.7-1l-1.5-1.2a18.48,18.48,0,0,1-1.4-1.4,15.76,15.76,0,0,1-1.2-1.5c-.4-.5-.7-1.1-1.1-1.6a9.15,9.15,0,0,1-.9-1.7l-.4-.9-.3-.9-.6-1.8a24.47,24.47,0,0,1-.8-3.7l-.2-1.9L24,158c0-1.3-.1-2.5,0-3.8a22.18,22.18,0,0,1,.3-3.7c.1-1.2.3-2.5.5-3.7.4-2.4.9-4.9,1.5-7.3.3-1.2.7-2.4,1-3.6s.8-2.3,1.2-3.6l-.1.3.9-3.7a12.5,12.5,0,0,0,.3-1.9l.2-2c.1-1.3.3-2.6.3-3.9l.2-4v-6l-.1-2c0-1.3-.1-2.6-.2-4s-.2-2.7-.3-3.9V101l-.2-6c0-1-.1-2-.2-3l-.2-3-.3-3-.3-3-.5-2.9c-.2-1-.3-2-.5-2.9l-.6-2.9c-.2-1-.5-1.9-.8-2.9a22.94,22.94,0,0,0-.9-2.8l-.5-1.4-.5-1.4c-.2-.5-.3-.9-.5-1.4l-.6-1.3c-.4-.9-.9-1.7-1.3-2.6l-1.5-2.4c-.3-.4-.6-.7-.9-1.1l-.8-.8-1-.8.4-1c.1-.2.1-.4.2-.5a2.19,2.19,0,0,1,.3-.5c.2-.2.4-.5.5-.6l.5-.5.5-.4c.7-.5,1.4-.9,2-1.3,1.3-.7,2.7-1.4,4.1-2,2.7-1.2,5.5-2.2,8.2-3.2,5.5-2,11.1-3.7,16.7-5.4Z" style="fill:#e6e6e6" />
        </g>
        <g style="opacity:0.800000011920929">
            <path d="M48,176.49a5.12,5.12,0,0,1,1-.7c.3-.2.7-.5,1.2-.8s1.1-.6,1.7-.9,1.4-.7,2.2-1.1,1.7-.7,2.6-1.1c1.9-.7,4.1-1.5,6.5-2.2,1.2-.3,2.5-.7,3.8-1s2.7-.6,4.1-.9,2.9-.5,4.4-.7,3-.5,4.6-.6,3.2-.2,4.8-.4,3.3-.2,4.9-.2h5c1.7,0,3.3.2,5,.2l5,.3,4.9.6c1.6.2,3.3.4,4.8.6s3.2.6,4.7.8l4.5.9c1.5.3,2.9.6,4.3,1,2.8.7,5.4,1.5,7.8,2.1,1.2.4,2.3.7,3.4,1s2.1.7,3,1.1c1.9.7,3.6,1.3,4.9,1.9s2.4,1,3.1,1.3,1.1.5,1.1.5a10.9,10.9,0,0,1-1.2-.1c-.8-.1-1.9-.1-3.4-.3s-3.2-.3-5.2-.6-4.2-.6-6.7-.8-5.1-.6-7.9-.9c-1.4-.2-2.8-.3-4.3-.5s-3-.3-4.5-.5-3.1-.4-4.6-.5-3.1-.2-4.7-.4-3.2-.3-4.8-.4l-4.8-.3-4.8-.3c-1.6,0-3.2-.1-4.8-.1-3.2-.2-6.3,0-9.3-.1-1.5-.1-3,.1-4.5.1s-2.9.1-4.3.2c-2.8.2-5.4.3-7.8.6-1.2.1-2.4.2-3.5.4s-2.1.3-3.1.4c-1.9.3-3.7.6-5.1.9s-2.5.6-3.3.8A1.24,1.24,0,0,1,48,176.49Z" style="fill:#e6e6e6" />
        </g>
        <g style="opacity:0.699999988079071">
            <path d="M125.66,56.59s-.3.2-.8.5a19.91,19.91,0,0,1-2.2,1.2,31.72,31.72,0,0,1-3.6,1.6,39.69,39.69,0,0,1-4.9,1.7,62.13,62.13,0,0,1-12.8,2.4c-2.4.2-4.9.3-7.4.3a64.83,64.83,0,0,1-7.6-.6l-1.9-.3-1.9-.3c-1.3-.2-2.5-.5-3.7-.8s-2.4-.6-3.6-1-2.3-.8-3.5-1.2-2.2-.8-3.3-1.3a29.17,29.17,0,0,1-3.1-1.4c-2-.9-3.8-2-5.4-2.9a40,40,0,0,1-4.3-2.9c-1.2-.9-2.3-1.7-3.1-2.4s-1.5-1.3-1.9-1.7a5.17,5.17,0,0,0-.7-.6s.3.1.8.3a17.77,17.77,0,0,1,2.3,1,34.15,34.15,0,0,0,3.6,1.4,14.27,14.27,0,0,0,2.2.8c.8.3,1.6.6,2.5.9,1.7.6,3.6,1.3,5.6,1.9l3,.9c1,.3,2.1.6,3.2.9,2.2.6,4.4,1.1,6.7,1.5l3.5.6,1.8.3,1.8.2c2.4.3,4.7.5,7.1.7s4.7.3,6.9.3a115.54,115.54,0,0,0,12.3-.5c1.8-.2,3.5-.3,5-.5s2.8-.4,3.8-.5A25.17,25.17,0,0,0,125.66,56.59Z" style="fill:#e6e6e6" />
        </g>
        <path d="M51.26,41.19s41.9,39.6,103.8,0" style="fill:none;stroke:#231f20;stroke-miterlimit:10" />
        <path d="M45.16,43.49c.1.1,1.3,1.4,2.7,2.6s2.7,2.3,2.7,2.3l4.8-5.8s-1.2-1-2.4-2.1-2.2-2.2-2.2-2.1Z" style="fill:none" />
        <polygon points="51.76 44.19 51.26 44.79 52.26 45.59 52.76 44.99 51.76 44.19" style="fill:#231f20;fill-rule:evenodd" />
        <polygon points="50.16 42.69 49.56 43.29 50.56 44.09 51.06 43.49 50.16 42.69" style="fill:#231f20;fill-rule:evenodd" />
        <polygon points="48.56 41.19 47.96 41.69 48.86 42.59 49.36 41.99 48.56 41.19" style="fill:#231f20;fill-rule:evenodd" />
        <path d="M50.56,48.39l2.8,2.2c.7.5,1.4,1,2,1.4a5.67,5.67,0,0,0,.9.6l4.2-6.2s-.3-.2-.8-.6-1.2-.8-1.8-1.3c-1.3-1-2.5-2-2.5-2Z" style="fill:none" />
        <polygon points="57.06 48.29 56.66 48.89 57.66 49.59 58.06 48.99 57.06 48.29" style="fill:#231f20;fill-rule:evenodd" />
        <path d="M55.26,47l-.5.6a3.91,3.91,0,0,1,.5.4,3.91,3.91,0,0,0,.5.4l.4-.6a3.91,3.91,0,0,1-.5-.4A1.4,1.4,0,0,0,55.26,47Z" style="fill:#231f20;fill-rule:evenodd" />
        <polygon points="53.46 45.59 53.06 46.19 54.06 46.99 54.46 46.39 53.46 45.59" style="fill:#231f20;fill-rule:evenodd" />
        <path d="M56.26,52.59a5.67,5.67,0,0,1,.9.6,17.37,17.37,0,0,0,2,1.3l3,1.8,3.7-6.6-2.8-1.6a15.73,15.73,0,0,1-1.9-1.2,4.52,4.52,0,0,1-.8-.6Z" style="fill:none" />
        <path d="M62.66,51.89l-.4.6s.3.2.5.3a5.2,5.2,0,0,0,.5.3l.4-.7s-.3-.2-.5-.3A1.23,1.23,0,0,1,62.66,51.89Z" style="fill:#231f20;fill-rule:evenodd" />
        <polygon points="60.76 50.79 60.36 51.39 61.46 52.09 61.86 51.39 60.76 50.79" style="fill:#231f20;fill-rule:evenodd" />
        <polygon points="58.96 49.59 58.46 50.19 59.56 50.89 59.96 50.29 58.96 49.59" style="fill:#231f20;fill-rule:evenodd" />
        <path d="M62.26,56.29s1.5.9,3.1,1.7l2.2,1.1,1,.5,3.1-6.9s-.4-.2-.9-.4a12.4,12.4,0,0,1-2-1c-1.4-.7-2.8-1.5-2.8-1.5Z" style="fill:none" />
        <polygon points="68.56 55.09 68.26 55.79 69.46 56.29 69.76 55.59 68.56 55.09" style="fill:#231f20;fill-rule:evenodd" />
        <polygon points="66.56 54.09 66.26 54.79 67.36 55.29 67.76 54.69 66.56 54.09" style="fill:#231f20;fill-rule:evenodd" />
        <polygon points="64.66 53.09 64.26 53.69 65.36 54.29 65.76 53.69 64.66 53.09" style="fill:#231f20;fill-rule:evenodd" />
        <path d="M68.56,59.49s1.6.8,3.2,1.4a31.9,31.9,0,0,0,3.3,1.2l2.5-7.1s-1.5-.5-3-1.1-2.9-1.2-2.9-1.2Z" style="fill:none" />
        <path d="M74.76,57.69l-.3.7.6.2.6.2.3-.7-.6-.2Z" style="fill:#231f20;fill-rule:evenodd" />
        <polygon points="72.66 56.89 72.46 57.59 73.56 58.09 73.86 57.39 72.66 56.89" style="fill:#231f20;fill-rule:evenodd" />
        <path d="M70.66,56l-.3.7a2.83,2.83,0,0,1,.6.3,3,3,0,0,1,.6.3l.3-.7a2.83,2.83,0,0,1-.6-.3A3,3,0,0,1,70.66,56Z" style="fill:#231f20;fill-rule:evenodd" />
        <path d="M75.06,62.09a5.45,5.45,0,0,1,1,.4c.6.2,1.5.5,2.3.7s1.7.5,2.3.7a3.09,3.09,0,0,0,.8.2.44.44,0,0,1,.3.1l1.8-7.3a.77.77,0,0,1-.3-.1,2.54,2.54,0,0,1-.7-.2q-.9-.3-2.1-.6c-.8-.2-1.5-.5-2.1-.7l-.9-.3Z" style="fill:none" />
        <path d="M81.16,59.79l-.2.7.6.2.6.2.2-.7-.6-.2Z" style="fill:#231f20;fill-rule:evenodd" />
        <polygon points="78.96 59.19 78.76 59.89 79.96 60.19 80.16 59.49 78.96 59.19" style="fill:#231f20;fill-rule:evenodd" />
        <polygon points="76.86 58.49 76.66 59.19 77.86 59.59 78.06 58.89 76.86 58.49" style="fill:#231f20;fill-rule:evenodd" />
        <path d="M81.86,64.09l3.4.8,3.5.6,1.1-7.5s-1.6-.3-3.1-.5c-1.6-.4-3.1-.7-3.1-.7Z" style="fill:none" />
        <polygon points="87.66 61.19 87.56 61.99 88.76 62.19 88.86 61.39 87.66 61.19" style="fill:#231f20;fill-rule:evenodd" />
        <path d="M85.46,60.79l-.2.7a2.18,2.18,0,0,0,.6.1,2.14,2.14,0,0,0,.6.1l.1-.7a2.18,2.18,0,0,0-.6-.1A2,2,0,0,1,85.46,60.79Z" style="fill:#231f20;fill-rule:evenodd" />
        <polygon points="83.36 60.29 83.16 61.09 84.36 61.29 84.56 60.59 83.36 60.29" style="fill:#231f20;fill-rule:evenodd" />
        <path d="M88.76,65.49s.4.1,1.1.2,1.5.2,2.4.3c1.8.2,3.5.3,3.5.3l.4-7.5a19.79,19.79,0,0,1-3.2-.3,19.88,19.88,0,0,0-2.2-.2c-.6-.1-1-.2-1-.2Z" style="fill:none" />
        <path d="M94.36,62.09l-.1.8h1.2l.1-.8H95A1.06,1.06,0,0,1,94.36,62.09Z" style="fill:#231f20;fill-rule:evenodd" />
        <polygon points="92.06 61.89 92.06 62.59 93.26 62.79 93.36 61.99 92.06 61.89" style="fill:#231f20;fill-rule:evenodd" />
        <path d="M89.86,61.59l-.1.7a2.18,2.18,0,0,0,.6.1,2.18,2.18,0,0,1,.6.1l.1-.7a2.14,2.14,0,0,1-.6-.1A2.18,2.18,0,0,1,89.86,61.59Z" style="fill:#231f20;fill-rule:evenodd" />
        <path d="M95.86,66.29a8.66,8.66,0,0,1,1.1.1c.7,0,1.5.1,2.4.1h3.5l-.2-7.5h-3.2c-.8,0-1.6-.1-2.2-.1a4.54,4.54,0,0,1-1-.1Z" style="fill:none" />
        <polygon points="101.06 62.29 101.06 63.09 102.26 63.09 102.26 62.29 101.06 62.29" style="fill:#231f20;fill-rule:evenodd" />
        <polygon points="98.76 62.39 98.76 63.09 100.06 63.09 100.06 62.39 98.76 62.39" style="fill:#231f20;fill-rule:evenodd" />
        <polygon points="96.56 62.29 96.56 62.99 97.76 63.09 97.76 62.29 96.56 62.29" style="fill:#231f20;fill-rule:evenodd" />
        <path d="M102.86,66.39H104a23.2,23.2,0,0,0,2.4-.2c.9-.1,1.8-.1,2.4-.2a8.66,8.66,0,0,1,1.1-.1l-.9-7.5a4.54,4.54,0,0,1-1,.1c-.6.1-1.4.1-2.2.2s-1.6.1-2.2.2h-1Z" style="fill:none" />
        <path d="M107.76,62l.1.8a2.14,2.14,0,0,0,.6-.1,2.18,2.18,0,0,0,.6-.1l-.1-.7a2.14,2.14,0,0,0-.6.1Z" style="fill:#231f20;fill-rule:evenodd" />
        <polygon points="105.46 62.19 105.56 62.89 106.76 62.79 106.76 62.09 105.46 62.19" style="fill:#231f20;fill-rule:evenodd" />
        <path d="M103.26,62.29v.8h1.2v-.8h-1.2Z" style="fill:#231f20;fill-rule:evenodd" />
        <path d="M110,65.79s1.7-.2,3.5-.5c.9-.1,1.7-.3,2.4-.4l1.1-.2-1.5-7.4s-.4.1-1,.2-1.4.3-2.2.4l-3.2.4Z" style="fill:none" />
        <polygon points="114.36 61.09 114.46 61.79 115.76 61.59 115.56 60.79 114.36 61.09" style="fill:#231f20;fill-rule:evenodd" />
        <path d="M112.16,61.39l.1.7a2.14,2.14,0,0,0,.6-.1,2.18,2.18,0,0,0,.6-.1l-.1-.7a2.18,2.18,0,0,1-.6.1A2.14,2.14,0,0,1,112.16,61.39Z" style="fill:#231f20;fill-rule:evenodd" />
        <polygon points="109.96 61.69 110.06 62.49 111.26 62.29 111.16 61.59 109.96 61.69" style="fill:#231f20;fill-rule:evenodd" />
        <path d="M116.86,64.69s.4-.1,1.1-.2,1.5-.3,2.4-.5c1.7-.5,3.4-.9,3.4-.9l-2.1-7.2s-1.6.4-3.1.8c-.8.2-1.6.4-2.2.5s-1,.2-1,.2Z" style="fill:none" />
        <polygon points="120.86 59.59 121.06 60.29 122.26 59.99 122.06 59.19 120.86 59.59" style="fill:#231f20;fill-rule:evenodd" />
        <polygon points="118.76 60.09 118.86 60.89 120.06 60.59 119.96 59.79 118.76 60.09" style="fill:#231f20;fill-rule:evenodd" />
        <polygon points="116.56 60.59 116.66 61.39 117.96 61.09 117.76 60.39 116.56 60.59" style="fill:#231f20;fill-rule:evenodd" />
        <path d="M123.66,63l1.1-.3c.6-.2,1.5-.5,2.3-.8,1.7-.6,3.3-1.1,3.3-1.1l-2.6-7.1s-1.5.5-3.1,1c-.8.3-1.5.5-2.1.7s-1,.3-1,.3Z" style="fill:none" />
        <polygon points="127.26 57.59 127.56 58.29 128.76 57.89 128.46 57.19 127.26 57.59" style="fill:#231f20;fill-rule:evenodd" />
        <polygon points="125.16 58.29 125.36 58.99 126.56 58.59 126.36 57.89 125.16 58.29" style="fill:#231f20;fill-rule:evenodd" />
        <path d="M123.06,59l.2.7.6-.2.6-.2-.2-.7-.6.2Z" style="fill:#231f20;fill-rule:evenodd" />
        <path d="M130.36,60.79s1.6-.7,3.2-1.3c.8-.3,1.6-.7,2.2-.9a2.39,2.39,0,0,0,.7-.3.77.77,0,0,1,.3-.1l-3.1-6.9a.77.77,0,0,0-.3.1,4.88,4.88,0,0,1-.7.3c-.6.2-1.3.5-2.1.8l-3,1.2Z" style="fill:none" />
        <path d="M133.56,55.19l.3.7.6-.2.6-.2-.3-.7-.6.2A1.27,1.27,0,0,0,133.56,55.19Z" style="fill:#231f20;fill-rule:evenodd" />
        <polygon points="131.46 55.99 131.76 56.69 132.86 56.19 132.66 55.49 131.46 55.99" style="fill:#231f20;fill-rule:evenodd" />
        <polygon points="129.36 56.79 129.66 57.49 130.86 57.09 130.56 56.39 129.36 56.79" style="fill:#231f20;fill-rule:evenodd" />
        <path d="M136.76,58.19s1.6-.8,3.1-1.5a19.49,19.49,0,0,1,2.2-1l1-.5-3.5-6.7s-.4.2-.9.5-1.3.6-2,1c-1.5.7-2.9,1.4-2.9,1.4Z" style="fill:none" />
        <path d="M139.66,52.29l.3.7a2.83,2.83,0,0,0,.6-.3,3,3,0,0,0,.6-.3l-.3-.7a1.46,1.46,0,0,0-.5.3C139.86,52.19,139.66,52.29,139.66,52.29Z" style="fill:#231f20;fill-rule:evenodd" />
        <polygon points="137.56 53.29 137.96 53.99 139.06 53.39 138.76 52.79 137.56 53.29" style="fill:#231f20;fill-rule:evenodd" />
        <polygon points="135.56 54.19 135.86 54.89 137.06 54.39 136.76 53.69 135.56 54.19" style="fill:#231f20;fill-rule:evenodd" />
        <path d="M143.06,55.09s1.5-.8,3-1.7a19.61,19.61,0,0,0,2.1-1.2c.5-.3.9-.6.9-.6l-3.9-6.5a9.24,9.24,0,0,1-.9.5c-.5.3-1.2.7-2,1.1-1.4.8-2.9,1.6-2.9,1.6Z" style="fill:none" />
        <path d="M145.46,49.09l.4.7s.3-.2.5-.3a5.2,5.2,0,0,1,.5-.3l-.4-.6s-.3.2-.5.3A4.71,4.71,0,0,1,145.46,49.09Z" style="fill:#231f20;fill-rule:evenodd" />
        <polygon points="143.56 50.19 143.96 50.89 145.06 50.29 144.66 49.59 143.56 50.19" style="fill:#231f20;fill-rule:evenodd" />
        <polygon points="141.56 51.29 141.96 51.89 143.06 51.29 142.66 50.69 141.56 51.29" style="fill:#231f20;fill-rule:evenodd" />
        <path d="M149.06,51.69s1.5-.9,2.9-1.8c.7-.5,1.5-.9,2-1.3s.9-.6.9-.6l-4.2-6.3s-.3.2-.8.6-1.2.8-1.9,1.2c-1.4.9-2.8,1.7-2.8,1.7Z" style="fill:none" />
        <path d="M151.26,45.59l.4.6s.3-.2.5-.3a5.2,5.2,0,0,1,.5-.3l-.4-.7s-.3.2-.5.3A3.61,3.61,0,0,0,151.26,45.59Z" style="fill:#231f20;fill-rule:evenodd" />
        <polygon points="149.36 46.79 149.76 47.39 150.76 46.79 150.36 46.09 149.36 46.79" style="fill:#231f20;fill-rule:evenodd" />
        <polygon points="147.46 47.99 147.86 48.59 148.86 47.89 148.46 47.29 147.46 47.99" style="fill:#231f20;fill-rule:evenodd" />
        <polygon points="154.96 47.99 160.56 43.99 156.06 37.99 150.76 41.69 154.96 47.99" style="fill:none" />
        <polygon points="156.76 41.79 157.16 42.39 158.26 41.69 157.76 41.09 156.76 41.79" style="fill:#231f20;fill-rule:evenodd" />
        <polygon points="154.96 43.09 155.36 43.69 156.36 42.99 155.96 42.39 154.96 43.09" style="fill:#231f20;fill-rule:evenodd" />
        <polygon points="153.06 44.29 153.56 44.99 154.56 44.29 154.16 43.59 153.06 44.29" style="fill:#231f20;fill-rule:evenodd" />
        <path d="M47.26,183h0a3.33,3.33,0,0,1,.6-.3,13.05,13.05,0,0,1,1.9-.7c1.5-.5,3-.9,3-.9l-2.1-7.2s-1.7.5-3.4,1.1c-.8.3-1.7.7-2.4.9a7.93,7.93,0,0,0-.9.4l-.4.2Z" style="fill:none" />
        <polygon points="49.96 177.69 50.16 178.39 51.36 177.99 51.06 177.29 49.96 177.69" style="fill:#231f20;fill-rule:evenodd" />
        <path d="M47.76,178.39l.3.7,1.2-.4-.2-.7A5,5,0,0,0,47.76,178.39Z" style="fill:#231f20;fill-rule:evenodd" />
        <path d="M45.76,179.19l.3.7,1.1-.5-.3-.7Z" style="fill:#231f20;fill-rule:evenodd" />
        <path d="M52.66,181a.77.77,0,0,0,.3-.1,2.54,2.54,0,0,0,.7-.2,20.93,20.93,0,0,0,2.1-.5c.8-.2,1.6-.4,2.1-.5a3.5,3.5,0,0,1,1-.2l-1.6-7.4s-.4.1-1,.2-1.5.4-2.3.6-1.7.4-2.3.6c-.3.1-.6.1-.8.2a.77.77,0,0,1-.3.1Z" style="fill:none" />
        <polygon points="56.36 175.99 56.56 176.69 57.76 176.39 57.56 175.69 56.36 175.99" style="fill:#231f20;fill-rule:evenodd" />
        <polygon points="54.26 176.49 54.36 177.19 55.56 176.89 55.46 176.19 54.26 176.49" style="fill:#231f20;fill-rule:evenodd" />
        <polygon points="52.06 176.99 52.26 177.69 53.46 177.39 53.26 176.69 52.06 176.99" style="fill:#231f20;fill-rule:evenodd" />
        <polygon points="58.86 179.49 65.26 178.29 64.06 170.89 57.36 172.09 58.86 179.49" style="fill:none" />
        <polygon points="62.96 174.69 63.06 175.39 64.26 175.19 64.16 174.39 62.96 174.69" style="fill:#231f20;fill-rule:evenodd" />
        <polygon points="60.76 175.09 60.86 175.79 62.06 175.59 61.96 174.79 60.76 175.09" style="fill:#231f20;fill-rule:evenodd" />
        <polygon points="58.56 175.49 58.76 176.19 59.96 175.99 59.76 175.19 58.56 175.49" style="fill:#231f20;fill-rule:evenodd" />
        <path d="M65.26,178.29s.4-.1,1-.2,1.4-.2,2.2-.3l3.2-.4-1-7.5-3.4.4c-.8.1-1.7.2-2.3.3s-1,.2-1,.2Z" style="fill:none" />
        <rect x="69.57" y="173.59" width="1.2" height="0.8" transform="translate(-23.16 11.24) rotate(-7.87)" style="fill:#231f20" />
        <polygon points="67.26 173.99 67.46 174.69 68.66 174.49 68.56 173.79 67.26 173.99" style="fill:#231f20;fill-rule:evenodd" />
        <path d="M65.16,174.29l.1.7a2.18,2.18,0,0,1,.6-.1,2.18,2.18,0,0,0,.6-.1l-.1-.7a2.14,2.14,0,0,0-.6.1A2.18,2.18,0,0,0,65.16,174.29Z" style="fill:#231f20;fill-rule:evenodd" />
        <path d="M71.76,177.39,75,177a19.88,19.88,0,0,1,2.2-.2,6.73,6.73,0,0,1,1-.1l-.8-7.5a6.73,6.73,0,0,0-1,.1,10.38,10.38,0,0,0-2.3.3l-3.4.4Z" style="fill:none" />
        <polygon points="76.16 172.79 76.16 173.59 77.46 173.49 77.36 172.69 76.16 172.79" style="fill:#231f20;fill-rule:evenodd" />
        <polygon points="73.96 173.09 73.96 173.79 75.26 173.69 75.16 172.89 73.96 173.09" style="fill:#231f20;fill-rule:evenodd" />
        <polygon points="71.76 173.39 71.86 174.09 73.06 173.99 72.96 173.19 71.76 173.39" style="fill:#231f20;fill-rule:evenodd" />
        <polygon points="78.26 176.69 84.76 176.09 84.16 168.59 77.46 169.19 78.26 176.69" style="fill:none" />
        <rect x="82.77" y="172.19" width="1.2" height="0.8" transform="translate(-13.99 7.49) rotate(-4.74)" style="fill:#231f20" />
        <polygon points="80.56 172.39 80.66 173.19 81.86 173.09 81.76 172.29 80.56 172.39" style="fill:#231f20;fill-rule:evenodd" />
        <polygon points="78.36 172.59 78.46 173.39 79.66 173.29 79.56 172.49 78.36 172.59" style="fill:#231f20;fill-rule:evenodd" />
        <path d="M84.76,176.09s1.6-.1,3.3-.3a18.48,18.48,0,0,1,2.3-.1h1l-.4-7.5H90a19.3,19.3,0,0,0-2.3.1c-1.7.1-3.4.3-3.4.3Z" style="fill:none" />
        <polygon points="89.36 171.69 89.46 172.49 90.66 172.39 90.66 171.69 89.36 171.69" style="fill:#231f20;fill-rule:evenodd" />
        <polygon points="87.16 171.89 87.26 172.59 88.46 172.49 88.46 171.79 87.16 171.89" style="fill:#231f20;fill-rule:evenodd" />
        <polygon points="84.96 172.09 85.06 172.79 86.26 172.69 86.26 171.99 84.96 172.09" style="fill:#231f20;fill-rule:evenodd" />
        <polygon points="91.36 175.69 97.96 175.39 97.66 167.89 90.96 168.19 91.36 175.69" style="fill:none" />
        <rect x="96.06" y="171.39" width="1.2" height="0.8" transform="translate(-7.52 4.45) rotate(-2.54)" style="fill:#231f20" />
        <polygon points="93.86 171.49 93.86 172.29 95.06 172.19 95.06 171.49 93.86 171.49" style="fill:#231f20;fill-rule:evenodd" />
        <polygon points="91.66 171.59 91.66 172.39 92.86 172.29 92.86 171.59 91.66 171.59" style="fill:#231f20;fill-rule:evenodd" />
        <polygon points="97.96 175.39 104.56 175.09 104.36 167.59 97.66 167.89 97.96 175.39" style="fill:none" />
        <polygon points="102.66 171.19 102.76 171.89 103.96 171.89 103.96 171.09 102.66 171.19" style="fill:#231f20;fill-rule:evenodd" />
        <polygon points="100.46 171.29 100.56 171.99 101.76 171.99 101.76 171.19 100.46 171.29" style="fill:#231f20;fill-rule:evenodd" />
        <polygon points="98.26 171.39 98.36 172.09 99.56 172.09 99.56 171.29 98.26 171.39" style="fill:#231f20;fill-rule:evenodd" />
        <path d="M45.86,181.29a.1.1,0,0,0,.1-.1c.1,0,.2-.1.5-.2a13.05,13.05,0,0,1,1.9-.7c1.5-.5,3-.9,3-.9l-2.1-7.2s-1.7.5-3.4,1.1c-.8.3-1.7.7-2.4.9a7.93,7.93,0,0,0-.9.4l-.4.2Z" style="fill:none" />
        <polygon points="48.56 176.09 48.76 176.79 49.96 176.39 49.76 175.69 48.56 176.09" style="fill:#231f20;fill-rule:evenodd" />
        <path d="M46.46,176.79l.3.7,1.2-.4-.2-.7A5,5,0,0,0,46.46,176.79Z" style="fill:#231f20;fill-rule:evenodd" />
        <path d="M44.36,177.59l.3.7,1.1-.5-.3-.7A11.73,11.73,0,0,1,44.36,177.59Z" style="fill:#231f20;fill-rule:evenodd" />
        <path d="M51.36,179.39a.77.77,0,0,0,.3-.1,2.54,2.54,0,0,0,.7-.2,20.93,20.93,0,0,0,2.1-.5c.8-.2,1.6-.4,2.1-.5a3.5,3.5,0,0,1,1-.2l-1.6-7.4s-.4.1-1,.2-1.5.4-2.3.6-1.7.4-2.3.6c-.3.1-.6.1-.8.2a.77.77,0,0,1-.3.1Z" style="fill:none" />
        <polygon points="55.06 174.29 55.16 175.09 56.36 174.79 56.26 173.99 55.06 174.29" style="fill:#231f20;fill-rule:evenodd" />
        <polygon points="52.86 174.89 53.06 175.59 54.26 175.29 54.06 174.59 52.86 174.89" style="fill:#231f20;fill-rule:evenodd" />
        <polygon points="50.66 175.39 50.86 176.09 52.06 175.79 51.86 175.09 50.66 175.39" style="fill:#231f20;fill-rule:evenodd" />
        <polygon points="57.56 177.89 63.96 176.69 62.66 169.29 55.96 170.49 57.56 177.89" style="fill:none" />
        <polygon points="61.56 173.09 61.66 173.79 62.86 173.59 62.76 172.79 61.56 173.09" style="fill:#231f20;fill-rule:evenodd" />
        <polygon points="59.36 173.49 59.56 174.19 60.76 173.99 60.56 173.19 59.36 173.49" style="fill:#231f20;fill-rule:evenodd" />
        <polygon points="57.16 173.89 57.36 174.59 58.56 174.39 58.46 173.59 57.16 173.89" style="fill:#231f20;fill-rule:evenodd" />
        <path d="M64,176.69s.4-.1,1-.2,1.4-.2,2.2-.3l3.2-.4-1-7.5-3.4.4c-.8.1-1.7.2-2.3.3s-1,.2-1,.2Z" style="fill:none" />
        <polygon points="68.16 172.09 68.26 172.79 69.46 172.59 69.36 171.89 68.16 172.09" style="fill:#231f20;fill-rule:evenodd" />
        <polygon points="65.96 172.29 66.06 173.09 67.26 172.89 67.16 172.19 65.96 172.29" style="fill:#231f20;fill-rule:evenodd" />
        <path d="M63.76,172.59l.1.7a2.18,2.18,0,0,1,.6-.1,2.18,2.18,0,0,0,.6-.1l-.1-.7a2.14,2.14,0,0,0-.6.1A2.14,2.14,0,0,1,63.76,172.59Z" style="fill:#231f20;fill-rule:evenodd" />
        <path d="M70.36,175.79l3.2-.4a19.88,19.88,0,0,1,2.2-.2,6.73,6.73,0,0,1,1-.1l-.8-7.5a6.73,6.73,0,0,0-1,.1,10.38,10.38,0,0,0-2.3.3l-3.4.4Z" style="fill:none" />
        <polygon points="74.76 171.19 74.86 171.99 76.06 171.89 75.96 171.09 74.76 171.19" style="fill:#231f20;fill-rule:evenodd" />
        <polygon points="72.56 171.49 72.66 172.19 73.86 172.09 73.76 171.29 72.56 171.49" style="fill:#231f20;fill-rule:evenodd" />
        <polygon points="70.36 171.79 70.46 172.49 71.66 172.39 71.56 171.59 70.36 171.79" style="fill:#231f20;fill-rule:evenodd" />
        <polygon points="76.86 175.09 83.46 174.49 82.86 166.99 76.16 167.59 76.86 175.09" style="fill:none" />
        <rect x="81.47" y="170.59" width="1.2" height="0.8" transform="translate(-13.86 7.37) rotate(-4.74)" style="fill:#231f20" />
        <polygon points="79.16 170.79 79.26 171.59 80.46 171.49 80.46 170.69 79.16 170.79" style="fill:#231f20;fill-rule:evenodd" />
        <polygon points="76.96 170.99 77.06 171.79 78.26 171.69 78.26 170.89 76.96 170.99" style="fill:#231f20;fill-rule:evenodd" />
        <path d="M83.46,174.49s1.6-.1,3.3-.3a18.48,18.48,0,0,1,2.3-.1h1l-.4-7.5h-1a19.3,19.3,0,0,0-2.3.1c-1.7.1-3.4.3-3.4.3Z" style="fill:none" />
        <polygon points="88.06 170.09 88.06 170.89 89.36 170.79 89.26 170.09 88.06 170.09" style="fill:#231f20;fill-rule:evenodd" />
        <polygon points="85.86 170.29 85.86 170.99 87.06 170.89 87.06 170.19 85.86 170.29" style="fill:#231f20;fill-rule:evenodd" />
        <polygon points="83.66 170.49 83.66 171.19 84.96 171.09 84.86 170.39 83.66 170.49" style="fill:#231f20;fill-rule:evenodd" />
        <polygon points="89.96 174.09 96.56 173.79 96.26 166.29 89.56 166.59 89.96 174.09" style="fill:none" />
        <rect x="94.75" y="169.78" width="1.2" height="0.8" transform="translate(-7.33 4.32) rotate(-2.5)" style="fill:#231f20" />
        <polygon points="92.46 169.89 92.56 170.69 93.76 170.59 93.76 169.89 92.46 169.89" style="fill:#231f20;fill-rule:evenodd" />
        <polygon points="90.26 169.99 90.36 170.79 91.56 170.69 91.46 169.99 90.26 169.99" style="fill:#231f20;fill-rule:evenodd" />
        <polygon points="96.56 173.79 103.16 173.49 102.96 165.99 96.26 166.29 96.56 173.79" style="fill:none" />
        <polygon points="101.36 169.59 101.36 170.29 102.56 170.29 102.56 169.49 101.36 169.59" style="fill:#231f20;fill-rule:evenodd" />
        <polygon points="99.16 169.69 99.16 170.39 100.36 170.39 100.36 169.59 99.16 169.69" style="fill:#231f20;fill-rule:evenodd" />
        <polygon points="96.96 169.69 96.96 170.49 98.16 170.39 98.16 169.69 96.96 169.69" style="fill:#231f20;fill-rule:evenodd" />
        <path d="M46.36,177.09s-1-1.7-2.6-4.2c-.8-1.2-1.8-2.7-2.9-4.1a19,19,0,0,0-1.9-2.1,2.59,2.59,0,0,0-1.1-.7c-.4-.1-.6.2-.8.6a2.81,2.81,0,0,0,.6,2.6,7.28,7.28,0,0,0,1.9,2,31.25,31.25,0,0,0,4.1,2.9c2.5,1.5,4.3,2.4,4.3,2.4l-1.2-.5c-.8-.4-1.9-.9-3.2-1.6a23.56,23.56,0,0,1-4.2-2.8,13.36,13.36,0,0,1-2-2.1,6.11,6.11,0,0,1-.7-1.4,4.3,4.3,0,0,1,0-1.6l.2-.4c.1-.1.2-.3.3-.4a1,1,0,0,1,.9-.2,2.42,2.42,0,0,1,1.3.8,20,20,0,0,1,1.9,2.2c1.1,1.5,2,3,2.8,4.2s1.3,2.4,1.7,3.1S46.36,177.09,46.36,177.09Z" style="fill:#231f20" />
        <path d="M57.16,171.39s-.1-2.7-.5-6.8c-.2-2-.5-4.4-.9-6.9a19.47,19.47,0,0,0-1-3.8,4.17,4.17,0,0,0-.9-1.6.66.66,0,0,0-.7-.2c-.1,0-.2.1-.4.2l-.3.3a4.12,4.12,0,0,0-.8,3.6,16,16,0,0,0,1.2,3.7,41.38,41.38,0,0,0,3.4,6,56.06,56.06,0,0,0,4,5.5,16.43,16.43,0,0,1-1.2-1.4,46.46,46.46,0,0,1-3-3.9,41.35,41.35,0,0,1-3.6-6,15.34,15.34,0,0,1-1.2-3.8,5,5,0,0,1,0-2.1,3.38,3.38,0,0,1,.9-1.9l.4-.4c.2-.1.3-.2.5-.2a1.68,1.68,0,0,1,1.2.3,6.7,6.7,0,0,1,1.1,1.8,18.32,18.32,0,0,1,.9,3.9c.4,2.5.6,4.9.8,7s.2,3.7.2,4.9S57.16,171.39,57.16,171.39Z" style="fill:#231f20" />
        <path d="M63.26,128.29s.1.7.2,1.9.3,2.9.5,5,.5,4.5.9,7c.2,1.3.4,2.6.6,4s.4,2.7.7,4.1.5,2.7.8,4.1l.9,3.9c.3,1.3.7,2.5,1,3.6s.7,2.2,1,3.2a23.9,23.9,0,0,0,1,2.6,7.6,7.6,0,0,1,.4,1.1c.2.3.3.6.5.9.6,1.1.9,1.7.9,1.7s-.3-.6-1-1.7c-.2-.3-.3-.6-.5-.9a11.73,11.73,0,0,1-.5-1.1c-.3-.8-.8-1.6-1.1-2.6s-.8-2-1.1-3.2-.7-2.3-1-3.6-.7-2.6-.9-3.9-.6-2.7-.8-4.1-.5-2.7-.7-4.1-.4-2.7-.6-4c-.3-2.6-.6-5-.7-7.1s-.3-3.8-.3-5A11.15,11.15,0,0,1,63.26,128.29Z" style="fill:#231f20" />
        <path d="M73.56,144.09s.4,1.8,1,4.6c.3,1.4.7,3,1.1,4.7s.9,3.5,1.4,5.3c.3.9.5,1.8.8,2.7s.5,1.8.8,2.6.5,1.6.8,2.4.5,1.5.8,2.1.5,1.2.8,1.7.5,1,.7,1.3a9.32,9.32,0,0,1,.7,1.1s-.3-.4-.8-1a7.38,7.38,0,0,1-.8-1.3c-.3-.5-.6-1.1-.9-1.7q-.9-2-1.8-4.5a19.75,19.75,0,0,1-.8-2.6c-.3-.9-.5-1.8-.8-2.7-.5-1.8-.9-3.6-1.3-5.3s-.7-3.3-1-4.7-.4-2.5-.6-3.3A6.62,6.62,0,0,0,73.56,144.09Z" style="fill:#231f20" />
        <path d="M86.86,169.79s-.3-1.4-.7-3.8-1.1-5.9-1.8-10.1-1.4-9.1-2-14.4c-.3-2.6-.6-5.4-.8-8.2a60.12,60.12,0,0,1-.1-8.5,14.88,14.88,0,0,1,.8-4.2,2.66,2.66,0,0,1,.6-1,2.07,2.07,0,0,1,1-.6h.6a.9.9,0,0,1,.5.1,3.33,3.33,0,0,1,1,.6,7.26,7.26,0,0,1,1.5,3.9,28.28,28.28,0,0,1,.3,4.1,64.86,64.86,0,0,1-.2,7.7c-.1,2.4-.3,4.7-.4,6.8-.3,4.2-.5,7.8-.5,10.2a23.58,23.58,0,0,0,.1,2.9,8.15,8.15,0,0,1,.1,1,6.73,6.73,0,0,0-.1-1,22.74,22.74,0,0,1-.1-2.9c0-2.5.1-6,.3-10.3.1-2.1.3-4.4.4-6.8s.2-5,.1-7.6a18.1,18.1,0,0,0-.4-4,7.94,7.94,0,0,0-1.4-3.7,2.18,2.18,0,0,0-.8-.5.75.75,0,0,0-.5-.1h-.5a1.76,1.76,0,0,0-1.2,1.3,14.1,14.1,0,0,0-.7,4.1,58.89,58.89,0,0,0,.1,8.4c.2,2.8.4,5.5.7,8.1.6,5.3,1.2,10.2,1.9,14.4s1.2,7.7,1.6,10.1C86.66,168.39,86.86,169.79,86.86,169.79Z" style="fill:#231f20" />
        <path d="M96.46,144.09s-.2,1.6-.4,4.1c-.1,1.2-.2,2.6-.4,4.2s-.2,3.1-.3,4.8-.1,3.3-.1,4.8a25.42,25.42,0,0,0,.3,4.1,11.55,11.55,0,0,1,.2,1.6c.1.5.2.9.3,1.3.2.7.3,1.1.3,1.1A8.17,8.17,0,0,0,96,169a8.4,8.4,0,0,0-.4-1.2,7.58,7.58,0,0,1-.3-1.6c-.1-.6-.2-1.3-.3-2s-.1-1.4-.2-2.2a38.43,38.43,0,0,1,0-4.8c.1-1.6.2-3.3.3-4.8s.3-2.9.5-4.2C96.16,145.69,96.46,144.09,96.46,144.09Z" style="fill:#231f20" />
        <path d="M54.46,178.09c-.2,2.3-.5,4.6-.8,6.9l-.5,3.4c-.2,1.1-.3,2.3-.5,3.4l-.1.6-.3-.5-.4-.7c-.2-.2-.2-.5-.3-.7-.2-.5-.4-.9-.6-1.4a23.29,23.29,0,0,1-1.1-2.8c-.3-.9-.7-1.9-1-2.8l-.9-2.8,2.3,5.5,1.2,2.7c.2.5.4.9.6,1.3a3.33,3.33,0,0,0,.3.6l.4.6-.4.1c.1-1.1.3-2.3.5-3.4l.5-3.4C53.66,182.59,54.06,180.29,54.46,178.09Z" style="fill:#231f20" />
        <path d="M57.26,176s.4,1.7,1,4.3c.3,1.3.6,2.8,1,4.5.2.8.4,1.7.6,2.5a6.47,6.47,0,0,0,.4,1.3l.2.6a.1.1,0,0,0,.1.1h.1a3.11,3.11,0,0,0,.7-.9c.2-.4.3-.8.5-1.2a10.86,10.86,0,0,0,.4-2.5,16.06,16.06,0,0,0-.4-4.5,11.21,11.21,0,0,0-1.1-3c-.3-.7-.5-1.1-.5-1.1s.2.4.6,1.1a10.92,10.92,0,0,1,1.2,3,13.17,13.17,0,0,1,.6,4.6,11.71,11.71,0,0,1-.4,2.6,6.94,6.94,0,0,1-.5,1.3,3.15,3.15,0,0,1-.9,1.2.75.75,0,0,1-.5.1c-.1,0-.2-.1-.3-.2s-.1-.1-.1-.2l-.2-.7c-.2-.4-.2-.9-.4-1.3-.2-.9-.4-1.7-.6-2.5-.4-1.6-.6-3.2-.9-4.5s-.4-2.4-.5-3.2C57.26,176.39,57.26,176,57.26,176Z" style="fill:#231f20" />
        <path d="M68,172.49s-.2,1.1-.5,2.7q-.3,1.2-.6,2.7c-.2,1-.4,2.1-.7,3.1s-.5,2.1-.7,3.1-.4,1.9-.6,2.7-.3,1.5-.3,1.9v.5a.35.35,0,0,0,.1.2s-.1,0-.1-.2a3.54,3.54,0,0,1-.1-.6,15.56,15.56,0,0,1,.1-2c.1-.8.2-1.8.4-2.8s.4-2.1.6-3.1.5-2.1.7-3.1.5-1.9.7-2.7C67.56,173.49,68,172.49,68,172.49Z" style="fill:#231f20" />
        <path d="M70.36,173.89s.1.9.3,2.2.3,3.1.5,4.8.4,3.5.7,4.8c.1.3.1.6.2.9a2.54,2.54,0,0,1,.2.7,5.2,5.2,0,0,1,.3.5l-.1-.1a1.38,1.38,0,0,1-.3-.4,7.7,7.7,0,0,1-.6-1.5,12,12,0,0,1-.5-2.2,20.24,20.24,0,0,1-.4-2.6,45.71,45.71,0,0,1-.3-4.9Z" style="fill:#231f20" />
        <path d="M96.46,186.09c.5-2.3,1-4.6,1.6-6.9s1.2-4.5,1.7-6.8l.4-1.4.1,1.5.3,3.8.3,3.8c.2,2.6.4,5.1.5,7.7-.3-2.5-.6-5.1-.9-7.7l-.4-3.8-.4-3.8h.5c-.6,2.3-1.2,4.5-1.8,6.8S97.16,183.79,96.46,186.09Z" style="fill:#231f20" />
        <path d="M158.16,192.19s1.8,9.9-7.6,10.7c0,0-9.4.9-12.1,2.6,0,0-7.6,1.7-10.1,1.7a121.43,121.43,0,0,0-14.3,1.4s-20.2,0-21.6-.2c-6.1-1-14.3-1.4-14.3-1.4-2.5.1-10.1-1.7-10.1-1.7-2.7-1.7-12.1-2.6-12.1-2.6-9.4-.8-7.6-10.7-7.6-10.7" style="fill:none;stroke:#231f20;stroke-miterlimit:10" />
        <path d="M152.36,192.59a5.14,5.14,0,0,1,0,2c0,.3-.1.5-.1.7s-.1.4-.2.5a1.09,1.09,0,0,1-.2.4l6.3,4.1a1.09,1.09,0,0,0,.2-.4l.5-1a11.64,11.64,0,0,0,.6-1.5c.1-.5.3-1.1.4-1.7a15.66,15.66,0,0,0,0-4.6Z" style="fill:none" />
        <path d="M155.86,196.89l-.7-.2a4.71,4.71,0,0,1-.2.5,1.41,1.41,0,0,1-.3.5l.7.4a2.83,2.83,0,0,1,.3-.6Z" style="fill:#231f20;fill-rule:evenodd" />
        <path d="M156.36,194.59l-.8-.1a2.14,2.14,0,0,1-.1.6,2.18,2.18,0,0,1-.1.6l.7.2a2.18,2.18,0,0,0,.1-.6A1.43,1.43,0,0,0,156.36,194.59Z" style="fill:#231f20;fill-rule:evenodd" />
        <path d="M156.36,192.39l-.8.1v1.2h.8v-1.3Z" style="fill:#231f20;fill-rule:evenodd" />
        <path d="M151.76,196.29a.75.75,0,0,1-.3.3,2.76,2.76,0,0,1-.8.6,4.23,4.23,0,0,1-1.2.4,3.2,3.2,0,0,1-.7.1l1,7.5s.5-.1,1.3-.2a13,13,0,0,0,3.1-1.1,9.13,9.13,0,0,0,2.8-2.2,2.43,2.43,0,0,0,.7-.9,1.73,1.73,0,0,0,.3-.4Z" style="fill:none" />
        <path d="M151.06,201.39l-.2-.7-.6.2a2.14,2.14,0,0,1-.6.1l.1.7a2.14,2.14,0,0,0,.6-.1C150.76,201.49,151.06,201.39,151.06,201.39Z" style="fill:#231f20;fill-rule:evenodd" />
        <path d="M153.06,200.39l-.4-.6-1,.5.3.7S153.16,200.49,153.06,200.39Z" style="fill:#231f20;fill-rule:evenodd" />
        <path d="M154.76,198.89l-.6-.5-.8.8.5.6.5-.5A.68.68,0,0,0,154.76,198.89Z" style="fill:#231f20;fill-rule:evenodd" />
        <path d="M148.76,197.69h-.9c-.6.1-1.5.2-2.4.3s-1.7.2-2.4.3-1.1.2-1.1.2l1.3,7.4s.4-.1,1-.2,1.4-.2,2.2-.3,1.6-.2,2.2-.3h.4c.2,0,.3,0,.4-.1a1,1,0,0,0,.4-.1Z" style="fill:none" />
        <path d="M144.46,202.29l-.1-.7a2.14,2.14,0,0,0-.6.1,2.14,2.14,0,0,1-.6.1l.1.7a2.18,2.18,0,0,1,.6-.1A2.18,2.18,0,0,0,144.46,202.29Z" style="fill:#231f20;fill-rule:evenodd" />
        <polygon points="146.56 201.99 146.56 201.29 145.26 201.49 145.36 202.19 146.56 201.99" style="fill:#231f20;fill-rule:evenodd" />
        <polygon points="148.76 201.79 148.76 201.09 147.46 201.19 147.56 201.89 148.76 201.79" style="fill:#231f20;fill-rule:evenodd" />
        <path d="M142.06,198.59s-1.7.3-3.6.8c-.5.1-.9.3-1.4.4-.3.1-.5.2-.8.3-.1.1-.2.1-.4.2h-.1a.44.44,0,0,0-.3.1l1.5,7.4a.77.77,0,0,0,.3-.1h.2a.37.37,0,0,0,.3-.1.76.76,0,0,0,.4-.1c.2-.1.3-.1.5-.2s.4-.1.6-.2a.35.35,0,0,0,.2-.1l.9-.3a20.13,20.13,0,0,1,2.9-.6Z" style="fill:none" />
        <path d="M138,203.79l-.3-.7-.6.2a4.71,4.71,0,0,1-.5.2l.2.7a1.19,1.19,0,0,0,.6-.2A3.22,3.22,0,0,0,138,203.79Z" style="fill:#231f20;fill-rule:evenodd" />
        <polygon points="140.06 203.09 139.86 202.39 138.66 202.69 138.86 203.49 140.06 203.09" style="fill:#231f20;fill-rule:evenodd" />
        <path d="M142.26,202.69l-.1-.7a2.14,2.14,0,0,0-.6.1,2.14,2.14,0,0,1-.6.1l.2.7a2.18,2.18,0,0,1,.6-.1A1.34,1.34,0,0,1,142.26,202.69Z" style="fill:#231f20;fill-rule:evenodd" />
        <path d="M135.46,200.39l-3.2.6c-.8.1-1.6.3-2.1.4a6.73,6.73,0,0,1-1,.1l1,7.5s.4-.1,1.1-.2,1.5-.2,2.4-.4l3.4-.6Z" style="fill:none" />
        <polygon points="131.46 205.19 131.36 204.49 130.16 204.59 130.26 205.39 131.46 205.19" style="fill:#231f20;fill-rule:evenodd" />
        <polygon points="133.66 204.79 133.56 204.09 132.26 204.29 132.46 204.99 133.66 204.79" style="fill:#231f20;fill-rule:evenodd" />
        <polygon points="135.86 204.39 135.66 203.69 134.46 203.89 134.66 204.59 135.86 204.39" style="fill:#231f20;fill-rule:evenodd" />
        <path d="M129.26,201.49a5.1,5.1,0,0,0-.9.1h-.8a6.15,6.15,0,0,0-1.3.1l-3.4.2.5,7.5,3.2-.2a4.87,4.87,0,0,0,1.2-.1,4.89,4.89,0,0,0,1.3-.1,9.4,9.4,0,0,1,1.2-.1Z" style="fill:none" />
        <polygon points="124.86 205.79 124.76 204.99 123.56 205.09 123.56 205.79 124.86 205.79" style="fill:#231f20;fill-rule:evenodd" />
        <polygon points="127.06 205.69 126.96 204.89 125.76 204.99 125.76 205.69 127.06 205.69" style="fill:#231f20;fill-rule:evenodd" />
        <path d="M129.26,205.49l-.1-.7a2.14,2.14,0,0,0-.6.1H128v.8h.6C129,205.59,129.26,205.49,129.26,205.49Z" style="fill:#231f20;fill-rule:evenodd" />
        <path d="M122.86,201.79a8.66,8.66,0,0,0-1.1.1c-.6.1-1.5.1-2.3.2a33.9,33.9,0,0,0-3.4.4l.9,7.5s1.5-.2,3.2-.3c.8-.1,1.6-.1,2.2-.2a4.54,4.54,0,0,0,1-.1Z" style="fill:none" />
        <polygon points="118.16 206.29 118.16 205.49 116.86 205.69 116.96 206.39 118.16 206.29" style="fill:#231f20;fill-rule:evenodd" />
        <polygon points="120.36 206.09 120.36 205.29 119.06 205.39 119.16 206.19 120.36 206.09" style="fill:#231f20;fill-rule:evenodd" />
        <polygon points="122.56 205.89 122.56 205.19 121.26 205.29 121.36 205.99 122.56 205.89" style="fill:#231f20;fill-rule:evenodd" />
        <path d="M116,202.49a5,5,0,0,1-1.1.1c-.3,0-.7.1-1.1.1a1.27,1.27,0,0,0-.6.1h-3.4v7.5h3.7a1.7,1.7,0,0,0,.7-.1c.2,0,.4-.1.6-.1.4,0,.7-.1,1-.1a6.73,6.73,0,0,1,1-.1Z" style="fill:none" />
        <rect x="110.36" y="206.09" width="1.2" height="0.8" style="fill:#231f20" />
        <path d="M113.76,206.79l-.1-.7h-1.2v.8h1C113.76,206.89,113.76,206.79,113.76,206.79Z" style="fill:#231f20;fill-rule:evenodd" />
        <polygon points="115.96 206.59 115.86 205.79 114.66 205.99 114.76 206.69 115.96 206.59" style="fill:#231f20;fill-rule:evenodd" />
        <polygon points="109.86 202.79 103.16 202.79 103.16 210.39 109.86 210.39 109.86 202.79" style="fill:none" />
        <rect x="103.66" y="206.09" width="1.2" height="0.8" style="fill:#231f20" />
        <rect x="105.86" y="206.09" width="1.2" height="0.8" style="fill:#231f20" />
        <rect x="108.06" y="206.09" width="1.2" height="0.8" style="fill:#231f20" />
        <polygon points="103.16 202.79 96.56 202.79 96.46 210.29 103.16 210.39 103.16 202.79" style="fill:none" />
        <polygon points="98.26 206.79 98.26 206.09 97.06 205.99 97.06 206.79 98.26 206.79" style="fill:#231f20;fill-rule:evenodd" />
        <rect x="99.43" y="205.73" width="0.8" height="1.2" transform="matrix(0.01, -1, 1, 0.01, -107.33, 304.4)" style="fill:#231f20" />
        <rect x="101.46" y="206.09" width="1.2" height="0.8" style="fill:#231f20" />
        <path d="M96.56,202.79s-1.4,0-2.9-.1c-.3,0-.8-.1-1.2-.1a4.48,4.48,0,0,0-1.1-.1,7.47,7.47,0,0,0-1.1-.1l-.9,7.5a6.73,6.73,0,0,1,1,.1c.3,0,.6.1,1,.1s.7.1,1.2.1c1.9.1,3.8.1,3.8.1Z" style="fill:none" />
        <polygon points="91.56 206.49 91.66 205.79 90.46 205.59 90.36 206.39 91.56 206.49" style="fill:#231f20;fill-rule:evenodd" />
        <path d="M93.76,206.69l.1-.7a4.87,4.87,0,0,1-1.2-.1l-.1.7A4.87,4.87,0,0,0,93.76,206.69Z" style="fill:#231f20;fill-rule:evenodd" />
        <polygon points="96.06 206.79 96.06 205.99 94.86 205.99 94.76 206.69 96.06 206.79" style="fill:#231f20;fill-rule:evenodd" />
        <path d="M90.36,202.29l-3.4-.4c-1.7-.1-3.4-.3-3.4-.3l-.5,7.5s1.6.1,3.2.3,3.2.3,3.2.3Z" style="fill:none" />
        <polygon points="84.96 205.79 85.06 205.09 83.76 204.99 83.76 205.69 84.96 205.79" style="fill:#231f20;fill-rule:evenodd" />
        <polygon points="87.16 205.99 87.26 205.29 86.06 205.19 85.96 205.89 87.16 205.99" style="fill:#231f20;fill-rule:evenodd" />
        <polygon points="89.36 206.29 89.46 205.49 88.26 205.39 88.16 206.09 89.36 206.29" style="fill:#231f20;fill-rule:evenodd" />
        <path d="M83.56,201.69l-4.4-.3h-1.1l-1-.1-1,7.5,1.3.2c.5,0,1.1.1,1.6.1h-.3c1.4.1,2.8.2,4.1.2Z" style="fill:none" />
        <path d="M78.36,205.39v-.8h-.6a2.18,2.18,0,0,1-.6-.1l-.1.7a2.14,2.14,0,0,1,.6.1A3.2,3.2,0,0,0,78.36,205.39Z" style="fill:#231f20;fill-rule:evenodd" />
        <polygon points="80.56 205.49 80.56 204.79 79.36 204.69 79.36 205.49 80.56 205.49" style="fill:#231f20;fill-rule:evenodd" />
        <rect x="81.74" y="204.56" width="0.8" height="1.2" transform="translate(-128.07 273.35) rotate(-86.15)" style="fill:#231f20" />
        <path d="M77.16,201.29a4.54,4.54,0,0,0-1-.1,19.14,19.14,0,0,1-2.1-.4l-3.2-.6-1.5,7.4,3.4.6c.9.1,1.7.3,2.4.4s1.1.2,1.1.2Z" style="fill:none" />
        <polygon points="71.76 204.49 71.86 203.69 70.66 203.49 70.56 204.19 71.76 204.49" style="fill:#231f20;fill-rule:evenodd" />
        <polygon points="73.96 204.79 74.06 204.09 72.86 203.89 72.66 204.59 73.96 204.79" style="fill:#231f20;fill-rule:evenodd" />
        <polygon points="76.06 205.19 76.26 204.49 74.96 204.29 74.86 204.99 76.06 205.19" style="fill:#231f20;fill-rule:evenodd" />
        <path d="M70.86,200.19a.77.77,0,0,1-.3-.1h-.1c-.1-.1-.2-.1-.4-.2s-.5-.2-.8-.3c-.5-.1-.9-.3-1.4-.4-1.9-.5-3.6-.8-3.6-.8l-1.3,7.4s1.6.3,2.9.6l.9.3a.35.35,0,0,1,.2.1,1.42,1.42,0,0,0,.6.2c.2.1.3.1.5.2a.76.76,0,0,0,.4.1c.1,0,.2.1.3.1H69a.44.44,0,0,1,.3.1Z" style="fill:none" />
        <path d="M65.36,202.69l.2-.7a2.18,2.18,0,0,0-.6-.1,2.14,2.14,0,0,0-.6-.1l-.1.7a2.14,2.14,0,0,1,.6.1A1.34,1.34,0,0,0,65.36,202.69Z" style="fill:#231f20;fill-rule:evenodd" />
        <polygon points="67.46 203.29 67.66 202.49 66.46 202.19 66.26 202.89 67.46 203.29" style="fill:#231f20;fill-rule:evenodd" />
        <path d="M69.56,204l.2-.7a.78.78,0,0,1-.5-.2l-.6-.2-.3.7.6.2A1.19,1.19,0,0,0,69.56,204Z" style="fill:#231f20;fill-rule:evenodd" />
        <path d="M64.36,198.39s-.4-.1-1.1-.2-1.5-.2-2.4-.3-1.7-.2-2.4-.3h-.9l-1,7.5a1.58,1.58,0,0,1,.4.1.6.6,0,0,1,.4.1h.4c.6.1,1.4.2,2.2.3s1.6.2,2.2.3,1,.2,1,.2Z" style="fill:none" />
        <polygon points="58.76 201.69 58.86 200.99 57.66 200.89 57.56 201.59 58.76 201.69" style="fill:#231f20;fill-rule:evenodd" />
        <polygon points="60.96 201.99 61.06 201.29 59.86 201.09 59.76 201.89 60.96 201.99" style="fill:#231f20;fill-rule:evenodd" />
        <path d="M63.16,202.29l.1-.7a2.18,2.18,0,0,0-.6-.1,2.18,2.18,0,0,1-.6-.1l-.1.7a2.14,2.14,0,0,1,.6.1A2.14,2.14,0,0,0,63.16,202.29Z" style="fill:#231f20;fill-rule:evenodd" />
        <path d="M57.56,197.49a3.2,3.2,0,0,1-.7-.1,8.4,8.4,0,0,1-1.2-.4,2.76,2.76,0,0,1-.8-.6l-.3-.3-6.3,4.1a3,3,0,0,1,.3.4c.2.2.4.6.7.9a13,13,0,0,0,2.8,2.2,13,13,0,0,0,3.1,1.1c.8.1,1.3.2,1.3.2Z" style="fill:none" />
        <path d="M52.46,199.59l.5-.6-.8-.8-.6.5a2.9,2.9,0,0,0,.9.9Z" style="fill:#231f20;fill-rule:evenodd" />
        <path d="M54.36,200.79l.3-.7-1-.5-.4.6A6,6,0,0,0,54.36,200.79Z" style="fill:#231f20;fill-rule:evenodd" />
        <path d="M56.56,201.49l.1-.7a2.14,2.14,0,0,1-.6-.1l-.6-.2-.2.7.6.2A2.44,2.44,0,0,1,56.56,201.49Z" style="fill:#231f20;fill-rule:evenodd" />
        <path d="M54.66,196.09l-.2-.4c-.1-.1-.1-.3-.2-.5s-.1-.4-.1-.7a5.14,5.14,0,0,1,0-2l-7.4-1.4a15.66,15.66,0,0,0,0,4.6,10.46,10.46,0,0,0,.4,1.7l.6,1.5.5,1,.2.4Z" style="fill:none" />
        <path d="M50,193.39h.8v-1.2l-.8-.1v1.3Z" style="fill:#231f20;fill-rule:evenodd" />
        <path d="M50.16,195.69l.7-.2a2.18,2.18,0,0,1-.1-.6,2.18,2.18,0,0,0-.1-.6l-.8.1a2.14,2.14,0,0,0,.1.6A1.73,1.73,0,0,1,50.16,195.69Z" style="fill:#231f20;fill-rule:evenodd" />
        <path d="M51,197.79l.7-.4a1.46,1.46,0,0,0-.3-.5,4.2,4.2,0,0,0-.2-.5l-.7.2.2.6A2.83,2.83,0,0,1,51,197.79Z" style="fill:#231f20;fill-rule:evenodd" />
        <path d="M67.16,189.49a48.23,48.23,0,0,1,6.4,3.4,59.2,59.2,0,0,1,8.8,0l10.4,1.2s2.3-1.1,6.2,0,4.4-.2,7.4-1.2c0,0,.9-.9,3.2,0a41.33,41.33,0,0,0,3.9,1.4l10.4-1.2a59.2,59.2,0,0,1,8.8,0,55.88,55.88,0,0,1,6.4-3.4" style="fill:none;stroke:#231f20;stroke-miterlimit:10" />
        <path d="M61.66,194.39s.4.2.9.4,1.4.6,2.1.9c1.5.7,2.9,1.4,2.9,1.4l3.6-6.6s-1.7-.9-3.4-1.7c-.8-.4-1.7-.7-2.3-1a8.17,8.17,0,0,0-1.1-.4Z" style="fill:none" />
        <path d="M67.86,192.69l-.3.7a2.83,2.83,0,0,1,.6.3,3,3,0,0,1,.6.3l.4-.7a3,3,0,0,0-.6-.3A6,6,0,0,0,67.86,192.69Z" style="fill:#231f20;fill-rule:evenodd" />
        <polygon points="65.76 191.69 65.46 192.39 66.66 192.89 66.96 192.19 65.76 191.69" style="fill:#231f20;fill-rule:evenodd" />
        <polygon points="63.56 190.79 63.36 191.49 64.56 191.99 64.86 191.29 63.56 190.79" style="fill:#231f20;fill-rule:evenodd" />
        <path d="M67.56,197.09a5.2,5.2,0,0,1,.5.3,9.08,9.08,0,0,0,1.4.7c.6,0,1.3-.1,2.1-.1h4.5v-7.5h-3.6a7.08,7.08,0,0,0-1.5.1h0Z" style="fill:none" />
        <polygon points="74.46 193.79 74.46 194.59 75.76 194.59 75.76 193.79 74.46 193.79" style="fill:#231f20;fill-rule:evenodd" />
        <polygon points="72.16 193.89 72.16 194.69 73.46 194.59 73.46 193.89 72.16 193.89" style="fill:#231f20;fill-rule:evenodd" />
        <path d="M70,193.79l-.3.7a.31.31,0,0,1,.2.1c.1,0,.1.1.2.1l.1.1H71V194h-.6C70.16,194,70,193.69,70,193.79Z" style="fill:#231f20;fill-rule:evenodd" />
        <path d="M76.26,197.89h1c.6,0,1.4.1,2.2.1.4,0,.8.1,1.2.1s.8.1,1.1.1a8.66,8.66,0,0,0,1.1.1l.8-7.5a8.66,8.66,0,0,1-1.1-.1,16.86,16.86,0,0,0-2.5-.2,25.35,25.35,0,0,0-2.6-.1h-1.2Z" style="fill:none" />
        <rect x="81.81" y="193.85" width="0.8" height="1.3" transform="translate(-119.56 256.79) rotate(-84.24)" style="fill:#231f20" />
        <polygon points="79.16 193.89 79.06 194.69 80.36 194.69 80.46 193.99 79.16 193.89" style="fill:#231f20;fill-rule:evenodd" />
        <path d="M76.86,193.79v.8h1.2v-.8h-1.2Z" style="fill:#231f20;fill-rule:evenodd" />
        <polygon points="82.86 198.29 89.86 198.99 90.66 191.49 83.66 190.79 82.86 198.29" style="fill:none" />
        <rect x="88.68" y="194.6" width="0.8" height="1.3" transform="translate(-113.93 264.83) rotate(-84.39)" style="fill:#231f20" />
        <rect x="86.38" y="194.34" width="0.8" height="1.3" transform="translate(-115.79 262.19) rotate(-84.36)" style="fill:#231f20" />
        <rect x="84.03" y="194.06" width="0.8" height="1.3" transform="translate(-117.68 259.45) rotate(-84.32)" style="fill:#231f20" />
        <path d="M89.86,199l1.9.2.9-.1.9-.1a8,8,0,0,1,3.1-.1l1-7.5a14.8,14.8,0,0,0-5.9.3l-1.1-.1Z" style="fill:none" />
        <path d="M95.36,194.69v.8H96a2.18,2.18,0,0,1,.6.1l.1-.8a2.44,2.44,0,0,0-.7-.1Z" style="fill:#231f20;fill-rule:evenodd" />
        <path d="M93,194.89l.2.7a2.18,2.18,0,0,1,.6-.1,2.14,2.14,0,0,1,.6-.1l-.1-.8a3.2,3.2,0,0,0-.7.1A3.93,3.93,0,0,1,93,194.89Z" style="fill:#231f20;fill-rule:evenodd" />
        <polygon points="90.76 194.99 90.76 195.79 91.76 195.89 92.16 195.89 92.06 195.09 91.76 195.09 90.76 194.99" style="fill:#231f20;fill-rule:evenodd" />
        <path d="M96.76,198.79a4.53,4.53,0,0,1,.8.1c.7.1,1.6.3,2.5.5a16.25,16.25,0,0,0,3.6,0,9.28,9.28,0,0,0,1.6-.4l-2.3-7.2a2,2,0,0,1-.5.1c-.1.1-.3,0-.5,0s-.5-.1-.7-.1c-.8-.2-1.6-.3-2.2-.5a5.94,5.94,0,0,0-1.3-.2Z" style="fill:none" />
        <path d="M102.26,195.49v.8h.2a1.09,1.09,0,0,0,.5-.1,2.64,2.64,0,0,1,.7-.1l-.2-.7a2.18,2.18,0,0,1-.6.1h-.6Z" style="fill:#231f20;fill-rule:evenodd" />
        <path d="M100.06,195.29l-.1.7a2.44,2.44,0,0,0,.7.1,3.55,3.55,0,0,1,.7.1l.1-.8a2.14,2.14,0,0,1-.6-.1A1.69,1.69,0,0,1,100.06,195.29Z" style="fill:#231f20;fill-rule:evenodd" />
        <polygon points="97.76 194.89 97.66 195.59 98.86 195.89 99.06 195.09 97.76 194.89" style="fill:#231f20;fill-rule:evenodd" />
        <path d="M105.26,199.09c1.6-.5,2.4-.9,3.3-1.2l1.4-.8c-.1.1-.2.1-.3.2l-.1.1a.35.35,0,0,1-.2.1c-.1,0-.1.1-.2.1s-.1.1-.2.1h.3c.1,0,.3.1.4.1l2-7.3-1.2-.3-.7-.1h-.7a5.24,5.24,0,0,0-1.7.2,5.39,5.39,0,0,0-1,.3,4.17,4.17,0,0,1-.6.2l-.3.2-.2.1-.3.3,1.4-.8a33.39,33.39,0,0,0-3.6,1.3Z" style="fill:none" />
        <path d="M109,193.59v.8h.6a2.18,2.18,0,0,1,.6.1l.2-.7a2.44,2.44,0,0,0-.7-.1A2.64,2.64,0,0,0,109,193.59Z" style="fill:#231f20;fill-rule:evenodd" />
        <path d="M106.66,194.19l.2.7.7-.2h.1l.1-.1a1,1,0,0,1,.3-.1l-.2-.7a1.33,1.33,0,0,0-.5.3l.1-.1Z" style="fill:#231f20;fill-rule:evenodd" />
        <polygon points="104.46 194.99 104.76 195.79 105.96 195.29 105.76 194.59 104.46 194.99" style="fill:#231f20;fill-rule:evenodd" />
        <path d="M109.76,197.79a4.15,4.15,0,0,1,1.2.4l1.4.4,1.4.4a10.38,10.38,0,0,0,1.2.3c.1,0,.2.1.3,0h.1v.1h1.9l.7-.1-.7-7.5-1.3.1-1.4-.4-1.3-.4c-.5-.1-.7-.3-1.5-.5Z" style="fill:none" />
        <polygon points="115.76 195.39 115.76 196.09 116.16 196.09 117.16 195.99 117.06 195.19 116.16 195.29 115.76 195.39" style="fill:#231f20;fill-rule:evenodd" />
        <polygon points="113.56 194.79 113.36 195.49 114.66 195.89 114.86 195.09 113.56 194.79" style="fill:#231f20;fill-rule:evenodd" />
        <polygon points="111.36 193.99 111.16 194.69 112.36 195.19 112.66 194.39 111.36 193.99" style="fill:#231f20;fill-rule:evenodd" />
        <polygon points="117.96 199.19 124.96 198.49 124.16 190.99 117.26 191.69 117.96 199.19" style="fill:none" />
        <rect x="122.78" y="194.6" width="1.3" height="0.8" transform="translate(-18.57 13.08) rotate(-5.64)" style="fill:#231f20" />
        <rect x="120.48" y="194.9" width="1.3" height="0.8" transform="translate(-18.61 12.85) rotate(-5.64)" style="fill:#231f20" />
        <rect x="118.17" y="195" width="1.3" height="0.8" transform="translate(-18.41 12.46) rotate(-5.57)" style="fill:#231f20" />
        <path d="M125,198.49a8.66,8.66,0,0,0,1.1-.1c.3,0,.7-.1,1.1-.1s.9-.1,1.2-.1c.8,0,1.6-.1,2.2-.1h1v-7.5h-1.2c-.7,0-1.7.1-2.6.1-.5,0-.9.1-1.3.1s-.8.1-1.1.1a8.66,8.66,0,0,1-1.1.1Z" style="fill:none" />
        <path d="M129.76,194.09v.8H131v-.8h-1.2Z" style="fill:#231f20;fill-rule:evenodd" />
        <polygon points="127.36 194.19 127.46 194.99 128.76 194.89 128.66 194.09 127.36 194.19" style="fill:#231f20;fill-rule:evenodd" />
        <rect x="125.05" y="194.39" width="1.3" height="0.8" transform="translate(-18.78 13.49) rotate(-5.72)" style="fill:#231f20" />
        <path d="M131.56,198.09h4.5c.8,0,1.5.1,2.1.1.6-.2,1.1-.6,1.4-.7a5.2,5.2,0,0,1,.5-.3l-3.6-6.6h0a8.64,8.64,0,0,1-1.5-.1c-.9,0-1.8-.1-2.5-.1h-1.1Z" style="fill:none" />
        <path d="M136.76,194.19v.8h.7a.37.37,0,0,0,.3-.1c.1,0,.1-.1.2-.1a.31.31,0,0,1,.2-.1l-.3-.7a1.23,1.23,0,0,1-.5.2Z" style="fill:#231f20;fill-rule:evenodd" />
        <polygon points="134.46 194.09 134.36 194.79 135.66 194.89 135.76 194.09 134.46 194.09" style="fill:#231f20;fill-rule:evenodd" />
        <polygon points="132.06 193.99 132.06 194.79 133.36 194.79 133.36 194.09 132.06 193.99" style="fill:#231f20;fill-rule:evenodd" />
        <path d="M140.26,197.29s1.3-.7,2.9-1.4a12,12,0,0,1,2.1-.9,4.11,4.11,0,0,0,.9-.4l-2.7-7a7,7,0,0,1-1.1.4c-.6.3-1.5.6-2.3,1a31.24,31.24,0,0,0-3.4,1.7Z" style="fill:none" />
        <polygon points="143.06 191.49 143.36 192.19 144.46 191.69 144.26 190.99 143.06 191.49" style="fill:#231f20;fill-rule:evenodd" />
        <polygon points="140.86 192.49 141.16 193.09 142.36 192.59 142.06 191.89 140.86 192.49" style="fill:#231f20;fill-rule:evenodd" />
        <path d="M138.76,193.49l.4.7a2.83,2.83,0,0,0,.6-.3,2.83,2.83,0,0,1,.6-.3l-.3-.7a2.83,2.83,0,0,0-.6.3A2.49,2.49,0,0,0,138.76,193.49Z" style="fill:#231f20;fill-rule:evenodd" />
        <polygon points="51.36 200.19 57.26 191.99 57.26 191.99 57.26 191.99 60.26 201.59 60.26 201.59 64.66 189.49 64.66 189.39 64.66 189.49 69.36 203.69 69.26 203.69 73.56 192.89 73.56 192.79 73.56 192.89 79.06 205.19 78.96 205.19 82.76 194.49 82.86 194.19 82.86 194.49 85.86 207.49 85.66 207.49 92.66 193.99 92.86 193.79 92.86 194.09 95.96 206.19 95.66 206.19 101.36 194.39 101.46 194.19 101.56 194.49 104.76 207.49 104.56 207.39 111.16 194.19 111.26 193.89 111.36 194.19 113.66 206.59 113.46 206.59 118.56 194.49 118.66 194.29 118.66 194.49 125.36 205.39 125.26 205.49 127.96 193.29 128.06 193.09 128.16 193.29 133.56 204.59 133.46 204.59 135.66 191.99 135.66 191.79 135.76 191.99 141.56 202.49 141.46 202.49 141.56 191.99 141.56 191.89 141.56 191.99 146.26 201.79 146.26 201.79 148.96 193.29 148.96 193.29 148.96 193.29 154.96 198.49 148.96 193.29 148.96 193.29 146.26 201.79 146.26 201.89 146.26 201.79 141.56 191.99 141.56 191.99 141.56 202.49 141.56 202.69 141.56 202.59 135.66 191.99 135.76 191.99 133.56 204.59 133.56 204.79 133.46 204.59 127.96 193.39 128.16 193.39 125.46 205.49 125.36 205.69 125.26 205.49 118.56 194.59 118.76 194.49 113.66 206.59 113.56 206.89 113.46 206.59 111.06 194.29 111.26 194.29 104.76 207.49 104.66 207.79 104.56 207.49 101.36 194.49 101.56 194.59 95.86 206.29 95.76 206.49 95.66 206.19 92.66 194.09 92.86 194.09 85.86 207.49 85.76 207.69 85.66 207.49 82.76 194.49 82.86 194.49 79.06 205.19 79.06 205.39 78.96 205.19 73.56 192.89 73.56 192.89 69.36 203.69 69.36 203.79 69.26 203.69 64.66 189.49 64.66 189.49 60.26 201.59 60.26 201.69 60.26 201.59 57.26 191.99 57.26 191.99 51.36 200.19" style="fill:#231f20" />
        <ellipse cx="85.76" cy="179.39" rx="6.6" ry="5.5" style="fill:#cadfe6;stroke:#231f20;stroke-miterlimit:10;stroke-width:0.75px" />
        <path d="M89.86,183.69s13.5,47.6-5.2,45.2-3-45.2-3-45.2l3,1.1s-9,36.1-2.2,40.6,5.2-40.5,5.2-40.5Z" style="fill:#cadfe6;stroke:#231f20;stroke-miterlimit:10;stroke-width:0.5px" />
        <path d="M162.56,176.69a1.09,1.09,0,0,0-.4-.2,7.93,7.93,0,0,0-.9-.4c-.6-.2-1.5-.6-2.4-.9-1.7-.5-3.4-1.1-3.4-1.1l-2.1,7.2s1.5.5,3,.9a19.68,19.68,0,0,1,1.9.7c.3.1.4.2.5.2a.1.1,0,0,1,.1.1Z" style="fill:none" />
        <polygon points="155.96 178.49 156.26 177.79 155.06 177.39 154.86 178.09 155.96 178.49" style="fill:#231f20;fill-rule:evenodd" />
        <path d="M158.06,179.19l.3-.7-1.2-.4-.2.7Z" style="fill:#231f20;fill-rule:evenodd" />
        <path d="M160.16,180l.3-.7-1.2-.5-.3.7Z" style="fill:#231f20;fill-rule:evenodd" />
        <path d="M155.46,174.09a.77.77,0,0,1-.3-.1,4.5,4.5,0,0,1-.8-.2c-.6-.2-1.5-.4-2.3-.6s-1.7-.4-2.3-.6a3.5,3.5,0,0,0-1-.2l-1.6,7.4s.4.1,1,.2a20.93,20.93,0,0,1,2.1.5c.8.2,1.6.4,2.1.5a6.37,6.37,0,0,1,.7.2.77.77,0,0,0,.3.1Z" style="fill:none" />
        <polygon points="149.56 176.79 149.76 176.09 148.56 175.79 148.36 176.49 149.56 176.79" style="fill:#231f20;fill-rule:evenodd" />
        <polygon points="151.76 177.29 151.96 176.59 150.76 176.29 150.56 176.99 151.76 177.29" style="fill:#231f20;fill-rule:evenodd" />
        <polygon points="153.86 177.79 154.06 177.09 152.86 176.79 152.66 177.49 153.86 177.79" style="fill:#231f20;fill-rule:evenodd" />
        <polygon points="148.76 172.49 142.06 171.19 140.76 178.69 147.16 179.79 148.76 172.49" style="fill:none" />
        <polygon points="143.06 175.49 143.16 174.79 141.96 174.49 141.86 175.29 143.06 175.49" style="fill:#231f20;fill-rule:evenodd" />
        <polygon points="145.26 175.89 145.36 175.19 144.16 174.89 144.06 175.69 145.26 175.89" style="fill:#231f20;fill-rule:evenodd" />
        <polygon points="147.46 176.29 147.56 175.59 146.36 175.39 146.16 176.09 147.46 176.29" style="fill:#231f20;fill-rule:evenodd" />
        <path d="M142.06,171.19s-.4-.1-1-.2-1.5-.2-2.3-.3l-3.4-.4-1,7.5,3.2.4c.8.1,1.6.2,2.2.3s1,.2,1,.2Z" style="fill:none" />
        <rect x="135.46" y="173.46" width="0.8" height="1.2" transform="translate(-55.13 284.85) rotate(-82.14)" style="fill:#231f20" />
        <polygon points="138.66 174.79 138.76 174.09 137.56 173.89 137.46 174.59 138.66 174.79" style="fill:#231f20;fill-rule:evenodd" />
        <path d="M140.86,175.09l.1-.7a2.18,2.18,0,0,0-.6-.1,2.18,2.18,0,0,1-.6-.1l-.1.7a2.14,2.14,0,0,1,.6.1A2.18,2.18,0,0,1,140.86,175.09Z" style="fill:#231f20;fill-rule:evenodd" />
        <path d="M135.36,170.29l-3.4-.4c-.8-.1-1.7-.2-2.3-.3a6.73,6.73,0,0,0-1-.1l-.8,7.5a6.73,6.73,0,0,1,1,.1,19.88,19.88,0,0,1,2.2.2l3.2.4Z" style="fill:none" />
        <polygon points="129.86 173.69 129.96 172.89 128.76 172.79 128.66 173.59 129.86 173.69" style="fill:#231f20;fill-rule:evenodd" />
        <polygon points="132.06 173.89 132.16 173.19 130.96 172.99 130.86 173.79 132.06 173.89" style="fill:#231f20;fill-rule:evenodd" />
        <polygon points="134.26 174.19 134.36 173.49 133.16 173.29 133.06 174.09 134.26 174.19" style="fill:#231f20;fill-rule:evenodd" />
        <polygon points="128.56 169.49 121.86 168.89 121.26 176.49 127.86 176.99 128.56 169.49" style="fill:none" />
        <rect x="122.27" y="172.13" width="0.8" height="1.2" transform="translate(-59.61 280.7) rotate(-85.26)" style="fill:#231f20" />
        <polygon points="125.46 173.29 125.56 172.49 124.36 172.39 124.26 173.19 125.46 173.29" style="fill:#231f20;fill-rule:evenodd" />
        <polygon points="127.66 173.49 127.76 172.69 126.56 172.59 126.46 173.39 127.66 173.49" style="fill:#231f20;fill-rule:evenodd" />
        <path d="M121.86,168.89s-1.7-.1-3.4-.3a19.3,19.3,0,0,0-2.3-.1h-1l-.4,7.5h1a20.15,20.15,0,0,1,2.3.1c1.6.1,3.3.3,3.3.3Z" style="fill:none" />
        <polygon points="116.66 172.59 116.66 171.79 115.46 171.79 115.46 172.49 116.66 172.59" style="fill:#231f20;fill-rule:evenodd" />
        <polygon points="118.86 172.69 118.96 171.99 117.66 171.89 117.66 172.59 118.86 172.69" style="fill:#231f20;fill-rule:evenodd" />
        <polygon points="121.06 172.89 121.16 172.19 119.86 172.09 119.86 172.79 121.06 172.89" style="fill:#231f20;fill-rule:evenodd" />
        <polygon points="115.16 168.49 108.46 168.19 108.16 175.69 114.76 175.99 115.16 168.49" style="fill:none" />
        <rect x="109.06" y="171.2" width="0.8" height="1.2" transform="translate(-67.02 273.55) rotate(-87.46)" style="fill:#231f20" />
        <polygon points="112.26 172.39 112.26 171.59 111.06 171.59 110.96 172.29 112.26 172.39" style="fill:#231f20;fill-rule:evenodd" />
        <polygon points="114.46 172.49 114.46 171.69 113.26 171.69 113.16 172.39 114.46 172.49" style="fill:#231f20;fill-rule:evenodd" />
        <polygon points="108.46 168.19 101.76 167.89 101.56 175.49 108.16 175.69 108.46 168.19" style="fill:none" />
        <polygon points="103.36 171.99 103.36 171.29 102.16 171.19 102.16 171.99 103.36 171.99" style="fill:#231f20;fill-rule:evenodd" />
        <polygon points="105.56 172.09 105.56 171.39 104.36 171.29 104.36 172.09 105.56 172.09" style="fill:#231f20;fill-rule:evenodd" />
        <polygon points="107.76 172.19 107.76 171.49 106.56 171.39 106.56 172.19 107.76 172.19" style="fill:#231f20;fill-rule:evenodd" />
        <path d="M163.86,175.09a1.09,1.09,0,0,0-.4-.2,7.93,7.93,0,0,0-.9-.4c-.6-.2-1.5-.6-2.4-.9-1.7-.5-3.4-1.1-3.4-1.1l-2.1,7.2s1.5.5,3,.9a19.68,19.68,0,0,1,1.9.7c.3.1.4.2.5.2a.1.1,0,0,1,.1.1Z" style="fill:none" />
        <polygon points="157.36 176.89 157.56 176.19 156.36 175.79 156.16 176.49 157.36 176.89" style="fill:#231f20;fill-rule:evenodd" />
        <path d="M159.46,177.59l.3-.7-1.2-.4-.2.7C158.26,177.19,159.46,177.49,159.46,177.59Z" style="fill:#231f20;fill-rule:evenodd" />
        <path d="M161.46,178.39l.3-.7-1.2-.5-.3.7C160.36,177.89,161.46,178.39,161.46,178.39Z" style="fill:#231f20;fill-rule:evenodd" />
        <path d="M156.86,172.49a.77.77,0,0,1-.3-.1,4.5,4.5,0,0,1-.8-.2c-.6-.2-1.5-.4-2.3-.6s-1.7-.4-2.3-.6a3.5,3.5,0,0,0-1-.2l-1.6,7.4s.4.1,1,.2a20.93,20.93,0,0,1,2.1.5c.8.2,1.6.4,2.1.5a6.37,6.37,0,0,1,.7.2.77.77,0,0,0,.3.1Z" style="fill:none" />
        <polygon points="150.96 175.19 151.16 174.39 149.96 174.09 149.76 174.89 150.96 175.19" style="fill:#231f20;fill-rule:evenodd" />
        <polygon points="153.06 175.69 153.26 174.99 152.06 174.69 151.86 175.39 153.06 175.69" style="fill:#231f20;fill-rule:evenodd" />
        <polygon points="155.26 176.19 155.46 175.49 154.26 175.19 154.06 175.89 155.26 176.19" style="fill:#231f20;fill-rule:evenodd" />
        <polygon points="150.06 170.79 143.36 169.59 142.16 176.99 148.56 178.19 150.06 170.79" style="fill:none" />
        <polygon points="144.46 173.89 144.56 173.19 143.36 172.89 143.26 173.69 144.46 173.89" style="fill:#231f20;fill-rule:evenodd" />
        <polygon points="146.56 174.29 146.76 173.59 145.56 173.29 145.36 174.09 146.56 174.29" style="fill:#231f20;fill-rule:evenodd" />
        <polygon points="148.76 174.69 148.96 173.99 147.66 173.69 147.56 174.49 148.76 174.69" style="fill:#231f20;fill-rule:evenodd" />
        <path d="M143.36,169.59s-.4-.1-1-.2-1.5-.2-2.3-.3l-3.4-.4-1,7.5,3.2.4c.8.1,1.6.2,2.2.3s1,.2,1,.2Z" style="fill:none" />
        <rect x="136.89" y="171.79" width="0.8" height="1.2" transform="translate(-52.24 284.82) rotate(-82.14)" style="fill:#231f20" />
        <polygon points="140.06 173.19 140.16 172.39 138.96 172.29 138.86 172.99 140.06 173.19" style="fill:#231f20;fill-rule:evenodd" />
        <path d="M142.26,173.49l.1-.7a2.18,2.18,0,0,0-.6-.1,2.18,2.18,0,0,1-.6-.1l-.1.7a2.14,2.14,0,0,1,.6.1A2.18,2.18,0,0,1,142.26,173.49Z" style="fill:#231f20;fill-rule:evenodd" />
        <path d="M136.66,168.69l-3.4-.4c-.8-.1-1.7-.2-2.3-.3a6.73,6.73,0,0,0-1-.1l-.8,7.5a6.73,6.73,0,0,1,1,.1,19.88,19.88,0,0,1,2.2.2l3.2.4Z" style="fill:none" />
        <polygon points="131.26 172.09 131.36 171.29 130.16 171.19 130.06 171.99 131.26 172.09" style="fill:#231f20;fill-rule:evenodd" />
        <polygon points="133.46 172.29 133.56 171.59 132.36 171.39 132.26 172.19 133.46 172.29" style="fill:#231f20;fill-rule:evenodd" />
        <polygon points="135.66 172.59 135.76 171.89 134.56 171.69 134.46 172.49 135.66 172.59" style="fill:#231f20;fill-rule:evenodd" />
        <polygon points="129.96 167.89 123.26 167.29 122.66 174.79 129.16 175.39 129.96 167.89" style="fill:none" />
        <rect x="123.71" y="170.47" width="0.8" height="1.2" transform="translate(-56.63 280.62) rotate(-85.26)" style="fill:#231f20" />
        <polygon points="126.86 171.69 126.96 170.89 125.66 170.79 125.66 171.59 126.86 171.69" style="fill:#231f20;fill-rule:evenodd" />
        <polygon points="129.06 171.89 129.16 171.09 127.86 170.99 127.86 171.79 129.06 171.89" style="fill:#231f20;fill-rule:evenodd" />
        <path d="M123.26,167.29s-1.7-.1-3.4-.3a19.3,19.3,0,0,0-2.3-.1h-1l-.4,7.5h1a20.15,20.15,0,0,1,2.3.1c1.6.1,3.3.3,3.3.3Z" style="fill:none" />
        <polygon points="118.06 170.99 118.06 170.19 116.86 170.19 116.76 170.89 118.06 170.99" style="fill:#231f20;fill-rule:evenodd" />
        <polygon points="120.26 171.09 120.26 170.39 119.06 170.29 118.96 170.99 120.26 171.09" style="fill:#231f20;fill-rule:evenodd" />
        <polygon points="122.46 171.29 122.46 170.59 121.26 170.49 121.16 171.19 122.46 171.29" style="fill:#231f20;fill-rule:evenodd" />
        <polygon points="116.56 166.89 109.76 166.59 109.46 174.09 116.06 174.39 116.56 166.89" style="fill:none" />
        <rect x="110.38" y="169.72" width="0.8" height="1.2" transform="translate(-64.27 273.44) rotate(-87.46)" style="fill:#231f20" />
        <polygon points="113.56 170.79 113.66 169.99 112.36 169.99 112.36 170.69 113.56 170.79" style="fill:#231f20;fill-rule:evenodd" />
        <polygon points="115.76 170.89 115.86 170.09 114.56 170.09 114.56 170.79 115.76 170.89" style="fill:#231f20;fill-rule:evenodd" />
        <polygon points="109.76 166.59 103.06 166.29 102.96 173.79 109.46 174.09 109.76 166.59" style="fill:none" />
        <polygon points="104.76 170.39 104.76 169.69 103.46 169.59 103.46 170.39 104.76 170.39" style="fill:#231f20;fill-rule:evenodd" />
        <polygon points="106.96 170.49 106.96 169.79 105.76 169.69 105.66 170.49 106.96 170.49" style="fill:#231f20;fill-rule:evenodd" />
        <polygon points="109.16 170.59 109.16 169.79 107.96 169.79 107.86 170.59 109.16 170.59" style="fill:#231f20;fill-rule:evenodd" />
        <path d="M159.76,177.39l.6-1.2c.4-.8,1-1.9,1.7-3.1a43.72,43.72,0,0,1,2.8-4.2c.6-.7,1.2-1.5,1.9-2.2a3.53,3.53,0,0,1,1.3-.8,1,1,0,0,1,.9.2,1.38,1.38,0,0,1,.3.4l.2.4a2.9,2.9,0,0,1,0,1.6,3.69,3.69,0,0,1-.7,1.4,13.36,13.36,0,0,1-2,2.1,23.56,23.56,0,0,1-4.2,2.8c-1.3.7-2.4,1.2-3.2,1.6a6.75,6.75,0,0,1-1.2.5,36.07,36.07,0,0,0,4.3-2.4,31.25,31.25,0,0,0,4.1-2.9,9.52,9.52,0,0,0,1.9-2.1,3.5,3.5,0,0,0,.6-2.6c-.1-.5-.4-.7-.8-.6a2.59,2.59,0,0,0-1.1.7,19,19,0,0,0-1.9,2.1c-1.1,1.5-2.1,2.9-2.9,4.1C160.76,175.69,159.76,177.39,159.76,177.39Z" style="fill:#231f20" />
        <path d="M148.86,171.69v-1.9c0-1.2.1-2.9.2-4.9a50.08,50.08,0,0,1,.8-7,27.44,27.44,0,0,1,.9-3.9,3.84,3.84,0,0,1,1.1-1.8,1.25,1.25,0,0,1,1.2-.3c.2,0,.4.2.5.2l.4.4a3.72,3.72,0,0,1,.9,1.9,7.39,7.39,0,0,1,0,2.1,15.34,15.34,0,0,1-1.2,3.8,41.35,41.35,0,0,1-3.6,6c-1.2,1.7-2.3,3-3,3.9s-1.2,1.4-1.2,1.4,1.7-2.1,4-5.5a41.38,41.38,0,0,0,3.4-6,16,16,0,0,0,1.2-3.7,4.12,4.12,0,0,0-.8-3.6l-.3-.3a.76.76,0,0,0-.4-.2c-.3-.1-.5.1-.7.2a4.17,4.17,0,0,0-.9,1.6,23.55,23.55,0,0,0-1,3.8c-.4,2.5-.7,4.9-.9,6.9C149,169,148.86,171.69,148.86,171.69Z" style="fill:#231f20" />
        <path d="M142.86,128.59s0,.7-.1,1.9-.2,2.9-.3,5-.4,4.5-.7,7.1c-.2,1.3-.3,2.6-.6,4s-.4,2.7-.7,4.1-.5,2.7-.8,4.1l-.9,3.9c-.3,1.3-.7,2.5-1,3.6s-.8,2.2-1.1,3.2-.8,1.8-1.1,2.6c-.2.4-.3.7-.5,1.1s-.3.6-.5.9c-.6,1.1-1,1.7-1,1.7s.3-.6.9-1.7a4.05,4.05,0,0,1,.5-.9c.1-.3.3-.7.4-1.1.3-.8.7-1.6,1-2.6s.7-2,1-3.2.7-2.3,1-3.6l.9-3.9c.3-1.3.6-2.7.8-4.1s.5-2.7.7-4.1.4-2.7.6-4c.3-2.6.7-5,.9-7.1s.4-3.8.5-5A14.88,14.88,0,0,1,142.86,128.59Z" style="fill:#231f20" />
        <path d="M132.56,144.39s-.1.5-.2,1.3-.3,2-.6,3.3-.6,3-1,4.7-.8,3.5-1.3,5.4c-.3.9-.5,1.8-.8,2.7s-.5,1.8-.8,2.6q-.9,2.55-1.8,4.5c-.3.6-.6,1.2-.9,1.7a14.8,14.8,0,0,1-.8,1.3,8.73,8.73,0,0,1-.8,1,11.62,11.62,0,0,0,.7-1.1c.2-.3.4-.8.7-1.3s.5-1.1.8-1.7.5-1.4.8-2.1.5-1.6.8-2.4.5-1.7.8-2.6.5-1.8.8-2.7c.5-1.8,1-3.6,1.4-5.3s.8-3.3,1.1-4.7C132.16,146.19,132.56,144.39,132.56,144.39Z" style="fill:#231f20" />
        <path d="M119.26,170.09s.2-1.4.7-3.8.9-5.9,1.6-10.1,1.3-9.1,1.9-14.4c.3-2.6.5-5.4.7-8.1a58.89,58.89,0,0,0,.1-8.4,14.1,14.1,0,0,0-.7-4.1,1.76,1.76,0,0,0-1.2-1.3h-.5a.75.75,0,0,0-.5.1,3.51,3.51,0,0,0-.8.5,7,7,0,0,0-1.4,3.7c-.2,1.3-.3,2.7-.4,4-.1,2.6,0,5.2.1,7.6s.3,4.7.4,6.8a99.53,99.53,0,0,1,.3,10.3c0,1.2-.1,2.2-.1,2.9a8.15,8.15,0,0,0-.1,1,6.73,6.73,0,0,1,.1-1c0-.7.1-1.6.1-2.9,0-2.5-.2-6-.5-10.2-.1-2.1-.3-4.4-.4-6.8s-.2-5-.2-7.7a29.34,29.34,0,0,1,.3-4.1,7.26,7.26,0,0,1,1.5-3.9,2.07,2.07,0,0,1,1-.6,1.09,1.09,0,0,1,.5-.1h.6a1.7,1.7,0,0,1,1,.6,8.79,8.79,0,0,1,.6,1,15.58,15.58,0,0,1,.8,4.2,60.3,60.3,0,0,1-.1,8.5c-.2,2.8-.5,5.5-.8,8.2-.6,5.3-1.3,10.2-2,14.4s-1.3,7.7-1.8,10.1A32.86,32.86,0,0,0,119.26,170.09Z" style="fill:#231f20" />
        <path d="M109.56,144.39s.3,1.6.7,4a40.52,40.52,0,0,1,.5,4.2c.1,1.5.3,3.2.3,4.8s.1,3.3,0,4.8a15,15,0,0,1-.2,2.2c-.1.7-.2,1.4-.3,2s-.2,1.2-.3,1.6a3.37,3.37,0,0,1-.4,1.2,8.17,8.17,0,0,0-.4,1.1s.1-.4.3-1.1a13,13,0,0,0,.3-1.3,7.77,7.77,0,0,0,.2-1.6c.2-1.2.2-2.6.3-4.1a39.24,39.24,0,0,0-.1-4.8c0-1.6-.2-3.2-.3-4.8s-.2-2.9-.4-4.2A35.66,35.66,0,0,0,109.56,144.39Z" style="fill:#231f20" />
        <path d="M151.66,178.39c.4,2.3.8,4.5,1.2,6.8l.5,3.4c.2,1.1.3,2.3.5,3.4l-.4-.1.4-.6.3-.6c.2-.4.4-.9.6-1.3l1.2-2.7,2.3-5.5-.9,2.8c-.3.9-.7,1.9-1,2.8s-.7,1.9-1.1,2.8c-.2.5-.4.9-.6,1.4-.1.2-.2.5-.3.7l-.4.7-.3.5-.1-.6c-.2-1.1-.3-2.3-.5-3.4l-.5-3.4A65.66,65.66,0,0,1,151.66,178.39Z" style="fill:#231f20" />
        <path d="M148.86,176.29a11.31,11.31,0,0,0-.2,1.2c-.1.8-.3,1.9-.5,3.2s-.5,2.9-.9,4.5c-.2.8-.4,1.7-.6,2.5a6.47,6.47,0,0,1-.4,1.3l-.2.7c-.1.1-.1.1-.1.2s-.2.2-.3.2a.44.44,0,0,1-.5-.1,2.15,2.15,0,0,1-.9-1.2,5,5,0,0,1-.5-1.3,11.71,11.71,0,0,1-.4-2.6,13.17,13.17,0,0,1,.6-4.6,26.29,26.29,0,0,1,1.2-3c.4-.7.6-1.1.6-1.1s-.2.4-.5,1.1-.7,1.8-1.1,3a15.71,15.71,0,0,0-.4,4.5,10.86,10.86,0,0,0,.4,2.5,6.12,6.12,0,0,0,.5,1.2c.2.4.4.8.7.9.1,0,.1.1.1,0h0l.1-.1.2-.6c.2-.4.2-.8.4-1.3.2-.8.4-1.7.6-2.5.4-1.6.7-3.2,1-4.5C148.46,178.09,148.86,176.29,148.86,176.29Z" style="fill:#231f20" />
        <path d="M138.16,172.79s.3,1,.8,2.6c.2.8.5,1.7.7,2.7s.5,2.1.7,3.1.4,2.1.6,3.1.3,2,.4,2.8a15.56,15.56,0,0,1,.1,2,1.27,1.27,0,0,1-.1.6.35.35,0,0,1-.1.2.31.31,0,0,1,.1-.2v-.5a8.08,8.08,0,0,0-.3-1.9c-.1-.8-.4-1.7-.6-2.7s-.4-2.1-.7-3.1-.5-2.1-.7-3.1-.4-1.9-.6-2.7A26,26,0,0,0,138.16,172.79Z" style="fill:#231f20" />
        <path d="M135.66,174.19v2.2a47.26,47.26,0,0,1-.3,4.9,20.24,20.24,0,0,1-.4,2.6,12,12,0,0,1-.5,2.2,7.7,7.7,0,0,1-.6,1.5,1.38,1.38,0,0,1-.3.4l-.1.1a5.2,5.2,0,0,1,.3-.5,6.37,6.37,0,0,0,.2-.7c.1-.3.1-.6.2-.9a45.62,45.62,0,0,0,.7-4.8c.2-1.8.4-3.5.5-4.8S135.66,174.19,135.66,174.19Z" style="fill:#231f20" />
        <path d="M109.56,186.39c-.7-2.2-1.3-4.5-2-6.8s-1.2-4.5-1.8-6.8h.5l-.4,3.8-.4,3.8c-.3,2.6-.6,5.1-.9,7.7.1-2.6.3-5.1.5-7.7l.3-3.8.3-3.8.1-1.5.4,1.4c.6,2.3,1.2,4.5,1.7,6.8C108.56,181.79,109.06,184.09,109.56,186.39Z" style="fill:#231f20" />
        <path d="M121.46,185.09s9,36.1,2.2,40.6-5.2-40.5-5.2-40.5" style="fill:none;stroke:#231f20;stroke-miterlimit:10;stroke-width:0.5px" />
        <path d="M79.16,173.89l2.5,5.5s4.1,0,4.1-2.7l-3.3-4.2S78.06,171.49,79.16,173.89Z" style="fill:#cadfe6;stroke:#231f20;stroke-miterlimit:10;stroke-width:0.75px" />
        <ellipse cx="120.66" cy="179.89" rx="6.6" ry="5.5" style="fill:#cadfe6;stroke:#231f20;stroke-miterlimit:10;stroke-width:0.75px" />
        <path d="M116.56,184.19s-13.5,47.6,5.2,45.2,3-45.2,3-45.2l-3,1.1s9,36.1,2.2,40.6-5.2-40.5-5.2-40.5Z" style="fill:#cadfe6;stroke:#231f20;stroke-miterlimit:10;stroke-width:0.5px" />
        <path d="M127.26,174.39l-2.5,5.5s-4.1,0-4.1-2.7L124,173S128.36,172,127.26,174.39Z" style="fill:#cadfe6;stroke:#231f20;stroke-miterlimit:10;stroke-width:0.75px" />
    </g>
</svg>