<svg id="BodyT" data-name="Layer 1" xmlns="http://www.w3.org/2000/svg">
    <g id="BodyT">
        <path d="M90.09,206.12c-.4,9.9-1.7,19.4-5.1,17.2-3.1-1.9-2.9-9.9-1.8-18a23.47,23.47,0,0,1-4.3-1.3c-1.7,10.5-1.1,21.4,8.3,22.6s10.5-9.6,9.4-20.5C94.39,206.12,92.19,206.22,90.09,206.12Z" style="fill:#cadfe6;stroke:#231f20;stroke-miterlimit:10;stroke-width:0.5px" />
        <path d="M127.89,207.12c.9,7.6.9,14.9-2,16.7-3.2,2-4.5-6.4-5-15.7a50,50,0,0,1-6.7.1c-.8,10.3.8,19.9,9.6,18.8,9-1.1,9.9-11.1,8.5-21.1A36,36,0,0,1,127.89,207.12Z" style="fill:#cadfe6;stroke:#231f20;stroke-miterlimit:10;stroke-width:0.5px" />
        <path d="M156,203.52s-9.2.8-11.9,2.4c0,0-7.5,1.6-9.9,1.5a132.58,132.58,0,0,0-14.1,1.3s-19.9,0-21.3-.2c-6-.9-14.1-1.3-14.1-1.3-2.5.1-9.9-1.5-9.9-1.5-2.7-1.6-11.9-2.4-11.9-2.4s-8.1.1-8-10a.1.1,0,0,0-.1-.1.1.1,0,0,1-.1-.1c-4.1-3.8-2.5-12.1-2.5-12.1-30.6,0-18.6-37.8-15.3-49.5s0-26.1,0-26.1c2.4-34.7-11.9-49.3-11.9-49.3,10.6-7.5,39-14.4,39-14.4s31.7-9.3,91.3,0c0,0,28.3,6.9,39,14.4,0,0-14.2,14.6-11.9,49.3,0,0-3.3,14.4,0,26.1s15.3,49.5-15.3,49.5c0,0,1.6,8.5-2.7,12.2C164,193.32,163.89,204.82,156,203.52Z" style="fill:#fff;stroke:#231f20;stroke-miterlimit:10" />
        <g style="opacity:0.800000011920929">
            <path d="M67.19,192.12s-.1-.6-.2-1.6-.3-2.5-.5-4.2-.5-3.8-.9-5.9a16.81,16.81,0,0,0-.9-3.2,2.8,2.8,0,0,0-.8-1.2.76.76,0,0,0-.4-.1.37.37,0,0,1-.3.1l-.2.2a3,3,0,0,0-.6,2.9,16,16,0,0,0,1,3.1,35.68,35.68,0,0,0,3,5.2c1,1.4,1.8,2.7,2.5,3.5s1,1.3,1,1.3-.4-.4-1.1-1.2-1.7-1.9-2.8-3.3a30,30,0,0,1-3.3-5.1,11.8,11.8,0,0,1-1.2-3.3,5.92,5.92,0,0,1-.1-1.9,3.81,3.81,0,0,1,.3-1c.1-.2.2-.3.3-.5l.3-.3c.2-.2.3-.2.4-.4a2.19,2.19,0,0,1,.5-.3,1.48,1.48,0,0,1,1.3.2,3.57,3.57,0,0,1,1.1,1.7,14.27,14.27,0,0,1,.9,3.4,48.56,48.56,0,0,1,.6,6c.1,1.8.1,3.2.1,4.3Z" style="fill:#231f20" />
        </g>
        <g style="opacity:0.800000011920929">
            <path d="M72.59,155.22s.3,2.4.8,5.9c.2,1.8.6,3.8.9,6s.7,4.5,1.2,6.9c.2,1.2.4,2.3.7,3.5a31.84,31.84,0,0,0,.8,3.3c.2,1.1.6,2.1.8,3.1a17.08,17.08,0,0,0,.9,2.7c.3.9.6,1.6.9,2.3a7.93,7.93,0,0,0,.4.9c.1.3.3.5.4.8a9.89,9.89,0,0,1,.7,1.5s-.3-.5-.9-1.4a3,3,0,0,0-.5-.7,4.05,4.05,0,0,0-.5-.9c-.3-.7-.7-1.4-1.1-2.2s-.7-1.7-1-2.7-.7-2-1-3.1l-.9-3.3c-.3-1.1-.5-2.3-.7-3.5s-.4-2.4-.6-3.5-.3-2.3-.5-3.4c-.3-2.2-.4-4.3-.6-6.1s-.2-3.3-.2-4.3Z" style="fill:#231f20" />
        </g>
        <g style="opacity:0.800000011920929">
            <path d="M82,168.72s.1.4.3,1.1.5,1.7.8,2.8.7,2.5,1.1,4,.8,3,1.3,4.5a20.16,20.16,0,0,0,.7,2.3c.3.7.4,1.5.7,2.2.5,1.4.9,2.8,1.4,3.9A6.89,6.89,0,0,0,89,191a10.91,10.91,0,0,0,.6,1.1l.6.9s-.3-.3-.7-.8a3.59,3.59,0,0,1-.7-1,6.38,6.38,0,0,1-.8-1.4,15,15,0,0,1-.9-1.8,11.92,11.92,0,0,1-.8-2c-.6-1.4-1-3-1.5-4.5s-.8-3.1-1.2-4.6-.6-2.9-.8-4.1-.3-2.2-.4-2.9A3.1,3.1,0,0,1,82,168.72Z" style="fill:#231f20" />
        </g>
        <path d="M94,190.72s-.2-1.2-.7-3.3-1-5.1-1.6-8.7-1.3-7.8-1.8-12.3c-.3-2.3-.5-4.6-.7-7a44.34,44.34,0,0,1-.1-7.3,9,9,0,0,1,.8-3.6,1.85,1.85,0,0,1,1.4-1.3h.5a1.09,1.09,0,0,1,.5.1,4.05,4.05,0,0,1,.9.5,6.39,6.39,0,0,1,1.4,3.3,20.68,20.68,0,0,1,.3,3.5c.1,2.3,0,4.5-.1,6.6s-.3,4.1-.4,5.9c-.3,3.6-.5,6.7-.5,8.8a17,17,0,0,0,.1,2.5,6.17,6.17,0,0,1,.1.9,6.17,6.17,0,0,0-.1-.9,17,17,0,0,1-.1-2.5c0-2.1.1-5.2.3-8.8.1-1.8.2-3.8.4-5.9s.2-4.3.1-6.5a19.53,19.53,0,0,0-.3-3.4,6.63,6.63,0,0,0-1.3-3.1,1.61,1.61,0,0,0-.7-.4.6.6,0,0,0-.4-.1h-.4a1.53,1.53,0,0,0-1.1,1.1,13.59,13.59,0,0,0-.7,3.5,57.66,57.66,0,0,0,0,7.2c.1,2.4.4,4.7.6,7,.5,4.5,1.1,8.7,1.7,12.3s1.1,6.6,1.4,8.7S94,190.72,94,190.72Z" style="fill:#231f20" />
        <g style="opacity:0.800000011920929">
            <path d="M102.69,168.72s-.1,1.4-.2,3.5c-.1,1-.1,2.3-.2,3.6s-.2,2.7-.2,4.1c0,.7-.1,1.4-.1,2.1v2c0,1.3.1,2.5.1,3.5a5.9,5.9,0,0,0,.2,1.4c.1.4.1.8.2,1.1a3.23,3.23,0,0,1,.2.9,4.11,4.11,0,0,1-.4-.9,10.37,10.37,0,0,1-.4-1c-.1-.4-.3-.9-.4-1.4s-.2-1.1-.3-1.7a11.08,11.08,0,0,1-.2-1.9,28,28,0,0,1,0-4.1c.1-1.4.2-2.8.3-4.1s.3-2.5.5-3.6.4-1.9.5-2.5A5.45,5.45,0,0,0,102.69,168.72Z" style="fill:#231f20" />
        </g>
        <path d="M150.09,192.32v-1.6c0-1,0-2.5.1-4.3a46.76,46.76,0,0,1,.6-6,15.62,15.62,0,0,1,.9-3.4,3.57,3.57,0,0,1,1.1-1.7,1.48,1.48,0,0,1,1.3-.2,2.19,2.19,0,0,1,.5.3c.1.1.3.2.4.4l.3.3c.1.2.2.3.3.5a2.93,2.93,0,0,1,.3,1,4,4,0,0,1-.1,1.9,11.8,11.8,0,0,1-1.2,3.3,37.65,37.65,0,0,1-3.3,5.1c-1.1,1.4-2.1,2.5-2.8,3.3s-1.1,1.2-1.1,1.2.4-.5,1-1.3,1.5-2,2.5-3.5a35.68,35.68,0,0,0,3-5.2,11.24,11.24,0,0,0,1-3.1,3.28,3.28,0,0,0-.6-2.9s-.2-.1-.2-.2a.37.37,0,0,0-.3-.1c-.1,0-.3-.1-.4.1a2.8,2.8,0,0,0-.8,1.2,16.81,16.81,0,0,0-.9,3.2c-.4,2.1-.7,4.2-.9,5.9s-.4,3.2-.5,4.2S150.09,192.32,150.09,192.32Z" style="fill:#231f20" />
        <path d="M144.69,155.52v1.6c0,1-.1,2.5-.2,4.3s-.3,3.9-.6,6.1c-.2,1.1-.3,2.3-.5,3.4s-.4,2.3-.6,3.5-.5,2.3-.7,3.5a33.74,33.74,0,0,1-.9,3.4c-.3,1.1-.7,2.1-1,3.1s-.7,1.9-1,2.7a11.29,11.29,0,0,1-1.1,2.2c-.2.3-.3.6-.5.9a4.23,4.23,0,0,1-.5.7c-.6.9-.9,1.4-.9,1.4a11.55,11.55,0,0,0,.7-1.5,5.94,5.94,0,0,0,.4-.8,3.55,3.55,0,0,1,.4-.9c.3-.7.6-1.4.9-2.3s.6-1.7.9-2.7a28.06,28.06,0,0,0,.8-3.1c.3-1.1.5-2.2.8-3.3s.5-2.3.7-3.5c.5-2.3.8-4.7,1.2-6.9s.7-4.3.9-6C144.29,157.82,144.69,155.52,144.69,155.52Z" style="fill:#231f20" />
        <path d="M135.29,169a8.66,8.66,0,0,1-.1,1.1c-.1.7-.2,1.7-.4,2.9s-.5,2.6-.8,4.1a44.77,44.77,0,0,1-1.2,4.6q-.75,2.4-1.5,4.5c-.3.7-.5,1.4-.8,2l-.9,1.8c-.3.5-.5,1-.8,1.4s-.5.8-.7,1a6,6,0,0,0-.7.8l.6-.9a10.91,10.91,0,0,0,.6-1.1c.2-.4.4-.9.7-1.5.5-1.1.9-2.4,1.4-3.9.3-.7.4-1.5.7-2.2s.5-1.5.7-2.3c.4-1.5.9-3.1,1.3-4.5s.8-2.8,1.1-4,.6-2.1.8-2.8A2.69,2.69,0,0,1,135.29,169Z" style="fill:#231f20" />
        <path d="M123.29,191s.2-1.2.5-3.3.8-5.1,1.3-8.7,1.1-7.8,1.6-12.3c.3-2.3.5-4.6.6-7a57.66,57.66,0,0,0,0-7.2,9.37,9.37,0,0,0-.7-3.4c-.2-.5-.5-.9-.9-.9h-.3a.6.6,0,0,0-.4.1c-.2,0-.4.2-.6.3a5.78,5.78,0,0,0-1.2,3,19.53,19.53,0,0,0-.3,3.4c-.1,2.3,0,4.4,0,6.5s.2,4.1.3,5.9c.2,3.6.3,6.7.2,8.8a14.73,14.73,0,0,1-.2,2.5,6.17,6.17,0,0,0-.1.9,6.17,6.17,0,0,1,.1-.9,20.38,20.38,0,0,0,0-2.5c0-2.1-.3-5.1-.6-8.8-.1-1.8-.3-3.8-.5-5.9s-.3-4.3-.2-6.6a20.68,20.68,0,0,1,.3-3.5,6.37,6.37,0,0,1,1.5-3.5,3.33,3.33,0,0,1,1-.6.9.9,0,0,1,.5-.1h.6a2.38,2.38,0,0,1,1.1.6,4.7,4.7,0,0,1,.6.9,12.29,12.29,0,0,1,.8,3.7,44.34,44.34,0,0,1-.1,7.3c-.2,2.4-.4,4.7-.7,7-.5,4.5-1.3,8.7-1.9,12.3s-1.3,6.6-1.7,8.6C123.59,189.82,123.29,191,123.29,191Z" style="fill:#231f20" />
        <path d="M114.59,169a6.59,6.59,0,0,1,.2.9c.1.6.3,1.5.5,2.5a28.43,28.43,0,0,1,.5,3.6,27.28,27.28,0,0,1,.3,4.1c0,1.4.1,2.8,0,4.1a11.08,11.08,0,0,1-.2,1.9c-.1.6-.2,1.2-.3,1.7a5.73,5.73,0,0,1-.4,1.4,2.32,2.32,0,0,1-.4,1,7.86,7.86,0,0,0-.4.9,6.59,6.59,0,0,0,.2-.9c.1-.3.1-.7.2-1.1s.1-.9.2-1.4c.1-1,.1-2.2.1-3.5v-2a14.77,14.77,0,0,0-.1-2.1c0-1.4-.1-2.8-.2-4.1s-.2-2.5-.2-3.6A31.06,31.06,0,0,0,114.59,169Z" style="fill:#231f20" />
        <path d="M166.39,190.32s-6.8-3.2-13.8-1.2c0,0,1.1,1.5-3.2,1a7.88,7.88,0,0,0-6.8,2.7s-5.9.7-8.9-.7c0,0-6.8-.2-8.1,1,0,0-1.4.5-5.1-1.2,0,0-3.5,2.2-6.2,1a32,32,0,0,0-5.5-.7,30.19,30.19,0,0,0-5.4.7c-2.7,1.2-6.2-1-6.2-1-3.8,1.7-5.1,1.2-5.1,1.2-1.4-1.2-8.1-1-8.1-1-3,1.5-8.9.7-8.9.7a7.71,7.71,0,0,0-6.8-2.7c-4.3.5-3.2-1-3.2-1a22.4,22.4,0,0,0-12.6,0" style="fill:none;stroke:#231f20;stroke-miterlimit:10" />
        <path d="M60.79,202.12c-.4-2.1-.8-4.2-1.1-6.3l-.5-3.2c-.2-1.1-.3-2.1-.5-3.2l.4.1-.4.5-.3.6-.6,1.2-1.1,2.5-2.2,5.1c.6-1.8,1.2-3.5,1.9-5.3.3-.9.7-1.7,1.1-2.6.2-.4.4-.8.6-1.3l.3-.6.4-.6.3-.5.1.6c.2,1.1.3,2.1.5,3.2l.4,3.2C60.39,197.82,60.59,200,60.79,202.12Z" style="fill:#231f20" />
        <path d="M63.59,204s.1-.4.2-1.1.3-1.8.5-3,.5-2.7.9-4.2c.2-.8.4-1.6.6-2.3a5.64,5.64,0,0,1,.4-1.2c.1-.2.1-.4.2-.6a.1.1,0,0,1,.1-.1.37.37,0,0,1,.3-.1.9.9,0,0,1,.5.1,3.13,3.13,0,0,1,.9,1.1,6.12,6.12,0,0,1,.5,1.2,10,10,0,0,1,.4,2.4,11.48,11.48,0,0,1-.6,4.3,29,29,0,0,1-1.2,2.8,10.39,10.39,0,0,0-.6,1l.5-1a17.31,17.31,0,0,0,1-2.8,13.63,13.63,0,0,0,.4-4.2,8.52,8.52,0,0,0-.4-2.3,3.7,3.7,0,0,0-.5-1.1,3.11,3.11,0,0,0-.7-.9h-.1l-.1.1a1.06,1.06,0,0,1-.2.5c-.2.4-.2.8-.4,1.2-.2.8-.4,1.6-.6,2.3-.4,1.5-.7,2.9-1,4.1C64,202.42,63.59,204,63.59,204Z" style="fill:#231f20" />
        <path d="M74.09,207.32s-.3-1-.8-2.4c-.2-.7-.5-1.6-.7-2.5s-.5-1.9-.7-2.9-.4-2-.6-2.9-.3-1.8-.4-2.6a14.16,14.16,0,0,1-.1-1.9.75.75,0,0,1,.1-.5.35.35,0,0,1,.1-.2.31.31,0,0,1-.1.2v.5a7.39,7.39,0,0,0,.3,1.8c.2.7.4,1.6.6,2.5s.4,1.9.7,2.9.5,2,.7,2.9.4,1.8.6,2.5A21.47,21.47,0,0,0,74.09,207.32Z" style="fill:#231f20" />
        <path d="M76.49,205.92v-2.1a39.05,39.05,0,0,1,.3-4.5,20,20,0,0,1,.4-2.4,10.81,10.81,0,0,1,.5-2.1,6.45,6.45,0,0,1,.6-1.4q.15-.3.3-.3l.1-.1a5.2,5.2,0,0,1-.3.5c-.1.2-.1.4-.2.6s-.1.5-.2.8a40.81,40.81,0,0,0-.7,4.4c-.2,1.6-.4,3.3-.5,4.5S76.49,205.92,76.49,205.92Z" style="fill:#231f20" />
        <path d="M102.19,194.62c.7,2.1,1.3,4.2,1.9,6.3l1.8,6.3h-.5l.4-3.6.4-3.6c.3-2.4.6-4.7.9-7.1-.1,2.4-.3,4.8-.5,7.2l-.3,3.6-.3,3.6-.1,1.4-.4-1.3c-.6-2.1-1.2-4.2-1.7-6.3S102.69,196.72,102.19,194.62Z" style="fill:#231f20" />
        <g style="opacity:0.800000011920929">
            <path d="M156.39,201.82c0-1.1.1-2.1.2-3.2s.2-2.1.3-3.2c.2-2.1.5-4.2.9-6.4l.2-1.2.7,1,.4.7c.2.2.2.4.3.6.2.4.4.9.6,1.3a27.73,27.73,0,0,1,1,2.6c.6,1.8,1.2,3.5,1.7,5.3-.4-.8-.8-1.7-1.2-2.5l-1.2-2.5-1.2-2.5-.6-1.2-.3-.6-.3-.5.8-.3c-.3,2.1-.6,4.2-1,6.3-.2,1.1-.4,2.1-.6,3.2S156.69,200.82,156.39,201.82Z" style="fill:#231f20" />
            <path d="M153.69,203.72s-.5-1.6-1.1-4c-.3-1.2-.7-2.6-1.1-4.1-.2-.8-.4-1.5-.6-2.3a3.58,3.58,0,0,0-.4-1.1l-.1-.3v-.2h0v.1l-.1-.1a.1.1,0,0,0,.1.1h0a1.83,1.83,0,0,0-.6.8,3.58,3.58,0,0,0-.4,1.1,8.52,8.52,0,0,0-.4,2.3,13.43,13.43,0,0,0,.3,4.1,15.41,15.41,0,0,0,.9,2.8,6.91,6.91,0,0,0,.5,1l-.2-.2c-.1-.2-.3-.4-.5-.7a10.58,10.58,0,0,1-1.3-2.8,13.82,13.82,0,0,1-.7-4.3,7.27,7.27,0,0,1,.4-2.5,6.12,6.12,0,0,1,.5-1.2,2.67,2.67,0,0,1,1-1.2.66.66,0,0,1,.6-.1.76.76,0,0,1,.4.2c.1.1.1.1.1.2s.1.1,0,.1h0v.1l.1.2.1.3a5.64,5.64,0,0,1,.4,1.2l.6,2.4c.3,1.5.6,3,.8,4.2s.3,2.3.4,3A1.93,1.93,0,0,1,153.69,203.72Z" style="fill:#231f20" />
            <path d="M143.19,207a3.2,3.2,0,0,1,.1-.7c.1-.4.1-1.1.3-1.8l1.1-5.5c.5-2,1-3.9,1.3-5.4.2-.7.3-1.3.4-1.8v-.5a.35.35,0,0,0-.1-.2,1,1,0,0,1,.2.7,11.88,11.88,0,0,1,0,1.9,44.55,44.55,0,0,1-2.5,10.9,9.76,9.76,0,0,1-.7,1.7A2.44,2.44,0,0,1,143.19,207Z" style="fill:#231f20" />
            <path d="M140.79,205.72s-.2-.8-.4-2-.4-2.8-.6-4.5-.4-3.2-.6-4.4a2.49,2.49,0,0,1-.1-.8c-.1-.2-.1-.4-.2-.6a4.2,4.2,0,0,0-.2-.5l.1.1.3.3a6,6,0,0,1,.7,1.4,17.64,17.64,0,0,1,1,4.5,23.93,23.93,0,0,1,.2,4.5C140.89,204.82,140.79,205.72,140.79,205.72Z" style="fill:#231f20" />
            <path d="M115.09,194.32a30.05,30.05,0,0,1-.7,3.2c-.2,1.1-.5,2.1-.7,3.2-.5,2.1-1.1,4.2-1.6,6.4l-.7,2.6-.3-2.7c-.2-2.4-.4-4.8-.6-7.1l-.2-3.6c0-1.2-.1-2.4-.1-3.6.2,1.2.4,2.4.6,3.5l.5,3.6c.3,2.4.6,4.7.8,7.1l-1-.1c.6-2.1,1.2-4.2,1.9-6.3.3-1,.7-2.1,1-3.1S114.69,195.32,115.09,194.32Z" style="fill:#231f20" />
        </g>
        <path d="M81.69,205.12s.1-.4.2-1.1.3-1.8.5-3,.5-2.7.9-4.2c.2-.8.4-1.6.6-2.3a5.64,5.64,0,0,1,.4-1.2c.1-.2.1-.4.2-.6a.1.1,0,0,1,.1-.1.37.37,0,0,1,.3-.1.9.9,0,0,1,.5.1,3.13,3.13,0,0,1,.9,1.1,6.12,6.12,0,0,1,.5,1.2,10,10,0,0,1,.4,2.4,11.48,11.48,0,0,1-.6,4.3,29,29,0,0,1-1.2,2.8,10.39,10.39,0,0,0-.6,1l.5-1a17.31,17.31,0,0,0,1-2.8,13.63,13.63,0,0,0,.4-4.2,9.26,9.26,0,0,0-.4-2.3,3.7,3.7,0,0,0-.5-1.1,3.11,3.11,0,0,0-.7-.9H85l-.1.1a1.06,1.06,0,0,1-.2.5c-.2.4-.2.8-.4,1.2-.2.8-.4,1.6-.6,2.3-.4,1.5-.7,2.9-1,4.1C82.09,203.52,81.69,205.12,81.69,205.12Z" style="fill:#231f20" />
        <path d="M92.19,208.42s-.3-1-.8-2.4c-.2-.7-.5-1.6-.7-2.5s-.5-1.9-.7-2.9-.4-2-.6-2.9-.3-1.8-.4-2.6a14.16,14.16,0,0,1-.1-1.9.75.75,0,0,1,.1-.5.35.35,0,0,1,.1-.2.31.31,0,0,1-.1.2v.5a7.39,7.39,0,0,0,.3,1.8c.2.7.4,1.6.6,2.5s.4,1.9.7,2.9.5,2,.7,2.9.4,1.8.6,2.5C92.09,207.42,92.19,208.42,92.19,208.42Z" style="fill:#231f20" />
        <path d="M94.69,207.12V205a39.05,39.05,0,0,1,.3-4.5,20,20,0,0,1,.4-2.4,10.81,10.81,0,0,1,.5-2.1,6.45,6.45,0,0,1,.6-1.4q.15-.3.3-.3l.1-.1a5.2,5.2,0,0,1-.3.5c-.1.2-.1.4-.2.6s-.1.5-.2.8a40.81,40.81,0,0,0-.7,4.4c-.2,1.6-.4,3.3-.5,4.5S94.69,207.12,94.69,207.12Z" style="fill:#231f20" />
        <path d="M133.69,205.52s-.4-1.6-1-4.1c-.3-1.2-.6-2.6-1-4.2-.2-.8-.4-1.5-.6-2.3a5.64,5.64,0,0,0-.4-1.2,1.69,1.69,0,0,1-.2-.5l-.1-.1h-.1a2.18,2.18,0,0,0-.7.9,11.73,11.73,0,0,0-.5,1.1,9.26,9.26,0,0,0-.4,2.3,14,14,0,0,0,.4,4.2,14.34,14.34,0,0,0,1,2.8,6.91,6.91,0,0,0,.5,1s-.2-.3-.6-1a9.34,9.34,0,0,1-1.2-2.8,11.48,11.48,0,0,1-.6-4.3,10,10,0,0,1,.4-2.4,6.12,6.12,0,0,1,.5-1.2,2.33,2.33,0,0,1,.9-1.1.75.75,0,0,1,.5-.1c.1,0,.2.1.3.1l.1.1c.1.3.2.4.2.6.2.4.2.8.4,1.2l.6,2.4c.4,1.5.6,3,.9,4.2s.4,2.3.5,3A8.37,8.37,0,0,1,133.69,205.52Z" style="fill:#231f20" />
        <path d="M123.19,208.82l.5-2.5c.2-.7.4-1.6.6-2.5s.4-1.9.7-2.9.5-2,.7-2.9.4-1.8.6-2.5.3-1.4.3-1.8v-.5a.35.35,0,0,0-.1-.2s.1,0,.1.2a4.33,4.33,0,0,1,.1.5,12.83,12.83,0,0,1-.1,1.8c-.1.8-.2,1.6-.4,2.6s-.4,1.9-.6,2.9-.5,2-.7,2.9-.5,1.8-.7,2.5C123.59,207.82,123.19,208.82,123.19,208.82Z" style="fill:#231f20" />
        <path d="M120.79,207.52s-.1-.8-.3-2-.3-2.9-.5-4.5a37.11,37.11,0,0,0-.7-4.4c-.1-.3-.1-.6-.2-.8a1.42,1.42,0,0,1-.2-.6,5.2,5.2,0,0,1-.3-.5l.1.1.3.3a6.45,6.45,0,0,1,.6,1.4,10.81,10.81,0,0,1,.5,2.1c.1.8.3,1.6.4,2.4a39.05,39.05,0,0,1,.3,4.5Z" style="fill:#231f20" />
        <path d="M70.79,47.52s.4-.1.9-.2a19.14,19.14,0,0,0,2.1-.4c1.6-.3,3.2-.5,3.2-.5L75.89,39s-1.7.2-3.3.5c-.8.2-1.7.3-2.3.4s-1.1.2-1.1.2Z" style="fill:none" />
        <polygon points="74.69 42.82 74.79 43.52 75.99 43.32 75.89 42.62 74.69 42.82" style="fill:#231f20;fill-rule:evenodd" />
        <polygon points="72.49 43.12 72.69 43.92 73.89 43.72 73.79 42.92 72.49 43.12" style="fill:#231f20;fill-rule:evenodd" />
        <polygon points="70.39 43.52 70.49 44.32 71.69 44.02 71.59 43.32 70.39 43.52" style="fill:#231f20;fill-rule:evenodd" />
        <path d="M77,46.52l3.2-.4c.8-.1,1.6-.2,2.2-.3a6.73,6.73,0,0,1,1-.1l-.8-7.5a6.73,6.73,0,0,0-1,.1c-.6.1-1.5.2-2.3.3L76,39Z" style="fill:none" />
        <polygon points="81.29 41.92 81.29 42.62 82.49 42.52 82.49 41.72 81.29 41.92" style="fill:#231f20;fill-rule:evenodd" />
        <polygon points="79.09 42.12 79.19 42.92 80.39 42.72 80.29 42.02 79.09 42.12" style="fill:#231f20;fill-rule:evenodd" />
        <polygon points="76.89 42.42 76.99 43.22 78.19 43.02 78.09 42.32 76.89 42.42" style="fill:#231f20;fill-rule:evenodd" />
        <path d="M83.39,45.72s1.6-.2,3.2-.3,3.2-.3,3.2-.3l-.6-7.5s-1.7.1-3.3.3-3.3.3-3.3.3Z" style="fill:none" />
        <polygon points="87.79 41.22 87.89 42.02 89.09 41.92 88.99 41.12 87.79 41.22" style="fill:#231f20;fill-rule:evenodd" />
        <polygon points="85.59 41.42 85.69 42.22 86.89 42.12 86.79 41.32 85.59 41.42" style="fill:#231f20;fill-rule:evenodd" />
        <polygon points="83.39 41.62 83.49 42.42 84.69 42.32 84.69 41.52 83.39 41.62" style="fill:#231f20;fill-rule:evenodd" />
        <path d="M89.79,45.12l3.2-.2,3.2-.2-.4-7.5-3.3.2-3.3.2Z" style="fill:none" />
        <rect x="94.39" y="40.82" width="1.2" height="0.7" transform="translate(-2.11 5.26) rotate(-3.14)" style="fill:#231f20" />
        <polygon points="92.19 40.92 92.19 41.62 93.49 41.62 93.39 40.82 92.19 40.92" style="fill:#231f20;fill-rule:evenodd" />
        <polygon points="89.99 41.12 90.09 41.82 91.29 41.72 91.19 41.02 89.99 41.12" style="fill:#231f20;fill-rule:evenodd" />
        <path d="M96.29,44.72s1.6-.1,3.2-.1,3.2-.1,3.2-.1l-.2-7.5s-1.7,0-3.3.1-3.3.1-3.3.1Z" style="fill:none" />
        <polygon points="100.99 40.52 100.99 41.32 102.19 41.22 102.19 40.52 100.99 40.52" style="fill:#231f20;fill-rule:evenodd" />
        <polygon points="98.79 40.62 98.79 41.32 99.99 41.32 99.99 40.52 98.79 40.62" style="fill:#231f20;fill-rule:evenodd" />
        <polygon points="96.59 40.72 96.59 41.42 97.79 41.42 97.79 40.62 96.59 40.72" style="fill:#231f20;fill-rule:evenodd" />
        <path d="M102.79,44.52h6.4V37h-6.6Z" style="fill:none" />
        <polygon points="107.59 40.42 107.59 41.22 108.79 41.22 108.79 40.42 107.59 40.42" style="fill:#231f20;fill-rule:evenodd" />
        <rect x="105.42" y="40.42" width="1.2" height="0.7" transform="translate(-0.37 0.97) rotate(-0.52)" style="fill:#231f20" />
        <polygon points="103.19 40.42 103.19 41.22 104.39 41.22 104.39 40.42 103.19 40.42" style="fill:#231f20;fill-rule:evenodd" />
        <path d="M109.29,44.42h3.2c1.6,0,3.2.1,3.2.1l.2-7.5s-1.7,0-3.3-.1a16.22,16.22,0,0,1-2.3-.1h-1Z" style="fill:none" />
        <polygon points="114.19 40.52 114.09 41.32 115.39 41.32 115.39 40.52 114.19 40.52" style="fill:#231f20;fill-rule:evenodd" />
        <rect x="112.22" y="40.14" width="0.8" height="1.2" transform="translate(69.98 152.66) rotate(-89.03)" style="fill:#231f20" />
        <polygon points="109.79 40.42 109.79 41.22 110.99 41.22 110.99 40.42 109.79 40.42" style="fill:#231f20;fill-rule:evenodd" />
        <path d="M115.69,44.62h1c.6,0,1.4.1,2.2.1l3.2.2.4-7.5-3.3-.2c-.8,0-1.7-.1-2.3-.1h-1Z" style="fill:none" />
        <rect x="121" y="40.51" width="0.8" height="1.2" transform="translate(74.33 160.32) rotate(-87.16)" style="fill:#231f20" />
        <polygon points="118.49 40.62 118.49 41.42 119.69 41.52 119.79 40.72 118.49 40.62" style="fill:#231f20;fill-rule:evenodd" />
        <path d="M116.39,40.62v.7h1.2v-.7h-1.2Z" style="fill:#231f20;fill-rule:evenodd" />
        <path d="M122.19,44.92l3.2.2c1.6.1,3.2.3,3.2.3l.6-7.5s-1.7-.1-3.3-.3a32,32,0,0,0-3.3-.2Z" style="fill:none" />
        <rect x="127.51" y="41.09" width="0.7" height="1.2" transform="translate(76.64 166.03) rotate(-85.67)" style="fill:#231f20" />
        <polygon points="125.09 41.02 125.09 41.72 126.29 41.82 126.29 41.12 125.09 41.02" style="fill:#231f20;fill-rule:evenodd" />
        <polygon points="122.89 40.92 122.89 41.62 124.09 41.72 124.19 40.92 122.89 40.92" style="fill:#231f20;fill-rule:evenodd" />
        <path d="M128.69,45.32s1.6.1,3.2.3l3.2.4.8-7.5-3.3-.4c-1.7-.1-3.3-.3-3.3-.3Z" style="fill:none" />
        <polygon points="133.89 41.72 133.79 42.52 134.99 42.62 135.09 41.92 133.89 41.72" style="fill:#231f20;fill-rule:evenodd" />
        <path d="M131.69,41.52l-.1.7a2.14,2.14,0,0,1,.6.1,2.18,2.18,0,0,1,.6.1l.1-.7a2.14,2.14,0,0,1-.6-.1A2.14,2.14,0,0,0,131.69,41.52Z" style="fill:#231f20;fill-rule:evenodd" />
        <polygon points="129.49 41.32 129.49 42.12 130.69 42.22 130.69 41.42 129.49 41.32" style="fill:#231f20;fill-rule:evenodd" />
        <path d="M135.19,45.92l3.2.4c.8.1,1.6.2,2.2.3a6.73,6.73,0,0,0,1,.1l1-7.4a4.54,4.54,0,0,0-1-.1c-.6-.1-1.4-.2-2.3-.3l-3.3-.4Z" style="fill:none" />
        <polygon points="140.39 42.52 140.29 43.22 141.49 43.42 141.59 42.62 140.39 42.52" style="fill:#231f20;fill-rule:evenodd" />
        <polygon points="138.29 42.22 138.19 43.02 139.39 43.12 139.49 42.42 138.29 42.22" style="fill:#231f20;fill-rule:evenodd" />
        <rect x="136.21" y="41.94" width="0.7" height="1.2" transform="translate(79.51 173.69) rotate(-83.79)" style="fill:#231f20" />
        <polygon points="141.59 46.72 147.99 47.62 149.19 40.22 142.59 39.32 141.59 46.72" style="fill:none" />
        <polygon points="146.99 43.42 146.79 44.12 148.09 44.32 148.19 43.62 146.99 43.42" style="fill:#231f20;fill-rule:evenodd" />
        <rect x="144.98" y="42.91" width="0.8" height="1.2" transform="translate(81.88 181.33) rotate(-81.92)" style="fill:#231f20" />
        <polygon points="142.59 42.82 142.49 43.52 143.69 43.72 143.79 42.92 142.59 42.82" style="fill:#231f20;fill-rule:evenodd" />
    </g>
</svg>