<svg id="SleeveRT" data-name="Layer 1" xmlns="http://www.w3.org/2000/svg">
    <g id="SleeveRT">
        <path d="M27.38,33.49s12-8.6,26.4,13.1c0,0,6.9,16,7.2,25.2,0,0,13,26.9,12.7,55.5,0,0,15.3,35.9,8.1,49.1,0,0-9.8,14.7-9.5,19.9,0,0-8,7.1-16.7,8.6,0,0-12.4-6.1-23.7,2.5,0,0-17.3-7.1-18-8.9,0,0-.5-9.5-1.6-11.7,0,0-2-25.7,0-40.5,0,0,3.3-7.8,2.3-14.9C14.48,131.49,3.28,49.09,27.38,33.49Z" style="fill:#fff;stroke:#231f20;stroke-miterlimit:10" />
        <path d="M11.78,187.29c.1,2.4,1.6,11.7,1.6,11.7.7,1.8,18,8.9,18,8.9,11.3-8.6,23.7-2.5,23.7-2.5,8.7-1.5,16.7-8.6,16.7-8.6-.3-5.2,9.5-19.9,9.5-19.9,7.2-13.2-8.1-49.1-8.1-49.1.3-28.6-12.7-55.5-12.7-55.5-.3-9.2-7.2-25.2-7.2-25.2C38.88,25.29,26.88,34,26.88,34S2.78,31.59,11.78,187.29Z" style="fill:none;stroke:#231f20;stroke-miterlimit:10" />
        <path d="M56.38,204.69a26,26,0,0,0-3.4-1.8c-1.7-.7-3.4-1.2-3.4-1.2l-1.9,7.3a19.19,19.19,0,0,1,2.4.8c1.2.5,2.2,1.2,2,1Z" style="fill:none" />
        <path d="M50.08,206.09l.2-.7-.6-.2-.6-.2-.2.7a4.71,4.71,0,0,1,.5.2A3.13,3.13,0,0,1,50.08,206.09Z" style="fill:#231f20;fill-rule:evenodd" />
        <path d="M52,206.89l.3-.7a4.71,4.71,0,0,1-.5-.2,4.2,4.2,0,0,1-.5-.2l-.3.7a4.71,4.71,0,0,1,.5.2A4.71,4.71,0,0,0,52,206.89Z" style="fill:#231f20;fill-rule:evenodd" />
        <path d="M53.68,207.79l.4-.6s-.3-.2-.5-.3a1.41,1.41,0,0,1-.5-.3l-.3.7a1.46,1.46,0,0,1,.5.3Z" style="fill:#231f20;fill-rule:evenodd" />
        <path d="M49.68,201.79s-.4-.1-1.1-.2a16.37,16.37,0,0,0-2.5-.4,22.63,22.63,0,0,0-2.5-.1,6.76,6.76,0,0,0-1.2.1l.6,7.5a3.2,3.2,0,0,0,.7-.1,10.9,10.9,0,0,1,1.7.1,8.58,8.58,0,0,1,1.7.3,7.35,7.35,0,0,1,.8.2Z" style="fill:none" />
        <path d="M44.18,205.09v-.8H43v.7h.6A1.45,1.45,0,0,1,44.18,205.09Z" style="fill:#231f20;fill-rule:evenodd" />
        <path d="M46.18,205.19l.1-.7a2.14,2.14,0,0,1-.6-.1h-.6l-.1.7h.6A2.8,2.8,0,0,0,46.18,205.19Z" style="fill:#231f20;fill-rule:evenodd" />
        <polygon points="48.18 205.59 48.38 204.79 47.18 204.59 47.08 205.29 48.18 205.59" style="fill:#231f20;fill-rule:evenodd" />
        <path d="M42.38,201.09h-.3a2.49,2.49,0,0,0-.8.1,13.77,13.77,0,0,0-2.5.5,22.35,22.35,0,0,0-2.4.8c-.6.3-1.1.5-1.1.5l3.1,6.8a6,6,0,0,0,.7-.3,15.6,15.6,0,0,1,1.6-.5,14.25,14.25,0,0,1,1.6-.3c.2-.1.4,0,.5,0H43Z" style="fill:none" />
        <path d="M38.28,206l-.2-.7a4.71,4.71,0,0,0-.5.2,4.2,4.2,0,0,0-.5.2l.3.7a4.71,4.71,0,0,0,.5-.2Z" style="fill:#231f20;fill-rule:evenodd" />
        <path d="M40.28,205.39l-.2-.7L39,205l.2.7Z" style="fill:#231f20;fill-rule:evenodd" />
        <path d="M42.18,205.09l-.1-.7-1.2.2.1.7C41.08,205.29,42.18,205.09,42.18,205.09Z" style="fill:#231f20;fill-rule:evenodd" />
        <path d="M35.18,202.89l-1,.5a17.28,17.28,0,0,0-2.1,1.3c-.8.5-1.4,1.1-2,1.5s-.9.7-.9.7l4.9,5.6a4.43,4.43,0,0,0,.6-.5,17,17,0,0,1,1.4-1c.5-.3,1.1-.6,1.5-.9a6,6,0,0,1,.7-.3Z" style="fill:none" />
        <polygon points="33.08 208.89 32.58 208.29 31.68 208.99 32.18 209.59 33.08 208.89" style="fill:#231f20;fill-rule:evenodd" />
        <path d="M34.68,207.79l-.4-.6-1,.6.4.6C33.78,208.29,34.68,207.79,34.68,207.79Z" style="fill:#231f20;fill-rule:evenodd" />
        <path d="M36.48,206.79l-.3-.7a4.71,4.71,0,0,0-.5.2c-.2.1-.5.3-.5.3l.4.7a5.2,5.2,0,0,0,.5-.3A1.42,1.42,0,0,1,36.48,206.79Z" style="fill:#231f20;fill-rule:evenodd" />
        <path d="M56.28,206.29a26,26,0,0,0-3.4-1.8c-1.7-.7-3.4-1.2-3.4-1.2l-1.9,7.3a19.19,19.19,0,0,1,2.4.8c1.2.5,2.2,1.2,2,1Z" style="fill:none" />
        <path d="M50,207.59l.2-.7-.6-.2-.6-.2-.2.7a4.71,4.71,0,0,1,.5.2C49.68,207.49,50,207.59,50,207.59Z" style="fill:#231f20;fill-rule:evenodd" />
        <path d="M51.88,208.39l.3-.7a4.71,4.71,0,0,1-.5-.2,4.2,4.2,0,0,1-.5-.2l-.3.7a4.71,4.71,0,0,1,.5.2A4.71,4.71,0,0,0,51.88,208.39Z" style="fill:#231f20;fill-rule:evenodd" />
        <path d="M53.58,209.29l.4-.6s-.3-.2-.5-.3a1.41,1.41,0,0,1-.5-.3l-.3.7a1.46,1.46,0,0,1,.5.3Z" style="fill:#231f20;fill-rule:evenodd" />
        <path d="M49.48,203.29s-.4-.1-1.1-.2a16.37,16.37,0,0,0-2.5-.4,22.63,22.63,0,0,0-2.5-.1,6.76,6.76,0,0,0-1.2.1l.6,7.5a3.2,3.2,0,0,0,.7-.1,10.9,10.9,0,0,1,1.7.1,8.58,8.58,0,0,1,1.7.3,7.35,7.35,0,0,1,.8.2Z" style="fill:none" />
        <path d="M44.08,206.59v-.8h-1.2v.7h.6A2.14,2.14,0,0,0,44.08,206.59Z" style="fill:#231f20;fill-rule:evenodd" />
        <path d="M46.08,206.69l.1-.7a2.14,2.14,0,0,1-.6-.1H45v.7h.6A1.34,1.34,0,0,0,46.08,206.69Z" style="fill:#231f20;fill-rule:evenodd" />
        <polygon points="48.08 207.09 48.18 206.39 47.08 206.09 46.98 206.79 48.08 207.09" style="fill:#231f20;fill-rule:evenodd" />
        <path d="M42.28,202.59H42a2.49,2.49,0,0,0-.8.1,13.77,13.77,0,0,0-2.5.5,22.35,22.35,0,0,0-2.4.8c-.6.3-1.1.5-1.1.5l3.1,6.8a6,6,0,0,0,.7-.3,15.6,15.6,0,0,1,1.6-.5,14.25,14.25,0,0,1,1.6-.3c.2-.1.4,0,.5,0h.2Z" style="fill:none" />
        <path d="M38.18,207.49l-.2-.7a4.71,4.71,0,0,0-.5.2,4.2,4.2,0,0,0-.5.2l.3.7a4.71,4.71,0,0,0,.5-.2A1.42,1.42,0,0,1,38.18,207.49Z" style="fill:#231f20;fill-rule:evenodd" />
        <path d="M40.08,207l-.2-.7-1.1.3.2.7C39.08,207.29,40.08,206.89,40.08,207Z" style="fill:#231f20;fill-rule:evenodd" />
        <path d="M42.08,206.69,42,206l-1.2.2.1.7A2.74,2.74,0,0,1,42.08,206.69Z" style="fill:#231f20;fill-rule:evenodd" />
        <path d="M35.08,204.49l-1,.5a17.28,17.28,0,0,0-2.1,1.3c-.8.5-1.4,1.1-2,1.5s-.9.7-.9.7l4.9,5.6a4.43,4.43,0,0,0,.6-.5,17,17,0,0,1,1.4-1c.5-.3,1.1-.6,1.5-.9a6,6,0,0,1,.7-.3Z" style="fill:none" />
        <polygon points="32.98 210.39 32.48 209.79 31.58 210.49 32.08 211.09 32.98 210.39" style="fill:#231f20;fill-rule:evenodd" />
        <path d="M34.58,209.29l-.4-.6-1,.6.4.6A5.3,5.3,0,0,1,34.58,209.29Z" style="fill:#231f20;fill-rule:evenodd" />
        <path d="M36.38,208.29l-.3-.7a4.71,4.71,0,0,0-.5.2c-.2.1-.5.3-.5.3l.4.7a5.2,5.2,0,0,0,.5-.3A1.42,1.42,0,0,1,36.38,208.29Z" style="fill:#231f20;fill-rule:evenodd" />
        <path d="M71.48,159s.1.8.2,2.2.2,3.5.2,5.9c0,1.2-.1,2.6-.1,4s-.2,2.9-.4,4.4-.5,3.1-.8,4.7a42.09,42.09,0,0,1-1.2,4.8,36.11,36.11,0,0,1-1.7,4.6,34.18,34.18,0,0,1-2.1,4.3c-.4.7-.8,1.3-1.2,1.9a10.92,10.92,0,0,1-1.3,1.7,25.59,25.59,0,0,1-2.7,2.9,15.38,15.38,0,0,0-1.3,1.2,14.63,14.63,0,0,0-1.3.9,13.81,13.81,0,0,1-2.2,1.3c-1.3.6-2,.9-2,.9l1.9-1.1a17.22,17.22,0,0,0,2.1-1.5,10.59,10.59,0,0,0,1.2-1,15.38,15.38,0,0,1,1.3-1.2,26.45,26.45,0,0,0,2.5-3,31.72,31.72,0,0,0,2.3-3.6,40.93,40.93,0,0,0,2-4.2c.6-1.5,1.1-3,1.6-4.5a35.93,35.93,0,0,0,1.2-4.7c.3-1.6.6-3.1.8-4.6.4-3,.7-5.8.8-8.3s.2-4.5.2-5.9A12,12,0,0,0,71.48,159Z" style="fill:#231f20" />
        <path d="M61.08,176.19a7.31,7.31,0,0,1,.1,1.3c0,.8,0,2-.1,3.4a32,32,0,0,1-.8,4.8c-.2.9-.5,1.8-.7,2.7s-.6,1.8-1,2.7a20.62,20.62,0,0,1-1.2,2.6,18.84,18.84,0,0,1-1.4,2.4c-.2.4-.5.7-.7,1.1s-.5.7-.8,1c-.5.6-1,1.2-1.5,1.7l-1.4,1.4c-.5.3-.9.7-1.2.9l-1.1.8.9-.9c.3-.3.7-.6,1.1-1a9.83,9.83,0,0,0,1.2-1.5,14.1,14.1,0,0,0,1.4-1.8c.2-.3.5-.7.7-1a6.73,6.73,0,0,1,.7-1.1c.2-.4.5-.7.7-1.1l.6-1.2a27.18,27.18,0,0,0,1.1-2.5c.4-.9.6-1.7,1-2.6.2-.9.6-1.7.8-2.6s.4-1.7.6-2.5a20.69,20.69,0,0,0,.4-2.2c.2-1.4.4-2.6.5-3.4S61.08,176.19,61.08,176.19Z" style="fill:#231f20" />
        <path d="M39.48,167.29s.1.6.3,1.5.4,2.3.6,4,.5,3.6.7,5.7.5,4.3.6,6.5c.1,1.1.2,2.2.2,3.3s.1,2.2.2,3.2c.1,2.1.1,4.1.1,5.7s-.1,3.1-.2,4.1a8.92,8.92,0,0,0-.2,1.1.58.58,0,0,1-.1.4s0-.6.1-1.5v-1.8c0-.7-.1-1.4-.1-2.3-.1-1.7-.3-3.6-.4-5.7s-.4-4.3-.5-6.5-.4-4.5-.5-6.5-.3-4-.4-5.7-.2-3.1-.3-4S39.48,167.29,39.48,167.29Z" style="fill:#231f20" />
        <path d="M25.08,165.19s.5,2.5,1.3,6.3c.4,1.9.9,4.1,1.4,6.5s1.1,4.9,1.7,7.4c.3,1.3.6,2.5,1,3.7s.6,2.4,1,3.6.7,2.3,1,3.3c.2.5.3,1,.5,1.5s.4,1,.6,1.4c.3.9.7,1.7,1,2.4a10,10,0,0,0,.9,1.8l.9,1.5-1.1-1.4a12.55,12.55,0,0,1-1.1-1.7,10.91,10.91,0,0,1-.6-1.1c-.2-.4-.4-.8-.6-1.3s-.4-.9-.6-1.4l-.6-1.5c-.4-1-.8-2.2-1.2-3.3s-.8-2.4-1.1-3.6-.7-2.5-1-3.8c-.6-2.5-1.2-5.1-1.6-7.5s-.8-4.6-1.1-6.6-.5-3.5-.6-4.7C25.08,165.79,25.08,165.19,25.08,165.19Z" style="fill:#231f20" />
        <path d="M17.58,185s.2.4.5,1.1.8,1.6,1.3,2.7,1.3,2.4,2.1,3.7a46.85,46.85,0,0,0,2.7,4c.5.7,1,1.3,1.5,2l1.5,1.8c.5.6,1,1.1,1.5,1.7l1.4,1.4c.5.4.8.9,1.2,1.2a9,9,0,0,1,1,.9l.8.8a10.39,10.39,0,0,1-1-.6c-.3-.2-.7-.5-1.1-.8a12.67,12.67,0,0,1-1.3-1.1,17.38,17.38,0,0,1-1.5-1.3c-.5-.5-1.1-1-1.6-1.6s-1.1-1.2-1.6-1.8-1.1-1.3-1.6-2a49.41,49.41,0,0,1-2.7-4.2c-.4-.7-.7-1.4-1-2s-.6-1.3-.8-1.9a25.52,25.52,0,0,1-1-2.9C17.68,185.39,17.58,185,17.58,185Z" style="fill:#231f20" />
        <path d="M62.68,98s.2.4.5,1.2.7,1.8,1.1,3.1,1,2.8,1.5,4.4,1.1,3.3,1.6,5,1.1,3.4,1.6,5,.9,3.1,1.3,4.4.7,2.4,1,3.1a4.65,4.65,0,0,0,.3.9.77.77,0,0,1,.1.3,1.24,1.24,0,0,1-.2-.3,2.93,2.93,0,0,1-.4-.8c-.3-.7-.8-1.7-1.3-3s-1.1-2.7-1.6-4.3-1.1-3.3-1.7-5-1.1-3.4-1.5-5.1-.9-3.2-1.2-4.5-.6-2.4-.8-3.2Z" style="fill:#231f20" />
        <path d="M59.38,118.89a8.63,8.63,0,0,1-.2,1.5,30.06,30.06,0,0,1-.8,3.9,37.89,37.89,0,0,1-1.8,5.4c-.4,1-.8,1.9-1.3,2.9s-1,2-1.6,2.9a26.1,26.1,0,0,1-1.9,2.7c-.3.4-.7.9-1,1.3a12,12,0,0,1-1.1,1.2,11.41,11.41,0,0,1-1.1,1.1,5.24,5.24,0,0,0-1.1,1c-.7.6-1.4,1.2-2.1,1.7s-1.3.9-1.9,1.3-1.1.6-1.6.8a14.22,14.22,0,0,0-1.4.7l1.3-.8c.4-.3.9-.6,1.4-.9s1.1-.9,1.7-1.4a10.71,10.71,0,0,0,1.9-1.8l1-1a10,10,0,0,1,1-1.1c.3-.4.7-.8,1-1.2a14.63,14.63,0,0,0,.9-1.3,25.34,25.34,0,0,0,1.8-2.7c.6-.9,1.1-1.9,1.6-2.8s1-1.9,1.4-2.8.8-1.8,1.1-2.7.6-1.7.9-2.5c.5-1.6.9-2.9,1.1-3.8A5.65,5.65,0,0,0,59.38,118.89Z" style="fill:#231f20" />
        <path d="M47.08,123.79a26.26,26.26,0,0,0-3.3,1.8,26.35,26.35,0,0,0-3.2,2.2l-.9.6a5.72,5.72,0,0,0-.8.7c-.6.5-1.1,1-1.7,1.5-1.1,1-2.1,2.1-3.1,3.1-.5.5-.9,1.1-1.3,1.5s-.8,1-1.1,1.4-.7.8-.9,1.2-.5.7-.7,1c-.4.5-.6.8-.6.8a9.24,9.24,0,0,0,.5-.9,11.73,11.73,0,0,0,.5-1.1c.2-.4.5-.9.8-1.4s.6-1,1-1.6.8-1.1,1.2-1.7.9-1.1,1.5-1.7l1.6-1.6c.6-.5,1.1-1,1.8-1.5a20.28,20.28,0,0,1,1.8-1.3,17.39,17.39,0,0,1,1.8-1.1c.6-.3,1.1-.6,1.6-.9,1-.5,1.9-.8,2.6-1.1A5.1,5.1,0,0,0,47.08,123.79Z" style="fill:#231f20" />
        <path d="M55.18,58.69s.5.8,1.1,2a41.91,41.91,0,0,1,2,4.6,32.75,32.75,0,0,1,1.6,4.7c.4,1.3.6,2.2.6,2.2s-.5-.8-1.1-2a41.91,41.91,0,0,1-2-4.6,32.75,32.75,0,0,1-1.6-4.7C55.38,59.59,55.18,58.69,55.18,58.69Z" style="fill:#231f20" />
        <path d="M42.88,61.49l.6.9c.4.6.9,1.4,1.5,2.5s1.3,2.3,1.9,3.7,1.2,2.9,1.8,4.4a20.16,20.16,0,0,1,.7,2.3,18.92,18.92,0,0,1,.5,2.3c.1.7.2,1.5.3,2.2s.1,1.4.2,2v1.7c0,.5-.1.9-.1,1.3-.1.7-.2,1.1-.2,1.1v-2.4a10,10,0,0,0-.2-1.6c-.1-.6-.2-1.2-.3-1.9s-.3-1.4-.5-2.1-.4-1.5-.6-2.2-.5-1.5-.7-2.2-.5-1.5-.8-2.2-.5-1.4-.8-2.1c-.6-1.4-1.1-2.7-1.6-3.8s-.9-2-1.2-2.6A9.27,9.27,0,0,1,42.88,61.49Z" style="fill:#231f20" />
        <path d="M33.18,55.69a10.52,10.52,0,0,1,1,.9c.6.6,1.5,1.4,2.5,2.5.5.6,1,1.1,1.6,1.8s1.1,1.3,1.6,2.1a14.31,14.31,0,0,1,1.6,2.4c.5.8,1,1.7,1.5,2.5s.9,1.8,1.3,2.7a14.76,14.76,0,0,1,1,2.7,12.55,12.55,0,0,1,.7,2.6,10,10,0,0,1,.4,2.4c.1.7.1,1.4.2,2v1.6c-.1.9-.1,1.3-.1,1.3a11.62,11.62,0,0,0-.1-1.3,8.64,8.64,0,0,0-.1-1.5c-.1-.6-.2-1.2-.4-2s-.4-1.5-.6-2.3-.6-1.6-.9-2.5-.7-1.7-1.1-2.6-.9-1.7-1.3-2.6-.9-1.7-1.4-2.5l-1.5-2.4c-.5-.8-1-1.5-1.5-2.2s-1-1.3-1.4-1.9c-.9-1.1-1.6-2.1-2.2-2.8S33.18,55.69,33.18,55.69Z" style="fill:#231f20" />
        <path d="M25.08,36.69a1.24,1.24,0,0,1,.3-.2,3.92,3.92,0,0,1,.9-.4c.4-.1.8-.3,1.3-.4a8.08,8.08,0,0,1,1.6-.1H30c.3,0,.5.1.8.1a5,5,0,0,1,1.3.4,11,11,0,0,1,1.2.6H32c-.4,0-.8-.1-1.3-.1s-1-.1-1.5-.1h-1.5a5.63,5.63,0,0,1-1.3,0C25.58,36.59,25.08,36.69,25.08,36.69Z" style="fill:#231f20" />
        <path d="M23.28,40a4.54,4.54,0,0,1,1-.1c.6,0,1.6-.1,2.7-.1.6,0,1.2.1,1.8.1s1.3.2,2,.3a16,16,0,0,1,2.1.5,18,18,0,0,1,2.1.8c.7.3,1.4.7,2,1l.9.6a5.5,5.5,0,0,1,.9.7c.5.5,1.1.9,1.5,1.4a5.27,5.27,0,0,1,1.1,1.5,14.8,14.8,0,0,0,.8,1.3,7.6,7.6,0,0,1,.4,1.1c.2.6.3,1,.3,1a9.24,9.24,0,0,1-.5-.9c-.2-.3-.3-.6-.6-1a12.49,12.49,0,0,1-.9-1.2,3.39,3.39,0,0,0-.6-.6l-.6-.6a8.78,8.78,0,0,0-1.5-1.2c-.5-.4-1.2-.7-1.7-1.1s-1.3-.6-1.9-.9-1.3-.6-2-.8-1.3-.4-2-.6a29.63,29.63,0,0,0-3.7-.7,7.72,7.72,0,0,0-1.5-.2,4.87,4.87,0,0,0-1.2-.1A2.68,2.68,0,0,0,23.28,40Z" style="fill:#231f20" />
        <path d="M22.28,42.29a9.83,9.83,0,0,1,2.2.6c.3.1.7.3,1,.4a11.73,11.73,0,0,1,1.1.5l1.2.6c.4.2.8.5,1.2.7a10.47,10.47,0,0,1,1.1.8,8.74,8.74,0,0,1,1,.8,6.47,6.47,0,0,0,.9.8l.8.8a14.49,14.49,0,0,1,1.4,1.8,14.49,14.49,0,0,1-1.8-1.4c-.3-.2-.5-.4-.9-.7s-.6-.4-1-.7-.7-.5-1-.7-.7-.5-1.1-.7c-.7-.5-1.5-.9-2.2-1.4a8.79,8.79,0,0,1-1-.6,4.05,4.05,0,0,0-.9-.5C23.08,42.69,22.28,42.29,22.28,42.29Z" style="fill:#231f20" />
        <path d="M21,46.19a12.11,12.11,0,0,1,2.2.8,17.37,17.37,0,0,1,4.4,2.6c.4.3.7.6,1.1.9a4.74,4.74,0,0,1,1,1,7,7,0,0,1,.8,1,5.3,5.3,0,0,1,.6,1,3.55,3.55,0,0,1,.4.9,2.54,2.54,0,0,1,.2.7,2.8,2.8,0,0,1,.1.6l-.3-.6a2.09,2.09,0,0,0-.4-.6c-.2-.2-.3-.5-.5-.7a5,5,0,0,0-.7-.8,3.45,3.45,0,0,0-.9-.8,16.32,16.32,0,0,0-2-1.7c-.7-.6-1.4-1.1-2.1-1.6s-1.4-.9-1.9-1.3Z" style="fill:#231f20" />
        <path d="M19.68,50.89s.3.2.7.5a15.52,15.52,0,0,1,1.8,1.5,24.86,24.86,0,0,1,2.3,2.3c.8.9,1.6,1.9,2.4,2.9a22,22,0,0,1,2.1,3.2,10.93,10.93,0,0,1,.8,1.5,14.67,14.67,0,0,1,.6,1.4c.3.9.6,1.7.7,2.2s.2.9.2.9a4.56,4.56,0,0,0-.4-.8,3.55,3.55,0,0,0-.4-.9,10.91,10.91,0,0,1-.6-1.1c-.2-.4-.5-.8-.8-1.3s-.6-.9-.9-1.4-.7-1-1-1.5a14.31,14.31,0,0,0-1.1-1.5c-1.5-2-3.1-3.9-4.4-5.4-.6-.7-1.1-1.3-1.5-1.7A2.58,2.58,0,0,0,19.68,50.89Z" style="fill:#231f20" />
        <path d="M30.18,211.79a20,20,0,0,1,2.4-1.3c.3-.1.7-.3,1-.4l.9-.3a3.93,3.93,0,0,1,.6-.2c.2,0,.2-.1.2-.1l-2.3-7.1a4.88,4.88,0,0,0-1.1.4c-.3.1-.7.3-1.1.4s-.8.4-1.3.6a15,15,0,0,0-3.5,2Z" style="fill:none" />
        <polygon points="32.38 206.19 32.68 206.89 33.78 206.49 33.58 205.79 32.38 206.19" style="fill:#231f20;fill-rule:evenodd" />
        <path d="M30.28,207.19l.3.7a2.83,2.83,0,0,0,.6-.3,3,3,0,0,0,.6-.3l-.3-.7a2.83,2.83,0,0,0-.6.3A3,3,0,0,0,30.28,207.19Z" style="fill:#231f20;fill-rule:evenodd" />
        <path d="M28.28,208.29l.4.6s.3-.2.5-.3a5.2,5.2,0,0,1,.5-.3l-.4-.7a3,3,0,0,1-.6.3A1.4,1.4,0,0,1,28.28,208.29Z" style="fill:#231f20;fill-rule:evenodd" />
        <path d="M35.28,209.49a7.78,7.78,0,0,0,.9-.3,19.27,19.27,0,0,1,2-.5,16.21,16.21,0,0,1,2-.3c.3,0,.5-.1.7-.1h.2l-.5-7.5h-.3a3.44,3.44,0,0,0-.9.1c-.7.1-1.7.2-2.6.4s-1.9.4-2.6.6l-1.1.3Z" style="fill:none" />
        <path d="M39,204.49l.1.7a2.14,2.14,0,0,0,.6-.1,2.18,2.18,0,0,0,.6-.1l-.1-.7a2.14,2.14,0,0,0-.6.1A2.14,2.14,0,0,1,39,204.49Z" style="fill:#231f20;fill-rule:evenodd" />
        <path d="M36.78,204.89l.2.7,1.2-.3-.1-.7C38,204.59,36.78,204.89,36.78,204.89Z" style="fill:#231f20;fill-rule:evenodd" />
        <path d="M34.58,205.49l.2.7.6-.2.6-.2-.2-.7-.6.2Z" style="fill:#231f20;fill-rule:evenodd" />
        <path d="M41,208.29h.9a7,7,0,0,1,2,.1,3.08,3.08,0,0,1,1,.1c.3.1.6.1.9.2.5.1.9.2.9.2l1.6-7.3s-.5-.1-1.2-.2c-.4-.1-.8-.1-1.2-.2a6.6,6.6,0,0,0-1.4-.1c-1-.1-2-.1-2.7-.1h-1.2Z" style="fill:none" />
        <polygon points="45.78 204.49 45.68 205.29 46.88 205.49 47.08 204.79 45.78 204.49" style="fill:#231f20;fill-rule:evenodd" />
        <polygon points="43.58 204.29 43.48 205.09 44.78 205.19 44.78 204.39 43.58 204.29" style="fill:#231f20;fill-rule:evenodd" />
        <polygon points="41.28 204.29 41.28 205.09 42.58 204.99 42.58 204.29 41.28 204.29" style="fill:#231f20;fill-rule:evenodd" />
        <path d="M46.68,208.79a20.76,20.76,0,0,1,2.7.8,17.53,17.53,0,0,1,2.6,1.2l3.5-6.6a1.24,1.24,0,0,0-.3-.2,5.9,5.9,0,0,1-.8-.4c-.7-.3-1.6-.7-2.4-1.1s-1.9-.6-2.6-.8-1.2-.3-1.2-.3Z" style="fill:none" />
        <polygon points="52.38 206.49 52.08 207.19 53.18 207.69 53.48 206.99 52.38 206.49" style="fill:#231f20;fill-rule:evenodd" />
        <path d="M50.28,205.59l-.2.7.6.2a3,3,0,0,1,.6.3l.3-.7a2.83,2.83,0,0,1-.6-.3C50.58,205.69,50.28,205.59,50.28,205.59Z" style="fill:#231f20;fill-rule:evenodd" />
        <polygon points="48.08 204.99 47.88 205.69 49.08 205.99 49.28 205.29 48.08 204.99" style="fill:#231f20;fill-rule:evenodd" />
        <path d="M52.08,210.79s.3.2.8.5a12,12,0,0,1,1.7,1.1l2.4,1.8,4.9-5.6s-1.5-1.2-3-2.3c-.8-.6-1.6-1-2.2-1.4a10.39,10.39,0,0,0-1-.6Z" style="fill:none" />
        <polygon points="58.18 209.99 57.68 210.59 58.68 211.39 59.18 210.79 58.18 209.99" style="fill:#231f20;fill-rule:evenodd" />
        <path d="M56.38,208.69l-.4.6,1,.7.4-.6S56.38,208.59,56.38,208.69Z" style="fill:#231f20;fill-rule:evenodd" />
        <polygon points="54.38 207.49 54.08 208.19 55.08 208.79 55.48 208.19 54.38 207.49" style="fill:#231f20;fill-rule:evenodd" />
        <g style="opacity:0.10000000149011612">
            <path d="M45.18,199.29c-.7.6-1.3,1-2,1.5s-1.4.8-2,1.2c-1.4.7-2.7,1.3-4.1,1.9a33.76,33.76,0,0,1-4.2,1.3c-.7.2-1.4.3-2.1.5s-1.4.3-2.2.4l3.8-4.4v2.2c-.1.7-.1,1.5-.2,2.2a14.6,14.6,0,0,1-.3,2.2,17,17,0,0,1-.4,2.2c-.1.4-.2.8-.3,1.1s-.2.8-.3,1.1a18.66,18.66,0,0,1-.7,2.2l-.4,1.1a11.73,11.73,0,0,1-.5,1.1l-.5,1.1c-.2.4-.4.7-.6,1.1h-.5l-.1-4.5v-4.5l-.1-9v-.4l.4-.1,8.7-1.2,4.3-.6,4.3-.5Z" style="fill:#231f20" />
        </g>
        <path d="M27.78,200.89v18c14.4,8.5,29.4,3,29.4,3l2.4-17.1S45,203.79,27.78,200.89Z" style="fill:#fff;stroke:#231f20;stroke-miterlimit:10" />
        <path d="M59.28,206.79s-21.9-3-31.5-3.3" style="fill:#fff" />
        <polygon points="59.78 203.09 53.48 202.29 52.58 209.69 58.78 210.49 59.78 203.09" style="fill:none" />
        <polygon points="54.58 206.49 54.68 205.69 53.58 205.59 53.48 206.29 54.58 206.49" style="fill:#231f20;fill-rule:evenodd" />
        <rect x="55.86" y="205.65" width="0.7" height="1.2" transform="translate(-155.64 234.82) rotate(-82.44)" style="fill:#231f20" />
        <rect x="57.97" y="205.95" width="0.7" height="1.2" transform="translate(-154.27 236.08) rotate(-82.14)" style="fill:#231f20" />
        <polygon points="53.48 202.29 47.18 201.49 46.28 208.89 52.58 209.69 53.48 202.29" style="fill:none" />
        <polygon points="48.38 205.69 48.38 204.89 47.28 204.79 47.18 205.49 48.38 205.69" style="fill:#231f20;fill-rule:evenodd" />
        <rect x="49.45" y="204.89" width="0.8" height="1.2" transform="translate(-160.19 229.81) rotate(-82.97)" style="fill:#231f20" />
        <rect x="51.6" y="205.09" width="0.8" height="1.2" transform="translate(-158.58 231.57) rotate(-82.82)" style="fill:#231f20" />
        <polygon points="47.18 201.49 40.78 200.79 40.08 208.29 46.28 208.89 47.18 201.49" style="fill:none" />
        <rect x="41.1" y="203.92" width="0.7" height="1.2" transform="translate(-166.33 223.87) rotate(-83.86)" style="fill:#231f20" />
        <rect x="43.24" y="204.15" width="0.8" height="1.2" transform="translate(-164.68 225.46) rotate(-83.64)" style="fill:#231f20" />
        <polygon points="46.18 205.39 46.28 204.69 45.18 204.59 45.08 205.29 46.18 205.39" style="fill:#231f20;fill-rule:evenodd" />
        <path d="M40.78,200.79s-1.6-.2-3.2-.3c-.8-.1-1.6-.1-2.2-.2a4.54,4.54,0,0,1-1-.1l-.6,7.5a6.73,6.73,0,0,1,1,.1,18.32,18.32,0,0,1,2.1.2c1.6.2,3.1.3,3.1.3Z" style="fill:none" />
        <polygon points="35.78 204.29 35.78 203.59 34.68 203.49 34.58 204.19 35.78 204.29" style="fill:#231f20;fill-rule:evenodd" />
        <polygon points="37.88 204.49 37.88 203.79 36.78 203.59 36.68 204.39 37.88 204.49" style="fill:#231f20;fill-rule:evenodd" />
        <polygon points="39.98 204.69 39.98 203.99 38.88 203.89 38.78 204.59 39.98 204.69" style="fill:#231f20;fill-rule:evenodd" />
        <polygon points="34.38 200.19 27.98 199.69 27.68 207.19 33.88 207.69 34.38 200.19" style="fill:none" />
        <polygon points="29.48 203.89 29.48 203.09 28.28 202.99 28.28 203.79 29.48 203.89" style="fill:#231f20;fill-rule:evenodd" />
        <polygon points="31.58 203.99 31.58 203.29 30.38 203.19 30.38 203.89 31.58 203.99" style="fill:#231f20;fill-rule:evenodd" />
        <polygon points="33.68 204.19 33.68 203.39 32.48 203.29 32.48 204.09 33.68 204.19" style="fill:#231f20;fill-rule:evenodd" />
        <line x1="59.38" y1="208.29" x2="27.78" y2="205.29" style="fill:none" />
        <rect x="52.48" y="204.84" width="7.5" height="6.3" transform="translate(-156.2 243.97) rotate(-84.49)" style="fill:none" />
        <rect x="53.8" y="207.2" width="0.7" height="1.2" transform="translate(-157.91 241.67) rotate(-84.47)" style="fill:#231f20" />
        <rect x="55.86" y="207.26" width="0.8" height="1.2" transform="matrix(0.09, -1, 1, 0.09, -156.01, 244.12)" style="fill:#231f20" />
        <rect x="57.99" y="207.6" width="0.7" height="1.2" transform="translate(-154.51 246.2) rotate(-84.47)" style="fill:#231f20" />
        <rect x="46.21" y="204.24" width="7.5" height="6.3" transform="translate(-161.27 237.19) rotate(-84.49)" style="fill:none" />
        <rect x="47.42" y="206.57" width="0.7" height="1.2" transform="translate(-163.04 234.75) rotate(-84.47)" style="fill:#231f20" />
        <rect x="49.62" y="206.78" width="0.7" height="1.2" transform="translate(-161.27 237.12) rotate(-84.47)" style="fill:#231f20" />
        <rect x="51.71" y="206.97" width="0.7" height="1.2" transform="translate(-159.56 239.38) rotate(-84.47)" style="fill:#231f20" />
        <rect x="39.96" y="203.68" width="7.5" height="6.3" transform="translate(-166.37 230.44) rotate(-84.48)" style="fill:none" />
        <rect x="41.14" y="205.95" width="0.7" height="1.2" transform="translate(-168.1 227.93) rotate(-84.47)" style="fill:#231f20" />
        <rect x="43.23" y="206.15" width="0.7" height="1.2" transform="translate(-166.41 230.2) rotate(-84.47)" style="fill:#231f20" />
        <rect x="45.33" y="206.34" width="0.7" height="1.2" transform="translate(-164.7 232.46) rotate(-84.47)" style="fill:#231f20" />
        <rect x="33.55" y="202.98" width="7.5" height="6.3" transform="translate(-171.46 223.45) rotate(-84.49)" style="fill:none" />
        <rect x="34.75" y="205.2" width="0.8" height="1.2" transform="translate(-173.09 220.97) rotate(-84.47)" style="fill:#231f20" />
        <rect x="36.97" y="205.57" width="0.7" height="1.2" transform="translate(-171.46 223.72) rotate(-84.54)" style="fill:#231f20" />
        <rect x="38.94" y="205.6" width="0.8" height="1.2" transform="translate(-169.69 225.5) rotate(-84.47)" style="fill:#231f20" />
        <rect x="27.2" y="202.42" width="7.5" height="6.3" transform="translate(-176.63 216.6) rotate(-84.48)" style="fill:none" />
        <rect x="28.5" y="204.74" width="0.7" height="1.2" transform="translate(-178.3 214.53) rotate(-84.54)" style="fill:#231f20" />
        <rect x="30.67" y="204.9" width="0.7" height="1.2" transform="translate(-176.51 216.57) rotate(-84.47)" style="fill:#231f20" />
        <rect x="32.77" y="205.09" width="0.7" height="1.2" transform="translate(-174.8 218.83) rotate(-84.47)" style="fill:#231f20" />
    </g>
</svg>