<svg id="SleeveLF" data-name="Layer 1" xmlns="http://www.w3.org/2000/svg">
    <g id="SleeveLF">
        <path d="M24.34,26.37s12-8.7,26.5,13.2c0,0,7,16,7.3,25.3,0,0,13,27.1,12.8,55.8,0,0,15.4,36.1,8.1,49.4,0,0-9.9,14.8-9.6,20,0,0-8.1,7.1-16.8,8.6,0,0-12.5-6.2-23.8,2.5,0,0-17.4-7.1-18.1-8.9,0,0-.5-9.6-1.6-11.7,0,0-2-25.9,0-40.7,0,0,3.3-7.8,2.3-15C11.44,124.87.14,42.07,24.34,26.37Z" style="fill:#fff;stroke:#231f20;stroke-miterlimit:10" />
        <path d="M54.24,217.17c-13.3,6-29.5-3-29.5-3l12.5-6.5,18.7,2.4Z" style="fill:#ccc;stroke:#000;stroke-miterlimit:10" />
        <path d="M24.54,26s12-8.7,26.5,13.2c0,0,7,16,7.3,25.3,0,0,13.1,27.1,12.8,55.8,0,0,15.4,36.1,8.1,49.4,0,0-9.9,14.8-9.6,20,0,0-8.1,7.1-16.8,8.6,0,0-12.5-6.2-23.8,2.5,0,0-17.4-7.1-18.1-8.9,0,0-.5-9.6-1.6-11.7,0,0-2-25.9,0-40.7,0,0,3.3-7.8,2.3-15C11.54,124.37.34,41.57,24.54,26Z" style="fill:none;stroke:#231f20;stroke-miterlimit:10" />
        <path d="M54.14,197.67a26,26,0,0,0-3.4-1.8c-1.7-.7-3.4-1.2-3.4-1.2l-1.9,7.3a19.19,19.19,0,0,1,2.4.8,8.81,8.81,0,0,1,2,1.1Z" style="fill:none" />
        <path d="M47.84,199.07l.2-.7-.6-.2-.6-.2-.2.7a4.71,4.71,0,0,1,.5.2C47.54,199,47.84,199.07,47.84,199.07Z" style="fill:#231f20;fill-rule:evenodd" />
        <path d="M49.74,199.77l.3-.7a4.71,4.71,0,0,1-.5-.2,4.2,4.2,0,0,1-.5-.2l-.3.7a4.71,4.71,0,0,1,.5.2A4.71,4.71,0,0,0,49.74,199.77Z" style="fill:#231f20;fill-rule:evenodd" />
        <path d="M51.44,200.77l.4-.6s-.3-.2-.5-.3a1.41,1.41,0,0,1-.5-.3l-.3.7a1.46,1.46,0,0,1,.5.3A.7.7,0,0,1,51.44,200.77Z" style="fill:#231f20;fill-rule:evenodd" />
        <path d="M47.34,194.67l-1.1-.3a16.37,16.37,0,0,0-2.5-.4,23.55,23.55,0,0,0-2.5-.1,6.76,6.76,0,0,0-1.2.1l.6,7.5a3.2,3.2,0,0,0,.7-.1,10.28,10.28,0,0,1,1.7.1,8.58,8.58,0,0,1,1.7.3,7.35,7.35,0,0,1,.8.2Z" style="fill:none" />
        <path d="M41.94,198v-.8h-1.2v.8h1.2Z" style="fill:#231f20;fill-rule:evenodd" />
        <path d="M43.94,198.17l.1-.7a2.14,2.14,0,0,1-.6-.1h-.6l-.1.8h.6A1.06,1.06,0,0,1,43.94,198.17Z" style="fill:#231f20;fill-rule:evenodd" />
        <polygon points="45.84 198.47 46.04 197.77 44.94 197.47 44.74 198.27 45.84 198.47" style="fill:#231f20;fill-rule:evenodd" />
        <path d="M40,194h-.3a2.49,2.49,0,0,0-.8.1,13.77,13.77,0,0,0-2.5.5,22.35,22.35,0,0,0-2.4.8c-.6.3-1.1.5-1.1.5l3.1,6.9a6,6,0,0,0,.7-.3,15.6,15.6,0,0,1,1.6-.5,14.25,14.25,0,0,1,1.6-.3c.2-.1.4,0,.5-.1h.2Z" style="fill:none" />
        <path d="M35.94,199l-.3-.7a4.71,4.71,0,0,0-.5.2,4.2,4.2,0,0,0-.5.2l.3.7a4.71,4.71,0,0,0,.5-.2A1,1,0,0,1,35.94,199Z" style="fill:#231f20;fill-rule:evenodd" />
        <path d="M37.94,198.37l-.2-.7-1.1.3.2.7Z" style="fill:#231f20;fill-rule:evenodd" />
        <path d="M39.84,198.07l-.1-.7-1.2.2.1.7C38.74,198.27,39.84,198.07,39.84,198.07Z" style="fill:#231f20;fill-rule:evenodd" />
        <path d="M32.84,195.87s-.4.2-1.1.5a17.28,17.28,0,0,0-2.1,1.3c-.8.5-1.4,1.1-2,1.5s-.9.7-.9.7l5,5.7a4.43,4.43,0,0,0,.6-.5,17,17,0,0,1,1.4-1c.5-.3,1.1-.6,1.5-.9a6,6,0,0,1,.7-.3Z" style="fill:none" />
        <polygon points="30.74 201.87 30.24 201.27 29.34 201.97 29.84 202.57 30.74 201.87" style="fill:#231f20;fill-rule:evenodd" />
        <path d="M32.34,200.67l-.4-.6-1,.6.4.6Z" style="fill:#231f20;fill-rule:evenodd" />
        <path d="M34.14,199.77l-.3-.7a4.71,4.71,0,0,0-.5.2,1.41,1.41,0,0,0-.5.3l.4.7a5.2,5.2,0,0,0,.5-.3A1.42,1.42,0,0,1,34.14,199.77Z" style="fill:#231f20;fill-rule:evenodd" />
        <path d="M54,199.17a26,26,0,0,0-3.4-1.8c-1.7-.7-3.4-1.2-3.4-1.2l-1.9,7.3a19.19,19.19,0,0,1,2.4.8,8.81,8.81,0,0,1,2,1.1Z" style="fill:none" />
        <path d="M47.74,200.57l.2-.7-.6-.2-.6-.2-.2.7a4.71,4.71,0,0,1,.5.2C47.44,200.47,47.74,200.57,47.74,200.57Z" style="fill:#231f20;fill-rule:evenodd" />
        <path d="M49.54,201.37l.3-.7a4.71,4.71,0,0,1-.5-.2,4.2,4.2,0,0,1-.5-.2l-.3.7a4.71,4.71,0,0,1,.5.2A4.2,4.2,0,0,1,49.54,201.37Z" style="fill:#231f20;fill-rule:evenodd" />
        <path d="M51.34,202.27l.4-.6s-.3-.2-.5-.3a1.41,1.41,0,0,1-.5-.3l-.3.7a1.46,1.46,0,0,1,.5.3Z" style="fill:#231f20;fill-rule:evenodd" />
        <path d="M47.24,196.17l-1.1-.3a16.37,16.37,0,0,0-2.5-.4,23.55,23.55,0,0,0-2.5-.1,6.76,6.76,0,0,0-1.2.1l.6,7.5a3.2,3.2,0,0,0,.7-.1,10.28,10.28,0,0,1,1.7.1,8.58,8.58,0,0,1,1.7.3,7.35,7.35,0,0,1,.8.2Z" style="fill:none" />
        <path d="M41.74,199.47v-.8h-1.2v.8h1.2Z" style="fill:#231f20;fill-rule:evenodd" />
        <path d="M43.74,199.67l.1-.7a2.14,2.14,0,0,1-.6-.1h-.6l-.1.8h1.2Z" style="fill:#231f20;fill-rule:evenodd" />
        <polygon points="45.74 200.07 45.94 199.27 44.74 199.07 44.64 199.77 45.74 200.07" style="fill:#231f20;fill-rule:evenodd" />
        <path d="M39.94,195.57h-.3a2.49,2.49,0,0,0-.8.1,13.77,13.77,0,0,0-2.5.5,22.35,22.35,0,0,0-2.4.8c-.6.3-1.1.5-1.1.5l3.1,6.9a6,6,0,0,0,.7-.3,15.6,15.6,0,0,1,1.6-.5,14.25,14.25,0,0,1,1.6-.3c.2-.1.4,0,.5,0h.2Z" style="fill:none" />
        <path d="M35.84,200.47l-.3-.7a4.71,4.71,0,0,0-.5.2,4.2,4.2,0,0,0-.5.2l.3.7a4.71,4.71,0,0,0,.5-.2A4.71,4.71,0,0,1,35.84,200.47Z" style="fill:#231f20;fill-rule:evenodd" />
        <path d="M37.74,199.87l-.2-.7-1.1.3.2.7C36.74,200.17,37.74,199.87,37.74,199.87Z" style="fill:#231f20;fill-rule:evenodd" />
        <path d="M39.74,199.57l-.1-.8-1.2.2.1.7A4.48,4.48,0,0,0,39.74,199.57Z" style="fill:#231f20;fill-rule:evenodd" />
        <path d="M32.74,197.37s-.4.2-1.1.5a17.28,17.28,0,0,0-2.1,1.3c-.8.5-1.4,1.1-2,1.5s-.9.7-.9.7l5,5.7a4.43,4.43,0,0,0,.6-.5,17,17,0,0,1,1.4-1c.5-.3,1.1-.6,1.5-.9a6,6,0,0,1,.7-.3Z" style="fill:none" />
        <polygon points="30.54 203.37 30.14 202.77 29.24 203.47 29.64 204.07 30.54 203.37" style="fill:#231f20;fill-rule:evenodd" />
        <path d="M32.24,202.27l-.4-.6-1,.6.4.6A5.3,5.3,0,0,1,32.24,202.27Z" style="fill:#231f20;fill-rule:evenodd" />
        <path d="M33.94,201.27l-.3-.7a4.71,4.71,0,0,0-.5.2,1.41,1.41,0,0,0-.5.3l.4.7a5.2,5.2,0,0,0,.5-.3Z" style="fill:#231f20;fill-rule:evenodd" />
        <path d="M69.34,151.77s.1.8.2,2.2.2,3.5.2,5.9c0,1.2-.1,2.6-.1,4s-.2,2.9-.4,4.4-.5,3.1-.8,4.7a42.09,42.09,0,0,1-1.2,4.8,36.11,36.11,0,0,1-1.7,4.6c-.6,1.5-1.4,2.9-2.1,4.3-.4.7-.8,1.3-1.2,1.9a20.28,20.28,0,0,0-1.3,1.8,25.59,25.59,0,0,1-2.7,2.9,15.38,15.38,0,0,0-1.3,1.2,14.63,14.63,0,0,0-1.3.9,13.81,13.81,0,0,1-2.2,1.3c-1.3.6-2.1.9-2.1.9s.7-.4,2-1.1a17.22,17.22,0,0,0,2.1-1.5,10.59,10.59,0,0,0,1.2-1,15.38,15.38,0,0,1,1.3-1.2c.8-.9,1.7-1.9,2.5-3s1.6-2.4,2.4-3.7a40.93,40.93,0,0,0,2-4.2c.6-1.5,1.1-3,1.6-4.6a35.93,35.93,0,0,0,1.2-4.7c.3-1.6.6-3.1.8-4.6.4-3,.7-5.9.8-8.3s.2-4.5.2-5.9C69.34,152.57,69.34,151.77,69.34,151.77Z" style="fill:#231f20" />
        <path d="M58.94,169a7.31,7.31,0,0,1,.1,1.3c0,.8,0,2-.1,3.5a32,32,0,0,1-.8,4.8c-.2.9-.5,1.8-.7,2.7s-.6,1.8-1,2.7a20.62,20.62,0,0,1-1.2,2.6,18.84,18.84,0,0,1-1.4,2.4c-.2.4-.5.7-.7,1.1s-.5.7-.8,1a12.94,12.94,0,0,1-1.5,1.7l-1.4,1.4q-.75.6-1.2.9l-1.1.8.9-.9c.3-.3.7-.6,1.1-1s.8-.9,1.3-1.5.9-1.2,1.4-1.8c.2-.3.5-.7.7-1a6.73,6.73,0,0,1,.7-1.1,12.75,12.75,0,0,0,.7-1.2l.6-1.2a27.18,27.18,0,0,0,1.1-2.5c.4-.9.7-1.8,1-2.6a25.82,25.82,0,0,0,.8-2.6c.2-.9.5-1.7.6-2.5a20.69,20.69,0,0,0,.4-2.2c.2-1.4.4-2.6.5-3.4A5,5,0,0,1,58.94,169Z" style="fill:#231f20" />
        <path d="M37.14,160.07s.1.6.3,1.5.4,2.4.6,4,.5,3.6.7,5.7.5,4.3.7,6.6c.1,1.1.2,2.2.2,3.3s.1,2.2.2,3.2c.1,2.1.1,4.1.1,5.8s-.1,3.1-.2,4.1a8.92,8.92,0,0,0-.2,1.1.58.58,0,0,1-.1.4s0-.6.1-1.5v-1.8c0-.7-.1-1.5-.1-2.3-.1-1.7-.3-3.6-.4-5.7s-.4-4.3-.5-6.6-.4-4.5-.5-6.6-.3-4.1-.4-5.7-.2-3.1-.3-4.1A7.21,7.21,0,0,1,37.14,160.07Z" style="fill:#231f20" />
        <path d="M22.64,157.87s.5,2.6,1.3,6.4c.4,1.9.9,4.1,1.4,6.5s1.1,4.9,1.7,7.4c.3,1.3.6,2.5,1,3.8s.6,2.5,1,3.6.7,2.3,1,3.3c.2.5.3,1,.5,1.5s.4,1,.6,1.4c.4.9.7,1.7,1,2.4A10,10,0,0,0,33,196l.9,1.5-1.1-1.4a9.43,9.43,0,0,1-1.1-1.8,10.91,10.91,0,0,1-.6-1.1c-.2-.4-.4-.8-.6-1.3s-.4-.9-.6-1.4l-.6-1.5c-.4-1-.8-2.2-1.2-3.3s-.8-2.4-1.1-3.6-.7-2.5-1-3.8c-.6-2.5-1.2-5.1-1.6-7.5s-.8-4.7-1.1-6.6-.5-3.6-.6-4.7A12.58,12.58,0,0,0,22.64,157.87Z" style="fill:#231f20" />
        <path d="M15.14,177.77s.2.4.5,1.1.8,1.6,1.3,2.7,1.3,2.4,2.1,3.7,1.7,2.7,2.7,4.1c.5.7,1,1.3,1.5,2s1,1.2,1.5,1.9,1,1.1,1.5,1.7a19.2,19.2,0,0,1,1.4,1.5c.5.4.8.9,1.2,1.2s.7.7,1,.9l.8.8a5.86,5.86,0,0,1-1-.7c-.3-.2-.7-.5-1.1-.8s-.9-.7-1.4-1.1a9.6,9.6,0,0,1-1.5-1.4c-.5-.5-1.1-1-1.6-1.6s-1.1-1.2-1.6-1.8-1.1-1.3-1.6-2a49.41,49.41,0,0,1-2.7-4.2c-.4-.7-.7-1.4-1-2s-.6-1.3-.8-1.9a25.52,25.52,0,0,1-1-2.9A5.6,5.6,0,0,1,15.14,177.77Z" style="fill:#231f20" />
        <path d="M60.44,90.37s.2.4.5,1.2.7,1.8,1.1,3.1,1,2.8,1.5,4.4,1.1,3.3,1.7,5,1.1,3.5,1.6,5.1.9,3.1,1.3,4.4.7,2.4,1,3.1a4.65,4.65,0,0,0,.3.9.77.77,0,0,1,.1.3,1.24,1.24,0,0,1-.2-.3,2.93,2.93,0,0,1-.4-.8c-.3-.7-.8-1.7-1.3-3s-1.1-2.7-1.6-4.3-1.1-3.3-1.7-5-1.1-3.5-1.5-5.1-.9-3.2-1.2-4.5-.6-2.4-.8-3.2S60.44,90.37,60.44,90.37Z" style="fill:#231f20" />
        <path d="M57.14,111.37a7.65,7.65,0,0,1-.2,1.5,30.06,30.06,0,0,1-.8,3.9,37.89,37.89,0,0,1-1.8,5.4c-.4,1-.9,1.9-1.3,2.9a26.94,26.94,0,0,1-1.6,2.9,26.1,26.1,0,0,1-1.9,2.7c-.3.4-.7.9-1,1.3a12,12,0,0,1-1.1,1.2,11.41,11.41,0,0,1-1.1,1.1,11,11,0,0,0-1.1,1c-.7.6-1.4,1.2-2.1,1.7s-1.3.9-1.9,1.3-1.1.6-1.6.8a14.22,14.22,0,0,0-1.4.7l1.3-.8a9.88,9.88,0,0,1,1.5-.9c.5-.4,1.1-.9,1.7-1.4a16.24,16.24,0,0,0,2-1.8l1-1c.3-.4.7-.7,1-1.1s.7-.8,1-1.2a14.63,14.63,0,0,0,.9-1.3,25.34,25.34,0,0,0,1.8-2.7c.6-.9,1.1-1.9,1.6-2.8s1-1.9,1.4-2.8.8-1.8,1.1-2.7.6-1.7.9-2.5c.5-1.6.9-2.9,1.1-3.8A8.58,8.58,0,0,0,57.14,111.37Z" style="fill:#231f20" />
        <path d="M44.74,116.27a21.59,21.59,0,0,0-3.3,1.9,26.35,26.35,0,0,0-3.2,2.2,5.5,5.5,0,0,0-.9.7c-.3.2-.6.5-.9.7-.6.5-1.1,1-1.7,1.5-1.1,1-2.2,2.1-3.1,3.1a18.26,18.26,0,0,0-1.3,1.6c-.4.5-.8,1-1.1,1.4s-.7.8-.9,1.2-.5.7-.7,1a5.67,5.67,0,0,0-.6.9,6.91,6.91,0,0,0,.5-1,11.73,11.73,0,0,0,.5-1.1c.2-.4.5-.9.8-1.4s.6-1,1-1.6.8-1.1,1.3-1.7.9-1.1,1.5-1.7l1.6-1.6,1.8-1.5a20.28,20.28,0,0,1,1.8-1.3,17.39,17.39,0,0,1,1.8-1.1c.6-.3,1.1-.6,1.7-.9,1-.5,2-.8,2.6-1.1A7.35,7.35,0,0,0,44.74,116.27Z" style="fill:#231f20" />
        <path d="M52.94,50.87s.5.8,1.1,2a41.91,41.91,0,0,1,2,4.6,32.75,32.75,0,0,1,1.6,4.7c.4,1.3.6,2.2.6,2.2s-.5-.8-1.1-2a41.91,41.91,0,0,1-2-4.6,32.75,32.75,0,0,1-1.6-4.7C53.14,51.77,52.94,50.87,52.94,50.87Z" style="fill:#231f20" />
        <path d="M40.54,53.67l.6.9c.4.6.9,1.4,1.5,2.5s1.3,2.3,1.9,3.7,1.2,2.9,1.8,4.4c.3.8.5,1.6.7,2.3s.4,1.5.6,2.3.2,1.5.3,2.2.1,1.4.2,2v1.7c0,.5-.1.9-.1,1.3-.1.7-.2,1.1-.2,1.1v-2.4a10,10,0,0,0-.2-1.6c-.1-.6-.2-1.2-.3-1.9s-.3-1.4-.5-2.1-.4-1.5-.6-2.2-.5-1.5-.7-2.3c-.5-1.5-1.1-3-1.6-4.4s-1.1-2.7-1.6-3.8-.9-2-1.2-2.7A4.62,4.62,0,0,1,40.54,53.67Z" style="fill:#231f20" />
        <path d="M30.74,47.77a10.52,10.52,0,0,1,1,.9c.6.6,1.5,1.4,2.5,2.5.5.6,1,1.2,1.6,1.8s1.1,1.4,1.6,2.1a14.31,14.31,0,0,1,1.6,2.4c.5.8,1,1.7,1.5,2.5s.9,1.8,1.3,2.7a14.76,14.76,0,0,1,1,2.7,12.55,12.55,0,0,1,.7,2.6,10,10,0,0,1,.4,2.4c.1.7.1,1.4.2,2V74c-.1.9-.1,1.4-.1,1.4s0-.5-.1-1.4a8.64,8.64,0,0,0-.1-1.5c-.1-.6-.2-1.2-.4-2s-.4-1.5-.6-2.3-.6-1.6-.9-2.5-.7-1.7-1.1-2.6-.9-1.7-1.3-2.6-.9-1.7-1.5-2.5l-1.5-2.4c-.5-.8-1-1.5-1.5-2.2s-1-1.3-1.4-1.9c-.9-1.2-1.7-2.1-2.2-2.8C31,48.17,30.74,47.77,30.74,47.77Z" style="fill:#231f20" />
        <path d="M22.64,28.67a1.24,1.24,0,0,1,.3-.2,3.92,3.92,0,0,1,.9-.4c.4-.1.8-.3,1.3-.4a8.08,8.08,0,0,1,1.6-.1h.8c.3,0,.5.1.8.1a5,5,0,0,1,1.3.4,11,11,0,0,1,1.2.6h-1.3c-.4,0-.8-.1-1.3-.1s-1-.1-1.5-.1h-1.5a5.63,5.63,0,0,1-1.3,0A5.94,5.94,0,0,1,22.64,28.67Z" style="fill:#231f20" />
        <path d="M20.84,32.07a4.54,4.54,0,0,1,1-.1c.7,0,1.6-.1,2.7-.1.6,0,1.2.1,1.8.1l2,.3a16,16,0,0,1,2.1.5,18,18,0,0,1,2.1.8c.7.3,1.4.7,2,1l.9.6a5.5,5.5,0,0,1,.9.7c.5.5,1.1.9,1.5,1.4a5.27,5.27,0,0,1,1.1,1.5,14.8,14.8,0,0,0,.8,1.3,7.6,7.6,0,0,1,.4,1.1c.2.6.3,1,.3,1a9.24,9.24,0,0,1-.5-.9c-.2-.3-.3-.6-.6-1a12.49,12.49,0,0,1-.9-1.2,3.39,3.39,0,0,0-.6-.6l-.6-.6a8.78,8.78,0,0,0-1.5-1.2c-.5-.4-1.2-.7-1.7-1.1a17.38,17.38,0,0,1-1.9-1c-.7-.2-1.3-.6-2-.8s-1.4-.4-2-.6a18.35,18.35,0,0,0-3.7-.7,7.72,7.72,0,0,0-1.5-.2,4.87,4.87,0,0,0-1.2-.1A5.1,5.1,0,0,0,20.84,32.07Z" style="fill:#231f20" />
        <path d="M19.84,34.37A9.83,9.83,0,0,1,22,35c.3.1.7.3,1,.4a11.73,11.73,0,0,1,1.1.5l1.2.6c.4.2.8.5,1.2.7a10.47,10.47,0,0,1,1.1.8,8.74,8.74,0,0,1,1,.8,6.47,6.47,0,0,0,.9.8l.8.8a14.49,14.49,0,0,1,1.4,1.8,14.49,14.49,0,0,1-1.8-1.4c-.3-.2-.5-.4-.9-.7l-1-.7a7,7,0,0,1-1-.8c-.4-.2-.7-.5-1.1-.7-.7-.5-1.5-.9-2.2-1.4a8.79,8.79,0,0,1-1-.6,4.05,4.05,0,0,0-.9-.5Z" style="fill:#231f20" />
        <path d="M18.54,38.27a12.11,12.11,0,0,1,2.2.8,17.37,17.37,0,0,1,4.4,2.6c.4.3.7.6,1.1.9a4.74,4.74,0,0,1,1,1,7,7,0,0,1,.8,1,5.3,5.3,0,0,1,.6,1,3.55,3.55,0,0,1,.4.9,2.54,2.54,0,0,1,.2.7,2.8,2.8,0,0,1,.1.6l-.3-.6a2.09,2.09,0,0,0-.4-.6,5.58,5.58,0,0,1-.5-.8,5,5,0,0,0-.7-.8,7.64,7.64,0,0,0-.9-.9,16.32,16.32,0,0,0-2-1.7c-.7-.6-1.5-1.1-2.2-1.6s-1.4-.9-1.9-1.3C19.24,38.77,18.54,38.27,18.54,38.27Z" style="fill:#231f20" />
        <path d="M17.24,43.07s.3.2.7.5a15.52,15.52,0,0,1,1.8,1.5c.7.6,1.5,1.4,2.4,2.3s1.6,1.9,2.4,2.9a22,22,0,0,1,2.1,3.2,8,8,0,0,1,.8,1.6,14.67,14.67,0,0,1,.6,1.4c.3.9.6,1.7.7,2.2s.2.9.2.9a4.56,4.56,0,0,0-.4-.8,3.55,3.55,0,0,0-.4-.9,10.91,10.91,0,0,1-.6-1.1,9.13,9.13,0,0,0-.8-1.3c-.3-.5-.6-.9-.9-1.4s-.7-1-1-1.5a14.31,14.31,0,0,0-1.1-1.5c-1.5-2-3.2-4-4.4-5.4-.6-.7-1.1-1.3-1.5-1.7A2.1,2.1,0,0,0,17.24,43.07Z" style="fill:#231f20" />
        <path d="M25.44,195.67v18.1s20.6-2.1,29.5,3l2.4-17.1A30.12,30.12,0,0,0,25.44,195.67Z" style="fill:#fff;stroke:#231f20;stroke-miterlimit:10" />
        <path d="M27.54,202.67a20,20,0,0,1,2.4-1.3,4.18,4.18,0,0,1,1-.4l.9-.3a3.93,3.93,0,0,1,.6-.2c.2,0,.2-.1.2-.1l-2.4-7.2a4.88,4.88,0,0,0-1.1.4,8.34,8.34,0,0,1-1.2.4c-.4.2-.9.4-1.3.6a30.84,30.84,0,0,0-3.6,2Z" style="fill:none" />
        <polygon points="29.84 197.07 30.04 197.77 31.24 197.27 31.04 196.57 29.84 197.07" style="fill:#231f20;fill-rule:evenodd" />
        <path d="M27.74,198l.3.7a2.83,2.83,0,0,0,.6-.3,3,3,0,0,0,.6-.3l-.3-.7a2.83,2.83,0,0,0-.6.3A2.83,2.83,0,0,1,27.74,198Z" style="fill:#231f20;fill-rule:evenodd" />
        <path d="M25.74,199.07l.4.6s.3-.2.5-.3a5.2,5.2,0,0,1,.5-.3l-.4-.7a3,3,0,0,1-.6.3Z" style="fill:#231f20;fill-rule:evenodd" />
        <path d="M32.74,200.27a7.78,7.78,0,0,0,.9-.3c.5-.2,1.3-.3,2-.5a16.21,16.21,0,0,1,2-.3c.3,0,.5-.1.7-.1h.2l-.5-7.5h-.3a3.44,3.44,0,0,0-.9.1c-.7.1-1.7.2-2.6.4s-1.9.4-2.6.6-1.2.3-1.2.3Z" style="fill:none" />
        <path d="M36.44,195.27l.1.7a2.14,2.14,0,0,0,.6-.1,2.18,2.18,0,0,0,.6-.1l-.1-.8a2.14,2.14,0,0,0-.6.1A1.19,1.19,0,0,1,36.44,195.27Z" style="fill:#231f20;fill-rule:evenodd" />
        <path d="M34.24,195.67l.2.7,1.2-.3-.1-.7C35.44,195.37,34.24,195.67,34.24,195.67Z" style="fill:#231f20;fill-rule:evenodd" />
        <path d="M31.94,196.27l.2.7.6-.2.6-.2-.2-.7-.6.2A3.93,3.93,0,0,1,31.94,196.27Z" style="fill:#231f20;fill-rule:evenodd" />
        <path d="M38.44,199.17h.9a7,7,0,0,1,2,.1,4.1,4.1,0,0,1,1.1.1c.3.1.6.1.9.2.5.1.9.2.9.2l1.6-7.4s-.5-.1-1.2-.2c-.4-.1-.8-.1-1.2-.2a7.08,7.08,0,0,0-1.4-.1c-1-.1-2-.1-2.7-.1h-1.2Z" style="fill:none" />
        <polygon points="43.34 195.37 43.24 196.07 44.44 196.27 44.54 195.57 43.34 195.37" style="fill:#231f20;fill-rule:evenodd" />
        <polygon points="41.04 195.07 41.04 195.87 42.24 195.97 42.34 195.17 41.04 195.07" style="fill:#231f20;fill-rule:evenodd" />
        <polygon points="38.74 195.07 38.74 195.87 40.04 195.77 40.04 195.07 38.74 195.07" style="fill:#231f20;fill-rule:evenodd" />
        <path d="M44.24,199.57a25.13,25.13,0,0,1,2.8.8,17.53,17.53,0,0,1,2.6,1.2l3.6-6.6a1.24,1.24,0,0,0-.3-.2,5.9,5.9,0,0,1-.8-.4l-2.5-1.1c-.9-.3-1.9-.6-2.6-.8s-1.2-.3-1.2-.3Z" style="fill:none" />
        <polygon points="49.94 197.27 49.64 197.97 50.74 198.47 51.04 197.77 49.94 197.27" style="fill:#231f20;fill-rule:evenodd" />
        <path d="M47.74,196.37l-.2.7.6.2a3,3,0,0,1,.6.3l.3-.7a2.83,2.83,0,0,1-.6-.3C48.14,196.47,47.74,196.37,47.74,196.37Z" style="fill:#231f20;fill-rule:evenodd" />
        <polygon points="45.64 195.77 45.44 196.47 46.64 196.87 46.84 196.17 45.64 195.77" style="fill:#231f20;fill-rule:evenodd" />
        <path d="M49.64,201.57s.3.2.8.5a12,12,0,0,1,1.7,1.1l2.4,1.8,5-5.7s-1.5-1.2-3-2.3c-.8-.6-1.6-1-2.2-1.4a10.39,10.39,0,0,0-1-.6Z" style="fill:none" />
        <polygon points="55.74 200.87 55.24 201.47 56.24 202.27 56.74 201.67 55.74 200.87" style="fill:#231f20;fill-rule:evenodd" />
        <path d="M53.94,199.47l-.4.6,1,.7.4-.6C54.94,200.27,53.94,199.47,53.94,199.47Z" style="fill:#231f20;fill-rule:evenodd" />
        <polygon points="51.94 198.27 51.64 198.97 52.64 199.57 53.04 198.97 51.94 198.27" style="fill:#231f20;fill-rule:evenodd" />
        <path d="M27.74,204.77a20,20,0,0,1,2.4-1.3,4.18,4.18,0,0,1,1-.4l.9-.3a3.93,3.93,0,0,1,.6-.2c.2,0,.2-.1.2-.1l-2.4-7.2a4.88,4.88,0,0,0-1.1.4,8.34,8.34,0,0,1-1.2.4c-.4.2-.9.4-1.3.6a30.84,30.84,0,0,0-3.6,2Z" style="fill:none" />
        <polygon points="30.04 199.17 30.24 199.87 31.44 199.47 31.14 198.77 30.04 199.17" style="fill:#231f20;fill-rule:evenodd" />
        <path d="M27.94,200.07l.3.7a2.83,2.83,0,0,0,.6-.3,3,3,0,0,0,.6-.3l-.3-.7a2.83,2.83,0,0,0-.6.3Z" style="fill:#231f20;fill-rule:evenodd" />
        <path d="M25.94,201.17l.4.6s.3-.2.5-.3a5.2,5.2,0,0,1,.5-.3l-.4-.7a3,3,0,0,1-.6.3A1.2,1.2,0,0,1,25.94,201.17Z" style="fill:#231f20;fill-rule:evenodd" />
        <path d="M32.94,202.37a7.78,7.78,0,0,0,.9-.3c.5-.2,1.3-.3,2-.5a16.21,16.21,0,0,1,2-.3c.3,0,.5-.1.7-.1h.2l-.5-7.5h-.3a3.44,3.44,0,0,0-.9.1c-.7.1-1.7.2-2.6.4s-1.9.4-2.6.6-1.2.3-1.2.3Z" style="fill:none" />
        <path d="M36.64,197.47l.1.7a2.14,2.14,0,0,0,.6-.1,2.18,2.18,0,0,0,.6-.1l-.1-.8a2.14,2.14,0,0,0-.6.1Z" style="fill:#231f20;fill-rule:evenodd" />
        <path d="M34.34,197.87l.2.7,1.2-.3-.1-.7Z" style="fill:#231f20;fill-rule:evenodd" />
        <path d="M32.14,198.47l.2.7.6-.2.6-.2-.2-.7-.6.2Z" style="fill:#231f20;fill-rule:evenodd" />
        <path d="M38.64,201.27h.9a7,7,0,0,1,2,.1,4.1,4.1,0,0,1,1.1.1c.3.1.6.1.9.2.5.1.9.2.9.2l1.6-7.4s-.5-.1-1.2-.2c-.4-.1-.8-.1-1.2-.2a7.08,7.08,0,0,0-1.4-.1c-1-.1-2-.1-2.7-.1h-1.2Z" style="fill:none" />
        <polygon points="43.54 197.47 43.44 198.17 44.64 198.47 44.74 197.67 43.54 197.47" style="fill:#231f20;fill-rule:evenodd" />
        <polygon points="41.24 197.27 41.14 197.97 42.44 198.07 42.54 197.37 41.24 197.27" style="fill:#231f20;fill-rule:evenodd" />
        <polygon points="38.94 197.27 38.94 197.97 40.24 197.97 40.24 197.17 38.94 197.27" style="fill:#231f20;fill-rule:evenodd" />
        <path d="M44.44,201.77a25.13,25.13,0,0,1,2.8.8c1.3.6,2.7,1.2,2.6,1.2l3.6-6.6a1.24,1.24,0,0,0-.3-.2,5.9,5.9,0,0,1-.8-.4l-2.5-1.1c-.9-.3-1.9-.6-2.6-.8s-1.2-.3-1.2-.3Z" style="fill:none" />
        <polygon points="50.04 199.37 49.74 200.07 50.94 200.57 51.24 199.97 50.04 199.37" style="fill:#231f20;fill-rule:evenodd" />
        <path d="M47.94,198.57l-.2.7.6.2a3,3,0,0,1,.6.3l.3-.7a2.83,2.83,0,0,1-.6-.3C48.24,198.67,47.94,198.57,47.94,198.57Z" style="fill:#231f20;fill-rule:evenodd" />
        <polygon points="45.74 197.87 45.64 198.57 46.74 198.97 47.04 198.27 45.74 197.87" style="fill:#231f20;fill-rule:evenodd" />
        <path d="M49.84,203.77s.3.2.8.5a12,12,0,0,1,1.7,1.1l2.4,1.8,5-5.7s-1.5-1.2-3-2.3c-.8-.6-1.6-1-2.2-1.4a10.39,10.39,0,0,0-1-.6Z" style="fill:none" />
        <polygon points="55.94 202.97 55.44 203.57 56.44 204.37 56.94 203.77 55.94 202.97" style="fill:#231f20;fill-rule:evenodd" />
        <path d="M54.14,201.67l-.4.6,1,.7.4-.6S54.14,201.57,54.14,201.67Z" style="fill:#231f20;fill-rule:evenodd" />
        <polygon points="52.14 200.47 51.74 201.07 52.84 201.77 53.24 201.07 52.14 200.47" style="fill:#231f20;fill-rule:evenodd" />
        <g style="opacity:0.5">
            <path d="M42.84,193.47a6.07,6.07,0,0,1-1,.7l-1,.7c-.7.4-1.4.8-2,1.2-1.4.7-2.8,1.4-4.1,2l-2.1.9c-.7.3-1.4.5-2.1.8a17.23,17.23,0,0,1-2.1.7c-.7.2-1.4.5-2.1.7l4.7-5.5c.1.8.2,1.5.3,2.3l.2,2.3a17.7,17.7,0,0,1,.1,2.3c0,.8.1,1.5.1,2.3v4.6a17.7,17.7,0,0,1-.1,2.3l-.1,2.3-7.3-6c.6-.1,1.1-.1,1.6-.2l1.5-.1c1-.1,2,0,3.1,0s2,.1,3.1.2,2,.2,3.1.4,2.1.4,3.1.7c.5.2,1,.3,1.5.5l1.5.6a10.09,10.09,0,0,1,1.5.7c.5.3,1,.5,1.4.8a14.63,14.63,0,0,1,1.3.9c.4.4.8.7,1.2,1.1l-.3.7-1.3-.4c-.4-.1-.9-.2-1.4-.3s-.9-.1-1.4-.2a6.6,6.6,0,0,0-1.4-.1c-.5,0-.9-.1-1.4-.1h-1.4a26.2,26.2,0,0,0-2.8.1c-1.9.1-3.8.3-5.6.5a54.34,54.34,0,0,0-5.6.9l-.8.2v-.8c0-3-.1-6,0-9l.1-9v-.5l.5-.1,8.7-1.2,4.4-.6,4.4-.5Z" style="fill:#e6e6e6" />
        </g>
    </g>
</svg>