<svg id="SleeveLT" data-name="Layer 1" xmlns="http://www.w3.org/2000/svg">
    <g id="SleeveLT">
        <path d="M59.84,30.43s-12-8.6-26.4,13.1c0,0-6.9,15.9-7.2,25.2,0,0-13,26.9-12.7,55.5,0,0-15.3,35.9-8.1,49.1,0,0,9.8,14.7,9.5,19.9,0,0,8,7.1,16.7,8.6,0,0,12.4-6.1,23.7,2.5,0,0,17.3-7.1,18-8.9,0,0,.5-9.5,1.6-11.7,0,0,2-25.7,0-40.5,0,0-3.3-7.8-2.3-14.9C72.74,128.33,83.94,45.93,59.84,30.43Z" style="fill:#fff;stroke:#231f20;stroke-miterlimit:10" />
        <path d="M74.54,183.23c-.1,2.4-1.6,11.7-1.6,11.7-.7,1.8-18,8.9-18,8.9-11.3-8.6-23.7-2.5-23.7-2.5-8.7-1.5-16.7-8.6-16.7-8.6.3-5.2-9.5-19.9-9.5-19.9-7.2-13.2,8.1-49.1,8.1-49.1-.3-28.6,12.7-55.5,12.7-55.5C26.14,59,33,43,33,43c14.4-21.8,26.4-13.1,26.4-13.1S83.54,27.53,74.54,183.23Z" style="fill:none;stroke:#231f20;stroke-miterlimit:10" />
        <path d="M14.84,155v2.2c0,1.4,0,3.5.2,5.9s.4,5.3.8,8.3c.2,1.5.5,3,.8,4.6a40.51,40.51,0,0,0,1.2,4.7,34.3,34.3,0,0,0,1.6,4.5,40.93,40.93,0,0,0,2,4.2c.8,1.3,1.5,2.5,2.3,3.6s1.7,2.1,2.5,3c.4.4.9.8,1.3,1.2s.8.7,1.2,1q1.2.9,2.1,1.5l1.9,1.1s-.7-.3-2-.9c-.6-.4-1.4-.8-2.2-1.3a14.63,14.63,0,0,0-1.3-.9c-.4-.4-.9-.8-1.3-1.2a25.59,25.59,0,0,1-2.7-2.9,10.92,10.92,0,0,1-1.3-1.7c-.4-.6-.8-1.3-1.2-1.9a28.58,28.58,0,0,1-2.1-4.3c-.6-1.5-1.2-3-1.7-4.6s-.8-3.2-1.2-4.8-.6-3.1-.8-4.7-.3-3-.4-4.4-.1-2.7-.1-4c0-2.4.1-4.5.2-5.9A10.49,10.49,0,0,1,14.84,155Z" style="fill:#231f20" />
        <path d="M25.14,172.23a11.62,11.62,0,0,0,.1,1.3c.1.8.3,2,.5,3.4.1.7.3,1.4.4,2.2s.4,1.6.6,2.5a25.82,25.82,0,0,0,.8,2.6,20,20,0,0,0,1,2.6c.4.9.7,1.7,1.1,2.5l.6,1.2a10.54,10.54,0,0,0,.7,1.1,6.73,6.73,0,0,0,.7,1.1,8.65,8.65,0,0,0,.7,1,14.1,14.1,0,0,0,1.4,1.8,7.89,7.89,0,0,1,1.2,1.5c.4.4.8.7,1.1,1l.9.9-1.1-.8a6.23,6.23,0,0,0-1.2-.9,18.37,18.37,0,0,1-1.4-1.4c-.5-.5-1-1.1-1.5-1.7a8.74,8.74,0,0,1-.8-1c-.2-.4-.5-.7-.7-1.1a13.77,13.77,0,0,1-1.4-2.4,20.62,20.62,0,0,1-1.2-2.6c-.4-.9-.6-1.8-1-2.7a26.81,26.81,0,0,1-.7-2.7c-.4-1.7-.6-3.4-.8-4.8s-.1-2.6-.1-3.4A9.4,9.4,0,0,0,25.14,172.23Z" style="fill:#231f20" />
        <path d="M46.84,163.33s0,.6-.1,1.5-.1,2.4-.3,4-.3,3.6-.4,5.7-.3,4.3-.5,6.5-.4,4.4-.5,6.5-.3,4-.4,5.7c0,.8-.1,1.6-.1,2.3v1.8a8.54,8.54,0,0,0,.1,1.5,1.58,1.58,0,0,0-.1-.4,6.53,6.53,0,0,0-.2-1.1c-.1-1-.2-2.4-.2-4.1s0-3.6.1-5.7c.1-1,.1-2.1.2-3.2s.2-2.2.2-3.3c.2-2.2.4-4.5.6-6.5s.5-4,.7-5.7.5-3,.6-4Z" style="fill:#231f20" />
        <path d="M61.24,161.23A12.35,12.35,0,0,1,61,163c-.1,1.1-.3,2.7-.6,4.7s-.6,4.2-1.1,6.6-1,4.9-1.6,7.5c-.3,1.3-.6,2.5-1,3.8s-.7,2.4-1.1,3.6-.8,2.3-1.2,3.3l-.6,1.5c-.2.5-.4.9-.6,1.4s-.4.9-.6,1.3a10.91,10.91,0,0,1-.6,1.1,8.34,8.34,0,0,1-1.1,1.7l-1.1,1.4a15.59,15.59,0,0,1,.9-1.5,15,15,0,0,0,.9-1.8,13.32,13.32,0,0,0,1-2.4,7.84,7.84,0,0,0,.5-1.4c.2-.5.3-1,.5-1.5a31.8,31.8,0,0,0,1-3.3c.4-1.2.7-2.4,1-3.6s.6-2.5,1-3.7c.6-2.5,1.2-5,1.7-7.4s1-4.6,1.4-6.5C60.74,163.73,61.24,161.23,61.24,161.23Z" style="fill:#231f20" />
        <path d="M68.74,180.93s-.1.4-.3,1.1a25.52,25.52,0,0,1-1,2.9c-.2.6-.5,1.2-.8,1.9a18.65,18.65,0,0,1-1,2,49.41,49.41,0,0,1-2.7,4.2c-.5.7-1,1.3-1.6,2s-1.1,1.2-1.6,1.8-1.1,1.1-1.6,1.6-1.1.9-1.5,1.3-.9.8-1.3,1.1-.8.6-1.1.8a10.39,10.39,0,0,1-1,.6l.8-.8a7.3,7.3,0,0,0,1-.9,13.58,13.58,0,0,0,1.2-1.2l1.4-1.4c.5-.5,1-1.1,1.5-1.7l1.5-1.8c.5-.7,1-1.3,1.5-2a46.85,46.85,0,0,0,2.7-4,37.11,37.11,0,0,0,2.1-3.7c.6-1.1,1-2,1.3-2.7S68.74,180.93,68.74,180.93Z" style="fill:#231f20" />
        <path d="M23.64,94l-.3,1.2c-.2.8-.4,1.9-.8,3.2s-.7,2.8-1.2,4.5-1,3.3-1.5,5.1-1.1,3.4-1.7,5-1.1,3.1-1.6,4.3-1,2.3-1.3,3l-.4.8a1.24,1.24,0,0,1-.2.3.77.77,0,0,1,.1-.3,4.65,4.65,0,0,0,.3-.9c.3-.7.6-1.8,1-3.1s.8-2.8,1.3-4.4,1-3.3,1.6-5,1.1-3.4,1.6-5,1.1-3.1,1.5-4.4.9-2.3,1.1-3.1S23.64,94,23.64,94Z" style="fill:#231f20" />
        <path d="M26.94,114.83s.1.5.4,1.5.6,2.2,1.1,3.8c.3.8.5,1.6.9,2.5s.7,1.8,1.1,2.7.9,1.9,1.4,2.8,1,1.9,1.6,2.8,1.1,1.8,1.8,2.7c.3.4.6.9.9,1.3s.7.8,1,1.2a11,11,0,0,0,1,1.1l1,1c.7.6,1.3,1.3,1.9,1.8s1.2,1,1.7,1.4a15.14,15.14,0,0,0,1.4.9l1.3.8a13.84,13.84,0,0,1-1.4-.7l-1.6-.8c-.6-.4-1.2-.8-1.9-1.3a10.45,10.45,0,0,1-2.1-1.7,10,10,0,0,1-1.1-1,11.41,11.41,0,0,0-1.1-1.1c-.4-.4-.7-.8-1.1-1.2s-.7-.9-1-1.3a26.1,26.1,0,0,1-1.9-2.7,26.94,26.94,0,0,1-1.6-2.9c-.5-1-.9-2-1.3-2.9a56.81,56.81,0,0,1-1.8-5.4c-.4-1.6-.6-3-.8-3.9A6.39,6.39,0,0,0,26.94,114.83Z" style="fill:#231f20" />
        <path d="M39.24,119.73s.4.1,1,.3a14.93,14.93,0,0,1,2.6,1.1,6.47,6.47,0,0,1,1.6.9,17.39,17.39,0,0,1,1.8,1.1,20.28,20.28,0,0,1,1.8,1.3l1.8,1.5c.6.5,1.1,1.1,1.6,1.6s1,1.1,1.5,1.7a8.85,8.85,0,0,1,1.2,1.7,14,14,0,0,1,1,1.6,10,10,0,0,1,.8,1.4,9.74,9.74,0,0,1,.5,1.1,9.24,9.24,0,0,0,.5.9s-.2-.3-.6-.8c-.2-.3-.4-.6-.7-1l-.9-1.2a17.1,17.1,0,0,1-1.1-1.4c-.4-.5-.9-1-1.3-1.5-1-1-2-2.1-3.1-3.1-.6-.5-1.1-1-1.7-1.5a5.72,5.72,0,0,1-.8-.7l-.9-.6a26.35,26.35,0,0,0-3.2-2.2A24.93,24.93,0,0,0,39.24,119.73Z" style="fill:#231f20" />
        <path d="M31.14,54.73s-.2.9-.6,2.2-1,3-1.6,4.7-1.4,3.3-2,4.6-1.1,2-1.1,2,.2-.9.6-2.2,1-3,1.6-4.7,1.4-3.3,2-4.6S31.14,54.73,31.14,54.73Z" style="fill:#231f20" />
        <path d="M43.44,57.53l-.5,1c-.3.6-.7,1.6-1.2,2.6s-1,2.4-1.6,3.8-1.1,2.9-1.6,4.4a18.66,18.66,0,0,0-.7,2.2c-.2.7-.4,1.5-.6,2.2s-.3,1.4-.5,2.1-.2,1.3-.3,1.9-.1,1.1-.2,1.6a5.63,5.63,0,0,0,0,1.3v1.1s-.1-.4-.2-1.1c0-.3-.1-.8-.1-1.3a9.58,9.58,0,0,1,0-1.7c0-.6.1-1.3.1-2s.2-1.4.3-2.2.3-1.5.5-2.3a20.16,20.16,0,0,1,.7-2.3,33.83,33.83,0,0,1,1.8-4.4c.6-1.4,1.3-2.6,1.9-3.7s1.1-1.9,1.5-2.5A3.57,3.57,0,0,0,43.44,57.53Z" style="fill:#231f20" />
        <path d="M53.14,51.63a10.52,10.52,0,0,1-.9,1,30.78,30.78,0,0,0-2.2,2.8c-.4.6-.9,1.2-1.4,1.9s-1,1.4-1.5,2.2-1,1.6-1.5,2.4-1,1.7-1.4,2.5-.9,1.7-1.3,2.6-.8,1.7-1.1,2.6-.7,1.7-.9,2.5-.5,1.6-.6,2.3a11.8,11.8,0,0,1-.4,2,8.64,8.64,0,0,0-.1,1.5c-.1.9-.1,1.3-.1,1.3a11.62,11.62,0,0,0-.1-1.3,8.48,8.48,0,0,1,0-1.6,15,15,0,0,1,.2-2c.1-.7.3-1.5.4-2.4s.5-1.7.7-2.6.7-1.8,1-2.7.9-1.8,1.3-2.7,1-1.7,1.5-2.5,1.1-1.6,1.6-2.4,1.1-1.4,1.6-2.1,1.1-1.2,1.6-1.8c1-1.1,1.9-1.9,2.5-2.5A11.77,11.77,0,0,1,53.14,51.63Z" style="fill:#231f20" />
        <path d="M61.24,32.63a11.62,11.62,0,0,1-1.3-.1,5.63,5.63,0,0,0-1.3,0h-1.5a7.57,7.57,0,0,0-1.5.1,5.28,5.28,0,0,0-1.3.1,4.46,4.46,0,0,1-1.3,0,5.22,5.22,0,0,1,1.2-.6,5,5,0,0,1,1.3-.4c.2,0,.5-.1.8-.1h.8a8.6,8.6,0,0,1,1.6.1,5,5,0,0,1,1.3.4c.4.2.7.3.9.4A.77.77,0,0,0,61.24,32.63Z" style="fill:#231f20" />
        <path d="M62.94,36a6.73,6.73,0,0,0-1,.1c-.3,0-.7.1-1.2.1a10.4,10.4,0,0,0-1.5.2c-1.1.2-2.3.4-3.7.7a15.19,15.19,0,0,0-2,.6,16.67,16.67,0,0,0-2,.8c-.6.3-1.3.6-1.9.9s-1.2.7-1.7,1.1-1.1.8-1.5,1.2l-.6.6-.6.6-.9,1.2a8.79,8.79,0,0,1-.6,1,9.24,9.24,0,0,1-.5.9s.1-.3.3-1a7.6,7.6,0,0,1,.4-1.1c.2-.4.5-.8.8-1.3s.7-.9,1.1-1.5a10.28,10.28,0,0,1,1.5-1.4c.3-.2.6-.5.9-.7l.9-.6a12.44,12.44,0,0,1,2-1c.7-.2,1.4-.6,2.1-.8a16,16,0,0,1,2.1-.5,16.21,16.21,0,0,1,2-.3,10.87,10.87,0,0,1,1.8-.1,21,21,0,0,1,2.7.1A6.62,6.62,0,0,1,62.94,36Z" style="fill:#231f20" />
        <path d="M63.94,38.33s-.8.4-2,1.1a4.05,4.05,0,0,1-.9.5c-.3.2-.7.4-1,.6-.7.5-1.5.9-2.2,1.4-.4.2-.7.5-1.1.7a8.65,8.65,0,0,0-1,.7,6.07,6.07,0,0,1-1,.7,5.5,5.5,0,0,0-.9.7c-1,.8-1.8,1.4-1.8,1.4s.5-.7,1.4-1.8a6,6,0,0,1,.8-.8c.3-.3.6-.5.9-.8a3.92,3.92,0,0,1,1-.8l1.1-.8a7.46,7.46,0,0,1,1.2-.7l1.2-.6a11.73,11.73,0,0,0,1.1-.5,6.89,6.89,0,0,1,1-.4A9.83,9.83,0,0,1,63.94,38.33Z" style="fill:#231f20" />
        <path d="M65.34,42.23s-.8.5-1.9,1.3c-.6.4-1.2.8-1.9,1.3s-1.4,1-2.1,1.6a16.32,16.32,0,0,0-2,1.7,6.47,6.47,0,0,1-.9.8c-.3.3-.5.6-.7.8s-.4.5-.5.7a2.09,2.09,0,0,0-.4.6l-.3.6a2.8,2.8,0,0,1,.1-.6,1.85,1.85,0,0,1,.2-.7,3.55,3.55,0,0,1,.4-.9c.2-.3.4-.7.6-1s.5-.7.8-1a9.43,9.43,0,0,1,1-1,10.63,10.63,0,0,1,1.1-.9,26.45,26.45,0,0,1,4.4-2.6A13.92,13.92,0,0,1,65.34,42.23Z" style="fill:#231f20" />
        <path d="M66.54,46.93s-.2.2-.6.7-.9,1-1.5,1.7c-1.2,1.4-2.9,3.4-4.4,5.4a14.31,14.31,0,0,0-1.1,1.5c-.3.5-.7,1-1,1.5s-.6,1-.9,1.4a14.8,14.8,0,0,1-.8,1.3,10.91,10.91,0,0,1-.6,1.1,6.31,6.31,0,0,0-.4.9,4.77,4.77,0,0,1-.4.8,6.59,6.59,0,0,0,.2-.9c.1-.5.4-1.3.7-2.2.2-.5.4-.9.6-1.4a10.93,10.93,0,0,1,.8-1.5,29.22,29.22,0,0,1,2.1-3.2c.8-1,1.6-2,2.4-2.9a24.86,24.86,0,0,1,2.3-2.3c.7-.6,1.4-1.1,1.8-1.5A2.19,2.19,0,0,0,66.54,46.93Z" style="fill:#231f20" />
        <path d="M58.44,196.43v18c-14.4,8.5-29.4,3-29.4,3l-2.4-17.1C26.74,200.33,41.24,199.33,58.44,196.43Z" style="fill:#fff;stroke:#231f20;stroke-miterlimit:10" />
        <path d="M27,202.33s21.9-3,31.5-3.3" style="fill:#fff" />
        <polygon points="27.54 206.03 33.74 205.23 32.84 197.73 26.54 198.63 27.54 206.03" style="fill:none" />
        <rect x="31.62" y="201.32" width="1.2" height="0.7" transform="translate(-25.75 5.84) rotate(-7.41)" style="fill:#231f20" />
        <rect x="29.67" y="201.53" width="1.2" height="0.8" transform="matrix(0.99, -0.13, 0.13, 0.99, -26.53, 5.8)" style="fill:#231f20" />
        <rect x="27.56" y="201.83" width="1.2" height="0.7" transform="translate(-27.15 5.69) rotate(-7.79)" style="fill:#231f20" />
        <polygon points="33.74 205.23 40.04 204.43 39.14 196.93 32.84 197.73 33.74 205.23" style="fill:none" />
        <polygon points="37.94 200.63 38.04 201.33 39.14 201.23 39.04 200.53 37.94 200.63" style="fill:#231f20;fill-rule:evenodd" />
        <rect x="35.83" y="200.82" width="1.2" height="0.7" transform="translate(-24.61 6.05) rotate(-7.11)" style="fill:#231f20" />
        <rect x="33.73" y="201.02" width="1.2" height="0.7" transform="translate(-24.94 5.88) rotate(-7.19)" style="fill:#231f20" />
        <polygon points="40.04 204.43 46.24 203.73 45.44 196.33 39.14 196.93 40.04 204.43" style="fill:none" />
        <rect x="44.27" y="199.84" width="1.2" height="0.8" transform="translate(-21.36 6.02) rotate(-6.2)" style="fill:#231f20" />
        <rect x="42.14" y="200.12" width="1.2" height="0.7" transform="translate(-22.18 6.05) rotate(-6.43)" style="fill:#231f20" />
        <polygon points="40.04 200.43 40.14 201.13 41.24 201.03 41.14 200.23 40.04 200.43" style="fill:#231f20;fill-rule:evenodd" />
        <path d="M46.24,203.73s1.6-.2,3.1-.3c.8-.1,1.5-.1,2.1-.2a4.54,4.54,0,0,0,1-.1l-.6-7.5a6.73,6.73,0,0,0-1,.1c-.6.1-1.4.1-2.2.2-1.6.2-3.2.3-3.2.3Z" style="fill:none" />
        <polygon points="50.54 199.23 50.54 200.03 51.74 199.93 51.64 199.23 50.54 199.23" style="fill:#231f20;fill-rule:evenodd" />
        <polygon points="48.44 199.43 48.44 200.23 49.64 200.13 49.54 199.33 48.44 199.43" style="fill:#231f20;fill-rule:evenodd" />
        <polygon points="46.34 199.73 46.44 200.43 47.54 200.33 47.44 199.53 46.34 199.73" style="fill:#231f20;fill-rule:evenodd" />
        <polygon points="52.44 203.13 58.64 202.73 58.34 195.23 51.84 195.63 52.44 203.13" style="fill:none" />
        <polygon points="56.84 198.83 56.84 199.53 58.04 199.43 58.04 198.73 56.84 198.83" style="fill:#231f20;fill-rule:evenodd" />
        <polygon points="54.74 198.93 54.74 199.73 55.94 199.63 55.94 198.93 54.74 198.93" style="fill:#231f20;fill-rule:evenodd" />
        <polygon points="52.64 199.13 52.64 199.83 53.84 199.83 53.84 199.03 52.64 199.13" style="fill:#231f20;fill-rule:evenodd" />
        <line x1="26.94" y1="203.83" x2="58.44" y2="200.73" style="fill:none" />
        <rect x="26.96" y="199.73" width="6.3" height="7.5" transform="translate(-19.43 3.84) rotate(-5.52)" style="fill:none" />
        <rect x="31.66" y="203.03" width="1.2" height="0.7" transform="translate(-19.19 3.99) rotate(-5.46)" style="fill:#231f20" />
        <rect x="29.42" y="203.22" width="1.2" height="0.7" transform="translate(-19.49 3.84) rotate(-5.53)" style="fill:#231f20" />
        <rect x="27.32" y="203.42" width="1.2" height="0.7" transform="translate(-19.52 3.64) rotate(-5.53)" style="fill:#231f20" />
        <rect x="33.26" y="199.13" width="6.3" height="7.5" transform="translate(-19.35 4.44) rotate(-5.52)" style="fill:none" />
        <rect x="37.82" y="202.42" width="1.2" height="0.7" transform="translate(-19.37 4.65) rotate(-5.53)" style="fill:#231f20" />
        <rect x="35.72" y="202.62" width="1.2" height="0.7" transform="translate(-19.4 4.45) rotate(-5.53)" style="fill:#231f20" />
        <rect x="33.62" y="202.82" width="1.2" height="0.7" transform="translate(-19.43 4.25) rotate(-5.53)" style="fill:#231f20" />
        <rect x="39.56" y="198.54" width="6.3" height="7.5" transform="translate(-19.26 5.05) rotate(-5.52)" style="fill:none" />
        <rect x="44.22" y="201.82" width="1.2" height="0.7" transform="translate(-19.28 5.26) rotate(-5.53)" style="fill:#231f20" />
        <rect x="42.12" y="202.02" width="1.2" height="0.7" transform="translate(-19.31 5.06) rotate(-5.53)" style="fill:#231f20" />
        <rect x="40.02" y="202.22" width="1.2" height="0.7" transform="translate(-19.34 4.86) rotate(-5.53)" style="fill:#231f20" />
        <rect x="45.86" y="197.94" width="6.3" height="7.5" transform="translate(-19.17 5.65) rotate(-5.52)" style="fill:none" />
        <rect x="50.52" y="201.22" width="1.2" height="0.7" transform="translate(-19.2 5.87) rotate(-5.53)" style="fill:#231f20" />
        <rect x="48.42" y="201.42" width="1.2" height="0.7" transform="translate(-19.22 5.67) rotate(-5.53)" style="fill:#231f20" />
        <rect x="46.32" y="201.62" width="1.2" height="0.7" transform="translate(-19.25 5.46) rotate(-5.53)" style="fill:#231f20" />
        <rect x="52.16" y="197.34" width="6.3" height="7.5" transform="translate(-19.09 6.25) rotate(-5.52)" style="fill:none" />
        <rect x="56.82" y="200.62" width="1.2" height="0.7" transform="translate(-19.11 6.47) rotate(-5.53)" style="fill:#231f20" />
        <rect x="54.72" y="200.82" width="1.2" height="0.7" transform="translate(-19.14 6.27) rotate(-5.53)" style="fill:#231f20" />
        <rect x="52.62" y="201.02" width="1.2" height="0.7" transform="translate(-19.17 6.07) rotate(-5.53)" style="fill:#231f20" />
    </g>
</svg>