<svg id="SleeveRF" data-name="Layer 1" xmlns="http://www.w3.org/2000/svg">
    <g id="SleeveRF">
        <path d="M62.64,26.47s-12-8.7-26.5,13.2c0,0-7,16-7.3,25.3,0,0-13.1,27.1-12.8,55.8,0,0-15.4,36.1-8.1,49.4,0,0,9.9,14.8,9.6,20,0,0,8.1,7.1,16.8,8.6,0,0,12.5-6.2,23.8,2.5,0,0,17.4-7.1,18.1-8.9,0,0,.5-9.6,1.6-11.7,0,0,2-25.9,0-40.7,0,0-3.3-7.8-2.3-15C75.64,125,86.84,42.17,62.64,26.47Z" style="fill:#fff;stroke:#231f20;stroke-miterlimit:10" />
        <path d="M60.84,216.67c-13.3,6-29.5-3-29.5-3l12.5-6.5,18.7,2.4Z" style="fill:#ccc;stroke:#000;stroke-miterlimit:10" />
        <path d="M62,26.47s-12-8.7-26.5,13.2c0,0-7,16-7.2,25.3,0,0-13.1,27.1-12.8,55.8,0,0-15.4,36.1-8.1,49.4,0,0,9.9,14.8,9.6,20,0,0,8.1,7.1,16.8,8.6,0,0,12.5-6.2,23.8,2.5,0,0,17.4-7.1,18.1-8.9,0,0,.5-9.6,1.6-11.7,0,0,2-25.9,0-40.7,0,0-3.3-7.8-2.3-15C75,125,86.34,42.17,62,26.47Z" style="fill:none;stroke:#231f20;stroke-miterlimit:10" />
        <path d="M32.14,195.67v18.1s20.6-2.1,29.5,3l2.4-17.2A30,30,0,0,0,32.14,195.67Z" style="fill:#fff;stroke:#231f20;stroke-miterlimit:10" />
        <path d="M34.34,202.67a20,20,0,0,1,2.4-1.3c.3-.1.7-.3,1-.4l.9-.3a3.93,3.93,0,0,1,.6-.2c.2,0,.2-.1.2-.1l-2.4-7.2a4.88,4.88,0,0,0-1.1.4,8.34,8.34,0,0,1-1.2.4c-.4.2-.9.4-1.3.6a30.84,30.84,0,0,0-3.6,2Z" style="fill:none" />
        <polygon points="36.54 196.97 36.84 197.67 38.04 197.27 37.74 196.57 36.54 196.97" style="fill:#231f20;fill-rule:evenodd" />
        <path d="M34.44,198l.3.7a2.83,2.83,0,0,0,.6-.3,3,3,0,0,0,.6-.3l-.3-.7a2.83,2.83,0,0,0-.6.3A3,3,0,0,0,34.44,198Z" style="fill:#231f20;fill-rule:evenodd" />
        <path d="M32.44,199.07l.4.6s.3-.2.5-.3a5.2,5.2,0,0,1,.5-.3l-.4-.7a3,3,0,0,1-.6.3A1.4,1.4,0,0,1,32.44,199.07Z" style="fill:#231f20;fill-rule:evenodd" />
        <path d="M39.54,200.27a7.78,7.78,0,0,0,.9-.3c.5-.2,1.3-.3,2-.5a16.21,16.21,0,0,1,2-.3c.3,0,.5-.1.7-.1h.2l-.6-7.5h-.3a3.44,3.44,0,0,0-.9.1c-.7.1-1.7.2-2.6.4s-1.9.4-2.6.6-1.2.3-1.2.3Z" style="fill:none" />
        <path d="M43.24,195.27l.1.7a2.14,2.14,0,0,0,.6-.1,2.18,2.18,0,0,0,.6-.1l-.1-.8a2.14,2.14,0,0,0-.6.1A1.19,1.19,0,0,1,43.24,195.27Z" style="fill:#231f20;fill-rule:evenodd" />
        <path d="M40.94,195.67l.2.7,1.2-.3-.1-.7Z" style="fill:#231f20;fill-rule:evenodd" />
        <path d="M38.74,196.27l.2.7.6-.2.6-.2-.2-.7-.6.2Z" style="fill:#231f20;fill-rule:evenodd" />
        <path d="M45.24,199.17h.9a7,7,0,0,1,2,.1,4.1,4.1,0,0,1,1.1.1c.3.1.6.1.9.2.5.1.9.2.9.2l1.6-7.4s-.5-.1-1.2-.2c-.4-.1-.8-.1-1.2-.2a7.08,7.08,0,0,0-1.4-.1c-1-.1-2-.1-2.7-.1h-1.2Z" style="fill:none" />
        <polygon points="50.04 195.27 49.94 196.07 51.14 196.27 51.34 195.57 50.04 195.27" style="fill:#231f20;fill-rule:evenodd" />
        <polygon points="47.74 195.07 47.74 195.87 49.04 195.87 49.04 195.17 47.74 195.07" style="fill:#231f20;fill-rule:evenodd" />
        <polygon points="45.54 195.07 45.54 195.87 46.74 195.77 46.74 195.07 45.54 195.07" style="fill:#231f20;fill-rule:evenodd" />
        <path d="M50.94,199.57a25.13,25.13,0,0,1,2.8.8,17.53,17.53,0,0,1,2.6,1.2l3.6-6.6a1.24,1.24,0,0,0-.3-.2,5.9,5.9,0,0,1-.8-.4l-2.5-1.1c-.9-.3-1.9-.6-2.6-.8s-1.2-.3-1.2-.3Z" style="fill:none" />
        <polygon points="56.64 197.27 56.34 197.97 57.44 198.47 57.84 197.77 56.64 197.27" style="fill:#231f20;fill-rule:evenodd" />
        <path d="M54.54,196.37l-.2.7.6.2a3,3,0,0,1,.6.3l.3-.7a2.83,2.83,0,0,1-.6-.3C54.84,196.47,54.54,196.37,54.54,196.37Z" style="fill:#231f20;fill-rule:evenodd" />
        <polygon points="52.34 195.67 52.14 196.47 53.34 196.77 53.54 196.07 52.34 195.67" style="fill:#231f20;fill-rule:evenodd" />
        <path d="M56.34,201.57s.3.2.8.5a12,12,0,0,1,1.7,1.1l2.4,1.8,5-5.7s-1.5-1.2-3-2.3c-.8-.6-1.6-1-2.2-1.4a10.39,10.39,0,0,0-1-.6Z" style="fill:none" />
        <polygon points="62.54 200.87 62.04 201.47 63.04 202.17 63.54 201.67 62.54 200.87" style="fill:#231f20;fill-rule:evenodd" />
        <path d="M60.64,199.47l-.4.6,1,.7.4-.6A4.31,4.31,0,0,0,60.64,199.47Z" style="fill:#231f20;fill-rule:evenodd" />
        <polygon points="58.74 198.27 58.34 198.97 59.44 199.57 59.84 198.97 58.74 198.27" style="fill:#231f20;fill-rule:evenodd" />
        <path d="M34.54,204.77a20,20,0,0,1,2.4-1.3,4.18,4.18,0,0,1,1-.4l.9-.3a3.93,3.93,0,0,1,.6-.2c.2,0,.2-.1.2-.1l-2.4-7.2a4.88,4.88,0,0,0-1.1.4,8.34,8.34,0,0,1-1.2.4c-.4.2-.9.4-1.3.6a30.84,30.84,0,0,0-3.6,2Z" style="fill:none" />
        <polygon points="36.74 199.17 37.04 199.87 38.14 199.37 37.94 198.67 36.74 199.17" style="fill:#231f20;fill-rule:evenodd" />
        <path d="M34.64,200.07l.3.7a2.83,2.83,0,0,0,.6-.3,3,3,0,0,0,.6-.3l-.3-.7a2.83,2.83,0,0,0-.6.3A2.83,2.83,0,0,1,34.64,200.07Z" style="fill:#231f20;fill-rule:evenodd" />
        <path d="M32.64,201.17l.4.6s.3-.2.5-.3a5.2,5.2,0,0,1,.5-.3l-.3-.6a3,3,0,0,1-.6.3C32.94,201,32.64,201.17,32.64,201.17Z" style="fill:#231f20;fill-rule:evenodd" />
        <path d="M39.64,202.37a7.78,7.78,0,0,0,.9-.3c.5-.2,1.3-.3,2-.5a16.21,16.21,0,0,1,2-.3c.3,0,.5-.1.7-.1h.2l-.5-7.5h-.3a3.44,3.44,0,0,0-.9.1c-.7.1-1.7.2-2.6.4s-1.9.4-2.6.6-1.2.3-1.2.3Z" style="fill:none" />
        <path d="M43.34,197.37l.1.7a2.14,2.14,0,0,0,.6-.1,2.18,2.18,0,0,0,.6-.1l-.1-.8a2.14,2.14,0,0,0-.6.1A1,1,0,0,1,43.34,197.37Z" style="fill:#231f20;fill-rule:evenodd" />
        <path d="M41.14,197.77l.2.7,1.2-.3-.1-.7A7.89,7.89,0,0,1,41.14,197.77Z" style="fill:#231f20;fill-rule:evenodd" />
        <path d="M38.94,198.37l.2.7.6-.2.6-.2-.2-.7-.6.2Z" style="fill:#231f20;fill-rule:evenodd" />
        <path d="M45.44,201.27h.9a7,7,0,0,1,2,.1,4.1,4.1,0,0,1,1.1.1c.3.1.6.1.9.2.5.1.9.2.9.2l1.6-7.4s-.5-.1-1.2-.2c-.4-.1-.8-.1-1.2-.2A7.08,7.08,0,0,0,49,194c-1-.1-2-.1-2.7-.1h-1.2Z" style="fill:none" />
        <polygon points="50.24 197.47 50.14 198.17 51.34 198.37 51.54 197.67 50.24 197.47" style="fill:#231f20;fill-rule:evenodd" />
        <polygon points="47.94 197.17 47.94 197.97 49.14 198.07 49.24 197.27 47.94 197.17" style="fill:#231f20;fill-rule:evenodd" />
        <polygon points="45.64 197.17 45.74 197.97 46.94 197.87 46.94 197.17 45.64 197.17" style="fill:#231f20;fill-rule:evenodd" />
        <path d="M51.14,201.67a25.13,25.13,0,0,1,2.8.8,17.53,17.53,0,0,1,2.6,1.2l3.6-6.6a1.24,1.24,0,0,0-.3-.2,5.9,5.9,0,0,1-.8-.4l-2.5-1.1c-.9-.3-1.9-.6-2.6-.8s-1.2-.3-1.2-.3Z" style="fill:none" />
        <polygon points="56.84 199.37 56.54 200.07 57.64 200.57 58.04 199.87 56.84 199.37" style="fill:#231f20;fill-rule:evenodd" />
        <path d="M54.74,198.47l-.2.7.6.2a3,3,0,0,1,.6.3l.3-.7a2.83,2.83,0,0,1-.6-.3C55,198.57,54.74,198.47,54.74,198.47Z" style="fill:#231f20;fill-rule:evenodd" />
        <polygon points="52.54 197.87 52.34 198.57 53.54 198.97 53.74 198.27 52.54 197.87" style="fill:#231f20;fill-rule:evenodd" />
        <path d="M56.54,203.67s.3.2.8.5a12,12,0,0,1,1.7,1.1l2.4,1.8,5-5.7s-1.5-1.2-3-2.3c-.8-.6-1.6-1-2.2-1.4a10.39,10.39,0,0,0-1-.6Z" style="fill:none" />
        <polygon points="62.64 202.97 62.24 203.57 63.24 204.37 63.74 203.77 62.64 202.97" style="fill:#231f20;fill-rule:evenodd" />
        <path d="M60.84,201.57l-.4.6,1,.7.4-.6C61.84,202.37,60.84,201.57,60.84,201.57Z" style="fill:#231f20;fill-rule:evenodd" />
        <polygon points="58.94 200.37 58.54 201.07 59.64 201.67 60.04 201.07 58.94 200.37" style="fill:#231f20;fill-rule:evenodd" />
        <g style="opacity:0.5">
            <path d="M32.54,195.77a10.47,10.47,0,0,0,.8,1.1A10.54,10.54,0,0,0,34,198c.4.8.8,1.5,1.2,2.3a21.85,21.85,0,0,1,.9,2.3,20.16,20.16,0,0,1,.7,2.3c.2.8.4,1.5.6,2.3s.3,1.5.5,2.3.2,1.5.3,2.3a4.48,4.48,0,0,1,.1,1.1l.1,1.1-7.7-6.1c.7-.2,1.2-.3,1.7-.4s1.1-.2,1.6-.3c1.1-.1,2.1-.3,3.2-.3l1.6-.1a8.6,8.6,0,0,1,1.6.1,17.33,17.33,0,0,1,3.2.3l1.6.3c.5.1,1.1.3,1.6.4a28.27,28.27,0,0,1,3.1,1.1,10.09,10.09,0,0,1,1.5.7l1.5.9,1.4,1a14.93,14.93,0,0,1,1.4,1.2l-.1.7-2.9-.2-1.5-.1h-1.5l-2.9-.1-2.9.1a26.42,26.42,0,0,0-2.9.2l-2.9.3c-1,.1-1.9.3-2.9.4a29.31,29.31,0,0,0-2.9.5l-.8.2V214l.1-9c0-1.5,0-3,.1-4.5l.1-4.5.7-.2Z" style="fill:#e6e6e6" />
        </g>
        <path d="M17.24,152.27v2.2c0,1.4,0,3.5.2,5.9s.4,5.3.8,8.3c.2,1.5.5,3.1.8,4.6a40.51,40.51,0,0,0,1.2,4.7,35.7,35.7,0,0,0,1.6,4.6,40.93,40.93,0,0,0,2,4.2,33.66,33.66,0,0,0,2.4,3.7c.8,1.1,1.7,2.1,2.5,3,.4.4.9.8,1.3,1.2a10.59,10.59,0,0,0,1.2,1q1.2.9,2.1,1.5c1.2.7,2,1.1,2,1.1s-.8-.3-2.1-.9c-.6-.4-1.4-.8-2.2-1.3a14.63,14.63,0,0,0-1.3-.9c-.4-.4-.9-.8-1.3-1.2a25.59,25.59,0,0,1-2.7-2.9,11.8,11.8,0,0,1-1.3-1.8c-.4-.6-.8-1.3-1.2-1.9a34.18,34.18,0,0,1-2.1-4.3c-.6-1.5-1.2-3.1-1.7-4.6s-.8-3.2-1.2-4.8-.6-3.2-.8-4.7-.3-3-.4-4.4-.1-2.7-.1-4c0-2.5.1-4.5.2-5.9A21.7,21.7,0,0,1,17.24,152.27Z" style="fill:#231f20" />
        <path d="M27.74,169.57a11.62,11.62,0,0,0,.1,1.3c.1.8.3,2,.5,3.4.1.7.3,1.5.4,2.2s.4,1.6.6,2.5a25.82,25.82,0,0,0,.8,2.6,20,20,0,0,0,1,2.6c.4.9.7,1.7,1.1,2.5l.6,1.2c.2.4.5.8.7,1.2a6.73,6.73,0,0,0,.7,1.1,8.65,8.65,0,0,0,.7,1,14.1,14.1,0,0,0,1.4,1.8,17.38,17.38,0,0,1,1.3,1.5c.4.4.8.7,1.1,1l.9.9-1.1-.8a6.23,6.23,0,0,0-1.2-.9,18.37,18.37,0,0,1-1.4-1.4c-.5-.5-1-1.1-1.5-1.7a8.74,8.74,0,0,1-.8-1c-.2-.4-.5-.7-.7-1.1a18.84,18.84,0,0,1-1.4-2.4,20.62,20.62,0,0,1-1.2-2.6c-.4-.9-.6-1.8-1-2.7a26.81,26.81,0,0,1-.7-2.7c-.4-1.8-.6-3.4-.8-4.8s-.1-2.6-.1-3.5A3.63,3.63,0,0,1,27.74,169.57Z" style="fill:#231f20" />
        <path d="M49.44,160.57s0,.6-.1,1.5-.1,2.4-.3,4.1-.3,3.6-.4,5.7-.4,4.3-.5,6.6-.4,4.5-.5,6.6-.3,4.1-.4,5.7c0,.8-.1,1.6-.1,2.3v1.8a8.54,8.54,0,0,0,.1,1.5,1.58,1.58,0,0,0-.1-.4,6.53,6.53,0,0,0-.2-1.1c-.1-1-.2-2.4-.2-4.1s0-3.7.1-5.8c.1-1.1.1-2.1.2-3.2s.2-2.2.2-3.3c.2-2.2.4-4.5.7-6.6s.5-4,.7-5.7.5-3.1.6-4S49.44,160.57,49.44,160.57Z" style="fill:#231f20" />
        <path d="M63.94,158.47a11.15,11.15,0,0,1-.2,1.8c-.1,1.1-.3,2.8-.6,4.7s-.6,4.2-1.1,6.6-1,5-1.6,7.5c-.3,1.3-.6,2.5-1,3.8s-.7,2.5-1.1,3.6-.8,2.3-1.2,3.3l-.6,1.5c-.2.5-.4.9-.6,1.4s-.4.9-.6,1.3a10.91,10.91,0,0,1-.6,1.1,14.19,14.19,0,0,1-1.1,1.8l-1.1,1.4a15.59,15.59,0,0,1,.9-1.5,15,15,0,0,0,.9-1.8,13.32,13.32,0,0,0,1-2.4c.2-.5.4-.9.6-1.4s.3-1,.5-1.5c.4-1.1.7-2.2,1-3.3s.7-2.4,1-3.6.6-2.5,1-3.8c.6-2.5,1.2-5.1,1.7-7.4s1-4.6,1.4-6.5C63.44,161,63.94,158.47,63.94,158.47Z" style="fill:#231f20" />
        <path d="M71.54,178.37s-.1.4-.3,1.1a25.52,25.52,0,0,1-1,2.9c-.2.6-.5,1.2-.8,1.9a18.65,18.65,0,0,1-1,2,49.41,49.41,0,0,1-2.7,4.2c-.5.7-1.1,1.3-1.6,2s-1.1,1.2-1.6,1.8-1.1,1.1-1.6,1.6-1.1.9-1.5,1.4a13.44,13.44,0,0,1-1.4,1.1c-.4.3-.8.6-1.1.8-.6.4-1,.7-1,.7l.8-.8c.3-.2.6-.6,1-.9a13.58,13.58,0,0,0,1.2-1.2c.4-.4.9-.9,1.4-1.5s1-1.1,1.5-1.7,1-1.2,1.5-1.9,1-1.3,1.5-2a36.22,36.22,0,0,0,2.7-4.1,37.11,37.11,0,0,0,2.1-3.7c.6-1.1,1-2.1,1.3-2.7A10.39,10.39,0,0,0,71.54,178.37Z" style="fill:#231f20" />
        <path d="M26.14,90.87l-.3,1.2c-.2.8-.4,1.9-.8,3.2s-.7,2.8-1.2,4.5-1,3.4-1.5,5.1-1.1,3.4-1.7,5-1.1,3.1-1.6,4.3-1,2.3-1.3,3l-.4.8a1.24,1.24,0,0,1-.2.3.77.77,0,0,1,.1-.3,4.65,4.65,0,0,0,.3-.9c.3-.7.6-1.8,1-3.1s.8-2.8,1.3-4.4,1-3.3,1.6-5.1,1.1-3.4,1.7-5,1.1-3.1,1.5-4.4.9-2.3,1.1-3.1A8.17,8.17,0,0,0,26.14,90.87Z" style="fill:#231f20" />
        <path d="M29.44,111.87s.1.5.4,1.5.6,2.2,1.1,3.8c.3.8.5,1.6.9,2.5s.7,1.8,1.1,2.7.9,1.9,1.4,2.8,1,1.9,1.6,2.8a25.34,25.34,0,0,0,1.8,2.7c.3.4.6.9.9,1.3s.7.8,1,1.2a11,11,0,0,0,1,1.1,9.43,9.43,0,0,0,1,1,16.24,16.24,0,0,0,2,1.8c.6.5,1.2,1,1.7,1.4a14.68,14.68,0,0,0,1.5.9l1.3.8a13.84,13.84,0,0,1-1.4-.7l-1.6-.8c-.6-.4-1.2-.8-1.9-1.3a10.45,10.45,0,0,1-2.1-1.7,10,10,0,0,1-1.1-1,11.41,11.41,0,0,0-1.1-1.1c-.4-.4-.7-.8-1.1-1.2s-.7-.9-1-1.3c-.7-.9-1.3-1.8-1.9-2.7a26.94,26.94,0,0,1-1.6-2.9c-.5-1-.9-2-1.3-2.9a56.81,56.81,0,0,1-1.8-5.4c-.4-1.6-.6-3-.8-3.9Z" style="fill:#231f20" />
        <path d="M41.84,116.77s.4.1,1,.3a12.3,12.3,0,0,1,2.6,1.1,9.47,9.47,0,0,1,1.7.9,17.39,17.39,0,0,1,1.8,1.1,20.28,20.28,0,0,1,1.8,1.3l1.8,1.5c.6.5,1.1,1.1,1.6,1.6s1,1.1,1.5,1.7a19.23,19.23,0,0,1,1.3,1.7,14,14,0,0,1,1,1.6,10,10,0,0,1,.8,1.4,9.74,9.74,0,0,1,.5,1.1l.5,1-.6-.9c-.2-.3-.4-.6-.7-1l-.9-1.2c-.4-.4-.7-1-1.1-1.4s-.9-1-1.3-1.6c-1-1-2-2.1-3.1-3.1-.6-.5-1.1-1-1.7-1.5-.3-.2-.6-.5-.9-.7a5.5,5.5,0,0,1-.9-.7,26.35,26.35,0,0,0-3.2-2.2C43.24,117.47,41.84,116.77,41.84,116.77Z" style="fill:#231f20" />
        <path d="M33.64,51.37s-.2.9-.6,2.2-1,3-1.6,4.7-1.4,3.4-2,4.6-1.1,2-1.1,2,.2-.9.6-2.2,1-3,1.6-4.7,1.4-3.4,2-4.6S33.64,51.37,33.64,51.37Z" style="fill:#231f20" />
        <path d="M46.14,54.17l-.5,1c-.3.6-.7,1.6-1.2,2.7s-1,2.4-1.6,3.8-1.1,2.9-1.6,4.4a15.46,15.46,0,0,0-.7,2.3c-.2.8-.4,1.5-.6,2.2s-.3,1.4-.5,2.1-.2,1.3-.3,1.9-.1,1.1-.2,1.6a5.63,5.63,0,0,0,0,1.3v1.1s-.1-.4-.2-1.1c0-.4-.1-.8-.1-1.3a9.63,9.63,0,0,1,0-1.7,15,15,0,0,1,.2-2c.1-.7.2-1.4.3-2.2s.3-1.5.6-2.3a15.46,15.46,0,0,1,.7-2.3,33.83,33.83,0,0,1,1.8-4.4c.6-1.4,1.3-2.6,1.9-3.7s1.2-1.9,1.5-2.5A2.44,2.44,0,0,1,46.14,54.17Z" style="fill:#231f20" />
        <path d="M55.84,48.37a10.52,10.52,0,0,1-.9,1,30.78,30.78,0,0,0-2.2,2.8c-.4.6-.9,1.2-1.4,1.9s-1,1.4-1.5,2.2-1,1.6-1.5,2.4-1,1.7-1.5,2.5-.9,1.7-1.3,2.6-.8,1.7-1.1,2.6-.7,1.7-.9,2.5-.5,1.6-.6,2.3a11.8,11.8,0,0,1-.4,2,8.64,8.64,0,0,0-.1,1.5c-.1.9-.1,1.4-.1,1.4s0-.5-.1-1.4a8.48,8.48,0,0,1,0-1.6,15,15,0,0,1,.2-2c.1-.7.3-1.5.4-2.4s.5-1.7.7-2.6.7-1.8,1-2.7.9-1.8,1.3-2.7,1-1.7,1.5-2.5,1.1-1.6,1.6-2.4a19.15,19.15,0,0,1,1.6-2.1,14.54,14.54,0,0,1,1.6-1.8,28.83,28.83,0,0,1,2.5-2.5C55.44,48.67,55.84,48.37,55.84,48.37Z" style="fill:#231f20" />
        <path d="M63.94,29.27a7.31,7.31,0,0,0-1.3-.1,5.63,5.63,0,0,0-1.3,0h-1.5a7.57,7.57,0,0,0-1.5.1,5.28,5.28,0,0,0-1.3.1,4.46,4.46,0,0,1-1.3,0,11,11,0,0,1,1.2-.6,5,5,0,0,1,1.3-.4c.2,0,.5-.1.8-.1h.8a8.6,8.6,0,0,1,1.6.1,5,5,0,0,1,1.3.4c.4.2.7.3.9.4A.44.44,0,0,1,63.94,29.27Z" style="fill:#231f20" />
        <path d="M65.74,32.57a6.73,6.73,0,0,0-1,.1c-.3,0-.7.1-1.2.1A10.4,10.4,0,0,0,62,33c-1.1.2-2.4.4-3.7.7a15.19,15.19,0,0,0-2,.6,16.67,16.67,0,0,0-2,.8,11.4,11.4,0,0,0-1.9,1c-.6.4-1.2.7-1.7,1.1s-1.1.8-1.5,1.2l-.6.6-.6.6-.9,1.2a8.79,8.79,0,0,1-.6,1,9.24,9.24,0,0,1-.5.9s.1-.4.3-1a7.6,7.6,0,0,1,.4-1.1,9.13,9.13,0,0,1,.8-1.3c.3-.5.7-.9,1.1-1.5s1-.9,1.5-1.4c.3-.2.6-.5.9-.7l.9-.6a12.44,12.44,0,0,1,2-1,18,18,0,0,1,2.1-.8,16,16,0,0,1,2.1-.5,16.21,16.21,0,0,1,2-.3,11.48,11.48,0,0,1,1.8-.1,20.18,20.18,0,0,1,2.7.1A5,5,0,0,1,65.74,32.57Z" style="fill:#231f20" />
        <path d="M66.74,34.87s-.8.4-2,1.1a4.05,4.05,0,0,1-.9.5c-.3.2-.7.4-1,.6-.7.5-1.5.9-2.2,1.4-.4.2-.7.5-1.1.7a3.92,3.92,0,0,0-1,.8,6.07,6.07,0,0,1-1,.7,5.5,5.5,0,0,0-.9.7c-1,.8-1.8,1.4-1.8,1.4s.5-.7,1.4-1.8a3,3,0,0,1,.8-.8c.3-.3.6-.5.9-.8a3.92,3.92,0,0,1,1-.8,10.47,10.47,0,0,0,1.1-.8,7.46,7.46,0,0,1,1.2-.7l1.2-.6a11.73,11.73,0,0,0,1.1-.5,6.89,6.89,0,0,1,1-.4A7.92,7.92,0,0,1,66.74,34.87Z" style="fill:#231f20" />
        <path d="M68.14,38.87s-.8.5-1.9,1.3c-.6.4-1.2.8-1.9,1.3s-1.4,1-2.2,1.6a16.32,16.32,0,0,0-2,1.7l-.9.9c-.3.3-.5.6-.7.8a3.51,3.51,0,0,0-.5.8,2.09,2.09,0,0,0-.4.6l-.3.6a2.8,2.8,0,0,1,.1-.6,1.85,1.85,0,0,1,.2-.7,3.55,3.55,0,0,1,.4-.9c.2-.3.4-.7.6-1s.5-.7.8-1a9.43,9.43,0,0,1,1-1,10.63,10.63,0,0,1,1.1-.9,26.45,26.45,0,0,1,4.4-2.6A8,8,0,0,1,68.14,38.87Z" style="fill:#231f20" />
        <path d="M69.34,43.57s-.2.2-.6.7-.9,1-1.5,1.7c-1.2,1.4-2.9,3.4-4.4,5.4a14.31,14.31,0,0,0-1.1,1.5c-.3.5-.7,1-1,1.5s-.6,1-.9,1.4a14.8,14.8,0,0,1-.8,1.3,10.91,10.91,0,0,1-.6,1.1,6.31,6.31,0,0,0-.4.9,4.77,4.77,0,0,1-.4.8,6.59,6.59,0,0,0,.2-.9,17.63,17.63,0,0,1,.7-2.2c.2-.5.4-.9.6-1.4a10.93,10.93,0,0,1,.8-1.5,29.22,29.22,0,0,1,2.1-3.2c.8-1,1.6-2,2.4-2.9a17,17,0,0,1,2.4-2.3c.7-.6,1.4-1.1,1.8-1.5A7.23,7.23,0,0,0,69.34,43.57Z" style="fill:#231f20" />
    </g>
</svg>