<svg id="SleeveLF_1" data-name="Layer 1" xmlns="http://www.w3.org/2000/svg">
    <title>Sleeves</title>
    <g id="Layer_3" data-name="Layer 3">
        <path d="M38.81,19.92s12-8.7,26.5,13.2c0,0,7,16,7.3,25.3,0,0,13,27.1,12.8,55.8,0,0,15.4,36.1,8.1,49.4,0,0-9.9,14.8-9.6,20,0,0-8.1,7.1-16.8,8.6,0,0-12.5-6.2-23.8,2.5,0,0-17.4-7.1-18.1-8.9,0,0-.5-9.6-1.6-11.7,0,0-2-25.9,0-40.7,0,0,3.3-7.8,2.3-15C25.91,118.42,14.61,35.62,38.81,19.92Z" style="fill:#fff;stroke:#231f20;stroke-miterlimit:10" />
        <path d="M68.71,210.72c-13.3,6-29.5-3-29.5-3l12.5-6.5,18.7,2.4Z" style="fill:#ccc;stroke:#000;stroke-miterlimit:10" />
        <path d="M39,19.52s12-8.7,26.5,13.2c0,0,7,16,7.3,25.3,0,0,13.1,27.1,12.8,55.8,0,0,15.4,36.1,8.1,49.4,0,0-9.9,14.8-9.6,20,0,0-8.1,7.1-16.8,8.6,0,0-12.5-6.2-23.8,2.5,0,0-17.4-7.1-18.1-8.9,0,0-.5-9.6-1.6-11.7,0,0-2-25.9,0-40.7,0,0,3.3-7.8,2.3-15C26,117.92,14.81,35.12,39,19.52Z" style="fill:none;stroke:#231f20;stroke-miterlimit:10" />
        <path d="M68.61,191.22a26,26,0,0,0-3.4-1.8c-1.7-.7-3.4-1.2-3.4-1.2l-1.9,7.3a19.19,19.19,0,0,1,2.4.8,8.81,8.81,0,0,1,2,1.1Z" style="fill:none" />
        <path d="M62.31,192.62l.2-.7-.6-.2-.6-.2-.2.7a4.71,4.71,0,0,1,.5.2C62,192.52,62.31,192.62,62.31,192.62Z" style="fill:#231f20;fill-rule:evenodd" />
        <path d="M64.21,193.32l.3-.7a4.71,4.71,0,0,1-.5-.2,4.2,4.2,0,0,1-.5-.2l-.3.7a4.71,4.71,0,0,1,.5.2A4.71,4.71,0,0,0,64.21,193.32Z" style="fill:#231f20;fill-rule:evenodd" />
        <path d="M65.91,194.32l.4-.6s-.3-.2-.5-.3a1.41,1.41,0,0,1-.5-.3l-.3.7a1.46,1.46,0,0,1,.5.3A.7.7,0,0,1,65.91,194.32Z" style="fill:#231f20;fill-rule:evenodd" />
        <path d="M61.81,188.22l-1.1-.3a16.37,16.37,0,0,0-2.5-.4,23.55,23.55,0,0,0-2.5-.1,6.76,6.76,0,0,0-1.2.1l.6,7.5a3.2,3.2,0,0,0,.7-.1,10.28,10.28,0,0,1,1.7.1,8.58,8.58,0,0,1,1.7.3,7.35,7.35,0,0,1,.8.2Z" style="fill:none" />
        <path d="M56.41,191.52v-.8h-1.2v.8h1.2Z" style="fill:#231f20;fill-rule:evenodd" />
        <path d="M58.41,191.72l.1-.7a2.14,2.14,0,0,1-.6-.1h-.6l-.1.8h.6A1.06,1.06,0,0,1,58.41,191.72Z" style="fill:#231f20;fill-rule:evenodd" />
        <polygon points="60.31 192.02 60.51 191.32 59.41 191.02 59.21 191.82 60.31 192.02" style="fill:#231f20;fill-rule:evenodd" />
        <path d="M54.51,187.52h-.3a2.49,2.49,0,0,0-.8.1,13.77,13.77,0,0,0-2.5.5,22.35,22.35,0,0,0-2.4.8c-.6.3-1.1.5-1.1.5l3.1,6.9a6,6,0,0,0,.7-.3,15.6,15.6,0,0,1,1.6-.5,14.25,14.25,0,0,1,1.6-.3c.2-.1.4,0,.5-.1h.2Z" style="fill:none" />
        <path d="M50.41,192.52l-.3-.7a4.71,4.71,0,0,0-.5.2,4.2,4.2,0,0,0-.5.2l.3.7a4.71,4.71,0,0,0,.5-.2A1,1,0,0,1,50.41,192.52Z" style="fill:#231f20;fill-rule:evenodd" />
        <path d="M52.41,191.92l-.2-.7-1.1.3.2.7Z" style="fill:#231f20;fill-rule:evenodd" />
        <path d="M54.31,191.62l-.1-.7-1.2.2.1.7C53.21,191.82,54.31,191.62,54.31,191.62Z" style="fill:#231f20;fill-rule:evenodd" />
        <path d="M47.31,189.42s-.4.2-1.1.5a17.28,17.28,0,0,0-2.1,1.3c-.8.5-1.4,1.1-2,1.5s-.9.7-.9.7l5,5.7a4.43,4.43,0,0,0,.6-.5,17,17,0,0,1,1.4-1c.5-.3,1.1-.6,1.5-.9a6,6,0,0,1,.7-.3Z" style="fill:none" />
        <polygon points="45.21 195.42 44.71 194.82 43.81 195.52 44.31 196.12 45.21 195.42" style="fill:#231f20;fill-rule:evenodd" />
        <path d="M46.81,194.22l-.4-.6-1,.6.4.6Z" style="fill:#231f20;fill-rule:evenodd" />
        <path d="M48.61,193.32l-.3-.7a4.71,4.71,0,0,0-.5.2,1.41,1.41,0,0,0-.5.3l.4.7a5.2,5.2,0,0,0,.5-.3A1.42,1.42,0,0,1,48.61,193.32Z" style="fill:#231f20;fill-rule:evenodd" />
        <path d="M68.51,192.72a26,26,0,0,0-3.4-1.8c-1.7-.7-3.4-1.2-3.4-1.2l-1.9,7.3a19.19,19.19,0,0,1,2.4.8,8.81,8.81,0,0,1,2,1.1Z" style="fill:none" />
        <path d="M62.21,194.12l.2-.7-.6-.2-.6-.2-.2.7a4.71,4.71,0,0,1,.5.2C61.91,194,62.21,194.12,62.21,194.12Z" style="fill:#231f20;fill-rule:evenodd" />
        <path d="M64,194.92l.3-.7a4.71,4.71,0,0,1-.5-.2,4.2,4.2,0,0,1-.5-.2l-.3.7a4.71,4.71,0,0,1,.5.2A4.2,4.2,0,0,1,64,194.92Z" style="fill:#231f20;fill-rule:evenodd" />
        <path d="M65.81,195.82l.4-.6s-.3-.2-.5-.3a1.41,1.41,0,0,1-.5-.3l-.3.7a1.46,1.46,0,0,1,.5.3Z" style="fill:#231f20;fill-rule:evenodd" />
        <path d="M61.71,189.72l-1.1-.3a16.37,16.37,0,0,0-2.5-.4,23.55,23.55,0,0,0-2.5-.1,6.76,6.76,0,0,0-1.2.1l.6,7.5a3.2,3.2,0,0,0,.7-.1,10.28,10.28,0,0,1,1.7.1,8.58,8.58,0,0,1,1.7.3,7.35,7.35,0,0,1,.8.2Z" style="fill:none" />
        <path d="M56.21,193v-.8H55v.8h1.2Z" style="fill:#231f20;fill-rule:evenodd" />
        <path d="M58.21,193.22l.1-.7a2.14,2.14,0,0,1-.6-.1h-.6l-.1.8h1.2Z" style="fill:#231f20;fill-rule:evenodd" />
        <polygon points="60.21 193.62 60.41 192.82 59.21 192.62 59.11 193.32 60.21 193.62" style="fill:#231f20;fill-rule:evenodd" />
        <path d="M54.41,189.12h-.3a2.49,2.49,0,0,0-.8.1,13.77,13.77,0,0,0-2.5.5,22.35,22.35,0,0,0-2.4.8c-.6.3-1.1.5-1.1.5l3.1,6.9a6,6,0,0,0,.7-.3,15.6,15.6,0,0,1,1.6-.5,14.25,14.25,0,0,1,1.6-.3c.2-.1.4,0,.5,0H55Z" style="fill:none" />
        <path d="M50.31,194l-.3-.7a4.71,4.71,0,0,0-.5.2,4.2,4.2,0,0,0-.5.2l.3.7a4.71,4.71,0,0,0,.5-.2A4.71,4.71,0,0,1,50.31,194Z" style="fill:#231f20;fill-rule:evenodd" />
        <path d="M52.21,193.42l-.2-.7-1.1.3.2.7C51.21,193.72,52.21,193.42,52.21,193.42Z" style="fill:#231f20;fill-rule:evenodd" />
        <path d="M54.21,193.12l-.1-.8-1.2.2.1.7A4.48,4.48,0,0,0,54.21,193.12Z" style="fill:#231f20;fill-rule:evenodd" />
        <path d="M47.21,190.92s-.4.2-1.1.5a17.28,17.28,0,0,0-2.1,1.3c-.8.5-1.4,1.1-2,1.5s-.9.7-.9.7l5,5.7a4.43,4.43,0,0,0,.6-.5,17,17,0,0,1,1.4-1c.5-.3,1.1-.6,1.5-.9a6,6,0,0,1,.7-.3Z" style="fill:none" />
        <polygon points="45.01 196.92 44.61 196.32 43.71 197.02 44.11 197.62 45.01 196.92" style="fill:#231f20;fill-rule:evenodd" />
        <path d="M46.71,195.82l-.4-.6-1,.6.4.6A5.3,5.3,0,0,1,46.71,195.82Z" style="fill:#231f20;fill-rule:evenodd" />
        <path d="M48.41,194.82l-.3-.7a4.71,4.71,0,0,0-.5.2,1.41,1.41,0,0,0-.5.3l.4.7a5.2,5.2,0,0,0,.5-.3Z" style="fill:#231f20;fill-rule:evenodd" />
        <path d="M83.81,145.32s.1.8.2,2.2.2,3.5.2,5.9c0,1.2-.1,2.6-.1,4s-.2,2.9-.4,4.4-.5,3.1-.8,4.7a42.09,42.09,0,0,1-1.2,4.8,36.11,36.11,0,0,1-1.7,4.6c-.6,1.5-1.4,2.9-2.1,4.3-.4.7-.8,1.3-1.2,1.9a20.28,20.28,0,0,0-1.3,1.8,25.59,25.59,0,0,1-2.7,2.9,15.38,15.38,0,0,0-1.3,1.2,14.63,14.63,0,0,0-1.3.9,13.81,13.81,0,0,1-2.2,1.3c-1.3.6-2.1.9-2.1.9s.7-.4,2-1.1a17.22,17.22,0,0,0,2.1-1.5,10.59,10.59,0,0,0,1.2-1,15.38,15.38,0,0,1,1.3-1.2c.8-.9,1.7-1.9,2.5-3s1.6-2.4,2.4-3.7a40.93,40.93,0,0,0,2-4.2c.6-1.5,1.1-3,1.6-4.6a35.93,35.93,0,0,0,1.2-4.7c.3-1.6.6-3.1.8-4.6.4-3,.7-5.9.8-8.3s.2-4.5.2-5.9C83.81,146.12,83.81,145.32,83.81,145.32Z" style="fill:#231f20" />
        <path d="M73.41,162.52a7.31,7.31,0,0,1,.1,1.3c0,.8,0,2-.1,3.5a32,32,0,0,1-.8,4.8c-.2.9-.5,1.8-.7,2.7s-.6,1.8-1,2.7a20.62,20.62,0,0,1-1.2,2.6,18.84,18.84,0,0,1-1.4,2.4c-.2.4-.5.7-.7,1.1s-.5.7-.8,1a12.94,12.94,0,0,1-1.5,1.7l-1.4,1.4q-.75.6-1.2.9l-1.1.8.9-.9c.3-.3.7-.6,1.1-1s.8-.9,1.3-1.5.9-1.2,1.4-1.8c.2-.3.5-.7.7-1a6.73,6.73,0,0,1,.7-1.1,12.75,12.75,0,0,0,.7-1.2l.6-1.2a27.18,27.18,0,0,0,1.1-2.5c.4-.9.7-1.8,1-2.6a25.82,25.82,0,0,0,.8-2.6c.2-.9.5-1.7.6-2.5a20.69,20.69,0,0,0,.4-2.2c.2-1.4.4-2.6.5-3.4A5,5,0,0,1,73.41,162.52Z" style="fill:#231f20" />
        <path d="M51.61,153.62s.1.6.3,1.5.4,2.4.6,4,.5,3.6.7,5.7.5,4.3.7,6.6c.1,1.1.2,2.2.2,3.3s.1,2.2.2,3.2c.1,2.1.1,4.1.1,5.8s-.1,3.1-.2,4.1a8.92,8.92,0,0,0-.2,1.1.58.58,0,0,1-.1.4s0-.6.1-1.5V186c0-.7-.1-1.5-.1-2.3-.1-1.7-.3-3.6-.4-5.7s-.4-4.3-.5-6.6-.4-4.5-.5-6.6-.3-4.1-.4-5.7-.2-3.1-.3-4.1A7.21,7.21,0,0,1,51.61,153.62Z" style="fill:#231f20" />
        <path d="M37.11,151.42s.5,2.6,1.3,6.4c.4,1.9.9,4.1,1.4,6.5s1.1,4.9,1.7,7.4c.3,1.3.6,2.5,1,3.8s.6,2.5,1,3.6.7,2.3,1,3.3c.2.5.3,1,.5,1.5s.4,1,.6,1.4c.4.9.7,1.7,1,2.4a10,10,0,0,0,.9,1.8l.9,1.5-1.1-1.4a9.43,9.43,0,0,1-1.1-1.8,10.91,10.91,0,0,1-.6-1.1c-.2-.4-.4-.8-.6-1.3s-.4-.9-.6-1.4l-.6-1.5c-.4-1-.8-2.2-1.2-3.3s-.8-2.4-1.1-3.6-.7-2.5-1-3.8c-.6-2.5-1.2-5.1-1.6-7.5s-.8-4.7-1.1-6.6-.5-3.6-.6-4.7A12.58,12.58,0,0,0,37.11,151.42Z" style="fill:#231f20" />
        <path d="M29.61,171.32s.2.4.5,1.1.8,1.6,1.3,2.7,1.3,2.4,2.1,3.7,1.7,2.7,2.7,4.1c.5.7,1,1.3,1.5,2s1,1.2,1.5,1.9,1,1.1,1.5,1.7a19.2,19.2,0,0,1,1.4,1.5c.5.4.8.9,1.2,1.2s.7.7,1,.9l.8.8a5.86,5.86,0,0,1-1-.7c-.3-.2-.7-.5-1.1-.8s-.9-.7-1.4-1.1a9.6,9.6,0,0,1-1.5-1.4c-.5-.5-1.1-1-1.6-1.6s-1.1-1.2-1.6-1.8-1.1-1.3-1.6-2a49.41,49.41,0,0,1-2.7-4.2c-.4-.7-.7-1.4-1-2s-.6-1.3-.8-1.9a25.52,25.52,0,0,1-1-2.9A5.6,5.6,0,0,1,29.61,171.32Z" style="fill:#231f20" />
        <path d="M74.91,83.92s.2.4.5,1.2.7,1.8,1.1,3.1,1,2.8,1.5,4.4,1.1,3.3,1.7,5,1.1,3.5,1.6,5.1.9,3.1,1.3,4.4.7,2.4,1,3.1a4.65,4.65,0,0,0,.3.9.77.77,0,0,1,.1.3,1.24,1.24,0,0,1-.2-.3,2.93,2.93,0,0,1-.4-.8c-.3-.7-.8-1.7-1.3-3s-1.1-2.7-1.6-4.3-1.1-3.3-1.7-5-1.1-3.5-1.5-5.1-.9-3.2-1.2-4.5-.6-2.4-.8-3.2S74.91,83.92,74.91,83.92Z" style="fill:#231f20" />
        <path d="M71.61,104.92a7.65,7.65,0,0,1-.2,1.5,30.06,30.06,0,0,1-.8,3.9,37.89,37.89,0,0,1-1.8,5.4c-.4,1-.9,1.9-1.3,2.9a26.94,26.94,0,0,1-1.6,2.9,26.1,26.1,0,0,1-1.9,2.7c-.3.4-.7.9-1,1.3a12,12,0,0,1-1.1,1.2,11.41,11.41,0,0,1-1.1,1.1,11,11,0,0,0-1.1,1c-.7.6-1.4,1.2-2.1,1.7s-1.3.9-1.9,1.3-1.1.6-1.6.8a14.22,14.22,0,0,0-1.4.7l1.3-.8a9.88,9.88,0,0,1,1.5-.9c.5-.4,1.1-.9,1.7-1.4a16.24,16.24,0,0,0,2-1.8l1-1c.3-.4.7-.7,1-1.1s.7-.8,1-1.2a14.63,14.63,0,0,0,.9-1.3,25.34,25.34,0,0,0,1.8-2.7c.6-.9,1.1-1.9,1.6-2.8s1-1.9,1.4-2.8.8-1.8,1.1-2.7.6-1.7.9-2.5c.5-1.6.9-2.9,1.1-3.8A8.58,8.58,0,0,0,71.61,104.92Z" style="fill:#231f20" />
        <path d="M59.21,109.82a21.59,21.59,0,0,0-3.3,1.9,26.35,26.35,0,0,0-3.2,2.2,5.5,5.5,0,0,0-.9.7c-.3.2-.6.5-.9.7-.6.5-1.1,1-1.7,1.5-1.1,1-2.2,2.1-3.1,3.1a18.26,18.26,0,0,0-1.3,1.6c-.4.5-.8,1-1.1,1.4s-.7.8-.9,1.2-.5.7-.7,1a5.67,5.67,0,0,0-.6.9,6.91,6.91,0,0,0,.5-1,11.73,11.73,0,0,0,.5-1.1c.2-.4.5-.9.8-1.4s.6-1,1-1.6.8-1.1,1.3-1.7.9-1.1,1.5-1.7l1.6-1.6,1.8-1.5a20.28,20.28,0,0,1,1.8-1.3,17.39,17.39,0,0,1,1.8-1.1c.6-.3,1.1-.6,1.7-.9,1-.5,2-.8,2.6-1.1A7.35,7.35,0,0,0,59.21,109.82Z" style="fill:#231f20" />
        <path d="M67.41,44.42s.5.8,1.1,2a41.91,41.91,0,0,1,2,4.6,32.75,32.75,0,0,1,1.6,4.7c.4,1.3.6,2.2.6,2.2s-.5-.8-1.1-2a41.91,41.91,0,0,1-2-4.6,32.75,32.75,0,0,1-1.6-4.7C67.61,45.32,67.41,44.42,67.41,44.42Z" style="fill:#231f20" />
        <path d="M55,47.22l.6.9c.4.6.9,1.4,1.5,2.5s1.3,2.3,1.9,3.7,1.2,2.9,1.8,4.4c.3.8.5,1.6.7,2.3s.4,1.5.6,2.3.2,1.5.3,2.2.1,1.4.2,2v1.7c0,.5-.1.9-.1,1.3-.1.7-.2,1.1-.2,1.1v-2.4a10,10,0,0,0-.2-1.6c-.1-.6-.2-1.2-.3-1.9s-.3-1.4-.5-2.1-.4-1.5-.6-2.2-.5-1.5-.7-2.3c-.5-1.5-1.1-3-1.6-4.4s-1.1-2.7-1.6-3.8-.9-2-1.2-2.7A4.62,4.62,0,0,1,55,47.22Z" style="fill:#231f20" />
        <path d="M45.21,41.32a10.52,10.52,0,0,1,1,.9c.6.6,1.5,1.4,2.5,2.5.5.6,1,1.2,1.6,1.8s1.1,1.4,1.6,2.1a14.31,14.31,0,0,1,1.6,2.4c.5.8,1,1.7,1.5,2.5s.9,1.8,1.3,2.7a14.76,14.76,0,0,1,1,2.7,12.55,12.55,0,0,1,.7,2.6,10,10,0,0,1,.4,2.4c.1.7.1,1.4.2,2v1.6c-.1.9-.1,1.4-.1,1.4s0-.5-.1-1.4a8.64,8.64,0,0,0-.1-1.5c-.1-.6-.2-1.2-.4-2s-.4-1.5-.6-2.3-.6-1.6-.9-2.5-.7-1.7-1.1-2.6-.9-1.7-1.3-2.6-.9-1.7-1.5-2.5L51,49.12c-.5-.8-1-1.5-1.5-2.2s-1-1.3-1.4-1.9c-.9-1.2-1.7-2.1-2.2-2.8C45.51,41.72,45.21,41.32,45.21,41.32Z" style="fill:#231f20" />
        <path d="M37.11,22.22a1.24,1.24,0,0,1,.3-.2,3.92,3.92,0,0,1,.9-.4c.4-.1.8-.3,1.3-.4a8.08,8.08,0,0,1,1.6-.1H42c.3,0,.5.1.8.1a5,5,0,0,1,1.3.4,11,11,0,0,1,1.2.6H44c-.4,0-.8-.1-1.3-.1s-1-.1-1.5-.1h-1.5a5.63,5.63,0,0,1-1.3,0A5.94,5.94,0,0,1,37.11,22.22Z" style="fill:#231f20" />
        <path d="M35.31,25.62a4.54,4.54,0,0,1,1-.1c.7,0,1.6-.1,2.7-.1.6,0,1.2.1,1.8.1s1.3.2,2,.3a16,16,0,0,1,2.1.5,18,18,0,0,1,2.1.8c.7.3,1.4.7,2,1l.9.6a5.5,5.5,0,0,1,.9.7c.5.5,1.1.9,1.5,1.4a5.27,5.27,0,0,1,1.1,1.5,14.8,14.8,0,0,0,.8,1.3,7.6,7.6,0,0,1,.4,1.1c.2.6.3,1,.3,1a9.24,9.24,0,0,1-.5-.9c-.2-.3-.3-.6-.6-1a12.49,12.49,0,0,1-.9-1.2,3.39,3.39,0,0,0-.6-.6l-.6-.6a8.78,8.78,0,0,0-1.5-1.2c-.5-.4-1.2-.7-1.7-1.1a17.38,17.38,0,0,1-1.9-1c-.7-.2-1.3-.6-2-.8s-1.4-.4-2-.6a18.35,18.35,0,0,0-3.7-.7,7.72,7.72,0,0,0-1.5-.2,4.87,4.87,0,0,0-1.2-.1A5.1,5.1,0,0,0,35.31,25.62Z" style="fill:#231f20" />
        <path d="M34.31,27.92a9.83,9.83,0,0,1,2.2.6c.3.1.7.3,1,.4a11.73,11.73,0,0,1,1.1.5l1.2.6c.4.2.8.5,1.2.7a10.47,10.47,0,0,1,1.1.8,8.74,8.74,0,0,1,1,.8,6.47,6.47,0,0,0,.9.8l.8.8a14.49,14.49,0,0,1,1.4,1.8,14.49,14.49,0,0,1-1.8-1.4c-.3-.2-.5-.4-.9-.7s-.7-.5-1-.7a7,7,0,0,1-1-.8c-.4-.2-.7-.5-1.1-.7-.7-.5-1.5-.9-2.2-1.4a8.79,8.79,0,0,1-1-.6,4.05,4.05,0,0,0-.9-.5Z" style="fill:#231f20" />
        <path d="M33,31.82a12.11,12.11,0,0,1,2.2.8,17.37,17.37,0,0,1,4.4,2.6c.4.3.7.6,1.1.9a4.74,4.74,0,0,1,1,1,7,7,0,0,1,.8,1,5.3,5.3,0,0,1,.6,1,3.55,3.55,0,0,1,.4.9,2.54,2.54,0,0,1,.2.7,2.8,2.8,0,0,1,.1.6l-.3-.6a2.09,2.09,0,0,0-.4-.6,5.58,5.58,0,0,1-.5-.8,5,5,0,0,0-.7-.8,7.64,7.64,0,0,0-.9-.9,16.32,16.32,0,0,0-2-1.7c-.7-.6-1.5-1.1-2.2-1.6s-1.4-.9-1.9-1.3C33.71,32.32,33,31.82,33,31.82Z" style="fill:#231f20" />
        <path d="M31.71,36.62s.3.2.7.5a15.52,15.52,0,0,1,1.8,1.5c.7.6,1.5,1.4,2.4,2.3s1.6,1.9,2.4,2.9a22,22,0,0,1,2.1,3.2,8,8,0,0,1,.8,1.6,14.67,14.67,0,0,1,.6,1.4c.3.9.6,1.7.7,2.2s.2.9.2.9a4.56,4.56,0,0,0-.4-.8,3.55,3.55,0,0,0-.4-.9,10.91,10.91,0,0,1-.6-1.1,9.13,9.13,0,0,0-.8-1.3c-.3-.5-.6-.9-.9-1.4s-.7-1-1-1.5a14.31,14.31,0,0,0-1.1-1.5c-1.5-2-3.2-4-4.4-5.4-.6-.7-1.1-1.3-1.5-1.7A2.1,2.1,0,0,0,31.71,36.62Z" style="fill:#231f20" />
        <path d="M39.91,189.22v18.1s20.6-2.1,29.5,3l2.4-17.1A30.12,30.12,0,0,0,39.91,189.22Z" style="fill:#fff;stroke:#231f20;stroke-miterlimit:10" />
        <path d="M42,196.22a20,20,0,0,1,2.4-1.3,4.18,4.18,0,0,1,1-.4l.9-.3a3.93,3.93,0,0,1,.6-.2c.2,0,.2-.1.2-.1l-2.4-7.2a4.88,4.88,0,0,0-1.1.4,8.34,8.34,0,0,1-1.2.4c-.4.2-.9.4-1.3.6a30.84,30.84,0,0,0-3.6,2Z" style="fill:none" />
        <polygon points="44.31 190.62 44.51 191.32 45.71 190.82 45.51 190.12 44.31 190.62" style="fill:#231f20;fill-rule:evenodd" />
        <path d="M42.21,191.52l.3.7a2.83,2.83,0,0,0,.6-.3,3,3,0,0,0,.6-.3l-.3-.7a2.83,2.83,0,0,0-.6.3A2.83,2.83,0,0,1,42.21,191.52Z" style="fill:#231f20;fill-rule:evenodd" />
        <path d="M40.21,192.62l.4.6s.3-.2.5-.3a5.2,5.2,0,0,1,.5-.3l-.4-.7a3,3,0,0,1-.6.3Z" style="fill:#231f20;fill-rule:evenodd" />
        <path d="M47.21,193.82a7.78,7.78,0,0,0,.9-.3c.5-.2,1.3-.3,2-.5a16.21,16.21,0,0,1,2-.3c.3,0,.5-.1.7-.1H53l-.5-7.5h-.3a3.44,3.44,0,0,0-.9.1c-.7.1-1.7.2-2.6.4s-1.9.4-2.6.6-1.2.3-1.2.3Z" style="fill:none" />
        <path d="M50.91,188.82l.1.7a2.14,2.14,0,0,0,.6-.1,2.18,2.18,0,0,0,.6-.1l-.1-.8a2.14,2.14,0,0,0-.6.1A1.19,1.19,0,0,1,50.91,188.82Z" style="fill:#231f20;fill-rule:evenodd" />
        <path d="M48.71,189.22l.2.7,1.2-.3-.1-.7C49.91,188.92,48.71,189.22,48.71,189.22Z" style="fill:#231f20;fill-rule:evenodd" />
        <path d="M46.41,189.82l.2.7.6-.2.6-.2-.2-.7-.6.2A3.93,3.93,0,0,1,46.41,189.82Z" style="fill:#231f20;fill-rule:evenodd" />
        <path d="M52.91,192.72h.9a7,7,0,0,1,2,.1,4.1,4.1,0,0,1,1.1.1c.3.1.6.1.9.2.5.1.9.2.9.2l1.6-7.4s-.5-.1-1.2-.2c-.4-.1-.8-.1-1.2-.2a7.08,7.08,0,0,0-1.4-.1c-1-.1-2-.1-2.7-.1h-1.2Z" style="fill:none" />
        <polygon points="57.81 188.92 57.71 189.62 58.91 189.82 59.01 189.12 57.81 188.92" style="fill:#231f20;fill-rule:evenodd" />
        <polygon points="55.51 188.62 55.51 189.42 56.71 189.52 56.81 188.72 55.51 188.62" style="fill:#231f20;fill-rule:evenodd" />
        <polygon points="53.21 188.62 53.21 189.42 54.51 189.32 54.51 188.62 53.21 188.62" style="fill:#231f20;fill-rule:evenodd" />
        <path d="M58.71,193.12a25.13,25.13,0,0,1,2.8.8,17.53,17.53,0,0,1,2.6,1.2l3.6-6.6a1.24,1.24,0,0,0-.3-.2,5.9,5.9,0,0,1-.8-.4l-2.5-1.1c-.9-.3-1.9-.6-2.6-.8s-1.2-.3-1.2-.3Z" style="fill:none" />
        <polygon points="64.41 190.82 64.11 191.52 65.21 192.02 65.51 191.32 64.41 190.82" style="fill:#231f20;fill-rule:evenodd" />
        <path d="M62.21,189.92l-.2.7.6.2a3,3,0,0,1,.6.3l.3-.7a2.83,2.83,0,0,1-.6-.3C62.61,190,62.21,189.92,62.21,189.92Z" style="fill:#231f20;fill-rule:evenodd" />
        <polygon points="60.11 189.32 59.91 190.02 61.11 190.42 61.31 189.72 60.11 189.32" style="fill:#231f20;fill-rule:evenodd" />
        <path d="M64.11,195.12s.3.2.8.5a12,12,0,0,1,1.7,1.1l2.4,1.8,5-5.7s-1.5-1.2-3-2.3c-.8-.6-1.6-1-2.2-1.4a10.39,10.39,0,0,0-1-.6Z" style="fill:none" />
        <polygon points="70.21 194.42 69.71 195.02 70.71 195.82 71.21 195.22 70.21 194.42" style="fill:#231f20;fill-rule:evenodd" />
        <path d="M68.41,193l-.4.6,1,.7.4-.6C69.41,193.82,68.41,193,68.41,193Z" style="fill:#231f20;fill-rule:evenodd" />
        <polygon points="66.41 191.82 66.11 192.52 67.11 193.12 67.51 192.52 66.41 191.82" style="fill:#231f20;fill-rule:evenodd" />
        <path d="M42.21,198.32a20,20,0,0,1,2.4-1.3,4.18,4.18,0,0,1,1-.4l.9-.3a3.93,3.93,0,0,1,.6-.2c.2,0,.2-.1.2-.1l-2.4-7.2a4.88,4.88,0,0,0-1.1.4,8.34,8.34,0,0,1-1.2.4c-.4.2-.9.4-1.3.6a30.84,30.84,0,0,0-3.6,2Z" style="fill:none" />
        <polygon points="44.51 192.72 44.71 193.42 45.91 193.02 45.61 192.32 44.51 192.72" style="fill:#231f20;fill-rule:evenodd" />
        <path d="M42.41,193.62l.3.7a2.83,2.83,0,0,0,.6-.3,3,3,0,0,0,.6-.3l-.3-.7a2.83,2.83,0,0,0-.6.3Z" style="fill:#231f20;fill-rule:evenodd" />
        <path d="M40.41,194.72l.4.6s.3-.2.5-.3a5.2,5.2,0,0,1,.5-.3l-.4-.7a3,3,0,0,1-.6.3A1.2,1.2,0,0,1,40.41,194.72Z" style="fill:#231f20;fill-rule:evenodd" />
        <path d="M47.41,195.92a7.78,7.78,0,0,0,.9-.3c.5-.2,1.3-.3,2-.5a16.21,16.21,0,0,1,2-.3c.3,0,.5-.1.7-.1h.2l-.5-7.5h-.3a3.44,3.44,0,0,0-.9.1c-.7.1-1.7.2-2.6.4s-1.9.4-2.6.6-1.2.3-1.2.3Z" style="fill:none" />
        <path d="M51.11,191l.1.7a2.14,2.14,0,0,0,.6-.1,2.18,2.18,0,0,0,.6-.1l-.1-.8a2.14,2.14,0,0,0-.6.1Z" style="fill:#231f20;fill-rule:evenodd" />
        <path d="M48.81,191.42l.2.7,1.2-.3-.1-.7Z" style="fill:#231f20;fill-rule:evenodd" />
        <path d="M46.61,192l.2.7.6-.2.6-.2-.2-.7-.6.2Z" style="fill:#231f20;fill-rule:evenodd" />
        <path d="M53.11,194.82H54a7,7,0,0,1,2,.1,4.1,4.1,0,0,1,1.1.1c.3.1.6.1.9.2.5.1.9.2.9.2l1.6-7.4s-.5-.1-1.2-.2c-.4-.1-.8-.1-1.2-.2a7.08,7.08,0,0,0-1.4-.1c-1-.1-2-.1-2.7-.1h-1.2Z" style="fill:none" />
        <polygon points="58.01 191.02 57.91 191.72 59.11 192.02 59.21 191.22 58.01 191.02" style="fill:#231f20;fill-rule:evenodd" />
        <polygon points="55.71 190.82 55.61 191.52 56.91 191.62 57.01 190.92 55.71 190.82" style="fill:#231f20;fill-rule:evenodd" />
        <polygon points="53.41 190.82 53.41 191.52 54.71 191.52 54.71 190.72 53.41 190.82" style="fill:#231f20;fill-rule:evenodd" />
        <path d="M58.91,195.32a25.13,25.13,0,0,1,2.8.8c1.3.6,2.7,1.2,2.6,1.2l3.6-6.6a1.24,1.24,0,0,0-.3-.2,5.9,5.9,0,0,1-.8-.4l-2.5-1.1c-.9-.3-1.9-.6-2.6-.8s-1.2-.3-1.2-.3Z" style="fill:none" />
        <polygon points="64.51 192.92 64.21 193.62 65.41 194.12 65.71 193.52 64.51 192.92" style="fill:#231f20;fill-rule:evenodd" />
        <path d="M62.41,192.12l-.2.7.6.2a3,3,0,0,1,.6.3l.3-.7a2.83,2.83,0,0,1-.6-.3C62.71,192.22,62.41,192.12,62.41,192.12Z" style="fill:#231f20;fill-rule:evenodd" />
        <polygon points="60.21 191.42 60.11 192.12 61.21 192.52 61.51 191.82 60.21 191.42" style="fill:#231f20;fill-rule:evenodd" />
        <path d="M64.31,197.32s.3.2.8.5a12,12,0,0,1,1.7,1.1l2.4,1.8,5-5.7s-1.5-1.2-3-2.3c-.8-.6-1.6-1-2.2-1.4a10.39,10.39,0,0,0-1-.6Z" style="fill:none" />
        <polygon points="70.41 196.52 69.91 197.12 70.91 197.92 71.41 197.32 70.41 196.52" style="fill:#231f20;fill-rule:evenodd" />
        <path d="M68.61,195.22l-.4.6,1,.7.4-.6S68.61,195.12,68.61,195.22Z" style="fill:#231f20;fill-rule:evenodd" />
        <polygon points="66.61 194.02 66.21 194.62 67.31 195.32 67.71 194.62 66.61 194.02" style="fill:#231f20;fill-rule:evenodd" />
        <g style="opacity:0.5">
            <path d="M57.31,187a6.07,6.07,0,0,1-1,.7c-.3.2-.7.5-1,.7-.7.4-1.4.8-2,1.2-1.4.7-2.8,1.4-4.1,2l-2.1.9c-.7.3-1.4.5-2.1.8a17.23,17.23,0,0,1-2.1.7c-.7.2-1.4.5-2.1.7l4.7-5.5c.1.8.2,1.5.3,2.3l.2,2.3a17.7,17.7,0,0,1,.1,2.3c0,.8.1,1.5.1,2.3V203a17.7,17.7,0,0,1-.1,2.3l-.1,2.3-7.3-6c.6-.1,1.1-.1,1.6-.2l1.5-.1c1-.1,2,0,3.1,0s2,.1,3.1.2,2,.2,3.1.4,2.1.4,3.1.7c.5.2,1,.3,1.5.5l1.5.6a10.09,10.09,0,0,1,1.5.7c.5.3,1,.5,1.4.8a14.63,14.63,0,0,1,1.3.9c.4.4.8.7,1.2,1.1l-.3.7-1.3-.4c-.4-.1-.9-.2-1.4-.3s-.9-.1-1.4-.2a6.6,6.6,0,0,0-1.4-.1c-.5,0-.9-.1-1.4-.1H54a26.2,26.2,0,0,0-2.8.1c-1.9.1-3.8.3-5.6.5a54.34,54.34,0,0,0-5.6.9l-.8.2v-.8c0-3-.1-6,0-9l.1-9v-.5l.5-.1,8.7-1.2,4.4-.6,4.4-.5Z" style="fill:#e6e6e6" />
        </g>
    </g>
</svg>