<?xml version="1.0" encoding="utf-8"?>
<!-- Generator: Adobe Illustrator 24.0.0, SVG Export Plug-In . SVG Version: 6.00 Build 0)  -->
<svg version="1.1" id="SleeverRF" xmlns="http://www.w3.org/2000/svg" xmlns:xlink="http://www.w3.org/1999/xlink" x="0px" y="0px"
	 viewBox="0 0 270.9 311" style="enable-background:new 0 0 270.9 311;" xml:space="preserve">
<style type="text/css">
	.st0{fill:#B3B3B3;stroke:#231F20;stroke-miterlimit:10;}
	.st1{fill:none;}
	.st2{fill-rule:evenodd;clip-rule:evenodd;fill:#231F20;}
	.st3{fill:#FFFFFF;stroke:#231F20;stroke-miterlimit:10;}
	.st4{fill:#231F20;}
</style>
<title>Veste</title>
<path class="st0" d="M243.3,285.2c0,0-11.3,10.6-39.4,5.2C203.9,290.4,224.6,280,243.3,285.2z"/>
<path class="st1" d="M238.7,281.6c-1,0.4-2,0.8-3,1.1c-1.6,0.5-3.1,1-3.1,1l2.1,7.2c0,0,1.8-0.5,3.5-1.1s3.5-1.3,3.6-1.4
	L238.7,281.6z"/>
<polygon class="st2" points="235.5,287.1 235.3,286.4 234,286.8 234.3,287.5 "/>
<polygon class="st2" points="237.7,286.4 237.5,285.6 236.2,286.1 236.5,286.8 "/>
<polygon class="st2" points="239.9,285.5 239.6,284.8 238.4,285.3 238.7,286 "/>
<path class="st1" d="M232.6,283.8c0,0-1.6,0.5-3.2,0.9c-1.6,0.4-3.2,0.7-3.2,0.7l1.4,7.4l3.6-0.8c1.2-0.3,2.4-0.6,3.5-1L232.6,283.8
	z"/>
<polygon class="st2" points="228.7,288.9 228.6,288.2 227.3,288.5 227.5,289.2 "/>
<polygon class="st2" points="231,288.4 230.8,287.7 229.6,288 229.7,288.7 "/>
<polygon class="st2" points="233.3,287.8 233.1,287.1 231.8,287.4 232,288.1 "/>
<path class="st1" d="M226.2,285.4c0,0-0.4,0.1-1,0.2c-0.6,0.1-1.4,0.3-2.2,0.4l-3.3,0.4l0.6,7.5c0,0,1.9-0.1,3.7-0.4
	c0.9-0.1,1.8-0.3,2.5-0.4c0.7-0.1,1.1-0.2,1.1-0.2L226.2,285.4z"/>
<path class="st2" d="M221.8,290.1l-0.1-0.7c-0.2,0-0.4,0-0.6,0.1c-0.2,0-0.4,0-0.6,0.1l0.1,0.7c0.2,0,0.4,0,0.6-0.1
	S221.6,290.1,221.8,290.1z"/>
<polygon class="st2" points="224.1,289.8 224,289 222.8,289.2 222.8,290 "/>
<polygon class="st2" points="226.4,289.4 226.3,288.7 225,288.9 225.2,289.6 "/>
<path class="st1" d="M219.7,286.3c-0.3,0-0.7,0-1,0.1c-0.6,0-1.4,0.1-2.2,0.1c-0.7,0.1-1.5,0.1-2.2,0h-1L213,294h1.2
	c0.9,0.1,1.7,0.1,2.6,0c0.9,0,1.9-0.1,2.6-0.1c0.4-0.1,0.8-0.1,1.2-0.1L219.7,286.3z"/>
<polygon class="st2" points="214.8,290.5 214.8,289.7 213.5,289.7 213.5,290.4 "/>
<polygon class="st2" points="217.2,290.4 217.1,289.7 215.8,289.7 215.9,290.5 "/>
<path class="st2" d="M219.5,290.3l-0.1-0.7c-0.2,0-0.4,0-0.6,0.1h-0.6v0.7h0.6C219,290.3,219.2,290.3,219.5,290.3z"/>
<path class="st1" d="M213.2,286.4c-0.3,0-0.7,0-1-0.1c-0.7,0-1.5-0.1-2.2-0.2c-1.6-0.2-3.2-0.5-3.2-0.5l-1.4,7.4l3.7,0.6
	c0.9,0.1,1.9,0.2,2.6,0.2c0.4,0.1,0.8,0.1,1.2,0.1L213.2,286.4z"/>
<polygon class="st2" points="207.8,289.9 207.9,289.2 206.7,289 206.5,289.7 "/>
<path class="st2" d="M210.1,290.2l0.1-0.7c-0.2,0-0.4,0-0.6-0.1c-0.2,0-0.4,0-0.6-0.1l-0.1,0.7c0.2,0.1,0.4,0.1,0.6,0.1
	S209.9,290.2,210.1,290.2z"/>
<polygon class="st2" points="212.5,290.4 212.5,289.7 211.2,289.6 211.2,290.3 "/>
<path class="st3" d="M227.1,67.6c0,0,25.3,55.2,16.3,201.6c0,0-17-7.2-41.8,5.4l-6-42.9l10.9-134.2C206.4,97.5,219,70,227.1,67.6z"
	/>
<path class="st3" d="M243.3,285.2l0.1-16c-14.1-3.8-29.1-1.8-41.8,5.4l2.3,15.8C203.9,290.4,220.1,281.1,243.3,285.2z"/>
<path class="st1" d="M244.4,267.2c-0.1,0-2-0.6-3.9-0.9c-0.9-0.2-1.9-0.3-2.6-0.4c-0.4-0.1-0.8-0.1-1.2-0.1l-0.9,7.4
	c0.3,0.1,0.7,0.1,1,0.1c0.6,0.1,1.5,0.2,2.3,0.4c1.6,0.3,3.2,0.7,3.1,0.7L244.4,267.2z"/>
<path class="st2" d="M238.1,270l0.1-0.7c-0.2-0.1-0.5-0.1-0.7-0.1s-0.5,0-0.7-0.1l-0.1,0.7c0.2,0,0.5,0,0.7,0.1
	C237.6,269.9,237.9,269.9,238.1,270z"/>
<path class="st2" d="M240.5,270.4l0.1-0.7c-0.2-0.1-0.5-0.1-0.7-0.1c-0.2-0.1-0.5-0.1-0.7-0.1l-0.1,0.7c0.2,0,0.5,0,0.7,0.1
	C240,270.3,240.2,270.3,240.5,270.4z"/>
<path class="st2" d="M242.8,270.9l0.2-0.7c0,0-0.3-0.1-0.7-0.2c-0.2-0.1-0.5-0.1-0.7-0.1l-0.2,0.7c0.2,0.1,0.4,0.1,0.6,0.1
	C242.2,270.8,242.5,270.8,242.8,270.9z"/>
<path class="st1" d="M236.8,265.7c-0.4-0.1-0.8-0.1-1.2-0.1c-0.7-0.1-1.7-0.1-2.6-0.2c-0.9-0.1-1.9-0.1-2.6-0.1h-1.2v7.5h1.1
	c0.6,0,1.5,0.1,2.3,0.1c0.8,0,1.7,0.1,2.3,0.2c0.3,0.1,0.7,0.1,1,0.1L236.8,265.7z"/>
<path class="st2" d="M231,269.3v-0.8h-1.4v0.8H231z"/>
<path class="st2" d="M233.4,269.4l0.1-0.7c-0.2,0-0.5,0-0.7-0.1h-0.7v0.7h0.7C233,269.3,233.2,269.4,233.4,269.4z"/>
<path class="st2" d="M235.8,269.7l0.1-0.7c-0.2-0.1-0.5-0.1-0.7-0.1s-0.5,0-0.7-0.1l-0.1,0.7c0.2,0,0.5,0,0.7,0.1
	C235.3,269.6,235.5,269.6,235.8,269.7z"/>
<path class="st1" d="M229.2,265.3H228c-0.9,0-1.7,0-2.6,0.1c-1,0.1-1.9,0.1-2.6,0.2c-0.4,0.1-0.8,0.1-1.2,0.1l0.9,7.4
	c0.3-0.1,0.7-0.1,1-0.1c0.6-0.1,1.5-0.1,2.3-0.2c0.8-0.1,1.5-0.1,2.3-0.1h1.1V265.3z"/>
<path class="st2" d="M223.9,269.5l-0.1-0.7c-0.2,0-0.5,0-0.7,0.1c-0.2,0-0.5,0-0.7,0.1l0.1,0.7c0.2,0,0.5,0,0.7-0.1
	S223.6,269.5,223.9,269.5z"/>
<polygon class="st2" points="226.3,269.4 226.2,268.6 224.9,268.7 224.9,269.4 "/>
<polygon class="st2" points="228.6,269.3 228.6,268.5 227.3,268.6 227.3,269.3 "/>
<path class="st1" d="M221.5,265.7c0,0-0.5,0.1-1.2,0.2c-0.7,0.1-1.7,0.3-2.6,0.4c-1.3,0.2-2.6,0.5-3.8,0.9l1.9,7.2
	c1-0.3,2.1-0.5,3.2-0.7c0.8-0.2,1.5-0.3,2.3-0.4c0.3-0.1,0.7-0.1,1-0.1L221.5,265.7z"/>
<path class="st2" d="M216.8,270.6l-0.2-0.7l-1.3,0.3l0.2,0.7L216.8,270.6z"/>
<polygon class="st2" points="219.2,270.2 219,269.4 217.7,269.7 217.9,270.4 "/>
<polygon class="st2" points="221.5,269.8 221.4,269.1 220.1,269.2 220.2,270 "/>
<path class="st1" d="M214,267.2c0,0-0.5,0.1-1.2,0.3c-0.3,0.1-0.8,0.2-1.2,0.3c-0.4,0.1-0.9,0.3-1.3,0.5c-0.9,0.3-1.8,0.7-2.5,0.9
	c-0.7,0.2-1.1,0.5-1.1,0.5l3,6.9c0,0,0.4-0.2,0.9-0.4c0.5-0.2,1.4-0.5,2.1-0.8c0.4-0.1,0.8-0.3,1.1-0.4c0.3-0.1,0.7-0.2,1-0.3
	c0.6-0.2,1-0.3,1-0.3L214,267.2z"/>
<path class="st2" d="M210,272.7l-0.3-0.7l-0.6,0.2c-0.2,0.1-0.4,0.2-0.6,0.3l0.3,0.7c0.2-0.1,0.4-0.2,0.6-0.3L210,272.7z"/>
<polygon class="st2" points="212.2,271.9 212,271.2 210.7,271.6 211,272.4 "/>
<polygon class="st2" points="214.5,271.2 214.3,270.5 213,270.9 213.2,271.6 "/>
<path class="st1" d="M206.7,269.7c0,0-0.4,0.2-1.1,0.5c-0.8,0.4-1.6,0.8-2.4,1.2c-1.7,1-3.4,1.9-3.4,1.9l4,6.3c0,0,1.4-0.8,2.9-1.6
	c0.7-0.4,1.5-0.7,2-1c0.3-0.2,0.6-0.3,0.9-0.4L206.7,269.7z"/>
<polygon class="st2" points="205.7,274.6 205.3,274 204.1,274.6 204.5,275.3 "/>
<polygon class="st2" points="207.8,273.6 207.5,273 206.3,273.5 206.6,274.2 "/>
<path class="st1" d="M244.4,279.3c-1.3-0.3-2.6-0.6-3.9-0.7c-1.8-0.3-3.6-0.4-3.6-0.4l-0.5,7.5c0,0,1.6,0.1,3.1,0.3
	c1.5,0.2,3,0.6,2.8,0.5L244.4,279.3z"/>
<polygon class="st2" points="238.4,282.4 238.4,281.6 237.2,281.5 237.1,282.3 "/>
<polygon class="st2" points="240.6,282.6 240.7,281.9 239.4,281.7 239.3,282.5 "/>
<path class="st2" d="M242.8,283.1l0.2-0.7c-0.2-0.1-0.4-0.1-0.6-0.1c-0.2-0.1-0.4-0.1-0.6-0.1l-0.1,0.7c0.2,0.1,0.4,0.1,0.6,0.1
	C242.4,283,242.6,283,242.8,283.1z"/>
<path class="st1" d="M236.9,278.2c0,0-1.8-0.1-3.6-0.1c-0.8,0-1.7,0-2.5,0.1h-1.1l0.4,7.5h1c0.7-0.1,1.5-0.1,2.2,0
	c1.6,0,3.2,0.1,3.2,0.1L236.9,278.2z"/>
<polygon class="st2" points="231.6,282.2 231.6,281.4 230.3,281.5 230.4,282.2 "/>
<polygon class="st2" points="233.9,282.1 233.9,281.4 232.6,281.4 232.6,282.1 "/>
<polygon class="st2" points="236.1,282.2 236.1,281.5 234.9,281.4 234.9,282.1 "/>
<path class="st1" d="M229.7,278.2c0,0-1.8,0.1-3.6,0.3c-0.9,0.1-1.8,0.2-2.4,0.3s-1.1,0.2-1.1,0.2l1.2,7.4c0.3-0.1,0.7-0.1,1-0.1
	c0.6-0.1,1.4-0.2,2.2-0.3c1.6-0.1,3.2-0.3,3.2-0.3L229.7,278.2z"/>
<polygon class="st2" points="224.9,282.7 224.8,282 223.5,282.1 223.7,282.9 "/>
<path class="st2" d="M227.1,282.4l-0.1-0.7c-0.2,0-0.4,0-0.6,0.1c-0.2,0-0.4,0-0.6,0.1l0.1,0.7c0.2,0,0.4,0,0.6-0.1
	C226.7,282.5,226.9,282.4,227.1,282.4z"/>
<polygon class="st2" points="229.4,282.3 229.3,281.5 228.1,281.6 228.1,282.4 "/>
<path class="st1" d="M222.5,279l-3.5,0.6c-1.7,0.4-3.5,0.8-3.5,0.8l1.8,7.3c0,0,1.6-0.4,3.1-0.7l3.2-0.6L222.5,279z"/>
<polygon class="st2" points="218.3,283.9 218.1,283.2 216.9,283.4 217,284.2 "/>
<path class="st2" d="M220.5,283.4l-0.1-0.7c-0.2,0-0.4,0-0.6,0.1s-0.4,0.1-0.6,0.1l0.2,0.7c0.2-0.1,0.4-0.1,0.6-0.1
	C220.1,283.4,220.3,283.4,220.5,283.4z"/>
<polygon class="st2" points="222.7,283 222.5,282.3 221.3,282.5 221.4,283.2 "/>
<path class="st1" d="M215.6,280.4l-1.1,0.3c-0.6,0.2-1.5,0.4-2.3,0.6c-0.8,0.2-1.5,0.4-2.3,0.7c-0.6,0.2-1,0.3-1,0.3l2.4,7.1
	c0,0,0.4-0.1,1-0.3c0.6-0.2,1.3-0.5,2.1-0.7c0.7-0.2,1.4-0.4,2.1-0.6c0.6-0.2,1-0.3,1-0.3L215.6,280.4z"/>
<polygon class="st2" points="211.7,285.6 211.5,284.9 210.3,285.3 210.5,286 "/>
<polygon class="st2" points="213.9,285 213.7,284.3 212.5,284.6 212.7,285.3 "/>
<polygon class="st2" points="216,284.4 215.9,283.7 214.6,284 214.8,284.7 "/>
<path class="st1" d="M208.8,282.4c0,0-0.4,0.1-1,0.3c-0.6,0.2-1.5,0.5-2.3,0.8c-1.6,0.6-3.3,1.3-3.3,1.3l2.9,6.9l3-1.2
	c0.8-0.3,1.5-0.6,2.1-0.8c0.6-0.2,1-0.3,1-0.3L208.8,282.4z"/>
<polygon class="st2" points="205.4,287.9 205.1,287.2 203.9,287.6 204.2,288.3 "/>
<polygon class="st2" points="207.5,287.1 207.2,286.4 206,286.8 206.3,287.5 "/>
<polygon class="st2" points="209.6,286.3 209.3,285.6 208.1,286 208.4,286.7 "/>
<path class="st4" d="M229.4,130.6c0,0-0.4,2.8-1.4,7c-0.5,2.1-1.2,4.5-2,7.1c-0.8,2.7-1.8,5.3-2.9,7.9c-0.6,1.3-1.1,2.6-1.8,3.9
	c-0.7,1.3-1.2,2.5-1.9,3.7s-1.3,2.3-2,3.4c-0.7,1.1-1.3,2-1.9,2.9c-0.6,0.9-1.3,1.6-1.8,2.3c-0.5,0.7-1.1,1.2-1.5,1.7
	c-0.8,0.9-1.3,1.5-1.3,1.5s0.4-0.6,1.2-1.6c0.4-0.5,0.9-1.1,1.4-1.8c0.5-0.7,1-1.5,1.7-2.4c0.7-0.9,1.2-1.9,1.8-2.9
	c0.6-1,1.2-2.2,1.9-3.4c0.7-1.2,1.2-2.4,1.8-3.7c0.6-1.3,1.1-2.6,1.7-3.9c1.1-2.6,2.1-5.3,3-7.8c0.4-1.3,0.8-2.5,1.2-3.7
	c0.4-1.2,0.7-2.3,1-3.3c0.6-2.1,1.1-3.8,1.4-5C229.1,131.8,229.2,131.2,229.4,130.6z"/>
<path class="st4" d="M237.1,171.1c0.2,0.4,0.3,0.9,0.4,1.3c0.2,0.9,0.5,2.1,0.8,3.6s0.4,3.3,0.5,5.2c0,2-0.1,4-0.4,6
	c-0.2,1-0.4,2-0.7,3s-0.7,1.9-1.1,2.8c-0.2,0.5-0.4,0.9-0.7,1.3c-0.2,0.4-0.4,0.7-0.7,1.1c-0.2,0.4-0.5,0.7-0.8,1
	c-0.3,0.3-0.5,0.6-0.8,0.9c-0.5,0.5-1,1-1.5,1.4c-0.4,0.3-0.8,0.6-1.3,0.9c-0.4,0.2-0.8,0.4-1.2,0.7l1.1-0.8c0.3-0.3,0.8-0.6,1.2-1
	c0.4-0.4,0.9-0.9,1.4-1.5c0.3-0.3,0.5-0.6,0.7-0.9c0.2-0.3,0.5-0.7,0.7-1c0.2-0.3,0.5-0.7,0.7-1.1l0.6-1.2c0.4-0.9,0.7-1.8,1-2.7
	c0.3-1,0.5-1.9,0.7-2.9c0.4-1.9,0.5-3.9,0.5-5.9c0-1.9-0.1-3.6-0.2-5.2C237.5,173.1,237.1,171.1,237.1,171.1z"/>
<path class="st4" d="M243.3,209.8c0,0-0.3,1.6-0.9,3.9c-0.2,0.6-0.3,1.2-0.5,1.9l-0.6,2.1c-0.5,1.4-1,3-1.5,4.5
	c-0.3,0.8-0.5,1.5-0.8,2.3c-0.2,0.8-0.5,1.5-0.9,2.2c-0.6,1.4-1.2,2.7-1.6,3.8c-1,2.2-1.7,3.7-1.7,3.7s0.5-1.6,1.3-3.8
	c0.4-1.1,0.9-2.5,1.4-3.9c0.3-0.7,0.6-1.4,0.8-2.2c0.2-0.8,0.5-1.5,0.8-2.3c0.5-1.5,1.1-3,1.6-4.5s0.9-2.8,1.3-3.9
	C242.8,211.3,243.3,209.8,243.3,209.8z"/>
<path class="st4" d="M205.1,187.1c0,0,0.4,0.9,1.1,2.4c0.7,1.5,1.6,3.8,2.7,6.5c1.1,2.7,2.3,5.9,3.4,9.3s2.3,7.1,3.3,10.9
	c1,3.7,1.8,7.4,2.3,11.1l0.3,2.7c0.1,0.9,0.2,1.7,0.2,2.6c0.1,1.6,0.1,3.1,0,4.7c-0.1,0.7-0.1,1.4-0.2,2.1c-0.1,0.6-0.2,1.3-0.4,1.9
	c-0.1,0.6-0.3,1.1-0.5,1.6c-0.1,0.5-0.3,0.9-0.6,1.3c-0.2,0.3-0.4,0.7-0.6,1c-0.2,0.3-0.4,0.5-0.5,0.7c-0.1,0.2-0.3,0.3-0.4,0.5
	c0.1-0.2,0.3-0.4,0.4-0.6c0.1-0.2,0.3-0.4,0.5-0.7c0.1-0.3,0.3-0.7,0.5-1c0.2-0.4,0.3-0.8,0.5-1.3c0.2-0.5,0.3-1.1,0.4-1.6l0.3-1.8
	c0.1-0.6,0.1-1.3,0.2-2.1c0.1-1.5,0-3.1-0.1-4.6c-0.1-0.8-0.2-1.7-0.3-2.5c-0.1-0.9-0.2-1.7-0.4-2.6c-0.3-1.8-0.6-3.6-1-5.5
	c-0.4-1.9-0.9-3.7-1.4-5.6c-1-3.7-2.1-7.4-3.2-10.9c-1.1-3.5-2.2-6.6-3.2-9.4C206.5,190.7,205.1,187.1,205.1,187.1z"/>
<polygon class="st2" points="66.3,287 66.1,286.3 64.9,286.5 65,287.2 "/>
<polygon class="st2" points="68.3,272.6 68.7,271.9 67.5,271.3 67.1,271.9 "/>
<polygon class="st2" points="66.2,271.5 66.5,270.8 65.3,270.3 65,270.9 "/>
<polygon class="st2" points="68.6,285.6 68.9,284.9 67.7,284.5 67.4,285.2 "/>
<polygon class="st2" points="66.5,284.8 66.8,284.1 65.6,283.7 65.3,284.4 "/>
<g>
	<polygon class="st2" points="29.5,215.9 29.1,215.2 27.9,215.9 28.3,216.5 	"/>
	<path class="st0" d="M69.9,288.7c-28.1,5.4-39.4-5.2-39.4-5.2C49.2,278.3,69.9,288.7,69.9,288.7z"/>
	<path class="st1" d="M32,286.7c0.1,0.1,1.9,0.8,3.6,1.4c1.7,0.6,3.5,1.1,3.5,1.1l2.1-7.2c0,0-1.5-0.5-3.1-1c-1-0.3-2-0.7-3-1.1
		L32,286.7z"/>
	<polygon class="st2" points="39.5,285.8 39.8,285.1 38.5,284.7 38.3,285.4 	"/>
	<polygon class="st2" points="37.3,285.1 37.6,284.4 36.3,283.9 36.1,284.7 	"/>
	<polygon class="st2" points="35.1,284.3 35.4,283.6 34.2,283.1 33.9,283.8 	"/>
	<path class="st1" d="M39.1,289.3c1.1,0.4,2.3,0.7,3.5,1l3.6,0.8l1.4-7.4c0,0-1.6-0.3-3.2-0.7s-3.2-0.9-3.2-0.9L39.1,289.3z"/>
	<polygon class="st2" points="46.3,287.5 46.5,286.8 45.2,286.5 45.1,287.2 	"/>
	<polygon class="st2" points="44.1,287 44.2,286.3 43,286 42.8,286.7 	"/>
	<polygon class="st2" points="41.8,286.4 42,285.7 40.7,285.4 40.5,286.1 	"/>
	<path class="st1" d="M46.2,291.2c0,0,0.4,0.1,1.1,0.2c0.7,0.1,1.6,0.3,2.5,0.4c1.8,0.3,3.7,0.4,3.7,0.4l0.6-7.5l-3.3-0.4
		c-0.8-0.1-1.6-0.3-2.2-0.4c-0.6-0.1-1-0.2-1-0.2L46.2,291.2z"/>
	<path class="st2" d="M52.6,288.5c0.2,0.1,0.4,0.1,0.6,0.1l0.1-0.7c-0.2-0.1-0.4-0.1-0.6-0.1c-0.2-0.1-0.4-0.1-0.6-0.1l-0.1,0.7
		C52.2,288.4,52.4,288.4,52.6,288.5z"/>
	<polygon class="st2" points="51,288.3 51,287.5 49.8,287.3 49.7,288.1 	"/>
	<polygon class="st2" points="48.6,287.9 48.8,287.2 47.5,287 47.4,287.7 	"/>
	<path class="st1" d="M53.2,292.1c0.4,0,0.8,0,1.2,0.1c0.7,0,1.7,0.1,2.6,0.1c0.9,0.1,1.7,0.1,2.6,0h1.2l-0.3-7.5h-1
		c-0.7,0.1-1.5,0.1-2.2,0c-0.8,0-1.6-0.1-2.2-0.1c-0.3-0.1-0.7-0.1-1-0.1L53.2,292.1z"/>
	<polygon class="st2" points="60.3,288.7 60.3,288 59,288 59,288.8 	"/>
	<polygon class="st2" points="57.9,288.8 58,288 56.7,288 56.6,288.7 	"/>
	<path class="st2" d="M55,288.7h0.6V288H55c-0.2-0.1-0.4-0.1-0.6-0.1l-0.1,0.7C54.6,288.6,54.8,288.6,55,288.7z"/>
	<path class="st1" d="M60.9,292.2c0.4,0,0.8,0,1.2-0.1c0.7,0,1.7-0.1,2.6-0.2l3.7-0.6l-1.4-7.4c0,0-1.6,0.3-3.2,0.5
		c-0.7,0.1-1.5,0.2-2.2,0.2c-0.3,0.1-0.7,0.1-1,0.1L60.9,292.2z"/>
	<path class="st2" d="M64.3,288.4c0.2,0,0.4,0,0.6-0.1l-0.1-0.7c-0.2,0.1-0.4,0.1-0.6,0.1c-0.2,0.1-0.4,0.1-0.6,0.1l0.1,0.7
		C63.9,288.5,64.1,288.4,64.3,288.4z"/>
	<polygon class="st2" points="62.6,288.6 62.6,287.9 61.3,288 61.3,288.7 	"/>
	<path class="st3" d="M67.3,95.8L78.2,230l-6,42.9c-24.8-12.6-41.8-5.4-41.8-5.4c-9-146.4,16.3-201.6,16.3-201.6
		C54.8,68.3,67.4,95.8,67.3,95.8z"/>
	<path class="st3" d="M69.9,288.7l2.3-15.8c-12.7-7.2-27.7-9.2-41.8-5.4l0.1,16C53.7,279.4,69.9,288.7,69.9,288.7z"/>
	<path class="st1" d="M31.6,272.7c-0.1,0,1.5-0.4,3.1-0.7c0.8-0.2,1.7-0.3,2.3-0.4c0.3,0,0.7,0,1-0.1l-0.9-7.4c-0.4,0-0.8,0-1.2,0.1
		c-0.7,0.1-1.7,0.2-2.6,0.4c-1.9,0.3-3.8,0.9-3.9,0.9L31.6,272.7z"/>
	<path class="st2" d="M36.4,268.2c0.2-0.1,0.5-0.1,0.7-0.1l-0.1-0.7c-0.2,0.1-0.5,0.1-0.7,0.1s-0.5,0-0.7,0.1l0.1,0.7
		C35.9,268.2,36.2,268.2,36.4,268.2z"/>
	<path class="st2" d="M34,268.6c0.2-0.1,0.5-0.1,0.7-0.1l-0.1-0.7c-0.2,0-0.5,0-0.7,0.1c-0.2,0-0.5,0-0.7,0.1l0.1,0.7
		C33.6,268.6,33.8,268.6,34,268.6z"/>
	<path class="st2" d="M31.8,269c0.2,0,0.4,0,0.6-0.1l-0.2-0.7c-0.2,0-0.5,0-0.7,0.1c-0.4,0.1-0.7,0.2-0.7,0.2l0.2,0.7
		C31.3,269.1,31.6,269.1,31.8,269z"/>
	<path class="st1" d="M37.9,271.5c0.3,0,0.7,0,1-0.1c0.6-0.1,1.5-0.2,2.3-0.2s1.7-0.1,2.3-0.1h1.1v-7.5h-1.2c-0.7,0-1.7,0-2.6,0.1
		c-0.9,0.1-1.9,0.1-2.6,0.2c-0.4,0-0.8,0-1.2,0.1L37.9,271.5z"/>
	<path class="st2" d="M44.2,267.6v-0.8h-1.4v0.8H44.2z"/>
	<path class="st2" d="M41,267.6h0.7v-0.7H41c-0.2,0.1-0.5,0.1-0.7,0.1l0.1,0.7C40.6,267.7,40.8,267.6,41,267.6z"/>
	<path class="st2" d="M38.7,267.9c0.2-0.1,0.5-0.1,0.7-0.1l-0.1-0.7c-0.2,0.1-0.5,0.1-0.7,0.1s-0.5,0-0.7,0.1L38,268
		C38.3,267.9,38.5,267.9,38.7,267.9z"/>
	<path class="st1" d="M44.6,271h1.1c0.8,0,1.5,0,2.3,0.1c0.8,0.1,1.7,0.1,2.3,0.2c0.3,0,0.7,0,1,0.1l0.9-7.4c-0.4,0-0.8,0-1.2-0.1
		c-0.7-0.1-1.6-0.1-2.6-0.2c-0.9-0.1-1.7-0.1-2.6-0.1h-1.2V271z"/>
	<path class="st2" d="M50.6,267.9c0.2,0.1,0.5,0.1,0.7,0.1l0.1-0.7c-0.2-0.1-0.5-0.1-0.7-0.1c-0.2-0.1-0.5-0.1-0.7-0.1l-0.1,0.7
		C50.2,267.8,50.4,267.8,50.6,267.9z"/>
	<polygon class="st2" points="48.9,267.7 48.9,267 47.6,266.9 47.5,267.7 	"/>
	<polygon class="st2" points="46.5,267.6 46.5,266.9 45.2,266.8 45.2,267.6 	"/>
	<path class="st1" d="M51.5,271.5c0.3,0,0.7,0,1,0.1c0.8,0.1,1.5,0.2,2.3,0.4c1.1,0.2,2.2,0.4,3.2,0.7l1.9-7.2
		c-1.2-0.4-2.5-0.7-3.8-0.9c-0.9-0.1-1.9-0.3-2.6-0.4c-0.7-0.1-1.2-0.2-1.2-0.2L51.5,271.5z"/>
	<path class="st2" d="M58.3,269.2l0.2-0.7l-1.3-0.3l-0.2,0.7L58.3,269.2z"/>
	<polygon class="st2" points="55.9,268.7 56.1,268 54.8,267.7 54.6,268.5 	"/>
	<polygon class="st2" points="53.6,268.3 53.7,267.5 52.4,267.4 52.3,268.1 	"/>
	<path class="st1" d="M58,272.7c0,0,0.4,0.1,1,0.3c0.3,0.1,0.7,0.2,1,0.3c0.3,0.1,0.7,0.3,1.1,0.4c0.7,0.3,1.6,0.6,2.1,0.8
		c0.5,0.2,0.9,0.4,0.9,0.4l3-6.9c0,0-0.4-0.3-1.1-0.5c-0.7-0.2-1.6-0.6-2.5-0.9c-0.4-0.2-0.9-0.4-1.3-0.5s-0.9-0.2-1.2-0.3
		c-0.7-0.2-1.2-0.3-1.2-0.3L58,272.7z"/>
	<path class="st2" d="M64.4,271.2c0.2,0.1,0.4,0.2,0.6,0.3l0.3-0.7c-0.2-0.1-0.4-0.2-0.6-0.3l-0.6-0.2l-0.3,0.7L64.4,271.2z"/>
	<polygon class="st2" points="62.8,270.7 63.1,269.9 61.8,269.5 61.6,270.2 	"/>
	<polygon class="st2" points="60.6,269.9 60.8,269.2 59.5,268.8 59.3,269.5 	"/>
	<path class="st1" d="M64.2,274.9c0.3,0.1,0.6,0.2,0.9,0.4c0.5,0.3,1.3,0.6,2,1c1.5,0.8,2.9,1.6,2.9,1.6l4-6.3c0,0-1.7-0.9-3.4-1.9
		c-0.8-0.4-1.6-0.8-2.4-1.2c-0.7-0.3-1.1-0.5-1.1-0.5L64.2,274.9z"/>
	<path class="st1" d="M31.5,284.8c-0.2,0.1,1.3-0.3,2.8-0.5c1.5-0.2,3.1-0.3,3.1-0.3l-0.5-7.5c0,0-1.8,0.1-3.6,0.4
		c-1.3,0.1-2.6,0.4-3.9,0.7L31.5,284.8z"/>
	<polygon class="st2" points="36.7,280.6 36.6,279.8 35.4,279.9 35.4,280.7 	"/>
	<polygon class="st2" points="34.5,280.8 34.4,280 33.1,280.2 33.2,280.9 	"/>
	<path class="st2" d="M31.5,281.3c0.2,0,0.4,0,0.6-0.1l-0.1-0.7c-0.2,0-0.4,0-0.6,0.1c-0.2,0-0.4,0-0.6,0.1l0.2,0.7
		C31.2,281.3,31.4,281.3,31.5,281.3z"/>
	<path class="st1" d="M37.3,284.1c0,0,1.6-0.1,3.2-0.1c0.7-0.1,1.5-0.1,2.2,0h1l0.4-7.5H43c-0.8-0.1-1.7-0.1-2.5-0.1
		c-1.8,0-3.6,0.1-3.6,0.1L37.3,284.1z"/>
	<polygon class="st2" points="43.4,280.5 43.5,279.8 42.2,279.7 42.2,280.5 	"/>
	<polygon class="st2" points="41.2,280.4 41.2,279.7 39.9,279.7 39.9,280.4 	"/>
	<polygon class="st2" points="38.9,280.4 38.9,279.7 37.7,279.8 37.7,280.5 	"/>
	<path class="st1" d="M43.6,284c0,0,1.6,0.2,3.2,0.3c0.8,0.1,1.6,0.2,2.2,0.3c0.3,0,0.7,0,1,0.1l1.2-7.4c0,0-0.5-0.1-1.1-0.2
		s-1.5-0.2-2.4-0.3c-1.8-0.2-3.6-0.3-3.6-0.3L43.6,284z"/>
	<polygon class="st2" points="50.1,281.2 50.3,280.4 49,280.3 48.9,281 	"/>
	<path class="st2" d="M47.3,280.8c0.2,0.1,0.4,0.1,0.6,0.1l0.1-0.7c-0.2-0.1-0.4-0.1-0.6-0.1c-0.2-0.1-0.4-0.1-0.6-0.1l-0.1,0.7
		C46.9,280.7,47.1,280.8,47.3,280.8z"/>
	<polygon class="st2" points="45.7,280.7 45.7,279.9 44.5,279.8 44.4,280.6 	"/>
	<path class="st1" d="M50.2,284.7l3.2,0.6c1.5,0.3,3.1,0.7,3.1,0.7l1.8-7.3c0,0-1.8-0.4-3.5-0.8l-3.5-0.6L50.2,284.7z"/>
	<polygon class="st2" points="56.8,282.5 56.9,281.7 55.7,281.5 55.5,282.2 	"/>
	<path class="st2" d="M53.8,281.8c0.2,0,0.4,0,0.6,0.1l0.2-0.7c-0.2,0-0.4,0-0.6-0.1s-0.4-0.1-0.6-0.1l-0.1,0.7
		C53.5,281.7,53.7,281.7,53.8,281.8z"/>
	<polygon class="st2" points="52.4,281.5 52.5,280.8 51.3,280.6 51.1,281.3 	"/>
	<path class="st1" d="M56.3,285.8c0,0,0.4,0.1,1,0.3c0.7,0.2,1.4,0.4,2.1,0.6c0.8,0.2,1.5,0.5,2.1,0.7c0.6,0.2,1,0.3,1,0.3l2.4-7.1
		c0,0-0.4-0.1-1-0.3c-0.8-0.3-1.5-0.5-2.3-0.7s-1.7-0.4-2.3-0.6l-1.1-0.3L56.3,285.8z"/>
	<polygon class="st2" points="63.3,284.3 63.5,283.6 62.3,283.2 62.1,283.9 	"/>
	<polygon class="st2" points="61.1,283.6 61.3,282.9 60.1,282.6 59.9,283.3 	"/>
	<polygon class="st2" points="59,283 59.2,282.3 57.9,282 57.8,282.7 	"/>
	<path class="st1" d="M62.6,287.7c0,0,0.4,0.1,1,0.3c0.6,0.2,1.3,0.5,2.1,0.8l3,1.2l2.9-6.9c0,0-1.7-0.7-3.3-1.3
		c-0.8-0.3-1.7-0.6-2.3-0.8c-0.6-0.2-1-0.3-1-0.3L62.6,287.7z"/>
	<polygon class="st2" points="65.4,285 65.7,284.3 64.5,283.9 64.2,284.6 	"/>
	<path class="st4" d="M44.8,130.8c0.3,1.2,0.8,2.9,1.4,5c0.3,1,0.6,2.1,1,3.3s0.8,2.4,1.2,3.7c0.9,2.5,1.9,5.2,3,7.8
		c0.6,1.3,1.1,2.6,1.7,3.9c0.6,1.3,1.1,2.5,1.8,3.7c0.7,1.2,1.3,2.4,1.9,3.4s1.1,2,1.8,2.9c0.7,0.9,1.2,1.7,1.7,2.4
		c0.5,0.7,1,1.3,1.4,1.8c0.8,1,1.2,1.6,1.2,1.6s-0.5-0.6-1.3-1.5c-0.4-0.5-1-1-1.5-1.7c-0.5-0.7-1.2-1.4-1.8-2.3
		c-0.6-0.9-1.2-1.8-1.9-2.9c-0.7-1.1-1.3-2.2-2-3.4s-1.2-2.4-1.9-3.7s-1.2-2.6-1.8-3.9c-1.1-2.6-2.1-5.2-2.9-7.9
		c-0.8-2.6-1.5-5-2-7.1c-1-4.2-1.4-7-1.4-7C44.6,129.5,44.7,130.1,44.8,130.8z"/>
	<path class="st4" d="M35.8,174.4c-0.1,1.6-0.2,3.3-0.2,5.2c0,2,0.1,4,0.5,5.9c0.2,1,0.4,1.9,0.7,2.9c0.3,0.9,0.6,1.8,1,2.7l0.6,1.2
		c0.2,0.4,0.5,0.8,0.7,1.1s0.5,0.7,0.7,1c0.2,0.3,0.4,0.6,0.7,0.9c0.5,0.6,1,1.1,1.4,1.5s0.9,0.7,1.2,1l1.1,0.8
		c-0.4-0.3-0.8-0.5-1.2-0.7c-0.5-0.3-0.9-0.6-1.3-0.9c-0.5-0.4-1-0.9-1.5-1.4c-0.3-0.3-0.5-0.6-0.8-0.9s-0.6-0.6-0.8-1
		c-0.3-0.4-0.5-0.7-0.7-1.1c-0.3-0.4-0.5-0.8-0.7-1.3c-0.4-0.9-0.8-1.8-1.1-2.8s-0.5-2-0.7-3c-0.3-2-0.4-4-0.4-6
		c0.1-1.9,0.2-3.7,0.5-5.2s0.6-2.7,0.8-3.6c0.1-0.4,0.2-0.9,0.4-1.3C36.7,169.4,36.3,171.4,35.8,174.4z"/>
	<path class="st4" d="M31.8,211.9c0.4,1.1,0.8,2.4,1.3,3.9s1.1,3,1.6,4.5c0.3,0.8,0.6,1.5,0.8,2.3s0.5,1.5,0.8,2.2
		c0.5,1.4,1,2.8,1.4,3.9c0.8,2.2,1.3,3.8,1.3,3.8s-0.7-1.5-1.7-3.7c-0.4-1.1-1-2.4-1.6-3.8c-0.4-0.7-0.7-1.4-0.9-2.2
		c-0.3-0.8-0.5-1.5-0.8-2.3c-0.5-1.5-1-3.1-1.5-4.5l-0.6-2.1c-0.2-0.7-0.3-1.3-0.5-1.9c-0.6-2.3-0.9-3.9-0.9-3.9
		S31,209.6,31.8,211.9z"/>
	<path class="st4" d="M65.4,194.5c-1,2.8-2.1,5.9-3.2,9.4s-2.2,7.2-3.2,10.9c-0.5,1.9-1,3.7-1.4,5.6s-0.7,3.7-1,5.5
		c-0.2,0.9-0.3,1.7-0.4,2.6c-0.1,0.8-0.2,1.7-0.3,2.5c-0.1,1.5-0.2,3.1-0.1,4.6c0.1,0.8,0.1,1.5,0.2,2.1l0.3,1.8
		c0.1,0.5,0.2,1.1,0.4,1.6s0.3,0.9,0.5,1.3c0.2,0.3,0.4,0.7,0.5,1c0.2,0.3,0.4,0.5,0.5,0.7c0.1,0.2,0.3,0.4,0.4,0.6
		c-0.1-0.2-0.3-0.3-0.4-0.5s-0.3-0.4-0.5-0.7c-0.2-0.3-0.4-0.7-0.6-1c-0.3-0.4-0.5-0.8-0.6-1.3c-0.2-0.5-0.4-1-0.5-1.6
		c-0.2-0.6-0.3-1.3-0.4-1.9c-0.1-0.7-0.1-1.4-0.2-2.1c-0.1-1.6-0.1-3.1,0-4.7c0-0.9,0.1-1.7,0.2-2.6l0.3-2.7
		c0.5-3.7,1.3-7.4,2.3-11.1c1-3.8,2.2-7.5,3.3-10.9s2.3-6.6,3.4-9.3s2-5,2.7-6.5c0.7-1.5,1.1-2.4,1.1-2.4S67.3,189,65.4,194.5z"/>
</g>
</svg>
