<?xml version="1.0" encoding="utf-8"?>
<!-- Generator: Adobe Illustrator 24.0.0, SVG Export Plug-In . SVG Version: 6.00 Build 0)  -->
<svg version="1.1" id="SleeverRF" xmlns="http://www.w3.org/2000/svg" xmlns:xlink="http://www.w3.org/1999/xlink" x="0px" y="0px"
	 viewBox="0 0 86.8 249.3" style="enable-background:new 0 0 86.8 249.3;" xml:space="preserve">
<style type="text/css">
	.st0{fill:#B3B3B3;stroke:#231F20;stroke-miterlimit:10;}
	.st1{fill:none;}
	.st2{fill-rule:evenodd;clip-rule:evenodd;fill:#231F20;}
	.st3{fill:#FFFFFF;stroke:#231F20;stroke-miterlimit:10;}
	.st4{fill:#231F20;}
</style>
<title>Veste</title>
<path class="st0" d="M68.2,224.3c0,0-11.3,10.6-39.4,5.2C28.8,229.5,49.5,219.1,68.2,224.3z"/>
<path class="st1" d="M63.6,220.7c-1,0.4-2,0.8-3,1.1c-1.6,0.5-3.1,1-3.1,1l2.1,7.2c0,0,1.8-0.5,3.5-1.1c1.7-0.6,3.5-1.3,3.6-1.4
	L63.6,220.7z"/>
<polygon class="st2" points="60.4,226.2 60.2,225.5 58.9,225.9 59.2,226.6 "/>
<polygon class="st2" points="62.6,225.5 62.4,224.7 61.1,225.2 61.4,225.9 "/>
<polygon class="st2" points="64.8,224.6 64.5,223.9 63.3,224.4 63.6,225.1 "/>
<path class="st1" d="M57.5,222.9c0,0-1.6,0.5-3.2,0.9s-3.2,0.7-3.2,0.7l1.4,7.4l3.6-0.8c1.2-0.3,2.4-0.6,3.5-1L57.5,222.9z"/>
<polygon class="st2" points="53.6,228 53.5,227.3 52.2,227.6 52.4,228.3 "/>
<polygon class="st2" points="55.9,227.5 55.7,226.8 54.5,227.1 54.6,227.8 "/>
<polygon class="st2" points="58.2,226.9 58,226.2 56.7,226.5 56.9,227.2 "/>
<path class="st1" d="M51.1,224.5c0,0-0.4,0.1-1,0.2s-1.4,0.3-2.2,0.4l-3.3,0.4l0.6,7.5c0,0,1.9-0.1,3.7-0.4c0.9-0.1,1.8-0.3,2.5-0.4
	s1.1-0.2,1.1-0.2L51.1,224.5z"/>
<path class="st2" d="M46.7,229.2l-0.1-0.7c-0.2,0-0.4,0-0.6,0.1c-0.2,0-0.4,0-0.6,0.1l0.1,0.7c0.2,0,0.4,0,0.6-0.1
	S46.5,229.2,46.7,229.2z"/>
<polygon class="st2" points="49,228.9 48.9,228.1 47.7,228.3 47.7,229.1 "/>
<polygon class="st2" points="51.3,228.5 51.2,227.8 49.9,228 50.1,228.7 "/>
<path class="st1" d="M44.6,225.4c-0.3,0-0.7,0-1,0.1c-0.6,0-1.4,0.1-2.2,0.1c-0.7,0.1-1.5,0.1-2.2,0h-1l-0.3,7.5h1.2
	c0.9,0.1,1.7,0.1,2.6,0c0.9,0,1.9-0.1,2.6-0.1c0.4-0.1,0.8-0.1,1.2-0.1L44.6,225.4z"/>
<polygon class="st2" points="39.7,229.6 39.7,228.8 38.4,228.8 38.4,229.5 "/>
<polygon class="st2" points="42.1,229.5 42,228.8 40.7,228.8 40.8,229.6 "/>
<path class="st2" d="M44.4,229.4l-0.1-0.7c-0.2,0-0.4,0-0.6,0.1h-0.6v0.7h0.6C43.9,229.4,44.1,229.4,44.4,229.4z"/>
<path class="st1" d="M38.1,225.5c-0.3,0-0.7,0-1-0.1c-0.7,0-1.5-0.1-2.2-0.2c-1.6-0.2-3.2-0.5-3.2-0.5l-1.4,7.4l3.7,0.6
	c0.9,0.1,1.9,0.2,2.6,0.2c0.4,0.1,0.8,0.1,1.2,0.1L38.1,225.5z"/>
<polygon class="st2" points="32.7,229 32.8,228.3 31.6,228.1 31.4,228.8 "/>
<path class="st2" d="M35,229.3l0.1-0.7c-0.2,0-0.4,0-0.6-0.1c-0.2,0-0.4,0-0.6-0.1l-0.1,0.7c0.2,0.1,0.4,0.1,0.6,0.1
	C34.6,229.2,34.8,229.3,35,229.3z"/>
<polygon class="st2" points="37.4,229.5 37.4,228.8 36.1,228.7 36.1,229.4 "/>
<path class="st3" d="M52,6.7c0,0,25.3,55.2,16.3,201.6c0,0-17-7.2-41.8,5.4l-6-42.9L31.4,36.6C31.3,36.6,43.9,9.1,52,6.7z"/>
<path class="st3" d="M68.2,224.3l0.1-16c-14.1-3.8-29.1-1.8-41.8,5.4l2.3,15.8C28.8,229.5,45,220.2,68.2,224.3z"/>
<path class="st1" d="M69.3,206.3c-0.1,0-2-0.6-3.9-0.9c-0.9-0.2-1.9-0.3-2.6-0.4c-0.4-0.1-0.8-0.1-1.2-0.1l-0.9,7.4
	c0.3,0.1,0.7,0.1,1,0.1c0.6,0.1,1.5,0.2,2.3,0.4c1.6,0.3,3.2,0.7,3.1,0.7L69.3,206.3z"/>
<path class="st2" d="M63,209.1l0.1-0.7c-0.2-0.1-0.5-0.1-0.7-0.1c-0.2,0-0.5,0-0.7-0.1l-0.1,0.7c0.2,0,0.5,0,0.7,0.1
	C62.5,209,62.8,209,63,209.1z"/>
<path class="st2" d="M65.4,209.5l0.1-0.7c-0.2-0.1-0.5-0.1-0.7-0.1c-0.2-0.1-0.5-0.1-0.7-0.1l-0.1,0.7c0.2,0,0.5,0,0.7,0.1
	C64.9,209.4,65.1,209.4,65.4,209.5z"/>
<path class="st2" d="M67.7,210l0.2-0.7c0,0-0.3-0.1-0.7-0.2c-0.2-0.1-0.5-0.1-0.7-0.1l-0.2,0.7c0.2,0.1,0.4,0.1,0.6,0.1
	C67.1,209.9,67.4,209.9,67.7,210z"/>
<path class="st1" d="M61.7,204.8c-0.4-0.1-0.8-0.1-1.2-0.1c-0.7-0.1-1.7-0.1-2.6-0.2s-1.9-0.1-2.6-0.1h-1.2v7.5h1.1
	c0.6,0,1.5,0.1,2.3,0.1s1.7,0.1,2.3,0.2c0.3,0.1,0.7,0.1,1,0.1L61.7,204.8z"/>
<path class="st2" d="M55.9,208.4v-0.8h-1.4v0.8H55.9z"/>
<path class="st2" d="M58.3,208.5l0.1-0.7c-0.2,0-0.5,0-0.7-0.1H57v0.7h0.7C57.9,208.4,58.1,208.5,58.3,208.5z"/>
<path class="st2" d="M60.7,208.8l0.1-0.7c-0.2-0.1-0.5-0.1-0.7-0.1c-0.2,0-0.5,0-0.7-0.1l-0.1,0.7c0.2,0,0.5,0,0.7,0.1
	C60.2,208.7,60.4,208.7,60.7,208.8z"/>
<path class="st1" d="M54.1,204.4h-1.2c-0.9,0-1.7,0-2.6,0.1c-1,0.1-1.9,0.1-2.6,0.2c-0.4,0.1-0.8,0.1-1.2,0.1l0.9,7.4
	c0.3-0.1,0.7-0.1,1-0.1c0.6-0.1,1.5-0.1,2.3-0.2c0.8-0.1,1.5-0.1,2.3-0.1h1.1V204.4z"/>
<path class="st2" d="M48.8,208.6l-0.1-0.7c-0.2,0-0.5,0-0.7,0.1c-0.2,0-0.5,0-0.7,0.1l0.1,0.7c0.2,0,0.5,0,0.7-0.1
	C48.3,208.6,48.5,208.6,48.8,208.6z"/>
<polygon class="st2" points="51.2,208.5 51.1,207.7 49.8,207.8 49.8,208.5 "/>
<polygon class="st2" points="53.5,208.4 53.5,207.6 52.2,207.7 52.2,208.4 "/>
<path class="st1" d="M46.4,204.8c0,0-0.5,0.1-1.2,0.2s-1.7,0.3-2.6,0.4c-1.3,0.2-2.6,0.5-3.8,0.9l1.9,7.2c1-0.3,2.1-0.5,3.2-0.7
	c0.8-0.2,1.5-0.3,2.3-0.4c0.3-0.1,0.7-0.1,1-0.1L46.4,204.8z"/>
<path class="st2" d="M41.7,209.7l-0.2-0.7l-1.3,0.3l0.2,0.7L41.7,209.7z"/>
<polygon class="st2" points="44.1,209.3 43.9,208.5 42.6,208.8 42.8,209.5 "/>
<polygon class="st2" points="46.4,208.9 46.3,208.2 45,208.3 45.1,209.1 "/>
<path class="st1" d="M38.9,206.3c0,0-0.5,0.1-1.2,0.3c-0.3,0.1-0.8,0.2-1.2,0.3s-0.9,0.3-1.3,0.5c-0.9,0.3-1.8,0.7-2.5,0.9
	s-1.1,0.5-1.1,0.5l3,6.9c0,0,0.4-0.2,0.9-0.4s1.4-0.5,2.1-0.8c0.4-0.1,0.8-0.3,1.1-0.4s0.7-0.2,1-0.3c0.6-0.2,1-0.3,1-0.3
	L38.9,206.3z"/>
<path class="st2" d="M34.9,211.8l-0.3-0.7l-0.6,0.2c-0.2,0.1-0.4,0.2-0.6,0.3l0.3,0.7c0.2-0.1,0.4-0.2,0.6-0.3L34.9,211.8z"/>
<polygon class="st2" points="37.1,211 36.9,210.3 35.6,210.7 35.9,211.5 "/>
<polygon class="st2" points="39.4,210.3 39.2,209.6 37.9,210 38.1,210.7 "/>
<path class="st1" d="M31.6,208.8c0,0-0.4,0.2-1.1,0.5c-0.8,0.4-1.6,0.8-2.4,1.2c-1.7,1-3.4,1.9-3.4,1.9l4,6.3c0,0,1.4-0.8,2.9-1.6
	c0.7-0.4,1.5-0.7,2-1c0.3-0.2,0.6-0.3,0.9-0.4L31.6,208.8z"/>
<polygon class="st2" points="28.5,214.9 28.1,214.2 26.9,214.9 27.3,215.5 "/>
<polygon class="st2" points="30.6,213.7 30.2,213.1 29,213.7 29.4,214.4 "/>
<polygon class="st2" points="32.7,212.7 32.4,212.1 31.2,212.6 31.5,213.3 "/>
<path class="st1" d="M69.3,218.4c-1.3-0.3-2.6-0.6-3.9-0.7c-1.8-0.3-3.6-0.4-3.6-0.4l-0.5,7.5c0,0,1.6,0.1,3.1,0.3s3,0.6,2.8,0.5
	L69.3,218.4z"/>
<polygon class="st2" points="63.3,221.5 63.3,220.7 62.1,220.6 62,221.4 "/>
<polygon class="st2" points="65.5,221.7 65.6,221 64.3,220.8 64.2,221.6 "/>
<path class="st2" d="M67.7,222.2l0.2-0.7c-0.2-0.1-0.4-0.1-0.6-0.1c-0.2-0.1-0.4-0.1-0.6-0.1l-0.1,0.7c0.2,0.1,0.4,0.1,0.6,0.1
	C67.3,222.1,67.5,222.1,67.7,222.2z"/>
<path class="st1" d="M61.8,217.3c0,0-1.8-0.1-3.6-0.1c-0.8,0-1.7,0-2.5,0.1h-1.1l0.4,7.5h1c0.7-0.1,1.5-0.1,2.2,0
	c1.6,0,3.2,0.1,3.2,0.1L61.8,217.3z"/>
<polygon class="st2" points="56.5,221.3 56.5,220.5 55.2,220.6 55.3,221.3 "/>
<polygon class="st2" points="58.8,221.2 58.8,220.5 57.5,220.5 57.5,221.2 "/>
<polygon class="st2" points="61,221.3 61,220.6 59.8,220.5 59.8,221.2 "/>
<path class="st1" d="M54.6,217.3c0,0-1.8,0.1-3.6,0.3c-0.9,0.1-1.8,0.2-2.4,0.3s-1.1,0.2-1.1,0.2l1.2,7.4c0.3-0.1,0.7-0.1,1-0.1
	c0.6-0.1,1.4-0.2,2.2-0.3c1.6-0.1,3.2-0.3,3.2-0.3L54.6,217.3z"/>
<polygon class="st2" points="49.8,221.8 49.7,221.1 48.4,221.2 48.6,222 "/>
<path class="st2" d="M52,221.5l-0.1-0.7c-0.2,0-0.4,0-0.6,0.1c-0.2,0-0.4,0-0.6,0.1l0.1,0.7c0.2,0,0.4,0,0.6-0.1
	C51.6,221.6,51.8,221.5,52,221.5z"/>
<polygon class="st2" points="54.3,221.4 54.2,220.6 53,220.7 53,221.5 "/>
<path class="st1" d="M47.4,218.1l-3.5,0.6c-1.7,0.4-3.5,0.8-3.5,0.8l1.8,7.3c0,0,1.6-0.4,3.1-0.7l3.2-0.6L47.4,218.1z"/>
<polygon class="st2" points="43.2,223 43,222.3 41.8,222.5 41.9,223.3 "/>
<path class="st2" d="M45.4,222.5l-0.1-0.7c-0.2,0-0.4,0-0.6,0.1s-0.4,0.1-0.6,0.1l0.2,0.7c0.2-0.1,0.4-0.1,0.6-0.1
	C45,222.5,45.2,222.5,45.4,222.5z"/>
<polygon class="st2" points="47.6,222.1 47.4,221.4 46.2,221.6 46.3,222.3 "/>
<path class="st1" d="M40.5,219.5l-1.1,0.3c-0.6,0.2-1.5,0.4-2.3,0.6c-0.8,0.2-1.5,0.4-2.3,0.7c-0.6,0.2-1,0.3-1,0.3l2.4,7.1
	c0,0,0.4-0.1,1-0.3s1.3-0.5,2.1-0.7c0.7-0.2,1.4-0.4,2.1-0.6c0.6-0.2,1-0.3,1-0.3L40.5,219.5z"/>
<polygon class="st2" points="36.6,224.7 36.4,224 35.2,224.4 35.4,225.1 "/>
<polygon class="st2" points="38.8,224.1 38.6,223.4 37.4,223.7 37.6,224.4 "/>
<polygon class="st2" points="40.9,223.5 40.8,222.8 39.5,223.1 39.7,223.8 "/>
<path class="st1" d="M33.7,221.5c0,0-0.4,0.1-1,0.3s-1.5,0.5-2.3,0.8c-1.6,0.6-3.3,1.3-3.3,1.3l2.9,6.9l3-1.2
	c0.8-0.3,1.5-0.6,2.1-0.8s1-0.3,1-0.3L33.7,221.5z"/>
<polygon class="st2" points="30.3,227 30,226.3 28.8,226.7 29.1,227.4 "/>
<polygon class="st2" points="32.4,226.2 32.1,225.5 30.9,225.9 31.2,226.6 "/>
<polygon class="st2" points="34.5,225.4 34.2,224.7 33,225.1 33.3,225.8 "/>
<path class="st4" d="M54.3,69.7c0,0-0.4,2.8-1.4,7c-0.5,2.1-1.2,4.5-2,7.1c-0.8,2.7-1.8,5.3-2.9,7.9c-0.6,1.3-1.1,2.6-1.8,3.9
	s-1.2,2.5-1.9,3.7s-1.3,2.3-2,3.4s-1.3,2-1.9,2.9s-1.3,1.6-1.8,2.3s-1.1,1.2-1.5,1.7c-0.8,0.9-1.3,1.5-1.3,1.5s0.4-0.6,1.2-1.6
	c0.4-0.5,0.9-1.1,1.4-1.8s1-1.5,1.7-2.4s1.2-1.9,1.8-2.9s1.2-2.2,1.9-3.4s1.2-2.4,1.8-3.7s1.1-2.6,1.7-3.9c1.1-2.6,2.1-5.3,3-7.8
	c0.4-1.3,0.8-2.5,1.2-3.7s0.7-2.3,1-3.3c0.6-2.1,1.1-3.8,1.4-5C54,70.9,54.1,70.3,54.3,69.7z"/>
<path class="st4" d="M62,110.2c0.2,0.4,0.3,0.9,0.4,1.3c0.2,0.9,0.5,2.1,0.8,3.6s0.4,3.3,0.5,5.2c0,2-0.1,4-0.4,6
	c-0.2,1-0.4,2-0.7,3c-0.3,1-0.7,1.9-1.1,2.8c-0.2,0.5-0.4,0.9-0.7,1.3c-0.2,0.4-0.4,0.7-0.7,1.1c-0.2,0.4-0.5,0.7-0.8,1
	c-0.3,0.3-0.5,0.6-0.8,0.9c-0.5,0.5-1,1-1.5,1.4c-0.4,0.3-0.8,0.6-1.3,0.9c-0.4,0.2-0.8,0.4-1.2,0.7l1.1-0.8c0.3-0.3,0.8-0.6,1.2-1
	s0.9-0.9,1.4-1.5c0.3-0.3,0.5-0.6,0.7-0.9c0.2-0.3,0.5-0.7,0.7-1s0.5-0.7,0.7-1.1l0.6-1.2c0.4-0.9,0.7-1.8,1-2.7
	c0.3-1,0.5-1.9,0.7-2.9c0.4-1.9,0.5-3.9,0.5-5.9c0-1.9-0.1-3.6-0.2-5.2C62.4,112.2,62,110.2,62,110.2z"/>
<path class="st4" d="M68.2,148.9c0,0-0.3,1.6-0.9,3.9c-0.2,0.6-0.3,1.2-0.5,1.9l-0.6,2.1c-0.5,1.4-1,3-1.5,4.5
	c-0.3,0.8-0.5,1.5-0.8,2.3c-0.2,0.8-0.5,1.5-0.9,2.2c-0.6,1.4-1.2,2.7-1.6,3.8c-1,2.2-1.7,3.7-1.7,3.7s0.5-1.6,1.3-3.8
	c0.4-1.1,0.9-2.5,1.4-3.9c0.3-0.7,0.6-1.4,0.8-2.2c0.2-0.8,0.5-1.5,0.8-2.3c0.5-1.5,1.1-3,1.6-4.5s0.9-2.8,1.3-3.9
	C67.7,150.4,68.2,148.9,68.2,148.9z"/>
<path class="st4" d="M30,126.2c0,0,0.4,0.9,1.1,2.4c0.7,1.5,1.6,3.8,2.7,6.5s2.3,5.9,3.4,9.3s2.3,7.1,3.3,10.9
	c1,3.7,1.8,7.4,2.3,11.1l0.3,2.7c0.1,0.9,0.2,1.7,0.2,2.6c0.1,1.6,0.1,3.1,0,4.7c-0.1,0.7-0.1,1.4-0.2,2.1c-0.1,0.6-0.2,1.3-0.4,1.9
	c-0.1,0.6-0.3,1.1-0.5,1.6c-0.1,0.5-0.3,0.9-0.6,1.3c-0.2,0.3-0.4,0.7-0.6,1c-0.2,0.3-0.4,0.5-0.5,0.7c-0.1,0.2-0.3,0.3-0.4,0.5
	c0.1-0.2,0.3-0.4,0.4-0.6c0.1-0.2,0.3-0.4,0.5-0.7c0.1-0.3,0.3-0.7,0.5-1c0.2-0.4,0.3-0.8,0.5-1.3c0.2-0.5,0.3-1.1,0.4-1.6l0.3-1.8
	c0.1-0.6,0.1-1.3,0.2-2.1c0.1-1.5,0-3.1-0.1-4.6c-0.1-0.8-0.2-1.7-0.3-2.5c-0.1-0.9-0.2-1.7-0.4-2.6c-0.3-1.8-0.6-3.6-1-5.5
	s-0.9-3.7-1.4-5.6c-1-3.7-2.1-7.4-3.2-10.9s-2.2-6.6-3.2-9.4C31.4,129.8,30,126.2,30,126.2z"/>
</svg>
