<?xml version="1.0" encoding="utf-8"?>
<!-- Generator: Adobe Illustrator 24.0.0, SVG Export Plug-In . SVG Version: 6.00 Build 0)  -->
<svg version="1.1" id="SleeveLF" xmlns="http://www.w3.org/2000/svg" xmlns:xlink="http://www.w3.org/1999/xlink" x="0px" y="0px"
	 viewBox="0 0 86.8 249.3" style="enable-background:new 0 0 86.8 249.3;" xml:space="preserve">
<style type="text/css">
	.st0{fill:#B3B3B3;stroke:#231F20;stroke-miterlimit:10;}
	.st1{fill:#FFFFFF;stroke:#231F20;stroke-miterlimit:10;}
	.st2{fill:none;}
	.st3{fill-rule:evenodd;clip-rule:evenodd;fill:#231F20;}
	.st4{fill:#231F20;}
	.st5{fill:#F70000;}
</style>
<title>Veste</title>
<path class="st0" d="M25.2,225.8c0,0,11.2,10.6,39.4,5.2C64.5,231,43.9,220.7,25.2,225.8z"/>
<path class="st1" d="M41.4,8.3c0,0-25.3,55.2-16.3,201.6c0,0,17-7.2,41.8,5.4l6-43.9L62.1,38.2C62.1,38.2,49.5,10.7,41.4,8.3z"/>
<path class="st1" d="M25.2,225.8l-0.1-16c14.1-3.8,29.1-1.8,41.8,5.4l-2.4,15.7C64.5,231,48.3,221.8,25.2,225.8z"/>
<path class="st2" d="M26.2,215c-0.1,0,1.5-0.4,3.1-0.7c0.8-0.1,1.6-0.3,2.3-0.4c0.3-0.1,0.7-0.1,1-0.1l-0.9-7.4
	c-0.4,0.1-0.8,0.1-1.2,0.1c-0.7,0.1-1.7,0.3-2.6,0.4c-1.3,0.2-2.6,0.5-3.9,0.9L26.2,215z"/>
<path class="st3" d="M30.3,210.1l0.1,0.7c0.2,0,0.5,0,0.7-0.1c0.2,0,0.5,0,0.7-0.1l-0.1-0.7c-0.2,0-0.5,0-0.7,0.1
	S30.5,210.1,30.3,210.1z"/>
<path class="st3" d="M27.9,210.5l0.1,0.7c0.2-0.1,0.4-0.1,0.6-0.1c0.2-0.1,0.5-0.1,0.7-0.1l-0.1-0.7c-0.2,0-0.5,0-0.7,0.1
	C28.3,210.4,28.1,210.5,27.9,210.5z"/>
<path class="st3" d="M25.6,211l0.2,0.7l0.6-0.2c0.2-0.1,0.4-0.1,0.6-0.1l-0.2-0.7c-0.2,0.1-0.5,0.1-0.7,0.1
	C25.9,210.9,25.8,211,25.6,211z"/>
<path class="st2" d="M32.6,213.8c0.3,0,0.7,0,1-0.1c0.6-0.1,1.5-0.1,2.3-0.2s1.7-0.1,2.3-0.1h1.1v-7.5h-1.2c-0.7,0-1.7,0.1-2.6,0.1
	s-1.9,0.2-2.6,0.2c-0.4,0.1-0.8,0.1-1.2,0.1L32.6,213.8z"/>
<path class="st3" d="M37.4,209.5v0.8h1.4v-0.8h-0.7C37.8,209.4,37.6,209.4,37.4,209.5z"/>
<path class="st3" d="M35.1,209.6l0.1,0.7c0.2,0,0.5,0,0.7-0.1h0.7v-0.7h-0.7C35.6,209.5,35.3,209.5,35.1,209.6z"/>
<path class="st3" d="M32.7,209.8l0.1,0.7c0.2,0,0.5,0,0.7-0.1c0.2,0,0.5,0,0.7-0.1l-0.1-0.7c-0.2,0-0.5,0-0.7,0.1
	C33.1,209.7,32.9,209.7,32.7,209.8z"/>
<path class="st2" d="M39.3,213.4h1.1c0.8,0,1.5,0,2.3,0.1c0.8,0.1,1.7,0.1,2.3,0.2c0.3,0.1,0.7,0.1,1,0.1l0.9-7.4
	c-0.4-0.1-0.8-0.1-1.2-0.1c-0.7-0.1-1.7-0.1-2.6-0.2c-0.9-0.1-1.7-0.1-2.6-0.1h-1.2V213.4z"/>
<path class="st3" d="M44.6,209.6l-0.1,0.7c0.2,0,0.5,0,0.7,0.1c0.2,0,0.5,0,0.7,0.1l0.1-0.7c-0.2,0-0.5,0-0.7-0.1
	C45,209.7,44.6,209.7,44.6,209.6z"/>
<polygon class="st3" points="42.3,209.5 42.2,210.2 43.5,210.3 43.6,209.6 "/>
<polygon class="st3" points="39.9,209.4 39.9,210.2 41.2,210.2 41.2,209.4 "/>
<path class="st2" d="M46,213.9c0.3,0.1,0.7,0.1,1,0.1c0.6,0.1,1.4,0.2,2.3,0.4c1.6,0.3,3.2,0.7,3.2,0.7l1.9-7.2c0,0-1.9-0.5-3.8-0.9
	c-0.9-0.2-1.7-0.4-2.6-0.4c-0.7-0.1-1.2-0.2-1.2-0.2L46,213.9z"/>
<path class="st3" d="M51.8,210.8l-0.2,0.7l1.3,0.3l0.2-0.7C52.6,210.9,52.2,210.8,51.8,210.8z"/>
<polygon class="st3" points="49.4,210.3 49.3,211 50.6,211.3 50.7,210.6 "/>
<polygon class="st3" points="47,209.9 47,210.7 48.3,210.8 48.4,210.1 "/>
<path class="st2" d="M52.6,215.1c0,0,0.4,0.1,1,0.3l1,0.3c0.4,0.1,0.8,0.3,1.1,0.4l2.1,0.8c0.3,0.2,0.6,0.3,0.9,0.4l3-6.9
	c0,0-0.4-0.2-1.1-0.5s-1.6-0.6-2.5-0.9c-0.5-0.2-0.9-0.3-1.3-0.5l-1.2-0.3c-0.7-0.2-1.2-0.3-1.2-0.3L52.6,215.1z"/>
<path class="st3" d="M58.7,212.9l-0.3,0.7l0.6,0.2c0.2,0.1,0.4,0.2,0.6,0.3l0.3-0.7c-0.2-0.1-0.4-0.2-0.6-0.3L58.7,212.9z"/>
<polygon class="st3" points="56.4,212.1 56.2,212.8 57.4,213.2 57.7,212.5 "/>
<polygon class="st3" points="54.1,211.4 53.9,212.1 55.2,212.4 55.4,211.7 "/>
<path class="st2" d="M58.8,217.3c0,0,0.4,0.2,0.9,0.4c0.7,0.3,1.4,0.6,2,1c1.4,0.8,2.9,1.6,2.9,1.6l4-6.3c0,0-1.7-1-3.4-1.9
	c-0.8-0.5-1.7-0.8-2.4-1.2s-1.1-0.5-1.1-0.5L58.8,217.3z"/>
<polygon class="st3" points="65.2,216 64.8,216.6 65.9,217.3 66.3,216.7 "/>
<polygon class="st3" points="63.1,214.8 62.7,215.5 63.9,216.1 64.2,215.5 "/>
<polygon class="st3" points="60.9,213.8 60.6,214.5 61.8,215 62.1,214.4 "/>
<path class="st2" d="M26.2,227.2c0.9-0.2,1.9-0.4,2.8-0.5c1.5-0.2,3.1-0.3,3.1-0.3l-0.5-7.5c0,0-1.8,0.1-3.6,0.4s-3.7,0.7-3.9,0.7
	L26.2,227.2z"/>
<polygon class="st3" points="30.1,222.5 30.1,223.3 31.4,223.1 31.3,222.4 "/>
<polygon class="st3" points="27.8,222.8 27.9,223.5 29.2,223.4 29.1,222.6 "/>
<path class="st3" d="M25.6,223.2l0.2,0.7c0.2-0.1,0.4-0.1,0.6-0.1c0.2-0.1,0.4-0.1,0.6-0.1l-0.1-0.7c-0.2,0.1-0.4,0.1-0.6,0.1
	C26,223.1,25.8,223.1,25.6,223.2z"/>
<path class="st2" d="M32.1,226.4c0,0,1.6-0.1,3.2-0.1h3.2l0.4-7.5h-1.1c-0.7,0-1.6-0.1-2.5-0.1c-1.8,0-3.6,0.1-3.6,0.1L32.1,226.4z"
	/>
<polygon class="st3" points="36.9,222.3 36.9,223 38.1,223.1 38.1,222.3 "/>
<polygon class="st3" points="34.6,222.3 34.6,223 35.9,223 35.9,222.3 "/>
<polygon class="st3" points="32.4,222.3 32.4,223.1 33.6,223 33.6,222.3 "/>
<path class="st2" d="M38.4,226.4c0,0,1.6,0.1,3.2,0.3c0.8,0.1,1.6,0.2,2.2,0.3c0.3,0.1,0.7,0.1,1,0.1l1.2-7.4c0,0-0.4-0.1-1.1-0.2
	s-1.5-0.2-2.4-0.3c-1.8-0.2-3.6-0.3-3.6-0.3L38.4,226.4z"/>
<polygon class="st3" points="43.7,222.8 43.6,223.6 44.8,223.7 44.9,223 "/>
<path class="st3" d="M41.4,222.6l-0.1,0.7c0.2,0,0.4,0,0.6,0.1c0.2,0,0.4,0,0.6,0.1l0.1-0.7c-0.2,0-0.4,0-0.6-0.1
	S41.6,222.6,41.4,222.6z"/>
<polygon class="st3" points="39.2,222.4 39.1,223.1 40.4,223.2 40.4,222.5 "/>
<path class="st2" d="M44.8,227l3.2,0.6c1.6,0.4,3.1,0.7,3.1,0.7l1.8-7.3c0,0-1.7-0.4-3.5-0.8l-3.5-0.6L44.8,227z"/>
<polygon class="st3" points="50.3,224 50.2,224.8 51.4,225 51.6,224.3 "/>
<path class="st3" d="M48.1,223.6l-0.1,0.7c0.2,0,0.4,0,0.6,0.1s0.4,0.1,0.6,0.1l0.2-0.7c-0.2-0.1-0.4-0.1-0.6-0.1
	C48.5,223.6,48.3,223.6,48.1,223.6z"/>
<polygon class="st3" points="45.9,223.2 45.8,223.9 47,224.1 47.1,223.4 "/>
<path class="st2" d="M51.1,228.3c0,0,0.4,0.1,1,0.3s1.4,0.4,2.1,0.6c0.7,0.2,1.4,0.4,2.1,0.7c0.6,0.2,1,0.3,1,0.3l2.4-7.1
	c0,0-0.4-0.1-1-0.3s-1.5-0.5-2.3-0.7s-1.7-0.5-2.3-0.6c-0.4-0.1-0.7-0.2-1.1-0.3L51.1,228.3z"/>
<polygon class="st3" points="56.9,225.8 56.7,226.5 57.9,226.9 58.1,226.2 "/>
<polygon class="st3" points="54.7,225.1 54.5,225.9 55.7,226.2 56,225.5 "/>
<polygon class="st3" points="52.6,224.5 52.4,225.3 53.6,225.6 53.8,224.9 "/>
<path class="st2" d="M57.3,230.1c0,0,0.4,0.1,1,0.3s1.3,0.5,2.1,0.8l3,1.2l2.9-6.9c0,0-1.6-0.6-3.3-1.3c-0.8-0.3-1.6-0.6-2.3-0.8
	s-1-0.3-1-0.3L57.3,230.1z"/>
<polygon class="st3" points="63.3,228.1 63,228.7 64.2,229.2 64.5,228.5 "/>
<polygon class="st3" points="61.2,227.2 60.9,227.9 62.1,228.4 62.4,227.7 "/>
<polygon class="st3" points="59.1,226.5 58.8,227.2 60,227.6 60.3,226.9 "/>
<path class="st4" d="M39.1,71.3c0,0,0.2,0.7,0.5,1.9s0.8,2.9,1.4,5c0.3,1,0.6,2.1,1,3.3s0.8,2.4,1.2,3.7c0.8,2.5,1.9,5.2,3,7.8
	c0.6,1.3,1.1,2.6,1.7,3.9s1.2,2.5,1.8,3.7s1.2,2.3,1.9,3.4s1.2,2.1,1.8,2.9s1.2,1.7,1.7,2.4s1,1.3,1.4,1.8c0.8,1,1.2,1.6,1.2,1.6
	s-0.5-0.5-1.3-1.5c-0.4-0.5-1-1-1.5-1.7s-1.1-1.5-1.8-2.3s-1.2-1.9-1.9-2.9s-1.3-2.2-2-3.4s-1.2-2.4-1.9-3.7l-1.8-3.9
	c-1.1-2.7-2.1-5.4-2.9-7.9c-0.8-2.3-1.5-4.7-2-7.1C39.9,76,39.4,73.6,39.1,71.3z"/>
<path class="st4" d="M31.4,111.8c0,0-0.4,2-0.7,5c-0.2,1.7-0.2,3.5-0.2,5.2c0,2,0.2,3.9,0.5,5.9c0.2,1,0.4,1.9,0.7,2.9
	c0.3,0.9,0.6,1.8,1,2.7l0.6,1.2c0.2,0.4,0.4,0.8,0.7,1.1c0.2,0.3,0.4,0.7,0.7,1c0.2,0.3,0.5,0.6,0.7,0.9c0.5,0.6,1,1.1,1.4,1.5
	s0.9,0.7,1.2,1l1.1,0.8c-0.4-0.3-0.8-0.5-1.2-0.7c-0.4-0.3-0.9-0.6-1.3-0.9c-0.5-0.4-1.1-0.9-1.5-1.4c-0.3-0.3-0.5-0.6-0.8-0.9
	s-0.5-0.7-0.8-1c-0.3-0.3-0.5-0.7-0.7-1.1c-0.3-0.4-0.5-0.8-0.7-1.3c-0.4-0.9-0.8-1.8-1.1-2.8c-0.3-1-0.6-2-0.7-3
	c-0.3-2-0.5-4-0.4-6c0-1.7,0.2-3.5,0.5-5.2c0.2-1.2,0.4-2.4,0.8-3.6C31.1,112.6,31.2,112.2,31.4,111.8z"/>
<path class="st4" d="M25.2,150.5c0,0,0.5,1.5,1.3,3.8c0.4,1.1,0.8,2.5,1.3,3.9s1,2.9,1.6,4.5c0.3,0.8,0.5,1.5,0.8,2.3
	c0.2,0.8,0.5,1.5,0.8,2.2c0.5,1.4,1,2.8,1.4,3.9c0.8,2.3,1.3,3.8,1.3,3.8s-0.7-1.5-1.7-3.7c-0.5-1.1-1.1-2.4-1.6-3.8
	c-0.3-0.7-0.6-1.4-0.9-2.2s-0.5-1.5-0.8-2.3c-0.5-1.5-1-3.1-1.5-4.5l-0.6-2.1c-0.2-0.7-0.3-1.3-0.5-1.9
	C25.7,153.1,25.4,151.8,25.2,150.5z"/>
<path class="st4" d="M63.4,127.7c0,0-1.4,3.6-3.4,9.1c-1,2.7-2.1,5.9-3.2,9.4s-2.2,7.1-3.2,10.9c-0.5,1.9-1,3.7-1.4,5.6
	s-0.7,3.7-1,5.5c-0.1,0.9-0.3,1.8-0.4,2.6s-0.2,1.7-0.3,2.5c-0.1,1.5-0.2,3.1-0.1,4.6c0,0.7,0.1,1.4,0.2,2.1c0,0.6,0.1,1.2,0.3,1.8
	c0.1,0.5,0.2,1.1,0.4,1.6c0.2,0.5,0.3,0.9,0.5,1.3c0.2,0.3,0.4,0.7,0.5,1c0.2,0.3,0.4,0.5,0.5,0.7c0.1,0.2,0.3,0.4,0.4,0.6
	c-0.1-0.2-0.3-0.3-0.4-0.5c-0.1-0.2-0.3-0.4-0.5-0.7c-0.2-0.3-0.4-0.7-0.6-1c-0.2-0.4-0.4-0.8-0.6-1.3s-0.3-1-0.5-1.6
	c-0.2-0.6-0.3-1.3-0.4-1.9c-0.1-0.7-0.2-1.4-0.2-2.1c-0.1-1.6-0.1-3.1,0-4.7c0-0.9,0.1-1.7,0.2-2.6l0.3-2.7
	c0.5-3.6,1.4-7.4,2.3-11.1s2.1-7.4,3.3-10.9s2.4-6.6,3.4-9.3s2-4.9,2.7-6.5S63.4,127.7,63.4,127.7z"/>
<circle id="LeftShoulder" class="st5" cx="41.5" cy="8.3" r="1.4"/>
</svg>
