<svg id="SleeveLT" data-name="Layer 1" xmlns="http://www.w3.org/2000/svg" viewBox="0 0 86.81 249.26">
    <defs>
        <style>.cls-1,.cls-3{fill:#fff;}.cls-1,.cls-6{stroke:#231f20;stroke-miterlimit:10;}.cls-2,.cls-5{fill:#231f20;}.cls-4,.cls-6{fill:none;}.cls-5{fill-rule:evenodd;}</style>
    </defs>
    <title>Veste</title>
    <path class="cls-1" d="M26,220.66l-6-43.9,10.9-133.2s12.6-27.5,20.7-29.9c0,0,25.3,55.2,16.3,201.6C67.82,215.26,53.72,222.06,26,220.66Z" />
    <path class="cls-2" d="M53.82,76.66s-.4,2.8-1.4,7c-.5,2.1-1.2,4.5-2,7.1a83.87,83.87,0,0,1-2.9,7.9c-.6,1.3-1.1,2.6-1.8,3.9s-1.2,2.5-1.9,3.7-1.3,2.3-2,3.4-1.3,2-1.9,2.9-1.3,1.6-1.8,2.3-1.1,1.2-1.5,1.7c-.8.9-1.3,1.5-1.3,1.5s.4-.6,1.2-1.6c.4-.5.9-1.1,1.4-1.8s1-1.5,1.7-2.4,1.2-1.9,1.8-2.9,1.2-2.2,1.9-3.4,1.2-2.4,1.8-3.7,1.1-2.6,1.7-3.9c1.1-2.6,2.1-5.3,3-7.8.4-1.3.8-2.5,1.2-3.7s.7-2.3,1-3.3c.6-2.1,1.1-3.8,1.4-5S53.82,76.66,53.82,76.66Z" />
    <path class="cls-2" d="M61.52,117.16a11.11,11.11,0,0,1,.4,1.3c.2.9.5,2.1.8,3.6s.4,3.3.5,5.2a41.23,41.23,0,0,1-.4,6c-.2,1-.4,2-.7,3a23.29,23.29,0,0,1-1.1,2.8,8.26,8.26,0,0,1-.7,1.3,10.54,10.54,0,0,1-.7,1.1,3.92,3.92,0,0,1-.8,1c-.3.3-.5.6-.8.9a17.91,17.91,0,0,1-1.5,1.4,7.7,7.7,0,0,1-1.3.9,8.6,8.6,0,0,0-1.2.7l1.1-.8c.3-.3.8-.6,1.2-1s.9-.9,1.4-1.5a5.5,5.5,0,0,0,.7-.9c.2-.3.5-.7.7-1s.5-.7.7-1.1l.6-1.2a21.52,21.52,0,0,0,1-2.7,24.6,24.6,0,0,0,.7-2.9,30,30,0,0,0,.5-5.9c0-1.9-.1-3.6-.2-5.2A50,50,0,0,0,61.52,117.16Z" />
    <path class="cls-2" d="M67.82,155.86s-.3,1.6-.9,3.9c-.2.6-.3,1.2-.5,1.9a16.55,16.55,0,0,1-.6,2.1c-.5,1.4-1,3-1.5,4.5-.3.8-.5,1.5-.8,2.3a14.46,14.46,0,0,1-.9,2.2c-.6,1.4-1.2,2.7-1.6,3.8-1,2.2-1.7,3.7-1.7,3.7s.5-1.6,1.3-3.8c.4-1.1.9-2.5,1.4-3.9a14.27,14.27,0,0,0,.8-2.2,20.94,20.94,0,0,1,.8-2.3c.5-1.5,1.1-3,1.6-4.5s.9-2.8,1.3-3.9C67.32,157.36,67.82,155.86,67.82,155.86Z" />
    <path class="cls-2" d="M29.52,133.16s.4.9,1.1,2.4,1.6,3.8,2.7,6.5,2.3,5.9,3.4,9.3,2.3,7.1,3.3,10.9a95.44,95.44,0,0,1,2.3,11.1l.3,2.7a22.75,22.75,0,0,1,.2,2.6,36.77,36.77,0,0,1,0,4.7c-.1.7-.1,1.4-.2,2.1a10.62,10.62,0,0,1-.4,1.9,7.49,7.49,0,0,1-.5,1.6,5.17,5.17,0,0,1-.6,1.3,8.79,8.79,0,0,1-.6,1c-.2.3-.4.5-.5.7a5.76,5.76,0,0,1-.4.5,4.57,4.57,0,0,1,.4-.6c.1-.2.3-.4.5-.7a9.25,9.25,0,0,1,.5-1c.2-.4.3-.8.5-1.3a7.49,7.49,0,0,0,.4-1.6l.3-1.8c.1-.6.1-1.3.2-2.1a36.07,36.07,0,0,0-.1-4.6c-.1-.8-.2-1.7-.3-2.5a23.36,23.36,0,0,0-.4-2.6c-.3-1.8-.6-3.6-1-5.5s-.9-3.7-1.4-5.6c-1-3.7-2.1-7.4-3.2-10.9s-2.2-6.6-3.2-9.4C31,136.76,29.52,133.16,29.52,133.16Z" />
    <path class="cls-1" d="M28.62,236.06l-2.4-15.8s27.3-.5,41.8-5.4l-.1,16s-5.8,4.8-17.9,6.3" />
    <path class="cls-3" d="M68,229.36s-5.6,5-18,6.2" />
    <path class="cls-4" d="M65.52,226.46a15.33,15.33,0,0,1-2,1.3c-.6.3-1.2.7-1.7.9s-.8.3-.8.3l2.9,6.9a8.41,8.41,0,0,1,1-.4l2.2-1.1a19.05,19.05,0,0,0,3.3-2.2Z" />
    <path class="cls-5" d="M64,232.06l-.3-.7-1.1.5.3.7Z" />
    <path class="cls-5" d="M65.92,231.06l-.4-.6-1,.6.3.7A4.89,4.89,0,0,1,65.92,231.06Z" />
    <path class="cls-5" d="M67.72,229.86l-.5-.6a8.65,8.65,0,0,1-1,.7l.4.6a1.46,1.46,0,0,0,.5-.3A4.57,4.57,0,0,1,67.72,229.86Z" />
    <path class="cls-4" d="M60.92,229s-.3.1-.8.3-1.2.4-1.9.6-1.4.5-1.9.6-.9.2-.9.2l1.7,7.3s.4-.1,1.1-.2a14.41,14.41,0,0,0,2.3-.7c.8-.3,1.7-.5,2.3-.8a5.45,5.45,0,0,1,1-.4Z" />
    <polygon class="cls-5" points="58.02 234.26 57.82 233.56 56.62 233.86 56.82 234.56 58.02 234.26" />
    <polygon class="cls-5" points="60.02 233.66 59.82 232.96 58.72 233.26 58.92 233.96 60.02 233.66" />
    <path class="cls-5" d="M62,232.86l-.3-.7s-1.1.5-1.1.4l.3.7C60.92,233.36,62,232.86,62,232.86Z" />
    <path class="cls-4" d="M55.42,230.76s-.4.1-.9.2c-.3.1-.6.1-.9.2a5.16,5.16,0,0,0-1.1.2l-2.9.4.7,7.5s1.7-.2,3.4-.5c.4-.1.9-.1,1.3-.2s.8-.2,1.1-.3l1.1-.2Z" />
    <polygon class="cls-5" points="51.62 235.46 51.52 234.76 50.42 234.96 50.42 235.66 51.62 235.46" />
    <polygon class="cls-5" points="53.82 235.16 53.62 234.46 52.52 234.66 52.62 235.36 53.82 235.16" />
    <polygon class="cls-5" points="55.92 234.76 55.72 234.06 54.52 234.26 54.72 235.06 55.92 234.76" />
    <path class="cls-3" d="M68,216.66s-13.4,6.4-41.8,5.4" />
    <path class="cls-4" d="M66.42,213.26a.31.31,0,0,0-.2.1,3.93,3.93,0,0,0-.6.2c-.6.2-1.3.5-2.1.7s-1.6.5-2.2.7-1,.3-1,.3l1.9,7.3a10.23,10.23,0,0,0,1.1-.3c.7-.2,1.6-.5,2.5-.8s1.8-.6,2.5-.9c.2-.1.3-.1.5-.2s.3-.1.4-.2l.4-.2Z" />
    <path class="cls-5" d="M63.12,218.66l-.2-.7-.6.2-.6.2.2.7.6-.2Z" />
    <polygon class="cls-5" points="65.42 217.96 65.22 217.26 63.92 217.66 64.12 218.36 65.42 217.96" />
    <path class="cls-5" d="M67.62,217.16l-.3-.7-.6.2-.6.2.3.7.6-.2Z" />
    <path class="cls-4" d="M60.32,215.26s-1.6.4-3.3.8l-3.3.6,1.3,7.4s1.8-.3,3.6-.7,3.6-.9,3.6-.9Z" />
    <polygon class="cls-5" points="56.22 220.26 56.12 219.56 54.82 219.76 54.92 220.56 56.22 220.26" />
    <path class="cls-5" d="M58.52,219.86l-.2-.7-.6.2a2.14,2.14,0,0,1-.6.1l.2.7a2.18,2.18,0,0,1,.6-.1A1.19,1.19,0,0,1,58.52,219.86Z" />
    <polygon class="cls-5" points="60.82 219.26 60.62 218.56 59.42 218.86 59.62 219.56 60.82 219.26" />
    <path class="cls-4" d="M53.72,216.66s-.4.1-1,.2-1.5.3-2.3.4l-3.4.4.8,7.5,3.6-.4c.9-.1,1.8-.3,2.5-.4s1.1-.2,1.1-.2Z" />
    <polygon class="cls-5" points="49.22 221.36 49.12 220.66 47.82 220.76 47.92 221.56 49.22 221.36" />
    <polygon class="cls-5" points="51.62 221.06 51.52 220.36 50.22 220.56 50.32 221.26 51.62 221.06" />
    <polygon class="cls-5" points="53.92 220.76 53.82 219.96 52.52 220.16 52.62 220.96 53.92 220.76" />
    <path class="cls-4" d="M47,217.56a8.66,8.66,0,0,0-1.1.1,15.16,15.16,0,0,1-2.3.2l-3.4.2.4,7.5,3.6-.2c.9,0,1.8-.2,2.5-.2a8.66,8.66,0,0,1,1.1-.1Z" />
    <polygon class="cls-5" points="42.22 222.06 42.12 221.26 40.82 221.36 40.92 222.16 42.22 222.06" />
    <polygon class="cls-5" points="44.52 221.96 44.52 221.16 43.22 221.26 43.22 221.96 44.52 221.96" />
    <polygon class="cls-5" points="46.92 221.66 46.82 220.96 45.52 221.06 45.62 221.86 46.92 221.66" />
    <path class="cls-4" d="M40.12,218.16l-3.4.2a19.14,19.14,0,0,1-2.4,0h-1.1l.1,7.5h3.6l3.6-.2Z" />
    <polygon class="cls-5" points="35.12 222.36 35.12 221.66 33.82 221.66 33.82 222.36 35.12 222.36" />
    <polygon class="cls-5" points="37.52 222.36 37.42 221.56 36.12 221.66 36.12 222.36 37.52 222.36" />
    <polygon class="cls-5" points="39.82 222.16 39.82 221.46 38.52 221.56 38.52 222.26 39.82 222.16" />
    <polygon class="cls-4" points="33.22 218.36 26.32 218.36 26.02 225.86 33.32 225.86 33.22 218.36" />
    <polygon class="cls-5" points="28.02 222.36 28.02 221.56 26.72 221.56 26.72 222.36 28.02 222.36" />
    <polygon class="cls-5" points="30.42 222.36 30.42 221.66 29.12 221.56 29.12 222.36 30.42 222.36" />
    <polygon class="cls-5" points="32.72 222.36 32.72 221.66 31.42 221.66 31.42 222.36 32.72 222.36" />
    <path class="cls-6" d="M31.52,45.16l18.7,193.1s-14,2-21.6-2.2" />
    <rect class="cls-4" x="30.62" y="40.57" width="3.7" height="3.3" transform="translate(-4.06 3.46) rotate(-5.74)" />
    <rect class="cls-2" x="32.33" y="43.07" width="0.4" height="0.6" transform="translate(-4.17 3.47) rotate(-5.74)" />
    <rect class="cls-2" x="32.23" y="41.97" width="0.4" height="0.6" transform="translate(-4.03 3.42) rotate(-5.68)" />
    <rect class="cls-2" x="32.13" y="40.87" width="0.4" height="0.6" transform="translate(-3.92 3.4) rotate(-5.68)" />
    <rect class="cls-4" x="30.92" y="43.86" width="3.8" height="3.3" transform="translate(-4.39 3.51) rotate(-5.74)" />
    <rect class="cls-2" x="32.74" y="46.36" width="0.4" height="0.6" transform="matrix(0.99, -0.1, 0.1, 0.99, -4.51, 3.54)" />
    <rect class="cls-2" x="32.63" y="45.26" width="0.4" height="0.6" transform="translate(-4.35 3.47) rotate(-5.68)" />
    <rect class="cls-2" x="32.53" y="44.16" width="0.4" height="0.6" transform="translate(-4.24 3.46) rotate(-5.68)" />
    <rect class="cls-4" x="31.23" y="47.27" width="3.8" height="3.3" transform="translate(-4.73 3.56) rotate(-5.74)" />
    <rect class="cls-2" x="33.04" y="49.67" width="0.4" height="0.6" transform="translate(-4.84 3.59) rotate(-5.76)" />
    <rect class="cls-2" x="32.94" y="48.57" width="0.4" height="0.6" transform="translate(-4.73 3.57) rotate(-5.76)" />
    <rect class="cls-2" x="32.84" y="47.47" width="0.4" height="0.6" transform="matrix(0.99, -0.1, 0.1, 0.99, -4.62, 3.55)" />
    <rect class="cls-4" x="31.64" y="50.57" width="3.7" height="3.3" transform="translate(-5.07 3.62) rotate(-5.76)" />
    <rect class="cls-2" x="33.43" y="53.06" width="0.4" height="0.6" transform="translate(-5.12 3.59) rotate(-5.68)" />
    <rect class="cls-2" x="33.34" y="51.86" width="0.4" height="0.6" transform="translate(-5.06 3.63) rotate(-5.76)" />
    <rect class="cls-2" x="33.13" y="50.87" width="0.4" height="0.6" transform="translate(-4.95 3.59) rotate(-5.74)" />
    <rect class="cls-4" x="31.92" y="53.87" width="3.7" height="3.3" transform="translate(-5.38 3.66) rotate(-5.74)" />
    <rect class="cls-2" x="33.73" y="56.36" width="0.4" height="0.6" transform="translate(-5.44 3.64) rotate(-5.68)" />
    <rect class="cls-2" x="33.64" y="55.26" width="0.4" height="0.6" transform="translate(-5.4 3.67) rotate(-5.76)" />
    <rect class="cls-2" x="33.54" y="54.16" width="0.4" height="0.6" transform="matrix(0.99, -0.1, 0.1, 0.99, -5.29, 3.66)" />
    <rect class="cls-4" x="32.32" y="57.16" width="3.7" height="3.3" transform="translate(-5.71 3.71) rotate(-5.74)" />
    <rect class="cls-2" x="34.04" y="59.67" width="0.4" height="0.6" transform="translate(-5.84 3.74) rotate(-5.76)" />
    <rect class="cls-2" x="33.94" y="58.57" width="0.4" height="0.6" transform="translate(-5.73 3.72) rotate(-5.76)" />
    <rect class="cls-2" x="33.84" y="57.47" width="0.4" height="0.6" transform="translate(-5.62 3.71) rotate(-5.76)" />
    <rect class="cls-4" x="32.62" y="60.47" width="3.7" height="3.3" transform="translate(-6.04 3.76) rotate(-5.74)" />
    <rect class="cls-2" x="34.44" y="62.96" width="0.4" height="0.6" transform="translate(-6.17 3.79) rotate(-5.76)" />
    <rect class="cls-2" x="34.34" y="61.86" width="0.4" height="0.6" transform="translate(-6.06 3.78) rotate(-5.76)" />
    <rect class="cls-2" x="34.14" y="60.77" width="0.4" height="0.6" transform="translate(-5.95 3.75) rotate(-5.76)" />
    <rect class="cls-4" x="32.93" y="63.86" width="3.8" height="3.3" transform="translate(-6.38 3.81) rotate(-5.74)" />
    <rect class="cls-2" x="34.74" y="66.27" width="0.4" height="0.6" transform="translate(-6.5 3.84) rotate(-5.76)" />
    <rect class="cls-2" x="34.64" y="65.17" width="0.4" height="0.6" transform="translate(-6.39 3.82) rotate(-5.76)" />
    <rect class="cls-2" x="34.54" y="64.06" width="0.4" height="0.6" transform="translate(-6.28 3.81) rotate(-5.76)" />
    <rect class="cls-4" x="33.32" y="67.16" width="3.8" height="3.3" transform="translate(-6.7 3.87) rotate(-5.74)" />
    <rect class="cls-2" x="35.04" y="69.67" width="0.4" height="0.6" transform="translate(-6.84 3.89) rotate(-5.76)" />
    <rect class="cls-2" x="34.93" y="68.56" width="0.4" height="0.6" transform="translate(-6.64 3.82) rotate(-5.68)" />
    <rect class="cls-2" x="34.83" y="67.46" width="0.4" height="0.6" transform="translate(-6.54 3.8) rotate(-5.68)" />
    <rect class="cls-4" x="33.62" y="70.46" width="3.8" height="3.3" transform="translate(-7.03 3.91) rotate(-5.74)" />
    <rect class="cls-2" x="35.44" y="72.96" width="0.4" height="0.6" transform="translate(-7.17 3.94) rotate(-5.76)" />
    <rect class="cls-2" x="35.34" y="71.86" width="0.4" height="0.6" transform="translate(-7.06 3.93) rotate(-5.76)" />
    <rect class="cls-2" x="35.24" y="70.76" width="0.4" height="0.6" transform="translate(-6.95 3.91) rotate(-5.76)" />
    <rect class="cls-4" x="33.94" y="73.77" width="3.7" height="3.3" transform="translate(-7.38 3.97) rotate(-5.76)" />
    <rect class="cls-2" x="35.74" y="76.27" width="0.4" height="0.6" transform="translate(-7.5 3.99) rotate(-5.76)" />
    <rect class="cls-2" x="35.64" y="75.17" width="0.4" height="0.6" transform="translate(-7.39 3.98) rotate(-5.76)" />
    <rect class="cls-2" x="35.54" y="74.06" width="0.4" height="0.6" transform="translate(-7.28 3.96) rotate(-5.76)" />
    <rect class="cls-4" x="34.33" y="77.16" width="3.7" height="3.3" transform="translate(-7.7 4.01) rotate(-5.74)" />
    <rect class="cls-2" x="36.02" y="79.57" width="0.4" height="0.6" transform="translate(-7.73 3.98) rotate(-5.68)" />
    <rect class="cls-2" x="35.94" y="78.47" width="0.4" height="0.6" transform="translate(-7.72 4.02) rotate(-5.76)" />
    <rect class="cls-2" x="35.84" y="77.37" width="0.4" height="0.6" transform="translate(-7.61 4.01) rotate(-5.76)" />
    <rect class="cls-4" x="34.63" y="80.47" width="3.7" height="3.3" transform="translate(-8.03 4.06) rotate(-5.74)" />
    <rect class="cls-2" x="36.43" y="82.96" width="0.4" height="0.6" transform="translate(-8.14 4.08) rotate(-5.74)" />
    <rect class="cls-2" x="36.35" y="81.86" width="0.4" height="0.6" transform="translate(-8.06 4.08) rotate(-5.76)" />
    <rect class="cls-2" x="36.25" y="80.76" width="0.4" height="0.6" transform="translate(-7.95 4.06) rotate(-5.76)" />
    <rect class="cls-4" x="34.92" y="83.77" width="3.8" height="3.3" transform="translate(-8.36 4.11) rotate(-5.74)" />
    <rect class="cls-2" x="36.74" y="86.27" width="0.4" height="0.6" transform="translate(-8.5 4.14) rotate(-5.76)" />
    <rect class="cls-2" x="36.64" y="85.17" width="0.4" height="0.6" transform="translate(-8.39 4.13) rotate(-5.76)" />
    <rect class="cls-2" x="36.54" y="84.06" width="0.4" height="0.6" transform="translate(-8.28 4.11) rotate(-5.76)" />
    <rect class="cls-4" x="35.32" y="87.06" width="3.8" height="3.3" transform="translate(-8.68 4.17) rotate(-5.74)" />
    <rect class="cls-2" x="37.04" y="89.57" width="0.4" height="0.6" transform="translate(-8.83 4.19) rotate(-5.76)" />
    <rect class="cls-2" x="36.94" y="88.47" width="0.4" height="0.6" transform="translate(-8.72 4.17) rotate(-5.76)" />
    <rect class="cls-2" x="36.84" y="87.37" width="0.4" height="0.6" transform="translate(-8.61 4.16) rotate(-5.76)" />
    <rect class="cls-4" x="35.64" y="90.37" width="3.7" height="3.3" transform="translate(-9.04 4.22) rotate(-5.76)" />
    <rect class="cls-2" x="37.44" y="92.86" width="0.4" height="0.6" transform="translate(-9.15 4.24) rotate(-5.76)" />
    <rect class="cls-2" x="37.32" y="91.76" width="0.4" height="0.6" transform="translate(-8.93 4.17) rotate(-5.68)" />
    <rect class="cls-2" x="37.12" y="90.76" width="0.4" height="0.6" transform="translate(-8.81 4.13) rotate(-5.66)" />
    <rect class="cls-4" x="35.93" y="93.77" width="3.7" height="3.3" transform="translate(-9.35 4.26) rotate(-5.74)" />
    <rect class="cls-2" x="37.75" y="96.27" width="0.4" height="0.6" transform="translate(-9.49 4.29) rotate(-5.76)" />
    <rect class="cls-2" x="37.63" y="95.16" width="0.4" height="0.6" transform="translate(-9.26 4.21) rotate(-5.68)" />
    <rect class="cls-2" x="37.55" y="94.07" width="0.4" height="0.6" transform="translate(-9.27 4.26) rotate(-5.76)" />
    <rect class="cls-4" x="36.32" y="97.06" width="3.7" height="3.3" transform="translate(-9.68 4.31) rotate(-5.74)" />
    <rect class="cls-2" x="38.04" y="99.57" width="0.4" height="0.6" transform="translate(-9.82 4.34) rotate(-5.76)" />
    <rect class="cls-2" x="37.94" y="98.47" width="0.4" height="0.6" transform="translate(-9.71 4.32) rotate(-5.76)" />
    <rect class="cls-2" x="37.84" y="97.37" width="0.4" height="0.6" transform="translate(-9.6 4.31) rotate(-5.76)" />
    <rect class="cls-4" x="36.62" y="100.37" width="3.7" height="3.3" transform="translate(-10.01 4.36) rotate(-5.74)" />
    <rect class="cls-2" x="38.31" y="102.86" width="0.4" height="0.6" transform="translate(-9.99 4.3) rotate(-5.66)" />
    <rect class="cls-2" x="38.34" y="101.76" width="0.4" height="0.6" transform="translate(-10.04 4.38) rotate(-5.76)" />
    <rect class="cls-2" x="38.24" y="100.66" width="0.4" height="0.6" transform="translate(-9.93 4.36) rotate(-5.76)" />
    <rect class="cls-4" x="36.93" y="103.77" width="3.8" height="3.3" transform="translate(-10.35 4.41) rotate(-5.74)" />
    <rect class="cls-2" x="38.72" y="106.16" width="0.4" height="0.6" transform="translate(-10.35 4.38) rotate(-5.68)" />
    <rect class="cls-2" x="38.64" y="105.07" width="0.4" height="0.6" transform="translate(-10.37 4.43) rotate(-5.76)" />
    <rect class="cls-2" x="38.54" y="103.97" width="0.4" height="0.6" transform="translate(-10.26 4.41) rotate(-5.76)" />
    <rect class="cls-4" x="37.33" y="107.06" width="3.8" height="3.3" transform="translate(-10.67 4.47) rotate(-5.74)" />
    <rect class="cls-2" x="39.05" y="109.57" width="0.4" height="0.6" transform="translate(-10.82 4.49) rotate(-5.76)" />
    <rect class="cls-2" x="38.95" y="108.47" width="0.4" height="0.6" transform="translate(-10.71 4.47) rotate(-5.76)" />
    <rect class="cls-2" x="38.85" y="107.37" width="0.4" height="0.6" transform="translate(-10.6 4.46) rotate(-5.76)" />
    <rect class="cls-4" x="37.64" y="110.37" width="3.7" height="3.3" transform="translate(-11.04 4.53) rotate(-5.76)" />
    <rect class="cls-2" x="39.44" y="112.87" width="0.4" height="0.6" transform="translate(-11.15 4.55) rotate(-5.76)" />
    <rect class="cls-2" x="39.34" y="111.76" width="0.4" height="0.6" transform="translate(-11.04 4.53) rotate(-5.76)" />
    <rect class="cls-2" x="39.24" y="110.66" width="0.4" height="0.6" transform="translate(-10.93 4.52) rotate(-5.76)" />
    <rect class="cls-4" x="37.92" y="113.67" width="3.7" height="3.3" transform="translate(-11.33 4.56) rotate(-5.74)" />
    <rect class="cls-2" x="39.74" y="116.17" width="0.4" height="0.6" transform="translate(-11.48 4.59) rotate(-5.76)" />
    <rect class="cls-2" x="39.64" y="115.07" width="0.4" height="0.6" transform="translate(-11.37 4.58) rotate(-5.76)" />
    <rect class="cls-2" x="39.53" y="113.96" width="0.4" height="0.6" transform="translate(-11.12 4.49) rotate(-5.68)" />
    <rect class="cls-4" x="38.33" y="117.06" width="3.7" height="3.3" transform="translate(-11.67 4.61) rotate(-5.74)" />
    <rect class="cls-2" x="40.14" y="119.46" width="0.4" height="0.6" transform="translate(-11.81 4.65) rotate(-5.76)" />
    <rect class="cls-2" x="39.91" y="118.36" width="0.4" height="0.6" transform="translate(-11.52 4.54) rotate(-5.66)" />
    <rect class="cls-2" x="39.82" y="117.27" width="0.4" height="0.6" transform="translate(-11.44 4.54) rotate(-5.68)" />
    <rect class="cls-4" x="38.63" y="120.37" width="3.7" height="3.3" transform="translate(-12 4.66) rotate(-5.74)" />
    <rect class="cls-2" x="40.45" y="122.87" width="0.4" height="0.6" transform="translate(-12.15 4.7) rotate(-5.76)" />
    <rect class="cls-2" x="40.35" y="121.77" width="0.4" height="0.6" transform="translate(-12.04 4.68) rotate(-5.76)" />
    <rect class="cls-2" x="40.25" y="120.66" width="0.4" height="0.6" transform="translate(-11.93 4.67) rotate(-5.76)" />
    <rect class="cls-4" x="38.92" y="123.67" width="3.8" height="3.3" transform="translate(-12.33 4.71) rotate(-5.74)" />
    <rect class="cls-2" x="40.74" y="126.17" width="0.4" height="0.6" transform="translate(-12.48 4.74) rotate(-5.76)" />
    <rect class="cls-2" x="40.64" y="125.07" width="0.4" height="0.6" transform="translate(-12.37 4.73) rotate(-5.76)" />
    <rect class="cls-2" x="40.54" y="123.97" width="0.4" height="0.6" transform="translate(-12.26 4.71) rotate(-5.76)" />
    <rect class="cls-4" x="39.32" y="126.96" width="3.8" height="3.3" transform="translate(-12.65 4.77) rotate(-5.74)" />
    <rect class="cls-2" x="41.02" y="129.47" width="0.4" height="0.6" transform="translate(-12.64 4.72) rotate(-5.68)" />
    <rect class="cls-2" x="40.94" y="128.37" width="0.4" height="0.6" transform="translate(-12.7 4.78) rotate(-5.76)" />
    <rect class="cls-2" x="40.84" y="127.27" width="0.4" height="0.6" transform="translate(-12.59 4.76) rotate(-5.76)" />
    <rect class="cls-4" x="39.64" y="130.27" width="3.7" height="3.3" transform="translate(-13.02 4.83) rotate(-5.76)" />
    <rect class="cls-2" x="41.44" y="132.77" width="0.4" height="0.6" transform="translate(-13.14 4.85) rotate(-5.76)" />
    <rect class="cls-2" x="41.34" y="131.67" width="0.4" height="0.6" transform="translate(-13.03 4.83) rotate(-5.76)" />
    <rect class="cls-2" x="41.24" y="130.57" width="0.4" height="0.6" transform="translate(-12.92 4.82) rotate(-5.76)" />
    <rect class="cls-4" x="39.93" y="133.67" width="3.7" height="3.3" transform="translate(-13.32 4.86) rotate(-5.74)" />
    <rect class="cls-2" x="41.75" y="136.17" width="0.4" height="0.6" transform="translate(-13.48 4.9) rotate(-5.76)" />
    <rect class="cls-2" x="41.65" y="135.07" width="0.4" height="0.6" transform="translate(-13.37 4.88) rotate(-5.76)" />
    <rect class="cls-2" x="41.54" y="133.87" width="0.4" height="0.6" transform="translate(-13.25 4.86) rotate(-5.76)" />
    <rect class="cls-4" x="40.32" y="136.97" width="3.7" height="3.3" transform="translate(-13.65 4.91) rotate(-5.74)" />
    <rect class="cls-2" x="42.14" y="139.46" width="0.4" height="0.6" transform="translate(-13.8 4.95) rotate(-5.76)" />
    <rect class="cls-2" x="41.94" y="138.37" width="0.4" height="0.6" transform="translate(-13.7 4.93) rotate(-5.76)" />
    <rect class="cls-2" x="41.84" y="137.27" width="0.4" height="0.6" transform="translate(-13.59 4.91) rotate(-5.76)" />
    <rect class="cls-4" x="40.62" y="140.27" width="3.7" height="3.3" transform="translate(-13.98 4.96) rotate(-5.74)" />
    <rect class="cls-2" x="42.42" y="142.76" width="0.4" height="0.6" transform="translate(-14.09 4.98) rotate(-5.74)" />
    <rect class="cls-2" x="42.33" y="141.66" width="0.4" height="0.6" transform="translate(-13.84 4.91) rotate(-5.68)" />
    <rect class="cls-2" x="42.23" y="140.56" width="0.4" height="0.6" transform="translate(-13.74 4.89) rotate(-5.68)" />
    <rect class="cls-4" x="40.92" y="143.57" width="3.8" height="3.3" transform="translate(-14.31 5.01) rotate(-5.74)" />
    <rect class="cls-2" x="42.74" y="146.07" width="0.4" height="0.6" transform="translate(-14.46 5.04) rotate(-5.76)" />
    <rect class="cls-2" x="42.64" y="144.97" width="0.4" height="0.6" transform="translate(-14.35 5.03) rotate(-5.76)" />
    <rect class="cls-2" x="42.54" y="143.87" width="0.4" height="0.6" transform="translate(-14.24 5.01) rotate(-5.76)" />
    <rect class="cls-4" x="41.33" y="146.96" width="3.8" height="3.3" transform="translate(-14.64 5.07) rotate(-5.74)" />
    <rect class="cls-2" x="43.15" y="149.46" width="0.4" height="0.6" transform="translate(-14.8 5.1) rotate(-5.76)" />
    <rect class="cls-2" x="42.94" y="148.27" width="0.4" height="0.6" transform="translate(-14.68 5.08) rotate(-5.76)" />
    <rect class="cls-2" x="42.83" y="147.27" width="0.4" height="0.6" transform="translate(-14.54 5.04) rotate(-5.74)" />
    <rect class="cls-4" x="41.64" y="150.27" width="3.7" height="3.3" transform="translate(-15.02 5.13) rotate(-5.76)" />
    <rect class="cls-2" x="43.43" y="152.76" width="0.4" height="0.6" transform="translate(-14.94 5.07) rotate(-5.68)" />
    <rect class="cls-2" x="43.34" y="151.67" width="0.4" height="0.6" transform="translate(-15.02 5.13) rotate(-5.76)" />
    <rect class="cls-2" x="43.25" y="150.57" width="0.4" height="0.6" transform="translate(-14.91 5.12) rotate(-5.76)" />
    <rect class="cls-4" x="41.92" y="153.57" width="3.7" height="3.3" transform="translate(-15.3 5.16) rotate(-5.74)" />
    <rect class="cls-2" x="43.74" y="156.07" width="0.4" height="0.6" transform="translate(-15.46 5.2) rotate(-5.76)" />
    <rect class="cls-2" x="43.64" y="154.97" width="0.4" height="0.6" transform="translate(-15.35 5.18) rotate(-5.76)" />
    <rect class="cls-2" x="43.54" y="153.87" width="0.4" height="0.6" transform="translate(-15.24 5.16) rotate(-5.76)" />
    <rect class="cls-4" x="42.32" y="156.87" width="3.7" height="3.3" transform="translate(-15.63 5.21) rotate(-5.74)" />
    <rect class="cls-2" x="44.14" y="159.37" width="0.4" height="0.6" transform="translate(-15.79 5.25) rotate(-5.76)" />
    <rect class="cls-2" x="43.92" y="158.27" width="0.4" height="0.6" transform="translate(-15.64 5.21) rotate(-5.74)" />
    <rect class="cls-2" x="43.84" y="157.17" width="0.4" height="0.6" transform="translate(-15.57 5.21) rotate(-5.76)" />
    <rect class="cls-4" x="42.63" y="160.27" width="3.7" height="3.3" transform="translate(-15.97 5.26) rotate(-5.74)" />
    <rect class="cls-2" x="44.45" y="162.77" width="0.4" height="0.6" transform="translate(-16.13 5.3) rotate(-5.76)" />
    <rect class="cls-2" x="44.34" y="161.57" width="0.4" height="0.6" transform="translate(-16.01 5.28) rotate(-5.76)" />
    <rect class="cls-2" x="44.24" y="160.47" width="0.4" height="0.6" transform="translate(-15.9 5.27) rotate(-5.76)" />
    <rect class="cls-4" x="42.93" y="163.57" width="3.8" height="3.3" transform="translate(-16.3 5.31) rotate(-5.74)" />
    <rect class="cls-2" x="44.74" y="166.07" width="0.4" height="0.6" transform="translate(-16.46 5.35) rotate(-5.76)" />
    <rect class="cls-2" x="44.63" y="164.97" width="0.4" height="0.6" transform="translate(-16.14 5.25) rotate(-5.68)" />
    <rect class="cls-2" x="44.53" y="163.86" width="0.4" height="0.6" transform="translate(-16.03 5.23) rotate(-5.68)" />
    <rect class="cls-4" x="43.32" y="166.86" width="3.8" height="3.3" transform="translate(-16.62 5.37) rotate(-5.74)" />
    <rect class="cls-2" x="45.14" y="169.37" width="0.4" height="0.6" transform="translate(-16.79 5.4) rotate(-5.76)" />
    <rect class="cls-2" x="45.04" y="168.27" width="0.4" height="0.6" transform="translate(-16.68 5.39) rotate(-5.76)" />
    <rect class="cls-2" x="44.83" y="167.17" width="0.4" height="0.6" transform="translate(-16.36 5.28) rotate(-5.68)" />
    <rect class="cls-4" x="43.64" y="170.18" width="3.7" height="3.3" transform="translate(-17 5.43) rotate(-5.76)" />
    <rect class="cls-2" x="45.44" y="172.67" width="0.4" height="0.6" transform="translate(-17.12 5.45) rotate(-5.76)" />
    <rect class="cls-2" x="45.34" y="171.57" width="0.4" height="0.6" transform="translate(-17.01 5.43) rotate(-5.76)" />
    <rect class="cls-2" x="45.24" y="170.47" width="0.4" height="0.6" transform="translate(-16.9 5.42) rotate(-5.76)" />
    <rect class="cls-4" x="44.03" y="173.56" width="3.7" height="3.3" transform="translate(-17.29 5.47) rotate(-5.74)" />
    <rect class="cls-2" x="45.72" y="175.97" width="0.4" height="0.6" transform="translate(-17.22 5.41) rotate(-5.68)" />
    <rect class="cls-2" x="45.64" y="174.87" width="0.4" height="0.6" transform="translate(-17.34 5.48) rotate(-5.76)" />
    <rect class="cls-2" x="45.54" y="173.77" width="0.4" height="0.6" transform="translate(-17.23 5.47) rotate(-5.76)" />
    <rect class="cls-4" x="44.33" y="176.87" width="3.7" height="3.3" transform="translate(-17.62 5.51) rotate(-5.74)" />
    <rect class="cls-2" x="46.14" y="179.37" width="0.4" height="0.6" transform="translate(-17.79 5.55) rotate(-5.76)" />
    <rect class="cls-2" x="45.93" y="178.27" width="0.4" height="0.6" transform="translate(-17.63 5.51) rotate(-5.74)" />
    <rect class="cls-2" x="45.85" y="177.17" width="0.4" height="0.6" transform="translate(-17.57 5.51) rotate(-5.76)" />
    <rect class="cls-4" x="44.62" y="180.17" width="3.7" height="3.3" transform="translate(-17.95 5.56) rotate(-5.74)" />
    <rect class="cls-2" x="46.44" y="182.67" width="0.4" height="0.6" transform="translate(-18.12 5.6) rotate(-5.76)" />
    <rect class="cls-2" x="46.34" y="181.57" width="0.4" height="0.6" transform="translate(-18.01 5.59) rotate(-5.76)" />
    <rect class="cls-2" x="46.24" y="180.47" width="0.4" height="0.6" transform="translate(-17.9 5.57) rotate(-5.76)" />
    <rect class="cls-4" x="44.92" y="183.47" width="3.8" height="3.3" transform="translate(-18.28 5.61) rotate(-5.74)" />
    <rect class="cls-2" x="46.74" y="185.97" width="0.4" height="0.6" transform="translate(-18.45 5.65) rotate(-5.76)" />
    <rect class="cls-2" x="46.64" y="184.87" width="0.4" height="0.6" transform="translate(-18.34 5.63) rotate(-5.76)" />
    <rect class="cls-2" x="46.54" y="183.77" width="0.4" height="0.6" transform="translate(-18.23 5.62) rotate(-5.76)" />
    <rect class="cls-4" x="45.33" y="186.86" width="3.8" height="3.3" transform="translate(-18.61 5.67) rotate(-5.74)" />
    <rect class="cls-2" x="47.14" y="189.27" width="0.4" height="0.6" transform="translate(-18.77 5.7) rotate(-5.76)" />
    <rect class="cls-2" x="46.92" y="188.17" width="0.4" height="0.6" transform="translate(-18.43 5.59) rotate(-5.68)" />
    <rect class="cls-2" x="46.83" y="187.17" width="0.4" height="0.6" transform="translate(-18.51 5.64) rotate(-5.74)" />
    <rect class="cls-4" x="45.64" y="190.18" width="3.7" height="3.3" transform="translate(-19 5.73) rotate(-5.76)" />
    <rect class="cls-2" x="47.45" y="192.67" width="0.4" height="0.6" transform="translate(-19.11 5.75) rotate(-5.76)" />
    <rect class="cls-2" x="47.33" y="191.56" width="0.4" height="0.6" transform="translate(-18.76 5.65) rotate(-5.68)" />
    <rect class="cls-2" x="47.23" y="190.46" width="0.4" height="0.6" transform="translate(-18.65 5.63) rotate(-5.68)" />
    <rect class="cls-4" x="46.02" y="193.46" width="3.7" height="3.3" transform="translate(-19.27 5.77) rotate(-5.74)" />
    <rect class="cls-2" x="47.74" y="195.97" width="0.4" height="0.6" transform="translate(-19.44 5.8) rotate(-5.76)" />
    <rect class="cls-2" x="47.64" y="194.87" width="0.4" height="0.6" transform="translate(-19.33 5.78) rotate(-5.76)" />
    <rect class="cls-2" x="47.54" y="193.77" width="0.4" height="0.6" transform="translate(-19.22 5.77) rotate(-5.76)" />
    <rect class="cls-4" x="46.32" y="196.77" width="3.7" height="3.3" transform="translate(-19.6 5.81) rotate(-5.74)" />
    <rect class="cls-2" x="48.01" y="199.26" width="0.4" height="0.6" transform="translate(-19.46 5.73) rotate(-5.66)" />
    <rect class="cls-2" x="48.04" y="198.17" width="0.4" height="0.6" transform="translate(-19.66 5.84) rotate(-5.76)" />
    <rect class="cls-2" x="47.94" y="197.07" width="0.4" height="0.6" transform="translate(-19.55 5.82) rotate(-5.76)" />
    <rect class="cls-4" x="46.63" y="200.17" width="3.8" height="3.3" transform="translate(-19.94 5.86) rotate(-5.74)" />
    <rect class="cls-2" x="48.42" y="202.56" width="0.4" height="0.6" transform="translate(-19.84 5.81) rotate(-5.68)" />
    <rect class="cls-2" x="48.34" y="201.47" width="0.4" height="0.6" transform="translate(-19.99 5.89) rotate(-5.76)" />
    <rect class="cls-2" x="48.24" y="200.37" width="0.4" height="0.6" transform="translate(-19.88 5.87) rotate(-5.76)" />
    <rect class="cls-4" x="47.03" y="203.46" width="3.8" height="3.3" transform="translate(-20.27 5.92) rotate(-5.74)" />
    <rect class="cls-2" x="48.75" y="205.98" width="0.4" height="0.6" transform="translate(-20.44 5.95) rotate(-5.76)" />
    <rect class="cls-2" x="48.65" y="204.87" width="0.4" height="0.6" transform="translate(-20.33 5.93) rotate(-5.76)" />
    <rect class="cls-2" x="48.55" y="203.77" width="0.4" height="0.6" transform="translate(-20.22 5.92) rotate(-5.76)" />
    <rect class="cls-4" x="47.32" y="206.76" width="3.8" height="3.3" transform="translate(-20.59 5.97) rotate(-5.74)" />
    <rect class="cls-2" x="49.14" y="209.27" width="0.4" height="0.6" transform="translate(-20.77 6.01) rotate(-5.76)" />
    <rect class="cls-2" x="49.04" y="208.17" width="0.4" height="0.6" transform="translate(-20.66 5.99) rotate(-5.76)" />
    <rect class="cls-2" x="48.83" y="207.07" width="0.4" height="0.6" transform="translate(-20.49 5.94) rotate(-5.74)" />
    <rect class="cls-4" x="47.64" y="210.08" width="3.7" height="3.3" transform="translate(-20.99 6.03) rotate(-5.76)" />
    <rect class="cls-2" x="49.44" y="212.57" width="0.4" height="0.6" transform="translate(-21.1 6.05) rotate(-5.76)" />
    <rect class="cls-2" x="49.34" y="211.47" width="0.4" height="0.6" transform="translate(-20.99 6.04) rotate(-5.76)" />
    <rect class="cls-2" x="49.24" y="210.37" width="0.4" height="0.6" transform="translate(-20.88 6.02) rotate(-5.76)" />
    <rect class="cls-4" x="48.03" y="213.47" width="3.7" height="3.3" transform="translate(-21.26 6.07) rotate(-5.74)" />
    <rect class="cls-2" x="49.74" y="215.88" width="0.4" height="0.6" transform="translate(-21.43 6.1) rotate(-5.76)" />
    <rect class="cls-2" x="49.62" y="214.77" width="0.4" height="0.6" transform="translate(-21.05 5.99) rotate(-5.68)" />
    <rect class="cls-2" x="49.52" y="213.67" width="0.4" height="0.6" transform="translate(-20.94 5.97) rotate(-5.68)" />
    <rect class="cls-4" x="48.33" y="216.77" width="3.7" height="3.3" transform="translate(-21.59 6.11) rotate(-5.74)" />
    <rect class="cls-2" x="50.15" y="219.27" width="0.4" height="0.6" transform="translate(-21.77 6.16) rotate(-5.76)" />
    <rect class="cls-2" x="49.93" y="218.17" width="0.4" height="0.6" transform="translate(-21.6 6.11) rotate(-5.74)" />
    <rect class="cls-2" x="49.95" y="217.07" width="0.4" height="0.6" transform="translate(-21.55 6.13) rotate(-5.76)" />
    <rect class="cls-4" x="48.62" y="220.07" width="3.7" height="3.3" transform="translate(-21.92 6.16) rotate(-5.74)" />
    <rect class="cls-2" x="50.44" y="222.57" width="0.4" height="0.6" transform="translate(-22.1 6.2) rotate(-5.76)" />
    <rect class="cls-2" x="50.34" y="221.47" width="0.4" height="0.6" transform="translate(-21.99 6.19) rotate(-5.76)" />
    <rect class="cls-2" x="50.24" y="220.37" width="0.4" height="0.6" transform="translate(-21.88 6.17) rotate(-5.76)" />
    <rect class="cls-4" x="49.02" y="223.36" width="3.8" height="3.3" transform="translate(-22.25 6.22) rotate(-5.74)" />
    <rect class="cls-2" x="50.72" y="225.87" width="0.4" height="0.6" transform="translate(-22.14 6.15) rotate(-5.68)" />
    <rect class="cls-2" x="50.64" y="224.78" width="0.4" height="0.6" transform="translate(-22.32 6.23) rotate(-5.76)" />
    <rect class="cls-2" x="50.54" y="223.67" width="0.4" height="0.6" transform="translate(-22.21 6.22) rotate(-5.76)" />
    <rect class="cls-4" x="49.32" y="226.66" width="3.8" height="3.3" transform="translate(-22.57 6.27) rotate(-5.74)" />
    <rect class="cls-2" x="51.14" y="229.17" width="0.4" height="0.6" transform="translate(-22.76 6.31) rotate(-5.76)" />
    <rect class="cls-2" x="51.04" y="228.07" width="0.4" height="0.6" transform="translate(-22.65 6.29) rotate(-5.76)" />
    <rect class="cls-2" x="50.94" y="226.97" width="0.4" height="0.6" transform="translate(-22.54 6.28) rotate(-5.76)" />
    <rect class="cls-4" x="49.65" y="230.08" width="3.7" height="3.3" transform="translate(-22.98 6.33) rotate(-5.76)" />
    <rect class="cls-2" x="51.45" y="232.57" width="0.4" height="0.6" transform="translate(-23.1 6.35) rotate(-5.76)" />
    <rect class="cls-2" x="51.35" y="231.47" width="0.4" height="0.6" transform="translate(-22.99 6.34) rotate(-5.76)" />
    <rect class="cls-2" x="51.25" y="230.37" width="0.4" height="0.6" transform="translate(-22.88 6.32) rotate(-5.76)" />
    <rect class="cls-4" x="50.02" y="233.37" width="3.7" height="3.3" transform="translate(-23.24 6.37) rotate(-5.74)" />
    <rect class="cls-2" x="51.84" y="235.87" width="0.4" height="0.6" transform="translate(-23.42 6.41) rotate(-5.76)" />
    <rect class="cls-2" x="51.65" y="234.78" width="0.4" height="0.6" transform="translate(-23.32 6.39) rotate(-5.76)" />
    <rect class="cls-2" x="51.55" y="233.68" width="0.4" height="0.6" transform="translate(-23.21 6.37) rotate(-5.76)" />
    <rect class="cls-4" x="32.53" y="38.97" width="3.7" height="3.3" transform="matrix(0.99, -0.1, 0.1, 0.99, -3.89, 3.64)" />
    <rect class="cls-2" x="34.33" y="41.46" width="0.4" height="0.6" transform="translate(-4 3.66) rotate(-5.74)" />
    <rect class="cls-2" x="34.22" y="40.26" width="0.4" height="0.6" transform="matrix(1, -0.1, 0.1, 1, -3.85, 3.61)" />
    <rect class="cls-2" x="34.12" y="39.16" width="0.4" height="0.6" transform="translate(-3.74 3.59) rotate(-5.68)" />
    <rect class="cls-4" x="32.83" y="42.27" width="3.8" height="3.3" transform="translate(-4.22 3.69) rotate(-5.74)" />
    <rect class="cls-2" x="34.64" y="44.77" width="0.4" height="0.6" transform="translate(-4.34 3.72) rotate(-5.76)" />
    <rect class="cls-2" x="34.53" y="43.66" width="0.4" height="0.6" transform="translate(-4.18 3.65) rotate(-5.68)" />
    <rect class="cls-2" x="34.43" y="42.56" width="0.4" height="0.6" transform="translate(-4.07 3.64) rotate(-5.68)" />
    <rect class="cls-4" x="33.22" y="45.56" width="3.8" height="3.3" transform="translate(-4.54 3.75) rotate(-5.74)" />
    <rect class="cls-2" x="35.04" y="48.06" width="0.4" height="0.6" transform="translate(-4.67 3.78) rotate(-5.76)" />
    <rect class="cls-2" x="34.94" y="46.96" width="0.4" height="0.6" transform="translate(-4.56 3.76) rotate(-5.76)" />
    <rect class="cls-2" x="34.74" y="45.87" width="0.4" height="0.6" transform="translate(-4.45 3.74) rotate(-5.76)" />
    <rect class="cls-4" x="33.54" y="48.87" width="3.7" height="3.3" transform="translate(-4.89 3.8) rotate(-5.76)" />
    <rect class="cls-2" x="35.32" y="51.36" width="0.4" height="0.6" transform="translate(-4.94 3.77) rotate(-5.68)" />
    <rect class="cls-2" x="35.24" y="50.26" width="0.4" height="0.6" transform="translate(-4.89 3.81) rotate(-5.76)" />
    <rect class="cls-2" x="35.12" y="49.16" width="0.4" height="0.6" transform="translate(-4.77 3.78) rotate(-5.74)" />
    <rect class="cls-4" x="33.93" y="52.26" width="3.7" height="3.3" transform="translate(-5.21 3.85) rotate(-5.74)" />
    <rect class="cls-2" x="35.62" y="54.67" width="0.4" height="0.6" transform="translate(-5.27 3.82) rotate(-5.68)" />
    <rect class="cls-2" x="35.54" y="53.57" width="0.4" height="0.6" transform="translate(-5.22 3.86) rotate(-5.76)" />
    <rect class="cls-2" x="35.44" y="52.47" width="0.4" height="0.6" transform="translate(-5.11 3.84) rotate(-5.76)" />
    <rect class="cls-4" x="34.23" y="55.57" width="3.7" height="3.3" transform="translate(-5.54 3.89) rotate(-5.74)" />
    <rect class="cls-2" x="36.04" y="58.06" width="0.4" height="0.6" transform="translate(-5.67 3.93) rotate(-5.76)" />
    <rect class="cls-2" x="35.95" y="56.96" width="0.4" height="0.6" transform="translate(-5.56 3.91) rotate(-5.76)" />
    <rect class="cls-2" x="35.75" y="55.87" width="0.4" height="0.6" transform="translate(-5.45 3.89) rotate(-5.76)" />
    <rect class="cls-4" x="34.52" y="58.87" width="3.7" height="3.3" transform="translate(-5.87 3.94) rotate(-5.74)" />
    <rect class="cls-2" x="36.34" y="61.37" width="0.4" height="0.6" transform="translate(-6 3.98) rotate(-5.76)" />
    <rect class="cls-2" x="36.24" y="60.26" width="0.4" height="0.6" transform="translate(-5.89 3.96) rotate(-5.76)" />
    <rect class="cls-2" x="36.14" y="59.16" width="0.4" height="0.6" transform="translate(-5.78 3.94) rotate(-5.76)" />
    <rect class="cls-4" x="34.82" y="62.17" width="3.8" height="3.3" transform="translate(-6.2 3.99) rotate(-5.74)" />
    <rect class="cls-2" x="36.64" y="64.67" width="0.4" height="0.6" transform="translate(-6.33 4.02) rotate(-5.76)" />
    <rect class="cls-2" x="36.54" y="63.57" width="0.4" height="0.6" transform="translate(-6.22 4.01) rotate(-5.76)" />
    <rect class="cls-2" x="36.44" y="62.47" width="0.4" height="0.6" transform="translate(-6.11 3.99) rotate(-5.76)" />
    <rect class="cls-4" x="35.23" y="65.56" width="3.8" height="3.3" transform="translate(-6.53 4.05) rotate(-5.74)" />
    <rect class="cls-2" x="37.04" y="67.96" width="0.4" height="0.6" transform="translate(-6.66 4.08) rotate(-5.76)" />
    <rect class="cls-2" x="36.82" y="66.87" width="0.4" height="0.6" transform="translate(-6.47 4) rotate(-5.68)" />
    <rect class="cls-2" x="36.72" y="65.77" width="0.4" height="0.6" transform="translate(-6.36 3.98) rotate(-5.68)" />
    <rect class="cls-4" x="35.53" y="68.86" width="3.8" height="3.3" transform="translate(-6.86 4.1) rotate(-5.74)" />
    <rect class="cls-2" x="37.35" y="71.37" width="0.4" height="0.6" transform="translate(-7 4.13) rotate(-5.76)" />
    <rect class="cls-2" x="37.25" y="70.26" width="0.4" height="0.6" transform="translate(-6.89 4.11) rotate(-5.76)" />
    <rect class="cls-2" x="37.15" y="69.16" width="0.4" height="0.6" transform="translate(-6.78 4.1) rotate(-5.76)" />
    <rect class="cls-4" x="35.94" y="72.16" width="3.7" height="3.3" transform="translate(-7.21 4.16) rotate(-5.76)" />
    <rect class="cls-2" x="37.64" y="74.67" width="0.4" height="0.6" transform="translate(-7.33 4.17) rotate(-5.76)" />
    <rect class="cls-2" x="37.54" y="73.57" width="0.4" height="0.6" transform="translate(-7.22 4.16) rotate(-5.76)" />
    <rect class="cls-2" x="37.44" y="72.47" width="0.4" height="0.6" transform="translate(-7.11 4.14) rotate(-5.76)" />
    <rect class="cls-4" x="36.22" y="75.47" width="3.7" height="3.3" transform="translate(-7.52 4.19) rotate(-5.74)" />
    <rect class="cls-2" x="38.02" y="77.96" width="0.4" height="0.6" transform="translate(-7.56 4.17) rotate(-5.68)" />
    <rect class="cls-2" x="37.94" y="76.86" width="0.4" height="0.6" transform="translate(-7.55 4.21) rotate(-5.76)" />
    <rect class="cls-2" x="37.74" y="75.77" width="0.4" height="0.6" transform="translate(-7.44 4.19) rotate(-5.76)" />
    <rect class="cls-4" x="36.53" y="78.87" width="3.7" height="3.3" transform="translate(-7.86 4.24) rotate(-5.74)" />
    <rect class="cls-2" x="38.33" y="81.36" width="0.4" height="0.6" transform="translate(-7.97 4.26) rotate(-5.74)" />
    <rect class="cls-2" x="38.24" y="80.17" width="0.4" height="0.6" transform="translate(-7.88 4.26) rotate(-5.76)" />
    <rect class="cls-2" x="38.14" y="79.06" width="0.4" height="0.6" transform="translate(-7.77 4.25) rotate(-5.76)" />
    <rect class="cls-4" x="36.93" y="82.16" width="3.8" height="3.3" transform="translate(-8.19 4.3) rotate(-5.74)" />
    <rect class="cls-2" x="38.65" y="84.67" width="0.4" height="0.6" transform="translate(-8.33 4.32) rotate(-5.76)" />
    <rect class="cls-2" x="38.55" y="83.57" width="0.4" height="0.6" transform="translate(-8.22 4.31) rotate(-5.76)" />
    <rect class="cls-2" x="38.45" y="82.47" width="0.4" height="0.6" transform="translate(-8.11 4.29) rotate(-5.76)" />
    <rect class="cls-4" x="37.22" y="85.46" width="3.8" height="3.3" transform="translate(-8.51 4.35) rotate(-5.74)" />
    <rect class="cls-2" x="39.04" y="87.96" width="0.4" height="0.6" transform="translate(-8.65 4.38) rotate(-5.76)" />
    <rect class="cls-2" x="38.94" y="86.86" width="0.4" height="0.6" transform="translate(-8.54 4.37) rotate(-5.76)" />
    <rect class="cls-2" x="38.84" y="85.76" width="0.4" height="0.6" transform="translate(-8.43 4.35) rotate(-5.76)" />
    <rect class="cls-4" x="37.54" y="88.77" width="3.7" height="3.3" transform="translate(-8.87 4.41) rotate(-5.76)" />
    <rect class="cls-2" x="39.34" y="91.27" width="0.4" height="0.6" transform="translate(-8.98 4.43) rotate(-5.76)" />
    <rect class="cls-2" x="39.23" y="90.16" width="0.4" height="0.6" transform="translate(-8.76 4.35) rotate(-5.68)" />
    <rect class="cls-2" x="39.01" y="89.06" width="0.4" height="0.6" transform="translate(-8.63 4.31) rotate(-5.66)" />
    <rect class="cls-4" x="37.93" y="92.16" width="3.7" height="3.3" transform="translate(-9.18 4.45) rotate(-5.74)" />
    <rect class="cls-2" x="39.64" y="94.57" width="0.4" height="0.6" transform="translate(-9.31 4.47) rotate(-5.76)" />
    <rect class="cls-2" x="39.52" y="93.47" width="0.4" height="0.6" transform="translate(-9.09 4.39) rotate(-5.68)" />
    <rect class="cls-2" x="39.44" y="92.37" width="0.4" height="0.6" transform="translate(-9.09 4.44) rotate(-5.76)" />
    <rect class="cls-4" x="38.23" y="95.47" width="3.7" height="3.3" transform="translate(-9.51 4.49) rotate(-5.74)" />
    <rect class="cls-2" x="40.05" y="97.96" width="0.4" height="0.6" transform="translate(-9.65 4.53) rotate(-5.76)" />
    <rect class="cls-2" x="39.94" y="96.76" width="0.4" height="0.6" transform="translate(-9.53 4.51) rotate(-5.76)" />
    <rect class="cls-2" x="39.84" y="95.66" width="0.4" height="0.6" transform="translate(-9.42 4.5) rotate(-5.76)" />
    <rect class="cls-4" x="38.52" y="98.77" width="3.7" height="3.3" transform="translate(-9.84 4.54) rotate(-5.74)" />
    <rect class="cls-2" x="40.31" y="101.26" width="0.4" height="0.6" transform="translate(-9.83 4.49) rotate(-5.66)" />
    <rect class="cls-2" x="40.24" y="100.17" width="0.4" height="0.6" transform="translate(-9.87 4.56) rotate(-5.76)" />
    <rect class="cls-2" x="40.14" y="99.07" width="0.4" height="0.6" transform="translate(-9.76 4.55) rotate(-5.76)" />
    <rect class="cls-4" x="38.92" y="102.06" width="3.8" height="3.3" transform="translate(-10.17 4.6) rotate(-5.74)" />
    <rect class="cls-2" x="40.63" y="104.57" width="0.4" height="0.6" transform="translate(-10.18 4.56) rotate(-5.68)" />
    <rect class="cls-2" x="40.54" y="103.47" width="0.4" height="0.6" transform="translate(-10.2 4.61) rotate(-5.76)" />
    <rect class="cls-2" x="40.44" y="102.37" width="0.4" height="0.6" transform="translate(-10.09 4.59) rotate(-5.76)" />
    <rect class="cls-4" x="39.22" y="105.36" width="3.8" height="3.3" transform="translate(-10.49 4.65) rotate(-5.74)" />
    <rect class="cls-2" x="41.04" y="107.87" width="0.4" height="0.6" transform="translate(-10.64 4.68) rotate(-5.76)" />
    <rect class="cls-2" x="40.94" y="106.76" width="0.4" height="0.6" transform="translate(-10.53 4.67) rotate(-5.76)" />
    <rect class="cls-2" x="40.84" y="105.66" width="0.4" height="0.6" transform="translate(-10.42 4.65) rotate(-5.76)" />
    <rect class="cls-4" x="39.55" y="108.77" width="3.7" height="3.3" transform="translate(-10.87 4.71) rotate(-5.76)" />
    <rect class="cls-2" x="41.35" y="111.27" width="0.4" height="0.6" transform="translate(-10.98 4.73) rotate(-5.76)" />
    <rect class="cls-2" x="41.24" y="110.07" width="0.4" height="0.6" transform="translate(-10.86 4.71) rotate(-5.76)" />
    <rect class="cls-2" x="41.14" y="108.97" width="0.4" height="0.6" transform="translate(-10.75 4.7) rotate(-5.76)" />
    <rect class="cls-4" x="39.92" y="112.06" width="3.7" height="3.3" transform="translate(-11.16 4.75) rotate(-5.74)" />
    <rect class="cls-2" x="41.64" y="114.57" width="0.4" height="0.6" transform="translate(-11.31 4.78) rotate(-5.76)" />
    <rect class="cls-2" x="41.54" y="113.47" width="0.4" height="0.6" transform="translate(-11.2 4.76) rotate(-5.76)" />
    <rect class="cls-2" x="41.43" y="112.37" width="0.4" height="0.6" transform="translate(-10.95 4.67) rotate(-5.68)" />
    <rect class="cls-4" x="40.22" y="115.37" width="3.7" height="3.3" transform="translate(-11.49 4.79) rotate(-5.74)" />
    <rect class="cls-2" x="42.04" y="117.87" width="0.4" height="0.6" transform="translate(-11.64 4.83) rotate(-5.76)" />
    <rect class="cls-2" x="41.81" y="116.76" width="0.4" height="0.6" transform="translate(-11.35 4.72) rotate(-5.66)" />
    <rect class="cls-2" x="41.73" y="115.67" width="0.4" height="0.6" transform="translate(-11.27 4.72) rotate(-5.68)" />
    <rect class="cls-4" x="40.52" y="118.67" width="3.7" height="3.3" transform="translate(-11.82 4.84) rotate(-5.74)" />
    <rect class="cls-2" x="42.34" y="121.17" width="0.4" height="0.6" transform="translate(-11.97 4.88) rotate(-5.76)" />
    <rect class="cls-2" x="42.24" y="120.07" width="0.4" height="0.6" transform="translate(-11.86 4.86) rotate(-5.76)" />
    <rect class="cls-2" x="42.14" y="118.97" width="0.4" height="0.6" transform="translate(-11.75 4.85) rotate(-5.76)" />
    <rect class="cls-4" x="40.93" y="122.06" width="3.8" height="3.3" transform="translate(-12.16 4.9) rotate(-5.74)" />
    <rect class="cls-2" x="42.75" y="124.56" width="0.4" height="0.6" transform="translate(-12.31 4.94) rotate(-5.76)" />
    <rect class="cls-2" x="42.54" y="123.37" width="0.4" height="0.6" transform="translate(-12.19 4.91) rotate(-5.76)" />
    <rect class="cls-2" x="42.44" y="122.27" width="0.4" height="0.6" transform="translate(-12.08 4.89) rotate(-5.76)" />
    <rect class="cls-4" x="41.23" y="125.36" width="3.8" height="3.3" transform="translate(-12.48 4.95) rotate(-5.74)" />
    <rect class="cls-2" x="43.03" y="127.86" width="0.4" height="0.6" transform="translate(-12.48 4.91) rotate(-5.68)" />
    <rect class="cls-2" x="42.94" y="126.77" width="0.4" height="0.6" transform="translate(-12.53 4.97) rotate(-5.76)" />
    <rect class="cls-2" x="42.85" y="125.66" width="0.4" height="0.6" transform="translate(-12.42 4.95) rotate(-5.76)" />
    <rect class="cls-4" x="41.54" y="128.68" width="3.7" height="3.3" transform="translate(-12.85 5.01) rotate(-5.76)" />
    <rect class="cls-2" x="43.34" y="131.17" width="0.4" height="0.6" transform="translate(-12.97 5.03) rotate(-5.76)" />
    <rect class="cls-2" x="43.24" y="130.07" width="0.4" height="0.6" transform="translate(-12.86 5.01) rotate(-5.76)" />
    <rect class="cls-2" x="43.14" y="128.97" width="0.4" height="0.6" transform="translate(-12.75 5) rotate(-5.76)" />
    <rect class="cls-4" x="41.92" y="131.97" width="3.7" height="3.3" transform="translate(-13.14 5.05) rotate(-5.74)" />
    <rect class="cls-2" x="43.74" y="134.46" width="0.4" height="0.6" transform="translate(-13.29 5.09) rotate(-5.76)" />
    <rect class="cls-2" x="43.54" y="133.37" width="0.4" height="0.6" transform="translate(-13.19 5.06) rotate(-5.76)" />
    <rect class="cls-2" x="43.44" y="132.27" width="0.4" height="0.6" transform="translate(-13.08 5.05) rotate(-5.76)" />
    <rect class="cls-4" x="42.23" y="135.37" width="3.7" height="3.3" transform="translate(-13.48 5.09) rotate(-5.74)" />
    <rect class="cls-2" x="44.04" y="137.77" width="0.4" height="0.6" transform="translate(-13.62 5.13) rotate(-5.76)" />
    <rect class="cls-2" x="43.94" y="136.67" width="0.4" height="0.6" transform="translate(-13.51 5.12) rotate(-5.76)" />
    <rect class="cls-2" x="43.84" y="135.57" width="0.4" height="0.6" transform="translate(-13.4 5.1) rotate(-5.76)" />
    <rect class="cls-4" x="42.53" y="138.67" width="3.7" height="3.3" transform="translate(-13.81 5.14) rotate(-5.74)" />
    <rect class="cls-2" x="44.33" y="141.16" width="0.4" height="0.6" transform="translate(-13.92 5.16) rotate(-5.74)" />
    <rect class="cls-2" x="44.23" y="140.06" width="0.4" height="0.6" transform="translate(-13.68 5.09) rotate(-5.68)" />
    <rect class="cls-2" x="44.13" y="138.96" width="0.4" height="0.6" transform="translate(-13.57 5.07) rotate(-5.68)" />
    <rect class="cls-4" x="42.92" y="141.96" width="3.8" height="3.3" transform="translate(-14.14 5.2) rotate(-5.74)" />
    <rect class="cls-2" x="44.74" y="144.46" width="0.4" height="0.6" transform="translate(-14.29 5.24) rotate(-5.76)" />
    <rect class="cls-2" x="44.54" y="143.37" width="0.4" height="0.6" transform="translate(-14.18 5.21) rotate(-5.76)" />
    <rect class="cls-2" x="44.44" y="142.27" width="0.4" height="0.6" transform="translate(-14.07 5.2) rotate(-5.76)" />
    <rect class="cls-4" x="43.22" y="145.26" width="3.8" height="3.3" transform="translate(-14.46 5.25) rotate(-5.74)" />
    <rect class="cls-2" x="45.04" y="147.77" width="0.4" height="0.6" transform="translate(-14.62 5.28) rotate(-5.76)" />
    <rect class="cls-2" x="44.94" y="146.67" width="0.4" height="0.6" transform="translate(-14.51 5.27) rotate(-5.76)" />
    <rect class="cls-2" x="44.72" y="145.57" width="0.4" height="0.6" transform="translate(-14.36 5.22) rotate(-5.74)" />
    <rect class="cls-4" x="43.54" y="148.58" width="3.7" height="3.3" transform="translate(-14.84 5.31) rotate(-5.76)" />
    <rect class="cls-2" x="45.32" y="151.07" width="0.4" height="0.6" transform="translate(-14.76 5.25) rotate(-5.68)" />
    <rect class="cls-2" x="45.24" y="149.97" width="0.4" height="0.6" transform="translate(-14.84 5.31) rotate(-5.76)" />
    <rect class="cls-2" x="45.14" y="148.87" width="0.4" height="0.6" transform="translate(-14.73 5.3) rotate(-5.76)" />
    <rect class="cls-4" x="43.93" y="151.97" width="3.7" height="3.3" transform="translate(-15.13 5.35) rotate(-5.74)" />
    <rect class="cls-2" x="45.75" y="154.46" width="0.4" height="0.6" transform="translate(-15.29 5.39) rotate(-5.76)" />
    <rect class="cls-2" x="45.55" y="153.37" width="0.4" height="0.6" transform="translate(-15.18 5.36) rotate(-5.76)" />
    <rect class="cls-2" x="45.45" y="152.27" width="0.4" height="0.6" transform="translate(-15.07 5.35) rotate(-5.76)" />
    <rect class="cls-4" x="44.22" y="155.27" width="3.7" height="3.3" transform="translate(-15.46 5.39) rotate(-5.74)" />
    <rect class="cls-2" x="46.04" y="157.77" width="0.4" height="0.6" transform="translate(-15.62 5.44) rotate(-5.76)" />
    <rect class="cls-2" x="45.93" y="156.66" width="0.4" height="0.6" transform="translate(-15.46 5.4) rotate(-5.74)" />
    <rect class="cls-2" x="45.84" y="155.57" width="0.4" height="0.6" transform="translate(-15.4 5.4) rotate(-5.76)" />
    <rect class="cls-4" x="44.52" y="158.57" width="3.7" height="3.3" transform="translate(-15.79 5.44) rotate(-5.74)" />
    <rect class="cls-2" x="46.34" y="161.07" width="0.4" height="0.6" transform="translate(-15.95 5.48) rotate(-5.76)" />
    <rect class="cls-2" x="46.24" y="159.97" width="0.4" height="0.6" transform="translate(-15.84 5.47) rotate(-5.76)" />
    <rect class="cls-2" x="46.14" y="158.87" width="0.4" height="0.6" transform="translate(-15.73 5.45) rotate(-5.76)" />
    <rect class="cls-4" x="44.93" y="161.96" width="3.8" height="3.3" transform="translate(-16.13 5.5) rotate(-5.74)" />
    <rect class="cls-2" x="46.74" y="164.37" width="0.4" height="0.6" transform="translate(-16.28 5.54) rotate(-5.76)" />
    <rect class="cls-2" x="46.52" y="163.27" width="0.4" height="0.6" transform="translate(-15.96 5.43) rotate(-5.68)" />
    <rect class="cls-2" x="46.42" y="162.17" width="0.4" height="0.6" transform="translate(-15.85 5.41) rotate(-5.68)" />
    <rect class="cls-4" x="45.23" y="165.26" width="3.8" height="3.3" transform="translate(-16.45 5.55) rotate(-5.74)" />
    <rect class="cls-2" x="47.05" y="167.77" width="0.4" height="0.6" transform="translate(-16.62 5.59) rotate(-5.76)" />
    <rect class="cls-2" x="46.95" y="166.67" width="0.4" height="0.6" transform="translate(-16.51 5.57) rotate(-5.76)" />
    <rect class="cls-2" x="46.83" y="165.56" width="0.4" height="0.6" transform="translate(-16.19 5.47) rotate(-5.68)" />
    <rect class="cls-4" x="45.54" y="168.58" width="3.7" height="3.3" transform="translate(-16.83 5.61) rotate(-5.76)" />
    <rect class="cls-2" x="47.34" y="171.07" width="0.4" height="0.6" transform="translate(-16.95 5.63) rotate(-5.76)" />
    <rect class="cls-2" x="47.24" y="169.97" width="0.4" height="0.6" transform="translate(-16.84 5.62) rotate(-5.76)" />
    <rect class="cls-2" x="47.14" y="168.87" width="0.4" height="0.6" transform="translate(-16.73 5.6) rotate(-5.76)" />
    <rect class="cls-4" x="45.92" y="171.87" width="3.7" height="3.3" transform="translate(-17.11 5.65) rotate(-5.74)" />
    <rect class="cls-2" x="47.62" y="174.37" width="0.4" height="0.6" transform="translate(-17.06 5.59) rotate(-5.68)" />
    <rect class="cls-2" x="47.64" y="173.27" width="0.4" height="0.6" transform="translate(-17.17 5.67) rotate(-5.76)" />
    <rect class="cls-2" x="47.44" y="172.17" width="0.4" height="0.6" transform="translate(-17.06 5.65) rotate(-5.76)" />
    <rect class="cls-4" x="46.23" y="175.27" width="3.7" height="3.3" transform="translate(-17.45 5.69) rotate(-5.74)" />
    <rect class="cls-2" x="48.04" y="177.67" width="0.4" height="0.6" transform="translate(-17.61 5.74) rotate(-5.76)" />
    <rect class="cls-2" x="47.92" y="176.56" width="0.4" height="0.6" transform="translate(-17.44 5.7) rotate(-5.74)" />
    <rect class="cls-2" x="47.84" y="175.47" width="0.4" height="0.6" transform="translate(-17.39 5.7) rotate(-5.76)" />
    <rect class="cls-4" x="46.53" y="178.57" width="3.7" height="3.3" transform="translate(-17.78 5.74) rotate(-5.74)" />
    <rect class="cls-2" x="48.35" y="181.07" width="0.4" height="0.6" transform="translate(-17.95 5.78) rotate(-5.76)" />
    <rect class="cls-2" x="48.25" y="179.97" width="0.4" height="0.6" transform="translate(-17.84 5.77) rotate(-5.76)" />
    <rect class="cls-2" x="48.15" y="178.87" width="0.4" height="0.6" transform="translate(-17.73 5.75) rotate(-5.76)" />
    <rect class="cls-4" x="46.92" y="181.86" width="3.8" height="3.3" transform="translate(-18.11 5.8) rotate(-5.74)" />
    <rect class="cls-2" x="48.74" y="184.37" width="0.4" height="0.6" transform="translate(-18.27 5.84) rotate(-5.76)" />
    <rect class="cls-2" x="48.64" y="183.27" width="0.4" height="0.6" transform="translate(-18.16 5.82) rotate(-5.76)" />
    <rect class="cls-2" x="48.44" y="182.17" width="0.4" height="0.6" transform="translate(-18.06 5.8) rotate(-5.76)" />
    <rect class="cls-4" x="47.22" y="185.17" width="3.8" height="3.3" transform="translate(-18.43 5.85) rotate(-5.74)" />
    <rect class="cls-2" x="49.04" y="187.67" width="0.4" height="0.6" transform="translate(-18.6 5.89) rotate(-5.76)" />
    <rect class="cls-2" x="48.93" y="186.56" width="0.4" height="0.6" transform="translate(-18.26 5.78) rotate(-5.68)" />
    <rect class="cls-2" x="48.82" y="185.46" width="0.4" height="0.6" transform="translate(-18.33 5.83) rotate(-5.74)" />
    <rect class="cls-4" x="47.54" y="188.48" width="3.7" height="3.3" transform="translate(-18.82 5.91) rotate(-5.76)" />
    <rect class="cls-2" x="49.34" y="190.97" width="0.4" height="0.6" transform="translate(-18.93 5.93) rotate(-5.76)" />
    <rect class="cls-2" x="49.22" y="189.87" width="0.4" height="0.6" transform="translate(-18.58 5.83) rotate(-5.68)" />
    <rect class="cls-2" x="49.12" y="188.77" width="0.4" height="0.6" transform="translate(-18.47 5.81) rotate(-5.68)" />
    <rect class="cls-4" x="47.93" y="191.87" width="3.7" height="3.3" transform="translate(-19.1 5.95) rotate(-5.74)" />
    <rect class="cls-2" x="49.75" y="194.37" width="0.4" height="0.6" transform="translate(-19.27 5.99) rotate(-5.76)" />
    <rect class="cls-2" x="49.65" y="193.27" width="0.4" height="0.6" transform="translate(-19.16 5.98) rotate(-5.76)" />
    <rect class="cls-2" x="49.45" y="192.18" width="0.4" height="0.6" transform="translate(-19.05 5.95) rotate(-5.76)" />
    <rect class="cls-4" x="48.23" y="195.17" width="3.7" height="3.3" transform="translate(-19.43 5.99) rotate(-5.74)" />
    <rect class="cls-2" x="50.01" y="197.65" width="0.4" height="0.6" transform="translate(-19.29 5.92) rotate(-5.66)" />
    <rect class="cls-2" x="49.94" y="196.57" width="0.4" height="0.6" transform="translate(-19.49 6.02) rotate(-5.76)" />
    <rect class="cls-2" x="49.85" y="195.47" width="0.4" height="0.6" transform="translate(-19.38 6.01) rotate(-5.76)" />
    <rect class="cls-4" x="48.62" y="198.46" width="3.8" height="3.3" transform="translate(-19.76 6.06) rotate(-5.74)" />
    <rect class="cls-2" x="50.33" y="200.97" width="0.4" height="0.6" transform="translate(-19.68 5.99) rotate(-5.68)" />
    <rect class="cls-2" x="50.24" y="199.87" width="0.4" height="0.6" transform="translate(-19.82 6.07) rotate(-5.76)" />
    <rect class="cls-2" x="50.14" y="198.77" width="0.4" height="0.6" transform="translate(-19.71 6.05) rotate(-5.76)" />
    <rect class="cls-4" x="48.92" y="201.76" width="3.8" height="3.3" transform="translate(-20.09 6.1) rotate(-5.74)" />
    <rect class="cls-2" x="50.74" y="204.27" width="0.4" height="0.6" transform="translate(-20.26 6.14) rotate(-5.76)" />
    <rect class="cls-2" x="50.64" y="203.17" width="0.4" height="0.6" transform="translate(-20.15 6.12) rotate(-5.76)" />
    <rect class="cls-2" x="50.54" y="202.07" width="0.4" height="0.6" transform="translate(-20.04 6.11) rotate(-5.76)" />
    <rect class="cls-4" x="49.23" y="205.17" width="3.8" height="3.3" transform="translate(-20.42 6.15) rotate(-5.74)" />
    <rect class="cls-2" x="51.05" y="207.67" width="0.4" height="0.6" transform="translate(-20.6 6.19) rotate(-5.76)" />
    <rect class="cls-2" x="50.95" y="206.57" width="0.4" height="0.6" transform="translate(-20.49 6.17) rotate(-5.76)" />
    <rect class="cls-2" x="50.83" y="205.46" width="0.4" height="0.6" transform="translate(-20.32 6.13) rotate(-5.74)" />
    <rect class="cls-4" x="49.64" y="208.47" width="3.7" height="3.3" transform="translate(-20.81 6.22) rotate(-5.76)" />
    <rect class="cls-2" x="51.34" y="210.98" width="0.4" height="0.6" transform="translate(-20.93 6.24) rotate(-5.76)" />
    <rect class="cls-2" x="51.25" y="209.87" width="0.4" height="0.6" transform="translate(-20.82 6.22) rotate(-5.76)" />
    <rect class="cls-2" x="51.15" y="208.77" width="0.4" height="0.6" transform="translate(-20.71 6.2) rotate(-5.76)" />
    <rect class="cls-4" x="49.92" y="211.77" width="3.7" height="3.3" transform="translate(-21.08 6.25) rotate(-5.74)" />
    <rect class="cls-2" x="51.74" y="214.27" width="0.4" height="0.6" transform="translate(-21.26 6.29) rotate(-5.76)" />
    <rect class="cls-2" x="51.53" y="213.17" width="0.4" height="0.6" transform="translate(-20.88 6.17) rotate(-5.68)" />
    <rect class="cls-2" x="51.43" y="212.07" width="0.4" height="0.6" transform="translate(-20.77 6.15) rotate(-5.68)" />
    <rect class="cls-4" x="50.22" y="215.07" width="3.7" height="3.3" transform="translate(-21.41 6.29) rotate(-5.74)" />
    <rect class="cls-2" x="52.04" y="217.57" width="0.4" height="0.6" transform="translate(-21.59 6.34) rotate(-5.76)" />
    <rect class="cls-2" x="51.92" y="216.46" width="0.4" height="0.6" transform="translate(-21.41 6.3) rotate(-5.74)" />
    <rect class="cls-2" x="51.84" y="215.37" width="0.4" height="0.6" transform="translate(-21.37 6.31) rotate(-5.76)" />
    <rect class="cls-4" x="50.63" y="218.46" width="3.7" height="3.3" transform="translate(-21.75 6.35) rotate(-5.74)" />
    <rect class="cls-2" x="52.35" y="220.98" width="0.4" height="0.6" transform="translate(-21.93 6.39) rotate(-5.76)" />
    <rect class="cls-2" x="52.24" y="219.78" width="0.4" height="0.6" transform="translate(-21.81 6.37) rotate(-5.76)" />
    <rect class="cls-2" x="52.14" y="218.67" width="0.4" height="0.6" transform="translate(-21.7 6.35) rotate(-5.76)" />
    <rect class="cls-4" x="50.93" y="221.76" width="3.8" height="3.3" transform="translate(-22.08 6.4) rotate(-5.74)" />
    <rect class="cls-2" x="52.73" y="224.26" width="0.4" height="0.6" transform="translate(-21.97 6.34) rotate(-5.68)" />
    <rect class="cls-2" x="52.65" y="223.17" width="0.4" height="0.6" transform="translate(-22.15 6.43) rotate(-5.76)" />
    <rect class="cls-2" x="52.55" y="222.07" width="0.4" height="0.6" transform="translate(-22.04 6.41) rotate(-5.76)" />
    <rect class="cls-4" x="51.22" y="225.07" width="3.8" height="3.3" transform="translate(-22.4 6.45) rotate(-5.74)" />
    <rect class="cls-2" x="53.04" y="227.57" width="0.4" height="0.6" transform="translate(-22.59 6.49) rotate(-5.76)" />
    <rect class="cls-2" x="52.94" y="226.47" width="0.4" height="0.6" transform="translate(-22.48 6.47) rotate(-5.76)" />
    <rect class="cls-2" x="52.84" y="225.37" width="0.4" height="0.6" transform="translate(-22.37 6.46) rotate(-5.76)" />
    <rect class="cls-4" x="51.64" y="228.37" width="3.7" height="3.3" transform="translate(-22.8 6.52) rotate(-5.76)" />
    <rect class="cls-2" x="53.34" y="230.88" width="0.4" height="0.6" transform="translate(-22.92 6.54) rotate(-5.76)" />
    <rect class="cls-2" x="53.24" y="229.78" width="0.4" height="0.6" transform="translate(-22.81 6.52) rotate(-5.76)" />
    <rect class="cls-2" x="53.14" y="228.67" width="0.4" height="0.6" transform="translate(-22.7 6.5) rotate(-5.76)" />
    <rect class="cls-4" x="51.93" y="231.77" width="3.7" height="3.3" transform="translate(-23.07 6.55) rotate(-5.74)" />
    <rect class="cls-2" x="53.75" y="234.27" width="0.4" height="0.6" transform="translate(-23.25 6.59) rotate(-5.76)" />
    <rect class="cls-2" x="53.64" y="233.07" width="0.4" height="0.6" transform="translate(-23.13 6.58) rotate(-5.76)" />
    <rect class="cls-2" x="53.54" y="231.97" width="0.4" height="0.6" transform="translate(-23.02 6.56) rotate(-5.76)" />
    <path class="cls-3" d="M50.12,236.16a38.43,38.43,0,0,1-22-1.8" />
    <path class="cls-4" d="M49.22,232.56c.1,0-1.5.3-3.2.5a33.27,33.27,0,0,1-3.4.2l.1,7.5a32.88,32.88,0,0,0,4.1-.3,25.19,25.19,0,0,0,4.2-.7Z" />
    <polygon class="cls-5" points="44.62 237.16 44.62 236.46 43.22 236.46 43.22 237.26 44.62 237.16" />
    <path class="cls-5" d="M47.12,237l-.1-.7a3.2,3.2,0,0,0-.7.1,3.55,3.55,0,0,0-.7.1l.1.7a3.2,3.2,0,0,0,.7-.1A3.2,3.2,0,0,1,47.12,237Z" />
    <path class="cls-5" d="M49.62,236.56l-.2-.7a2.44,2.44,0,0,1-.7.1,2.64,2.64,0,0,1-.7.1l.1.7a2.44,2.44,0,0,1,.7-.1A3.75,3.75,0,0,1,49.62,236.56Z" />
    <path class="cls-4" d="M42.62,233.26s-1.7,0-3.4-.1c-.8,0-1.7-.2-2.3-.2s-1-.2-1-.2l-1.3,7.4s.5.1,1.3.2,1.8.2,2.8.3a32.14,32.14,0,0,0,4.1.1Z" />
    <path class="cls-5" d="M37.12,237l.1-.7a3.2,3.2,0,0,1-.7-.1,3.55,3.55,0,0,1-.7-.1l-.1.7a2.44,2.44,0,0,0,.7.1A3.2,3.2,0,0,0,37.12,237Z" />
    <polygon class="cls-5" points="39.62 237.16 39.72 236.46 38.32 236.36 38.22 237.06 39.62 237.16" />
    <path class="cls-5" d="M42.12,237.26v-.8h-1.4v.8h1.4Z" />
    <path class="cls-4" d="M35.92,232.76s-.4-.1-1-.2-1.4-.3-2.2-.6-1.6-.5-2.2-.7a8.41,8.41,0,0,1-1-.4l-2.9,6.9,1.2.5a28.32,28.32,0,0,0,2.7.9c1,.3,2,.5,2.8.7s1.3.2,1.3.2Z" />
    <polygon class="cls-5" points="29.82 235.26 30.12 234.56 28.82 234.06 28.52 234.76 29.82 235.26" />
    <polygon class="cls-5" points="32.22 236.06 32.42 235.26 31.12 234.96 30.92 235.66 32.22 236.06" />
    <path class="cls-5" d="M34.62,236.56l.1-.7a3.2,3.2,0,0,1-.7-.1c-.3-.1-.7-.2-.7-.2l-.2.7s.3.1.7.2A4.53,4.53,0,0,0,34.62,236.56Z" />
    <line class="cls-6" x1="49.92" y1="190.36" x2="45.82" y2="192.46" />
</svg>