<svg id="BodyT" data-name="Layer 1" xmlns="http://www.w3.org/2000/svg" viewBox="0 0 209.87 268.08">
    <defs>
        <style>.cls-1,.cls-5{fill:none;}.cls-2,.cls-3{fill:#231f20;}.cls-2{fill-rule:evenodd;}.cls-4{fill:#fff;}.cls-4,.cls-5{stroke:#231f20;stroke-miterlimit:10;}.cls-6{fill:#f70000;}</style>
    </defs>
    <title>Veste</title>
    <path class="cls-1" d="M65,37.66s1.5-.3,3.1-.5c.8-.1,1.6-.2,2.2-.3a6.73,6.73,0,0,1,1-.1l-1-7.4a8.66,8.66,0,0,0-1.1.1c-.6.1-1.5.2-2.4.4-1.7.2-3.5.6-3.5.6Z" />
    <polygon class="cls-2" points="69.23 32.86 69.33 33.66 70.53 33.46 70.44 32.76 69.23 32.86" />
    <polygon class="cls-2" points="66.94 33.26 67.14 33.96 68.33 33.76 68.23 33.06 66.94 33.26" />
    <path class="cls-2" d="M64.74,33.56l.1.7a2.18,2.18,0,0,1,.6-.1,2.14,2.14,0,0,1,.6-.1l-.1-.7Z" />
    <polygon class="cls-1" points="71.44 36.66 78.03 35.86 77.33 28.46 70.44 29.16 71.44 36.66" />
    <polygon class="cls-2" points="75.94 32.06 75.94 32.86 77.23 32.66 77.14 31.96 75.94 32.06" />
    <rect class="cls-3" x="73.76" y="32.26" width="1.2" height="0.8" transform="translate(-3.35 9.04) rotate(-6.81)" />
    <polygon class="cls-2" points="71.44 32.56 71.53 33.36 72.73 33.16 72.73 32.46 71.44 32.56" />
    <polygon class="cls-1" points="78.03 35.86 84.64 35.36 84.14 27.86 77.33 28.46 78.03 35.86" />
    <rect class="cls-3" x="82.61" y="31.46" width="1.2" height="0.7" transform="translate(-2.23 6.6) rotate(-4.48)" />
    <polygon class="cls-2" points="80.33 31.66 80.44 32.46 81.73 32.36 81.64 31.56 80.33 31.66" />
    <polygon class="cls-2" points="78.14 31.86 78.23 32.56 79.44 32.46 79.44 31.76 78.14 31.86" />
    <path class="cls-1" d="M84.64,35.36s1.7-.1,3.3-.3,3.3-.1,3.3-.1l-.3-7.5s-1.7.1-3.4.1-3.4.3-3.4.3Z" />
    <polygon class="cls-2" points="89.33 31.06 89.33 31.76 90.64 31.76 90.64 30.96 89.33 31.06" />
    <path class="cls-2" d="M87.14,31.16v.7h1.2v-.7h-1.2Z" />
    <polygon class="cls-2" points="84.83 31.36 84.94 32.06 86.14 31.96 86.14 31.26 84.83 31.36" />
    <polygon class="cls-1" points="91.23 34.96 97.94 34.76 97.73 27.26 90.94 27.56 91.23 34.96" />
    <polygon class="cls-2" points="96.14 30.86 96.14 31.56 97.33 31.56 97.33 30.76 96.14 30.86" />
    <rect class="cls-3" x="93.82" y="30.86" width="1.2" height="0.7" transform="translate(-1.08 3.47) rotate(-2.09)" />
    <polygon class="cls-2" points="91.64 30.96 91.64 31.76 92.94 31.66 92.83 30.96 91.64 30.96" />
    <path class="cls-1" d="M97.94,34.76h1a17.58,17.58,0,0,1,2.3,0h3.3v-7.5h-6.8Z" />
    <polygon class="cls-2" points="102.83 30.66 102.83 31.46 104.03 31.46 104.03 30.66 102.83 30.66" />
    <polygon class="cls-2" points="100.53 30.66 100.64 31.46 101.83 31.46 101.83 30.66 100.53 30.66" />
    <polygon class="cls-2" points="98.33 30.76 98.33 31.46 99.64 31.46 99.64 30.66 98.33 30.76" />
    <polygon class="cls-1" points="104.53 34.76 111.23 34.76 111.33 27.26 104.53 27.26 104.53 34.76" />
    <polygon class="cls-2" points="109.53 30.76 109.53 31.46 110.83 31.46 110.83 30.76 109.53 30.76" />
    <rect class="cls-3" x="107.34" y="30.76" width="1.2" height="0.8" />
    <polygon class="cls-2" points="105.14 30.66 105.14 31.46 106.33 31.46 106.33 30.76 105.14 30.66" />
    <path class="cls-1" d="M111.24,34.76h3.3c.8,0,1.7.1,2.3.1a4.54,4.54,0,0,1,1,.1l.3-7.5a8.66,8.66,0,0,1-1.1-.1c-.6,0-1.5-.1-2.3-.1h-3.4Z" />
    <polygon class="cls-2" points="116.33 30.86 116.33 31.56 117.53 31.66 117.53 30.86 116.33 30.86" />
    <polygon class="cls-2" points="114.03 30.76 114.03 31.56 115.33 31.56 115.33 30.76 114.03 30.76" />
    <polygon class="cls-2" points="111.83 30.76 111.83 31.46 113.03 31.56 113.03 30.76 111.83 30.76" />
    <polygon class="cls-1" points="117.94 34.96 124.53 35.36 125.03 27.86 118.23 27.46 117.94 34.96" />
    <rect class="cls-3" x="123.24" y="31.09" width="0.7" height="1.2" transform="translate(85.66 153.51) rotate(-87.09)" />
    <polygon class="cls-2" points="120.83 31.06 120.73 31.86 122.03 31.86 122.03 31.16 120.83 31.06" />
    <polygon class="cls-2" points="118.53 30.96 118.53 31.76 119.73 31.76 119.83 31.06 118.53 30.96" />
    <polygon class="cls-1" points="124.53 35.36 131.24 35.66 131.74 28.16 125.03 27.86 124.53 35.36" />
    <polygon class="cls-2" points="129.74 31.56 129.74 32.36 130.94 32.36 131.03 31.66 129.74 31.56" />
    <polygon class="cls-2" points="127.53 31.46 127.53 32.16 128.74 32.26 128.74 31.56 127.53 31.46" />
    <polygon class="cls-2" points="125.33 31.36 125.23 32.06 126.53 32.16 126.53 31.36 125.33 31.36" />
    <path class="cls-1" d="M131.24,35.66a6.73,6.73,0,0,1,1,.1,15.16,15.16,0,0,0,2.3.2c1.7.2,3.3.3,3.3.3l.7-7.5s-1.7-.2-3.4-.3a21.51,21.51,0,0,0-2.3-.2,6.27,6.27,0,0,1-1.1-.1Z" />
    <polygon class="cls-2" points="136.53 32.16 136.44 32.86 137.63 33.06 137.74 32.26 136.53 32.16" />
    <polygon class="cls-2" points="134.24 31.86 134.24 32.66 135.44 32.76 135.53 32.06 134.24 31.86" />
    <path class="cls-2" d="M132,31.66l-.1.7h.6a2.18,2.18,0,0,1,.6.1l.1-.7a2.14,2.14,0,0,1-.6-.1Z" />
    <polygon class="cls-1" points="137.84 36.36 144.53 36.96 145.34 29.56 138.53 28.86 137.84 36.36" />
    <polygon class="cls-2" points="143.24 32.86 143.13 33.56 144.34 33.66 144.44 32.96 143.24 32.86" />
    <rect class="cls-3" x="141.12" y="32.32" width="0.8" height="1.2" transform="translate(94.57 170.43) rotate(-84.24)" />
    <polygon class="cls-2" points="138.74 32.36 138.63 33.16 139.94 33.26 140.03 32.46 138.74 32.36" />
    <polygon class="cls-1" points="144.53 36.96 151.13 37.66 152.13 30.26 145.34 29.56 144.53 36.96" />
    <polygon class="cls-2" points="149.94 33.56 149.84 34.26 151.03 34.36 151.13 33.66 149.94 33.56" />
    <polygon class="cls-2" points="147.63 33.26 147.53 34.06 148.84 34.16 148.94 33.46 147.63 33.26" />
    <polygon class="cls-2" points="145.44 33.06 145.34 33.76 146.63 33.96 146.74 33.16 145.44 33.06" />
    <path class="cls-4" d="M117.94,228.46c32.6.9,55.8-7.6,55.8-7.6-.6-15.3,0-39.8,0-39.8a598.75,598.75,0,0,0,4.4-92.7c15.5-31,20.4-28.5,20.4-28.5-20.1-19.9-48-27.1-48-27.1-63.9-4.3-85.2.3-85.2.3s-27.9,7.3-48,27.1c0,0,4.9-2.5,20.4,28.5a598.51,598.51,0,0,0,4.4,92.7s.6,24.5,0,39.8c0,0,27.8,7.5,66.9,7.1Z" />
    <path class="cls-5" d="M117.94,212.56c-53.1-.2-75.7-7.3-75.7-7.3" />
    <polygon class="cls-1" points="117.64 210.56 110.83 210.46 110.64 217.96 117.64 218.06 117.64 210.56" />
    <polygon class="cls-2" points="112.53 214.46 112.53 213.76 111.23 213.66 111.23 214.46 112.53 214.46" />
    <polygon class="cls-2" points="114.83 214.56 114.83 213.76 113.53 213.76 113.53 214.46 114.83 214.56" />
    <polygon class="cls-2" points="117.14 214.56 117.14 213.86 115.83 213.76 115.83 214.56 117.14 214.56" />
    <polygon class="cls-1" points="110.83 210.46 103.94 210.26 103.73 217.76 110.64 217.96 110.83 210.46" />
    <polygon class="cls-2" points="105.64 214.36 105.64 213.56 104.33 213.56 104.33 214.36 105.64 214.36" />
    <rect class="cls-3" x="106.89" y="213.32" width="0.8" height="1.3" transform="translate(-108.87 316.78) rotate(-88.81)" />
    <rect class="cls-3" x="109.23" y="213.35" width="0.8" height="1.3" transform="translate(-106.2 320) rotate(-89.03)" />
    <path class="cls-1" d="M103.94,210.26s-1.7,0-3.4-.1a17.72,17.72,0,0,1-2.4-.1A6.27,6.27,0,0,1,97,210l-.3,7.5a8.66,8.66,0,0,1,1.1.1c.7,0,1.5.1,2.4.1,1.7,0,3.5.1,3.5.1Z" />
    <polygon class="cls-2" points="98.64 214.16 98.73 213.46 97.44 213.36 97.44 214.16 98.64 214.16" />
    <polygon class="cls-2" points="100.94 214.26 101.03 213.46 99.73 213.46 99.73 214.26 100.94 214.26" />
    <polygon class="cls-2" points="103.23 214.26 103.33 213.56 102.03 213.56 102.03 214.26 103.23 214.26" />
    <polygon class="cls-1" points="97.03 210.06 90.23 209.66 89.73 217.16 96.73 217.56 97.03 210.06" />
    <rect class="cls-3" x="90.72" y="212.73" width="0.8" height="1.3" transform="translate(-126.82 292.98) rotate(-86.94)" />
    <rect class="cls-3" x="93" y="212.86" width="0.8" height="1.3" transform="translate(-124.47 296.23) rotate(-87.16)" />
    <polygon class="cls-2" points="96.33 214.06 96.44 213.36 95.14 213.26 95.03 213.96 96.33 214.06" />
    <path class="cls-1" d="M90.24,209.66l-3.4-.2c-.9,0-1.7-.1-2.4-.1a6.27,6.27,0,0,1-1.1-.1l-.5,7.5a8.66,8.66,0,0,1,1.1.1c.7,0,1.5.1,2.4.1l3.5.2Z" />
    <polygon class="cls-2" points="84.83 213.46 84.83 212.66 83.64 212.66 83.53 213.36 84.83 213.46" />
    <polygon class="cls-2" points="87.14 213.56 87.14 212.86 85.94 212.76 85.83 213.46 87.14 213.56" />
    <polygon class="cls-2" points="89.44 213.66 89.44 212.96 88.23 212.86 88.14 213.66 89.44 213.66" />
    <polygon class="cls-1" points="83.33 209.36 76.53 208.76 75.83 216.16 82.73 216.76 83.33 209.36" />
    <rect class="cls-3" x="76.99" y="211.81" width="0.8" height="1.3" transform="translate(-141.02 271.03) rotate(-85)" />
    <polygon class="cls-2" points="80.23 213.06 80.23 212.36 79.03 212.26 78.94 212.96 80.23 213.06" />
    <polygon class="cls-2" points="82.53 213.26 82.53 212.56 81.33 212.46 81.23 213.16 82.53 213.26" />
    <path class="cls-1" d="M76.54,208.76s-1.7-.2-3.4-.3c-.9-.1-1.7-.2-2.3-.2a7.47,7.47,0,0,0-1.1-.1l-.8,7.5a5,5,0,0,0,1.1.1c.7.1,1.5.1,2.4.2,1.7.2,3.5.3,3.5.3Z" />
    <path class="cls-2" d="M71,212.26l.1-.7a2.14,2.14,0,0,1-.6-.1,2.18,2.18,0,0,1-.6-.1l-.1.7a2.14,2.14,0,0,1,.6.1A2.14,2.14,0,0,0,71,212.26Z" />
    <polygon class="cls-2" points="73.33 212.46 73.44 211.76 72.14 211.56 72.03 212.36 73.33 212.46" />
    <polygon class="cls-2" points="75.64 212.66 75.64 211.96 74.44 211.76 74.33 212.56 75.64 212.66" />
    <polygon class="cls-1" points="69.64 208.06 62.94 207.26 61.84 214.66 68.83 215.56 69.64 208.06" />
    <polygon class="cls-2" points="64.14 211.46 64.23 210.66 62.94 210.56 62.84 211.26 64.14 211.46" />
    <rect class="cls-3" x="65.45" y="210.64" width="0.7" height="1.3" transform="translate(-151.9 251.02) rotate(-83.04)" />
    <polygon class="cls-2" points="68.73 211.96 68.83 211.26 67.53 211.06 67.44 211.86 68.73 211.96" />
    <path class="cls-1" d="M62.94,207.26a5,5,0,0,0-1.1-.1,20.79,20.79,0,0,1-2.3-.3l-3.4-.6-1.2,7.4,3.5.6a11.21,11.21,0,0,0,2.4.3,8.66,8.66,0,0,0,1.1.1Z" />
    <rect class="cls-3" x="56.38" y="209.33" width="0.7" height="1.3" transform="translate(-159.53 233.19) rotate(-81.01)" />
    <polygon class="cls-2" points="59.53 210.86 59.63 210.06 58.44 209.86 58.23 210.66 59.53 210.86" />
    <polygon class="cls-2" points="61.84 211.16 61.94 210.36 60.63 210.26 60.53 210.96 61.84 211.16" />
    <path class="cls-1" d="M56.14,206.16l-3.4-.6c-1.7-.3-3.3-.7-3.3-.7l-1.5,7.3s1.7.4,3.5.7l3.5.6Z" />
    <polygon class="cls-2" points="50.44 209.26 50.53 208.56 49.34 208.26 49.13 209.06 50.44 209.26" />
    <path class="cls-2" d="M52.74,209.66l.1-.7a2.18,2.18,0,0,0-.6-.1,2.14,2.14,0,0,0-.6-.1l-.1.7a2.18,2.18,0,0,0,.6.1A2.14,2.14,0,0,0,52.74,209.66Z" />
    <polygon class="cls-2" points="54.94 210.06 55.13 209.36 53.84 209.16 53.73 209.86 54.94 210.06" />
    <path class="cls-1" d="M49.54,205s-.4-.1-1-.2a22.5,22.5,0,0,1-2.2-.5c-.8-.2-1.6-.4-2.2-.5a7.78,7.78,0,0,0-.9-.3l-2.2,7.2s.5.1,1.2.3,1.5.4,2.4.6,1.8.4,2.4.5,1.1.2,1.1.2Z" />
    <path class="cls-2" d="M43.64,207.76l.2-.7-.6-.2-.6-.2-.2.7.6.2Z" />
    <polygon class="cls-2" points="45.94 208.36 46.03 207.56 44.84 207.26 44.63 208.06 45.94 208.36" />
    <polygon class="cls-2" points="48.13 208.76 48.34 208.06 47.03 207.86 46.94 208.56 48.13 208.76" />
    <path class="cls-3" d="M38.64,54.76s-.1,2-.3,5q-.15,2.25-.3,5.1c-.1,1.9-.2,3.9-.3,5.9s-.2,4-.2,5.9v5.1c0,.7.1,1.4.1,2s.1,1.1.1,1.6c.1.9.2,1.4.2,1.4s-.1-.5-.3-1.3c-.1-.4-.2-1-.3-1.6s-.2-1.3-.3-2-.1-1.6-.2-2.4a24.37,24.37,0,0,1-.1-2.7c0-1.9,0-3.9.1-5.9s.2-4,.4-5.9.3-3.6.5-5.1C38.34,56.76,38.64,54.76,38.64,54.76Z" />
    <path class="cls-3" d="M51.34,47.26s.5,3.4,1.3,8.6,1.8,12,2.8,18.8c.5,3.4,1,6.9,1.5,10.1.2,1.6.5,3.2.7,4.6s.5,2.9.7,4.1.4,2.5.6,3.5.4,1.9.5,2.7c.3,1.5.5,2.3.5,2.3s-.2-.8-.6-2.3q-.3-1.05-.6-2.7c-.2-1-.4-2.2-.7-3.5s-.5-2.7-.7-4.1-.5-3-.8-4.6c-.5-3.2-1-6.6-1.5-10.1s-1-6.9-1.4-10.1-.8-6.2-1.1-8.8-.6-4.7-.7-6.2A15.55,15.55,0,0,1,51.34,47.26Z" />
    <path class="cls-3" d="M61.24,118.46s.6,4.1,1.5,10.3c.5,3.1,1,6.7,1.6,10.5s1.2,7.9,1.9,12,1.3,8.2,2,12c.3,1.9.7,3.8,1,5.5s.7,3.4.9,4.9.6,2.9.9,4.1.6,2.3.8,3.2c.5,1.7.8,2.7.8,2.7s-.3-1-.9-2.7c-.2-.9-.5-1.9-.9-3.2s-.6-2.6-1-4.1c-.7-3-1.4-6.6-2.1-10.4s-1.4-7.9-2-12-1.3-8.2-1.8-12-1-7.4-1.4-10.5-.7-5.7-.9-7.5S61.24,118.46,61.24,118.46Z" />
    <path class="cls-3" d="M48.44,146.46s-.3,1.4-.7,3.5c-.2,1.1-.4,2.3-.7,3.6s-.6,2.7-.8,4.1-.6,2.8-.8,4.1a10.62,10.62,0,0,1-.4,1.9c-.1.6-.2,1.2-.3,1.7a7.84,7.84,0,0,0-.2,1.4c0,.4-.1.8-.1,1.1a6.73,6.73,0,0,0-.1,1v-2.1c0-.4.1-.9.1-1.5a29.31,29.31,0,0,1,.5-3.7c.2-1.3.5-2.7.7-4.2s.6-2.8.9-4.1.6-2.5.9-3.6C48,147.86,48.44,146.46,48.44,146.46Z" />
    <path class="cls-3" d="M177.24,54.76s.3,2,.7,5c.2,1.5.4,3.2.5,5.1s.3,3.9.4,5.9.1,4,.1,5.9a23.48,23.48,0,0,1-.1,2.7,16.59,16.59,0,0,1-.2,2.4,10.58,10.58,0,0,1-.3,2c-.1.6-.2,1.1-.3,1.6-.2.9-.3,1.3-.3,1.3s.1-.5.2-1.4a7.59,7.59,0,0,0,.1-1.6,12.75,12.75,0,0,0,.1-2c.1-1.5,0-3.2,0-5.1s-.1-3.9-.2-5.9-.2-4-.3-5.9-.2-3.6-.3-5.1C177.34,56.76,177.24,54.76,177.24,54.76Z" />
    <path class="cls-3" d="M164.54,47.26s-.1.9-.3,2.4-.4,3.7-.7,6.2-.7,5.6-1.1,8.8-.9,6.6-1.4,10.1-1,6.8-1.5,10.1c-.3,1.6-.5,3.1-.8,4.6s-.5,2.8-.8,4.1-.5,2.4-.7,3.5-.5,1.9-.6,2.7c-.4,1.5-.6,2.3-.6,2.3s.2-.8.5-2.3c.1-.7.4-1.6.5-2.7s.4-2.2.6-3.5.5-2.7.7-4.1.5-3,.7-4.6c.5-3.2,1-6.6,1.5-10.1,1-6.8,2-13.7,2.8-18.8C164,50.66,164.54,47.26,164.54,47.26Z" />
    <path class="cls-3" d="M154.64,118.46s-.1,1-.3,2.8-.5,4.4-.9,7.5-.9,6.7-1.4,10.5-1.2,7.9-1.8,12-1.4,8.2-2,12-1.4,7.4-2.1,10.4c-.4,1.5-.7,2.9-1,4.1s-.6,2.3-.9,3.2c-.6,1.7-.9,2.7-.9,2.7s.3-1,.8-2.7c.2-.9.5-1.9.8-3.2s.6-2.6.9-4.1.6-3.2.9-4.9.6-3.6,1-5.5c.7-3.8,1.3-7.9,2-12s1.3-8.2,1.9-12,1.1-7.4,1.6-10.5C154,122.56,154.64,118.46,154.64,118.46Z" />
    <path class="cls-3" d="M167.54,146.46s.4,1.4.9,3.5c.3,1,.6,2.3.9,3.6s.6,2.7.9,4.1.5,2.8.7,4.2.4,2.6.5,3.7a7.57,7.57,0,0,1,.1,1.5v2.1a6.73,6.73,0,0,0-.1-1c0-.3-.1-.7-.1-1.1a7.84,7.84,0,0,0-.2-1.4c-.1-.5-.2-1.1-.3-1.7a16.25,16.25,0,0,0-.4-1.9c-.2-1.3-.5-2.7-.8-4.1s-.5-2.8-.8-4.1-.5-2.6-.7-3.6C167.74,147.86,167.54,146.46,167.54,146.46Z" />
    <path class="cls-5" d="M117.94,212.56s43.6-1.8,55.5-7.3" />
    <polygon class="cls-1" points="117.83 218.06 124.94 217.56 124.44 210.16 117.44 210.56 117.83 218.06" />
    <rect class="cls-3" x="122.92" y="213.66" width="1.3" height="0.7" transform="translate(-14.47 9.04) rotate(-3.96)" />
    <rect class="cls-3" x="120.56" y="213.87" width="1.3" height="0.8" transform="translate(-13.42 8.17) rotate(-3.66)" />
    <rect class="cls-3" x="118.24" y="213.96" width="1.3" height="0.8" transform="translate(-12.36 7.34) rotate(-3.36)" />
    <polygon class="cls-1" points="124.94 217.56 132.03 217.06 131.44 209.56 124.44 210.16 124.94 217.56" />
    <rect class="cls-3" x="129.92" y="213.15" width="1.3" height="0.7" transform="translate(-16.81 11.23) rotate(-4.63)" />
    <rect class="cls-3" x="127.52" y="213.35" width="1.3" height="0.7" transform="matrix(1, -0.08, 0.08, 1, -15.79, 10.3)" />
    <rect class="cls-3" x="125.22" y="213.55" width="1.3" height="0.7" transform="translate(-15.26 9.75) rotate(-4.18)" />
    <polygon class="cls-1" points="132.03 217.06 139.13 216.36 138.34 208.96 131.44 209.56 132.03 217.06" />
    <rect class="cls-3" x="136.93" y="212.56" width="1.3" height="0.7" transform="translate(-19.1 13.64) rotate(-5.31)" />
    <rect class="cls-3" x="134.65" y="212.77" width="1.3" height="0.8" transform="translate(-18.33 12.81) rotate(-5.08)" />
    <rect class="cls-3" x="132.23" y="212.96" width="1.3" height="0.7" transform="translate(-17.33 11.83) rotate(-4.78)" />
    <path class="cls-1" d="M139.14,216.36l3.5-.4,3.5-.4-.8-7.5-3.5.4c-1.7.2-3.5.3-3.5.3Z" />
    <rect class="cls-3" x="143.94" y="211.77" width="1.3" height="0.8" transform="translate(-21.83 16.66) rotate(-6.13)" />
    <rect class="cls-3" x="141.61" y="212.05" width="1.3" height="0.7" transform="translate(-20.82 15.54) rotate(-5.83)" />
    <rect class="cls-3" x="139.36" y="212.37" width="1.3" height="0.7" transform="translate(-19.83 14.47) rotate(-5.53)" />
    <path class="cls-1" d="M146.14,215.66l3.5-.4c1.8-.2,3.5-.5,3.5-.5l-1-7.4-3.5.4-3.5.4Z" />
    <rect class="cls-3" x="150.96" y="210.97" width="1.3" height="0.8" transform="translate(-25.23 20.61) rotate(-7.18)" />
    <rect class="cls-3" x="148.66" y="211.27" width="1.3" height="0.8" transform="translate(-24.03 19.18) rotate(-6.81)" />
    <rect class="cls-3" x="146.23" y="211.57" width="1.3" height="0.7" transform="translate(-22.81 17.78) rotate(-6.43)" />
    <path class="cls-1" d="M153.24,214.86a5,5,0,0,1,1.1-.1c.7-.1,1.5-.2,2.4-.4,1.8-.2,3.5-.5,3.5-.5l-1.2-7.4s-1.7.3-3.4.5q-1.35.15-2.4.3a7.47,7.47,0,0,1-1.1.1Z" />
    <rect class="cls-3" x="157.93" y="210.06" width="1.3" height="0.7" transform="translate(-29.73 26.13) rotate(-8.62)" />
    <rect class="cls-3" x="155.67" y="210.37" width="1.3" height="0.8" transform="translate(-28.1 24.09) rotate(-8.09)" />
    <rect class="cls-3" x="153.21" y="210.66" width="1.3" height="0.7" transform="translate(-26.66 22.3) rotate(-7.63)" />
    <path class="cls-1" d="M160.34,213.76l3.5-.6c1.8-.3,3.6-.7,3.6-.7l-1.5-7.3-3.4.6-3.4.6Z" />
    <polygon class="cls-2" points="164.84 208.96 164.94 209.66 166.24 209.36 166.03 208.66 164.84 208.96" />
    <polygon class="cls-2" points="162.53 209.36 162.63 210.06 163.94 209.86 163.74 209.16 162.53 209.36" />
    <rect class="cls-3" x="160.26" y="209.67" width="1.3" height="0.8" transform="translate(-32.03 28.98) rotate(-9.36)" />
    <path class="cls-1" d="M167.44,212.46l3.6-.8,3.6-1-2.4-7.1s-1.6.4-3.1.9-3.3.8-3.3.8Z" />
    <polygon class="cls-2" points="171.63 207.36 171.84 208.06 173.13 207.66 172.84 206.96 171.63 207.36" />
    <path class="cls-2" d="M169.34,208l.2.7a2.18,2.18,0,0,1,.6-.1l.6-.2-.2-.7-.6.2A3.54,3.54,0,0,0,169.34,208Z" />
    <polygon class="cls-2" points="167.13 208.46 167.24 209.16 168.53 208.86 168.34 208.16 167.13 208.46" />
    <path class="cls-1" d="M172.24,215.86s-1.5.5-3,.9c-.7.3-1.5.4-2.1.6s-1,.2-1,.2l1.9,7.3s.4-.1,1-.3,1.5-.4,2.3-.6c1.7-.5,3.3-1.1,3.3-1.1Z" />
    <polygon class="cls-2" points="168.84 221.16 168.63 220.36 167.44 220.76 167.63 221.46 168.84 221.16" />
    <polygon class="cls-2" points="170.94 220.46 170.74 219.76 169.63 220.16 169.84 220.86 170.94 220.46" />
    <polygon class="cls-2" points="173.03 219.86 172.84 219.16 171.63 219.46 171.94 220.26 173.03 219.86" />
    <path class="cls-1" d="M166.24,217.66s-1.5.4-3.1.7c-.8.2-1.6.3-2.2.5s-1,.2-1,.2l1.4,7.4s.4-.1,1-.2,1.5-.3,2.3-.5a30.19,30.19,0,0,0,3.3-.8Z" />
    <polygon class="cls-2" points="162.44 222.66 162.24 221.96 161.03 222.16 161.24 222.96 162.44 222.66" />
    <polygon class="cls-2" points="164.53 222.16 164.44 221.46 163.24 221.76 163.34 222.46 164.53 222.16" />
    <polygon class="cls-2" points="166.74 221.66 166.53 220.96 165.34 221.26 165.53 221.96 166.74 221.66" />
    <path class="cls-1" d="M159.94,219.06l-3.2.6c-.8.2-1.6.3-2.2.4a6.73,6.73,0,0,1-1,.1l1.1,7.4s.4-.1,1-.2,1.5-.2,2.3-.4l3.3-.6Z" />
    <polygon class="cls-2" points="155.84 223.86 155.74 223.06 154.53 223.26 154.63 224.06 155.84 223.86" />
    <polygon class="cls-2" points="158.03 223.46 157.94 222.76 156.74 222.96 156.84 223.66 158.03 223.46" />
    <polygon class="cls-2" points="160.24 223.06 160.03 222.36 158.84 222.56 159.03 223.26 160.24 223.06" />
    <path class="cls-1" d="M153.64,220.16a4.54,4.54,0,0,1-1,.1c-.6.1-1.4.2-2.2.3l-3.2.4.9,7.4,3.3-.4c.8-.1,1.7-.2,2.3-.3s1-.2,1-.2Z" />
    <polygon class="cls-2" points="149.34 224.76 149.24 224.06 148.03 224.16 148.13 224.96 149.34 224.76" />
    <polygon class="cls-2" points="151.53 224.46 151.44 223.76 150.24 223.86 150.34 224.66 151.53 224.46" />
    <polygon class="cls-2" points="153.63 224.16 153.53 223.46 152.34 223.66 152.44 224.36 153.63 224.16" />
    <path class="cls-1" d="M147.14,221l-3.2.4c-1.6.2-3.2.3-3.2.3l.7,7.5s1.7-.1,3.3-.3l3.3-.4Z" />
    <polygon class="cls-2" points="142.74 225.46 142.63 224.76 141.44 224.86 141.53 225.66 142.74 225.46" />
    <rect class="cls-3" x="143.62" y="224.57" width="1.2" height="0.7" transform="translate(-22.92 16.47) rotate(-6.06)" />
    <polygon class="cls-2" points="147.13 225.06 147.03 224.26 145.84 224.46 145.94 225.16 147.13 225.06" />
    <path class="cls-1" d="M140.64,221.66s-1.6.1-3.3.3l-3.3.2.5,7.5s1.7-.1,3.3-.3,3.3-.3,3.3-.3Z" />
    <rect class="cls-3" x="134.91" y="225.35" width="1.2" height="0.7" transform="translate(-16.37 10.68) rotate(-4.26)" />
    <polygon class="cls-2" points="138.34 225.86 138.24 225.16 137.03 225.26 137.13 225.96 138.34 225.86" />
    <rect class="cls-3" x="139.26" y="225.08" width="1.2" height="0.8" transform="translate(-19.7 13.49) rotate(-5.16)" />
    <path class="cls-1" d="M134.14,222.16l-3.3.2-3.3.2.4,7.5,3.3-.2,3.3-.2Z" />
    <rect class="cls-3" x="128.33" y="225.76" width="1.2" height="0.7" transform="translate(-12.18 7.39) rotate(-3.14)" />
    <rect class="cls-3" x="130.52" y="225.65" width="1.2" height="0.7" transform="translate(-13.59 8.45) rotate(-3.51)" />
    <rect class="cls-3" x="132.63" y="225.46" width="1.2" height="0.7" transform="translate(-14.98 9.54) rotate(-3.88)" />
    <path class="cls-1" d="M127.64,222.56s-1.6.1-3.3.1-3.3.1-3.3.1l.2,7.5s1.7-.1,3.3-.1,3.3-.1,3.3-.1Z" />
    <rect class="cls-3" x="121.72" y="226.06" width="1.2" height="0.7" transform="translate(-7.61 4.28) rotate(-1.94)" />
    <rect class="cls-3" x="123.92" y="225.95" width="1.2" height="0.7" transform="translate(-9.33 5.39) rotate(-2.39)" />
    <rect class="cls-3" x="126.12" y="225.85" width="1.2" height="0.7" transform="translate(-10.76 6.37) rotate(-2.76)" />
    <polygon class="cls-1" points="121.14 222.86 114.53 222.96 114.53 230.46 121.33 230.36 121.14 222.86" />
    <polygon class="cls-2" points="116.33 226.96 116.33 226.16 115.03 226.26 115.03 226.96 116.33 226.96" />
    <rect class="cls-3" x="117.25" y="226.17" width="1.2" height="0.8" transform="translate(-3.81 2.02) rotate(-0.97)" />
    <rect class="cls-3" x="119.42" y="226.06" width="1.2" height="0.7" transform="translate(-6.14 3.36) rotate(-1.56)" />
    <polygon class="cls-1" points="114.53 222.96 108.14 223.06 107.83 230.56 114.53 230.46 114.53 222.96" />
    <polygon class="cls-2" points="109.64 227.06 109.73 226.36 108.44 226.36 108.44 227.16 109.64 227.06" />
    <polygon class="cls-2" points="111.83 227.06 111.94 226.26 110.64 226.36 110.64 227.06 111.83 227.06" />
    <polygon class="cls-2" points="114.03 226.96 114.03 226.26 112.83 226.26 112.83 227.06 114.03 226.96" />
    <polygon class="cls-1" points="108.14 223.06 101.53 222.76 101.14 230.26 107.83 230.56 108.14 223.06" />
    <rect class="cls-3" x="102.1" y="225.93" width="0.7" height="1.2" transform="translate(-128.39 318.85) rotate(-87.46)" />
    <polygon class="cls-2" points="105.23 226.96 105.33 226.26 104.03 226.16 104.03 226.96 105.23 226.96" />
    <polygon class="cls-2" points="107.44 227.06 107.53 226.36 106.23 226.26 106.23 227.06 107.44 227.06" />
    <polygon class="cls-1" points="101.53 222.76 94.94 222.46 94.53 229.96 101.14 230.26 101.53 222.76" />
    <polygon class="cls-2" points="96.44 226.56 96.53 225.76 95.23 225.76 95.23 226.46 96.44 226.56" />
    <rect class="cls-3" x="97.73" y="225.63" width="0.7" height="1.2" transform="translate(-132.95 312.39) rotate(-87.01)" />
    <rect class="cls-3" x="99.91" y="225.83" width="0.7" height="1.2" transform="translate(-130.74 315.66) rotate(-87.24)" />
    <path class="cls-1" d="M94.94,222.46l-3.3-.2-3.3-.2-.5,7.5,3.3.2,3.3.2Z" />
    <polygon class="cls-2" points="89.83 226.16 89.94 225.46 88.64 225.36 88.64 226.06 89.83 226.16" />
    <polygon class="cls-2" points="92.03 226.36 92.14 225.56 90.83 225.56 90.83 226.26 92.03 226.36" />
    <polygon class="cls-2" points="94.23 226.46 94.23 225.66 93.03 225.66 93.03 226.36 94.23 226.46" />
    <polygon class="cls-1" points="88.44 222.06 81.83 221.56 81.23 229.06 87.94 229.56 88.44 222.06" />
    <rect class="cls-3" x="82.31" y="224.68" width="0.7" height="1.2" transform="matrix(0.08, -1, 1, 0.08, -148.22, 290.69)" />
    <rect class="cls-3" x="84.53" y="224.85" width="0.7" height="1.2" transform="translate(-146.06 293.97) rotate(-85.89)" />
    <polygon class="cls-2" points="87.64 226.06 87.64 225.26 86.44 225.16 86.44 225.96 87.64 226.06" />
    <path class="cls-1" d="M81.84,221.56l-3.3-.2c-1.6-.1-3.3-.3-3.3-.3l-.7,7.5s1.7.2,3.3.3l3.3.2Z" />
    <polygon class="cls-2" points="76.64 225.26 76.73 224.46 75.53 224.36 75.44 225.06 76.64 225.26" />
    <polygon class="cls-2" points="78.83 225.36 78.94 224.66 77.64 224.56 77.64 225.26 78.83 225.36" />
    <polygon class="cls-2" points="81.03 225.56 81.14 224.76 79.83 224.66 79.83 225.46 81.03 225.56" />
    <polygon class="cls-1" points="75.33 221.06 68.83 220.36 67.94 227.86 74.64 228.46 75.33 221.06" />
    <polygon class="cls-2" points="70.03 224.56 70.14 223.76 68.94 223.66 68.83 224.46 70.03 224.56" />
    <rect class="cls-3" x="71.32" y="223.69" width="0.8" height="1.2" transform="translate(-158.57 273.48) rotate(-84.32)" />
    <polygon class="cls-2" points="74.44 224.96 74.53 224.26 73.33 224.16 73.23 224.86 74.44 224.96" />
    <path class="cls-1" d="M68.84,220.36s-1.6-.2-3.3-.3l-3.2-.4-1,7.4,3.3.4c1.7.2,3.3.3,3.3.3Z" />
    <polygon class="cls-2" points="63.44 223.86 63.53 223.06 62.34 222.86 62.23 223.66 63.44 223.86" />
    <polygon class="cls-2" points="65.64 224.06 65.73 223.36 64.53 223.16 64.44 223.96 65.64 224.06" />
    <polygon class="cls-2" points="67.83 224.36 67.94 223.56 66.73 223.46 66.64 224.16 67.83 224.36" />
    <path class="cls-1" d="M62.34,219.56l-3.2-.4c-.8-.1-1.6-.2-2.2-.3s-1-.2-1-.2l-1.2,7.4s.4.1,1,.2,1.5.2,2.3.3l3.3.4Z" />
    <path class="cls-2" d="M56.94,223l.1-.7a2.14,2.14,0,0,1-.6-.1,2.14,2.14,0,0,0-.6-.1l-.1.7a2.18,2.18,0,0,0,.6.1A2.18,2.18,0,0,1,56.94,223Z" />
    <polygon class="cls-2" points="59.13 223.26 59.23 222.46 58.03 222.36 57.84 223.06 59.13 223.26" />
    <rect class="cls-3" x="60.36" y="222.5" width="0.7" height="1.2" transform="translate(-168.43 253.94) rotate(-82.44)" />
    <path class="cls-1" d="M55.84,218.66s-1.6-.3-3.2-.5c-.8-.1-1.6-.3-2.2-.4s-1-.2-1-.2L48,225s.4.1,1,.2,1.5.2,2.3.4l3.3.6Z" />
    <path class="cls-2" d="M50.34,221.86l.1-.7a2.14,2.14,0,0,1-.6-.1,2.14,2.14,0,0,0-.6-.1l-.1.7a2.18,2.18,0,0,0,.6.1A2.14,2.14,0,0,0,50.34,221.86Z" />
    <polygon class="cls-2" points="52.53 222.26 52.63 221.46 51.44 221.26 51.34 222.06 52.53 222.26" />
    <rect class="cls-3" x="53.87" y="221.55" width="0.7" height="1.2" transform="translate(-173.69 240.7) rotate(-80.94)" />
    <path class="cls-1" d="M49.44,217.56l-3.1-.6c-.8-.2-1.5-.4-2.1-.5a7.35,7.35,0,0,1-.8-.2l-2.3,7.1a.77.77,0,0,1,.3.1,1.88,1.88,0,0,0,.8.2c.6.2,1.5.4,2.3.6,1.7.3,3.3.7,3.3.7Z" />
    <path class="cls-2" d="M43.94,220.46l.2-.7a2.18,2.18,0,0,0-.6-.1l-.6-.2-.2.7.6.2A2.14,2.14,0,0,0,43.94,220.46Z" />
    <path class="cls-2" d="M46,221l.2-.7a2.18,2.18,0,0,0-.6-.1,2.14,2.14,0,0,0-.6-.1l-.2.7a2.18,2.18,0,0,0,.6.1A2.14,2.14,0,0,0,46,221Z" />
    <polygon class="cls-2" points="48.23 221.46 48.34 220.66 47.13 220.46 47.03 221.16 48.23 221.46" />
    <path class="cls-5" d="M37.74,90.66s55.6-12.7,140.8,0" />
    <path class="cls-1" d="M38.54,95.56s.4-.1,1-.2,1.4-.3,2.2-.4,1.6-.3,2.2-.4,1-.2,1-.2L43.74,87s-.4.1-1.1.2-1.5.3-2.3.4a13.16,13.16,0,0,0-2.3.5c-.7.1-1.1.2-1.1.2Z" />
    <rect class="cls-3" x="42.65" y="90.66" width="1.2" height="0.8" transform="translate(-15.12 8.87) rotate(-9.97)" />
    <polygon class="cls-2" points="40.34 91.16 40.53 91.86 41.73 91.66 41.63 90.96 40.34 91.16" />
    <polygon class="cls-2" points="38.13 91.56 38.34 92.26 39.53 92.06 39.44 91.36 38.13 91.56" />
    <path class="cls-1" d="M44.94,94.36s1.6-.3,3.3-.5,3.3-.5,3.3-.5l-1-7.4s-1.7.2-3.4.5-3.4.5-3.4.5Z" />
    <rect class="cls-3" x="49.33" y="89.56" width="1.2" height="0.7" transform="translate(-12.47 8.16) rotate(-8.31)" />
    <rect class="cls-3" x="47.03" y="89.97" width="1.2" height="0.7" transform="translate(-13.31 8.39) rotate(-8.84)" />
    <rect class="cls-3" x="44.86" y="90.27" width="1.2" height="0.8" transform="matrix(0.99, -0.16, 0.16, 0.99, -14.15, 8.61)" />
    <path class="cls-1" d="M51.54,93.46a4.54,4.54,0,0,1,1-.1c.6-.1,1.4-.2,2.3-.3l3.3-.4-.9-7.4-3.4.4c-.8.1-1.7.2-2.3.3a7.47,7.47,0,0,1-1.1.1Z" />
    <rect class="cls-3" x="55.92" y="88.77" width="1.2" height="0.7" transform="translate(-10.38 7.5) rotate(-6.96)" />
    <polygon class="cls-2" points="53.73 89.06 53.84 89.76 55.03 89.66 54.94 88.96 53.73 89.06" />
    <polygon class="cls-2" points="51.44 89.36 51.53 90.06 52.84 89.96 52.73 89.16 51.44 89.36" />
    <path class="cls-1" d="M58.14,92.56a6.73,6.73,0,0,0,1-.1,14,14,0,0,1,2.3-.2c1.7-.2,3.3-.3,3.3-.3l-.7-7.5s-1.7.2-3.4.3c-.8.1-1.7.2-2.3.3a7.47,7.47,0,0,1-1.1.1Z" />
    <rect class="cls-3" x="62.65" y="87.97" width="1.2" height="0.8" transform="translate(-8.54 6.79) rotate(-5.76)" />
    <polygon class="cls-2" points="60.44 88.26 60.44 89.06 61.73 88.86 61.63 88.16 60.44 88.26" />
    <polygon class="cls-2" points="58.13 88.56 58.23 89.26 59.53 89.16 59.44 88.36 58.13 88.56" />
    <path class="cls-1" d="M64.74,91.86s1.7-.2,3.3-.3,3.3-.3,3.3-.3l-.6-7.5s-1.7.1-3.4.3-3.4.3-3.4.3Z" />
    <polygon class="cls-2" points="69.33 87.46 69.44 88.16 70.64 88.06 70.53 87.36 69.33 87.46" />
    <polygon class="cls-2" points="67.14 87.66 67.14 88.36 68.44 88.26 68.33 87.56 67.14 87.66" />
    <polygon class="cls-2" points="64.83 87.86 64.94 88.56 66.14 88.46 66.14 87.76 64.83 87.86" />
    <path class="cls-1" d="M71.44,91.36s1.7-.1,3.3-.3l3.3-.2-.5-7.5-3.4.2c-1.7.1-3.4.3-3.4.3Z" />
    <polygon class="cls-2" points="76.03 86.96 76.14 87.66 77.33 87.66 77.33 86.86 76.03 86.96" />
    <polygon class="cls-2" points="73.83 87.06 73.83 87.86 75.14 87.76 75.03 86.96 73.83 87.06" />
    <rect class="cls-3" x="71.62" y="87.26" width="1.2" height="0.7" transform="translate(-6.42 5.71) rotate(-4.34)" />
    <polygon class="cls-1" points="78.03 90.86 84.73 90.46 84.33 82.96 77.64 83.36 78.03 90.86" />
    <polygon class="cls-2" points="82.73 86.56 82.83 87.36 84.03 87.26 84.03 86.46 82.73 86.56" />
    <rect class="cls-3" x="80.55" y="86.67" width="1.2" height="0.8" transform="translate(-4.53 4.46) rotate(-3.06)" />
    <polygon class="cls-2" points="78.33 86.86 78.33 87.56 79.64 87.46 79.53 86.76 78.33 86.86" />
    <path class="cls-1" d="M84.74,90.46s1.7-.1,3.3-.1,3.3-.1,3.3-.1l-.2-7.5s-1.7,0-3.4.1-3.4.1-3.4.1Z" />
    <rect class="cls-3" x="89.55" y="86.27" width="1.2" height="0.8" transform="translate(-2.78 2.98) rotate(-1.87)" />
    <polygon class="cls-2" points="87.23 86.36 87.33 87.16 88.53 87.06 88.53 86.36 87.23 86.36" />
    <rect class="cls-3" x="85.05" y="86.47" width="1.2" height="0.8" transform="translate(-3.66 3.76) rotate(-2.46)" />
    <path class="cls-1" d="M91.34,90.26s1.7,0,3.3-.1,3.3-.1,3.3-.1l-.1-7.5s-1.7,0-3.4.1-3.4.1-3.4.1Z" />
    <polygon class="cls-2" points="96.23 86.16 96.23 86.86 97.53 86.86 97.53 86.06 96.23 86.16" />
    <polygon class="cls-2" points="94.03 86.16 94.03 86.96 95.23 86.86 95.23 86.16 94.03 86.16" />
    <rect class="cls-3" x="91.73" y="86.26" width="1.2" height="0.7" transform="translate(-2.34 2.56) rotate(-1.57)" />
    <polygon class="cls-1" points="98.03 90.16 104.73 90.06 104.73 82.56 97.94 82.66 98.03 90.16" />
    <rect class="cls-3" x="103.04" y="86.06" width="1.2" height="0.8" />
    <rect class="cls-3" x="100.75" y="86.07" width="1.2" height="0.8" transform="translate(-0.67 0.79) rotate(-0.45)" />
    <polygon class="cls-2" points="98.53 86.06 98.53 86.86 99.73 86.86 99.73 86.06 98.53 86.06" />
    <path class="cls-1" d="M104.74,90.06H108c1.7,0,3.3.1,3.3.1l.1-7.5s-1.7,0-3.4-.1h-3.4Z" />
    <polygon class="cls-2" points="109.73 86.06 109.73 86.86 110.94 86.86 110.94 86.16 109.73 86.06" />
    <path class="cls-2" d="M107.54,86.06v.8h1.2v-.8h-1.2Z" />
    <polygon class="cls-2" points="105.23 86.06 105.23 86.86 106.53 86.86 106.53 86.06 105.23 86.06" />
    <polygon class="cls-1" points="111.44 90.16 118.14 90.26 118.33 82.76 111.53 82.66 111.44 90.16" />
    <polygon class="cls-2" points="116.44 86.26 116.44 86.96 117.73 87.06 117.73 86.26 116.44 86.26" />
    <rect class="cls-3" x="114.44" y="85.94" width="0.8" height="1.2" transform="translate(25.78 199.44) rotate(-88.73)" />
    <rect class="cls-3" x="112.15" y="85.86" width="0.8" height="1.2" transform="translate(24.2 197.54) rotate(-89.03)" />
    <path class="cls-1" d="M118.14,90.26h1a19.3,19.3,0,0,1,2.3.1l3.3.2.3-7.5-3.4-.2c-.8,0-1.7-.1-2.3-.1h-1.1Z" />
    <polygon class="cls-2" points="123.23 86.46 123.14 87.16 124.44 87.26 124.44 86.56 123.23 86.46" />
    <polygon class="cls-2" points="120.94 86.36 120.94 87.06 122.14 87.16 122.23 86.36 120.94 86.36" />
    <polygon class="cls-2" points="118.73 86.26 118.73 87.06 119.94 87.06 119.94 86.36 118.73 86.26" />
    <polygon class="cls-1" points="124.73 90.56 131.44 90.86 131.84 83.36 125.14 83.06 124.73 90.56" />
    <polygon class="cls-2" points="129.94 86.76 129.94 87.56 131.13 87.56 131.13 86.86 129.94 86.76" />
    <rect class="cls-3" x="127.91" y="86.53" width="0.7" height="1.2" transform="translate(35.05 211.04) rotate(-87.24)" />
    <rect class="cls-3" x="125.7" y="86.38" width="0.7" height="1.2" transform="translate(33.57 209.05) rotate(-87.46)" />
    <path class="cls-1" d="M131.44,90.86a6.73,6.73,0,0,1,1,.1c.6,0,1.5.1,2.3.1,1.7.1,3.3.3,3.3.3l.5-7.5s-1.7-.1-3.4-.3a19.3,19.3,0,0,0-2.3-.1,6.27,6.27,0,0,1-1.1-.1Z" />
    <polygon class="cls-2" points="136.63 87.16 136.63 87.96 137.84 88.06 137.94 87.26 136.63 87.16" />
    <polygon class="cls-2" points="134.44 87.06 134.34 87.76 135.63 87.86 135.63 87.06 134.44 87.06" />
    <polygon class="cls-2" points="132.24 86.86 132.13 87.66 133.44 87.66 133.44 86.96 132.24 86.86" />
    <polygon class="cls-1" points="138.13 91.36 144.84 91.86 145.44 84.36 138.63 83.86 138.13 91.36" />
    <polygon class="cls-2" points="143.34 87.66 143.34 88.46 144.53 88.56 144.63 87.76 143.34 87.66" />
    <rect class="cls-3" x="141.37" y="87.44" width="0.7" height="1.2" transform="translate(43.06 222.58) rotate(-85.59)" />
    <rect class="cls-3" x="139.12" y="87.21" width="0.7" height="1.2" transform="translate(42.08 220.76) rotate(-85.97)" />
    <path class="cls-1" d="M144.84,91.86s1.7.1,3.3.3,3.3.3,3.3.3l.7-7.5-3.4-.4c-1.7-.1-3.4-.3-3.4-.3Z" />
    <polygon class="cls-2" points="150.13 88.26 150.03 88.96 151.24 89.16 151.34 88.36 150.13 88.26" />
    <polygon class="cls-2" points="147.84 88.06 147.84 88.76 149.03 88.86 149.13 88.16 147.84 88.06" />
    <polygon class="cls-2" points="145.63 87.86 145.53 88.56 146.84 88.66 146.84 87.96 145.63 87.86" />
    <polygon class="cls-1" points="151.44 92.46 158.13 93.16 158.94 85.66 152.13 84.96 151.44 92.46" />
    <polygon class="cls-2" points="156.84 88.96 156.74 89.66 157.94 89.86 158.03 89.06 156.84 88.96" />
    <rect class="cls-3" x="154.8" y="88.57" width="0.7" height="1.2" transform="matrix(0.1, -0.99, 0.99, 0.1, 50.68, 234.45)" />
    <polygon class="cls-2" points="152.34 88.46 152.24 89.26 153.53 89.36 153.63 88.66 152.34 88.46" />
    <path class="cls-1" d="M158.14,93.16s1.7.2,3.3.3c.8.1,1.7.2,2.3.3a6.73,6.73,0,0,0,1,.1l.9-7.4a4.54,4.54,0,0,0-1-.1c-.6-.1-1.5-.2-2.3-.3l-3.4-.4Z" />
    <polygon class="cls-2" points="163.53 89.66 163.44 90.36 164.63 90.56 164.74 89.86 163.53 89.66" />
    <polygon class="cls-2" points="161.24 89.46 161.13 90.16 162.44 90.26 162.53 89.56 161.24 89.46" />
    <polygon class="cls-2" points="159.03 89.16 158.94 89.96 160.24 90.06 160.34 89.36 159.03 89.16" />
    <polygon class="cls-1" points="164.74 93.86 171.34 94.76 172.34 87.36 165.63 86.46 164.74 93.86" />
    <rect class="cls-3" x="170.36" y="90.39" width="0.7" height="1.2" transform="translate(58.04 248.24) rotate(-82.44)" />
    <polygon class="cls-2" points="167.94 90.26 167.84 90.96 169.13 91.16 169.24 90.46 167.94 90.26" />
    <polygon class="cls-2" points="165.74 89.96 165.63 90.66 166.84 90.86 166.94 90.16 165.74 89.96" />
    <polygon class="cls-1" points="171.34 94.76 178.03 95.66 179.13 88.26 172.34 87.36 171.34 94.76" />
    <polygon class="cls-2" points="176.84 91.46 176.74 92.16 178.03 92.36 178.13 91.66 176.84 91.46" />
    <polygon class="cls-2" points="174.63 91.16 174.53 91.86 175.74 92.06 175.84 91.36 174.63 91.16" />
    <polygon class="cls-2" points="172.44 90.86 172.34 91.56 173.53 91.76 173.63 91.06 172.44 90.86" />
    <path class="cls-5" d="M59.34,86.86s16.9,78.2,17.9,124.4" />
    <polygon class="cls-1" points="54.53 88.06 55.94 94.46 63.23 92.96 61.84 86.46 54.53 88.06" />
    <rect class="cls-3" x="58.84" y="92.07" width="0.8" height="1.2" transform="translate(-17.54 13.92) rotate(-11.68)" />
    <rect class="cls-3" x="58.44" y="89.86" width="0.8" height="1.2" transform="translate(-17.29 13.98) rotate(-11.83)" />
    <rect class="cls-3" x="57.93" y="87.77" width="0.7" height="1.2" transform="translate(-17.18 14.13) rotate(-12.06)" />
    <polygon class="cls-1" points="55.94 94.46 57.23 100.96 64.53 99.46 63.23 92.96 55.94 94.46" />
    <rect class="cls-3" x="60.13" y="98.58" width="0.7" height="1.2" transform="translate(-18.27 13.78) rotate(-11.3)" />
    <rect class="cls-3" x="59.73" y="96.37" width="0.7" height="1.2" transform="translate(-18.02 13.82) rotate(-11.43)" />
    <rect class="cls-3" x="59.34" y="94.26" width="0.8" height="1.2" transform="translate(-17.81 13.91) rotate(-11.57)" />
    <polygon class="cls-1" points="57.23 100.96 58.44 107.46 65.83 106.06 64.53 99.46 57.23 100.96" />
    <rect class="cls-3" x="61.45" y="105.07" width="0.7" height="1.2" transform="translate(-19.1 13.8) rotate(-11.05)" />
    <rect class="cls-3" x="61.03" y="102.86" width="0.8" height="1.2" transform="translate(-18.78 13.77) rotate(-11.1)" />
    <rect class="cls-3" x="60.64" y="100.75" width="0.8" height="1.2" transform="translate(-18.55 13.81) rotate(-11.22)" />
    <polygon class="cls-1" points="58.44 107.46 59.73 113.96 67.03 112.56 65.83 106.06 58.44 107.46" />
    <rect class="cls-3" x="62.73" y="111.56" width="0.7" height="1.2" transform="translate(-19.73 13.67) rotate(-10.7)" />
    <rect class="cls-3" x="62.21" y="109.37" width="0.7" height="1.2" transform="translate(-19.52 13.69) rotate(-10.81)" />
    <rect class="cls-3" x="61.83" y="107.27" width="0.7" height="1.2" transform="matrix(0.98, -0.19, 0.19, 0.98, -19.25, 13.68)" />
    <polygon class="cls-1" points="59.73 113.96 60.94 120.46 68.23 119.06 67.03 112.56 59.73 113.96" />
    <rect class="cls-3" x="63.93" y="118.05" width="0.8" height="1.2" transform="translate(-20.35 13.55) rotate(-10.39)" />
    <rect class="cls-3" x="63.53" y="115.86" width="0.7" height="1.2" transform="translate(-20.23 13.66) rotate(-10.54)" />
    <rect class="cls-3" x="63.14" y="113.75" width="0.8" height="1.2" transform="translate(-19.98 13.66) rotate(-10.61)" />
    <polygon class="cls-1" points="60.94 120.46 62.03 126.86 69.44 125.56 68.23 119.06 60.94 120.46" />
    <rect class="cls-3" x="65.02" y="124.57" width="0.7" height="1.2" transform="translate(-20.92 13.39) rotate(-10.09)" />
    <rect class="cls-3" x="64.73" y="122.35" width="0.8" height="1.2" transform="translate(-20.75 13.48) rotate(-10.2)" />
    <rect class="cls-3" x="64.34" y="120.26" width="0.8" height="1.2" transform="translate(-20.58 13.53) rotate(-10.31)" />
    <polygon class="cls-1" points="62.03 126.86 63.23 133.36 70.64 132.16 69.44 125.56 62.03 126.86" />
    <rect class="cls-3" x="66.24" y="131.06" width="0.8" height="1.2" transform="translate(-21.4 13.24) rotate(-9.78)" />
    <rect class="cls-3" x="65.81" y="128.87" width="0.7" height="1.2" transform="translate(-21.26 13.29) rotate(-9.89)" />
    <rect class="cls-3" x="65.45" y="126.77" width="0.8" height="1.2" transform="translate(-21.15 13.39) rotate(-10.01)" />
    <polygon class="cls-1" points="63.23 133.36 64.33 139.96 71.73 138.66 70.64 132.16 63.23 133.36" />
    <rect class="cls-3" x="67.36" y="137.66" width="0.8" height="1.2" transform="translate(-21.76 12.98) rotate(-9.44)" />
    <rect class="cls-3" x="66.92" y="135.46" width="0.8" height="1.2" transform="translate(-21.64 13.05) rotate(-9.55)" />
    <rect class="cls-3" x="66.63" y="133.25" width="0.8" height="1.2" transform="matrix(0.99, -0.17, 0.17, 0.99, -21.53, 13.16)" />
    <polygon class="cls-1" points="64.33 139.96 65.33 146.46 72.73 145.26 71.73 138.66 64.33 139.96" />
    <rect class="cls-3" x="68.44" y="144.15" width="0.8" height="1.2" transform="translate(-22.05 12.72) rotate(-9.11)" />
    <rect class="cls-3" x="68.04" y="141.96" width="0.8" height="1.2" transform="translate(-21.95 12.8) rotate(-9.22)" />
    <rect class="cls-3" x="67.61" y="139.77" width="0.7" height="1.2" transform="translate(-21.88 12.89) rotate(-9.34)" />
    <polygon class="cls-1" points="65.33 146.46 66.33 152.96 73.73 151.86 72.73 145.26 65.33 146.46" />
    <polygon class="cls-2" points="70.03 150.66 69.33 150.76 69.53 151.96 70.23 151.86 70.03 150.66" />
    <rect class="cls-3" x="69.04" y="148.57" width="0.7" height="1.2" transform="translate(-22.12 12.45) rotate(-8.85)" />
    <rect class="cls-3" x="68.72" y="146.36" width="0.7" height="1.2" transform="translate(-22.01 12.53) rotate(-8.95)" />
    <polygon class="cls-1" points="66.33 152.96 67.33 159.46 74.73 158.36 73.73 151.86 66.33 152.96" />
    <rect class="cls-3" x="70.34" y="157.27" width="0.8" height="1.2" transform="translate(-21.98 11.82) rotate(-8.27)" />
    <rect class="cls-3" x="70.03" y="155.07" width="0.7" height="1.2" transform="translate(-22.06 12) rotate(-8.43)" />
    <polygon class="cls-2" points="70.44 152.86 69.64 152.96 69.83 154.16 70.53 154.06 70.44 152.86" />
    <path class="cls-1" d="M67.34,159.46s.2,1.6.5,3.3.4,3.3.4,3.3l7.4-1s-.2-1.6-.4-3.3-.5-3.3-.5-3.3Z" />
    <polygon class="cls-2" points="71.94 163.76 71.23 163.86 71.44 165.06 72.14 164.96 71.94 163.76" />
    <rect class="cls-3" x="71.01" y="161.55" width="0.7" height="1.2" transform="translate(-21.79 11.46) rotate(-7.97)" />
    <rect class="cls-3" x="70.74" y="159.45" width="0.8" height="1.2" transform="translate(-21.87 11.64) rotate(-8.11)" />
    <polygon class="cls-1" points="68.23 165.96 69.03 172.56 76.53 171.56 75.64 164.96 68.23 165.96" />
    <polygon class="cls-2" points="72.83 170.36 72.14 170.36 72.23 171.66 73.03 171.56 72.83 170.36" />
    <rect class="cls-3" x="71.94" y="168.16" width="0.8" height="1.2" transform="translate(-21.37 10.86) rotate(-7.49)" />
    <rect class="cls-3" x="71.65" y="165.96" width="0.8" height="1.2" transform="translate(-21.46 11.03) rotate(-7.63)" />
    <polygon class="cls-1" points="69.03 172.56 69.83 179.06 77.33 178.16 76.53 171.56 69.03 172.56" />
    <rect class="cls-3" x="72.94" y="176.96" width="0.8" height="1.2" transform="translate(-20.19 9.75) rotate(-6.69)" />
    <rect class="cls-3" x="72.73" y="174.75" width="0.8" height="1.2" transform="translate(-20.46 10.01) rotate(-6.87)" />
    <polygon class="cls-2" points="73.14 172.56 72.33 172.56 72.53 173.86 73.23 173.76 73.14 172.56" />
    <path class="cls-1" d="M69.84,179.06s.2,1.6.4,3.3a19.88,19.88,0,0,1,.2,2.2,6.73,6.73,0,0,1,.1,1l7.5-.8a6.73,6.73,0,0,0-.1-1c-.1-.6-.1-1.5-.2-2.3-.2-1.7-.4-3.3-.4-3.3Z" />
    <polygon class="cls-2" points="74.44 183.46 73.64 183.56 73.73 184.76 74.53 184.66 74.44 183.46" />
    <polygon class="cls-2" points="74.14 181.26 73.44 181.36 73.53 182.56 74.33 182.46 74.14 181.26" />
    <rect class="cls-3" x="73.26" y="179.17" width="0.8" height="1.2" transform="translate(-19.76 9.43) rotate(-6.46)" />
    <polygon class="cls-1" points="70.53 185.56 71.23 192.16 78.64 191.46 78.03 184.86 70.53 185.56" />
    <polygon class="cls-2" points="75.03 190.06 74.23 190.16 74.44 191.36 75.14 191.26 75.03 190.06" />
    <rect class="cls-3" x="74.12" y="187.85" width="0.8" height="1.2" transform="translate(-17.68 7.99) rotate(-5.49)" />
    <rect class="cls-3" x="73.96" y="185.77" width="0.8" height="1.2" transform="matrix(0.99, -0.1, 0.1, 0.99, -18.32, 8.4)" />
    <path class="cls-1" d="M71.24,192.16s.2,1.6.3,3.3.2,3.3.2,3.3l7.5-.5s-.1-1.7-.2-3.3-.3-3.3-.3-3.3Z" />
    <rect class="cls-3" x="74.82" y="196.66" width="0.7" height="1.2" transform="translate(-14.45 6.13) rotate(-4.26)" />
    <polygon class="cls-2" points="75.44 194.46 74.64 194.56 74.73 195.76 75.53 195.66 75.44 194.46" />
    <path class="cls-2" d="M75.24,192.26l-.7.1a2.14,2.14,0,0,0,.1.6v.6l.7-.1v-.6A2.14,2.14,0,0,1,75.24,192.26Z" />
    <path class="cls-1" d="M71.74,198.66s.1,1.6.2,3.3a17.73,17.73,0,0,1,.1,2.2v1l7.5-.4v-1c0-.6-.1-1.5-.1-2.3-.1-1.7-.2-3.3-.2-3.3Z" />
    <polygon class="cls-2" points="76.03 203.26 75.23 203.36 75.33 204.56 76.03 204.46 76.03 203.26" />
    <polygon class="cls-2" points="75.83 201.06 75.14 201.16 75.23 202.36 75.94 202.26 75.83 201.06" />
    <polygon class="cls-2" points="75.73 198.86 74.94 198.96 75.03 200.16 75.83 200.06 75.73 198.86" />
    <polygon class="cls-1" points="72.03 205.16 72.33 211.66 79.83 211.56 79.53 204.86 72.03 205.16" />
    <polygon class="cls-2" points="76.23 209.86 75.53 209.96 75.53 211.16 76.33 211.16 76.23 209.86" />
    <polygon class="cls-2" points="76.23 207.66 75.44 207.76 75.53 208.96 76.23 208.96 76.23 207.66" />
    <rect class="cls-3" x="75.45" y="205.57" width="0.8" height="1.2" transform="translate(-9.32 3.67) rotate(-2.61)" />
    <path class="cls-5" d="M155.64,87.06s-16.9,78.2-17.9,124.4" />
    <polygon class="cls-1" points="153.03 86.66 151.74 93.16 159.03 94.66 160.44 88.26 153.03 86.66" />
    <rect class="cls-3" x="154.94" y="92.42" width="1.2" height="0.8" transform="translate(33.15 226.34) rotate(-78.32)" />
    <rect class="cls-3" x="155.44" y="90.32" width="1.2" height="0.8" transform="translate(35.26 224.85) rotate(-78.17)" />
    <rect class="cls-3" x="155.76" y="88.24" width="1.2" height="0.7" transform="translate(37.04 222.98) rotate(-77.94)" />
    <polygon class="cls-1" points="151.74 93.16 150.44 99.66 157.74 101.16 159.03 94.66 151.74 93.16" />
    <rect class="cls-3" x="153.56" y="99.03" width="1.2" height="0.7" transform="translate(26.49 231.07) rotate(-78.7)" />
    <rect class="cls-3" x="153.94" y="96.8" width="1.2" height="0.7" transform="matrix(0.2, -0.98, 0.98, 0.2, 28.73, 229.41)" />
    <rect class="cls-3" x="154.37" y="94.61" width="1.2" height="0.7" transform="translate(30.98 227.84) rotate(-78.48)" />
    <polygon class="cls-1" points="150.44 99.66 149.13 106.26 156.53 107.66 157.74 101.16 150.44 99.66" />
    <rect class="cls-3" x="152.26" y="105.55" width="1.2" height="0.7" transform="translate(19.65 235.66) rotate(-78.97)" />
    <rect class="cls-3" x="152.65" y="103.31" width="1.2" height="0.7" transform="translate(21.98 234.04) rotate(-78.88)" />
    <rect class="cls-3" x="153.23" y="101.14" width="1.2" height="0.8" transform="translate(24.36 232.73) rotate(-78.81)" />
    <polygon class="cls-1" points="149.13 106.26 147.94 112.76 155.24 114.16 156.53 107.66 149.13 106.26" />
    <rect class="cls-3" x="151.08" y="112.01" width="1.2" height="0.7" transform="translate(13.03 240.45) rotate(-79.26)" />
    <rect class="cls-3" x="151.4" y="109.85" width="1.2" height="0.7" transform="translate(15.24 238.82) rotate(-79.19)" />
    <rect class="cls-3" x="151.82" y="107.68" width="1.2" height="0.7" transform="translate(17.55 237.31) rotate(-79.12)" />
    <polygon class="cls-1" points="147.94 112.76 146.74 119.26 154.03 120.66 155.24 114.16 147.94 112.76" />
    <rect class="cls-3" x="149.91" y="118.47" width="1.2" height="0.8" transform="translate(6.44 245.47) rotate(-79.61)" />
    <rect class="cls-3" x="150.26" y="116.36" width="1.2" height="0.7" transform="translate(8.52 243.67) rotate(-79.46)" />
    <rect class="cls-3" x="150.72" y="114.14" width="1.2" height="0.8" transform="translate(10.86 242.18) rotate(-79.39)" />
    <polygon class="cls-1" points="146.74 119.26 145.53 125.76 152.94 127.06 154.03 120.66 146.74 119.26" />
    <rect class="cls-3" x="148.6" y="125.05" width="1.2" height="0.7" transform="translate(-0.4 250.32) rotate(-79.91)" />
    <rect class="cls-3" x="149.1" y="122.88" width="1.2" height="0.7" transform="translate(1.88 248.72) rotate(-79.79)" />
    <rect class="cls-3" x="149.54" y="120.66" width="1.2" height="0.8" transform="translate(4.18 247.12) rotate(-79.69)" />
    <polygon class="cls-1" points="145.53 125.76 144.34 132.36 151.74 133.56 152.94 127.06 145.53 125.76" />
    <rect class="cls-3" x="147.54" y="131.49" width="1.2" height="0.8" transform="translate(-7 255.47) rotate(-80.22)" />
    <rect class="cls-3" x="147.91" y="129.34" width="1.2" height="0.7" transform="translate(-4.77 253.71) rotate(-80.11)" />
    <rect class="cls-3" x="148.3" y="127.22" width="1.2" height="0.8" transform="translate(-2.64 252.09) rotate(-80)" />
    <polygon class="cls-1" points="144.34 132.36 143.24 138.86 150.63 140.16 151.74 133.56 144.34 132.36" />
    <rect class="cls-3" x="146.44" y="138.06" width="1.2" height="0.7" transform="matrix(0.16, -0.99, 0.99, 0.16, -13.64, 260.72)" />
    <rect class="cls-3" x="146.81" y="135.85" width="1.2" height="0.7" transform="translate(-11.45 258.84) rotate(-80.4)" />
    <rect class="cls-3" x="147.17" y="133.7" width="1.2" height="0.8" transform="translate(-9.25 257.24) rotate(-80.33)" />
    <polygon class="cls-1" points="143.24 138.86 142.24 145.46 149.63 146.66 150.63 140.16 143.24 138.86" />
    <rect class="cls-3" x="145.39" y="144.6" width="1.2" height="0.8" transform="translate(-20.29 266.19) rotate(-80.89)" />
    <polygon class="cls-2" points="146.84 142.16 146.03 142.06 145.84 143.26 146.63 143.46 146.84 142.16" />
    <rect class="cls-3" x="146.14" y="140.26" width="1.2" height="0.8" transform="translate(-15.84 262.66) rotate(-80.67)" />
    <polygon class="cls-1" points="142.24 145.46 141.24 152.06 148.63 153.16 149.63 146.66 142.24 145.46" />
    <polygon class="cls-2" points="145.44 150.96 144.63 150.76 144.53 152.06 145.24 152.16 145.44 150.96" />
    <rect class="cls-3" x="144.73" y="148.91" width="1.2" height="0.7" transform="translate(-24.51 269.91) rotate(-81.15)" />
    <rect class="cls-3" x="145.03" y="146.77" width="1.2" height="0.7" transform="matrix(0.16, -0.99, 0.99, 0.16, -22.35, 268.1)" />
    <polygon class="cls-1" points="141.24 152.06 140.24 158.56 147.63 159.66 148.63 153.16 141.24 152.06" />
    <rect class="cls-3" x="143.41" y="157.69" width="1.2" height="0.8" transform="translate(-33.16 277.86) rotate(-81.73)" />
    <rect class="cls-3" x="143.69" y="155.46" width="1.2" height="0.7" transform="translate(-30.96 275.73) rotate(-81.58)" />
    <polygon class="cls-2" points="145.13 153.16 144.34 152.96 144.13 154.26 144.94 154.36 145.13 153.16" />
    <path class="cls-1" d="M140.24,158.56s-.2,1.6-.5,3.3-.4,3.3-.4,3.3l7.4,1s.2-1.6.4-3.3.5-3.3.5-3.3Z" />
    <polygon class="cls-2" points="143.53 164.06 142.74 163.96 142.63 165.16 143.34 165.26 143.53 164.06" />
    <rect class="cls-3" x="142.86" y="162.03" width="1.2" height="0.8" transform="translate(-37.36 281.89) rotate(-82)" />
    <rect class="cls-3" x="143.14" y="159.87" width="1.2" height="0.8" transform="translate(-35.23 279.93) rotate(-81.88)" />
    <polygon class="cls-1" points="139.34 165.16 138.44 171.76 145.84 172.76 146.74 166.16 139.34 165.16" />
    <polygon class="cls-2" points="142.63 170.56 141.94 170.46 141.74 171.66 142.53 171.76 142.63 170.56" />
    <rect class="cls-3" x="141.88" y="168.62" width="1.2" height="0.8" transform="translate(-43.66 288.27) rotate(-82.51)" />
    <rect class="cls-3" x="142.11" y="166.45" width="1.2" height="0.7" transform="translate(-41.56 286.09) rotate(-82.37)" />
    <polygon class="cls-1" points="138.44 171.76 137.63 178.36 145.13 179.26 145.84 172.76 138.44 171.76" />
    <rect class="cls-3" x="140.86" y="177.3" width="1.2" height="0.8" transform="translate(-51.51 297.49) rotate(-83.31)" />
    <polygon class="cls-2" points="142.13 174.96 141.34 174.86 141.24 176.06 141.94 176.16 142.13 174.96" />
    <polygon class="cls-2" points="142.34 172.76 141.63 172.66 141.44 173.86 142.24 173.96 142.34 172.76" />
    <path class="cls-1" d="M137.64,178.36s-.2,1.7-.4,3.3a21.51,21.51,0,0,0-.2,2.3,6.73,6.73,0,0,0-.1,1l7.5.8a6.73,6.73,0,0,1,.1-1c.1-.6.1-1.4.2-2.2.2-1.6.4-3.3.4-3.3Z" />
    <polygon class="cls-2" points="141.13 183.76 140.34 183.66 140.24 184.86 140.94 184.96 141.13 183.76" />
    <polygon class="cls-2" points="141.34 181.56 140.63 181.46 140.44 182.66 141.24 182.76 141.34 181.56" />
    <rect class="cls-3" x="140.55" y="179.58" width="1.2" height="0.7" transform="translate(-53.52 299.92) rotate(-83.53)" />
    <polygon class="cls-1" points="136.94 185.06 136.34 191.66 143.74 192.36 144.44 185.76 136.94 185.06" />
    <polygon class="cls-2" points="140.44 190.26 139.74 190.26 139.63 191.46 140.34 191.56 140.44 190.26" />
    <rect class="cls-3" x="139.63" y="188.36" width="1.2" height="0.7" transform="translate(-61.05 310.22) rotate(-84.5)" />
    <rect class="cls-3" x="139.91" y="186.15" width="1.2" height="0.8" transform="translate(-59.19 307.64) rotate(-84.24)" />
    <path class="cls-1" d="M136.34,191.66s-.2,1.7-.3,3.3-.2,3.3-.2,3.3l7.5.5s.1-1.6.2-3.3.3-3.3.3-3.3Z" />
    <rect class="cls-3" x="138.81" y="197.19" width="1.2" height="0.7" transform="translate(-67.94 321.91) rotate(-85.74)" />
    <polygon class="cls-2" points="140.03 194.66 139.34 194.66 139.24 195.86 140.03 195.96 140.03 194.66" />
    <path class="cls-2" d="M140.24,192.56l-.7-.1a2.14,2.14,0,0,1-.1.6v.6l.7.1v-.6A2.14,2.14,0,0,0,140.24,192.56Z" />
    <path class="cls-1" d="M135.84,198.36s-.1,1.7-.2,3.3a19.3,19.3,0,0,0-.1,2.3v1l7.5.4v-1a17.73,17.73,0,0,1,.1-2.2c.1-1.6.2-3.3.2-3.3Z" />
    <polygon class="cls-2" points="139.44 203.46 138.74 203.46 138.63 204.66 139.44 204.76 139.44 203.46" />
    <polygon class="cls-2" points="139.63 201.26 138.84 201.26 138.74 202.46 139.53 202.56 139.63 201.26" />
    <polygon class="cls-2" points="139.74 199.16 139.03 199.06 138.94 200.26 139.63 200.36 139.74 199.16" />
    <polygon class="cls-1" points="135.44 205.06 135.13 211.76 142.63 211.86 142.84 205.36 135.44 205.06" />
    <polygon class="cls-2" points="139.24 210.06 138.44 210.06 138.44 211.36 139.13 211.36 139.24 210.06" />
    <polygon class="cls-2" points="139.34 207.86 138.53 207.86 138.53 209.16 139.24 209.16 139.34 207.86" />
    <rect class="cls-3" x="138.46" y="205.96" width="1.2" height="0.8" transform="translate(-73.34 336.01) rotate(-87.43)" />
    <circle id="LeftShoulder" class="cls-6" cx="18.18" cy="59.82" r="1.4" />
</svg>