<svg id="NeckF" data-name="Layer 1" xmlns="http://www.w3.org/2000/svg" viewBox="0 0 120.27 60.38">
    <defs>
        <style>.cls-1{fill:#b3b3b3;}.cls-1,.cls-2,.cls-5{stroke:#231f20;stroke-miterlimit:10;}.cls-2,.cls-3{fill:none;}.cls-4,.cls-6{fill:#231f20;}.cls-5{fill:#fff;}.cls-6{fill-rule:evenodd;}</style>
    </defs>
    <title>Veste</title>
    <polygon class="cls-1" points="32.25 2.5 86.35 2.29 94.05 31 57.85 40.2 25.45 20.5 32.25 2.5" />
    <line class="cls-2" x1="38.65" y1="20.29" x2="79.45" y2="20.49" />
    <rect class="cls-3" x="37.95" y="15.39" width="7.1" height="7.5" />
    <rect class="cls-4" x="43.15" y="18.89" width="1.3" height="0.8" />
    <rect class="cls-4" x="40.75" y="18.89" width="1.3" height="0.8" />
    <rect class="cls-4" x="38.45" y="18.89" width="1.3" height="0.8" />
    <rect class="cls-3" x="45.05" y="15.39" width="7.1" height="7.5" />
    <rect class="cls-4" x="50.25" y="18.89" width="1.3" height="0.8" />
    <rect class="cls-4" x="47.85" y="18.89" width="1.3" height="0.8" />
    <rect class="cls-4" x="45.55" y="18.89" width="1.3" height="0.8" />
    <rect class="cls-3" x="52.05" y="15.39" width="7.1" height="7.5" />
    <rect class="cls-4" x="57.35" y="18.89" width="1.3" height="0.8" />
    <rect class="cls-4" x="54.95" y="18.89" width="1.3" height="0.8" />
    <rect class="cls-4" x="52.65" y="18.89" width="1.3" height="0.8" />
    <rect class="cls-3" x="59.15" y="15.39" width="7.1" height="7.5" />
    <rect class="cls-4" x="64.45" y="18.89" width="1.3" height="0.8" />
    <rect class="cls-4" x="62.05" y="18.89" width="1.3" height="0.8" />
    <rect class="cls-4" x="59.75" y="18.89" width="1.3" height="0.8" />
    <rect class="cls-3" x="66.25" y="15.39" width="7.1" height="7.5" />
    <rect class="cls-4" x="71.55" y="18.89" width="1.3" height="0.8" />
    <rect class="cls-4" x="69.15" y="18.89" width="1.3" height="0.8" />
    <rect class="cls-4" x="66.85" y="18.89" width="1.3" height="0.8" />
    <rect class="cls-3" x="73.35" y="15.39" width="7.1" height="7.5" />
    <rect class="cls-4" x="78.65" y="18.89" width="1.3" height="0.8" />
    <rect class="cls-4" x="76.25" y="18.89" width="1.3" height="0.8" />
    <rect class="cls-4" x="73.95" y="18.89" width="1.3" height="0.8" />
    <path class="cls-5" d="M16.05,22.49s5.6,21.2,15.3,31.4l19.8-21.2s-19.8-14.5-18.9-30.2h-2.5S24.15,20.09,16.05,22.49Z" />
    <path class="cls-3" d="M14.05,22.49s.1.5.3,1.2.4,1.6.6,2.5l1,3.6,7.2-2.2s-.5-1.6-1-3.3-.8-3.3-.8-3.2Z" />
    <polygon class="cls-6" points="19.25 26.8 18.55 27 18.95 28.3 19.65 28.09 19.25 26.8" />
    <polygon class="cls-6" points="18.65 24.5 17.95 24.7 18.25 26 18.95 25.8 18.65 24.5" />
    <polygon class="cls-6" points="18.05 22.2 17.35 22.39 17.65 23.7 18.35 23.5 18.05 22.2" />
    <path class="cls-3" d="M16,29.79s.6,1.8,1.2,3.5c.3.9.7,1.7.9,2.4a7,7,0,0,0,.4,1.1l6.9-2.8a8.41,8.41,0,0,1-.4-1c-.2-.6-.5-1.4-.8-2.2-.6-1.6-1.1-3.3-1.1-3.3Z" />
    <path class="cls-6" d="M21.55,33.59l-.7.3.2.6.2.6.7-.3-.2-.6Z" />
    <polygon class="cls-6" points="20.75 31.3 20.05 31.59 20.45 32.9 21.15 32.59 20.75 31.3" />
    <polygon class="cls-6" points="19.95 29.09 19.25 29.3 19.65 30.59 20.35 30.39 19.95 29.09" />
    <path class="cls-3" d="M18.55,36.79s.7,1.7,1.5,3.4c.4.9.8,1.7,1.1,2.3s.5,1.1.5,1.1l6.6-3.5s-.2-.4-.5-.9a20.92,20.92,0,0,1-1-2.1c-.7-1.5-1.4-3.1-1.4-3.1Z" />
    <polygon class="cls-6" points="24.35 40.09 23.75 40.4 24.35 41.59 24.95 41.3 24.35 40.09" />
    <polygon class="cls-6" points="23.35 37.99 22.65 38.3 23.25 39.49 23.95 39.2 23.35 37.99" />
    <polygon class="cls-6" points="22.45 35.8 21.75 36.09 22.25 37.3 22.95 36.99 22.45 35.8" />
    <path class="cls-3" d="M21.65,43.59a10.39,10.39,0,0,0,.6,1c.4.6.8,1.5,1.3,2.3s1,1.6,1.4,2.2.7,1,.7,1l6.1-4.4s-.2-.3-.6-.8-.8-1.2-1.2-1.9-.8-1.5-1.1-2-.5-.9-.5-.9Z" />
    <path class="cls-6" d="M28,46.29l-.6.4.4.6a3.61,3.61,0,0,0,.4.5l.6-.4a3.91,3.91,0,0,0-.4-.5A1.72,1.72,0,0,1,28,46.29Z" />
    <path class="cls-6" d="M26.65,44.29l-.6.4.4.6.4.6.6-.4-.4-.6Z" />
    <polygon class="cls-6" points="25.45 42.2 24.85 42.59 25.45 43.8 26.15 43.4 25.45 42.2" />
    <rect class="cls-3" x="33.37" y="41.89" width="7.5" height="7.5" transform="translate(-21.55 41.3) rotate(-46.65)" />
    <rect class="cls-4" x="38.21" y="43.47" width="1.4" height="0.7" transform="translate(-19.66 42.02) rotate(-46.64)" />
    <rect class="cls-4" x="36.42" y="45.34" width="1.4" height="0.7" transform="translate(-21.58 41.33) rotate(-46.66)" />
    <rect class="cls-4" x="34.7" y="47.13" width="1.4" height="0.7" transform="translate(-23.43 40.64) rotate(-46.66)" />
    <rect class="cls-3" x="38.55" y="36.38" width="7.5" height="7.5" transform="translate(-15.91 43.35) rotate(-46.65)" />
    <rect class="cls-4" x="43.33" y="38.03" width="1.4" height="0.7" transform="translate(-14.11 44.04) rotate(-46.64)" />
    <rect class="cls-4" x="41.61" y="39.83" width="1.4" height="0.7" transform="translate(-15.95 43.37) rotate(-46.66)" />
    <rect class="cls-4" x="39.96" y="41.69" width="1.4" height="0.7" transform="translate(-17.82 42.76) rotate(-46.66)" />
    <rect class="cls-3" x="43.67" y="30.94" width="7.5" height="7.5" transform="translate(-10.36 45.36) rotate(-46.65)" />
    <rect class="cls-4" x="48.51" y="32.52" width="1.4" height="0.7" transform="translate(-8.48 46.08) rotate(-46.64)" />
    <rect class="cls-4" x="46.87" y="34.38" width="1.4" height="0.7" transform="translate(-10.34 45.49) rotate(-46.66)" />
    <rect class="cls-4" x="45.14" y="36.18" width="1.4" height="0.7" transform="translate(-12.18 44.8) rotate(-46.66)" />
    <path class="cls-6" d="M28.85,48.69l.6-.4.4.6c.1.1.1.2.2.2l.2.2a.31.31,0,0,1,.1.2l-.6.5-.2-.2c0-.1-.1-.1-.2-.2l-.2-.2A2.49,2.49,0,0,0,28.85,48.69Z" />
    <path class="cls-6" d="M31.45,52a.35.35,0,0,1-.1-.2c-.1-.1-.2-.3-.3-.4a4.68,4.68,0,0,0-.5-.6l.6-.5.4.5h0l.1-.1.2-.2.5.5Z" />
    <rect class="cls-4" x="32.73" y="48.94" width="1.4" height="0.7" transform="translate(-25.36 39.75) rotate(-46.64)" />
    <path class="cls-4" d="M30.45,16.69l.4.4c.3.3.7.6,1.2,1s1.1.9,1.8,1.4c.3.2.7.5,1,.7s.7.5,1.1.7.7.5,1.1.7.7.4,1.1.6a8.79,8.79,0,0,1,1,.6,7.26,7.26,0,0,1,.9.5,15.52,15.52,0,0,1,1.9,1.1l-2.1-.8a18.94,18.94,0,0,1-2.1-1c-.4-.2-.7-.4-1.1-.6s-.7-.5-1.1-.7-.7-.5-1.1-.7-.7-.5-1-.8c-.7-.5-1.2-1.1-1.7-1.5s-.8-.9-1.1-1.2A1.09,1.09,0,0,0,30.45,16.69Z" />
    <path class="cls-5" d="M102.55,22.19s-5.6,21.2-15.3,31.4l-19.8-21.2s19.8-14.5,18.9-30.2h2.5C88.85,2.29,94.45,19.79,102.55,22.19Z" />
    <path class="cls-3" d="M97.25,20.69c0-.1-.3,1.6-.8,3.2a30.82,30.82,0,0,1-1,3.3l7.2,2.2s.6-1.8,1-3.6c.2-.9.5-1.8.6-2.5s.3-1.2.3-1.2Z" />
    <polygon class="cls-6" points="99.85 26.7 99.05 26.5 98.75 27.7 99.45 28 99.85 26.7" />
    <polygon class="cls-6" points="100.45 24.39 99.75 24.2 99.35 25.5 100.15 25.7 100.45 24.39" />
    <polygon class="cls-6" points="101.05 22.09 100.25 21.89 99.95 23.2 100.75 23.39 101.05 22.09" />
    <path class="cls-3" d="M95.45,27.29s-.5,1.6-1.1,3.3c-.3.8-.6,1.6-.8,2.2a8.41,8.41,0,0,1-.4,1l6.9,2.8a7,7,0,0,0,.4-1.1c.2-.7.6-1.5.9-2.4.6-1.8,1.2-3.5,1.2-3.5Z" />
    <path class="cls-6" d="M97.55,33.49l-.7-.3-.2.6-.2.6.7.3.2-.6Z" />
    <polygon class="cls-6" points="98.35 31.2 97.65 31 97.25 32.2 97.95 32.49 98.35 31.2" />
    <polygon class="cls-6" points="99.15 29 98.35 28.8 97.95 30 98.65 30.3 99.15 29" />
    <path class="cls-3" d="M93.15,33.69a29.72,29.72,0,0,1-1.4,3.1,20.92,20.92,0,0,1-1,2.1,9.24,9.24,0,0,1-.5.9l6.6,3.5s.2-.4.5-1.1a25.05,25.05,0,0,0,1.1-2.3c.8-1.7,1.5-3.4,1.5-3.4Z" />
    <polygon class="cls-6" points="94.65 40.09 93.95 39.7 93.45 40.9 94.05 41.3 94.65 40.09" />
    <polygon class="cls-6" points="95.65 37.9 95.05 37.59 94.45 38.8 95.15 39.09 95.65 37.9" />
    <polygon class="cls-6" points="96.65 35.7 95.95 35.4 95.45 36.7 96.15 36.99 96.65 35.7" />
    <path class="cls-3" d="M90.25,39.89s-.2.4-.5.9-.7,1.3-1.1,2-.9,1.4-1.2,1.9-.6.8-.6.8l6.1,4.4s.3-.4.7-1,.9-1.4,1.4-2.2.9-1.7,1.3-2.3a10.39,10.39,0,0,0,.6-1Z" />
    <path class="cls-6" d="M91.15,46.29l-.6-.4-.4.6a3.61,3.61,0,0,1-.4.5l.6.4a3.91,3.91,0,0,1,.4-.5Z" />
    <path class="cls-6" d="M92.45,44.29l-.6-.4a3,3,0,0,0-.3.6l-.4.6.6.4.4-.6C92.25,44.59,92.35,44.29,92.45,44.29Z" />
    <polygon class="cls-6" points="93.55 42.2 92.95 41.9 92.25 42.99 92.95 43.4 93.55 42.2" />
    <rect class="cls-3" x="77.74" y="41.58" width="7.5" height="7.5" transform="translate(-8.89 68.3) rotate(-43.35)" />
    <rect class="cls-4" x="79.49" y="42.81" width="0.7" height="1.4" transform="translate(-8.09 66.66) rotate(-43.34)" />
    <rect class="cls-4" x="81.19" y="44.63" width="0.7" height="1.4" transform="translate(-8.87 68.36) rotate(-43.36)" />
    <rect class="cls-4" x="82.95" y="46.38" width="0.7" height="1.4" transform="translate(-9.59 70.05) rotate(-43.36)" />
    <rect class="cls-3" x="72.54" y="36.1" width="7.5" height="7.5" transform="translate(-6.54 63.24) rotate(-43.35)" />
    <rect class="cls-4" x="74.29" y="37.33" width="0.7" height="1.4" transform="translate(-5.75 61.6) rotate(-43.34)" />
    <rect class="cls-4" x="76.05" y="39.08" width="0.7" height="1.4" transform="translate(-6.47 63.28) rotate(-43.34)" />
    <rect class="cls-4" x="77.75" y="40.9" width="0.7" height="1.4" transform="translate(-7.24 64.98) rotate(-43.36)" />
    <rect class="cls-3" x="67.33" y="30.62" width="7.5" height="7.5" transform="translate(-4.2 58.17) rotate(-43.35)" />
    <rect class="cls-4" x="69.16" y="31.78" width="0.7" height="1.4" transform="translate(-3.34 56.56) rotate(-43.34)" />
    <rect class="cls-4" x="70.85" y="33.6" width="0.7" height="1.4" transform="translate(-4.13 58.22) rotate(-43.34)" />
    <rect class="cls-4" x="72.54" y="35.42" width="0.7" height="1.4" transform="translate(-4.91 59.87) rotate(-43.34)" />
    <path class="cls-6" d="M89.75,48.39l-.6-.4-.4.6c-.1.1-.1.2-.2.2l-.2.2a.31.31,0,0,0-.1.2l.6.5.2-.2c0-.1.1-.1.2-.2l.2-.2A2.49,2.49,0,0,1,89.75,48.39Z" />
    <path class="cls-6" d="M87.05,51.69a.35.35,0,0,0,.1-.2c.1-.1.2-.3.3-.4a4.68,4.68,0,0,1,.5-.6l-.6-.5-.4.5h0l-.1-.1-.2-.2-.5.5Z" />
    <rect class="cls-4" x="84.74" y="48.3" width="0.7" height="1.4" transform="translate(-10.42 71.8) rotate(-43.36)" />
    <path class="cls-4" d="M88.15,16.39a2.22,2.22,0,0,1-.4.5,10,10,0,0,1-1.1,1.2c-.5.4-1,1-1.7,1.5-.3.3-.7.5-1,.8s-.7.5-1.1.7-.7.5-1.1.7a10.91,10.91,0,0,0-1.1.6,20,20,0,0,1-2.1,1c-1.2.5-2.1.8-2.1.8s.8-.4,1.9-1.1c.3-.2.6-.3.9-.5s.7-.4,1-.6.7-.4,1.1-.6.7-.5,1.1-.7.7-.5,1.1-.7.7-.5,1-.7c.7-.5,1.3-1,1.8-1.4s.9-.8,1.2-1C88.05,16.49,88.15,16.39,88.15,16.39Z" />
</svg>