<svg id="BodyF" xmlns="http://www.w3.org/2000/svg" viewBox="0 0 300 300"><title>_</title><g id="Body2"><path d="M181.79,33.12s55.3,21.2,55.8,30.1L225.29,81l-3.6,127.7c-79.6,13.5-145.3.1-145.3.1l-3.6-127.6-12.3-17.9c.5-8.9,55.8-30.1,55.8-30.1" style="fill:#fff;stroke:#231f20;stroke-miterlimit:10"/><polygon points="77.29 203.92 77.29 203.42 76.29 203.22 76.19 203.72 77.29 203.92" style="fill:#fff"/><polygon points="78.89 204.22 78.99 203.72 77.89 203.52 77.79 204.02 78.89 204.22" style="fill:#fff"/><rect x="79.87" y="203.64" width="0.4" height="1.1" transform="translate(-134.33 250.45) rotate(-80.76)" style="fill:#fff"/><polygon points="82.09 204.72 82.19 204.22 81.09 204.12 80.99 204.52 82.09 204.72" style="fill:#fff"/><rect x="83.06" y="204.06" width="0.4" height="1.1" transform="translate(-131.33 257.06) rotate(-81.59)" style="fill:#fff"/><rect x="84.61" y="204.32" width="0.4" height="1.1" transform="translate(-129.89 260.24) rotate(-81.98)" style="fill:#fff"/><polygon points="86.99 205.42 86.99 204.92 85.99 204.82 85.89 205.22 86.99 205.42" style="fill:#fff"/><polygon points="88.59 205.62 88.69 205.12 87.59 205.02 87.49 205.42 88.59 205.62" style="fill:#fff"/><rect x="89.51" y="204.95" width="0.4" height="1.1" transform="translate(-125.13 269.7) rotate(-83.06)" style="fill:#fff"/><rect x="91.14" y="205.22" width="0.4" height="1.1" transform="translate(-123.6 272.76) rotate(-83.37)" style="fill:#fff"/><rect x="92.72" y="205.44" width="0.4" height="1.1" transform="translate(-122.03 275.73) rotate(-83.7)" style="fill:#fff"/><polygon points="95.09 206.32 95.19 205.92 94.09 205.82 93.99 206.22 95.09 206.32" style="fill:#fff"/><polygon points="96.79 206.52 96.79 206.12 95.69 206.02 95.69 206.42 96.79 206.52" style="fill:#fff"/><polygon points="98.39 206.62 98.39 206.22 97.29 206.12 97.29 206.52 98.39 206.62" style="fill:#fff"/><rect x="99.34" y="206.04" width="0.4" height="1.1" transform="translate(-115.17 287.11) rotate(-84.83)" style="fill:#fff"/><rect x="100.87" y="206.17" width="0.4" height="1.1" transform="translate(-113.46 289.94) rotate(-85.15)" style="fill:#fff"/><polygon points="103.29 207.12 103.29 206.62 102.19 206.52 102.19 207.02 103.29 207.12" style="fill:#fff"/><polygon points="104.89 207.22 104.89 206.82 103.89 206.72 103.79 207.12 104.89 207.22" style="fill:#fff"/><polygon points="106.49 207.32 106.59 206.92 105.49 206.82 105.49 207.32 106.49 207.32" style="fill:#fff"/><polygon points="108.19 207.42 108.19 207.02 107.09 206.92 107.09 207.42 108.19 207.42" style="fill:#fff"/><rect x="109.08" y="206.69" width="0.4" height="1.1" transform="translate(-104.29 303.55) rotate(-86.47)" style="fill:#fff"/><rect x="110.69" y="206.87" width="0.4" height="1.1" transform="translate(-102.43 306.5) rotate(-86.78)" style="fill:#fff"/><rect x="112.39" y="206.93" width="0.4" height="1.1" transform="translate(-100.55 308.96) rotate(-86.97)" style="fill:#fff"/><polygon points="114.69 207.82 114.69 207.42 113.69 207.32 113.59 207.72 114.69 207.82" style="fill:#fff"/><polygon points="116.39 207.92 116.39 207.52 115.29 207.42 115.29 207.82 116.39 207.92" style="fill:#fff"/><polygon points="117.99 208.02 117.99 207.52 116.89 207.52 116.89 207.92 117.99 208.02" style="fill:#fff"/><polygon points="119.59 208.02 119.69 207.52 118.59 207.52 118.49 208.02 119.59 208.02" style="fill:#fff"/><polygon points="121.29 208.02 121.29 207.62 120.19 207.62 120.19 208.02 121.29 208.02" style="fill:#fff"/><rect x="122.12" y="207.34" width="0.4" height="1.1" transform="matrix(0.03, -1, 1, 0.03, -88.59, 324.91)" style="fill:#fff"/><rect x="123.73" y="207.32" width="0.4" height="1.1" transform="translate(-86.48 327.43) rotate(-88.8)" style="fill:#fff"/><polygon points="126.19 208.22 126.19 207.72 125.09 207.72 125.09 208.12 126.19 208.22" style="fill:#fff"/><polygon points="127.79 208.22 127.79 207.72 126.69 207.72 126.69 208.22 127.79 208.22" style="fill:#fff"/><polygon points="129.49 208.22 129.49 207.82 128.39 207.82 128.39 208.22 129.49 208.22" style="fill:#fff"/><polygon points="131.09 208.22 131.09 207.82 129.99 207.82 129.99 208.22 131.09 208.22" style="fill:#fff"/><polygon points="132.69 208.22 132.69 207.82 131.59 207.82 131.59 208.22 132.69 208.22" style="fill:#fff"/><polygon points="134.39 208.22 134.39 207.72 133.29 207.82 133.29 208.22 134.39 208.22" style="fill:#fff"/><rect x="134.89" y="207.72" width="1.1" height="0.4" style="fill:#fff"/><rect x="136.58" y="207.73" width="1.1" height="0.4" transform="translate(-2.73 1.83) rotate(-0.76)" style="fill:#fff"/><rect x="138.18" y="207.73" width="1.1" height="0.4" transform="translate(-3.86 2.63) rotate(-1.07)" style="fill:#fff"/><polygon points="140.89 208.12 140.89 207.72 139.79 207.72 139.79 208.12 140.89 208.12" style="fill:#fff"/><polygon points="142.59 208.12 142.59 207.62 141.49 207.72 141.49 208.12 142.59 208.12" style="fill:#fff"/><polygon points="144.19 208.12 144.19 207.62 143.09 207.62 143.09 208.12 144.19 208.12" style="fill:#fff"/><polygon points="222.09 203.42 222.19 203.82 223.19 203.62 223.09 203.22 222.09 203.42" style="fill:#fff"/><polygon points="220.49 203.72 220.59 204.12 221.69 203.92 221.59 203.52 220.49 203.72" style="fill:#fff"/><rect x="219.01" y="203.91" width="1.1" height="0.4" transform="translate(-30.8 39.23) rotate(-9.54)" style="fill:#fff"/><polygon points="217.29 204.22 217.39 204.72 218.49 204.52 218.39 204.12 217.29 204.22" style="fill:#fff"/><rect x="215.8" y="204.42" width="1.1" height="0.4" transform="translate(-28.36 34.94) rotate(-8.67)" style="fill:#fff"/><rect x="214.21" y="204.6" width="1.1" height="0.4" transform="translate(-27.04 32.76) rotate(-8.21)" style="fill:#fff"/><polygon points="212.59 204.92 212.59 205.42 213.69 205.22 213.59 204.82 212.59 204.92" style="fill:#fff"/><polygon points="210.99 205.12 210.99 205.62 212.09 205.42 211.99 205.02 210.99 205.12" style="fill:#fff"/><rect x="209.4" y="205.22" width="1.1" height="0.4" transform="translate(-23.71 27.43) rotate(-7.08)" style="fill:#fff"/><rect x="207.77" y="205.44" width="1.1" height="0.4" transform="translate(-22.76 25.95) rotate(-6.76)" style="fill:#fff"/><polygon points="206.19 205.72 206.19 206.12 207.29 206.02 207.29 205.62 206.19 205.72" style="fill:#fff"/><polygon points="204.59 205.92 204.59 206.32 205.69 206.22 205.69 205.82 204.59 205.92" style="fill:#fff"/><polygon points="202.99 206.02 202.99 206.52 204.09 206.42 204.09 205.92 202.99 206.02" style="fill:#fff"/><polygon points="201.39 206.22 201.39 206.62 202.49 206.52 202.49 206.12 201.39 206.22" style="fill:#fff"/><rect x="199.78" y="206.33" width="1.1" height="0.4" transform="translate(-17.8 18.89) rotate(-5.17)" style="fill:#fff"/><rect x="198.18" y="206.43" width="1.1" height="0.4" transform="translate(-17 17.81) rotate(-4.92)" style="fill:#fff"/><polygon points="196.59 206.62 196.59 207.12 197.69 207.02 197.59 206.52 196.59 206.62" style="fill:#fff"/><polygon points="194.99 206.82 194.99 207.22 196.09 207.12 195.99 206.72 194.99 206.82" style="fill:#fff"/><polygon points="193.39 206.92 193.39 207.32 194.49 207.22 194.39 206.82 193.39 206.92" style="fill:#fff"/><polygon points="191.79 207.02 191.79 207.42 192.89 207.32 192.79 206.92 191.79 207.02" style="fill:#fff"/><rect x="190.19" y="207.02" width="1.1" height="0.4" transform="translate(-12.4 12.14) rotate(-3.53)" style="fill:#fff"/><rect x="188.6" y="207.11" width="1.1" height="0.4" transform="translate(-11.55 11.16) rotate(-3.28)" style="fill:#fff"/><rect x="187" y="207.21" width="1.1" height="0.4" transform="translate(-10.45 9.95) rotate(-2.96)" style="fill:#fff"/><polygon points="185.29 207.32 185.39 207.82 186.39 207.72 186.39 207.32 185.29 207.32" style="fill:#fff"/><polygon points="183.69 207.42 183.69 207.92 184.79 207.82 184.79 207.42 183.69 207.42" style="fill:#fff"/><polygon points="182.09 207.52 182.09 207.92 183.19 207.92 183.19 207.52 182.09 207.52" style="fill:#fff"/><polygon points="180.49 207.52 180.49 208.02 181.59 207.92 181.59 207.52 180.49 207.52" style="fill:#fff"/><polygon points="178.89 207.62 178.89 208.02 179.99 208.02 179.99 207.52 178.89 207.62" style="fill:#fff"/><rect x="177.3" y="207.62" width="1.1" height="0.4" transform="translate(-5.2 4.57) rotate(-1.45)" style="fill:#fff"/><rect x="175.7" y="207.62" width="1.1" height="0.4" transform="translate(-4.3 3.73) rotate(-1.2)" style="fill:#fff"/><polygon points="174.09 207.72 174.09 208.12 175.19 208.12 175.19 207.62 174.09 207.72" style="fill:#fff"/><polygon points="172.49 207.72 172.49 208.22 173.59 208.12 173.49 207.72 172.49 207.72" style="fill:#fff"/><polygon points="170.89 207.82 170.89 208.22 171.89 208.22 171.89 207.72 170.89 207.82" style="fill:#fff"/><polygon points="169.19 207.72 169.19 208.22 170.29 208.22 170.29 207.82 169.19 207.72" style="fill:#fff"/><polygon points="167.59 207.72 167.59 208.22 168.69 208.22 168.69 207.72 167.59 207.72" style="fill:#fff"/><polygon points="165.99 207.72 165.99 208.12 167.09 208.22 167.09 207.72 165.99 207.72" style="fill:#fff"/><rect x="164.39" y="207.72" width="1.1" height="0.4" style="fill:#fff"/><rect x="163.19" y="207.42" width="0.4" height="1.1" transform="translate(-46.72 368.6) rotate(-89.24)" style="fill:#fff"/><rect x="161.53" y="207.4" width="0.4" height="1.1" transform="translate(-49.22 365.76) rotate(-88.93)" style="fill:#fff"/><polygon points="159.59 207.62 159.59 208.12 160.69 208.12 160.69 207.62 159.59 207.62" style="fill:#fff"/><polygon points="157.99 207.62 157.99 208.02 159.09 208.12 159.09 207.62 157.99 207.62" style="fill:#fff"/><polygon points="156.39 207.62 156.39 208.02 157.39 208.02 157.49 207.62 156.39 207.62" style="fill:#fff"/><path d="M67.09,69s7.9-12.1,54.8-28.2" style="fill:none;stroke:#231f20;stroke-miterlimit:10"/><path d="M231.09,69.32s-7.9-12.1-54.8-28.2" style="fill:none;stroke:#231f20;stroke-miterlimit:10"/><path d="M144.69,48.42l.5,166s6.5,2.2,11,0L155.09,49s-5.8,1.6-9.5,1.2Z" style="fill:none"/><line x1="155.69" y1="48.42" x2="156.19" y2="215.32" style="fill:none;stroke:#231f20;stroke-miterlimit:10"/><line x1="144.69" y1="48.42" x2="145.19" y2="215.32" style="fill:none;stroke:#231f20;stroke-miterlimit:10"/><rect x="154.89" y="49.32" width="0.4" height="1.1" style="fill:#fff"/><rect x="154.89" y="51.02" width="0.4" height="1.1" style="fill:#fff"/><rect x="154.89" y="52.72" width="0.4" height="1.1" style="fill:#fff"/><rect x="154.89" y="54.42" width="0.4" height="1.1" style="fill:#fff"/><rect x="154.89" y="56.12" width="0.4" height="1.1" style="fill:#fff"/><rect x="154.89" y="57.72" width="0.4" height="1.1" style="fill:#fff"/><rect x="154.89" y="59.42" width="0.4" height="1.1" style="fill:#fff"/><rect x="154.89" y="61.12" width="0.4" height="1.1" style="fill:#fff"/><rect x="154.89" y="62.82" width="0.4" height="1.1" style="fill:#fff"/><rect x="154.89" y="64.52" width="0.4" height="1.1" style="fill:#fff"/><rect x="154.89" y="66.22" width="0.4" height="1.1" style="fill:#fff"/><rect x="154.89" y="67.92" width="0.4" height="1.1" style="fill:#fff"/><rect x="154.89" y="69.62" width="0.4" height="1.1" style="fill:#fff"/><rect x="154.89" y="71.22" width="0.4" height="1.1" style="fill:#fff"/><rect x="154.89" y="72.92" width="0.4" height="1.1" style="fill:#fff"/><rect x="154.89" y="74.62" width="0.4" height="1.1" style="fill:#fff"/><rect x="154.89" y="76.32" width="0.4" height="1.1" style="fill:#fff"/><rect x="154.89" y="78.02" width="0.4" height="1.1" style="fill:#fff"/><rect x="154.89" y="79.72" width="0.4" height="1.1" style="fill:#fff"/><rect x="154.89" y="81.42" width="0.4" height="1.1" style="fill:#fff"/><rect x="154.89" y="83.12" width="0.4" height="1.1" style="fill:#fff"/><rect x="154.89" y="84.72" width="0.4" height="1.1" style="fill:#fff"/><rect x="154.89" y="86.42" width="0.4" height="1.1" style="fill:#fff"/><rect x="154.89" y="88.12" width="0.4" height="1.1" style="fill:#fff"/><rect x="154.89" y="89.82" width="0.4" height="1.1" style="fill:#fff"/><rect x="154.89" y="91.52" width="0.4" height="1.1" style="fill:#fff"/><rect x="154.89" y="93.22" width="0.4" height="1.1" style="fill:#fff"/><rect x="154.89" y="94.92" width="0.4" height="1.1" style="fill:#fff"/><rect x="154.89" y="96.62" width="0.4" height="1.1" style="fill:#fff"/><rect x="154.89" y="98.32" width="0.4" height="1.1" style="fill:#fff"/><rect x="154.89" y="99.92" width="0.4" height="1.1" style="fill:#fff"/><rect x="154.89" y="101.62" width="0.4" height="1.1" style="fill:#fff"/><rect x="154.89" y="103.32" width="0.4" height="1.1" style="fill:#fff"/><rect x="154.89" y="105.02" width="0.4" height="1.1" style="fill:#fff"/><rect x="154.89" y="106.72" width="0.4" height="1.1" style="fill:#fff"/><rect x="154.89" y="108.42" width="0.4" height="1.1" style="fill:#fff"/><rect x="154.89" y="110.12" width="0.4" height="1.1" style="fill:#fff"/><rect x="154.89" y="111.82" width="0.4" height="1.1" style="fill:#fff"/><rect x="154.89" y="113.42" width="0.4" height="1.1" style="fill:#fff"/><rect x="154.89" y="115.12" width="0.4" height="1.1" style="fill:#fff"/><rect x="154.89" y="116.82" width="0.4" height="1.1" style="fill:#fff"/><rect x="154.89" y="118.52" width="0.4" height="1.1" style="fill:#fff"/><rect x="154.89" y="120.22" width="0.4" height="1.1" style="fill:#fff"/><rect x="154.89" y="121.92" width="0.4" height="1.1" style="fill:#fff"/><rect x="154.89" y="123.62" width="0.4" height="1.1" style="fill:#fff"/><rect x="154.89" y="125.32" width="0.4" height="1.1" style="fill:#fff"/><rect x="154.89" y="126.92" width="0.4" height="1.1" style="fill:#fff"/><rect x="154.89" y="128.62" width="0.4" height="1.1" style="fill:#fff"/><rect x="154.89" y="130.32" width="0.4" height="1.1" style="fill:#fff"/><rect x="154.89" y="132.02" width="0.4" height="1.1" style="fill:#fff"/><rect x="154.89" y="133.72" width="0.4" height="1.1" style="fill:#fff"/><rect x="154.89" y="135.42" width="0.4" height="1.1" style="fill:#fff"/><rect x="154.89" y="137.12" width="0.4" height="1.1" style="fill:#fff"/><rect x="154.89" y="138.82" width="0.4" height="1.1" style="fill:#fff"/><rect x="154.89" y="140.52" width="0.4" height="1.1" style="fill:#fff"/><rect x="154.89" y="142.12" width="0.4" height="1.1" style="fill:#fff"/><rect x="154.89" y="143.82" width="0.4" height="1.1" style="fill:#fff"/><rect x="154.89" y="145.52" width="0.4" height="1.1" style="fill:#fff"/><rect x="154.89" y="147.22" width="0.4" height="1.1" style="fill:#fff"/><rect x="154.89" y="148.92" width="0.4" height="1.1" style="fill:#fff"/><rect x="154.89" y="150.62" width="0.4" height="1.1" style="fill:#fff"/><rect x="154.89" y="152.32" width="0.4" height="1.1" style="fill:#fff"/><rect x="154.89" y="154.02" width="0.4" height="1.1" style="fill:#fff"/><rect x="154.89" y="155.62" width="0.4" height="1.1" style="fill:#fff"/><rect x="154.89" y="157.32" width="0.4" height="1.1" style="fill:#fff"/><rect x="154.89" y="159.02" width="0.4" height="1.1" style="fill:#fff"/><rect x="154.89" y="160.72" width="0.4" height="1.1" style="fill:#fff"/><rect x="154.89" y="162.42" width="0.4" height="1.1" style="fill:#fff"/><rect x="154.89" y="164.12" width="0.4" height="1.1" style="fill:#fff"/><rect x="154.89" y="165.82" width="0.4" height="1.1" style="fill:#fff"/><rect x="154.89" y="167.52" width="0.4" height="1.1" style="fill:#fff"/><rect x="154.89" y="169.12" width="0.4" height="1.1" style="fill:#fff"/><rect x="154.89" y="170.82" width="0.4" height="1.1" style="fill:#fff"/><rect x="154.89" y="172.52" width="0.4" height="1.1" style="fill:#fff"/><rect x="154.89" y="174.22" width="0.4" height="1.1" style="fill:#fff"/><rect x="154.89" y="175.92" width="0.4" height="1.1" style="fill:#fff"/><rect x="154.89" y="177.62" width="0.4" height="1.1" style="fill:#fff"/><rect x="154.89" y="179.32" width="0.4" height="1.1" style="fill:#fff"/><rect x="154.89" y="181.02" width="0.4" height="1.1" style="fill:#fff"/><rect x="154.89" y="182.62" width="0.4" height="1.1" style="fill:#fff"/><rect x="154.89" y="184.32" width="0.4" height="1.1" style="fill:#fff"/><rect x="154.89" y="186.02" width="0.4" height="1.1" style="fill:#fff"/><rect x="154.89" y="187.72" width="0.4" height="1.1" style="fill:#fff"/><rect x="154.89" y="189.42" width="0.4" height="1.1" style="fill:#fff"/><rect x="154.89" y="191.12" width="0.4" height="1.1" style="fill:#fff"/><rect x="154.89" y="192.82" width="0.4" height="1.1" style="fill:#fff"/><rect x="154.89" y="194.52" width="0.4" height="1.1" style="fill:#fff"/><rect x="154.89" y="196.22" width="0.4" height="1.1" style="fill:#fff"/><rect x="154.89" y="197.82" width="0.4" height="1.1" style="fill:#fff"/><rect x="154.89" y="199.52" width="0.4" height="1.1" style="fill:#fff"/><rect x="154.89" y="201.22" width="0.4" height="1.1" style="fill:#fff"/><rect x="154.89" y="202.92" width="0.4" height="1.1" style="fill:#fff"/><rect x="154.89" y="204.62" width="0.4" height="1.1" style="fill:#fff"/><rect x="154.89" y="206.32" width="0.4" height="1.1" style="fill:#fff"/><rect x="154.89" y="208.02" width="0.4" height="1.1" style="fill:#fff"/><rect x="154.89" y="209.72" width="0.4" height="1.1" style="fill:#fff"/><rect x="154.89" y="211.32" width="0.4" height="1.1" style="fill:#fff"/><rect x="154.89" y="213.02" width="0.4" height="1.1" style="fill:#fff"/><rect x="146.19" y="49.22" width="0.4" height="1.1" style="fill:#fff"/><rect x="146.19" y="50.92" width="0.4" height="1.1" style="fill:#fff"/><rect x="146.19" y="52.62" width="0.4" height="1.1" style="fill:#fff"/><rect x="146.19" y="54.32" width="0.4" height="1.1" style="fill:#fff"/><rect x="146.19" y="56.02" width="0.4" height="1.1" style="fill:#fff"/><rect x="146.19" y="57.72" width="0.4" height="1.1" style="fill:#fff"/><rect x="146.19" y="59.42" width="0.4" height="1.1" style="fill:#fff"/><rect x="146.19" y="61.12" width="0.4" height="1.1" style="fill:#fff"/><rect x="146.19" y="62.72" width="0.4" height="1.1" style="fill:#fff"/><rect x="146.19" y="64.42" width="0.4" height="1.1" style="fill:#fff"/><rect x="146.19" y="66.12" width="0.4" height="1.1" style="fill:#fff"/><rect x="146.19" y="67.82" width="0.4" height="1.1" style="fill:#fff"/><rect x="146.19" y="69.52" width="0.4" height="1.1" style="fill:#fff"/><rect x="146.19" y="71.22" width="0.4" height="1.1" style="fill:#fff"/><rect x="146.19" y="72.92" width="0.4" height="1.1" style="fill:#fff"/><rect x="146.19" y="74.62" width="0.4" height="1.1" style="fill:#fff"/><rect x="146.19" y="76.22" width="0.4" height="1.1" style="fill:#fff"/><rect x="146.19" y="77.92" width="0.4" height="1.1" style="fill:#fff"/><rect x="146.19" y="79.62" width="0.4" height="1.1" style="fill:#fff"/><rect x="146.19" y="81.32" width="0.4" height="1.1" style="fill:#fff"/><rect x="146.19" y="83.02" width="0.4" height="1.1" style="fill:#fff"/><rect x="146.19" y="84.72" width="0.4" height="1.1" style="fill:#fff"/><rect x="146.19" y="86.42" width="0.4" height="1.1" style="fill:#fff"/><rect x="146.19" y="88.12" width="0.4" height="1.1" style="fill:#fff"/><rect x="146.19" y="89.82" width="0.4" height="1.1" style="fill:#fff"/><rect x="146.19" y="91.42" width="0.4" height="1.1" style="fill:#fff"/><rect x="146.19" y="93.12" width="0.4" height="1.1" style="fill:#fff"/><rect x="146.19" y="94.82" width="0.4" height="1.1" style="fill:#fff"/><rect x="146.19" y="96.52" width="0.4" height="1.1" style="fill:#fff"/><rect x="146.19" y="98.22" width="0.4" height="1.1" style="fill:#fff"/><rect x="146.19" y="99.92" width="0.4" height="1.1" style="fill:#fff"/><rect x="146.19" y="101.62" width="0.4" height="1.1" style="fill:#fff"/><rect x="146.19" y="103.32" width="0.4" height="1.1" style="fill:#fff"/><rect x="146.19" y="104.92" width="0.4" height="1.1" style="fill:#fff"/><rect x="146.19" y="106.62" width="0.4" height="1.1" style="fill:#fff"/><rect x="146.19" y="108.32" width="0.4" height="1.1" style="fill:#fff"/><rect x="146.19" y="110.02" width="0.4" height="1.1" style="fill:#fff"/><rect x="146.19" y="111.72" width="0.4" height="1.1" style="fill:#fff"/><rect x="146.19" y="113.42" width="0.4" height="1.1" style="fill:#fff"/><rect x="146.19" y="115.12" width="0.4" height="1.1" style="fill:#fff"/><rect x="146.19" y="116.82" width="0.4" height="1.1" style="fill:#fff"/><rect x="146.19" y="118.42" width="0.4" height="1.1" style="fill:#fff"/><rect x="146.19" y="120.12" width="0.4" height="1.1" style="fill:#fff"/><rect x="146.19" y="121.82" width="0.4" height="1.1" style="fill:#fff"/><rect x="146.09" y="123.52" width="0.4" height="1.1" style="fill:#fff"/><rect x="146.09" y="125.22" width="0.4" height="1.1" style="fill:#fff"/><rect x="146.09" y="126.92" width="0.4" height="1.1" style="fill:#fff"/><rect x="146.09" y="128.62" width="0.4" height="1.1" style="fill:#fff"/><rect x="146.09" y="130.32" width="0.4" height="1.1" style="fill:#fff"/><rect x="146.09" y="131.92" width="0.4" height="1.1" style="fill:#fff"/><rect x="146.09" y="133.62" width="0.4" height="1.1" style="fill:#fff"/><rect x="146.09" y="135.32" width="0.4" height="1.1" style="fill:#fff"/><rect x="146.09" y="137.02" width="0.4" height="1.1" style="fill:#fff"/><rect x="146.09" y="138.72" width="0.4" height="1.1" style="fill:#fff"/><rect x="146.09" y="140.42" width="0.4" height="1.1" style="fill:#fff"/><rect x="146.09" y="142.12" width="0.4" height="1.1" style="fill:#fff"/><rect x="146.09" y="143.82" width="0.4" height="1.1" style="fill:#fff"/><rect x="146.09" y="145.52" width="0.4" height="1.1" style="fill:#fff"/><rect x="146.09" y="147.12" width="0.4" height="1.1" style="fill:#fff"/><rect x="146.09" y="148.82" width="0.4" height="1.1" style="fill:#fff"/><rect x="146.09" y="150.52" width="0.4" height="1.1" style="fill:#fff"/><rect x="146.09" y="152.22" width="0.4" height="1.1" style="fill:#fff"/><rect x="146.09" y="153.92" width="0.4" height="1.1" style="fill:#fff"/><rect x="146.09" y="155.62" width="0.4" height="1.1" style="fill:#fff"/><rect x="146.09" y="157.32" width="0.4" height="1.1" style="fill:#fff"/><rect x="146.09" y="159.02" width="0.4" height="1.1" style="fill:#fff"/><rect x="146.09" y="160.62" width="0.4" height="1.1" style="fill:#fff"/><rect x="146.09" y="162.32" width="0.4" height="1.1" style="fill:#fff"/><rect x="146.09" y="164.02" width="0.4" height="1.1" style="fill:#fff"/><rect x="146.09" y="165.72" width="0.4" height="1.1" style="fill:#fff"/><rect x="146.09" y="167.42" width="0.4" height="1.1" style="fill:#fff"/><rect x="146.09" y="169.12" width="0.4" height="1.1" style="fill:#fff"/><rect x="146.09" y="170.82" width="0.4" height="1.1" style="fill:#fff"/><rect x="146.09" y="172.52" width="0.4" height="1.1" style="fill:#fff"/><rect x="146.09" y="174.12" width="0.4" height="1.1" style="fill:#fff"/><rect x="146.09" y="175.82" width="0.4" height="1.1" style="fill:#fff"/><rect x="146.09" y="177.52" width="0.4" height="1.1" style="fill:#fff"/><rect x="146.09" y="179.22" width="0.4" height="1.1" style="fill:#fff"/><rect x="146.09" y="180.92" width="0.4" height="1.1" style="fill:#fff"/><rect x="146.09" y="182.62" width="0.4" height="1.1" style="fill:#fff"/><rect x="146.09" y="184.32" width="0.4" height="1.1" style="fill:#fff"/><rect x="146.09" y="186.02" width="0.4" height="1.1" style="fill:#fff"/><rect x="146.09" y="187.72" width="0.4" height="1.1" style="fill:#fff"/><rect x="146.09" y="189.32" width="0.4" height="1.1" style="fill:#fff"/><rect x="146.09" y="191.02" width="0.4" height="1.1" style="fill:#fff"/><rect x="146.09" y="192.72" width="0.4" height="1.1" style="fill:#fff"/><rect x="146.09" y="194.42" width="0.4" height="1.1" style="fill:#fff"/><rect x="146.09" y="196.12" width="0.4" height="1.1" style="fill:#fff"/><rect x="146.09" y="197.82" width="0.4" height="1.1" style="fill:#fff"/><rect x="146.09" y="199.52" width="0.4" height="1.1" style="fill:#fff"/><rect x="146.09" y="201.22" width="0.4" height="1.1" style="fill:#fff"/><rect x="146.09" y="202.82" width="0.4" height="1.1" style="fill:#fff"/><rect x="146.09" y="204.52" width="0.4" height="1.1" style="fill:#fff"/><rect x="146.09" y="206.22" width="0.4" height="1.1" style="fill:#fff"/><rect x="146.09" y="207.92" width="0.4" height="1.1" style="fill:#fff"/><rect x="146.09" y="209.62" width="0.4" height="1.1" style="fill:#fff"/><rect x="146.09" y="211.32" width="0.4" height="1.1" style="fill:#fff"/><rect x="146.09" y="213.02" width="0.4" height="1.1" style="fill:#fff"/></g></svg>