<svg id="NeckF" xmlns="http://www.w3.org/2000/svg" viewBox="0 0 300 300">
    <title>_</title>
    <g id="Neck2">
        <g style="opacity:0.699999988079071">
            <path d="M124.49,47.22c.3,0,.5.1.8.1s.5.1.7.1a6.47,6.47,0,0,1,1.3.4c.4.1.8.3,1.2.4s.7.3,1,.5a7.26,7.26,0,0,1,.9.5l.9.6a5.55,5.55,0,0,1,.8.6,4.62,4.62,0,0,1,.7.7l-5.6-3-.1-.1.1-.1.2-.2c.1-.1.4-.2.5-.3a6.12,6.12,0,0,1,1.2-.5c.4-.1.9-.3,1.3-.4l1.5-.2h2.5a3.75,3.75,0,0,1,1,.1c.3,0,.7.1,1,.1s.7.1,1.1.1.8.2,1.3.2a2.54,2.54,0,0,1,.7.2c.2.1.5.1.7.2l.5.5-1.4,1.2c-.5.4-.9.8-1.4,1.2l-1.5,1a3.51,3.51,0,0,1-.8.5l-.8.4a8.86,8.86,0,0,1-1.7.8c-.6.2-1.1.5-1.7.7a12.09,12.09,0,0,1-1.8.5,2.92,2.92,0,0,1-.9.2,3.08,3.08,0,0,1-1,.1h-.4l-.2-.4c-.6-1.1-1.1-2.2-1.6-3.3l-1.5-3.3Z" style="fill:#e6e6e6" />
        </g>
        <path d="M152.89,40.22a13.73,13.73,0,0,0-2,1.3c-.7.5-1.3.9-1.9,1.4a12.88,12.88,0,0,0-1.7,1.6c-.3.3-.5.6-.8.9a3.33,3.33,0,0,0-.6,1v-.1l.1,3.9-.3-.3a16.15,16.15,0,0,0,2.2,0H149l1.1-.1a4.25,4.25,0,0,0,1.1-.2c.4-.1.7-.1,1.1-.2l1.1-.2,1.1-.3c.4-.1.7-.2,1-.3l1-.3a11.92,11.92,0,0,0,2-.8c1.3-.6,2.6-1.3,3.9-2l-.1.3c-.1-2.1-.2-4.2-.3-6.2h0C159,39.92,155.89,40,152.89,40.22Zm0,0c3-.4,6.1-.7,9.1-1h.2v.2c.2,2.1.4,4.1.5,6.2v.2l-.2.1a37.16,37.16,0,0,1-3.9,2.1,18,18,0,0,1-2.1.8,7.6,7.6,0,0,0-1.1.4l-1.1.3-1.1.3-1.1.2c-.4.1-.7.1-1.1.2a4.1,4.1,0,0,1-1.1.1l-1.1.1h-3.6v-.3l.1-3.9v-.1h0a8.65,8.65,0,0,1,.7-1c.3-.3.5-.6.8-.9.6-.6,1.2-1.1,1.8-1.6a13.73,13.73,0,0,1,2-1.3C151.49,40.92,152.19,40.52,152.89,40.22Z" style="fill:#231f20" />
        <path d="M149.09,41.82c-1.9-2.8-2.7-1.1-2.7-1.1l-14.7,9.7c-4.2,2.7-6.7,1.9-6.7,1.9l-9.3-20.9c5.7-3.6,9.3-13,9.3-13s38.2-1.2,49.3-.3c0,0,3.6,9.4,9.3,13L174.29,52s-2.4.8-6.7-1.9L153,40.42s-2.1-1.4-3.9,1.4" style="fill:#fff" />
        <path d="M149.09,41.82a3.74,3.74,0,0,0-1.2-1.3,1.14,1.14,0,0,0-.8-.3c-.3,0-.5.2-.7.5h0l-10.2,6.9-2.6,1.7-1.3.9a9.13,9.13,0,0,1-1.3.8l-.7.4c-.2.1-.5.2-.7.3s-.5.2-.7.3l-.8.2a1.88,1.88,0,0,1-.8.2c-.3,0-.5.1-.8.1a4.33,4.33,0,0,1-1.6-.1h-.1l-.1-.1-9.3-20.7-.1-.3.3-.2.8-.6c.3-.2.5-.4.8-.6a2.34,2.34,0,0,0,.7-.7l.7-.7a24.28,24.28,0,0,0,2.4-3.2,36.82,36.82,0,0,0,3.7-7.1l.1-.3h.3l12.3-.3c4.1-.1,8.2-.2,12.3-.2s8.2-.1,12.3-.1l6.2.1c1,0,2.1.1,3.1.1l3.1.2h.3l.1.3a36.82,36.82,0,0,0,3.7,7.1,24.28,24.28,0,0,0,2.4,3.2l.7.7.7.7c.3.2.5.5.8.6l.8.6.3.2-.1.3-9.4,20.8-.1.1h-.1a6.23,6.23,0,0,1-1.9.1l-.9-.2-.9-.3a8.86,8.86,0,0,1-1.7-.8,14,14,0,0,1-1.6-1l-6.1-4.1-6.1-4.1-1.5-1-.8-.5c-.3-.1-.5-.3-.8-.3a2.72,2.72,0,0,0-.9,0,2,2,0,0,0-.8.4c-.2.2-.5.3-.7.6l-.7.7.6-.7c.2-.3.5-.4.7-.6a3,3,0,0,1,.8-.4,2.72,2.72,0,0,1,.9,0,1.61,1.61,0,0,1,.9.3l.8.5,1.5,1,6.2,4,6.2,4c.5.3,1,.6,1.6.9a8.65,8.65,0,0,0,1.7.7l.9.3.9.2a3.22,3.22,0,0,0,1.7-.1l-.2.2,9.1-21,.2.5-.9-.6a5,5,0,0,1-.8-.7c-.3-.2-.5-.5-.8-.7l-.7-.7a28.53,28.53,0,0,1-2.5-3.3,40.5,40.5,0,0,1-2.1-3.5c-.6-1.2-1.2-2.4-1.7-3.7l.4.3-3.1-.1c-1,0-2-.1-3.1-.1l-6.2-.1h-6.2l-6.2.1c-4.1,0-8.2.1-12.3.2l-12.4.1.4-.3c-.5,1.3-1.1,2.5-1.7,3.7a25,25,0,0,1-2.1,3.5c-.8,1.1-1.6,2.2-2.5,3.3a4.62,4.62,0,0,1-.7.7,2.7,2.7,0,0,1-.8.7c-.3.2-.5.5-.8.7l-.9.6.2-.5,9.1,21-.2-.1a6.15,6.15,0,0,0,1.4.1c.2,0,.5-.1.7-.1a1.85,1.85,0,0,0,.7-.2l.7-.2.7-.3c.2-.1.5-.2.7-.3l.7-.4a14.8,14.8,0,0,0,1.3-.8l1.3-.8,2.6-1.7,10.4-6.7h0c.2-.3.4-.5.7-.5a1.14,1.14,0,0,1,.8.3A3.53,3.53,0,0,1,149.09,41.82Z" style="fill:#231f20" />
        <g style="opacity:0.699999988079071">
            <path d="M124.29,21.82a9.85,9.85,0,0,1-.2,1.7c-.1.5-.2,1.1-.3,1.6a9.36,9.36,0,0,1-.4,1.6c-.2.5-.3,1-.5,1.5a25.5,25.5,0,0,1-1.3,2.9,11.91,11.91,0,0,1-.9,1.5,4.17,4.17,0,0,1-.6.8l-.4.5a5,5,0,0,1-1.2.8l1.8-4.4a9.74,9.74,0,0,1,.5,1.1,9.74,9.74,0,0,1,.5,1.1,21.85,21.85,0,0,1,.9,2.3,22.5,22.5,0,0,1,.8,2.4c.2.8.5,1.6.7,2.4a22.11,22.11,0,0,1,.5,2.5,20.24,20.24,0,0,1,.4,2.6c.1.9.1,1.8.2,2.6a27.15,27.15,0,0,1-.1,2.8l-.4.1c-.7-1.5-1.3-3.1-2-4.6l-1.9-4.6-1.9-4.6c-.6-1.5-1.2-3.1-1.8-4.7l-.1-.2.3-.2.2-.2.3-.2c.2-.2.3-.4.5-.5l.9-1.2c.6-.8,1.2-1.6,1.8-2.5,1.1-1.7,2.3-3.3,3.4-5Z" style="fill:#e6e6e6" />
        </g>
        <g style="opacity:0.6000000238418579">
            <path d="M170.39,23a15.94,15.94,0,0,1-.6,3,23.07,23.07,0,0,1-1,2.8,22.45,22.45,0,0,1-1.3,2.7c-.2.4-.5.9-.7,1.3s-.5.9-.8,1.3c-.6.8-1.2,1.7-1.8,2.5a10.59,10.59,0,0,1-1,1.2l-1.1,1.1a10.59,10.59,0,0,1-1.2,1,6.42,6.42,0,0,1-1.3,1,10,10,0,0,1-1.4.8l-1.5.8,1-3.9a2.65,2.65,0,0,0,.5.6c.2.2.4.5.6.7.4.5.8.9,1.2,1.4s.9.9,1.3,1.4l.7.7c.2.2.5.4.7.6.5.4.9.9,1.4,1.3l1.5,1.2c.3.2.5.4.8.6a5.55,5.55,0,0,1,.8.6,5.55,5.55,0,0,1,.8.6l.9.6-.1.3-1.9-.7-1-.3c-.3-.1-.6-.3-.9-.4l-1.9-.9a9.91,9.91,0,0,1-1.7-1.1l-.9-.6-.8-.6a18.26,18.26,0,0,1-1.6-1.3c-.5-.5-1-.9-1.5-1.4s-.9-1-1.4-1.6L155,40l.3-.2,1.2-.7a8.34,8.34,0,0,0,1.2-.8,10.47,10.47,0,0,0,1.1-.8l1.1-.9,1-1a9.43,9.43,0,0,0,1-1,20,20,0,0,0,1.9-2.2c.6-.8,1.2-1.5,1.7-2.3s1.1-1.6,1.6-2.4a49.05,49.05,0,0,0,2.8-5Z" style="fill:#e6e6e6" />
        </g>
        <path d="M149.09,41.82a4.08,4.08,0,0,0-1.7-1.6C128.09,31.12,129,21,129,21s22.3-3,42,0c0,0,.8,10.1-18.4,19.2a3.12,3.12,0,0,0-3.1,1.1Z" style="fill:#ccc" />
        <path d="M149.09,41.82a4,4,0,0,0-1.3-1.3c-.5-.3-1.1-.5-1.7-.8-1.1-.5-2.3-1.1-3.4-1.7a43.15,43.15,0,0,1-6.3-4.2,24.64,24.64,0,0,1-5.2-5.5,22.11,22.11,0,0,1-1.8-3.4c-.2-.6-.4-1.2-.6-1.9a6.48,6.48,0,0,1-.2-2v-.3h.4c3.5-.4,7-.8,10.5-1l5.3-.3c1.8-.1,3.5-.1,5.3-.1s3.5,0,5.3.1c.9,0,1.8.1,2.6.1s1.8.1,2.6.1c1.8.1,3.5.2,5.3.4a43.41,43.41,0,0,1,5.2.7h.4V21a9.91,9.91,0,0,1-.2,1.8,8.45,8.45,0,0,1-.5,1.7,19.12,19.12,0,0,1-1.6,3.2,26.28,26.28,0,0,1-4.7,5.3,45.35,45.35,0,0,1-11.9,7.3h0a3.09,3.09,0,0,0-3.1,1.1h0Zm0,0,.3-.5h0a5.26,5.26,0,0,1,1.4-1.1,3.59,3.59,0,0,1,1.8-.2h-.1a58.2,58.2,0,0,0,6-3.4,28.32,28.32,0,0,0,2.8-2c.9-.7,1.8-1.4,2.7-2.2a24.28,24.28,0,0,0,4.4-5.2,17.72,17.72,0,0,0,1.5-3.1,9.36,9.36,0,0,0,.4-1.6,8.75,8.75,0,0,0,.2-1.6l.4.4c-1.7-.2-3.5-.5-5.2-.6s-3.5-.3-5.2-.4a22.6,22.6,0,0,0-2.6-.1c-.9,0-1.7-.1-2.6-.1H150c-1.8,0-3.5,0-5.3.1s-3.5.1-5.3.2q-5.25.3-10.5.9l.4-.4a12.37,12.37,0,0,0,.2,1.8,12.09,12.09,0,0,0,.5,1.8,17.26,17.26,0,0,0,1.7,3.3,26.21,26.21,0,0,0,5,5.5,23.72,23.72,0,0,0,3,2.3c1,.7,2.1,1.4,3.2,2.1s2.2,1.3,3.3,1.8a14,14,0,0,1,1.7.9A5.53,5.53,0,0,1,149.09,41.82Z" style="fill:#231f20" />
        <path d="M138.09,46.32a7.47,7.47,0,0,1,1.1.1,12,12,0,0,1,2.4.6c.9.3,1.7.6,2.3.8l1,.5a7.47,7.47,0,0,1-1.1-.1c-.7-.1-1.6-.3-2.5-.5a18.49,18.49,0,0,1-2.3-.9C138.49,46.52,138.09,46.32,138.09,46.32Z" style="fill:#231f20" />
        <rect x="115.68" y="32.05" width="3.7" height="3.2" transform="translate(-3.56 50.44) rotate(-23.87)" style="fill:none" />
        <rect x="117.8" y="34.29" width="0.4" height="0.6" transform="translate(-3.92 50.62) rotate(-23.83)" style="fill:#231f20" />
        <rect x="117.28" y="33.3" width="0.4" height="0.6" transform="translate(-3.54 50.47) rotate(-23.9)" style="fill:#231f20" />
        <rect x="116.89" y="32.42" width="0.4" height="0.6" transform="translate(-3.25 50.03) rotate(-23.8)" style="fill:#231f20" />
        <rect x="116.98" y="35.05" width="3.7" height="3.2" transform="translate(-4.67 51.23) rotate(-23.87)" style="fill:none" />
        <rect x="119.1" y="37.3" width="0.4" height="0.6" transform="translate(-5.02 51.4) rotate(-23.83)" style="fill:#231f20" />
        <rect x="118.7" y="36.3" width="0.4" height="0.6" transform="translate(-4.64 51.3) rotate(-23.9)" style="fill:#231f20" />
        <rect x="118.19" y="35.3" width="0.4" height="0.6" transform="translate(-4.29 50.86) rotate(-23.83)" style="fill:#231f20" />
        <rect x="118.27" y="37.94" width="3.7" height="3.2" transform="translate(-5.73 52) rotate(-23.87)" style="fill:none" />
        <rect x="120.4" y="40.31" width="0.4" height="0.6" transform="translate(-6.13 52.18) rotate(-23.83)" style="fill:#231f20" />
        <rect x="120" y="39.32" width="0.4" height="0.6" transform="translate(-5.75 52.02) rotate(-23.87)" style="fill:#231f20" />
        <rect x="119.49" y="38.31" width="0.4" height="0.6" transform="translate(-5.38 51.8) rotate(-23.9)" style="fill:#231f20" />
        <rect x="119.57" y="40.95" width="3.7" height="3.2" transform="translate(-6.83 52.78) rotate(-23.87)" style="fill:none" />
        <rect x="121.69" y="43.21" width="0.4" height="0.6" transform="translate(-7.18 53.11) rotate(-23.9)" style="fill:#231f20" />
        <rect x="121.29" y="42.21" width="0.4" height="0.6" transform="translate(-6.81 52.79) rotate(-23.87)" style="fill:#231f20" />
        <rect x="120.79" y="41.2" width="0.4" height="0.6" transform="translate(-6.44 52.57) rotate(-23.9)" style="fill:#231f20" />
        <rect x="120.99" y="43.95" width="3.7" height="3.2" transform="translate(-7.93 53.61) rotate(-23.87)" style="fill:none" />
        <rect x="122.99" y="46.21" width="0.4" height="0.6" transform="translate(-8.28 53.89) rotate(-23.9)" style="fill:#231f20" />
        <rect x="122.6" y="45.22" width="0.4" height="0.6" transform="translate(-7.92 53.57) rotate(-23.87)" style="fill:#231f20" />
        <rect x="122.2" y="44.2" width="0.4" height="0.6" transform="translate(-7.54 53.4) rotate(-23.9)" style="fill:#231f20" />
        <rect x="122.28" y="46.84" width="3.7" height="3.2" transform="translate(-8.98 54.38) rotate(-23.87)" style="fill:none" />
        <rect x="124.29" y="49.11" width="0.4" height="0.6" transform="translate(-9.34 54.66) rotate(-23.9)" style="fill:#231f20" />
        <rect x="123.89" y="48.11" width="0.4" height="0.6" transform="translate(-8.98 54.35) rotate(-23.87)" style="fill:#231f20" />
        <rect x="123.5" y="47.21" width="0.4" height="0.6" transform="translate(-8.64 54.18) rotate(-23.9)" style="fill:#231f20" />
        <path d="M127.49,52.82a3.22,3.22,0,0,1,.6-.2c.3-.1.8-.3,1.2-.4a14.7,14.7,0,0,0,1.7-.7l-1.5-3.4a17.18,17.18,0,0,1-2.9,1.1Z" style="fill:none" />
        <path d="M129.29,50l.1.3a.44.44,0,0,1,.3-.1.49.49,0,0,1,.3-.1l-.2-.3a.44.44,0,0,1-.3.1Z" style="fill:#231f20;fill-rule:evenodd" />
        <polygon points="128.29 50.42 128.39 50.72 128.99 50.52 128.89 50.22 128.29 50.42" style="fill:#231f20;fill-rule:evenodd" />
        <path d="M127.19,50.82l.1.4.6-.2-.1-.4Z" style="fill:#231f20;fill-rule:evenodd" />
        <path d="M131,51.42l1.6-.8a10.91,10.91,0,0,0,1.1-.6,5.2,5.2,0,0,1,.5-.3l-1.8-3.3a5.2,5.2,0,0,0-.5.3,9.29,9.29,0,0,1-1,.5c-.7.3-1.5.7-1.5.7Z" style="fill:none" />
        <polygon points="132.39 48.52 132.59 48.82 133.09 48.52 132.89 48.22 132.39 48.52" style="fill:#231f20;fill-rule:evenodd" />
        <polygon points="131.39 49.02 131.49 49.42 132.09 49.12 131.89 48.72 131.39 49.02" style="fill:#231f20;fill-rule:evenodd" />
        <polygon points="130.39 49.52 130.49 49.82 131.09 49.62 130.89 49.22 130.39 49.52" style="fill:#231f20;fill-rule:evenodd" />
        <path d="M134.09,49.82a12.88,12.88,0,0,0,1.5-.9,12.71,12.71,0,0,0,1.5-.9l-2-3.2s-.7.5-1.4.9l-1.4.8Z" style="fill:none" />
        <polygon points="135.39 46.82 135.59 47.12 136.09 46.82 135.89 46.52 135.39 46.82" style="fill:#231f20;fill-rule:evenodd" />
        <polygon points="134.39 47.42 134.59 47.72 135.09 47.42 134.89 47.12 134.39 47.42" style="fill:#231f20;fill-rule:evenodd" />
        <rect x="133.38" y="47.84" width="0.6" height="0.4" transform="translate(-6.54 70.75) rotate(-28.97)" style="fill:#231f20" />
        <polygon points="137.19 48.12 140.09 46.22 137.99 43.12 135.19 44.92 137.19 48.12" style="fill:none" />
        <polygon points="138.19 45.02 138.39 45.32 138.99 45.02 138.79 44.62 138.19 45.02" style="fill:#231f20;fill-rule:evenodd" />
        <rect x="137.28" y="45.43" width="0.6" height="0.4" transform="translate(-3.03 80.83) rotate(-32.4)" style="fill:#231f20" />
        <polygon points="136.29 46.22 136.49 46.52 137.09 46.22 136.89 45.92 136.29 46.22" style="fill:#231f20;fill-rule:evenodd" />
        <path d="M140.09,46.22a5.2,5.2,0,0,0,.5-.3c.3-.2.6-.4,1-.7l1.4-1-2.2-3.1-1.4,1a7.05,7.05,0,0,0-.9.7,3,3,0,0,0-.4.3Z" style="fill:none" />
        <rect x="141.09" y="42.95" width="0.6" height="0.4" transform="translate(0.63 88.32) rotate(-34.76)" style="fill:#231f20" />
        <polygon points="140.09 43.72 140.29 44.02 140.89 43.72 140.69 43.42 140.09 43.72" style="fill:#231f20;fill-rule:evenodd" />
        <path d="M139.19,44.42l.2.3a1.24,1.24,0,0,1,.3-.2,1.44,1.44,0,0,1,.3-.2l-.2-.3a1.24,1.24,0,0,1-.3.2A1.24,1.24,0,0,0,139.19,44.42Z" style="fill:#231f20;fill-rule:evenodd" />
        <polygon points="142.89 44.22 145.79 42.22 143.49 39.22 140.79 41.12 142.89 44.22" style="fill:none" />
        <polygon points="143.89 41.12 144.09 41.42 144.59 41.02 144.39 40.72 143.89 41.12" style="fill:#231f20;fill-rule:evenodd" />
        <polygon points="142.89 41.82 143.09 42.12 143.69 41.72 143.39 41.42 142.89 41.82" style="fill:#231f20;fill-rule:evenodd" />
        <rect x="141.98" y="42.21" width="0.6" height="0.4" transform="matrix(0.82, -0.58, 0.58, 0.82, 1.52, 89.62)" style="fill:#231f20" />
        <rect x="124.8" y="50.1" width="0.4" height="0.5" transform="translate(-9.68 54.89) rotate(-23.87)" style="fill:#231f20" />
        <path d="M125.29,51.42l-.2-.4.3-.2.1.2h.3v.4h-.5Z" style="fill:#231f20;fill-rule:evenodd" />
        <path d="M126.19,51.32l-.1-.4h.3a1,1,0,0,0,.3-.1l.1.4a.77.77,0,0,0-.3.1c-.1-.1-.1,0-.3,0Z" style="fill:#231f20;fill-rule:evenodd" />
        <rect x="180.03" y="31.84" width="3.2" height="3.7" transform="translate(77.31 186.14) rotate(-66.13)" style="fill:none" />
        <rect x="180.79" y="34.42" width="0.6" height="0.4" transform="translate(76.35 186.35) rotate(-66.2)" style="fill:#231f20" />
        <rect x="181.15" y="33.44" width="0.6" height="0.4" transform="translate(77.19 185.91) rotate(-66.1)" style="fill:#231f20" />
        <rect x="181.66" y="32.36" width="0.6" height="0.4" transform="translate(78.67 185.86) rotate(-66.17)" style="fill:#231f20" />
        <rect x="178.71" y="34.69" width="3.2" height="3.8" transform="translate(73.85 186.65) rotate(-66.12)" style="fill:none" />
        <rect x="179.53" y="37.42" width="0.6" height="0.4" transform="translate(72.59 186.8) rotate(-66.1)" style="fill:#231f20" />
        <rect x="179.9" y="36.45" width="0.6" height="0.4" transform="translate(73.7 186.56) rotate(-66.1)" style="fill:#231f20" />
        <rect x="180.42" y="35.38" width="0.6" height="0.4" transform="translate(75.06 186.45) rotate(-66.13)" style="fill:#231f20" />
        <rect x="177.35" y="37.85" width="3.2" height="3.7" transform="translate(70.22 187.28) rotate(-66.13)" style="fill:none" />
        <rect x="178.18" y="40.29" width="0.6" height="0.4" transform="translate(69.24 187.32) rotate(-66.13)" style="fill:#231f20" />
        <rect x="178.54" y="39.31" width="0.6" height="0.4" transform="translate(70.27 187.01) rotate(-66.1)" style="fill:#231f20" />
        <rect x="179.05" y="38.39" width="0.6" height="0.4" transform="translate(71.41 186.94) rotate(-66.1)" style="fill:#231f20" />
        <rect x="176.04" y="40.71" width="3.2" height="3.8" transform="translate(66.76 187.79) rotate(-66.12)" style="fill:none" />
        <rect x="176.92" y="43.28" width="0.6" height="0.4" transform="translate(65.68 187.9) rotate(-66.1)" style="fill:#231f20" />
        <rect x="177.29" y="42.31" width="0.6" height="0.4" transform="translate(66.78 187.66) rotate(-66.1)" style="fill:#231f20" />
        <rect x="177.66" y="41.35" width="0.6" height="0.4" transform="translate(67.96 187.48) rotate(-66.13)" style="fill:#231f20" />
        <rect x="174.74" y="43.58" width="3.2" height="3.8" transform="translate(63.39 188.33) rotate(-66.13)" style="fill:none" />
        <rect x="175.58" y="46.25" width="0.6" height="0.4" transform="translate(62.16 188.43) rotate(-66.1)" style="fill:#231f20" />
        <rect x="176.04" y="45.33" width="0.6" height="0.4" transform="translate(63.36 188.37) rotate(-66.13)" style="fill:#231f20" />
        <rect x="176.4" y="44.35" width="0.6" height="0.4" transform="translate(64.39 188.06) rotate(-66.1)" style="fill:#231f20" />
        <rect x="173.48" y="46.59" width="3.2" height="3.8" transform="translate(59.86 188.95) rotate(-66.12)" style="fill:none" />
        <rect x="174.16" y="49.26" width="0.6" height="0.4" transform="translate(58.57 188.93) rotate(-66.1)" style="fill:#231f20" />
        <rect x="174.67" y="48.18" width="0.6" height="0.4" transform="translate(60.03 188.89) rotate(-66.17)" style="fill:#231f20" />
        <rect x="175.04" y="47.21" width="0.6" height="0.4" transform="translate(60.96 188.51) rotate(-66.1)" style="fill:#231f20" />
        <path d="M172.69,49.12c0,.1-2.9-1.1-2.9-1.1l-1.5,3.4a14.7,14.7,0,0,0,1.7.7,8.4,8.4,0,0,0,1.2.4,3.22,3.22,0,0,1,.6.2Z" style="fill:none" />
        <path d="M169.69,50.22l.1-.3-.6-.3-.2.3a.44.44,0,0,0,.3.1C169.59,50.22,169.69,50.22,169.69,50.22Z" style="fill:#231f20;fill-rule:evenodd" />
        <polygon points="170.79 50.62 170.89 50.32 170.39 50.12 170.19 50.42 170.79 50.62" style="fill:#231f20;fill-rule:evenodd" />
        <path d="M171.89,51l.1-.4-.6-.2-.1.4Z" style="fill:#231f20;fill-rule:evenodd" />
        <path d="M169.79,48s-.7-.3-1.5-.7a9.25,9.25,0,0,0-1-.5,5.2,5.2,0,0,0-.5-.3l-1.8,3.3a5.2,5.2,0,0,1,.5.3,10.91,10.91,0,0,0,1.1.6l1.6.8Z" style="fill:none" />
        <polygon points="166.69 48.72 166.79 48.42 166.29 48.12 166.09 48.42 166.69 48.72" style="fill:#231f20;fill-rule:evenodd" />
        <polygon points="167.69 49.32 167.79 48.92 167.29 48.62 167.09 49.02 167.69 49.32" style="fill:#231f20;fill-rule:evenodd" />
        <polygon points="168.69 49.72 168.89 49.42 168.29 49.12 168.09 49.52 168.69 49.72" style="fill:#231f20;fill-rule:evenodd" />
        <path d="M166.79,46.52l-1.4-.8c-.7-.4-1.4-.9-1.4-.9L162,48a12.71,12.71,0,0,0,1.5.9,12.71,12.71,0,0,1,1.5.9Z" style="fill:none" />
        <polygon points="163.69 47.12 163.89 46.72 163.29 46.42 163.09 46.72 163.69 47.12" style="fill:#231f20;fill-rule:evenodd" />
        <polygon points="164.69 47.62 164.89 47.32 164.29 47.02 164.09 47.32 164.69 47.62" style="fill:#231f20;fill-rule:evenodd" />
        <rect x="165.21" y="47.56" width="0.4" height="0.6" transform="translate(43.43 169.39) rotate(-61.03)" style="fill:#231f20" />
        <polygon points="163.99 44.92 161.09 43.12 159.09 46.22 161.99 48.12 163.99 44.92" style="fill:none" />
        <polygon points="160.79 45.22 160.99 44.92 160.49 44.62 160.29 44.92 160.79 45.22" style="fill:#231f20;fill-rule:evenodd" />
        <rect x="161.4" y="45.21" width="0.4" height="0.6" transform="translate(36.49 157.47) rotate(-57.55)" style="fill:#231f20" />
        <polygon points="162.69 46.42 162.89 46.12 162.39 45.82 162.19 46.12 162.69 46.42" style="fill:#231f20;fill-rule:evenodd" />
        <path d="M161.09,43.12a1.73,1.73,0,0,1-.4-.3,5.5,5.5,0,0,1-.9-.7l-1.4-1-2.2,3.1,1.4,1a8.65,8.65,0,0,1,1,.7,5.2,5.2,0,0,0,.5.3Z" style="fill:none" />
        <rect x="157.55" y="42.62" width="0.4" height="0.6" transform="translate(32.73 148.27) rotate(-55.34)" style="fill:#231f20" />
        <polygon points="158.89 43.92 159.09 43.62 158.59 43.32 158.39 43.62 158.89 43.92" style="fill:#231f20;fill-rule:evenodd" />
        <path d="M159.79,44.62l.2-.3a1.24,1.24,0,0,0-.3-.2,1.44,1.44,0,0,0-.3-.2l-.2.3a1.24,1.24,0,0,0,.3.2A1.24,1.24,0,0,1,159.79,44.62Z" style="fill:#231f20;fill-rule:evenodd" />
        <polygon points="158.39 41.12 155.59 39.22 153.39 42.22 156.19 44.22 158.39 41.12" style="fill:none" />
        <polygon points="155.19 41.32 155.39 41.02 154.89 40.62 154.59 40.92 155.19 41.32" style="fill:#231f20;fill-rule:evenodd" />
        <polygon points="156.09 42.02 156.29 41.72 155.79 41.32 155.59 41.62 156.09 42.02" style="fill:#231f20;fill-rule:evenodd" />
        <rect x="156.72" y="42.01" width="0.4" height="0.6" transform="translate(31.92 146.18) rotate(-54.82)" style="fill:#231f20" />
        <rect x="173.86" y="50.12" width="0.5" height="0.4" transform="translate(57.63 189.17) rotate(-66.13)" style="fill:#231f20" />
        <path d="M173.89,51.42l.2-.4-.3-.2-.1.2h-.3v.4h.5Z" style="fill:#231f20;fill-rule:evenodd" />
        <path d="M172.89,51.32l.1-.4h-.3a1,1,0,0,1-.3-.1l-.1.4a.77.77,0,0,1,.3.1c.1-.1.2,0,.3,0Z" style="fill:#231f20;fill-rule:evenodd" />
        <path d="M131.49,28.22s2.2-.4,5.6-.7c.8-.1,1.8-.1,2.7-.2s2-.2,3-.2,2.2-.1,3.3-.1,2.2-.1,3.4-.1h3.4c1.1,0,2.2.1,3.3.1a26.61,26.61,0,0,1,3,.2,21.3,21.3,0,0,1,2.7.2c3.4.4,5.6.7,5.6.7s-2.3-.1-5.6-.3a23.48,23.48,0,0,0-2.7-.1c-1,0-2,0-3-.1s-2.1-.1-3.3-.1h-6.8c-1.1,0-2.2,0-3.3.1-2.1.1-4.1.1-5.8.2s-3.1.1-4.1.2C132.09,28.12,131.49,28.22,131.49,28.22Z" style="fill:#231f20" />
        <path d="M132.59,28.62l1.6-.2a14.75,14.75,0,0,1,1.6-.1l-.3-3.7-1.7.2-1.7.2Z" style="fill:none" />
        <rect x="134.78" y="26.33" width="0.6" height="0.4" transform="translate(-1.87 12.6) rotate(-5.3)" style="fill:#231f20" />
        <rect x="133.7" y="26.4" width="0.6" height="0.4" transform="translate(-1.99 13.57) rotate(-5.76)" style="fill:#231f20" />
        <rect x="132.58" y="26.53" width="0.6" height="0.4" transform="translate(-2.22 15.74) rotate(-6.72)" style="fill:#231f20" />
        <polygon points="135.79 28.32 138.99 28.02 138.69 24.32 135.39 24.62 135.79 28.32" style="fill:none" />
        <rect x="137.98" y="26.13" width="0.6" height="0.4" transform="translate(-1.49 9.6) rotate(-3.96)" style="fill:#231f20" />
        <rect x="136.87" y="26.25" width="0.6" height="0.4" transform="translate(-1.63 10.61) rotate(-4.41)" style="fill:#231f20" />
        <rect x="135.78" y="26.23" width="0.6" height="0.4" transform="translate(-1.73 11.44) rotate(-4.78)" style="fill:#231f20" />
        <polygon points="138.99 28.02 142.19 27.92 142.09 24.12 138.69 24.32 138.99 28.02" style="fill:none" />
        <rect x="141.29" y="25.93" width="0.6" height="0.4" transform="translate(-1.14 7.23) rotate(-2.91)" style="fill:#231f20" />
        <rect x="140.21" y="25.9" width="0.6" height="0.4" transform="translate(-1.26 8.09) rotate(-3.28)" style="fill:#231f20" />
        <polygon points="139.09 26.02 139.09 26.42 139.69 26.42 139.69 26.02 139.09 26.02" style="fill:#231f20;fill-rule:evenodd" />
        <path d="M142.19,27.92a14.78,14.78,0,0,1,1.6-.1h1.6l-.1-3.7h-1.7c-.8,0-1.7.1-1.7.1Z" style="fill:none" />
        <rect x="144.58" y="25.84" width="0.6" height="0.4" transform="translate(-0.8 4.91) rotate(-1.94)" style="fill:#231f20" />
        <polygon points="143.49 25.82 143.49 26.22 144.09 26.22 144.09 25.82 143.49 25.82" style="fill:#231f20;fill-rule:evenodd" />
        <polygon points="142.39 25.92 142.39 26.22 142.99 26.22 142.99 25.82 142.39 25.92" style="fill:#231f20;fill-rule:evenodd" />
        <polygon points="145.49 27.82 148.69 27.72 148.69 23.92 145.39 24.02 145.49 27.82" style="fill:none" />
        <polygon points="147.79 25.72 147.89 26.12 148.49 26.12 148.49 25.72 147.79 25.72" style="fill:#231f20;fill-rule:evenodd" />
        <rect x="146.8" y="25.71" width="0.6" height="0.4" transform="matrix(1, -0.02, 0.02, 1, -0.51, 3.07)" style="fill:#231f20" />
        <rect x="145.68" y="25.74" width="0.6" height="0.4" transform="translate(-0.65 4) rotate(-1.56)" style="fill:#231f20" />
        <polygon points="148.69 27.72 151.99 27.72 151.99 24.02 148.69 23.92 148.69 27.72" style="fill:none" />
        <rect x="151.09" y="25.72" width="0.6" height="0.4" style="fill:#231f20" />
        <rect x="149.99" y="25.72" width="0.6" height="0.4" style="fill:#231f20" />
        <polygon points="148.89 25.72 148.89 26.12 149.59 26.12 149.59 25.72 148.89 25.72" style="fill:#231f20;fill-rule:evenodd" />
        <path d="M152,27.72h3.2l.1-3.7H152Z" style="fill:none" />
        <path d="M154.39,25.72v.4h.6v-.4h-.6Z" style="fill:#231f20;fill-rule:evenodd" />
        <polygon points="153.29 25.72 153.29 26.12 153.89 26.12 153.89 25.72 153.29 25.72" style="fill:#231f20;fill-rule:evenodd" />
        <rect x="152.19" y="25.72" width="0.6" height="0.4" style="fill:#231f20" />
        <polygon points="155.19 27.72 158.39 27.92 158.59 24.12 155.29 24.02 155.19 27.72" style="fill:none" />
        <rect x="157.71" y="25.8" width="0.4" height="0.6" transform="translate(125.25 182.79) rotate(-87.61)" style="fill:#231f20" />
        <rect x="156.71" y="25.7" width="0.4" height="0.6" transform="matrix(0.03, -1, 1, 0.03, 125.62, 181.95)" style="fill:#231f20" />
        <polygon points="155.49 25.72 155.49 26.12 156.09 26.12 156.09 25.82 155.49 25.72" style="fill:#231f20;fill-rule:evenodd" />
        <path d="M158.39,27.92a14.75,14.75,0,0,1,1.6.1h1.6l.3-3.7h-1.6c-.8,0-1.7-.1-1.7-.1Z" style="fill:none" />
        <rect x="161.03" y="25.83" width="0.4" height="0.6" transform="translate(125.28 185.46) rotate(-86.49)" style="fill:#231f20" />
        <polygon points="159.89 25.92 159.79 26.32 160.49 26.32 160.49 26.02 159.89 25.92" style="fill:#231f20;fill-rule:evenodd" />
        <rect x="158.92" y="25.8" width="0.4" height="0.6" transform="translate(125.37 183.78) rotate(-87.24)" style="fill:#231f20" />
        <polygon points="161.69 28.02 164.89 28.32 165.19 24.62 161.89 24.32 161.69 28.02" style="fill:none" />
        <rect x="164.36" y="26.19" width="0.4" height="0.6" transform="translate(124.46 188.27) rotate(-85.22)" style="fill:#231f20" />
        <polygon points="163.09 26.22 163.09 26.52 163.69 26.62 163.79 26.22 163.09 26.22" style="fill:#231f20;fill-rule:evenodd" />
        <polygon points="162.09 26.12 161.99 26.42 162.59 26.52 162.69 26.12 162.09 26.12" style="fill:#231f20;fill-rule:evenodd" />
        <polygon points="164.89 28.32 168.09 28.62 168.49 24.92 165.19 24.62 164.89 28.32" style="fill:none" />
        <polygon points="167.49 26.52 167.49 26.92 168.09 27.02 168.09 26.62 167.49 26.52" style="fill:#231f20;fill-rule:evenodd" />
        <polygon points="166.39 26.42 166.39 26.82 166.99 26.92 166.99 26.52 166.39 26.42" style="fill:#231f20;fill-rule:evenodd" />
        <rect x="165.47" y="26.37" width="0.4" height="0.6" transform="translate(124.02 189.22) rotate(-84.77)" style="fill:#231f20" />
    </g>
</svg>