<svg id="Pocket" xmlns="http://www.w3.org/2000/svg" viewBox="0 0 52.9 54.3">
    <title>_</title>
    <g id="Pocket2">
        <rect x="1.3" y="0.5" width="48.9" height="52.3" style="fill:none;stroke:#231f20;stroke-miterlimit:10" />
        <rect x="0.5" y="0.5" width="51.9" height="14.8" style="fill:none;stroke:#231f20;stroke-miterlimit:10" />
        <rect y="0.5" width="7.5" height="6.9" style="fill:none" />
        <rect x="3.3" y="5.6" width="0.8" height="1.3" style="fill:#231f20" />
        <rect x="3.3" y="3.3" width="0.8" height="1.3" style="fill:#231f20" />
        <rect x="3.3" y="1" width="0.8" height="1.3" style="fill:#231f20" />
        <rect y="7.3" width="7.5" height="6.9" style="fill:none" />
        <rect x="3.3" y="12.4" width="0.8" height="1.3" style="fill:#231f20" />
        <rect x="3.3" y="10.1" width="0.8" height="1.3" style="fill:#231f20" />
        <rect x="3.3" y="7.9" width="0.8" height="1.3" style="fill:#231f20" />
        <rect x="45" y="0.5" width="7.5" height="7.4" style="fill:none" />
        <rect x="48.2" y="5.9" width="0.8" height="1.4" style="fill:#231f20" />
        <rect x="48.2" y="3.5" width="0.8" height="1.4" style="fill:#231f20" />
        <rect x="48.2" y="1" width="0.8" height="1.4" style="fill:#231f20" />
        <rect x="45" y="7.9" width="7.5" height="7.4" style="fill:none" />
        <rect x="48.2" y="13.3" width="0.8" height="1.4" style="fill:#231f20" />
        <rect x="48.2" y="10.9" width="0.8" height="1.4" style="fill:#231f20" />
        <rect x="48.2" y="8.4" width="0.8" height="1.4" style="fill:#231f20" />
        <rect y="15.2" width="7.5" height="6.3" style="fill:none" />
        <rect x="3.3" y="19.9" width="0.8" height="1.2" style="fill:#231f20" />
        <rect x="3.3" y="17.8" width="0.8" height="1.2" style="fill:#231f20" />
        <rect x="3.3" y="15.7" width="0.8" height="1.2" style="fill:#231f20" />
        <rect y="21.6" width="7.5" height="6.3" style="fill:none" />
        <rect x="3.3" y="26.2" width="0.8" height="1.2" style="fill:#231f20" />
        <rect x="3.3" y="24.1" width="0.8" height="1.2" style="fill:#231f20" />
        <rect x="3.3" y="22" width="0.8" height="1.2" style="fill:#231f20" />
        <rect y="27.9" width="7.5" height="6.3" style="fill:none" />
        <rect x="3.3" y="32.5" width="0.8" height="1.2" style="fill:#231f20" />
        <rect x="3.3" y="30.4" width="0.8" height="1.2" style="fill:#231f20" />
        <rect x="3.3" y="28.3" width="0.8" height="1.2" style="fill:#231f20" />
        <rect y="34.2" width="7.5" height="6.3" style="fill:none" />
        <rect x="3.3" y="38.8" width="0.8" height="1.2" style="fill:#231f20" />
        <rect x="3.3" y="36.7" width="0.8" height="1.2" style="fill:#231f20" />
        <rect x="3.3" y="34.7" width="0.8" height="1.2" style="fill:#231f20" />
        <rect y="40.5" width="7.5" height="6.3" style="fill:none" />
        <rect x="3.3" y="45.2" width="0.8" height="1.2" style="fill:#231f20" />
        <rect x="3.3" y="43.1" width="0.8" height="1.2" style="fill:#231f20" />
        <rect x="3.3" y="41" width="0.8" height="1.2" style="fill:#231f20" />
        <rect x="7.5" y="46.8" width="6.2" height="7.5" style="fill:none" />
        <rect x="12.1" y="50.3" width="1.2" height="0.8" style="fill:#231f20" />
        <rect x="10" y="50.3" width="1.2" height="0.8" style="fill:#231f20" />
        <rect x="8" y="50.3" width="1.2" height="0.8" style="fill:#231f20" />
        <rect x="13.7" y="46.8" width="6.2" height="7.5" style="fill:none" />
        <rect x="18.4" y="50.3" width="1.2" height="0.8" style="fill:#231f20" />
        <rect x="16.3" y="50.3" width="1.2" height="0.8" style="fill:#231f20" />
        <rect x="14.2" y="50.3" width="1.2" height="0.8" style="fill:#231f20" />
        <rect x="20" y="46.8" width="6.2" height="7.5" style="fill:none" />
        <rect x="24.6" y="50.3" width="1.2" height="0.8" style="fill:#231f20" />
        <rect x="22.5" y="50.3" width="1.2" height="0.8" style="fill:#231f20" />
        <rect x="20.4" y="50.3" width="1.2" height="0.8" style="fill:#231f20" />
        <rect x="26.2" y="46.8" width="6.2" height="7.5" style="fill:none" />
        <rect x="30.8" y="50.3" width="1.2" height="0.8" style="fill:#231f20" />
        <rect x="28.8" y="50.3" width="1.2" height="0.8" style="fill:#231f20" />
        <rect x="26.7" y="50.3" width="1.2" height="0.8" style="fill:#231f20" />
        <rect x="32.4" y="46.8" width="6.2" height="7.5" style="fill:none" />
        <rect x="37.1" y="50.3" width="1.2" height="0.8" style="fill:#231f20" />
        <rect x="35" y="50.3" width="1.2" height="0.8" style="fill:#231f20" />
        <rect x="32.9" y="50.3" width="1.2" height="0.8" style="fill:#231f20" />
        <rect x="38.7" y="46.8" width="6.2" height="7.5" style="fill:none" />
        <rect x="43.3" y="50.3" width="1.2" height="0.8" style="fill:#231f20" />
        <rect x="41.2" y="50.3" width="1.2" height="0.8" style="fill:#231f20" />
        <rect x="39.2" y="50.3" width="1.2" height="0.8" style="fill:#231f20" />
        <rect x="44.88" y="40.42" width="7.5" height="6.3" transform="translate(-0.45 0.51) rotate(-0.6)" style="fill:none" />
        <rect x="48.38" y="40.92" width="0.7" height="1.2" transform="translate(-0.43 0.51) rotate(-0.6)" style="fill:#231f20" />
        <rect x="48.38" y="43.02" width="0.7" height="1.2" transform="translate(-0.45 0.51) rotate(-0.6)" style="fill:#231f20" />
        <rect x="48.38" y="45.12" width="0.7" height="1.2" transform="translate(-0.47 0.51) rotate(-0.6)" style="fill:#231f20" />
        <rect x="44.78" y="34.12" width="7.5" height="6.3" transform="translate(-0.39 0.51) rotate(-0.6)" style="fill:none" />
        <rect x="48.28" y="34.62" width="0.7" height="1.2" transform="translate(-0.36 0.51) rotate(-0.6)" style="fill:#231f20" />
        <rect x="48.28" y="36.72" width="0.7" height="1.2" transform="translate(-0.39 0.51) rotate(-0.6)" style="fill:#231f20" />
        <rect x="48.28" y="38.82" width="0.7" height="1.2" transform="translate(-0.41 0.51) rotate(-0.6)" style="fill:#231f20" />
        <rect x="44.78" y="27.82" width="7.5" height="6.3" transform="translate(-0.33 0.52) rotate(-0.61)" style="fill:none" />
        <rect x="48.18" y="28.32" width="0.7" height="1.2" transform="translate(-0.3 0.51) rotate(-0.6)" style="fill:#231f20" />
        <rect x="48.18" y="30.42" width="0.7" height="1.2" transform="translate(-0.32 0.51) rotate(-0.6)" style="fill:#231f20" />
        <rect x="48.28" y="32.52" width="0.7" height="1.2" transform="translate(-0.34 0.51) rotate(-0.6)" style="fill:#231f20" />
        <rect x="44.68" y="21.52" width="7.5" height="6.3" transform="translate(-0.26 0.51) rotate(-0.6)" style="fill:none" />
        <rect x="48.18" y="22.02" width="0.7" height="1.2" transform="translate(-0.23 0.51) rotate(-0.6)" style="fill:#231f20" />
        <rect x="48.18" y="24.12" width="0.7" height="1.2" transform="translate(-0.25 0.51) rotate(-0.6)" style="fill:#231f20" />
        <rect x="48.18" y="26.22" width="0.7" height="1.2" transform="translate(-0.28 0.51) rotate(-0.6)" style="fill:#231f20" />
        <rect x="44.58" y="15.22" width="7.5" height="6.3" transform="translate(-0.19 0.51) rotate(-0.61)" style="fill:none" />
        <rect x="48.08" y="15.72" width="0.7" height="1.2" transform="translate(-0.17 0.5) rotate(-0.6)" style="fill:#231f20" />
        <rect x="48.08" y="17.82" width="0.7" height="1.2" transform="translate(-0.19 0.5) rotate(-0.6)" style="fill:#231f20" />
        <rect x="48.08" y="19.92" width="0.7" height="1.2" transform="translate(-0.21 0.5) rotate(-0.6)" style="fill:#231f20" />
        <rect x="3.4" y="47.3" width="0.8" height="1.3" style="fill:#231f20" />
        <polygon points="3.4 50.8 3.4 49.6 4.2 49.6 4.2 50.1 4.7 50.1 4.7 50.8 3.4 50.8" style="fill:#231f20;fill-rule:evenodd" />
        <rect x="5.7" y="50.1" width="1.3" height="0.8" style="fill:#231f20" />
        <rect x="45.4" y="50.1" width="1.3" height="0.8" style="fill:#231f20" />
        <polygon points="49 50.9 47.7 50.9 47.7 50.1 48.2 50.1 48.2 49.6 49 49.6 49 50.9" style="fill:#231f20;fill-rule:evenodd" />
        <rect x="48.18" y="47.32" width="0.7" height="1.3" transform="translate(-0.53 0.54) rotate(-0.64)" style="fill:#231f20" />
    </g>
</svg>