<svg id="SleeveF" xmlns="http://www.w3.org/2000/svg" viewBox="0 0 300 300">
    <title>_</title>
    <g id="Sleeves2">
        <path d="M60.49,63.32s-24.2,101.5-25,126.1c0,0,30.2,8.9,40.5,7.6l6.9-110.8-21.3-23" style="fill:#fff;stroke:#231f20;stroke-miterlimit:10" />
        <path d="M238.49,63s24.2,101.5,25,126.1c0,0-30.2,8.9-40.5,7.6l-6.9-110.8,21.3-23" style="fill:#fff;stroke:#231f20;stroke-miterlimit:10" />
        <polygon points="37.19 184.32 37.29 183.92 36.09 183.52 35.89 183.92 37.19 184.32" style="fill:#fff" />
        <path d="M39.09,184.82l.1-.4-.6-.2L38,184l-.1.4.6.2Z" style="fill:#fff" />
        <polygon points="40.99 185.32 41.09 184.92 39.89 184.52 39.69 185.02 40.99 185.32" style="fill:#fff" />
        <rect x="42.14" y="184.82" width="0.4" height="1.3" transform="translate(-147.88 182.11) rotate(-76.13)" style="fill:#fff" />
        <polygon points="44.79 186.22 44.89 185.82 43.69 185.52 43.59 185.92 44.79 186.22" style="fill:#fff" />
        <polygon points="46.79 186.72 46.89 186.22 45.59 186.02 45.49 186.42 46.79 186.72" style="fill:#fff" />
        <polygon points="48.69 187.12 48.79 186.72 47.49 186.42 47.39 186.82 48.69 187.12" style="fill:#fff" />
        <rect x="49.78" y="186.53" width="0.4" height="1.3" transform="translate(-143.57 195.65) rotate(-77.56)" style="fill:#fff" />
        <rect x="51.67" y="186.95" width="0.4" height="1.3" transform="translate(-142.45 198.74) rotate(-77.82)" style="fill:#fff" />
        <rect x="53.63" y="187.42" width="0.4" height="1.3" transform="translate(-141.28 202.08) rotate(-78.13)" style="fill:#fff" />
        <polygon points="56.39 188.72 56.39 188.32 55.19 188.02 55.09 188.52 56.39 188.72" style="fill:#fff" />
        <polygon points="58.29 189.22 58.39 188.72 57.09 188.52 56.99 188.92 58.29 189.22" style="fill:#fff" />
        <polygon points="60.19 189.52 60.29 189.12 58.99 188.82 58.89 189.32 60.19 189.52" style="fill:#fff" />
        <polygon points="62.09 189.92 62.19 189.42 60.89 189.22 60.89 189.62 62.09 189.92" style="fill:#fff" />
        <polygon points="64.09 190.22 64.19 189.82 62.89 189.62 62.79 190.02 64.09 190.22" style="fill:#fff" />
        <rect x="65.2" y="189.63" width="0.4" height="1.3" transform="translate(-133.69 219.41) rotate(-79.36)" style="fill:#fff" />
        <rect x="67.1" y="190" width="0.4" height="1.3" transform="translate(-132.4 222.27) rotate(-79.55)" style="fill:#fff" />
        <rect x="69.08" y="190.28" width="0.4" height="1.3" transform="translate(-130.93 225.1) rotate(-79.74)" style="fill:#fff" />
        <rect x="71.04" y="190.75" width="0.4" height="1.3" transform="translate(-129.66 228.11) rotate(-79.94)" style="fill:#fff" />
        <polygon points="73.69 192.02 73.79 191.62 72.49 191.32 72.39 191.82 73.69 192.02" style="fill:#fff" />
        <polygon points="75.69 192.42 75.79 191.92 74.49 191.72 74.39 192.12 75.69 192.42" style="fill:#fff" />
        <polygon points="260.89 184.12 261.09 184.62 262.29 184.22 262.19 183.82 260.89 184.12" style="fill:#fff" />
        <path d="M259,184.62l.1.4.6-.2.6-.2-.1-.4-.6.2A1,1,0,0,1,259,184.62Z" style="fill:#fff" />
        <polygon points="257.09 185.12 257.29 185.52 258.49 185.22 258.39 184.82 257.09 185.12" style="fill:#fff" />
        <rect x="255.28" y="185.43" width="1.3" height="0.4" transform="translate(-37 66.67) rotate(-13.85)" style="fill:#fff" />
        <polygon points="253.29 186.12 253.39 186.52 254.69 186.22 254.59 185.72 253.29 186.12" style="fill:#fff" />
        <polygon points="251.39 186.52 251.49 186.92 252.79 186.72 252.69 186.22 251.39 186.52" style="fill:#fff" />
        <polygon points="249.49 186.92 249.59 187.42 250.89 187.12 250.79 186.62 249.49 186.92" style="fill:#fff" />
        <rect x="247.59" y="187.22" width="1.3" height="0.4" transform="translate(-34.56 57.9) rotate(-12.44)" style="fill:#fff" />
        <rect x="245.69" y="187.63" width="1.3" height="0.4" transform="translate(-34.07 56.18) rotate(-12.18)" style="fill:#fff" />
        <rect x="243.79" y="188.02" width="1.3" height="0.4" transform="translate(-33.63 54.59) rotate(-11.93)" style="fill:#fff" />
        <polygon points="241.79 188.62 241.89 189.02 243.19 188.72 243.09 188.32 241.79 188.62" style="fill:#fff" />
        <polygon points="239.89 189.02 239.99 189.42 241.29 189.12 241.19 188.72 239.89 189.02" style="fill:#fff" />
        <polygon points="237.99 189.32 238.09 189.82 239.39 189.52 239.29 189.12 237.99 189.32" style="fill:#fff" />
        <polygon points="235.99 189.72 236.09 190.12 237.39 189.92 237.29 189.52 235.99 189.72" style="fill:#fff" />
        <polygon points="234.09 190.12 234.19 190.52 235.49 190.32 235.39 189.82 234.09 190.12" style="fill:#fff" />
        <rect x="232.19" y="190.32" width="1.3" height="0.4" transform="translate(-31.18 46.28) rotate(-10.64)" style="fill:#fff" />
        <rect x="230.28" y="190.74" width="1.3" height="0.4" transform="translate(-30.79 45.03) rotate(-10.45)" style="fill:#fff" />
        <rect x="228.28" y="191.03" width="1.3" height="0.4" transform="matrix(0.98, -0.18, 0.18, 0.98, -30.4, 43.83)" style="fill:#fff" />
        <rect x="226.38" y="191.43" width="1.3" height="0.4" transform="translate(-29.99 42.61) rotate(-10.06)" style="fill:#fff" />
        <polygon points="224.49 191.82 224.49 192.32 225.79 192.02 225.69 191.62 224.49 191.82" style="fill:#fff" />
        <polygon points="222.49 192.22 222.59 192.62 223.89 192.42 223.79 192.02 222.49 192.22" style="fill:#fff" />
    </g>
</svg>