<svg id="BodyF" xmlns="http://www.w3.org/2000/svg" viewBox="0 0 300 300"><title>_</title><g id="Sleeves1"><path d="M257,281s-11.3,10.6-39.4,5.2C217.58,286.23,238.28,275.83,257,281Z" style="fill:#b3b3b3;stroke:#231f20;stroke-miterlimit:10"/><path d="M252.38,277.43c-1,.4-2,.8-3,1.1-1.6.5-3.1,1-3.1,1l2.1,7.2s1.8-.5,3.5-1.1,3.5-1.3,3.6-1.4Z" style="fill:none"/><polygon points="249.18 282.93 248.98 282.23 247.68 282.63 247.98 283.33 249.18 282.93" style="fill:#231f20;fill-rule:evenodd"/><polygon points="251.38 282.23 251.18 281.43 249.88 281.93 250.18 282.63 251.38 282.23" style="fill:#231f20;fill-rule:evenodd"/><polygon points="253.58 281.33 253.28 280.63 252.08 281.13 252.38 281.83 253.58 281.33" style="fill:#231f20;fill-rule:evenodd"/><path d="M246.28,279.63s-1.6.5-3.2.9-3.2.7-3.2.7l1.4,7.4,3.6-.8a35.74,35.74,0,0,0,3.5-1Z" style="fill:none"/><polygon points="242.38 284.73 242.28 284.03 240.98 284.33 241.18 285.03 242.38 284.73" style="fill:#231f20;fill-rule:evenodd"/><polygon points="244.68 284.23 244.48 283.53 243.28 283.83 243.38 284.53 244.68 284.23" style="fill:#231f20;fill-rule:evenodd"/><polygon points="246.98 283.63 246.78 282.93 245.48 283.23 245.68 283.93 246.98 283.63" style="fill:#231f20;fill-rule:evenodd"/><path d="M239.88,281.23s-.4.1-1,.2-1.4.3-2.2.4l-3.3.4.6,7.5s1.9-.1,3.7-.4c.9-.1,1.8-.3,2.5-.4s1.1-.2,1.1-.2Z" style="fill:none"/><path d="M235.48,285.93l-.1-.7a6598893889316.29,6598893889316.29,0,0,0-1.2.2l.1.7a1.27,1.27,0,0,0,.6-.1A1.27,1.27,0,0,1,235.48,285.93Z" style="fill:#231f20;fill-rule:evenodd"/><polygon points="237.78 285.63 237.68 284.83 236.48 285.03 236.48 285.83 237.78 285.63" style="fill:#231f20;fill-rule:evenodd"/><polygon points="240.08 285.23 239.98 284.53 238.68 284.73 238.88 285.43 240.08 285.23" style="fill:#231f20;fill-rule:evenodd"/><path d="M233.38,282.13a3.4,3.4,0,0,0-1,.1c-.6,0-1.4.1-2.2.1a8.1,8.1,0,0,1-2.2,0h-1l-.3,7.5h1.2a11.3,11.3,0,0,0,2.6,0c.9,0,1.9-.1,2.6-.1a4.87,4.87,0,0,1,1.2-.1Z" style="fill:none"/><polygon points="228.48 286.33 228.48 285.53 227.18 285.53 227.18 286.23 228.48 286.33" style="fill:#231f20;fill-rule:evenodd"/><polygon points="230.88 286.23 230.78 285.53 229.48 285.53 229.58 286.33 230.88 286.23" style="fill:#231f20;fill-rule:evenodd"/><path d="M233.18,286.13l-.1-.7a1.27,1.27,0,0,0-.6.1h-.6v.7h.6A1.48,1.48,0,0,1,233.18,286.13Z" style="fill:#231f20;fill-rule:evenodd"/><path d="M226.88,282.23a3.4,3.4,0,0,1-1-.1,16.35,16.35,0,0,1-2.2-.2c-1.6-.2-3.2-.5-3.2-.5l-1.4,7.4,3.7.6c.9.1,1.9.2,2.6.2a4.87,4.87,0,0,0,1.2.1Z" style="fill:none"/><polygon points="221.48 285.73 221.58 285.03 220.38 284.83 220.18 285.53 221.48 285.73" style="fill:#231f20;fill-rule:evenodd"/><path d="M223.78,286l.1-.7a6598893889315.66,6598893889315.66,0,0,1-1.2-.2l-.1.7a1.27,1.27,0,0,0,.6.1C223.38,285.93,223.58,286,223.78,286Z" style="fill:#231f20;fill-rule:evenodd"/><polygon points="226.18 286.23 226.18 285.53 224.88 285.43 224.88 286.13 226.18 286.23" style="fill:#231f20;fill-rule:evenodd"/><path d="M240.78,63.43s25.3,55.2,16.3,201.6c0,0-17-7.2-41.8,5.4l-6-42.9,10.9-134.2C220.08,93.33,232.68,65.83,240.78,63.43Z" style="fill:#fff;stroke:#231f20;stroke-miterlimit:10"/><path d="M257,281l.1-16a55.48,55.48,0,0,0-41.8,5.4l2.3,15.8S233.78,276.93,257,281Z" style="fill:#fff;stroke:#231f20;stroke-miterlimit:10"/><path d="M258.08,263c-.1,0-2-.6-3.9-.9-.9-.2-1.9-.3-2.6-.4a4.87,4.87,0,0,0-1.2-.1l-.9,7.4a3.4,3.4,0,0,0,1,.1c.6.1,1.5.2,2.3.4,1.6.3,3.2.7,3.1.7Z" style="fill:none"/><path d="M251.78,265.83l.1-.7a1.7,1.7,0,0,0-.7-.1,1.7,1.7,0,0,1-.7-.1l-.1.7a9718401599952.37,9718401599952.37,0,0,0,1.4.2Z" style="fill:#231f20;fill-rule:evenodd"/><path d="M254.18,266.23l.1-.7a9718401599953.07,9718401599953.07,0,0,1-1.4-.2l-.1.7a1.7,1.7,0,0,1,.7.1A2,2,0,0,1,254.18,266.23Z" style="fill:#231f20;fill-rule:evenodd"/><path d="M256.48,266.73l.2-.7s-.3-.1-.7-.2a1.7,1.7,0,0,0-.7-.1l-.2.7a1.27,1.27,0,0,0,.6.1C255.88,266.63,256.18,266.63,256.48,266.73Z" style="fill:#231f20;fill-rule:evenodd"/><path d="M250.48,261.53a4.87,4.87,0,0,0-1.2-.1c-.7-.1-1.7-.1-2.6-.2a24.4,24.4,0,0,0-2.6-.1h-1.2v7.5H244c.6,0,1.5.1,2.3.1a15.16,15.16,0,0,1,2.3.2,3.4,3.4,0,0,0,1,.1Z" style="fill:none"/><path d="M244.68,265.13v-.8h-1.4v.8Z" style="fill:#231f20;fill-rule:evenodd"/><path d="M247.08,265.23l.1-.7a1.7,1.7,0,0,1-.7-.1h-.7v.7h.7C246.68,265.13,246.88,265.23,247.08,265.23Z" style="fill:#231f20;fill-rule:evenodd"/><path d="M249.48,265.53l.1-.7a1.7,1.7,0,0,0-.7-.1,1.7,1.7,0,0,1-.7-.1l-.1.7a1.7,1.7,0,0,1,.7.1A2,2,0,0,1,249.48,265.53Z" style="fill:#231f20;fill-rule:evenodd"/><path d="M242.88,261.13h-1.2a22.6,22.6,0,0,0-2.6.1c-1,.1-1.9.1-2.6.2a4.87,4.87,0,0,1-1.2.1l.9,7.4a3.4,3.4,0,0,1,1-.1c.6-.1,1.5-.1,2.3-.2a17.7,17.7,0,0,1,2.3-.1h1.1Z" style="fill:none"/><path d="M237.58,265.33l-.1-.7a9146730917525.75,9146730917525.75,0,0,1-1.4.2l.1.7a1.7,1.7,0,0,0,.7-.1A1.48,1.48,0,0,1,237.58,265.33Z" style="fill:#231f20;fill-rule:evenodd"/><polygon points="239.98 265.23 239.88 264.43 238.58 264.53 238.58 265.23 239.98 265.23" style="fill:#231f20;fill-rule:evenodd"/><polygon points="242.28 265.13 242.28 264.33 240.98 264.43 240.98 265.13 242.28 265.13" style="fill:#231f20;fill-rule:evenodd"/><path d="M235.18,261.53s-.5.1-1.2.2-1.7.3-2.6.4a23.39,23.39,0,0,0-3.8.9l1.9,7.2a30.05,30.05,0,0,1,3.2-.7,18.46,18.46,0,0,1,2.3-.4,3.4,3.4,0,0,1,1-.1Z" style="fill:none"/><path d="M230.48,266.43l-.2-.7-1.3.3.2.7Z" style="fill:#231f20;fill-rule:evenodd"/><polygon points="232.88 266.03 232.68 265.23 231.38 265.53 231.58 266.23 232.88 266.03" style="fill:#231f20;fill-rule:evenodd"/><polygon points="235.18 265.63 235.08 264.93 233.78 265.03 233.88 265.83 235.18 265.63" style="fill:#231f20;fill-rule:evenodd"/><path d="M227.68,263s-.5.1-1.2.3c-.3.1-.8.2-1.2.3a6.94,6.94,0,0,0-1.3.5c-.9.3-1.8.7-2.5.9a3.65,3.65,0,0,0-1.1.5l3,6.9s.4-.2.9-.4,1.4-.5,2.1-.8c.4-.1.8-.3,1.1-.4s.7-.2,1-.3c.6-.2,1-.3,1-.3Z" style="fill:none"/><path d="M223.68,268.53l-.3-.7-.6.2-.6.3.3.7.6-.3Z" style="fill:#231f20;fill-rule:evenodd"/><polygon points="225.88 267.73 225.68 267.03 224.38 267.43 224.68 268.23 225.88 267.73" style="fill:#231f20;fill-rule:evenodd"/><polygon points="228.18 267.03 227.98 266.33 226.68 266.73 226.88 267.43 228.18 267.03" style="fill:#231f20;fill-rule:evenodd"/><path d="M220.38,265.53s-.4.2-1.1.5l-2.4,1.2c-1.7,1-3.4,1.9-3.4,1.9l4,6.3s1.4-.8,2.9-1.6c.7-.4,1.5-.7,2-1a3.55,3.55,0,0,1,.9-.4Z" style="fill:none"/><polygon points="219.38 270.43 218.98 269.83 217.78 270.43 218.18 271.13 219.38 270.43" style="fill:#231f20;fill-rule:evenodd"/><polygon points="221.48 269.43 221.18 268.83 219.98 269.33 220.28 270.03 221.48 269.43" style="fill:#231f20;fill-rule:evenodd"/><path d="M258.08,275.13a26.62,26.62,0,0,0-3.9-.7c-1.8-.3-3.6-.4-3.6-.4l-.5,7.5s1.6.1,3.1.3,3,.6,2.8.5Z" style="fill:none"/><polygon points="252.08 278.23 252.08 277.43 250.88 277.33 250.78 278.13 252.08 278.23" style="fill:#231f20;fill-rule:evenodd"/><polygon points="254.28 278.43 254.38 277.73 253.08 277.53 252.98 278.33 254.28 278.43" style="fill:#231f20;fill-rule:evenodd"/><path d="M256.48,278.93l.2-.7a98983408340092,98983408340092,0,0,1-1.2-.2l-.1.7a1.27,1.27,0,0,0,.6.1A1.09,1.09,0,0,1,256.48,278.93Z" style="fill:#231f20;fill-rule:evenodd"/><path d="M250.58,274s-1.8-.1-3.6-.1a20.9,20.9,0,0,0-2.5.1h-1.1l.4,7.5h1a8.1,8.1,0,0,1,2.2,0c1.6,0,3.2.1,3.2.1Z" style="fill:none"/><polygon points="245.28 278.03 245.28 277.23 243.98 277.33 244.08 278.03 245.28 278.03" style="fill:#231f20;fill-rule:evenodd"/><polygon points="247.58 277.93 247.58 277.23 246.28 277.23 246.28 277.93 247.58 277.93" style="fill:#231f20;fill-rule:evenodd"/><polygon points="249.78 278.03 249.78 277.33 248.58 277.23 248.58 277.93 249.78 278.03" style="fill:#231f20;fill-rule:evenodd"/><path d="M243.38,274s-1.8.1-3.6.3c-.9.1-1.8.2-2.4.3l-1.1.2,1.2,7.4a3.4,3.4,0,0,1,1-.1c.6-.1,1.4-.2,2.2-.3,1.6-.1,3.2-.3,3.2-.3Z" style="fill:none"/><polygon points="238.58 278.53 238.48 277.83 237.18 277.93 237.38 278.73 238.58 278.53" style="fill:#231f20;fill-rule:evenodd"/><path d="M240.78,278.23l-.1-.7a98983408339333.12,98983408339333.12,0,0,1-1.2.2l.1.7a1.27,1.27,0,0,0,.6-.1C240.38,278.33,240.58,278.23,240.78,278.23Z" style="fill:#231f20;fill-rule:evenodd"/><polygon points="243.08 278.13 242.98 277.33 241.78 277.43 241.78 278.23 243.08 278.13" style="fill:#231f20;fill-rule:evenodd"/><path d="M236.18,274.83l-3.5.6c-1.7.4-3.5.8-3.5.8l1.8,7.3s1.6-.4,3.1-.7l3.2-.6Z" style="fill:none"/><polygon points="231.98 279.73 231.78 279.03 230.58 279.23 230.68 280.03 231.98 279.73" style="fill:#231f20;fill-rule:evenodd"/><path d="M234.18,279.23l-.1-.7a1.27,1.27,0,0,0-.6.1,1.27,1.27,0,0,1-.6.1l.2.7a1.27,1.27,0,0,1,.6-.1A.75.75,0,0,1,234.18,279.23Z" style="fill:#231f20;fill-rule:evenodd"/><polygon points="236.38 278.83 236.18 278.13 234.98 278.33 235.08 279.03 236.38 278.83" style="fill:#231f20;fill-rule:evenodd"/><path d="M229.28,276.23l-1.1.3c-.6.2-1.5.4-2.3.6a20.16,20.16,0,0,0-2.3.7c-.6.2-1,.3-1,.3l2.4,7.1s.4-.1,1-.3,1.3-.5,2.1-.7l2.1-.6c.6-.2,1-.3,1-.3Z" style="fill:none"/><polygon points="225.38 281.43 225.18 280.73 223.98 281.13 224.18 281.83 225.38 281.43" style="fill:#231f20;fill-rule:evenodd"/><polygon points="227.58 280.83 227.38 280.13 226.18 280.43 226.38 281.13 227.58 280.83" style="fill:#231f20;fill-rule:evenodd"/><polygon points="229.68 280.23 229.58 279.53 228.28 279.83 228.48 280.53 229.68 280.23" style="fill:#231f20;fill-rule:evenodd"/><path d="M222.48,278.23s-.4.1-1,.3-1.5.5-2.3.8c-1.6.6-3.3,1.3-3.3,1.3l2.9,6.9,3-1.2c.8-.3,1.5-.6,2.1-.8s1-.3,1-.3Z" style="fill:none"/><polygon points="219.08 283.73 218.78 283.03 217.58 283.43 217.88 284.13 219.08 283.73" style="fill:#231f20;fill-rule:evenodd"/><polygon points="221.18 282.93 220.88 282.23 219.68 282.63 219.98 283.33 221.18 282.93" style="fill:#231f20;fill-rule:evenodd"/><polygon points="223.28 282.13 222.98 281.43 221.78 281.83 222.08 282.53 223.28 282.13" style="fill:#231f20;fill-rule:evenodd"/><path d="M243.08,126.43s-.4,2.8-1.4,7c-.5,2.1-1.2,4.5-2,7.1a74.74,74.74,0,0,1-2.9,7.9c-.6,1.3-1.1,2.6-1.8,3.9s-1.2,2.5-1.9,3.7-1.3,2.3-2,3.4-1.3,2-1.9,2.9-1.3,1.6-1.8,2.3-1.1,1.2-1.5,1.7c-.8.9-1.3,1.5-1.3,1.5s.4-.6,1.2-1.6c.4-.5.9-1.1,1.4-1.8s1-1.5,1.7-2.4a28.23,28.23,0,0,0,1.8-2.9c.6-1,1.2-2.2,1.9-3.4s1.2-2.4,1.8-3.7,1.1-2.6,1.7-3.9c1.1-2.6,2.1-5.3,3-7.8.4-1.3.8-2.5,1.2-3.7s.7-2.3,1-3.3c.6-2.1,1.1-3.8,1.4-5A10.62,10.62,0,0,1,243.08,126.43Z" style="fill:#231f20"/><path d="M250.78,166.93a6.47,6.47,0,0,1,.4,1.3c.2.9.5,2.1.8,3.6a38.25,38.25,0,0,1,.5,5.2,40.32,40.32,0,0,1-.4,6c-.2,1-.4,2-.7,3a23.29,23.29,0,0,1-1.1,2.8,5.39,5.39,0,0,1-.7,1.3,6.73,6.73,0,0,1-.7,1.1,3.92,3.92,0,0,1-.8,1c-.3.3-.5.6-.8.9a19.2,19.2,0,0,1-1.5,1.4,14.63,14.63,0,0,1-1.3.9,7.46,7.46,0,0,0-1.2.7l1.1-.8c.3-.3.8-.6,1.2-1s.9-.9,1.4-1.5a5.5,5.5,0,0,0,.7-.9c.2-.3.5-.7.7-1a10.54,10.54,0,0,0,.7-1.1l.6-1.2c.4-.9.7-1.8,1-2.7s.5-1.9.7-2.9a28.79,28.79,0,0,0,.5-5.9c0-1.9-.1-3.6-.2-5.2C251.18,168.93,250.78,166.93,250.78,166.93Z" style="fill:#231f20"/><path d="M257,205.63s-.3,1.6-.9,3.9c-.2.6-.3,1.2-.5,1.9l-.6,2.1c-.5,1.4-1,3-1.5,4.5-.3.8-.5,1.5-.8,2.3a8.49,8.49,0,0,1-.9,2.2c-.6,1.4-1.2,2.7-1.6,3.8-1,2.2-1.7,3.7-1.7,3.7s.5-1.6,1.3-3.8c.4-1.1.9-2.5,1.4-3.9a14.27,14.27,0,0,0,.8-2.2,20.94,20.94,0,0,1,.8-2.3c.5-1.5,1.1-3,1.6-4.5s.9-2.8,1.3-3.9C256.48,207.13,257,205.63,257,205.63Z" style="fill:#231f20"/><path d="M218.78,182.93s.4.9,1.1,2.4,1.6,3.8,2.7,6.5,2.3,5.9,3.4,9.3,2.3,7.1,3.3,10.9a87.57,87.57,0,0,1,2.3,11.1l.3,2.7a22.75,22.75,0,0,1,.2,2.6,36.85,36.85,0,0,1,0,4.7c-.1.7-.1,1.4-.2,2.1a12.86,12.86,0,0,1-.4,1.9,7.49,7.49,0,0,1-.5,1.6,3.1,3.1,0,0,1-.6,1.3c-.2.3-.4.7-.6,1s-.4.5-.5.7-.3.3-.4.5c.1-.2.3-.4.4-.6s.3-.4.5-.7a4.67,4.67,0,0,1,.5-1c.2-.4.3-.8.5-1.3a9.36,9.36,0,0,0,.4-1.6l.3-1.8c.1-.6.1-1.3.2-2.1a35.33,35.33,0,0,0-.1-4.6c-.1-.8-.2-1.7-.3-2.5a23.36,23.36,0,0,0-.4-2.6c-.3-1.8-.6-3.6-1-5.5s-.9-3.7-1.4-5.6c-1-3.7-2.1-7.4-3.2-10.9s-2.2-6.6-3.2-9.4C220.18,186.53,218.78,182.93,218.78,182.93Z" style="fill:#231f20"/><polygon points="80.98 282.83 80.78 282.13 79.58 282.33 79.68 283.03 80.98 282.83" style="fill:#231f20;fill-rule:evenodd"/><polygon points="82.98 268.43 83.38 267.73 82.18 267.13 81.78 267.73 82.98 268.43" style="fill:#231f20;fill-rule:evenodd"/><polygon points="80.88 267.33 81.18 266.63 79.98 266.13 79.68 266.73 80.88 267.33" style="fill:#231f20;fill-rule:evenodd"/><polygon points="83.28 281.43 83.58 280.73 82.38 280.33 82.08 281.03 83.28 281.43" style="fill:#231f20;fill-rule:evenodd"/><polygon points="81.18 280.63 81.48 279.93 80.28 279.53 79.98 280.23 81.18 280.63" style="fill:#231f20;fill-rule:evenodd"/><polygon points="43.18 212.73 42.78 212.03 41.58 212.73 41.98 213.33 43.18 212.73" style="fill:#231f20;fill-rule:evenodd"/><path d="M83.58,285.53c-28.1,5.4-39.4-5.2-39.4-5.2C62.88,275.13,83.58,285.53,83.58,285.53Z" style="fill:#b3b3b3;stroke:#231f20;stroke-miterlimit:10"/><path d="M45.68,283.53c.1.1,1.9.8,3.6,1.4s3.5,1.1,3.5,1.1l2.1-7.2s-1.5-.5-3.1-1c-1-.3-2-.7-3-1.1Z" style="fill:none"/><polygon points="53.18 282.63 53.48 281.93 52.18 281.53 51.98 282.23 53.18 282.63" style="fill:#231f20;fill-rule:evenodd"/><polygon points="50.98 281.93 51.28 281.23 49.98 280.73 49.78 281.53 50.98 281.93" style="fill:#231f20;fill-rule:evenodd"/><polygon points="48.78 281.13 49.08 280.43 47.88 279.93 47.58 280.63 48.78 281.13" style="fill:#231f20;fill-rule:evenodd"/><path d="M52.78,286.13a35.74,35.74,0,0,0,3.5,1l3.6.8,1.4-7.4s-1.6-.3-3.2-.7-3.2-.9-3.2-.9Z" style="fill:none"/><polygon points="59.98 284.33 60.18 283.63 58.88 283.33 58.78 284.03 59.98 284.33" style="fill:#231f20;fill-rule:evenodd"/><polygon points="57.78 283.83 57.88 283.13 56.68 282.83 56.48 283.53 57.78 283.83" style="fill:#231f20;fill-rule:evenodd"/><polygon points="55.48 283.23 55.68 282.53 54.38 282.23 54.18 282.93 55.48 283.23" style="fill:#231f20;fill-rule:evenodd"/><path d="M59.88,288s.4.1,1.1.2,1.6.3,2.5.4c1.8.3,3.7.4,3.7.4l.6-7.5-3.3-.4c-.8-.1-1.6-.3-2.2-.4s-1-.2-1-.2Z" style="fill:none"/><path d="M66.28,285.33a1.27,1.27,0,0,0,.6.1l.1-.7a197966816679486.84,197966816679486.84,0,0,1-1.2-.2l-.1.7A1.27,1.27,0,0,1,66.28,285.33Z" style="fill:#231f20;fill-rule:evenodd"/><polygon points="64.68 285.13 64.68 284.33 63.48 284.13 63.38 284.93 64.68 285.13" style="fill:#231f20;fill-rule:evenodd"/><polygon points="62.28 284.73 62.48 284.03 61.18 283.83 61.08 284.53 62.28 284.73" style="fill:#231f20;fill-rule:evenodd"/><path d="M66.88,288.93a4.87,4.87,0,0,1,1.2.1c.7,0,1.7.1,2.6.1a11.3,11.3,0,0,0,2.6,0h1.2l-.3-7.5h-1a8.1,8.1,0,0,1-2.2,0c-.8,0-1.6-.1-2.2-.1a3.4,3.4,0,0,0-1-.1Z" style="fill:none"/><polygon points="73.98 285.53 73.98 284.83 72.68 284.83 72.68 285.63 73.98 285.53" style="fill:#231f20;fill-rule:evenodd"/><polygon points="71.58 285.63 71.68 284.83 70.38 284.83 70.28 285.53 71.58 285.63" style="fill:#231f20;fill-rule:evenodd"/><path d="M68.68,285.53h.6v-.7h-.6a1.27,1.27,0,0,0-.6-.1l-.1.7A1.48,1.48,0,0,1,68.68,285.53Z" style="fill:#231f20;fill-rule:evenodd"/><path d="M74.58,289a4.87,4.87,0,0,0,1.2-.1c.7,0,1.7-.1,2.6-.2l3.7-.6-1.4-7.4s-1.6.3-3.2.5a16.35,16.35,0,0,1-2.2.2,3.4,3.4,0,0,1-1,.1Z" style="fill:none"/><path d="M78,285.23a1.27,1.27,0,0,0,.6-.1l-.1-.7a6334938133743.72,6334938133743.72,0,0,0-1.2.2l.1.7C77.58,285.33,77.78,285.23,78,285.23Z" style="fill:#231f20;fill-rule:evenodd"/><polygon points="76.28 285.43 76.28 284.73 74.98 284.83 74.98 285.53 76.28 285.43" style="fill:#231f20;fill-rule:evenodd"/><path d="M81,92.63l10.9,134.2-6,42.9c-24.8-12.6-41.8-5.4-41.8-5.4-9-146.4,16.3-201.6,16.3-201.6C68.48,65.13,81.08,92.63,81,92.63Z" style="fill:#fff;stroke:#231f20;stroke-miterlimit:10"/><path d="M83.58,285.53l2.3-15.8a55.48,55.48,0,0,0-41.8-5.4l.1,16C67.38,276.23,83.58,285.53,83.58,285.53Z" style="fill:#fff;stroke:#231f20;stroke-miterlimit:10"/><path d="M45.28,269.53c-.1,0,1.5-.4,3.1-.7.8-.2,1.7-.3,2.3-.4a3.4,3.4,0,0,0,1-.1l-.9-7.4a4.87,4.87,0,0,0-1.2.1c-.7.1-1.7.2-2.6.4-1.9.3-3.8.9-3.9.9Z" style="fill:none"/><path d="M50.08,265a1.7,1.7,0,0,1,.7-.1l-.1-.7a1.7,1.7,0,0,1-.7.1,1.7,1.7,0,0,0-.7.1l.1.7A1.7,1.7,0,0,1,50.08,265Z" style="fill:#231f20;fill-rule:evenodd"/><path d="M47.68,265.43a1.7,1.7,0,0,1,.7-.1l-.1-.7a1.7,1.7,0,0,0-.7.1,1.7,1.7,0,0,0-.7.1l.1.7A2,2,0,0,1,47.68,265.43Z" style="fill:#231f20;fill-rule:evenodd"/><path d="M45.48,265.83a1.27,1.27,0,0,0,.6-.1l-.2-.7a1.7,1.7,0,0,0-.7.1c-.4.1-.7.2-.7.2l.2.7C45,265.93,45.28,265.93,45.48,265.83Z" style="fill:#231f20;fill-rule:evenodd"/><path d="M51.58,268.33a3.4,3.4,0,0,0,1-.1,15.16,15.16,0,0,1,2.3-.2c.8,0,1.7-.1,2.3-.1h1.1v-7.5h-1.2a24.4,24.4,0,0,0-2.6.1c-.9.1-1.9.1-2.6.2a4.87,4.87,0,0,0-1.2.1Z" style="fill:none"/><path d="M57.88,264.43v-.8h-1.4v.8Z" style="fill:#231f20;fill-rule:evenodd"/><path d="M54.68,264.43h.7v-.7h-.7a1.7,1.7,0,0,1-.7.1l.1.7C54.28,264.53,54.48,264.43,54.68,264.43Z" style="fill:#231f20;fill-rule:evenodd"/><path d="M52.38,264.73a1.7,1.7,0,0,1,.7-.1l-.1-.7a1.7,1.7,0,0,1-.7.1,1.7,1.7,0,0,0-.7.1l.1.7A2,2,0,0,1,52.38,264.73Z" style="fill:#231f20;fill-rule:evenodd"/><path d="M58.28,267.83h1.1a17.7,17.7,0,0,1,2.3.1c.8.1,1.7.1,2.3.2a3.4,3.4,0,0,1,1,.1l.9-7.4a4.87,4.87,0,0,1-1.2-.1c-.7-.1-1.6-.1-2.6-.2a22.6,22.6,0,0,0-2.6-.1h-1.2Z" style="fill:none"/><path d="M64.28,264.73a1.7,1.7,0,0,0,.7.1l.1-.7a1.7,1.7,0,0,0-.7-.1,1.7,1.7,0,0,0-.7-.1l-.1.7A1.48,1.48,0,0,1,64.28,264.73Z" style="fill:#231f20;fill-rule:evenodd"/><polygon points="62.58 264.53 62.58 263.83 61.28 263.73 61.18 264.53 62.58 264.53" style="fill:#231f20;fill-rule:evenodd"/><polygon points="60.18 264.43 60.18 263.73 58.88 263.63 58.88 264.43 60.18 264.43" style="fill:#231f20;fill-rule:evenodd"/><path d="M65.18,268.33a3.4,3.4,0,0,1,1,.1,18.46,18.46,0,0,1,2.3.4,30.05,30.05,0,0,1,3.2.7l1.9-7.2a23.39,23.39,0,0,0-3.8-.9c-.9-.1-1.9-.3-2.6-.4s-1.2-.2-1.2-.2Z" style="fill:none"/><path d="M72,266l.2-.7-1.3-.3-.2.7Z" style="fill:#231f20;fill-rule:evenodd"/><polygon points="69.58 265.53 69.78 264.83 68.48 264.53 68.28 265.33 69.58 265.53" style="fill:#231f20;fill-rule:evenodd"/><polygon points="67.28 265.13 67.38 264.33 66.08 264.23 65.98 264.93 67.28 265.13" style="fill:#231f20;fill-rule:evenodd"/><path d="M71.68,269.53s.4.1,1,.3c.3.1.7.2,1,.3s.7.3,1.1.4c.7.3,1.6.6,2.1.8s.9.4.9.4l3-6.9a3.65,3.65,0,0,0-1.1-.5c-.7-.2-1.6-.6-2.5-.9a6.94,6.94,0,0,0-1.3-.5c-.4-.1-.9-.2-1.2-.3-.7-.2-1.2-.3-1.2-.3Z" style="fill:none"/><path d="M78.08,268l.6.3.3-.7-.6-.3-.6-.2-.3.7Z" style="fill:#231f20;fill-rule:evenodd"/><polygon points="76.48 267.53 76.78 266.73 75.48 266.33 75.28 267.03 76.48 267.53" style="fill:#231f20;fill-rule:evenodd"/><polygon points="74.28 266.73 74.48 266.03 73.18 265.63 72.98 266.33 74.28 266.73" style="fill:#231f20;fill-rule:evenodd"/><path d="M77.88,271.73a3.55,3.55,0,0,1,.9.4c.5.3,1.3.6,2,1,1.5.8,2.9,1.6,2.9,1.6l4-6.3s-1.7-.9-3.4-1.9l-2.4-1.2c-.7-.3-1.1-.5-1.1-.5Z" style="fill:none"/><path d="M45.18,281.63c-.2.1,1.3-.3,2.8-.5s3.1-.3,3.1-.3l-.5-7.5s-1.8.1-3.6.4a26.62,26.62,0,0,0-3.9.7Z" style="fill:none"/><polygon points="50.38 277.43 50.28 276.63 49.08 276.73 49.08 277.53 50.38 277.43" style="fill:#231f20;fill-rule:evenodd"/><polygon points="48.18 277.63 48.08 276.83 46.78 277.03 46.88 277.73 48.18 277.63" style="fill:#231f20;fill-rule:evenodd"/><path d="M45.18,278.13a1.27,1.27,0,0,0,.6-.1l-.1-.7a1.27,1.27,0,0,0-.6.1,1.27,1.27,0,0,0-.6.1l.2.7A1.09,1.09,0,0,1,45.18,278.13Z" style="fill:#231f20;fill-rule:evenodd"/><path d="M51,280.93s1.6-.1,3.2-.1a8.1,8.1,0,0,1,2.2,0h1l.4-7.5h-1.1a20.9,20.9,0,0,0-2.5-.1c-1.8,0-3.6.1-3.6.1Z" style="fill:none"/><polygon points="57.08 277.33 57.18 276.63 55.88 276.53 55.88 277.33 57.08 277.33" style="fill:#231f20;fill-rule:evenodd"/><polygon points="54.88 277.23 54.88 276.53 53.58 276.53 53.58 277.23 54.88 277.23" style="fill:#231f20;fill-rule:evenodd"/><polygon points="52.58 277.23 52.58 276.53 51.38 276.63 51.38 277.33 52.58 277.23" style="fill:#231f20;fill-rule:evenodd"/><path d="M57.28,280.83s1.6.2,3.2.3c.8.1,1.6.2,2.2.3a3.4,3.4,0,0,1,1,.1l1.2-7.4-1.1-.2c-.6-.1-1.5-.2-2.4-.3-1.8-.2-3.6-.3-3.6-.3Z" style="fill:none"/><polygon points="63.78 278.03 63.98 277.23 62.68 277.13 62.58 277.83 63.78 278.03" style="fill:#231f20;fill-rule:evenodd"/><path d="M61,277.63a1.27,1.27,0,0,0,.6.1l.1-.7a6598893889316.29,6598893889316.29,0,0,1-1.2-.2l-.1.7C60.58,277.53,60.78,277.63,61,277.63Z" style="fill:#231f20;fill-rule:evenodd"/><polygon points="59.38 277.53 59.38 276.73 58.18 276.63 58.08 277.43 59.38 277.53" style="fill:#231f20;fill-rule:evenodd"/><path d="M63.88,281.53l3.2.6c1.5.3,3.1.7,3.1.7l1.8-7.3s-1.8-.4-3.5-.8l-3.5-.6Z" style="fill:none"/><polygon points="70.48 279.33 70.58 278.53 69.38 278.33 69.18 279.03 70.48 279.33" style="fill:#231f20;fill-rule:evenodd"/><path d="M67.48,278.63a1.27,1.27,0,0,1,.6.1l.2-.7a1.27,1.27,0,0,1-.6-.1,1.27,1.27,0,0,0-.6-.1l-.1.7A.75.75,0,0,1,67.48,278.63Z" style="fill:#231f20;fill-rule:evenodd"/><polygon points="66.08 278.33 66.18 277.63 64.98 277.43 64.78 278.13 66.08 278.33" style="fill:#231f20;fill-rule:evenodd"/><path d="M70,282.63s.4.1,1,.3l2.1.6c.8.2,1.5.5,2.1.7s1,.3,1,.3l2.4-7.1s-.4-.1-1-.3a20.16,20.16,0,0,0-2.3-.7c-.8-.2-1.7-.4-2.3-.6l-1.1-.3Z" style="fill:none"/><polygon points="76.98 281.13 77.18 280.43 75.98 280.03 75.78 280.73 76.98 281.13" style="fill:#231f20;fill-rule:evenodd"/><polygon points="74.78 280.43 74.98 279.73 73.78 279.43 73.58 280.13 74.78 280.43" style="fill:#231f20;fill-rule:evenodd"/><polygon points="72.68 279.83 72.88 279.13 71.58 278.83 71.48 279.53 72.68 279.83" style="fill:#231f20;fill-rule:evenodd"/><path d="M76.28,284.53s.4.1,1,.3,1.3.5,2.1.8l3,1.2,2.9-6.9s-1.7-.7-3.3-1.3c-.8-.3-1.7-.6-2.3-.8s-1-.3-1-.3Z" style="fill:none"/><polygon points="79.08 281.83 79.38 281.13 78.18 280.73 77.88 281.43 79.08 281.83" style="fill:#231f20;fill-rule:evenodd"/><path d="M58.48,127.63c.3,1.2.8,2.9,1.4,5,.3,1,.6,2.1,1,3.3s.8,2.4,1.2,3.7c.9,2.5,1.9,5.2,3,7.8.6,1.3,1.1,2.6,1.7,3.9s1.1,2.5,1.8,3.7,1.3,2.4,1.9,3.4a28.23,28.23,0,0,0,1.8,2.9c.7.9,1.2,1.7,1.7,2.4s1,1.3,1.4,1.8c.8,1,1.2,1.6,1.2,1.6s-.5-.6-1.3-1.5c-.4-.5-1-1-1.5-1.7s-1.2-1.4-1.8-2.3-1.2-1.8-1.9-2.9-1.3-2.2-2-3.4-1.2-2.4-1.9-3.7-1.2-2.6-1.8-3.9a74.74,74.74,0,0,1-2.9-7.9c-.8-2.6-1.5-5-2-7.1-1-4.2-1.4-7-1.4-7A10.62,10.62,0,0,1,58.48,127.63Z" style="fill:#231f20"/><path d="M49.48,171.23c-.1,1.6-.2,3.3-.2,5.2a28.79,28.79,0,0,0,.5,5.9c.2,1,.4,1.9.7,2.9s.6,1.8,1,2.7l.6,1.2a10.54,10.54,0,0,0,.7,1.1c.2.3.5.7.7,1a5.5,5.5,0,0,0,.7.9c.5.6,1,1.1,1.4,1.5s.9.7,1.2,1l1.1.8a7.46,7.46,0,0,0-1.2-.7,14.63,14.63,0,0,1-1.3-.9,19.2,19.2,0,0,1-1.5-1.4c-.3-.3-.5-.6-.8-.9a3.92,3.92,0,0,1-.8-1,6.73,6.73,0,0,1-.7-1.1,5.39,5.39,0,0,1-.7-1.3,23.29,23.29,0,0,1-1.1-2.8c-.3-1-.5-2-.7-3a40.32,40.32,0,0,1-.4-6,38.25,38.25,0,0,1,.5-5.2c.3-1.5.6-2.7.8-3.6a6.47,6.47,0,0,1,.4-1.3S50,168.23,49.48,171.23Z" style="fill:#231f20"/><path d="M45.48,208.73c.4,1.1.8,2.4,1.3,3.9s1.1,3,1.6,4.5a20.94,20.94,0,0,1,.8,2.3,14.27,14.27,0,0,0,.8,2.2c.5,1.4,1,2.8,1.4,3.9.8,2.2,1.3,3.8,1.3,3.8s-.7-1.5-1.7-3.7c-.4-1.1-1-2.4-1.6-3.8a8.49,8.49,0,0,1-.9-2.2c-.3-.8-.5-1.5-.8-2.3-.5-1.5-1-3.1-1.5-4.5l-.6-2.1c-.2-.7-.3-1.3-.5-1.9-.6-2.3-.9-3.9-.9-3.9S44.68,206.43,45.48,208.73Z" style="fill:#231f20"/><path d="M79.08,191.33c-1,2.8-2.1,5.9-3.2,9.4s-2.2,7.2-3.2,10.9c-.5,1.9-1,3.7-1.4,5.6s-.7,3.7-1,5.5a23.36,23.36,0,0,0-.4,2.6c-.1.8-.2,1.7-.3,2.5a35.33,35.33,0,0,0-.1,4.6c.1.8.1,1.5.2,2.1l.3,1.8a9.36,9.36,0,0,0,.4,1.6c.2.5.3.9.5,1.3a4.67,4.67,0,0,1,.5,1c.2.3.4.5.5.7s.3.4.4.6c-.1-.2-.3-.3-.4-.5s-.3-.4-.5-.7-.4-.7-.6-1a3.1,3.1,0,0,1-.6-1.3,7.49,7.49,0,0,1-.5-1.6,12.86,12.86,0,0,1-.4-1.9c-.1-.7-.1-1.4-.2-2.1a36.85,36.85,0,0,1,0-4.7,22.75,22.75,0,0,1,.2-2.6l.3-2.7a87.57,87.57,0,0,1,2.3-11.1c1-3.8,2.2-7.5,3.3-10.9s2.3-6.6,3.4-9.3,2-5,2.7-6.5,1.1-2.4,1.1-2.4S81,185.83,79.08,191.33Z" style="fill:#231f20"/></g></svg>