<svg id="Layer_1" data-name="Layer 1" xmlns="http://www.w3.org/2000/svg" viewBox="0 0 59.15 57.71"><defs><style>.cls-1,.cls-2{fill:none;}.cls-1{stroke:#231f20;stroke-miterlimit:10;}.cls-3,.cls-4{fill:#231f20;}.cls-4{fill-rule:evenodd;}</style></defs><title>Veste</title><path class="cls-1" d="M54,7.67v13l-22.2,6.5L7.27,23l-.9-12.3s36-4.1,48.9-3.4"/><rect class="cls-2" x="3.97" y="10.37" width="7.5" height="8.3" transform="translate(-1.41 0.84) rotate(-5.72)"/><rect class="cls-3" x="7.56" y="16.47" width="0.7" height="1.5" transform="translate(-1.68 0.87) rotate(-5.72)"/><rect class="cls-3" x="7.27" y="13.77" width="0.7" height="1.5" transform="translate(-1.41 0.83) rotate(-5.72)"/><rect class="cls-3" x="6.96" y="10.97" width="0.7" height="1.5" transform="translate(-1.13 0.79) rotate(-5.72)"/><rect class="cls-2" x="10.82" y="19.17" width="7.5" height="6.7" transform="translate(-10.13 32.98) rotate(-80.05)"/><rect class="cls-3" x="16.3" y="22.35" width="0.8" height="1.2" transform="translate(-8.8 35.43) rotate(-80.03)"/><rect class="cls-3" x="14.13" y="22.01" width="0.7" height="1.2" transform="translate(-10.29 32.98) rotate(-80.07)"/><rect class="cls-3" x="11.93" y="21.64" width="0.7" height="1.2" transform="translate(-11.74 30.5) rotate(-80.07)"/><rect class="cls-2" x="17.36" y="20.3" width="7.5" height="6.7" transform="translate(-5.84 40.36) rotate(-80.05)"/><rect class="cls-3" x="22.98" y="23.54" width="0.7" height="1.2" transform="translate(-4.48 42.95) rotate(-80.07)"/><rect class="cls-3" x="20.73" y="23.12" width="0.8" height="1.2" transform="translate(-5.9 40.42) rotate(-80.03)"/><rect class="cls-3" x="18.56" y="22.79" width="0.7" height="1.2" transform="translate(-7.39 37.98) rotate(-80.07)"/><polygon class="cls-2" points="23.77 27.97 30.57 29.07 31.47 21.67 25.07 20.57 23.77 27.97"/><rect class="cls-3" x="29.49" y="24.77" width="0.7" height="1.2" transform="translate(-0.29 50.39) rotate(-80.07)"/><rect class="cls-3" x="27.3" y="24.29" width="0.7" height="1.2" transform="translate(-1.64 47.83) rotate(-80.07)"/><rect class="cls-3" x="25.1" y="23.92" width="0.7" height="1.2" transform="translate(-3.1 45.36) rotate(-80.07)"/><polygon class="cls-2" points="30.57 29.07 31.87 29.37 38.47 27.47 36.47 20.27 31.47 21.67 30.57 29.07"/><rect class="cls-3" x="35.75" y="23.88" width="1.2" height="0.7" transform="translate(-5.28 10.98) rotate(-16.03)"/><rect class="cls-3" x="33.67" y="24.48" width="1.2" height="0.8" transform="translate(-5.53 10.42) rotate(-16.02)"/><polygon class="cls-4" points="31.47 25.17 31.47 25.97 31.67 25.97 32.87 25.67 32.67 24.97 31.67 25.27 31.47 25.17"/><rect class="cls-2" x="37.27" y="19.19" width="6.7" height="7.5" transform="translate(-4.75 12.08) rotate(-16)"/><rect class="cls-3" x="42.16" y="22.09" width="1.2" height="0.7" transform="matrix(0.96, -0.28, 0.28, 0.96, -4.53, 12.68)"/><rect class="cls-3" x="40.08" y="22.69" width="1.2" height="0.8" transform="translate(-4.78 12.09) rotate(-15.98)"/><rect class="cls-3" x="37.96" y="23.27" width="1.2" height="0.7" transform="translate(-5.02 11.54) rotate(-15.99)"/><rect class="cls-2" x="43.78" y="17.37" width="6.7" height="7.5" transform="matrix(0.96, -0.28, 0.28, 0.96, -3.99, 13.81)"/><rect class="cls-3" x="48.65" y="20.17" width="1.2" height="0.7" transform="translate(-3.75 14.36) rotate(-15.99)"/><rect class="cls-3" x="46.57" y="20.77" width="1.2" height="0.8" transform="translate(-4 13.8) rotate(-15.98)"/><rect class="cls-3" x="44.37" y="21.48" width="1.2" height="0.7" transform="translate(-4.28 13.26) rotate(-16.03)"/><rect class="cls-2" x="48.96" y="7.27" width="7.5" height="9" transform="translate(-0.62 3.25) rotate(-3.51)"/><rect class="cls-3" x="52.26" y="7.97" width="0.7" height="1.7" transform="translate(-0.44 3.24) rotate(-3.51)"/><rect class="cls-3" x="52.46" y="10.97" width="0.7" height="1.7" transform="translate(-0.62 3.25) rotate(-3.51)"/><rect class="cls-3" x="52.66" y="13.97" width="0.7" height="1.7" transform="translate(-0.81 3.27) rotate(-3.51)"/><rect class="cls-3" x="7.96" y="18.97" width="0.8" height="0.9" transform="translate(-1.9 0.93) rotate(-5.73)"/><path class="cls-4" d="M8.17,21.67l-.1-.9.7-.1v.4h.3l-.1.7a1.75,1.75,0,0,1-.5-.1.37.37,0,0,1-.3-.1c.1.1.1.1,0,.1Z"/><rect class="cls-3" x="9.98" y="21.27" width="0.7" height="0.9" transform="translate(-12.85 28.15) rotate(-80.07)"/><rect class="cls-3" x="50.66" y="19.47" width="1" height="0.8" transform="matrix(0.96, -0.28, 0.28, 0.96, -3.49, 14.88)"/><path class="cls-4" d="M53.47,19.57l-1,.3-.2-.7.4-.1h0v-.3h.7v.8c.1-.1.1-.1.1,0Z"/><rect class="cls-3" x="52.56" y="16.77" width="0.7" height="1" transform="translate(-0.96 3.27) rotate(-3.51)"/><polyline class="cls-1" points="10.47 23.47 13.27 47.97 32.67 54.17 50.77 46.17 51.77 21.37"/><polyline class="cls-1" points="12.37 23.87 15.37 46.17 32.27 51.77 49.17 44.47 49.87 22.07"/></svg>