<svg id="Layer_1" data-name="Layer 1" xmlns="http://www.w3.org/2000/svg" xmlns:xlink="http://www.w3.org/1999/xlink" viewBox="0 0 22.21 20.71"><defs><style>.cls-1{fill:url(#radial-gradient);}.cls-2{fill:url(#radial-gradient-2);}.cls-3{fill:url(#radial-gradient-3);}.cls-4{fill:url(#radial-gradient-4);}.cls-5{fill:url(#radial-gradient-5);}.cls-6{fill:url(#radial-gradient-6);}.cls-7{fill:#343435;}.cls-8{fill:url(#radial-gradient-7);}.cls-9{fill:url(#radial-gradient-8);}.cls-10{fill:url(#radial-gradient-9);}.cls-11{fill:url(#radial-gradient-10);}.cls-12{fill:url(#radial-gradient-11);}.cls-13{fill:url(#radial-gradient-12);}.cls-14{fill:url(#radial-gradient-13);}</style><radialGradient id="radial-gradient" cx="-831.24" cy="-937.37" r="1.62" gradientTransform="matrix(0, -0.9, -1, 0, -925.21, -734.44)" gradientUnits="userSpaceOnUse"><stop offset="0.55" stop-color="#fff"/><stop offset="0.61" stop-color="#fafaf9"/><stop offset="0.68" stop-color="#ebeae9"/><stop offset="0.77" stop-color="#d1d1cf"/><stop offset="0.86" stop-color="#afaeaa"/><stop offset="0.95" stop-color="#82817c"/><stop offset="1" stop-color="#686660"/></radialGradient><radialGradient id="radial-gradient-2" cx="-831.51" cy="-937.77" r="2.75" gradientTransform="matrix(0, -0.9, -1, 0, -925.21, -734.44)" gradientUnits="userSpaceOnUse"><stop offset="0.63" stop-color="#362e23"/><stop offset="1" stop-color="#e9cd8a"/></radialGradient><radialGradient id="radial-gradient-3" cx="-831.51" cy="-937.77" r="4.17" gradientTransform="matrix(0, -0.9, -1, 0, -925.21, -734.44)" gradientUnits="userSpaceOnUse"><stop offset="0.68" stop-color="#777266"/><stop offset="0.9" stop-color="#fcfdfb"/><stop offset="1" stop-color="#181915"/></radialGradient><radialGradient id="radial-gradient-4" cx="-831.51" cy="-937.77" r="3.75" xlink:href="#radial-gradient-3"/><radialGradient id="radial-gradient-5" cx="-831.51" cy="-937.77" r="3.31" xlink:href="#radial-gradient-3"/><radialGradient id="radial-gradient-6" cx="-830.68" cy="-939.87" r="0.28" xlink:href="#radial-gradient-3"/><radialGradient id="radial-gradient-7" cx="-1666.5" cy="-887.36" r="0.29" gradientTransform="matrix(-0.71, -0.63, -0.71, 0.63, -1792.37, -484.94)" xlink:href="#radial-gradient-3"/><radialGradient id="radial-gradient-8" cx="-2220.65" cy="-259.32" r="0.28" gradientTransform="matrix(-1, 0, 0, 0.9, -2208.92, 240.84)" xlink:href="#radial-gradient-3"/><radialGradient id="radial-gradient-9" cx="-2168.03" cy="577.04" r="0.28" gradientTransform="matrix(-0.71, 0.63, 0.71, 0.63, -1930.55, 1017.35)" xlink:href="#radial-gradient-3"/><radialGradient id="radial-gradient-10" cx="-1540.09" cy="1130.92" r="0.28" gradientTransform="matrix(0, 0.9, 1, 0, -1120.46, 1390.78)" xlink:href="#radial-gradient-3"/><radialGradient id="radial-gradient-11" cx="-703.87" cy="1078.58" r="0.28" gradientTransform="matrix(0.71, 0.63, 0.71, -0.63, -253.29, 1141.28)" xlink:href="#radial-gradient-3"/><radialGradient id="radial-gradient-12" cx="-149.86" cy="450.1" r="0.28" gradientTransform="matrix(1, 0, 0, -0.9, 163.25, 415.5)" xlink:href="#radial-gradient-3"/><radialGradient id="radial-gradient-13" cx="-202.09" cy="-385.6" r="0.28" gradientTransform="matrix(0.71, -0.63, -0.71, -0.63, -115.12, -361.01)" xlink:href="#radial-gradient-3"/></defs><title>Veste</title><path d="M5.41,10.76a3.87,3.87,0,0,1,1-.3,13,13,0,0,1,2.2-.3,14.79,14.79,0,0,1,2.2.1,3.87,3.87,0,0,1,1,.3,3.87,3.87,0,0,1-1,.3,13,13,0,0,1-2.2.3,14.79,14.79,0,0,1-2.2-.1A3.87,3.87,0,0,1,5.41,10.76Z"/><ellipse class="cls-1" cx="12.51" cy="10.46" rx="1.6" ry="1.4"/><path class="cls-2" d="M12.61,8a2.68,2.68,0,0,0-2.8,2.5,2.62,2.62,0,0,0,2.8,2.5,2.59,2.59,0,0,0,2.7-2.5A2.59,2.59,0,0,0,12.61,8Zm0,1.3a1.23,1.23,0,0,1,1.3,1.1,1.23,1.23,0,0,1-1.3,1.1,1.23,1.23,0,0,1-1.3-1.1A1.23,1.23,0,0,1,12.61,9.26Z"/><path class="cls-3" d="M12.61,6.66a4,4,0,0,0-4.2,3.7,4,4,0,0,0,4.2,3.7,4,4,0,0,0,4.2-3.7A4,4,0,0,0,12.61,6.66Zm0,2.1a1.8,1.8,0,0,1,1.9,1.7,1.91,1.91,0,0,1-3.8,0C10.61,9.46,11.51,8.76,12.61,8.76Z"/><path class="cls-4" d="M12.61,7.06a3.6,3.6,0,0,0-3.8,3.4,3.6,3.6,0,0,0,3.8,3.4,3.6,3.6,0,0,0,3.8-3.4A3.67,3.67,0,0,0,12.61,7.06Zm0,1.8a1.66,1.66,0,0,1,1.7,1.5,1.59,1.59,0,0,1-1.7,1.5,1.66,1.66,0,0,1-1.7-1.5C10.81,9.56,11.61,8.86,12.61,8.86Z"/><path class="cls-5" d="M12.61,7.46a3.15,3.15,0,0,0-3.3,3,3.21,3.21,0,0,0,3.3,3,3.15,3.15,0,0,0,3.3-3A3.15,3.15,0,0,0,12.61,7.46Zm0,1.6a1.4,1.4,0,1,1-1.5,1.4C11,9.66,11.71,9.06,12.61,9.06Z"/><circle class="cls-6" cx="14.71" cy="9.66" r="0.3"/><circle class="cls-7" cx="14.71" cy="9.66" r="0.2"/><path class="cls-8" d="M13.31,8.36a.28.28,0,1,0,.4,0A.3.3,0,0,0,13.31,8.36Z"/><path class="cls-7" d="M13.31,8.46a.21.21,0,1,0,.3,0A.19.19,0,0,0,13.31,8.46Z"/><circle class="cls-9" cx="11.71" cy="8.56" r="0.3"/><circle class="cls-7" cx="11.71" cy="8.56" r="0.2"/><path class="cls-10" d="M10.31,9.76a.28.28,0,1,0,0-.4C10.21,9.56,10.21,9.66,10.31,9.76Z"/><path class="cls-7" d="M10.31,9.76a.21.21,0,1,0,0-.3A.19.19,0,0,0,10.31,9.76Z"/><path class="cls-11" d="M10.51,11.46a.27.27,0,0,0,.3-.3.32.32,0,0,0-.3-.3.3.3,0,0,0,0,.6Z"/><path class="cls-7" d="M10.51,11.36a.2.2,0,1,0-.2-.2C10.31,11.26,10.31,11.36,10.51,11.36Z"/><path class="cls-12" d="M11.91,12.46a.28.28,0,1,0-.4,0A.3.3,0,0,0,11.91,12.46Z"/><path class="cls-7" d="M11.81,12.46a.21.21,0,1,0-.3,0A.19.19,0,0,0,11.81,12.46Z"/><circle class="cls-13" cx="13.41" cy="12.26" r="0.3"/><circle class="cls-7" cx="13.41" cy="12.26" r="0.2"/><path class="cls-14" d="M14.81,11.06a.28.28,0,1,0,0,.4A.3.3,0,0,0,14.81,11.06Z"/><path class="cls-7" d="M14.81,11.06a.21.21,0,1,0,0,.3A.19.19,0,0,0,14.81,11.06Z"/></svg>