<svg id="neckt" xmlns="http://www.w3.org/2000/svg" viewBox="0 0 425.2 425.2">
    <g id="neckt" data-name="Layer 2">
        <path id="neckt" d="M234.19,59.48s28.3-14.4,34.06-4.8v4.8s4.79.48,0,11.51c0,0-28.31,61.88-55.65,61.88C182.38,132.87,157,71,157,71c-4.8-11,0-11.51,0-11.51v-4.8c5.76-9.6,34.06,4.8,34.06,4.8" style="fill:#fff;stroke:#231f20;stroke-miterlimit:10" />
        <rect x="208.85" y="126.38" width="7.5" height="6.49" style="fill:none" />
        <rect x="212.33" y="126.86" width="0.75" height="1.21" style="fill:#231f20" />
        <rect x="212.33" y="129.02" width="0.75" height="1.21" style="fill:#231f20" />
        <rect x="212.33" y="131.17" width="0.75" height="1.21" style="fill:#231f20" />
        <rect x="208.85" y="119.88" width="7.5" height="6.49" style="fill:none" />
        <rect x="212.33" y="120.36" width="0.75" height="1.21" style="fill:#231f20" />
        <rect x="212.33" y="122.52" width="0.75" height="1.21" style="fill:#231f20" />
        <rect x="212.33" y="124.68" width="0.75" height="1.21" style="fill:#231f20" />
        <rect x="208.85" y="113.39" width="7.5" height="6.49" style="fill:none" />
        <rect x="212.33" y="113.87" width="0.75" height="1.21" style="fill:#231f20" />
        <rect x="212.33" y="116.03" width="0.75" height="1.21" style="fill:#231f20" />
        <rect x="212.33" y="118.19" width="0.75" height="1.21" style="fill:#231f20" />
        <rect x="208.85" y="106.89" width="7.5" height="6.49" style="fill:none" />
        <rect x="212.33" y="107.37" width="0.75" height="1.21" style="fill:#231f20" />
        <rect x="212.33" y="109.54" width="0.75" height="1.21" style="fill:#231f20" />
        <rect x="212.33" y="111.69" width="0.75" height="1.21" style="fill:#231f20" />
        <rect x="208.85" y="100.4" width="7.5" height="6.49" style="fill:none" />
        <rect x="212.33" y="100.88" width="0.75" height="1.21" style="fill:#231f20" />
        <rect x="212.33" y="103.04" width="0.75" height="1.21" style="fill:#231f20" />
        <rect x="212.33" y="105.2" width="0.75" height="1.21" style="fill:#231f20" />
        <rect x="208.85" y="93.91" width="7.5" height="6.49" style="fill:none" />
        <rect x="212.33" y="94.39" width="0.75" height="1.21" style="fill:#231f20" />
        <rect x="212.33" y="96.55" width="0.75" height="1.21" style="fill:#231f20" />
        <rect x="212.33" y="98.7" width="0.75" height="1.21" style="fill:#231f20" />
        <rect x="208.85" y="87.41" width="7.5" height="6.49" style="fill:none" />
        <rect x="212.33" y="87.89" width="0.75" height="1.21" style="fill:#231f20" />
        <rect x="212.33" y="90.05" width="0.75" height="1.21" style="fill:#231f20" />
        <rect x="212.33" y="92.21" width="0.75" height="1.21" style="fill:#231f20" />
        <rect x="208.85" y="80.92" width="7.5" height="6.49" style="fill:none" />
        <rect x="212.33" y="81.4" width="0.75" height="1.21" style="fill:#231f20" />
        <rect x="212.33" y="83.56" width="0.75" height="1.21" style="fill:#231f20" />
        <rect x="212.33" y="85.71" width="0.75" height="1.21" style="fill:#231f20" />
        <rect x="208.85" y="74.42" width="7.5" height="6.49" style="fill:none" />
        <rect x="212.33" y="74.9" width="0.75" height="1.21" style="fill:#231f20" />
        <rect x="212.33" y="77.07" width="0.75" height="1.21" style="fill:#231f20" />
        <rect x="212.33" y="79.22" width="0.75" height="1.21" style="fill:#231f20" />
        <rect x="208.85" y="67.93" width="7.5" height="6.49" style="fill:none" />
        <rect x="212.33" y="68.41" width="0.75" height="1.21" style="fill:#231f20" />
        <rect x="212.33" y="70.57" width="0.75" height="1.21" style="fill:#231f20" />
        <rect x="212.33" y="72.73" width="0.75" height="1.21" style="fill:#231f20" />
        <rect x="208.85" y="61.44" width="7.5" height="6.49" style="fill:none" />
        <rect x="212.33" y="61.92" width="0.75" height="1.21" style="fill:#231f20" />
        <rect x="212.33" y="64.08" width="0.75" height="1.21" style="fill:#231f20" />
        <rect x="212.33" y="66.23" width="0.75" height="1.21" style="fill:#231f20" />
        <path d="M154.23,62.05a5.92,5.92,0,0,0,.68.61,5.55,5.55,0,0,0,.5.38c.31.21.64.45.93.61l.89.52.87.44c.58.3,1.15.54,1.73.78s1.15.49,1.72.68l2.59-7c-.49-.16-.94-.35-1.39-.54a13.25,13.25,0,0,1-1.31-.6l-.63-.31-.54-.32a4.49,4.49,0,0,1-.48-.31l-.17-.12s-.12-.11,0,.07Z" style="fill:none" />
        <path d="M161.33,61.67l-.29.69c.39.16.77.34,1.16.48l.27-.7C162.08,62,161.71,61.82,161.33,61.67Z" style="fill:#231f20;fill-rule:evenodd" />
        <polygon points="159.34 60.74 158.99 61.4 160.12 61.97 160.44 61.29 159.34 60.74" style="fill:#231f20;fill-rule:evenodd" />
        <path d="M157.5,59.59l-.46.59a10.65,10.65,0,0,0,1.07.73l.39-.65A8.3,8.3,0,0,1,157.5,59.59Z" style="fill:#231f20;fill-rule:evenodd" />
        <path d="M161.55,66.07l1.71.6,1.71.51c1.14.36,2.28.61,3.42.89l1.72-7.29c-1-.26-2.06-.48-3-.8l-1.5-.44L164.14,59Z" style="fill:none" />
        <polygon points="167.63 63.76 167.44 64.48 168.66 64.78 168.83 64.05 167.63 63.76" style="fill:#231f20;fill-rule:evenodd" />
        <polygon points="165.5 63.15 165.29 63.87 166.49 64.22 166.69 63.5 165.5 63.15" style="fill:#231f20;fill-rule:evenodd" />
        <polygon points="163.41 62.47 163.16 63.17 164.34 63.59 164.57 62.88 163.41 62.47" style="fill:#231f20;fill-rule:evenodd" />
        <path d="M168.39,68.07c1.14.3,2.27.51,3.41.73s2.28.44,3.41.6L176.4,62c-1.07-.15-2.12-.35-3.17-.56s-2.1-.4-3.12-.66Z" style="fill:none" />
        <path d="M174.14,65.16l-.13.74c.41.08.82.13,1.23.2l.12-.74C175,65.29,174.54,65.25,174.14,65.16Z" style="fill:#231f20;fill-rule:evenodd" />
        <polygon points="171.96 64.74 171.81 65.47 173.04 65.71 173.18 64.98 171.96 64.74" style="fill:#231f20;fill-rule:evenodd" />
        <path d="M169.8,64.28l-.17.73c.41.1.81.2,1.22.28l.16-.74C170.6,64.48,170.2,64.38,169.8,64.28Z" style="fill:#231f20;fill-rule:evenodd" />
        <polygon points="175.21 69.4 178.62 69.91 182.02 70.3 182.83 62.85 179.6 62.48 176.4 62 175.21 69.4" style="fill:none" />
        <polygon points="180.74 66.11 180.65 66.86 181.88 67 181.97 66.25 180.74 66.11" style="fill:#231f20;fill-rule:evenodd" />
        <path d="M178.53,65.85l-.1.74c.41.07.82.1,1.24.15l.09-.74C179.35,66,178.94,65.92,178.53,65.85Z" style="fill:#231f20;fill-rule:evenodd" />
        <polygon points="176.35 65.51 176.23 66.25 177.46 66.44 177.57 65.7 176.35 65.51" style="fill:#231f20;fill-rule:evenodd" />
        <path d="M182,70.3c2.28.3,4.54.4,6.8.6l.52-7.48c-2.17-.2-4.36-.29-6.51-.57Z" style="fill:none" />
        <polygon points="187.38 66.76 187.32 67.51 188.56 67.61 188.61 66.86 187.38 66.76" style="fill:#231f20;fill-rule:evenodd" />
        <polygon points="185.16 66.58 185.09 67.33 186.33 67.43 186.4 66.68 185.16 66.58" style="fill:#231f20;fill-rule:evenodd" />
        <polygon points="182.96 66.37 182.88 67.11 184.12 67.25 184.19 66.5 182.96 66.37" style="fill:#231f20;fill-rule:evenodd" />
        <path d="M188.82,70.9c2.27.17,4.53.24,6.79.36l.28-7.5c-2.18-.11-4.37-.18-6.55-.34Z" style="fill:none" />
        <polygon points="194.03 67.16 194 67.91 195.24 67.97 195.27 67.22 194.03 67.16" style="fill:#231f20;fill-rule:evenodd" />
        <polygon points="191.81 67.06 191.77 67.8 193.01 67.86 193.05 67.11 191.81 67.06" style="fill:#231f20;fill-rule:evenodd" />
        <path d="M189.6,66.94l0,.74c.41,0,.82.06,1.24.08l0-.75Z" style="fill:#231f20;fill-rule:evenodd" />
        <path d="M195.61,71.26c2.26.1,4.52.1,6.78.15l.09-7.5c-2.2,0-4.4,0-6.59-.15Z" style="fill:none" />
        <rect x="200.94" y="67.13" width="0.75" height="1.24" transform="matrix(0.02, -1, 1, 0.02, 129.87, 267.79)" style="fill:#231f20" />
        <polygon points="198.48 67.32 198.46 68.07 199.71 68.1 199.72 67.35 198.48 67.32" style="fill:#231f20;fill-rule:evenodd" />
        <path d="M196.27,67.27l0,.75,1.24,0,0-.74Z" style="fill:#231f20;fill-rule:evenodd" />
        <path d="M202.39,71.41c2.26.07,4.51,0,6.76,0l-.07-7.5c-2.2,0-4.41.08-6.6,0Z" style="fill:none" />
        <rect x="207.38" y="67.4" width="1.24" height="0.75" transform="translate(-0.3 0.91) rotate(-0.25)" style="fill:#231f20" />
        <polygon points="205.16 67.42 205.16 68.17 206.4 68.16 206.4 67.41 205.16 67.42" style="fill:#231f20;fill-rule:evenodd" />
        <polygon points="202.94 67.41 202.93 68.16 204.18 68.18 204.18 67.43 202.94 67.41" style="fill:#231f20;fill-rule:evenodd" />
        <polygon points="209.15 71.41 212.53 71.38 215.9 71.28 215.69 63.79 212.38 63.88 209.08 63.91 209.15 71.41" style="fill:none" />
        <polygon points="214.05 67.32 214.07 68.07 215.31 68.03 215.29 67.28 214.05 67.32" style="fill:#231f20;fill-rule:evenodd" />
        <polygon points="211.83 67.37 211.84 68.12 213.09 68.1 213.07 67.35 211.83 67.37" style="fill:#231f20;fill-rule:evenodd" />
        <polygon points="209.62 67.39 209.63 68.14 210.87 68.13 210.86 67.38 209.62 67.39" style="fill:#231f20;fill-rule:evenodd" />
        <path d="M215.9,71.28c2.24-.08,4.49-.1,6.73-.23l-.32-7.49c-2.2.13-4.42.15-6.62.23Z" style="fill:none" />
        <polygon points="220.73 67.12 220.76 67.87 222 67.81 221.97 67.06 220.73 67.12" style="fill:#231f20;fill-rule:evenodd" />
        <polygon points="218.51 67.19 218.53 67.94 219.77 67.9 219.75 67.15 218.51 67.19" style="fill:#231f20;fill-rule:evenodd" />
        <rect x="216.3" y="67.24" width="1.24" height="0.75" transform="translate(-1.87 6.31) rotate(-1.66)" style="fill:#231f20" />
        <polygon points="222.63 71.05 229.38 70.7 228.91 63.22 222.31 63.56 222.63 71.05" style="fill:none" />
        <polygon points="227.4 66.79 227.44 67.54 228.68 67.48 228.63 66.73 227.4 66.79" style="fill:#231f20;fill-rule:evenodd" />
        <polygon points="225.18 66.91 225.22 67.65 226.46 67.59 226.41 66.84 225.18 66.91" style="fill:#231f20;fill-rule:evenodd" />
        <polygon points="222.96 67.02 223 67.76 224.24 67.7 224.2 66.95 222.96 67.02" style="fill:#231f20;fill-rule:evenodd" />
        <polygon points="229.38 70.7 236.13 70.2 235.48 62.73 228.91 63.22 229.38 70.7" style="fill:none" />
        <polygon points="234.06 66.34 234.12 67.08 235.35 66.99 235.29 66.25 234.06 66.34" style="fill:#231f20;fill-rule:evenodd" />
        <rect x="231.86" y="66.45" width="1.24" height="0.75" transform="translate(-4.22 16.98) rotate(-4.15)" style="fill:#231f20" />
        <polygon points="229.63 66.66 229.68 67.41 230.92 67.31 230.87 66.57 229.63 66.66" style="fill:#231f20;fill-rule:evenodd" />
        <path d="M236.13,70.2c2.25-.23,4.5-.4,6.75-.69L242,62.07c-2.17.27-4.36.43-6.54.66Z" style="fill:none" />
        <path d="M240.7,65.73l.08.74c.41,0,.82-.09,1.24-.14l-.09-.74Z" style="fill:#231f20;fill-rule:evenodd" />
        <polygon points="238.49 65.94 238.56 66.69 239.8 66.57 239.72 65.82 238.49 65.94" style="fill:#231f20;fill-rule:evenodd" />
        <polygon points="236.28 66.15 236.35 66.9 237.59 66.78 237.52 66.03 236.28 66.15" style="fill:#231f20;fill-rule:evenodd" />
        <path d="M242.88,69.51c2.26-.26,4.51-.54,6.77-.9L248.5,61.2c-2.14.34-4.31.61-6.48.87Z" style="fill:none" />
        <rect x="247.37" y="64.8" width="1.24" height="0.75" transform="translate(-6.75 35.91) rotate(-8.17)" style="fill:#231f20" />
        <polygon points="245.12 65.2 245.22 65.94 246.45 65.79 246.35 65.04 245.12 65.2" style="fill:#231f20;fill-rule:evenodd" />
        <polygon points="242.92 65.46 243.01 66.21 244.25 66.06 244.15 65.31 242.92 65.46" style="fill:#231f20;fill-rule:evenodd" />
        <path d="M249.65,68.61c1.12-.17,2.25-.35,3.38-.57s2.26-.38,3.39-.65l-1.55-7.34c-1,.25-2.11.41-3.17.61s-2.13.38-3.2.54Z" style="fill:none" />
        <path d="M253.9,63.8l.14.74c.41-.08.82-.14,1.22-.24l-.15-.73C254.71,63.66,254.3,63.73,253.9,63.8Z" style="fill:#231f20;fill-rule:evenodd" />
        <polygon points="251.71 64.2 251.84 64.94 253.07 64.72 252.93 63.98 251.71 64.2" style="fill:#231f20;fill-rule:evenodd" />
        <polygon points="249.53 64.56 249.65 65.3 250.88 65.12 250.75 64.38 249.53 64.56" style="fill:#231f20;fill-rule:evenodd" />
        <path d="M256.42,67.39c2.26-.49,4.53-1,6.81-1.73L261,58.5c-2,.62-4.05,1.1-6.14,1.55Z" style="fill:none" />
        <path d="M260.39,62.31l.2.73c.4-.1.8-.24,1.2-.35l-.22-.72C261.18,62.08,260.79,62.22,260.39,62.31Z" style="fill:#231f20;fill-rule:evenodd" />
        <polygon points="258.24 62.87 258.42 63.6 259.63 63.29 259.44 62.56 258.24 62.87" style="fill:#231f20;fill-rule:evenodd" />
        <polygon points="256.08 63.35 256.24 64.08 257.46 63.82 257.29 63.09 256.08 63.35" style="fill:#231f20;fill-rule:evenodd" />
        <path d="M263.23,65.66c1.14-.33,2.28-.74,3.45-1.2.58-.24,1.17-.48,1.78-.79.29-.13.62-.31.94-.49s.31-.17.52-.31a7,7,0,0,0,.73-.51l-4.8-5.76c.2-.17,0-.06,0-.05l-.2.12c-.16.09-.32.18-.54.28-.38.19-.82.38-1.27.56-.91.35-1.86.7-2.86,1Z" style="fill:none" />
        <path d="M266.63,60.1l.33.67a11.28,11.28,0,0,0,1.13-.61l-.39-.63C267.35,59.73,267,59.93,266.63,60.1Z" style="fill:#231f20;fill-rule:evenodd" />
        <polygon points="264.61 60.96 264.87 61.66 266.04 61.19 265.74 60.5 264.61 60.96" style="fill:#231f20;fill-rule:evenodd" />
        <path d="M262.52,61.68l.23.71c.4-.11.8-.26,1.19-.39l-.25-.71C263.3,61.42,262.92,61.57,262.52,61.68Z" style="fill:#231f20;fill-rule:evenodd" />
        <path d="M234.19,87.3a62.72,62.72,0,0,1-8,4.93c-2.77,1.47-5.64,2.76-8.54,4s-5.87,2.25-8.88,3.14c-1.49.48-3,.87-4.52,1.3s-3,.73-4.58,1c3-1,5.93-2,8.86-3.08s5.85-2.17,8.74-3.34,5.74-2.43,8.58-3.73q2.13-1,4.21-2.05C231.44,88.81,232.82,88.07,234.19,87.3Z" style="fill:#231f20" />
        <path d="M165.81,89.14a68.5,68.5,0,0,1,5.59,4.15c1.82,1.44,3.57,3,5.32,4.49s3.44,3.1,5.1,4.71l2.49,2.44c.8.84,1.62,1.65,2.4,2.52-1.85-1.41-3.63-2.89-5.4-4.38s-3.52-3-5.26-4.55-3.45-3.07-5.15-4.65l-2.55-2.35Z" style="fill:#231f20" />
        <path d="M254.13,96.65c-1.46,1.54-3,3-4.6,4.38s-3.2,2.76-4.85,4.08-3.35,2.59-5.1,3.78a61.22,61.22,0,0,1-5.39,3.35c.8-.68,1.65-1.31,2.46-2l2.47-2,4.94-3.94c1.66-1.3,3.3-2.62,5-3.89l2.52-1.92C252.42,97.91,253.26,97.26,254.13,96.65Z" style="fill:#231f20" />
        <path d="M263.8,51.72s9.72,8.72-51.2,8.72h-1c-60.93,0-50.21-8.72-50.21-8.72" style="fill:none;stroke:#231f20;stroke-miterlimit:10" />
    </g>
</svg>