<svg id="neckf" xmlns="http://www.w3.org/2000/svg" xmlns:xlink="http://www.w3.org/1999/xlink" viewBox="0 0 425.2 425.2">
    <defs id="neckf">
        <radialGradient id="radial-gradient" cx="1774.19" cy="1738.8" r="1.62" gradientTransform="matrix(0, -0.91, -1, 0, 1951.48, 1730.39)" gradientUnits="userSpaceOnUse">
            <stop offset="0.55" stop-color="#fff" />
            <stop offset="0.61" stop-color="#fafaf9" />
            <stop offset="0.68" stop-color="#ebeae9" />
            <stop offset="0.77" stop-color="#d1d1cf" />
            <stop offset="0.86" stop-color="#afaeaa" />
            <stop offset="0.95" stop-color="#82817c" />
            <stop offset="1" stop-color="#686660" />
        </radialGradient>
        <radialGradient id="radial-gradient-2" cx="1773.92" cy="1738.4" r="2.75" gradientTransform="matrix(0, -0.91, -1, 0, 1951.48, 1730.39)" gradientUnits="userSpaceOnUse">
            <stop offset="0.63" stop-color="#362e23" />
            <stop offset="1" stop-color="#e9cd8a" />
        </radialGradient>
        <radialGradient id="radial-gradient-3" cx="1773.92" cy="1738.4" r="4.17" gradientTransform="matrix(0, -0.91, -1, 0, 1951.48, 1730.39)" gradientUnits="userSpaceOnUse">
            <stop offset="0.68" stop-color="#777266" />
            <stop offset="0.9" stop-color="#fcfdfb" />
            <stop offset="1" stop-color="#181915" />
        </radialGradient>
        <radialGradient id="radial-gradient-4" cx="1773.92" cy="1738.4" r="3.75" xlink:href="#radial-gradient-3" />
        <radialGradient id="radial-gradient-5" cx="1773.92" cy="1738.4" r="3.31" xlink:href="#radial-gradient-3" />
        <radialGradient id="radial-gradient-6" cx="1774.75" cy="1736.3" r="0.28" xlink:href="#radial-gradient-3" />
        <radialGradient id="radial-gradient-7" cx="3619.81" cy="1490.93" r="0.29" gradientTransform="matrix(-0.71, -0.64, -0.71, 0.64, 3827.78, 1484.64)" xlink:href="#radial-gradient-3" />
        <radialGradient id="radial-gradient-8" cx="4750.93" cy="12.63" r="0.28" gradientTransform="matrix(-1, 0, 0, 0.91, 4963.17, 106.83)" xlink:href="#radial-gradient-3" />
        <radialGradient id="radial-gradient-9" cx="4506.17" cy="-1832.07" r="0.28" gradientTransform="matrix(-0.71, 0.64, 0.71, 0.64, 4692.78, -1596.85)" xlink:href="#radial-gradient-3" />
        <radialGradient id="radial-gradient-10" cx="3027.24" cy="-2963.97" r="0.28" gradientTransform="matrix(0, 0.91, 1, 0, 3174.95, -2626.87)" xlink:href="#radial-gradient-3" />
        <radialGradient id="radial-gradient-11" cx="1181.88" cy="-2718.39" r="0.28" gradientTransform="matrix(0.71, 0.64, 0.71, -0.64, 1298.65, -2381.12)" xlink:href="#radial-gradient-3" />
        <radialGradient id="radial-gradient-12" cx="50.66" cy="-1239.86" r="0.28" gradientTransform="matrix(1, 0, 0, -0.91, 163.25, -1003.31)" xlink:href="#radial-gradient-3" />
        <radialGradient id="radial-gradient-13" cx="296.85" cy="605.84" r="0.28" gradientTransform="matrix(0.71, -0.64, -0.71, -0.64, 433.65, 700.36)" xlink:href="#radial-gradient-3" />
        <radialGradient id="radial-gradient-14" cx="1728.16" cy="1738.04" r="1.62" xlink:href="#radial-gradient" />
        <radialGradient id="radial-gradient-15" cx="1727.89" cy="1737.64" r="2.75" xlink:href="#radial-gradient-2" />
        <radialGradient id="radial-gradient-16" cx="1727.89" cy="1737.64" r="4.17" xlink:href="#radial-gradient-3" />
        <radialGradient id="radial-gradient-17" cx="1727.89" cy="1737.64" r="3.75" xlink:href="#radial-gradient-3" />
        <radialGradient id="radial-gradient-18" cx="1727.89" cy="1737.64" r="3.31" xlink:href="#radial-gradient-3" />
        <radialGradient id="radial-gradient-19" cx="1728.72" cy="1735.54" r="0.28" xlink:href="#radial-gradient-3" />
        <radialGradient id="radial-gradient-20" cx="3586.72" cy="1522.94" r="0.28" gradientTransform="matrix(-0.71, -0.64, -0.71, 0.64, 3827.78, 1484.64)" xlink:href="#radial-gradient-3" />
        <radialGradient id="radial-gradient-21" cx="4750.17" cy="58.66" r="0.28" gradientTransform="matrix(-1, 0, 0, 0.91, 4963.17, 106.83)" xlink:href="#radial-gradient-3" />
        <radialGradient id="radial-gradient-22" cx="4538.18" cy="-1798.99" r="0.28" gradientTransform="matrix(-0.71, 0.64, 0.71, 0.64, 4692.78, -1596.85)" xlink:href="#radial-gradient-3" />
        <radialGradient id="radial-gradient-23" cx="3073.28" cy="-2963.21" r="0.28" gradientTransform="matrix(0, 0.91, 1, 0, 3174.95, -2626.87)" xlink:href="#radial-gradient-3" />
        <radialGradient id="radial-gradient-24" cx="1214.97" cy="-2750.41" r="0.28" gradientTransform="matrix(0.71, 0.64, 0.71, -0.64, 1298.65, -2381.12)" xlink:href="#radial-gradient-3" />
        <radialGradient id="radial-gradient-25" cx="51.42" cy="-1285.89" r="0.28" gradientTransform="matrix(1, 0, 0, -0.91, 163.25, -1003.31)" xlink:href="#radial-gradient-3" />
        <radialGradient id="radial-gradient-26" cx="264.83" cy="572.76" r="0.28" gradientTransform="matrix(0.71, -0.64, -0.71, -0.64, 433.65, 700.36)" xlink:href="#radial-gradient-3" />
        <radialGradient id="radial-gradient-27" cx="1681.27" cy="1738.87" r="1.62" xlink:href="#radial-gradient" />
        <radialGradient id="radial-gradient-28" cx="1681" cy="1738.46" r="2.75" xlink:href="#radial-gradient-2" />
        <radialGradient id="radial-gradient-29" cx="1681" cy="1738.46" r="4.17" xlink:href="#radial-gradient-3" />
        <radialGradient id="radial-gradient-30" cx="1681" cy="1738.46" r="3.75" xlink:href="#radial-gradient-3" />
        <radialGradient id="radial-gradient-31" cx="1681" cy="1738.46" r="3.31" xlink:href="#radial-gradient-3" />
        <radialGradient id="radial-gradient-32" cx="1681.83" cy="1736.36" r="0.28" xlink:href="#radial-gradient-3" />
        <radialGradient id="radial-gradient-33" cx="3554.14" cy="1556.68" r="0.28" gradientTransform="matrix(-0.71, -0.64, -0.71, 0.64, 3827.78, 1484.64)" xlink:href="#radial-gradient-3" />
        <radialGradient id="radial-gradient-34" cx="4750.99" cy="105.55" r="0.28" gradientTransform="matrix(-1, 0, 0, 0.91, 4963.17, 106.83)" xlink:href="#radial-gradient-3" />
        <radialGradient id="radial-gradient-35" cx="4571.92" cy="-1766.41" r="0.28" gradientTransform="matrix(-0.71, 0.64, 0.71, 0.64, 4692.78, -1596.85)" xlink:href="#radial-gradient-3" />
        <radialGradient id="radial-gradient-36" cx="3120.17" cy="-2964.03" r="0.28" gradientTransform="matrix(0, 0.91, 1, 0, 3174.95, -2626.87)" xlink:href="#radial-gradient-3" />
        <radialGradient id="radial-gradient-37" cx="1247.55" cy="-2784.15" r="0.28" gradientTransform="matrix(0.71, 0.64, 0.71, -0.64, 1298.65, -2381.12)" xlink:href="#radial-gradient-3" />
        <radialGradient id="radial-gradient-38" cx="50.59" cy="-1332.78" r="0.28" gradientTransform="matrix(1, 0, 0, -0.91, 163.25, -1003.31)" xlink:href="#radial-gradient-3" />
        <radialGradient id="radial-gradient-39" cx="231.09" cy="540.18" r="0.28" gradientTransform="matrix(0.71, -0.64, -0.71, -0.64, 433.65, 700.36)" xlink:href="#radial-gradient-3" />
        <radialGradient id="radial-gradient-40" cx="1631.06" cy="1739.18" r="1.62" xlink:href="#radial-gradient" />
        <radialGradient id="radial-gradient-41" cx="1630.79" cy="1738.77" r="2.75" xlink:href="#radial-gradient-2" />
        <radialGradient id="radial-gradient-42" cx="1630.79" cy="1738.77" r="4.17" xlink:href="#radial-gradient-3" />
        <radialGradient id="radial-gradient-43" cx="1630.79" cy="1738.77" r="3.75" xlink:href="#radial-gradient-3" />
        <radialGradient id="radial-gradient-44" cx="1630.79" cy="1738.77" r="3.31" xlink:href="#radial-gradient-3" />
        <radialGradient id="radial-gradient-45" cx="1631.62" cy="1736.67" r="0.28" xlink:href="#radial-gradient-3" />
        <radialGradient id="radial-gradient-46" cx="3518.86" cy="1592.41" r="0.28" gradientTransform="matrix(-0.71, -0.64, -0.71, 0.64, 3827.78, 1484.64)" xlink:href="#radial-gradient-3" />
        <radialGradient id="radial-gradient-47" cx="4751.3" cy="155.76" r="0.28" gradientTransform="matrix(-1, 0, 0, 0.91, 4963.17, 106.83)" xlink:href="#radial-gradient-3" />
        <radialGradient id="radial-gradient-48" cx="4607.65" cy="-1731.12" r="0.28" gradientTransform="matrix(-0.71, 0.64, 0.71, 0.64, 4692.78, -1596.85)" xlink:href="#radial-gradient-3" />
        <radialGradient id="radial-gradient-49" cx="3170.38" cy="-2964.34" r="0.28" gradientTransform="matrix(0, 0.91, 1, 0, 3174.95, -2626.87)" xlink:href="#radial-gradient-3" />
        <radialGradient id="radial-gradient-50" cx="1282.84" cy="-2819.87" r="0.28" gradientTransform="matrix(0.71, 0.64, 0.71, -0.64, 1298.65, -2381.12)" xlink:href="#radial-gradient-3" />
        <radialGradient id="radial-gradient-51" cx="50.29" cy="-1382.99" r="0.28" gradientTransform="matrix(1, 0, 0, -0.91, 163.25, -1003.31)" xlink:href="#radial-gradient-3" />
        <radialGradient id="radial-gradient-52" cx="195.37" cy="504.89" r="0.28" gradientTransform="matrix(0.71, -0.64, -0.71, -0.64, 433.65, 700.36)" xlink:href="#radial-gradient-3" />
        <radialGradient id="radial-gradient-53" cx="1816.6" cy="1738.24" r="1.62" xlink:href="#radial-gradient" />
        <radialGradient id="radial-gradient-54" cx="1816.32" cy="1737.84" r="2.75" xlink:href="#radial-gradient-2" />
        <radialGradient id="radial-gradient-55" cx="1816.32" cy="1737.84" r="4.17" xlink:href="#radial-gradient-3" />
        <radialGradient id="radial-gradient-56" cx="1816.32" cy="1737.84" r="3.75" xlink:href="#radial-gradient-3" />
        <radialGradient id="radial-gradient-57" cx="1816.32" cy="1737.84" r="3.31" xlink:href="#radial-gradient-3" />
        <radialGradient id="radial-gradient-58" cx="1817.15" cy="1735.74" r="0.28" xlink:href="#radial-gradient-3" />
        <radialGradient id="radial-gradient-59" cx="3649.39" cy="1460.55" r="0.29" gradientTransform="matrix(-0.71, -0.64, -0.71, 0.64, 3827.78, 1484.64)" xlink:href="#radial-gradient-3" />
        <radialGradient id="radial-gradient-60" cx="4750.37" cy="-29.77" r="0.28" gradientTransform="matrix(-1, 0, 0, 0.91, 4963.17, 106.83)" xlink:href="#radial-gradient-3" />
        <radialGradient id="radial-gradient-61" cx="4475.79" cy="-1861.66" r="0.28" gradientTransform="matrix(-0.71, 0.64, 0.71, 0.64, 4692.78, -1596.85)" xlink:href="#radial-gradient-3" />
        <radialGradient id="radial-gradient-62" cx="2984.84" cy="-2963.41" r="0.28" gradientTransform="matrix(0, 0.91, 1, 0, 3174.95, -2626.87)" xlink:href="#radial-gradient-3" />
        <radialGradient id="radial-gradient-63" cx="1152.3" cy="-2688.01" r="0.28" gradientTransform="matrix(0.71, 0.64, 0.71, -0.64, 1298.65, -2381.12)" xlink:href="#radial-gradient-3" />
        <radialGradient id="radial-gradient-64" cx="51.22" cy="-1197.45" r="0.28" gradientTransform="matrix(1, 0, 0, -0.91, 163.25, -1003.31)" xlink:href="#radial-gradient-3" />
        <radialGradient id="radial-gradient-65" cx="327.23" cy="635.43" r="0.28" gradientTransform="matrix(0.71, -0.64, -0.71, -0.64, 433.65, 700.36)" xlink:href="#radial-gradient-3" />
    </defs>
    <g id="neckf" data-name="Layer 2">
        <path id="neckf" d="M239.82,38.62H185.38c-.74,16.14,18.74,30.2,18.74,30.2s.89-1.54,4.86,2.26l7.82-.2s.41-3.41,4.28-2.62C221.08,68.26,238.85,58.59,239.82,38.62Z" style="fill:#ccc;stroke:#231f20;stroke-miterlimit:10" />
        <path d="M169.18,58.57S174.8,79.74,184.48,90l19.81-21.2s-19.81-14.48-18.91-30.2H182.9S177.28,56.16,169.18,58.57Z" style="fill:#fff;stroke:#231f20;stroke-miterlimit:10" />
        <path d="M256,58.57S250.39,79.74,240.72,90L220.9,68.82s19.82-14.48,18.92-30.2h2.47S247.92,56.16,256,58.57Z" style="fill:#fff;stroke:#231f20;stroke-miterlimit:10" />
        <line x1="189.74" y1="52.45" x2="236.09" y2="52.72" style="fill:none;stroke:#231f20;stroke-miterlimit:10" />
        <polyline points="203.38 70.37 203.02 259.02 222.8 258.97 222.46 70.37 203.02 70.37" style="fill:#fff;stroke:#231f20;stroke-miterlimit:10" />
        <rect x="203.5" y="69.58" width="7.5" height="5.9" transform="translate(131.05 278.46) rotate(-88.98)" style="fill:none" />
        <rect x="208.84" y="72.12" width="0.75" height="1.09" transform="translate(132.81 280.55) rotate(-88.97)" style="fill:#231f20" />
        <rect x="206.88" y="72.09" width="0.75" height="1.09" transform="translate(130.92 278.56) rotate(-88.97)" style="fill:#231f20" />
        <rect x="204.92" y="72.05" width="0.75" height="1.09" transform="translate(129.1 276.59) rotate(-88.99)" style="fill:#231f20" />
        <rect x="209.4" y="69.68" width="7.5" height="5.9" transform="translate(136.74 284.46) rotate(-88.98)" style="fill:none" />
        <rect x="214.74" y="72.23" width="0.75" height="1.09" transform="translate(138.5 286.55) rotate(-88.97)" style="fill:#231f20" />
        <rect x="212.78" y="72.19" width="0.75" height="1.09" transform="translate(136.67 284.58) rotate(-88.99)" style="fill:#231f20" />
        <rect x="210.82" y="72.16" width="0.75" height="1.09" transform="translate(134.79 282.59) rotate(-88.99)" style="fill:#231f20" />
        <rect x="216.05" y="76.41" width="7.5" height="6.75" transform="translate(-0.54 1.51) rotate(-0.39)" style="fill:none" />
        <rect x="219.33" y="81.41" width="0.75" height="1.25" transform="translate(-0.56 1.5) rotate(-0.39)" style="fill:#231f20" />
        <rect x="219.32" y="79.16" width="0.75" height="1.25" transform="translate(-0.54 1.5) rotate(-0.39)" style="fill:#231f20" />
        <rect x="219.3" y="76.92" width="0.75" height="1.25" transform="translate(-0.52 1.5) rotate(-0.39)" style="fill:#231f20" />
        <rect x="216.1" y="83.16" width="7.5" height="6.75" transform="translate(-0.59 1.51) rotate(-0.39)" style="fill:none" />
        <rect x="219.38" y="88.16" width="0.75" height="1.25" transform="translate(-0.6 1.5) rotate(-0.39)" style="fill:#231f20" />
        <rect x="219.37" y="85.92" width="0.75" height="1.25" transform="translate(-0.59 1.5) rotate(-0.39)" style="fill:#231f20" />
        <rect x="219.35" y="83.67" width="0.75" height="1.25" transform="translate(-0.57 1.5) rotate(-0.39)" style="fill:#231f20" />
        <rect x="216.15" y="89.92" width="7.5" height="6.75" transform="translate(-0.63 1.5) rotate(-0.39)" style="fill:none" />
        <rect x="219.43" y="94.92" width="0.75" height="1.25" transform="translate(-0.65 1.5) rotate(-0.39)" style="fill:#231f20" />
        <rect x="219.41" y="92.67" width="0.75" height="1.25" transform="translate(-0.63 1.5) rotate(-0.39)" style="fill:#231f20" />
        <rect x="219.4" y="90.43" width="0.75" height="1.25" transform="translate(-0.62 1.5) rotate(-0.39)" style="fill:#231f20" />
        <rect x="216.19" y="96.67" width="7.5" height="6.75" transform="translate(-0.68 1.51) rotate(-0.39)" style="fill:none" />
        <rect x="219.47" y="101.67" width="0.75" height="1.25" transform="translate(-0.69 1.51) rotate(-0.39)" style="fill:#231f20" />
        <rect x="219.46" y="99.42" width="0.75" height="1.25" transform="translate(-0.68 1.51) rotate(-0.39)" style="fill:#231f20" />
        <rect x="219.44" y="97.18" width="0.75" height="1.25" transform="translate(-0.66 1.5) rotate(-0.39)" style="fill:#231f20" />
        <rect x="216.24" y="103.42" width="7.5" height="6.75" transform="translate(-0.73 1.51) rotate(-0.39)" style="fill:none" />
        <rect x="219.52" y="108.43" width="0.75" height="1.25" transform="translate(-0.74 1.51) rotate(-0.39)" style="fill:#231f20" />
        <rect x="219.5" y="106.18" width="0.75" height="1.25" transform="translate(-0.72 1.51) rotate(-0.39)" style="fill:#231f20" />
        <rect x="219.49" y="103.94" width="0.75" height="1.25" transform="translate(-0.71 1.51) rotate(-0.39)" style="fill:#231f20" />
        <rect x="216.29" y="110.18" width="7.5" height="6.75" transform="translate(-0.77 1.51) rotate(-0.39)" style="fill:none" />
        <rect x="219.57" y="115.18" width="0.75" height="1.25" transform="translate(-0.81 1.54) rotate(-0.4)" style="fill:#231f20" />
        <rect x="219.55" y="112.93" width="0.75" height="1.25" transform="translate(-0.79 1.54) rotate(-0.4)" style="fill:#231f20" />
        <rect x="219.54" y="110.69" width="0.75" height="1.25" transform="translate(-0.76 1.51) rotate(-0.39)" style="fill:#231f20" />
        <rect x="216.33" y="116.93" width="7.5" height="6.75" transform="translate(-0.82 1.51) rotate(-0.39)" style="fill:none" />
        <rect x="219.61" y="121.94" width="0.75" height="1.25" transform="translate(-0.83 1.51) rotate(-0.39)" style="fill:#231f20" />
        <rect x="219.6" y="119.69" width="0.75" height="1.25" transform="translate(-0.82 1.51) rotate(-0.39)" style="fill:#231f20" />
        <rect x="219.58" y="117.45" width="0.75" height="1.25" transform="translate(-0.8 1.51) rotate(-0.39)" style="fill:#231f20" />
        <rect x="216.38" y="123.69" width="7.5" height="6.75" transform="translate(-0.87 1.51) rotate(-0.39)" style="fill:none" />
        <rect x="219.66" y="128.69" width="0.75" height="1.25" transform="translate(-0.88 1.51) rotate(-0.39)" style="fill:#231f20" />
        <rect x="219.64" y="126.44" width="0.75" height="1.25" transform="translate(-0.86 1.51) rotate(-0.39)" style="fill:#231f20" />
        <rect x="219.63" y="124.2" width="0.75" height="1.25" transform="translate(-0.87 1.54) rotate(-0.4)" style="fill:#231f20" />
        <rect x="216.42" y="130.44" width="7.5" height="6.75" transform="translate(-0.91 1.51) rotate(-0.39)" style="fill:none" />
        <rect x="219.71" y="135.45" width="0.75" height="1.25" transform="translate(-0.93 1.51) rotate(-0.39)" style="fill:#231f20" />
        <rect x="219.69" y="133.2" width="0.75" height="1.25" transform="translate(-0.91 1.51) rotate(-0.39)" style="fill:#231f20" />
        <rect x="219.67" y="130.96" width="0.75" height="1.25" transform="translate(-0.89 1.51) rotate(-0.39)" style="fill:#231f20" />
        <rect x="216.47" y="137.2" width="7.5" height="6.75" transform="translate(-0.96 1.52) rotate(-0.39)" style="fill:none" />
        <rect x="219.75" y="142.2" width="0.75" height="1.25" transform="translate(-0.97 1.51) rotate(-0.39)" style="fill:#231f20" />
        <rect x="219.74" y="139.95" width="0.75" height="1.25" transform="translate(-0.96 1.51) rotate(-0.39)" style="fill:#231f20" />
        <rect x="219.72" y="137.71" width="0.75" height="1.25" transform="translate(-0.94 1.51) rotate(-0.39)" style="fill:#231f20" />
        <rect x="216.52" y="143.95" width="7.5" height="6.75" transform="translate(-1.01 1.52) rotate(-0.39)" style="fill:none" />
        <rect x="219.8" y="148.95" width="0.75" height="1.25" transform="translate(-1.02 1.51) rotate(-0.39)" style="fill:#231f20" />
        <rect x="219.78" y="146.71" width="0.75" height="1.25" transform="translate(-1 1.51) rotate(-0.39)" style="fill:#231f20" />
        <rect x="219.77" y="144.46" width="0.75" height="1.25" transform="translate(-0.99 1.51) rotate(-0.39)" style="fill:#231f20" />
        <rect x="216.56" y="150.71" width="7.5" height="6.75" transform="translate(-1.05 1.51) rotate(-0.39)" style="fill:none" />
        <rect x="219.84" y="155.71" width="0.75" height="1.25" transform="translate(-1.06 1.51) rotate(-0.39)" style="fill:#231f20" />
        <rect x="219.83" y="153.46" width="0.75" height="1.25" transform="translate(-1.05 1.51) rotate(-0.39)" style="fill:#231f20" />
        <rect x="219.81" y="151.22" width="0.75" height="1.25" transform="translate(-1.03 1.51) rotate(-0.39)" style="fill:#231f20" />
        <rect x="216.61" y="157.46" width="7.5" height="6.75" transform="translate(-1.1 1.52) rotate(-0.39)" style="fill:none" />
        <rect x="219.89" y="162.46" width="0.75" height="1.25" transform="translate(-1.11 1.51) rotate(-0.39)" style="fill:#231f20" />
        <rect x="219.87" y="160.21" width="0.75" height="1.25" transform="translate(-1.09 1.51) rotate(-0.39)" style="fill:#231f20" />
        <rect x="219.86" y="157.97" width="0.75" height="1.25" transform="translate(-1.08 1.51) rotate(-0.39)" style="fill:#231f20" />
        <rect x="216.66" y="164.22" width="7.5" height="6.75" transform="translate(-1.15 1.52) rotate(-0.39)" style="fill:none" />
        <rect x="219.94" y="169.22" width="0.75" height="1.25" transform="translate(-1.16 1.51) rotate(-0.39)" style="fill:#231f20" />
        <rect x="219.92" y="166.97" width="0.75" height="1.25" transform="translate(-1.14 1.51) rotate(-0.39)" style="fill:#231f20" />
        <rect x="219.91" y="164.73" width="0.75" height="1.25" transform="translate(-1.13 1.51) rotate(-0.39)" style="fill:#231f20" />
        <rect x="216.7" y="170.97" width="7.5" height="6.75" transform="translate(-1.19 1.51) rotate(-0.39)" style="fill:none" />
        <rect x="219.98" y="175.97" width="0.75" height="1.25" transform="translate(-1.2 1.51) rotate(-0.39)" style="fill:#231f20" />
        <rect x="219.97" y="173.72" width="0.75" height="1.25" transform="translate(-1.19 1.51) rotate(-0.39)" style="fill:#231f20" />
        <rect x="219.95" y="171.48" width="0.75" height="1.25" transform="translate(-1.17 1.51) rotate(-0.39)" style="fill:#231f20" />
        <rect x="216.75" y="177.72" width="7.5" height="6.75" transform="translate(-1.24 1.52) rotate(-0.39)" style="fill:none" />
        <rect x="220.03" y="182.73" width="0.75" height="1.25" transform="translate(-1.25 1.51) rotate(-0.39)" style="fill:#231f20" />
        <rect x="220.01" y="180.48" width="0.75" height="1.25" transform="translate(-1.23 1.51) rotate(-0.39)" style="fill:#231f20" />
        <rect x="220" y="178.24" width="0.75" height="1.25" transform="translate(-1.22 1.51) rotate(-0.39)" style="fill:#231f20" />
        <rect x="216.8" y="184.48" width="7.5" height="6.75" transform="translate(-1.28 1.52) rotate(-0.39)" style="fill:none" />
        <rect x="220.08" y="189.48" width="0.75" height="1.25" transform="translate(-1.33 1.55) rotate(-0.4)" style="fill:#231f20" />
        <rect x="220.06" y="187.23" width="0.75" height="1.25" transform="translate(-1.31 1.55) rotate(-0.4)" style="fill:#231f20" />
        <rect x="220.04" y="184.99" width="0.75" height="1.25" transform="translate(-1.26 1.51) rotate(-0.39)" style="fill:#231f20" />
        <rect x="216.84" y="191.23" width="7.5" height="6.75" transform="translate(-1.32 1.51) rotate(-0.39)" style="fill:none" />
        <rect x="220.12" y="196.24" width="0.75" height="1.25" transform="translate(-1.34 1.51) rotate(-0.39)" style="fill:#231f20" />
        <rect x="220.11" y="193.99" width="0.75" height="1.25" transform="translate(-1.33 1.51) rotate(-0.39)" style="fill:#231f20" />
        <rect x="220.09" y="191.75" width="0.75" height="1.25" transform="translate(-1.31 1.51) rotate(-0.39)" style="fill:#231f20" />
        <rect x="216.89" y="197.99" width="7.5" height="6.75" transform="translate(-1.38 1.52) rotate(-0.39)" style="fill:none" />
        <rect x="220.17" y="202.99" width="0.75" height="1.25" transform="translate(-1.39 1.51) rotate(-0.39)" style="fill:#231f20" />
        <rect x="220.15" y="200.74" width="0.75" height="1.25" transform="translate(-1.37 1.51) rotate(-0.39)" style="fill:#231f20" />
        <rect x="220.14" y="198.5" width="0.75" height="1.25" transform="translate(-1.39 1.55) rotate(-0.4)" style="fill:#231f20" />
        <rect x="216.93" y="204.74" width="7.5" height="6.75" transform="translate(-1.42 1.52) rotate(-0.39)" style="fill:none" />
        <rect x="220.21" y="209.74" width="0.75" height="1.25" transform="translate(-1.43 1.51) rotate(-0.39)" style="fill:#231f20" />
        <rect x="220.2" y="207.5" width="0.75" height="1.25" transform="translate(-1.42 1.51) rotate(-0.39)" style="fill:#231f20" />
        <rect x="220.18" y="205.25" width="0.75" height="1.25" transform="translate(-1.4 1.51) rotate(-0.39)" style="fill:#231f20" />
        <rect x="216.98" y="211.5" width="7.5" height="6.75" transform="translate(-1.46 1.51) rotate(-0.39)" style="fill:none" />
        <rect x="220.26" y="216.5" width="0.75" height="1.25" transform="translate(-1.48 1.51) rotate(-0.39)" style="fill:#231f20" />
        <rect x="220.25" y="214.25" width="0.75" height="1.25" transform="translate(-1.46 1.51) rotate(-0.39)" style="fill:#231f20" />
        <rect x="220.23" y="212.01" width="0.75" height="1.25" transform="translate(-1.45 1.51) rotate(-0.39)" style="fill:#231f20" />
        <rect x="217.03" y="218.25" width="7.5" height="6.75" transform="translate(-1.52 1.52) rotate(-0.39)" style="fill:none" />
        <rect x="220.31" y="223.25" width="0.75" height="1.25" transform="translate(-1.53 1.51) rotate(-0.39)" style="fill:#231f20" />
        <rect x="220.29" y="221" width="0.75" height="1.25" transform="translate(-1.51 1.51) rotate(-0.39)" style="fill:#231f20" />
        <rect x="220.28" y="218.76" width="0.75" height="1.25" transform="translate(-1.49 1.51) rotate(-0.39)" style="fill:#231f20" />
        <rect x="217.07" y="225.01" width="7.5" height="6.75" transform="translate(-1.56 1.52) rotate(-0.39)" style="fill:none" />
        <rect x="220.35" y="230.01" width="0.75" height="1.25" transform="translate(-1.57 1.51) rotate(-0.39)" style="fill:#231f20" />
        <rect x="220.34" y="227.76" width="0.75" height="1.25" transform="translate(-1.56 1.51) rotate(-0.39)" style="fill:#231f20" />
        <rect x="220.32" y="225.52" width="0.75" height="1.25" transform="translate(-1.54 1.51) rotate(-0.39)" style="fill:#231f20" />
        <rect x="217.12" y="231.76" width="7.5" height="6.75" transform="translate(-1.6 1.51) rotate(-0.39)" style="fill:none" />
        <rect x="220.4" y="236.76" width="0.75" height="1.25" transform="translate(-1.62 1.51) rotate(-0.39)" style="fill:#231f20" />
        <rect x="220.38" y="234.51" width="0.75" height="1.25" transform="translate(-1.6 1.51) rotate(-0.39)" style="fill:#231f20" />
        <rect x="220.37" y="232.27" width="0.75" height="1.25" transform="translate(-1.59 1.51) rotate(-0.39)" style="fill:#231f20" />
        <rect x="217.17" y="238.51" width="7.5" height="6.75" transform="translate(-1.66 1.52) rotate(-0.39)" style="fill:none" />
        <rect x="220.45" y="243.52" width="0.75" height="1.25" transform="translate(-1.66 1.52) rotate(-0.39)" style="fill:#231f20" />
        <rect x="220.43" y="241.27" width="0.75" height="1.25" transform="translate(-1.65 1.52) rotate(-0.39)" style="fill:#231f20" />
        <rect x="220.42" y="239.03" width="0.75" height="1.25" transform="translate(-1.67 1.55) rotate(-0.4)" style="fill:#231f20" />
        <rect x="217.21" y="245.27" width="7.5" height="6.75" transform="translate(-1.7 1.52) rotate(-0.39)" style="fill:none" />
        <rect x="220.49" y="250.27" width="0.75" height="1.25" transform="translate(-1.71 1.52) rotate(-0.39)" style="fill:#231f20" />
        <rect x="220.48" y="248.02" width="0.75" height="1.25" transform="translate(-1.69 1.52) rotate(-0.39)" style="fill:#231f20" />
        <rect x="220.46" y="245.78" width="0.75" height="1.25" transform="translate(-1.68 1.52) rotate(-0.39)" style="fill:#231f20" />
        <rect x="217.26" y="252.02" width="7.5" height="6.75" transform="translate(-1.74 1.52) rotate(-0.39)" style="fill:none" />
        <rect x="220.54" y="257.03" width="0.75" height="1.25" transform="translate(-1.76 1.52) rotate(-0.39)" style="fill:#231f20" />
        <rect x="220.52" y="254.78" width="0.75" height="1.25" transform="translate(-1.74 1.52) rotate(-0.39)" style="fill:#231f20" />
        <rect x="220.51" y="252.54" width="0.75" height="1.25" transform="translate(-1.73 1.52) rotate(-0.39)" style="fill:#231f20" />
        <rect x="216.83" y="72.15" width="0.75" height="1.22" transform="translate(140.59 288.64) rotate(-88.98)" style="fill:#231f20" />
        <polygon points="220.02 72.44 218.8 72.41 218.79 73.17 219.28 73.17 219.28 73.66 220.03 73.66 220.02 72.44" style="fill:#231f20;fill-rule:evenodd" />
        <rect x="219.29" y="74.63" width="0.75" height="1.22" transform="translate(-0.51 1.5) rotate(-0.39)" style="fill:#231f20" />
        <line x1="204.52" y1="258.4" x2="204.88" y2="70.75" style="fill:#fff" />
        <rect x="201.17" y="251.3" width="6.7" height="7.5" transform="translate(-50.92 459.08) rotate(-89.89)" style="fill:none" />
        <rect x="204.02" y="252.44" width="1.24" height="0.75" transform="translate(-48.57 456.96) rotate(-89.89)" style="fill:#231f20" />
        <rect x="204.01" y="254.67" width="1.24" height="0.75" transform="translate(-50.81 459.18) rotate(-89.89)" style="fill:#231f20" />
        <rect x="204.01" y="256.89" width="1.24" height="0.75" transform="translate(-53.04 461.39) rotate(-89.89)" style="fill:#231f20" />
        <rect x="201.19" y="244.6" width="6.7" height="7.5" transform="translate(-44.2 452.41) rotate(-89.89)" style="fill:none" />
        <rect x="204.03" y="245.74" width="1.24" height="0.75" transform="translate(-41.86 450.28) rotate(-89.89)" style="fill:#231f20" />
        <rect x="204.02" y="247.97" width="1.24" height="0.75" transform="translate(-44.1 452.5) rotate(-89.89)" style="fill:#231f20" />
        <rect x="204.02" y="250.19" width="1.24" height="0.75" transform="translate(-46.32 454.72) rotate(-89.89)" style="fill:#231f20" />
        <rect x="201.2" y="237.89" width="6.7" height="7.5" transform="translate(-37.49 445.73) rotate(-89.89)" style="fill:none" />
        <rect x="204.04" y="239.03" width="1.24" height="0.75" transform="translate(-35.11 443.64) rotate(-89.9)" style="fill:#231f20" />
        <rect x="204.04" y="241.27" width="1.24" height="0.75" transform="translate(-37.35 445.87) rotate(-89.9)" style="fill:#231f20" />
        <rect x="204.03" y="243.49" width="1.24" height="0.75" transform="translate(-39.58 448.08) rotate(-89.9)" style="fill:#231f20" />
        <rect x="201.21" y="231.19" width="6.7" height="7.5" transform="translate(-30.77 439.06) rotate(-89.89)" style="fill:none" />
        <rect x="204.05" y="232.33" width="1.24" height="0.75" transform="translate(-28.4 436.97) rotate(-89.9)" style="fill:#231f20" />
        <rect x="204.05" y="234.56" width="1.24" height="0.75" transform="translate(-30.67 439.15) rotate(-89.89)" style="fill:#231f20" />
        <rect x="204.05" y="236.79" width="1.24" height="0.75" transform="translate(-32.89 441.37) rotate(-89.89)" style="fill:#231f20" />
        <rect x="201.22" y="224.49" width="6.7" height="7.5" transform="translate(-24.06 432.37) rotate(-89.89)" style="fill:none" />
        <rect x="204.07" y="225.63" width="1.24" height="0.75" transform="translate(-21.72 430.25) rotate(-89.89)" style="fill:#231f20" />
        <rect x="204.06" y="227.86" width="1.24" height="0.75" transform="translate(-23.95 432.48) rotate(-89.89)" style="fill:#231f20" />
        <rect x="204.06" y="230.09" width="1.24" height="0.75" transform="translate(-26.18 434.69) rotate(-89.89)" style="fill:#231f20" />
        <rect x="201.24" y="217.79" width="6.7" height="7.5" transform="translate(-17.34 425.71) rotate(-89.89)" style="fill:none" />
        <rect x="204.08" y="218.93" width="1.24" height="0.75" transform="translate(-15 423.58) rotate(-89.89)" style="fill:#231f20" />
        <rect x="204.08" y="221.16" width="1.24" height="0.75" transform="translate(-17.24 425.8) rotate(-89.89)" style="fill:#231f20" />
        <rect x="204.07" y="223.38" width="1.24" height="0.75" transform="translate(-19.47 428.02) rotate(-89.89)" style="fill:#231f20" />
        <rect x="201.25" y="211.09" width="6.7" height="7.5" transform="translate(-10.63 419.02) rotate(-89.89)" style="fill:none" />
        <rect x="204.09" y="212.23" width="1.24" height="0.75" transform="translate(-8.29 416.9) rotate(-89.89)" style="fill:#231f20" />
        <rect x="204.09" y="214.46" width="1.24" height="0.75" transform="translate(-10.52 419.12) rotate(-89.89)" style="fill:#231f20" />
        <rect x="204.08" y="216.68" width="1.24" height="0.75" transform="translate(-12.75 421.34) rotate(-89.89)" style="fill:#231f20" />
        <rect x="201.26" y="204.39" width="6.7" height="7.5" transform="translate(-3.92 412.35) rotate(-89.89)" style="fill:none" />
        <rect x="204.11" y="205.53" width="1.24" height="0.75" transform="translate(-1.57 410.23) rotate(-89.89)" style="fill:#231f20" />
        <rect x="204.1" y="207.76" width="1.24" height="0.75" transform="translate(-3.81 412.45) rotate(-89.89)" style="fill:#231f20" />
        <rect x="204.1" y="209.98" width="1.24" height="0.75" transform="translate(-6.04 414.66) rotate(-89.89)" style="fill:#231f20" />
        <rect x="201.28" y="197.68" width="6.7" height="7.5" transform="translate(2.81 405.68) rotate(-89.89)" style="fill:none" />
        <rect x="204.12" y="198.82" width="1.24" height="0.75" transform="translate(5.14 403.55) rotate(-89.89)" style="fill:#231f20" />
        <rect x="204.11" y="201.06" width="1.24" height="0.75" transform="translate(2.94 405.81) rotate(-89.9)" style="fill:#231f20" />
        <rect x="204.11" y="203.28" width="1.24" height="0.75" transform="translate(0.68 407.99) rotate(-89.89)" style="fill:#231f20" />
        <rect x="201.29" y="190.98" width="6.7" height="7.5" transform="translate(9.51 398.99) rotate(-89.89)" style="fill:none" />
        <rect x="204.13" y="192.12" width="1.24" height="0.75" transform="translate(11.89 396.91) rotate(-89.9)" style="fill:#231f20" />
        <rect x="204.13" y="194.35" width="1.24" height="0.75" transform="translate(9.65 399.13) rotate(-89.9)" style="fill:#231f20" />
        <rect x="204.12" y="196.58" width="1.24" height="0.75" transform="translate(7.43 401.34) rotate(-89.9)" style="fill:#231f20" />
        <rect x="201.3" y="184.28" width="6.7" height="7.5" transform="translate(16.24 392.33) rotate(-89.89)" style="fill:none" />
        <rect x="204.14" y="185.42" width="1.24" height="0.75" transform="translate(18.57 390.2) rotate(-89.89)" style="fill:#231f20" />
        <rect x="204.14" y="187.65" width="1.24" height="0.75" transform="translate(16.34 392.42) rotate(-89.89)" style="fill:#231f20" />
        <rect x="204.14" y="189.88" width="1.24" height="0.75" transform="translate(14.11 394.64) rotate(-89.89)" style="fill:#231f20" />
        <rect x="201.31" y="177.58" width="6.7" height="7.5" transform="translate(22.94 385.64) rotate(-89.89)" style="fill:none" />
        <rect x="204.16" y="178.72" width="1.24" height="0.75" transform="translate(25.28 383.52) rotate(-89.89)" style="fill:#231f20" />
        <rect x="204.15" y="180.95" width="1.24" height="0.75" transform="translate(23.05 385.75) rotate(-89.89)" style="fill:#231f20" />
        <rect x="204.15" y="183.17" width="1.24" height="0.75" transform="translate(20.82 387.96) rotate(-89.89)" style="fill:#231f20" />
        <rect x="201.33" y="170.88" width="6.7" height="7.5" transform="translate(29.66 378.97) rotate(-89.89)" style="fill:none" />
        <rect x="204.17" y="172.02" width="1.24" height="0.75" transform="translate(32 376.85) rotate(-89.89)" style="fill:#231f20" />
        <rect x="204.17" y="174.25" width="1.24" height="0.75" transform="translate(29.76 379.07) rotate(-89.89)" style="fill:#231f20" />
        <rect x="204.16" y="176.47" width="1.24" height="0.75" transform="translate(27.54 381.29) rotate(-89.89)" style="fill:#231f20" />
        <rect x="201.34" y="164.18" width="6.7" height="7.5" transform="translate(36.37 372.29) rotate(-89.89)" style="fill:none" />
        <rect x="204.18" y="165.32" width="1.24" height="0.75" transform="translate(38.71 370.17) rotate(-89.89)" style="fill:#231f20" />
        <rect x="204.18" y="167.55" width="1.24" height="0.75" transform="translate(36.48 372.39) rotate(-89.89)" style="fill:#231f20" />
        <rect x="204.17" y="169.77" width="1.24" height="0.75" transform="translate(34.25 374.61) rotate(-89.89)" style="fill:#231f20" />
        <rect x="201.35" y="157.47" width="6.7" height="7.5" transform="translate(43.09 365.62) rotate(-89.89)" style="fill:none" />
        <rect x="204.2" y="158.61" width="1.24" height="0.75" transform="translate(45.43 363.5) rotate(-89.89)" style="fill:#231f20" />
        <rect x="204.19" y="160.85" width="1.24" height="0.75" transform="translate(43.19 365.72) rotate(-89.89)" style="fill:#231f20" />
        <rect x="204.19" y="163.07" width="1.24" height="0.75" transform="translate(40.96 367.93) rotate(-89.89)" style="fill:#231f20" />
        <rect x="201.37" y="150.77" width="6.7" height="7.5" transform="translate(49.8 358.94) rotate(-89.89)" style="fill:none" />
        <rect x="204.21" y="151.91" width="1.24" height="0.75" transform="translate(52.18 356.84) rotate(-89.9)" style="fill:#231f20" />
        <rect x="204.2" y="154.14" width="1.24" height="0.75" transform="translate(49.94 359.07) rotate(-89.9)" style="fill:#231f20" />
        <rect x="204.2" y="156.37" width="1.24" height="0.75" transform="translate(47.71 361.28) rotate(-89.9)" style="fill:#231f20" />
        <rect x="201.38" y="144.07" width="6.7" height="7.5" transform="translate(56.51 352.26) rotate(-89.89)" style="fill:none" />
        <rect x="204.22" y="145.21" width="1.24" height="0.75" transform="translate(58.89 350.17) rotate(-89.9)" style="fill:#231f20" />
        <rect x="204.22" y="147.44" width="1.24" height="0.75" transform="translate(56.66 352.39) rotate(-89.9)" style="fill:#231f20" />
        <rect x="204.21" y="149.67" width="1.24" height="0.75" transform="translate(54.43 354.61) rotate(-89.9)" style="fill:#231f20" />
        <rect x="201.39" y="137.37" width="6.7" height="7.5" transform="translate(63.24 345.59) rotate(-89.89)" style="fill:none" />
        <rect x="204.23" y="138.51" width="1.24" height="0.75" transform="translate(65.57 343.47) rotate(-89.89)" style="fill:#231f20" />
        <rect x="204.23" y="140.74" width="1.24" height="0.75" transform="translate(63.34 345.69) rotate(-89.89)" style="fill:#231f20" />
        <rect x="204.23" y="142.96" width="1.24" height="0.75" transform="translate(61.11 347.91) rotate(-89.89)" style="fill:#231f20" />
        <rect x="201.4" y="130.67" width="6.7" height="7.5" transform="translate(69.94 338.91) rotate(-89.89)" style="fill:none" />
        <rect x="204.25" y="131.81" width="1.24" height="0.75" transform="translate(72.29 336.79) rotate(-89.89)" style="fill:#231f20" />
        <rect x="204.24" y="134.04" width="1.24" height="0.75" transform="translate(70.05 339.02) rotate(-89.89)" style="fill:#231f20" />
        <rect x="204.24" y="136.26" width="1.24" height="0.75" transform="translate(67.82 341.23) rotate(-89.89)" style="fill:#231f20" />
        <rect x="201.42" y="123.96" width="6.7" height="7.5" transform="translate(76.67 332.24) rotate(-89.89)" style="fill:none" />
        <rect x="204.26" y="125.11" width="1.24" height="0.75" transform="translate(79 330.12) rotate(-89.89)" style="fill:#231f20" />
        <rect x="204.26" y="127.34" width="1.24" height="0.75" transform="translate(76.77 332.34) rotate(-89.89)" style="fill:#231f20" />
        <rect x="204.25" y="129.56" width="1.24" height="0.75" transform="translate(74.54 334.55) rotate(-89.89)" style="fill:#231f20" />
        <rect x="201.43" y="117.26" width="6.7" height="7.5" transform="translate(83.37 325.56) rotate(-89.89)" style="fill:none" />
        <rect x="204.27" y="118.4" width="1.24" height="0.75" transform="translate(85.72 323.44) rotate(-89.89)" style="fill:#231f20" />
        <rect x="204.27" y="120.64" width="1.24" height="0.75" transform="translate(83.48 325.66) rotate(-89.89)" style="fill:#231f20" />
        <rect x="204.26" y="122.86" width="1.24" height="0.75" transform="translate(81.25 327.88) rotate(-89.89)" style="fill:#231f20" />
        <rect x="201.44" y="110.56" width="6.7" height="7.5" transform="translate(90.09 318.89) rotate(-89.89)" style="fill:none" />
        <rect x="204.29" y="111.7" width="1.24" height="0.75" transform="translate(92.43 316.77) rotate(-89.89)" style="fill:#231f20" />
        <rect x="204.28" y="113.93" width="1.24" height="0.75" transform="translate(90.19 318.99) rotate(-89.89)" style="fill:#231f20" />
        <rect x="204.28" y="116.16" width="1.24" height="0.75" transform="translate(87.97 321.2) rotate(-89.89)" style="fill:#231f20" />
        <rect x="201.46" y="103.86" width="6.7" height="7.5" transform="translate(96.8 312.21) rotate(-89.89)" style="fill:none" />
        <rect x="204.3" y="105" width="1.24" height="0.75" transform="translate(99.18 310.11) rotate(-89.9)" style="fill:#231f20" />
        <rect x="204.29" y="107.23" width="1.24" height="0.75" transform="translate(96.94 312.33) rotate(-89.9)" style="fill:#231f20" />
        <rect x="204.29" y="109.46" width="1.24" height="0.75" transform="translate(94.71 314.55) rotate(-89.9)" style="fill:#231f20" />
        <rect x="201.47" y="97.16" width="6.7" height="7.5" transform="translate(103.52 305.53) rotate(-89.89)" style="fill:none" />
        <rect x="204.31" y="98.3" width="1.24" height="0.75" transform="translate(105.86 303.41) rotate(-89.89)" style="fill:#231f20" />
        <rect x="204.31" y="100.53" width="1.24" height="0.75" transform="translate(103.62 305.64) rotate(-89.89)" style="fill:#231f20" />
        <rect x="204.3" y="102.75" width="1.24" height="0.75" transform="translate(101.4 307.85) rotate(-89.89)" style="fill:#231f20" />
        <rect x="201.48" y="90.46" width="6.7" height="7.5" transform="translate(110.24 298.86) rotate(-89.89)" style="fill:none" />
        <rect x="204.32" y="91.6" width="1.24" height="0.75" transform="translate(112.57 296.74) rotate(-89.89)" style="fill:#231f20" />
        <rect x="204.32" y="93.83" width="1.24" height="0.75" transform="translate(110.34 298.96) rotate(-89.89)" style="fill:#231f20" />
        <rect x="204.32" y="96.05" width="1.24" height="0.75" transform="translate(108.11 301.18) rotate(-89.89)" style="fill:#231f20" />
        <rect x="201.49" y="83.75" width="6.7" height="7.5" transform="translate(116.94 292.18) rotate(-89.89)" style="fill:none" />
        <rect x="204.34" y="84.9" width="1.24" height="0.75" transform="translate(119.29 290.06) rotate(-89.89)" style="fill:#231f20" />
        <rect x="204.33" y="87.13" width="1.24" height="0.75" transform="translate(117.05 292.29) rotate(-89.89)" style="fill:#231f20" />
        <rect x="204.33" y="89.35" width="1.24" height="0.75" transform="translate(114.82 294.5) rotate(-89.89)" style="fill:#231f20" />
        <rect x="201.51" y="77.05" width="6.7" height="7.5" transform="translate(123.67 285.51) rotate(-89.89)" style="fill:none" />
        <rect x="204.35" y="78.19" width="1.24" height="0.75" transform="translate(126 283.39) rotate(-89.89)" style="fill:#231f20" />
        <rect x="204.35" y="80.43" width="1.24" height="0.75" transform="translate(123.77 285.61) rotate(-89.89)" style="fill:#231f20" />
        <rect x="204.34" y="82.65" width="1.24" height="0.75" transform="translate(121.54 287.82) rotate(-89.89)" style="fill:#231f20" />
        <rect x="201.52" y="70.35" width="6.7" height="7.5" transform="translate(130.37 278.83) rotate(-89.89)" style="fill:none" />
        <rect x="204.36" y="71.49" width="1.24" height="0.75" transform="translate(132.72 276.71) rotate(-89.89)" style="fill:#231f20" />
        <rect x="204.36" y="73.72" width="1.24" height="0.75" transform="translate(130.48 278.93) rotate(-89.89)" style="fill:#231f20" />
        <rect x="204.35" y="75.95" width="1.24" height="0.75" transform="translate(128.25 281.15) rotate(-89.89)" style="fill:#231f20" />
        <path d="M205.93,120.57a9.5,9.5,0,0,1,3.2-.61,9.39,9.39,0,0,1,3.22.39,9.44,9.44,0,0,1-3.19.61A9.73,9.73,0,0,1,205.93,120.57Z" />
        <path d="M214.63,120.2a1.62,1.62,0,1,1-1.62-1.47A1.55,1.55,0,0,1,214.63,120.2Z" style="fill:url(#radial-gradient)" />
        <path d="M213.08,117.71a2.51,2.51,0,1,0,2.75,2.49A2.63,2.63,0,0,0,213.08,117.71Zm0,1.35a1.15,1.15,0,1,1-1.26,1.14A1.2,1.2,0,0,1,213.08,119.06Z" style="fill:url(#radial-gradient-2)" />
        <path d="M213.08,116.42a3.8,3.8,0,1,0,4.17,3.78A4,4,0,0,0,213.08,116.42Zm0,2a1.74,1.74,0,1,1-1.91,1.73A1.82,1.82,0,0,1,213.08,118.47Z" style="fill:url(#radial-gradient-3)" />
        <path d="M213.08,116.79a3.43,3.43,0,1,0,3.75,3.41A3.59,3.59,0,0,0,213.08,116.79Zm0,1.85a1.57,1.57,0,1,1-1.72,1.56A1.65,1.65,0,0,1,213.08,118.64Z" style="fill:url(#radial-gradient-4)" />
        <path d="M213.08,117.19a3,3,0,1,0,3.31,3A3.17,3.17,0,0,0,213.08,117.19Zm0,1.63a1.39,1.39,0,1,1-1.52,1.38A1.46,1.46,0,0,1,213.08,118.82Z" style="fill:url(#radial-gradient-5)" />
        <path d="M215.18,119.19a.26.26,0,1,0,0,.51.26.26,0,1,0,0-.51Z" style="fill:url(#radial-gradient-6)" />
        <path d="M215.18,119.23a.22.22,0,1,0,.24.22A.23.23,0,0,0,215.18,119.23Z" style="fill:#343435" />
        <path d="M213.78,118.14a.24.24,0,0,0,0,.36.3.3,0,0,0,.4,0,.24.24,0,0,0,0-.36A.3.3,0,0,0,213.78,118.14Z" style="fill:url(#radial-gradient-7)" />
        <path d="M213.81,118.16a.21.21,0,0,0,0,.31.26.26,0,0,0,.33,0,.2.2,0,0,0,0-.31A.26.26,0,0,0,213.81,118.16Z" style="fill:#343435" />
        <path d="M212,118.29a.27.27,0,0,0,.29.26.26.26,0,1,0-.29-.26Z" style="fill:url(#radial-gradient-8)" />
        <path d="M212,118.29a.24.24,0,0,0,.48,0,.24.24,0,0,0-.48,0Z" style="fill:#343435" />
        <path d="M210.81,119.57a.3.3,0,0,0,.4,0,.24.24,0,0,0,0-.36.28.28,0,0,0-.4,0A.24.24,0,0,0,210.81,119.57Z" style="fill:url(#radial-gradient-9)" />
        <path d="M210.84,119.54a.27.27,0,0,0,.34,0,.21.21,0,0,0,0-.31.27.27,0,0,0-.34,0A.21.21,0,0,0,210.84,119.54Z" style="fill:#343435" />
        <path d="M211,121.21a.26.26,0,1,0-.28-.25A.26.26,0,0,0,211,121.21Z" style="fill:url(#radial-gradient-10)" />
        <path d="M211,121.17a.22.22,0,1,0-.24-.21A.23.23,0,0,0,211,121.17Z" style="fill:#343435" />
        <path d="M212.38,122.26a.23.23,0,0,0,0-.36.3.3,0,0,0-.4,0,.24.24,0,0,0,0,.36A.3.3,0,0,0,212.38,122.26Z" style="fill:url(#radial-gradient-11)" />
        <path d="M212.35,122.23a.2.2,0,0,0,0-.3.26.26,0,0,0-.33,0,.19.19,0,0,0,0,.3A.24.24,0,0,0,212.35,122.23Z" style="fill:#343435" />
        <path d="M214.2,122.11a.29.29,0,0,0-.57,0,.27.27,0,0,0,.28.25A.27.27,0,0,0,214.2,122.11Z" style="fill:url(#radial-gradient-12)" />
        <path d="M214.15,122.11a.23.23,0,0,0-.24-.22.22.22,0,0,0-.23.22.22.22,0,0,0,.23.21A.23.23,0,0,0,214.15,122.11Z" style="fill:#343435" />
        <path d="M215.36,120.83a.32.32,0,0,0-.41,0,.25.25,0,0,0,0,.37.32.32,0,0,0,.41,0A.27.27,0,0,0,215.36,120.83Z" style="fill:url(#radial-gradient-13)" />
        <path d="M215.32,120.86a.26.26,0,0,0-.33,0,.21.21,0,0,0,0,.31.26.26,0,0,0,.33,0A.21.21,0,0,0,215.32,120.86Z" style="fill:#343435" />
        <path d="M206.69,162.35a9.44,9.44,0,0,1,3.19-.61,9.22,9.22,0,0,1,3.23.4,10.66,10.66,0,0,1-6.42.21Z" />
        <path d="M215.39,162a1.63,1.63,0,1,1-1.62-1.46A1.55,1.55,0,0,1,215.39,162Z" style="fill:url(#radial-gradient-14)" />
        <path d="M213.84,159.49a2.51,2.51,0,1,0,2.75,2.49A2.63,2.63,0,0,0,213.84,159.49Zm0,1.35a1.15,1.15,0,1,1-1.26,1.14A1.21,1.21,0,0,1,213.84,160.84Z" style="fill:url(#radial-gradient-15)" />
        <path d="M213.84,158.2A3.8,3.8,0,1,0,218,162,4,4,0,0,0,213.84,158.2Zm0,2.05a1.74,1.74,0,1,1-1.91,1.73A1.83,1.83,0,0,1,213.84,160.25Z" style="fill:url(#radial-gradient-16)" />
        <path d="M213.84,158.58a3.42,3.42,0,1,0,3.75,3.4A3.59,3.59,0,0,0,213.84,158.58Zm0,1.84a1.57,1.57,0,1,1-1.72,1.56A1.65,1.65,0,0,1,213.84,160.42Z" style="fill:url(#radial-gradient-17)" />
        <path d="M213.84,159a3,3,0,1,0,3.31,3A3.16,3.16,0,0,0,213.84,159Zm0,1.63a1.38,1.38,0,1,1-1.52,1.37A1.45,1.45,0,0,1,213.84,160.61Z" style="fill:url(#radial-gradient-18)" />
        <path d="M215.94,161a.26.26,0,1,0,.28.26A.27.27,0,0,0,215.94,161Z" style="fill:url(#radial-gradient-19)" />
        <path d="M215.94,161a.21.21,0,1,0,0,.42.21.21,0,1,0,0-.42Z" style="fill:#343435" />
        <path d="M214.53,159.92a.25.25,0,0,0,0,.37.34.34,0,0,0,.41,0,.25.25,0,0,0,0-.37A.32.32,0,0,0,214.53,159.92Z" style="fill:url(#radial-gradient-20)" />
        <path d="M214.57,160a.2.2,0,0,0,0,.3.24.24,0,0,0,.33,0,.2.2,0,0,0,0-.3A.26.26,0,0,0,214.57,160Z" style="fill:#343435" />
        <path d="M212.72,160.08a.27.27,0,0,0,.29.25.27.27,0,0,0,.28-.25.29.29,0,0,0-.57,0Z" style="fill:url(#radial-gradient-21)" />
        <path d="M212.77,160.08a.22.22,0,0,0,.24.21.21.21,0,1,0,0-.42A.22.22,0,0,0,212.77,160.08Z" style="fill:#343435" />
        <path d="M211.57,161.35a.3.3,0,0,0,.4,0,.24.24,0,0,0,0-.36.3.3,0,0,0-.4,0A.22.22,0,0,0,211.57,161.35Z" style="fill:url(#radial-gradient-22)" />
        <path d="M211.6,161.32a.24.24,0,0,0,.33,0,.2.2,0,0,0,0-.3.24.24,0,0,0-.33,0A.19.19,0,0,0,211.6,161.32Z" style="fill:#343435" />
        <path d="M211.74,163a.26.26,0,1,0,0-.52.26.26,0,1,0,0,.52Z" style="fill:url(#radial-gradient-23)" />
        <path d="M211.74,163a.21.21,0,1,0,0-.42.21.21,0,1,0,0,.42Z" style="fill:#343435" />
        <path d="M213.14,164.05a.25.25,0,0,0,0-.37.3.3,0,0,0-.4,0,.25.25,0,0,0,0,.37A.3.3,0,0,0,213.14,164.05Z" style="fill:url(#radial-gradient-24)" />
        <path d="M213.11,164a.2.2,0,0,0,0-.3.25.25,0,0,0-.34,0,.2.2,0,0,0,0,.3A.27.27,0,0,0,213.11,164Z" style="fill:#343435" />
        <path d="M215,163.89a.28.28,0,1,0-.28.26A.27.27,0,0,0,215,163.89Z" style="fill:url(#radial-gradient-25)" />
        <path d="M214.91,163.89a.24.24,0,1,0-.24.21A.23.23,0,0,0,214.91,163.89Z" style="fill:#343435" />
        <path d="M216.11,162.62a.3.3,0,0,0-.4,0,.24.24,0,0,0,0,.36.3.3,0,0,0,.4,0A.24.24,0,0,0,216.11,162.62Z" style="fill:url(#radial-gradient-26)" />
        <path d="M216.08,162.65a.25.25,0,0,0-.34,0,.2.2,0,0,0,0,.3.27.27,0,0,0,.34,0A.2.2,0,0,0,216.08,162.65Z" style="fill:#343435" />
        <path d="M205.87,204.91a9.38,9.38,0,0,1,3.19-.6,9.24,9.24,0,0,1,3.23.39,10.67,10.67,0,0,1-6.42.21Z" />
        <path d="M214.56,204.55a1.62,1.62,0,0,1-3.23,0,1.62,1.62,0,0,1,3.23,0Z" style="fill:url(#radial-gradient-27)" />
        <path d="M213,202.05a2.51,2.51,0,1,0,2.74,2.5A2.63,2.63,0,0,0,213,202.05Zm0,1.36a1.15,1.15,0,1,1-1.26,1.14A1.19,1.19,0,0,1,213,203.41Z" style="fill:url(#radial-gradient-28)" />
        <path d="M213,200.76a3.8,3.8,0,1,0,4.16,3.79A4,4,0,0,0,213,200.76Zm0,2.05a1.74,1.74,0,1,1-1.91,1.74A1.83,1.83,0,0,1,213,202.81Z" style="fill:url(#radial-gradient-29)" />
        <path d="M213,201.14a3.43,3.43,0,1,0,3.75,3.41A3.59,3.59,0,0,0,213,201.14Zm0,1.85a1.57,1.57,0,1,1-1.72,1.56A1.65,1.65,0,0,1,213,203Z" style="fill:url(#radial-gradient-30)" />
        <path d="M213,201.54a3,3,0,1,0,3.31,3A3.18,3.18,0,0,0,213,201.54Zm0,1.63a1.39,1.39,0,1,1-1.52,1.38A1.45,1.45,0,0,1,213,203.17Z" style="fill:url(#radial-gradient-31)" />
        <path d="M215.11,203.54a.27.27,0,0,0-.28.25.29.29,0,0,0,.57,0A.27.27,0,0,0,215.11,203.54Z" style="fill:url(#radial-gradient-32)" />
        <path d="M215.11,203.58a.22.22,0,0,0-.23.21.22.22,0,0,0,.23.21.22.22,0,0,0,.24-.21A.23.23,0,0,0,215.11,203.58Z" style="fill:#343435" />
        <path d="M213.71,202.48a.25.25,0,0,0,0,.37.3.3,0,0,0,.4,0,.25.25,0,0,0,0-.37A.3.3,0,0,0,213.71,202.48Z" style="fill:url(#radial-gradient-33)" />
        <path d="M213.75,202.51a.2.2,0,0,0,0,.31.26.26,0,0,0,.33,0,.21.21,0,0,0,0-.31A.26.26,0,0,0,213.75,202.51Z" style="fill:#343435" />
        <path d="M211.9,202.64a.29.29,0,1,0,.29-.26A.28.28,0,0,0,211.9,202.64Z" style="fill:url(#radial-gradient-34)" />
        <path d="M212,202.64a.22.22,0,0,0,.24.21.21.21,0,1,0,0-.42A.22.22,0,0,0,212,202.64Z" style="fill:#343435" />
        <path d="M210.74,203.91a.28.28,0,0,0,.4,0,.24.24,0,0,0,0-.36.3.3,0,0,0-.4,0A.24.24,0,0,0,210.74,203.91Z" style="fill:url(#radial-gradient-35)" />
        <path d="M210.78,203.88a.24.24,0,0,0,.33,0,.2.2,0,0,0,0-.3.26.26,0,0,0-.33,0A.19.19,0,0,0,210.78,203.88Z" style="fill:#343435" />
        <path d="M210.92,205.56a.26.26,0,1,0-.29-.26A.27.27,0,0,0,210.92,205.56Z" style="fill:url(#radial-gradient-36)" />
        <path d="M210.92,205.52a.22.22,0,0,0,.23-.22.22.22,0,0,0-.23-.21.22.22,0,0,0-.24.21A.23.23,0,0,0,210.92,205.52Z" style="fill:#343435" />
        <path d="M212.32,206.61a.25.25,0,0,0,0-.37.33.33,0,0,0-.4,0,.25.25,0,0,0,0,.37A.3.3,0,0,0,212.32,206.61Z" style="fill:url(#radial-gradient-37)" />
        <path d="M212.28,206.58a.19.19,0,0,0,0-.3.24.24,0,0,0-.33,0,.2.2,0,0,0,0,.3A.26.26,0,0,0,212.28,206.58Z" style="fill:#343435" />
        <path d="M214.13,206.45a.29.29,0,1,0-.28.26A.28.28,0,0,0,214.13,206.45Z" style="fill:url(#radial-gradient-38)" />
        <path d="M214.08,206.45a.22.22,0,0,0-.23-.21.23.23,0,0,0-.24.21.23.23,0,0,0,.24.22A.22.22,0,0,0,214.08,206.45Z" style="fill:#343435" />
        <path d="M215.29,205.18a.3.3,0,0,0-.4,0,.24.24,0,0,0,0,.36.3.3,0,0,0,.4,0A.24.24,0,0,0,215.29,205.18Z" style="fill:url(#radial-gradient-39)" />
        <path d="M215.26,205.21a.27.27,0,0,0-.34,0,.2.2,0,0,0,0,.3.25.25,0,0,0,.34,0A.2.2,0,0,0,215.26,205.21Z" style="fill:#343435" />
        <path d="M205.56,250.49a10.56,10.56,0,0,1,6.42-.22,9.26,9.26,0,0,1-3.2.61A9.39,9.39,0,0,1,205.56,250.49Z" />
        <path d="M214.26,250.12a1.63,1.63,0,1,1-1.62-1.46A1.55,1.55,0,0,1,214.26,250.12Z" style="fill:url(#radial-gradient-40)" />
        <path d="M212.71,247.63a2.51,2.51,0,1,0,2.74,2.49A2.63,2.63,0,0,0,212.71,247.63Zm0,1.35a1.15,1.15,0,1,1-1.26,1.14A1.2,1.2,0,0,1,212.71,249Z" style="fill:url(#radial-gradient-41)" />
        <path d="M212.71,246.34a3.8,3.8,0,1,0,4.16,3.78A4,4,0,0,0,212.71,246.34Zm0,2a1.74,1.74,0,1,1-1.91,1.73A1.82,1.82,0,0,1,212.71,248.39Z" style="fill:url(#radial-gradient-42)" />
        <path d="M212.71,246.72a3.42,3.42,0,1,0,3.75,3.4A3.59,3.59,0,0,0,212.71,246.72Zm0,1.84a1.57,1.57,0,1,1-1.72,1.56A1.65,1.65,0,0,1,212.71,248.56Z" style="fill:url(#radial-gradient-43)" />
        <path d="M212.71,247.11a3,3,0,1,0,3.31,3A3.18,3.18,0,0,0,212.71,247.11Zm0,1.63a1.39,1.39,0,1,1-1.52,1.38A1.46,1.46,0,0,1,212.71,248.74Z" style="fill:url(#radial-gradient-44)" />
        <path d="M214.81,249.11a.28.28,0,0,0-.29.26.27.27,0,0,0,.29.25.27.27,0,0,0,.28-.25A.28.28,0,0,0,214.81,249.11Z" style="fill:url(#radial-gradient-45)" />
        <path d="M214.81,249.15a.22.22,0,1,0,0,.43.22.22,0,1,0,0-.43Z" style="fill:#343435" />
        <path d="M213.4,248.06a.24.24,0,0,0,0,.36.3.3,0,0,0,.4,0,.24.24,0,0,0,0-.36A.3.3,0,0,0,213.4,248.06Z" style="fill:url(#radial-gradient-46)" />
        <path d="M213.44,248.09a.2.2,0,0,0,0,.3.26.26,0,0,0,.33,0,.2.2,0,0,0,0-.3A.24.24,0,0,0,213.44,248.09Z" style="fill:#343435" />
        <path d="M211.59,248.22a.27.27,0,0,0,.28.25.26.26,0,1,0-.28-.25Z" style="fill:url(#radial-gradient-47)" />
        <path d="M211.64,248.22a.22.22,0,0,0,.23.21.22.22,0,1,0-.23-.21Z" style="fill:#343435" />
        <path d="M210.43,249.49a.3.3,0,0,0,.4,0,.24.24,0,0,0,0-.36.3.3,0,0,0-.4,0A.24.24,0,0,0,210.43,249.49Z" style="fill:url(#radial-gradient-48)" />
        <path d="M210.47,249.46a.26.26,0,0,0,.33,0,.2.2,0,0,0,0-.3.24.24,0,0,0-.33,0A.19.19,0,0,0,210.47,249.46Z" style="fill:#343435" />
        <path d="M210.61,251.14a.26.26,0,1,0-.29-.26A.28.28,0,0,0,210.61,251.14Z" style="fill:url(#radial-gradient-49)" />
        <path d="M210.61,251.09a.22.22,0,1,0,0-.43.22.22,0,1,0,0,.43Z" style="fill:#343435" />
        <path d="M212,252.18a.24.24,0,0,0,0-.36.3.3,0,0,0-.4,0,.24.24,0,0,0,0,.36A.28.28,0,0,0,212,252.18Z" style="fill:url(#radial-gradient-50)" />
        <path d="M212,252.16a.21.21,0,0,0,0-.31.27.27,0,0,0-.34,0,.21.21,0,0,0,0,.31A.27.27,0,0,0,212,252.16Z" style="fill:#343435" />
        <path d="M213.82,252a.28.28,0,0,0-.56,0,.28.28,0,0,0,.56,0Z" style="fill:url(#radial-gradient-51)" />
        <path d="M213.78,252a.24.24,0,1,0-.24.21A.23.23,0,0,0,213.78,252Z" style="fill:#343435" />
        <path d="M215,250.75a.3.3,0,0,0-.4,0,.25.25,0,0,0,0,.37.3.3,0,0,0,.4,0A.25.25,0,0,0,215,250.75Z" style="fill:url(#radial-gradient-52)" />
        <path d="M215,250.78a.27.27,0,0,0-.34,0,.21.21,0,0,0,0,.31.27.27,0,0,0,.34,0A.21.21,0,0,0,215,250.78Z" style="fill:#343435" />
        <path d="M206.49,82.08a9.5,9.5,0,0,1,3.2-.61,9.39,9.39,0,0,1,3.22.39,9.16,9.16,0,0,1-3.19.61A9.48,9.48,0,0,1,206.49,82.08Z" />
        <path d="M215.19,81.71a1.62,1.62,0,1,1-1.62-1.47A1.55,1.55,0,0,1,215.19,81.71Z" style="fill:url(#radial-gradient-53)" />
        <path d="M213.64,79.22a2.51,2.51,0,1,0,2.75,2.49A2.63,2.63,0,0,0,213.64,79.22Zm0,1.35a1.15,1.15,0,1,1-1.26,1.14A1.2,1.2,0,0,1,213.64,80.57Z" style="fill:url(#radial-gradient-54)" />
        <path d="M213.64,77.93a3.8,3.8,0,1,0,4.17,3.78A4,4,0,0,0,213.64,77.93Zm0,2a1.74,1.74,0,1,1-1.91,1.73A1.82,1.82,0,0,1,213.64,80Z" style="fill:url(#radial-gradient-55)" />
        <path d="M213.64,78.3a3.43,3.43,0,1,0,3.76,3.41A3.59,3.59,0,0,0,213.64,78.3Zm0,1.85a1.57,1.57,0,1,1-1.72,1.56A1.65,1.65,0,0,1,213.64,80.15Z" style="fill:url(#radial-gradient-56)" />
        <path d="M213.64,78.7a3,3,0,1,0,3.31,3A3.17,3.17,0,0,0,213.64,78.7Zm0,1.63a1.39,1.39,0,1,1-1.52,1.38A1.46,1.46,0,0,1,213.64,80.33Z" style="fill:url(#radial-gradient-57)" />
        <path d="M215.74,80.7a.27.27,0,0,0-.28.26.29.29,0,0,0,.57,0A.27.27,0,0,0,215.74,80.7Z" style="fill:url(#radial-gradient-58)" />
        <path d="M215.74,80.74a.22.22,0,0,0-.23.22.22.22,0,0,0,.23.21A.23.23,0,0,0,216,81,.23.23,0,0,0,215.74,80.74Z" style="fill:#343435" />
        <ellipse cx="214.54" cy="79.83" rx="0.29" ry="0.26" style="fill:url(#radial-gradient-59)" />
        <path d="M214.37,79.68a.2.2,0,0,0,0,.3.27.27,0,0,0,.34,0,.2.2,0,0,0,0-.3A.25.25,0,0,0,214.37,79.68Z" style="fill:#343435" />
        <path d="M212.53,79.81a.28.28,0,1,0,.28-.26A.26.26,0,0,0,212.53,79.81Z" style="fill:url(#radial-gradient-60)" />
        <path d="M212.57,79.81a.24.24,0,1,0,.24-.22A.23.23,0,0,0,212.57,79.81Z" style="fill:#343435" />
        <path d="M211.37,81.08a.3.3,0,0,0,.4,0,.24.24,0,0,0,0-.36.28.28,0,0,0-.4,0A.24.24,0,0,0,211.37,81.08Z" style="fill:url(#radial-gradient-61)" />
        <path d="M211.4,81.05a.27.27,0,0,0,.34,0,.21.21,0,0,0,0-.31.27.27,0,0,0-.34,0A.21.21,0,0,0,211.4,81.05Z" style="fill:#343435" />
        <path d="M211.54,82.72a.26.26,0,0,0,.28-.25.28.28,0,0,0-.56,0A.26.26,0,0,0,211.54,82.72Z" style="fill:url(#radial-gradient-62)" />
        <path d="M211.54,82.68a.23.23,0,0,0,.24-.21.23.23,0,0,0-.24-.22.22.22,0,0,0-.23.22A.22.22,0,0,0,211.54,82.68Z" style="fill:#343435" />
        <path d="M213,83.78a.25.25,0,0,0,0-.37.32.32,0,0,0-.41,0,.27.27,0,0,0,0,.37A.32.32,0,0,0,213,83.78Z" style="fill:url(#radial-gradient-63)" />
        <path d="M212.91,83.75a.21.21,0,0,0,0-.31.26.26,0,0,0-.33,0,.21.21,0,0,0,0,.31A.26.26,0,0,0,212.91,83.75Z" style="fill:#343435" />
        <path d="M214.76,83.62a.29.29,0,1,0-.29.26A.28.28,0,0,0,214.76,83.62Z" style="fill:url(#radial-gradient-64)" />
        <path d="M214.71,83.62a.23.23,0,0,0-.24-.21.21.21,0,1,0,0,.42A.23.23,0,0,0,214.71,83.62Z" style="fill:#343435" />
        <path d="M215.92,82.34a.33.33,0,0,0-.4,0,.24.24,0,0,0,0,.37.3.3,0,0,0,.4,0A.25.25,0,0,0,215.92,82.34Z" style="fill:url(#radial-gradient-65)" />
        <path d="M215.88,82.38a.24.24,0,0,0-.33,0,.2.2,0,0,0,0,.3.26.26,0,0,0,.33,0A.2.2,0,0,0,215.88,82.38Z" style="fill:#343435" />
    </g>
</svg>