<svg id="neckt" xmlns="http://www.w3.org/2000/svg" viewBox="0 0 425.2 425.2">

    <g id="neckt" data-name="Layer 2">
        <path id="neckt" d="M243.35,57.26c0-1.12,0-2.43,0-3.94,0,0,2.14-2-1.34-6.67l-1.81-8.49c-35.92-8.12-57,.3-57,.3L181.45,47c-3.49,4.62-1.34,6.67-1.34,6.67V57.5Z" style="fill:#fff;stroke:#231f20;stroke-miterlimit:10" />
        <line x1="209.19" y1="34.59" x2="209.19" y2="57.26" style="fill:none;stroke:#231f20;stroke-miterlimit:10;stroke-width:0.75px" />
        <line x1="206.49" y1="34.77" x2="206.49" y2="57.1" style="fill:none;stroke:#231f20;stroke-miterlimit:10;stroke-width:0.75px" />
        <line x1="214.16" y1="34.84" x2="214.16" y2="57.52" style="fill:none;stroke:#231f20;stroke-miterlimit:10;stroke-width:0.75px" />
        <line x1="211.67" y1="34.77" x2="211.67" y2="57.1" style="fill:none;stroke:#231f20;stroke-miterlimit:10;stroke-width:0.75px" />
        <line x1="219.45" y1="35.06" x2="219.45" y2="57.73" style="fill:none;stroke:#231f20;stroke-miterlimit:10;stroke-width:0.75px" />
        <line x1="216.75" y1="35.06" x2="216.75" y2="57.38" style="fill:none;stroke:#231f20;stroke-miterlimit:10;stroke-width:0.75px" />
        <line x1="224.42" y1="35.31" x2="224.42" y2="56.98" style="fill:none;stroke:#231f20;stroke-miterlimit:10;stroke-width:0.75px" />
        <line x1="221.93" y1="35.06" x2="221.93" y2="57.38" style="fill:none;stroke:#231f20;stroke-miterlimit:10;stroke-width:0.75px" />
        <line x1="198.42" y1="34.88" x2="198.42" y2="57.56" style="fill:none;stroke:#231f20;stroke-miterlimit:10;stroke-width:0.75px" />
        <line x1="195.72" y1="35.88" x2="195.72" y2="57.2" style="fill:none;stroke:#231f20;stroke-miterlimit:10;stroke-width:0.75px" />
        <line x1="203.39" y1="35.14" x2="203.39" y2="57.81" style="fill:none;stroke:#231f20;stroke-miterlimit:10;stroke-width:0.75px" />
        <line x1="200.9" y1="34.88" x2="200.9" y2="57.2" style="fill:none;stroke:#231f20;stroke-miterlimit:10;stroke-width:0.75px" />
        <line x1="229.96" y1="36" x2="229.96" y2="57.66" style="fill:none;stroke:#231f20;stroke-miterlimit:10;stroke-width:0.75px" />
        <line x1="227.26" y1="36" x2="227.26" y2="57.31" style="fill:none;stroke:#231f20;stroke-miterlimit:10;stroke-width:0.75px" />
        <line x1="234.93" y1="37.07" x2="234.93" y2="57.73" style="fill:none;stroke:#231f20;stroke-miterlimit:10;stroke-width:0.75px" />
        <line x1="232.44" y1="37" x2="232.44" y2="57.31" style="fill:none;stroke:#231f20;stroke-miterlimit:10;stroke-width:0.75px" />
        <line x1="191.27" y1="36.32" x2="191.27" y2="56.98" style="fill:none;stroke:#231f20;stroke-miterlimit:10;stroke-width:0.75px" />
        <line x1="188.57" y1="36.83" x2="188.57" y2="57.4" style="fill:none;stroke:#231f20;stroke-miterlimit:10;stroke-width:0.75px" />
        <line x1="193.75" y1="36.31" x2="193.75" y2="57.64" style="fill:none;stroke:#231f20;stroke-miterlimit:10;stroke-width:0.75px" />
        <line x1="237.53" y1="37.61" x2="237.53" y2="57.27" style="fill:none;stroke:#231f20;stroke-miterlimit:10;stroke-width:0.75px" />
        <line x1="185.79" y1="37.8" x2="185.79" y2="57.07" style="fill:none;stroke:#231f20;stroke-miterlimit:10;stroke-width:0.75px" />
        <line x1="183.35" y1="39.02" x2="183.35" y2="57.84" style="fill:none;stroke:#231f20;stroke-miterlimit:10;stroke-width:0.75px" />
        <line x1="240.41" y1="38.54" x2="240.41" y2="57.2" style="fill:none;stroke:#231f20;stroke-miterlimit:10;stroke-width:0.75px" />
    </g>
</svg>