<svg id="sleevet" xmlns="http://www.w3.org/2000/svg" viewBox="0 0 425.2 425.2">
    <g id="sleevet" data-name="Layer 2">
        <path id="sleevet" d="M127,319s4.34-4,0-7.18c0,0,5.34-2.35,5.34-7.58l1.46-18.61-37,2.37L89,303.51s-1.66,1.63,1.34,6.24c0,0-2.33,3.18,0,5.89C90.35,315.64,110.83,329.49,127,319Z" style="fill:#f2f2f2;stroke:#231f20;stroke-miterlimit:10" />
        <path d="M132.35,304.26s6.4-10.42,9.66-34.32c2.34-17.07,3.34-77.81,3.34-77.81,4-26.38,3.88-52.77-2.22-72.42a91.44,91.44,0,0,0-17.84-32,260,260,0,0,0-16.78,35.84S90,162.35,91,177.43c0,0-8,6.49-3.5,29.29,0,0,1,36.3-3.5,41.8,0,0-5,42.47,5,55C89,303.51,110.16,310.46,132.35,304.26Z" style="fill:#fff" />
        <path d="M132.35,304.26a68.67,68.67,0,0,0,5.18-13.2,131.49,131.49,0,0,0,3.2-13.84,128.13,128.13,0,0,0,1.81-14.08c.36-4.72.62-9.45.83-14.18.86-18.93,1.34-37.88,1.66-56.83v0a236,236,0,0,0,2.57-27.31c.16-4.57.17-9.15,0-13.72s-.52-9.13-1.13-13.65A109.57,109.57,0,0,0,143.9,124a86.3,86.3,0,0,0-4.47-12.9A91.5,91.5,0,0,0,125,88l.74-.08c-3.23,5.73-6.23,11.62-9,17.58q-2.1,4.47-4,9c-1.31,3-2.5,6.1-3.66,9.18v0c-4,8.59-7.75,17.34-11,26.24-1.63,4.46-3.14,9-4.38,13.53-.62,2.28-1.17,4.59-1.57,6.91a31.2,31.2,0,0,0-.55,7v.19l-.16.15a10.58,10.58,0,0,0-2.1,2.95,20.14,20.14,0,0,0-1.37,3.48,31.94,31.94,0,0,0-1.2,7.41c-.12,1.26,0,2.52-.06,3.78s.13,2.52.23,3.78.28,2.51.46,3.76l.64,3.74v.06c.14,7,.11,14.1-.18,21.15-.15,3.52-.37,7-.77,10.56-.2,1.75-.45,3.51-.81,5.24a23.45,23.45,0,0,1-.67,2.59,8,8,0,0,1-1.2,2.46l.07-.15c-.52,4.63-.86,9.3-1.07,14s-.28,9.34-.14,14a104.69,104.69,0,0,0,1.28,13.92A46.09,46.09,0,0,0,86,297.22a20.56,20.56,0,0,0,3.12,6.18l-.09-.06a77.58,77.58,0,0,0,10.67,2.38,90.48,90.48,0,0,0,10.9,1,81.78,81.78,0,0,0,11-.43A70.37,70.37,0,0,0,132.35,304.26Zm0,0a70.23,70.23,0,0,1-10.75,2.12,81.92,81.92,0,0,1-11,.52A91,91,0,0,1,99.7,306,76.09,76.09,0,0,1,89,303.68h0l0-.05a21.16,21.16,0,0,1-3.23-6.26,47.38,47.38,0,0,1-1.71-6.83,99.49,99.49,0,0,1-1.35-14c-.15-4.68-.09-9.37.1-14s.53-9.35,1-14v-.08l.06-.08a12.72,12.72,0,0,0,1.73-4.79c.35-1.71.6-3.45.79-5.19.39-3.49.59-7,.74-10.52.27-7,.28-14.07.11-21.1v.06L86.51,203c-.19-1.26-.32-2.53-.47-3.8s-.18-2.55-.25-3.83-.07-2.56,0-3.84a32.22,32.22,0,0,1,1.21-7.6,20.62,20.62,0,0,1,1.41-3.61,11.48,11.48,0,0,1,2.3-3.22l-.15.34a33.18,33.18,0,0,1,.54-7.19c.4-2.36.95-4.69,1.57-7,1.24-4.61,2.75-9.13,4.37-13.61,3.27-8.94,7-17.71,11-26.35l0,0c1.17-3.1,2.36-6.19,3.66-9.23s2.63-6.07,4-9.06c2.83-6,5.84-11.87,9.12-17.63l.32-.56.42.48a92.07,92.07,0,0,1,14.58,23.35,87,87,0,0,1,4.49,13.05,113,113,0,0,1,2.53,13.55c.6,4.55.94,9.14,1.1,13.73s.16,9.18,0,13.76a237.1,237.1,0,0,1-2.65,27.38v0q-.27,14.22-.71,28.43c-.3,9.47-.62,18.94-1.14,28.41-.25,4.73-.54,9.46-.95,14.19A128.54,128.54,0,0,1,141,277.26a136.38,136.38,0,0,1-3.32,13.83A68.28,68.28,0,0,1,132.35,304.26Z" style="fill:#231f20" />
        <g style="opacity:0.2">
            <path d="M146,132.14a50,50,0,0,0-10.14-3,66.78,66.78,0,0,0-10.35-1.07c-1.73,0-3.47,0-5.21.12-.87.06-1.75.05-2.62.16s-1.74.18-2.61.26a25.72,25.72,0,0,0-2.62.34l-2.64.36c-1.75.27-3.5.65-5.32.85q2.41-1.24,5-2.28a51.53,51.53,0,0,1,5.22-1.58c.89-.2,1.79-.4,2.68-.58s1.82-.24,2.73-.37a45.84,45.84,0,0,1,5.5-.28,38.91,38.91,0,0,1,10.87,1.81A25.66,25.66,0,0,1,146,132.14Z" style="fill:#231f20" />
        </g>
        <g style="opacity:0.2">
            <path d="M145.24,182.83a58.74,58.74,0,0,0-13-5.32l-1.67-.46c-.56-.14-1.13-.26-1.69-.39a32.9,32.9,0,0,0-3.4-.66c-1.15-.15-2.27-.44-3.43-.52l-3.45-.32c-1.15-.07-2.3-.08-3.46-.13-.58,0-1.15-.06-1.73,0s-1.16.07-1.74.08c-1.15,0-2.32,0-3.47.12s-2.31.25-3.48.35c-.58.06-1.16.1-1.74.17l-1.73.29-3.48.54c-2.31.41-4.6,1-7,1.38,2.16-1,4.36-2,6.61-2.81l3.45-1,1.74-.5c.58-.13,1.18-.23,1.77-.35,1.18-.23,2.37-.46,3.56-.65s2.41-.23,3.62-.35c.6-.06,1.2-.09,1.81-.13s1.21,0,1.82,0c1.21,0,2.43,0,3.64.07A50.16,50.16,0,0,1,133,175.3,35.41,35.41,0,0,1,145.24,182.83Z" style="fill:#231f20" />
        </g>
        <g style="opacity:0.2">
            <path d="M142.42,249a92.9,92.9,0,0,0-14.76-4.45c-2.51-.5-5-1-7.53-1.23a68.74,68.74,0,0,0-7.58-.5,67.27,67.27,0,0,0-15.09,1.45A83.32,83.32,0,0,0,82.81,249a46.24,46.24,0,0,1,14.07-7,53.81,53.81,0,0,1,7.77-1.71,63.85,63.85,0,0,1,7.94-.47,63.32,63.32,0,0,1,7.92.7,58.09,58.09,0,0,1,7.73,1.77A49.38,49.38,0,0,1,142.42,249Z" style="fill:#231f20" />
        </g>
        <path d="M84,248.52s20.47-17.5,59.61,0" style="fill:none;stroke:#231f20;stroke-miterlimit:10;stroke-width:0.5px" />
        <path d="M91,177.43s32.67-12.16,55.34,6.09" style="fill:none;stroke:#231f20;stroke-miterlimit:10;stroke-width:0.5px" />
        <path d="M105.85,129.34s24.81-7.54,39.36,2.32" style="fill:none;stroke:#231f20;stroke-miterlimit:10;stroke-width:0.5px" />
        <g style="opacity:0.2">
            <path d="M91,261.77c-.25,1.61-.5,3.21-.68,4.82s-.37,3.21-.46,4.82c-.15,3.2-.25,6.5.7,9.46.21.71.57,1.51.82,2.29s.5,1.56.71,2.36c.4,1.59.75,3.18,1,4.79a79.31,79.31,0,0,1,1,9.71c-.27-1.6-.52-3.21-.84-4.8s-.58-3.18-.93-4.76-.71-3.15-1.16-4.69c-.23-.77-.45-1.54-.72-2.29s-.58-1.45-.85-2.29a24.63,24.63,0,0,1-.51-9.84A55.44,55.44,0,0,1,91,261.77Z" style="fill:#231f20" />
        </g>
        <g style="opacity:0.2">
            <path d="M102.76,294a34.84,34.84,0,0,1,1.92,6.4c.22,1.1.41,2.19.53,3.3a13.56,13.56,0,0,1,.07,3.37c-.26-1.1-.57-2.15-.83-3.23s-.52-2.15-.75-3.23A47,47,0,0,1,102.76,294Z" style="fill:#231f20" />
        </g>
        <g style="opacity:0.2">
            <path d="M118.68,290.27A70,70,0,0,1,117,307a71.51,71.51,0,0,1,1.67-16.75Z" style="fill:#231f20" />
        </g>
        <g style="opacity:0.2">
            <path d="M127,286.9a39.59,39.59,0,0,1-.5,10.25,24.44,24.44,0,0,1-1.42,5,10.7,10.7,0,0,1-1.29,2.28,4.56,4.56,0,0,1-2,1.6,4.73,4.73,0,0,0,1.63-1.87,13.23,13.23,0,0,0,1-2.29,40,40,0,0,0,1.17-4.89C126.14,293.65,126.53,290.29,127,286.9Z" style="fill:#231f20" />
        </g>
        <g style="opacity:0.2">
            <path d="M132.35,274a39.16,39.16,0,0,1,2.48,8.24,33.78,33.78,0,0,1,.59,8.64,20.4,20.4,0,0,1-2.27,8.39,16.22,16.22,0,0,1-2.61,3.49,15.67,15.67,0,0,1-3.53,2.49,17.82,17.82,0,0,0,3.17-2.82,16.18,16.18,0,0,0,2.29-3.51,22.6,22.6,0,0,0,2-8.11,42.62,42.62,0,0,0-.36-8.44c-.18-1.41-.43-2.81-.73-4.2S132.73,275.4,132.35,274Z" style="fill:#231f20" />
        </g>
        <g style="opacity:0.2">
            <path d="M86.43,288c1,2,1.77,4.06,2.56,6.1.39,1,.78,2,1.19,3A11,11,0,0,0,91.72,300a6.35,6.35,0,0,1-2.23-2.51,21.58,21.58,0,0,1-1.43-3A26.44,26.44,0,0,1,86.43,288Z" style="fill:#231f20" />
        </g>
        <g style="opacity:0.2">
            <path d="M120.76,308.51a26.06,26.06,0,0,1,1.16,6.16,22.21,22.21,0,0,1,0,3.16,9.71,9.71,0,0,1-.23,1.58,3.8,3.8,0,0,1-.27.78.94.94,0,0,1-.26.34.35.35,0,0,1-.41.05c.3,0,.36-.26.41-.49a4.45,4.45,0,0,0,0-.74c0-.51,0-1-.07-1.53l-.23-3.07A51.8,51.8,0,0,1,120.76,308.51Z" style="fill:#231f20" />
        </g>
        <g style="opacity:0.2">
            <path d="M117,310.52a35.71,35.71,0,0,1,0,11.91,36.43,36.43,0,0,1,0-11.91Z" style="fill:#231f20" />
        </g>
        <g style="opacity:0.2">
            <path d="M110.45,309a41.09,41.09,0,0,1,.5,6.72,39,39,0,0,1-.5,6.73,40.05,40.05,0,0,1-.5-6.73A41.09,41.09,0,0,1,110.45,309Z" style="fill:#231f20" />
        </g>
        <g style="opacity:0.2">
            <path d="M105.28,308.2a45.54,45.54,0,0,1,0,13.46,39.18,39.18,0,0,1-.5-6.73A40.13,40.13,0,0,1,105.28,308.2Z" style="fill:#231f20" />
        </g>
        <g style="opacity:0.2">
            <path d="M90.52,307.14a20.57,20.57,0,0,1,1.68,4.48,20.19,20.19,0,0,1,.72,4.73,22.64,22.64,0,0,1-2.4-9.21Z" style="fill:#231f20" />
        </g>
        <g style="opacity:0.2">
            <path d="M127,309.26a21.12,21.12,0,0,1-.62,6,16.72,16.72,0,0,1-1,2.89,5.14,5.14,0,0,1-1.89,2.42,8.44,8.44,0,0,0,1.16-2.69c.27-1,.51-1.9.75-2.86C125.9,313.12,126.35,311.19,127,309.26Z" style="fill:#231f20" />
        </g>
        <g style="opacity:0.2">
            <path d="M99.12,177.36a1.19,1.19,0,0,1-.64-.55,6,6,0,0,1-.4-.75,11.36,11.36,0,0,1-.52-1.59,24,24,0,0,1-.59-3.24,28.22,28.22,0,0,1,0-6.56,59.92,59.92,0,0,1,1,6.45l.35,3.21c.07.53.13,1.06.23,1.59a6.63,6.63,0,0,0,.18.77A1.18,1.18,0,0,0,99.12,177.36Z" style="fill:#231f20" />
        </g>
        <g style="opacity:0.2">
            <path d="M118.15,159.68c.15,2.55,0,5-.05,7.56l-.2,3.75c0,.62-.06,1.25-.07,1.87a7.22,7.22,0,0,0,0,.93c.05.29,0,.64.3.82-.34-.09-.45-.48-.56-.77a7.62,7.62,0,0,1-.24-.94,15.39,15.39,0,0,1-.23-1.9,34.59,34.59,0,0,1,0-3.81A39,39,0,0,1,118.15,159.68Z" style="fill:#231f20" />
        </g>
        <g style="opacity:0.2">
            <path d="M104,168.61a9.19,9.19,0,0,1,1.12,2.83,14.58,14.58,0,0,1,.26,1.47,14.78,14.78,0,0,0,.18,1.49c-.28-.1-.42-.38-.57-.59a4.52,4.52,0,0,1-.36-.69,8.49,8.49,0,0,1-.48-1.45A7.65,7.65,0,0,1,104,168.61Z" style="fill:#231f20" />
        </g>
        <g style="opacity:0.2">
            <path d="M130.89,163l-.15,3.49c0,1.16-.06,2.31,0,3.47s0,2.3.06,3.46.12,2.31.13,3.5a19.9,19.9,0,0,1-1.19-7,22,22,0,0,1,.27-3.54A14.9,14.9,0,0,1,130.89,163Z" style="fill:#231f20" />
        </g>
        <g style="opacity:0.2">
            <path d="M142,172.88a7.31,7.31,0,0,1,.6,3,8.43,8.43,0,0,1-.12,1.5,4.45,4.45,0,0,1-.48,1.47,11.33,11.33,0,0,1-.4-3A9,9,0,0,1,142,172.88Z" style="fill:#231f20" />
        </g>
        <g style="opacity:0.2">
            <path d="M99.12,175.36c-.45,1.15-1,2.15-1.36,3.19a14.65,14.65,0,0,0-.53,1.58,13.41,13.41,0,0,0-.26,1.71,3.25,3.25,0,0,1-.51-1.8,5.3,5.3,0,0,1,.37-1.85,6.09,6.09,0,0,1,.93-1.6A4.85,4.85,0,0,1,99.12,175.36Z" style="fill:#231f20" />
        </g>
        <g style="opacity:0.2">
            <path d="M105.51,173.4a16.41,16.41,0,0,1,.42,2.77,23.61,23.61,0,0,1,0,2.79,18.64,18.64,0,0,1-.33,2.79,9.35,9.35,0,0,1-.9,2.67c.11-1.87.15-3.67.24-5.5A43.5,43.5,0,0,1,105.51,173.4Z" style="fill:#231f20" />
        </g>
        <g style="opacity:0.2">
            <path d="M111.9,173.15a13,13,0,0,1,.28,2.93,14.27,14.27,0,0,1-.28,2.92,5.66,5.66,0,0,1-.72-2.93A5.83,5.83,0,0,1,111.9,173.15Z" style="fill:#231f20" />
        </g>
        <g style="opacity:0.2">
            <path d="M118.15,174.61c-.06.73-.17,1.42-.28,2.11s-.24,1.35-.32,2a13.14,13.14,0,0,0-.15,2,2.13,2.13,0,0,0,.75,1.72,3,3,0,0,1-.54-.16,3.19,3.19,0,0,1-.46-.38,5.29,5.29,0,0,1-.32-.5c-.07-.18-.13-.37-.2-.55a6.22,6.22,0,0,1-.07-2.23,9.92,9.92,0,0,1,.56-2.09A7.63,7.63,0,0,1,118.15,174.61Z" style="fill:#231f20" />
        </g>
        <g style="opacity:0.2">
            <path d="M130.89,176.94a12.54,12.54,0,0,1,.27,2.8,16.46,16.46,0,0,1-.24,2.8,13.11,13.11,0,0,1-.76,2.72,7.64,7.64,0,0,1-1.48,2.41,36.06,36.06,0,0,0,1.26-5.3C130.26,180.58,130.49,178.78,130.89,176.94Z" style="fill:#231f20" />
        </g>
        <g style="opacity:0.2">
            <path d="M142,178.8a7,7,0,0,1,0,2.78,6.63,6.63,0,0,1-1,2.59,7.69,7.69,0,0,1,.94-5.37Z" style="fill:#231f20" />
        </g>
        <g style="opacity:0.2">
            <path d="M92.63,245.43a1.14,1.14,0,0,1-.67-.53,4.2,4.2,0,0,1-.43-.74,9.85,9.85,0,0,1-.55-1.58,21.43,21.43,0,0,1-.63-3.25,27.41,27.41,0,0,1,0-6.59,60.86,60.86,0,0,1,1,6.47l.4,3.21c.07.53.14,1.07.26,1.59a4.71,4.71,0,0,0,.2.76A1.18,1.18,0,0,0,92.63,245.43Z" style="fill:#231f20" />
        </g>
        <g style="opacity:0.2">
            <path d="M114.2,227.75c.13,2.55,0,5.06-.1,7.57l-.2,3.75c0,.62-.06,1.25-.06,1.87a7.23,7.23,0,0,0,0,.93c0,.29,0,.63.33.81-.34-.08-.48-.47-.59-.75a8.23,8.23,0,0,1-.26-.94,15.55,15.55,0,0,1-.23-1.91,34.6,34.6,0,0,1,0-3.81A38.34,38.34,0,0,1,114.2,227.75Z" style="fill:#231f20" />
        </g>
        <g style="opacity:0.2">
            <path d="M99.85,235.68a9.23,9.23,0,0,1,1.17,2.83c.11.49.22,1,.29,1.47a12.44,12.44,0,0,0,.22,1.49c-.29-.09-.43-.37-.59-.57a5.3,5.3,0,0,1-.38-.7,8.32,8.32,0,0,1-.51-1.45A7.88,7.88,0,0,1,99.85,235.68Z" style="fill:#231f20" />
        </g>
        <g style="opacity:0.2">
            <path d="M128,230.08c-.08,1.19-.14,2.34-.19,3.5s-.08,2.31-.06,3.46,0,2.31.08,3.46.14,2.32.17,3.51a19.49,19.49,0,0,1-1.25-7,21,21,0,0,1,.29-3.54A14,14,0,0,1,128,230.08Z" style="fill:#231f20" />
        </g>
        <g style="opacity:0.2">
            <path d="M140,239.94a7.36,7.36,0,0,1,.6,3,7.59,7.59,0,0,1-.12,1.5,4.18,4.18,0,0,1-.48,1.46,12.1,12.1,0,0,1-.4-3A9.32,9.32,0,0,1,140,239.94Z" style="fill:#231f20" />
        </g>
        <g style="opacity:0.2">
            <path d="M94.63,242.43c-.26.57-.52,1.1-.78,1.62s-.52,1-.73,1.56a12.2,12.2,0,0,0-.56,1.57,9,9,0,0,0-.26,1.73,3.23,3.23,0,0,1-.52-1.83,5.2,5.2,0,0,1,.42-1.87,6.56,6.56,0,0,1,1-1.59A4.71,4.71,0,0,1,94.63,242.43Z" style="fill:#231f20" />
        </g>
        <g style="opacity:0.2">
            <path d="M99.53,240.47a14.49,14.49,0,0,1,.42,2.77,20.13,20.13,0,0,1,0,2.8,17.59,17.59,0,0,1-.35,2.79,8.8,8.8,0,0,1-.94,2.66c.15-1.87.2-3.67.3-5.5A45.41,45.41,0,0,1,99.53,240.47Z" style="fill:#231f20" />
        </g>
        <g style="opacity:0.2">
            <path d="M108.44,240.22a13.49,13.49,0,0,1,.26,2.92,14.87,14.87,0,0,1-.26,2.92,5.43,5.43,0,0,1-.73-2.92A5.71,5.71,0,0,1,108.44,240.22Z" style="fill:#231f20" />
        </g>
        <g style="opacity:0.2">
            <path d="M115.2,241.68c-.08.73-.21,1.43-.34,2.12s-.27,1.36-.35,2a10.22,10.22,0,0,0-.14,2,2.05,2.05,0,0,0,.83,1.69,4.17,4.17,0,0,1-.56-.14,5,5,0,0,1-.48-.36l-.35-.49c-.08-.18-.14-.37-.21-.56a5.76,5.76,0,0,1-.08-2.26,9.6,9.6,0,0,1,.6-2.11A7.28,7.28,0,0,1,115.2,241.68Z" style="fill:#231f20" />
        </g>
        <g style="opacity:0.2">
            <path d="M129,244a11.59,11.59,0,0,1,.26,2.81,15.84,15.84,0,0,1-.27,2.82,13.71,13.71,0,0,1-.81,2.72,7.64,7.64,0,0,1-1.57,2.38,30.61,30.61,0,0,0,1.4-5.29C128.33,247.66,128.58,245.86,129,244Z" style="fill:#231f20" />
        </g>
        <g style="opacity:0.2">
            <path d="M141,246.86a7.12,7.12,0,0,1,0,2.8,6.83,6.83,0,0,1-1,2.58,7.26,7.26,0,0,1,0-2.79A6.9,6.9,0,0,1,141,246.86Z" style="fill:#231f20" />
        </g>
        <g style="opacity:0.2">
            <path d="M111.86,129.59a1.32,1.32,0,0,1-.5-.66,6.16,6.16,0,0,1-.29-.78,14.57,14.57,0,0,1-.39-1.58,29.35,29.35,0,0,1-.41-3.21,29.73,29.73,0,0,1,.17-6.46,45.1,45.1,0,0,1,.82,6.38c.07,1.07.14,2.13.19,3.19l.1,1.59A3.31,3.31,0,0,0,111.86,129.59Z" style="fill:#231f20" />
        </g>
        <g style="opacity:0.30000000000000004">
            <path d="M122.35,111.91a63,63,0,0,1,.14,7.52c0,1.24-.09,2.49-.17,3.73l-.09,1.87c0,.31,0,.62,0,.93s0,.64.16.88c-.28-.18-.33-.56-.42-.85s-.14-.62-.19-.94c-.1-.62-.16-1.25-.2-1.88-.08-1.26-.08-2.52-.05-3.77A42.14,42.14,0,0,1,122.35,111.91Z" style="fill:#231f20" />
        </g>
        <g style="opacity:0.2">
            <path d="M113,120.84a8.39,8.39,0,0,1,.9,2.84,10.28,10.28,0,0,1,.13,1.46c0,.49,0,1,0,1.49a3.1,3.1,0,0,1-.76-1.35,9,9,0,0,1-.34-1.45A7.38,7.38,0,0,1,113,120.84Z" style="fill:#231f20" />
        </g>
        <g style="opacity:0.2">
            <path d="M130.72,115.24c.06,2.36,0,4.66,0,7v3.47c0,1.16,0,2.32-.05,3.5a24.52,24.52,0,0,1-1-7,29.57,29.57,0,0,1,.22-3.52A18,18,0,0,1,130.72,115.24Z" style="fill:#231f20" />
        </g>
        <g style="opacity:0.2">
            <path d="M138,125.11a7.65,7.65,0,0,1,.56,3,9.26,9.26,0,0,1-.11,1.49A5.37,5.37,0,0,1,138,131a9.88,9.88,0,0,1-.44-3A8.76,8.76,0,0,1,138,125.11Z" style="fill:#231f20" />
        </g>
        <g style="opacity:0.2">
            <path d="M111.86,127.59c-.2,1.17-.5,2.2-.75,3.25-.14.52-.24,1-.36,1.57l-.31,1.66a4.85,4.85,0,0,1-.3-3.47,6.74,6.74,0,0,1,.64-1.63A4.79,4.79,0,0,1,111.86,127.59Z" style="fill:#231f20" />
        </g>
        <g style="opacity:0.2">
            <path d="M114.05,125.63a23.92,23.92,0,0,1,.22,8.31,11.21,11.21,0,0,1-.73,2.71c-.06-1.87-.07-3.68,0-5.51A37,37,0,0,1,114.05,125.63Z" style="fill:#231f20" />
        </g>
        <g style="opacity:0.2">
            <path d="M118.25,125.38a10.6,10.6,0,0,1,.35,2.92,11,11,0,0,1-.35,2.92,6.16,6.16,0,0,1-.65-2.92A6.41,6.41,0,0,1,118.25,125.38Z" style="fill:#231f20" />
        </g>
        <g style="opacity:0.2">
            <path d="M123.35,125.84a31.14,31.14,0,0,1-.21,4c-.07.65-.13,1.31-.15,1.94a2.9,2.9,0,0,0,.36,1.84,1.38,1.38,0,0,1-.79-.73,3.45,3.45,0,0,1-.35-1,7.81,7.81,0,0,1-.07-2.1A10,10,0,0,1,123.35,125.84Z" style="fill:#231f20" />
        </g>
        <g style="opacity:0.2">
            <path d="M132.72,128.17a13.38,13.38,0,0,1,.31,2.74,19.46,19.46,0,0,1-.11,2.75,15.8,15.8,0,0,1-.52,2.71,8.84,8.84,0,0,1-1.13,2.53c.28-1.82.46-3.57.66-5.35A53.29,53.29,0,0,1,132.72,128.17Z" style="fill:#231f20" />
        </g>
        <g style="opacity:0.2">
            <path d="M138,131a6.79,6.79,0,0,1,.18,2.75,6.52,6.52,0,0,1-.8,2.62,7,7,0,0,1-.19-2.75A6.75,6.75,0,0,1,138,131Z" style="fill:#231f20" />
        </g>
        <path d="M298.18,319.43s-4.33-4,0-7.18c0,0-5.33-2.35-5.33-7.58l-1.47-18.61,37,2.37,7.79,15.49s1.67,1.64-1.33,6.24c0,0,2.33,3.18,0,5.89C334.85,316.05,314.37,329.9,298.18,319.43Z" style="fill:#f2f2f2;stroke:#231f20;stroke-miterlimit:10" />
        <path d="M292.85,304.67s-6.4-10.42-9.67-34.31c-2.33-17.08-3.33-77.81-3.33-77.81-4-26.39-3.88-52.78,2.22-72.43a91.44,91.44,0,0,1,17.84-32,260.68,260.68,0,0,1,16.77,35.84s18.5,38.83,17.5,53.92c0,0,8,6.48,3.5,29.28,0,0-1,36.3,3.5,41.8,0,0,5,42.47-5,55C336.18,303.92,315,310.87,292.85,304.67Z" style="fill:#fff" />
        <path d="M292.85,304.67a67.65,67.65,0,0,1-5.29-13.17,131.23,131.23,0,0,1-3.32-13.83,128.21,128.21,0,0,1-1.91-14.09c-.41-4.72-.7-9.46-1-14.19-.51-9.47-.83-18.94-1.13-28.41s-.53-18.95-.71-28.43v0a239.12,239.12,0,0,1-2.65-27.38c-.17-4.58-.19-9.18,0-13.76s.5-9.18,1.1-13.73a111.45,111.45,0,0,1,2.53-13.55,88.14,88.14,0,0,1,4.48-13,92.38,92.38,0,0,1,14.59-23.35l.42-.48.32.56c3.28,5.77,6.29,11.65,9.11,17.63q2.13,4.48,4.06,9.06c1.3,3,2.49,6.13,3.65,9.23v0c4,8.64,7.71,17.41,11,26.35,1.62,4.48,3.13,9,4.36,13.61.62,2.3,1.17,4.63,1.57,7a32,32,0,0,1,.54,7.19l-.14-.34a11.68,11.68,0,0,1,2.3,3.22,22.32,22.32,0,0,1,1.41,3.61,31.7,31.7,0,0,1,1.2,7.6c.12,1.28,0,2.56.06,3.84s-.14,2.56-.25,3.83-.28,2.54-.47,3.8L338,207.2v-.06c-.16,7-.15,14.08.12,21.1.14,3.52.35,7,.74,10.52.19,1.74.43,3.48.78,5.19a12.9,12.9,0,0,0,1.74,4.79l.05.08v.08c.51,4.66.83,9.33,1,14s.25,9.36.09,14a98,98,0,0,1-1.34,14,46.14,46.14,0,0,1-1.72,6.83,20.93,20.93,0,0,1-3.23,6.26l0,.05h-.05a76.09,76.09,0,0,1-10.74,2.31,91.18,91.18,0,0,1-10.94.91,80.29,80.29,0,0,1-11-.52A70.23,70.23,0,0,1,292.85,304.67Zm0,0a70.37,70.37,0,0,0,10.76,2,81.57,81.57,0,0,0,10.94.43,90.64,90.64,0,0,0,10.91-1,76.14,76.14,0,0,0,10.67-2.38l-.09.06a20.86,20.86,0,0,0,3.12-6.17,47.83,47.83,0,0,0,1.64-6.78,101.45,101.45,0,0,0,1.28-13.92c.15-4.67.08-9.34-.13-14s-.55-9.33-1.07-14l.07.16a8,8,0,0,1-1.2-2.47,23.87,23.87,0,0,1-.67-2.58c-.36-1.74-.61-3.5-.81-5.25-.4-3.51-.62-7-.77-10.56-.29-7.05-.32-14.09-.18-21.15v-.06l.64-3.74c.18-1.25.3-2.51.45-3.76s.17-2.52.23-3.78.06-2.52-.06-3.78a30.91,30.91,0,0,0-1.2-7.41,20.42,20.42,0,0,0-1.36-3.48,11,11,0,0,0-2.1-3l-.16-.15v-.19a32.42,32.42,0,0,0-.55-7c-.4-2.32-1-4.63-1.57-6.91-1.24-4.57-2.76-9.07-4.38-13.52-3.29-8.91-7-17.66-11-26.25v0c-1.17-3.08-2.36-6.15-3.66-9.18s-2.63-6-4-9c-2.79-6-5.79-11.85-9-17.58l.75.08a91.22,91.22,0,0,0-14.48,23.07,86.3,86.3,0,0,0-4.47,12.9,109.57,109.57,0,0,0-2.55,13.45c-.61,4.53-1,9.09-1.13,13.65s-.19,9.15,0,13.72a238.2,238.2,0,0,0,2.57,27.31v0c.32,19,.8,37.9,1.65,56.83.22,4.73.47,9.46.84,14.18a128.1,128.1,0,0,0,1.8,14.08,136.68,136.68,0,0,0,3.2,13.84A68.06,68.06,0,0,0,292.85,304.67Z" style="fill:#231f20" />
        <g style="opacity:0.2">
            <path d="M279.18,132.56a25.62,25.62,0,0,1,9.56-5.27,39,39,0,0,1,10.87-1.81,46,46,0,0,1,5.51.28c.91.13,1.83.17,2.72.37s1.8.38,2.68.58a48.61,48.61,0,0,1,5.23,1.59q2.53,1,4.94,2.27c-1.82-.2-3.56-.57-5.32-.85l-2.63-.36c-.88-.13-1.74-.29-2.62-.34s-1.75-.16-2.62-.26-1.74-.1-2.61-.16c-1.74-.15-3.48-.09-5.21-.12a68,68,0,0,0-10.35,1.07A50.31,50.31,0,0,0,279.18,132.56Z" style="fill:#231f20" />
        </g>
        <g style="opacity:0.2">
            <path d="M280,183.24a35.46,35.46,0,0,1,12.23-7.53,50.31,50.31,0,0,1,14.18-3.13c1.21-.06,2.43,0,3.64-.07.61,0,1.21,0,1.82,0s1.21.07,1.81.13c1.21.12,2.42.18,3.61.35s2.39.42,3.57.65c.59.12,1.18.22,1.77.35l1.74.5,3.45,1c2.25.82,4.45,1.79,6.6,2.8-2.37-.38-4.66-1-7-1.38l-3.48-.54-1.72-.29c-.58-.07-1.17-.11-1.75-.17-1.16-.1-2.32-.21-3.47-.35s-2.32-.08-3.48-.12c-.58,0-1.15,0-1.73-.08s-1.16,0-1.73,0c-1.16.05-2.32.06-3.47.13l-3.45.32c-1.15.09-2.27.37-3.42.52a30.49,30.49,0,0,0-3.4.67c-.56.13-1.13.24-1.69.38l-1.68.46A58.66,58.66,0,0,0,280,183.24Z" style="fill:#231f20" />
        </g>
        <g style="opacity:0.2">
            <path d="M282.77,249.42A49.7,49.7,0,0,1,297,242.71a58,58,0,0,1,7.72-1.77,53.65,53.65,0,0,1,15.87-.22,52.49,52.49,0,0,1,7.77,1.7,46.42,46.42,0,0,1,14.06,7,83.05,83.05,0,0,0-14.65-4.73,67.71,67.71,0,0,0-15.08-1.45,68.75,68.75,0,0,0-7.58.51c-2.52.26-5,.72-7.53,1.22A92.7,92.7,0,0,0,282.77,249.42Z" style="fill:#231f20" />
        </g>
        <path d="M341.18,248.93s-20.47-17.5-59.61,0" style="fill:none;stroke:#231f20;stroke-miterlimit:10;stroke-width:0.5px" />
        <path d="M334.18,177.85s-32.67-12.17-55.33,6.08" style="fill:none;stroke:#231f20;stroke-miterlimit:10;stroke-width:0.5px" />
        <path d="M319.34,129.75s-24.8-7.54-39.36,2.32" style="fill:none;stroke:#231f20;stroke-miterlimit:10;stroke-width:0.5px" />
        <g style="opacity:0.2">
            <path d="M334.18,262.18a54.54,54.54,0,0,1,1.91,9.58,24.63,24.63,0,0,1-.51,9.84c-.27.84-.59,1.52-.85,2.29s-.5,1.52-.72,2.29c-.45,1.54-.8,3.12-1.17,4.69s-.65,3.17-.93,4.76-.56,3.2-.83,4.8a77.39,77.39,0,0,1,1-9.71c.26-1.61.61-3.2,1-4.79.21-.79.45-1.58.71-2.36s.61-1.57.83-2.29c.94-3,.85-6.26.7-9.46-.1-1.61-.25-3.22-.46-4.82S334.44,263.79,334.18,262.18Z" style="fill:#231f20" />
        </g>
        <g style="opacity:0.2">
            <path d="M322.43,294.43a45.34,45.34,0,0,1-.93,6.61c-.24,1.08-.48,2.16-.75,3.23s-.58,2.14-.83,3.23a14.06,14.06,0,0,1,.06-3.37c.12-1.11.32-2.2.54-3.29A34.67,34.67,0,0,1,322.43,294.43Z" style="fill:#231f20" />
        </g>
        <g style="opacity:0.2">
            <path d="M306.51,290.68a64.19,64.19,0,0,1,1.34,8.33,62.15,62.15,0,0,1,.33,8.42,62.09,62.09,0,0,1-1.33-8.32A64,64,0,0,1,306.51,290.68Z" style="fill:#231f20" />
        </g>
        <g style="opacity:0.2">
            <path d="M298.18,287.31c.49,3.39.88,6.75,1.49,10.07a38.25,38.25,0,0,0,1.17,4.89,13.19,13.19,0,0,0,1,2.29,4.89,4.89,0,0,0,1.63,1.87,4.62,4.62,0,0,1-2-1.6,10.66,10.66,0,0,1-1.28-2.28,24.44,24.44,0,0,1-1.42-5A39.6,39.6,0,0,1,298.18,287.31Z" style="fill:#231f20" />
        </g>
        <g style="opacity:0.2">
            <path d="M292.85,274.43c-.38,1.39-.73,2.77-1,4.17s-.54,2.79-.72,4.2a41.91,41.91,0,0,0-.36,8.44,22.4,22.4,0,0,0,2,8.11,16.13,16.13,0,0,0,2.28,3.51,18.17,18.17,0,0,0,3.17,2.82,15.61,15.61,0,0,1-3.52-2.49,16,16,0,0,1-2.61-3.49,20.41,20.41,0,0,1-2.28-8.39,34.24,34.24,0,0,1,.6-8.64A39.34,39.34,0,0,1,292.85,274.43Z" style="fill:#231f20" />
        </g>
        <g style="opacity:0.2">
            <path d="M338.77,288.43a26.63,26.63,0,0,1-1.63,6.46,22,22,0,0,1-1.43,3,6.35,6.35,0,0,1-2.23,2.51,11.27,11.27,0,0,0,1.53-2.86c.42-1,.8-2,1.19-3C337,292.49,337.77,290.44,338.77,288.43Z" style="fill:#231f20" />
        </g>
        <g style="opacity:0.2">
            <path d="M304.43,308.92a51.76,51.76,0,0,1-.15,6.24l-.23,3.07c0,.51-.07,1-.07,1.53a4.65,4.65,0,0,0,0,.75c0,.22.11.51.4.48a.34.34,0,0,1-.4-.05.94.94,0,0,1-.26-.34,3.84,3.84,0,0,1-.28-.78,9.53,9.53,0,0,1-.22-1.58,22.07,22.07,0,0,1,0-3.15A26.55,26.55,0,0,1,304.43,308.92Z" style="fill:#231f20" />
        </g>
        <g style="opacity:0.2">
            <path d="M308.18,310.93a31.56,31.56,0,0,1,.5,6,30.65,30.65,0,0,1-.5,5.95,35.71,35.71,0,0,1,0-11.91Z" style="fill:#231f20" />
        </g>
        <g style="opacity:0.2">
            <path d="M314.75,309.43a45.48,45.48,0,0,1,0,13.45,45.48,45.48,0,0,1,0-13.45Z" style="fill:#231f20" />
        </g>
        <g style="opacity:0.2">
            <path d="M319.92,308.61a45.54,45.54,0,0,1,0,13.46,39.18,39.18,0,0,1-.5-6.73A40.21,40.21,0,0,1,319.92,308.61Z" style="fill:#231f20" />
        </g>
        <g style="opacity:0.2">
            <path d="M334.68,307.55a23.08,23.08,0,0,1-2.4,9.21,23.08,23.08,0,0,1,2.4-9.21Z" style="fill:#231f20" />
        </g>
        <g style="opacity:0.2">
            <path d="M298.18,309.67c.67,1.93,1.11,3.86,1.6,5.79.23,1,.48,1.91.74,2.86a8.67,8.67,0,0,0,1.16,2.69,5.2,5.2,0,0,1-1.89-2.42,17.57,17.57,0,0,1-1-2.89A21.49,21.49,0,0,1,298.18,309.67Z" style="fill:#231f20" />
        </g>
        <g style="opacity:0.2">
            <path d="M326.08,177.77a1.18,1.18,0,0,0,.39-.67,6.63,6.63,0,0,0,.18-.77c.1-.53.16-1.06.23-1.59l.35-3.21a58.25,58.25,0,0,1,1-6.45,27.68,27.68,0,0,1,0,6.56,24.06,24.06,0,0,1-.58,3.25,13.26,13.26,0,0,1-.52,1.58,5.4,5.4,0,0,1-.4.75A1.15,1.15,0,0,1,326.08,177.77Z" style="fill:#231f20" />
        </g>
        <g style="opacity:0.2">
            <path d="M307.05,160.09a39.14,39.14,0,0,1,1.05,7.51,34.59,34.59,0,0,1,0,3.81,15.39,15.39,0,0,1-.23,1.9,7.62,7.62,0,0,1-.24.94c-.11.29-.23.68-.56.77.26-.18.25-.53.3-.82a7.22,7.22,0,0,0,0-.93c0-.62,0-1.25-.06-1.87l-.2-3.75A73.23,73.23,0,0,1,307.05,160.09Z" style="fill:#231f20" />
        </g>
        <g style="opacity:0.2">
            <path d="M321.25,169a7.84,7.84,0,0,1-.15,3.06,8.49,8.49,0,0,1-.48,1.45,5.15,5.15,0,0,1-.36.7c-.15.2-.29.48-.57.58a14.78,14.78,0,0,0,.18-1.49,12.22,12.22,0,0,1,.26-1.47A9,9,0,0,1,321.25,169Z" style="fill:#231f20" />
        </g>
        <g style="opacity:0.2">
            <path d="M294.31,163.43a14.9,14.9,0,0,1,.92,3.42,22,22,0,0,1,.27,3.54,20.13,20.13,0,0,1-1.19,7c0-1.19.09-2.34.12-3.5s.07-2.31.07-3.46,0-2.31-.05-3.47Z" style="fill:#231f20" />
        </g>
        <g style="opacity:0.2">
            <path d="M283.2,173.29a9.29,9.29,0,0,1,.4,3,11.75,11.75,0,0,1-.4,3,4.23,4.23,0,0,1-.48-1.47,7.59,7.59,0,0,1-.12-1.5A7.35,7.35,0,0,1,283.2,173.29Z" style="fill:#231f20" />
        </g>
        <g style="opacity:0.2">
            <path d="M326.08,175.77a4.85,4.85,0,0,1,1.36,1.23,6.38,6.38,0,0,1,.93,1.6,5.3,5.3,0,0,1,.37,1.85,3.33,3.33,0,0,1-.51,1.8,12,12,0,0,0-.27-1.71,13.75,13.75,0,0,0-.52-1.57C327,177.92,326.53,176.92,326.08,175.77Z" style="fill:#231f20" />
        </g>
        <g style="opacity:0.2">
            <path d="M319.69,173.81a45.41,45.41,0,0,1,.54,5.52c.09,1.83.13,3.63.24,5.5a8.77,8.77,0,0,1-.9-2.67,18.68,18.68,0,0,1-.34-2.78,23.75,23.75,0,0,1,0-2.8A15.46,15.46,0,0,1,319.69,173.81Z" style="fill:#231f20" />
        </g>
        <g style="opacity:0.2">
            <path d="M313.3,173.56a5.93,5.93,0,0,1,.72,2.92,5.66,5.66,0,0,1-.72,2.93,13.54,13.54,0,0,1-.28-2.92A12.42,12.42,0,0,1,313.3,173.56Z" style="fill:#231f20" />
        </g>
        <g style="opacity:0.2">
            <path d="M307.05,175a8,8,0,0,1,1,1.9,9.92,9.92,0,0,1,.56,2.09,6.46,6.46,0,0,1-.07,2.23c-.07.18-.13.37-.2.55s-.22.34-.32.5a3.19,3.19,0,0,1-.46.38,3,3,0,0,1-.54.16,2.19,2.19,0,0,0,.75-1.72,13.14,13.14,0,0,0-.15-2c-.08-.67-.22-1.34-.32-2S307.11,175.75,307.05,175Z" style="fill:#231f20" />
        </g>
        <g style="opacity:0.2">
            <path d="M294.31,177.35c.39,1.84.63,3.64.95,5.43a34.83,34.83,0,0,0,1.26,5.3,7.3,7.3,0,0,1-1.48-2.41,13.79,13.79,0,0,1-.77-2.72,17.53,17.53,0,0,1-.23-2.8A11.47,11.47,0,0,1,294.31,177.35Z" style="fill:#231f20" />
        </g>
        <g style="opacity:0.2">
            <path d="M283.2,179.21a7.16,7.16,0,0,1,1,2.59,6.86,6.86,0,0,1,0,2.78,7,7,0,0,1-1-2.59A6.86,6.86,0,0,1,283.2,179.21Z" style="fill:#231f20" />
        </g>
        <g style="opacity:0.2">
            <path d="M332.57,245.84a1.12,1.12,0,0,0,.42-.66,4.73,4.73,0,0,0,.21-.76c.11-.52.18-1.06.26-1.59l.4-3.21a60.86,60.86,0,0,1,1-6.47,27.41,27.41,0,0,1,0,6.59,22.74,22.74,0,0,1-.63,3.25,11,11,0,0,1-.56,1.58,4.62,4.62,0,0,1-.42.75A1.16,1.16,0,0,1,332.57,245.84Z" style="fill:#231f20" />
        </g>
        <g style="opacity:0.2">
            <path d="M311,228.16a38.32,38.32,0,0,1,1.09,7.52,32.29,32.29,0,0,1,0,3.81,15.58,15.58,0,0,1-.24,1.91,8.16,8.16,0,0,1-.25.94c-.12.29-.25.67-.59.75.27-.17.28-.52.33-.81a7.23,7.23,0,0,0,0-.93c0-.62,0-1.24-.06-1.87l-.21-3.75C311,233.22,310.87,230.71,311,228.16Z" style="fill:#231f20" />
        </g>
        <g style="opacity:0.2">
            <path d="M325.35,236.09a7.88,7.88,0,0,1-.2,3.07,9.35,9.35,0,0,1-.51,1.46,7.87,7.87,0,0,1-.38.69c-.16.2-.31.48-.59.57a12.15,12.15,0,0,0,.22-1.49,12.32,12.32,0,0,1,.29-1.47A9.23,9.23,0,0,1,325.35,236.09Z" style="fill:#231f20" />
        </g>
        <g style="opacity:0.2">
            <path d="M297.22,230.49a14.06,14.06,0,0,1,1,3.42,21.07,21.07,0,0,1,.28,3.55,19,19,0,0,1-1.25,7c0-1.19.13-2.35.17-3.51s.08-2.3.08-3.46,0-2.3-.06-3.46S297.3,231.68,297.22,230.49Z" style="fill:#231f20" />
        </g>
        <g style="opacity:0.2">
            <path d="M285.21,240.36a8.94,8.94,0,0,1,.39,3,11.75,11.75,0,0,1-.39,3,4.47,4.47,0,0,1-.49-1.47,9.48,9.48,0,0,1-.12-1.5A7.29,7.29,0,0,1,285.21,240.36Z" style="fill:#231f20" />
        </g>
        <g style="opacity:0.2">
            <path d="M330.57,242.84A5.13,5.13,0,0,1,332,244a6.52,6.52,0,0,1,1,1.59,5,5,0,0,1,.42,1.87,3.15,3.15,0,0,1-.51,1.83,9.83,9.83,0,0,0-.26-1.73,12.2,12.2,0,0,0-.56-1.57c-.21-.52-.48-1-.73-1.55S330.82,243.41,330.57,242.84Z" style="fill:#231f20" />
        </g>
        <g style="opacity:0.2">
            <path d="M325.67,240.88a47.5,47.5,0,0,1,.54,5.52c.1,1.84.15,3.63.3,5.5a8.73,8.73,0,0,1-.95-2.66,18.83,18.83,0,0,1-.35-2.79,23.81,23.81,0,0,1,0-2.8A15.48,15.48,0,0,1,325.67,240.88Z" style="fill:#231f20" />
        </g>
        <g style="opacity:0.2">
            <path d="M316.76,240.63a5.84,5.84,0,0,1,.73,2.92,5.43,5.43,0,0,1-.73,2.92,14.17,14.17,0,0,1-.27-2.92A12.91,12.91,0,0,1,316.76,240.63Z" style="fill:#231f20" />
        </g>
        <g style="opacity:0.2">
            <path d="M310,242.09a7.77,7.77,0,0,1,1.08,1.9,9.37,9.37,0,0,1,.6,2.1,5.76,5.76,0,0,1-.08,2.26l-.21.56-.35.5c-.17.12-.33.25-.49.35a4.45,4.45,0,0,1-.55.14,2.07,2.07,0,0,0,.83-1.69,10.22,10.22,0,0,0-.14-2c-.09-.67-.24-1.35-.36-2S310.08,242.83,310,242.09Z" style="fill:#231f20" />
        </g>
        <g style="opacity:0.2">
            <path d="M296.22,244.42c.4,1.85.65,3.65,1,5.44a30.57,30.57,0,0,0,1.39,5.29,7.34,7.34,0,0,1-1.56-2.38,13.1,13.1,0,0,1-.82-2.72,16.73,16.73,0,0,1-.27-2.82A12.11,12.11,0,0,1,296.22,244.42Z" style="fill:#231f20" />
        </g>
        <g style="opacity:0.2">
            <path d="M284.21,247.28a7,7,0,0,1,1,2.58,7.07,7.07,0,0,1,0,2.79,6.81,6.81,0,0,1-1-2.58A6.89,6.89,0,0,1,284.21,247.28Z" style="fill:#231f20" />
        </g>
        <g style="opacity:0.2">
            <path d="M313.34,130a3.44,3.44,0,0,0,.31-1.53l.09-1.59c.05-1.06.12-2.12.19-3.19a48.22,48.22,0,0,1,.82-6.38,29.74,29.74,0,0,1,.18,6.46,29.35,29.35,0,0,1-.41,3.21,14.57,14.57,0,0,1-.39,1.58c-.09.26-.18.53-.29.78A1.38,1.38,0,0,1,313.34,130Z" style="fill:#231f20" />
        </g>
        <g style="opacity:0.30000000000000004">
            <path d="M302.85,112.32a42.13,42.13,0,0,1,.85,7.49c0,1.25,0,2.51,0,3.77,0,.63-.11,1.26-.2,1.88-.06.32-.11.63-.19.94s-.14.67-.42.85c.19-.24.13-.58.15-.88s0-.62,0-.93l-.1-1.87c-.07-1.24-.12-2.49-.16-3.73A61,61,0,0,1,302.85,112.32Z" style="fill:#231f20" />
        </g>
        <g style="opacity:0.2">
            <path d="M312.17,121.25a7.75,7.75,0,0,1,.08,3,8.06,8.06,0,0,1-.35,1.45,3.18,3.18,0,0,1-.75,1.35c0-.5,0-1,0-1.49a14.39,14.39,0,0,1,.13-1.46A8.64,8.64,0,0,1,312.17,121.25Z" style="fill:#231f20" />
        </g>
        <g style="opacity:0.2">
            <path d="M294.48,115.65a18,18,0,0,1,.74,3.45,27.6,27.6,0,0,1,.21,3.52,24.16,24.16,0,0,1-.95,7c-.07-1.18-.05-2.34-.05-3.5v-3.46C294.45,120.31,294.42,118,294.48,115.65Z" style="fill:#231f20" />
        </g>
        <g style="opacity:0.2">
            <path d="M287.18,125.52a8.76,8.76,0,0,1,.44,3,9.88,9.88,0,0,1-.44,3,4.79,4.79,0,0,1-.45-1.47,8.42,8.42,0,0,1-.11-1.5A7.47,7.47,0,0,1,287.18,125.52Z" style="fill:#231f20" />
        </g>
        <g style="opacity:0.2">
            <path d="M313.34,128a4.79,4.79,0,0,1,1.08,1.38,7.67,7.67,0,0,1,.64,1.63,4.85,4.85,0,0,1-.31,3.47l-.3-1.66c-.12-.53-.22-1-.36-1.57C313.84,130.2,313.53,129.17,313.34,128Z" style="fill:#231f20" />
        </g>
        <g style="opacity:0.2">
            <path d="M311.15,126a35.65,35.65,0,0,1,.52,5.51c.05,1.83.05,3.64,0,5.51a11.09,11.09,0,0,1-.73-2.71,23.38,23.38,0,0,1-.26-2.77A22,22,0,0,1,311.15,126Z" style="fill:#231f20" />
        </g>
        <g style="opacity:0.2">
            <path d="M307,125.79a6.43,6.43,0,0,1,.64,2.92,6.22,6.22,0,0,1-.64,2.93,11.14,11.14,0,0,1-.36-2.93A10.66,10.66,0,0,1,307,125.79Z" style="fill:#231f20" />
        </g>
        <g style="opacity:0.2">
            <path d="M301.85,126.25a10,10,0,0,1,1.2,3.94,7.8,7.8,0,0,1-.06,2.1,3.65,3.65,0,0,1-.35,1,1.41,1.41,0,0,1-.79.73,3,3,0,0,0,.36-1.84c0-.63-.09-1.29-.15-1.94A29.38,29.38,0,0,1,301.85,126.25Z" style="fill:#231f20" />
        </g>
        <g style="opacity:0.2">
            <path d="M292.48,128.58c.39,1.81.57,3.6.79,5.38s.38,3.53.66,5.35a8.84,8.84,0,0,1-1.13-2.53,16.85,16.85,0,0,1-.53-2.71,21.08,21.08,0,0,1-.11-2.75A14.13,14.13,0,0,1,292.48,128.58Z" style="fill:#231f20" />
        </g>
        <g style="opacity:0.2">
            <path d="M287.18,131.44a6.91,6.91,0,0,1,.8,2.62,6.8,6.8,0,0,1-.18,2.75,6.65,6.65,0,0,1-.81-2.62A7,7,0,0,1,287.18,131.44Z" style="fill:#231f20" />
        </g>
    </g>
</svg>