<svg id="sleevet" xmlns="http://www.w3.org/2000/svg" viewBox="0 0 425.2 425.2">
    <g id="sleevet" data-name="Layer 2">
        <path id="sleevet" d="M132.72,86.53s-11.9-6.52-26.24,9.9c0,0-6.89,12-7.18,19,0,0-12.91,20.3-12.62,41.82,0,0-15.21,27.08-8,37,0,0,9.75,11.1,9.46,15,0,0,8,5.32,16.61,6.48,0,0,12.37-4.63,23.56,1.85,0,0,17.18-5.32,17.91-6.71,0,0,.45-7.17,1.6-8.78,0,0,2-19.39,0-30.53,0,0-3.26-5.84-2.24-11.23C145.55,160.34,156.69,98.27,132.72,86.53Z" style="fill:#fff;stroke:#231f20;stroke-miterlimit:10" />
        <path d="M132.16,86.53s-11.89-6.52-26.24,9.9c0,0-6.88,12-7.17,19,0,0-12.91,20.3-12.62,41.82,0,0-15.21,27.08-8,37,0,0,9.76,11.1,9.47,15,0,0,8,5.32,16.61,6.48,0,0,12.37-4.63,23.56,1.85,0,0,17.17-5.32,17.91-6.71,0,0,.45-7.17,1.6-8.78,0,0,1.94-19.39,0-30.53,0,0-3.27-5.84-2.24-11.23C145,160.34,156.14,98.27,132.16,86.53Z" style="fill:#fff;stroke:#231f20;stroke-miterlimit:10" />
        <g style="opacity:0.5">
            <path id="SVGID" d="M132,86.53s-11.9-6.52-26.24,9.89c0,0-6.89,12-7.18,19,0,0-12.91,20.3-12.62,41.83,0,0-15.21,27.08-8,37,0,0,9.75,11.1,9.46,15,0,0,8,5.32,16.61,6.47,0,0,12.37-4.62,23.56,1.85,0,0,17.18-5.31,17.91-6.7,0,0,.45-7.17,1.6-8.79,0,0,2-19.38,0-30.52,0,0-3.26-5.85-2.24-11.23C144.8,160.34,155.94,98.27,132,86.53Z" style="fill:none;stroke:#231f20;stroke-miterlimit:10" />
        </g>
        <path d="M104.33,219.59c.25-.13.76-.35,1.16-.52s.89-.36,1.35-.51c.91-.31,1.85-.59,2.79-.82l-1.8-7.28c-1.17.29-2.33.63-3.48,1-.57.19-1.14.43-1.71.65s-1.1.46-1.82.83Z" style="fill:none" />
        <polygon points="107.02 214.29 107.23 215.01 108.38 214.68 108.19 213.95 107.02 214.29" style="fill:#231f20;fill-rule:evenodd" />
        <path d="M104.93,215l.27.7c.37-.14.75-.26,1.13-.39l-.24-.71C105.7,214.71,105.31,214.83,104.93,215Z" style="fill:#231f20;fill-rule:evenodd" />
        <path d="M102.91,215.82l.32.68c.35-.17.72-.32,1.09-.48l-.29-.69C103.66,215.49,103.28,215.64,102.91,215.82Z" style="fill:#231f20;fill-rule:evenodd" />
        <path d="M109.63,217.74a30.47,30.47,0,0,1,5.76-.86L115,209.4a36.83,36.83,0,0,0-7.17,1.06Z" style="fill:none" />
        <polygon points="113.47 213.01 113.55 213.76 114.74 213.64 114.69 212.89 113.47 213.01" style="fill:#231f20;fill-rule:evenodd" />
        <path d="M111.3,213.3l.12.74c.4-.06.79-.14,1.19-.19l-.1-.74C112.1,213.16,111.7,213.24,111.3,213.3Z" style="fill:#231f20;fill-rule:evenodd" />
        <path d="M109.15,213.73l.17.73c.39-.09.78-.19,1.17-.26l-.14-.74C110,213.54,109.55,213.64,109.15,213.73Z" style="fill:#231f20;fill-rule:evenodd" />
        <path d="M115.39,216.88l1.44,0c.48,0,1,0,1.44,0a22.72,22.72,0,0,1,2.86.3l1.17-7.41a29.91,29.91,0,0,0-3.65-.38c-.61,0-1.22-.08-1.83-.06l-1.82.06Z" style="fill:none" />
        <polygon points="120.06 212.99 119.98 213.74 121.17 213.9 121.27 213.15 120.06 212.99" style="fill:#231f20;fill-rule:evenodd" />
        <polygon points="117.87 212.85 117.84 213.6 119.04 213.66 119.09 212.91 117.87 212.85" style="fill:#231f20;fill-rule:evenodd" />
        <polygon points="115.68 212.86 115.71 213.61 116.9 213.57 116.9 212.82 115.68 212.86" style="fill:#231f20;fill-rule:evenodd" />
        <path d="M121.13,217.19a8.25,8.25,0,0,1,1.4.27l1.4.32c.91.26,1.8.6,2.71.89l2.76-7c-1.17-.39-2.32-.81-3.5-1.15l-1.79-.42a14.06,14.06,0,0,0-1.81-.34Z" style="fill:none" />
        <polygon points="126.5 214.38 126.26 215.1 127.39 215.48 127.66 214.78 126.5 214.38" style="fill:#231f20;fill-rule:evenodd" />
        <path d="M124.39,213.76l-.18.73a11.43,11.43,0,0,1,1.15.3l.21-.72A9.29,9.29,0,0,0,124.39,213.76Z" style="fill:#231f20;fill-rule:evenodd" />
        <path d="M122.25,213.29l-.13.74c.4.05.78.17,1.17.25l.16-.73C123.05,213.46,122.66,213.35,122.25,213.29Z" style="fill:#231f20;fill-rule:evenodd" />
        <path d="M126.64,218.67l2.61,1.2,2.49,1.47,4.14-6.25-3.15-1.86c-1.1-.53-2.22-1-3.33-1.54Z" style="fill:none" />
        <polygon points="132.48 217.12 132.1 217.77 133.13 218.37 133.54 217.74 132.48 217.12" style="fill:#231f20;fill-rule:evenodd" />
        <path d="M130.57,216.05l-.34.67a8.12,8.12,0,0,1,1.05.56l.37-.65A9.37,9.37,0,0,0,130.57,216.05Z" style="fill:#231f20;fill-rule:evenodd" />
        <polygon points="128.57 215.14 128.29 215.83 129.37 216.33 129.69 215.65 128.57 215.14" style="fill:#231f20;fill-rule:evenodd" />
        <path d="M87.85,180.82a55.53,55.53,0,0,0,.59,10.42,40,40,0,0,0,2.79,9.94,26.81,26.81,0,0,0,5.72,8.5,22,22,0,0,0,4,3.21,29.78,29.78,0,0,0,4.63,2.39,22.91,22.91,0,0,1-9.2-5,25,25,0,0,1-6.11-8.66,35.35,35.35,0,0,1-2.63-10.24A40.26,40.26,0,0,1,87.85,180.82Z" style="fill:#231f20" />
        <path d="M98.18,193.77a30.79,30.79,0,0,0,1.28,5.91,27,27,0,0,0,2.4,5.47,23.39,23.39,0,0,0,3.53,4.8,31,31,0,0,0,4.55,4,19.33,19.33,0,0,1-5.1-3.42,20.7,20.7,0,0,1-2.13-2.26,25.84,25.84,0,0,1-1.72-2.59,22,22,0,0,1-2.28-5.76A19.44,19.44,0,0,1,98.18,193.77Z" style="fill:#231f20" />
        <path d="M119.69,187.07c-.13,2.25-.34,4.49-.56,6.73s-.47,4.48-.7,6.71l-.72,6.7c-.12,1.12-.23,2.24-.29,3.35a18,18,0,0,0,0,3.36,24,24,0,0,1-.46-6.76c0-2.26.27-4.51.5-6.75s.55-4.48.93-6.71S119.16,189.26,119.69,187.07Z" style="fill:#231f20" />
        <path d="M134,185.45a77.11,77.11,0,0,1-1.41,8c-.58,2.63-1.32,5.23-2.15,7.8a53,53,0,0,1-3,7.51,39.81,39.81,0,0,1-2,3.53l-1.25,1.61c-.46.5-1,1-1.44,1.42l1.23-1.59,1-1.7c.62-1.18,1.24-2.36,1.75-3.6,1-2.45,2-4.95,2.8-7.49s1.6-5.11,2.35-7.68c.37-1.29.73-2.59,1.08-3.88Z" style="fill:#231f20" />
        <path d="M141.5,200.37a20.16,20.16,0,0,1-2.52,5.12,30.32,30.32,0,0,1-3.63,4.44,32.8,32.8,0,0,1-4.39,3.68c-.76.58-1.6,1-2.41,1.54s-1.69.89-2.54,1.29c1.52-1.14,3-2.25,4.48-3.45l1.08-.9,1-.94c.71-.6,1.36-1.28,2-1.92a49.28,49.28,0,0,0,3.71-4.2A37.31,37.31,0,0,0,141.5,200.37Z" style="fill:#231f20" />
        <path d="M96.63,134.81a94.09,94.09,0,0,1-3.79,10.6c-.74,1.73-1.49,3.44-2.33,5.13a26.19,26.19,0,0,1-2.87,4.86,20.18,20.18,0,0,0,1.12-2.57l1-2.61c.68-1.74,1.4-3.47,2.12-5.2C93.38,141.58,94.88,138.14,96.63,134.81Z" style="fill:#231f20" />
        <path d="M99.9,150.54a29.24,29.24,0,0,0,1.25,3.43c.24.56.49,1.12.75,1.67s.54,1.08.84,1.61a32.94,32.94,0,0,0,4.13,5.93,30.68,30.68,0,0,0,5.29,4.89,40.19,40.19,0,0,0,6.27,3.73c-.58-.19-1.16-.39-1.74-.61a15,15,0,0,1-1.72-.68,28.43,28.43,0,0,1-3.24-1.8,25.07,25.07,0,0,1-3-2.23c-.48-.39-.89-.86-1.35-1.29l-.66-.65-.61-.71a26.25,26.25,0,0,1-4-6.23A23.66,23.66,0,0,1,99.9,150.54Z" style="fill:#231f20" />
        <path d="M112.14,154.23a22.55,22.55,0,0,1,5.23,1.59,28.88,28.88,0,0,1,4.82,2.63c.76.51,1.48,1.09,2.2,1.65a25.54,25.54,0,0,1,2,1.88,22.15,22.15,0,0,1,3.34,4.33c-1.27-1.31-2.5-2.61-3.87-3.77a40.45,40.45,0,0,0-4.24-3.26,46.26,46.26,0,0,0-4.6-2.76A50.77,50.77,0,0,0,112.14,154.23Z" style="fill:#231f20" />
        <path d="M104.06,105.21a29.66,29.66,0,0,1-2.21,5.32,29,29,0,0,1-3.1,4.86,29,29,0,0,1,2.21-5.32A29.37,29.37,0,0,1,104.06,105.21Z" style="fill:#231f20" />
        <path d="M116.36,107.29c-.87,1.44-1.69,2.89-2.51,4.33s-1.58,2.9-2.26,4.4a29.68,29.68,0,0,0-1.75,4.59,15.59,15.59,0,0,0-.68,4.87,10.9,10.9,0,0,1-.08-5,20.32,20.32,0,0,1,1.61-4.83,30.67,30.67,0,0,1,2.5-4.39A29.21,29.21,0,0,1,116.36,107.29Z" style="fill:#231f20" />
        <path d="M126,102.9c-.79.72-1.57,1.43-2.32,2.19s-1.51,1.48-2.22,2.25a48.73,48.73,0,0,0-4.06,4.81c-.33.41-.62.84-.91,1.28s-.6.85-.84,1.31l-.79,1.35c-.22.47-.45.94-.68,1.41a10.52,10.52,0,0,0-.57,1.44l-.27.74-.17.76a9,9,0,0,0-.33,1.54c0,.52-.09,1-.16,1.58a12.77,12.77,0,0,1,0-3.21l.11-.8.21-.79a12,12,0,0,1,.47-1.55,22.31,22.31,0,0,1,3.12-5.66,32,32,0,0,1,4.33-4.75A33.1,33.1,0,0,1,126,102.9Z" style="fill:#231f20" />
        <path d="M134,88.58c-1.4,0-2.69,0-4,0l-2,0a20,20,0,0,1-2,0,8.63,8.63,0,0,1,4-1,9.67,9.67,0,0,1,2.08.22A5.54,5.54,0,0,1,134,88.58Z" style="fill:#231f20" />
        <path d="M135.79,91.1c-1.84.14-3.66.38-5.46.65a41.39,41.39,0,0,0-5.3,1.17A20.88,20.88,0,0,0,120.1,95a11.52,11.52,0,0,0-3.87,3.71,9.36,9.36,0,0,1,3.44-4.36A16.73,16.73,0,0,1,124.75,92a27.15,27.15,0,0,1,5.49-1A26.4,26.4,0,0,1,135.79,91.1Z" style="fill:#231f20" />
        <path d="M136.77,92.83c-2.05,1-4.06,1.82-6,2.81-1,.47-2,1-2.93,1.5l-2.94,1.6a17.55,17.55,0,0,1,5.43-4,22.44,22.44,0,0,1,3.15-1.25A15,15,0,0,1,136.77,92.83Z" style="fill:#231f20" />
        <path d="M138.13,95.79c-1.93,1.09-3.88,2-5.75,3.11a26.77,26.77,0,0,0-2.7,1.71,7.22,7.22,0,0,0-2.21,2.29,5,5,0,0,1,1.7-2.88,13.47,13.47,0,0,1,2.72-2A19.37,19.37,0,0,1,138.13,95.79Z" style="fill:#231f20" />
        <path d="M139.35,99.34l-3.2,2.87c-1,1-2.1,1.91-3.09,2.91a33.55,33.55,0,0,0-5.33,6.57,13.08,13.08,0,0,1,1.84-3.93,23,23,0,0,1,2.79-3.35A27.48,27.48,0,0,1,139.35,99.34Z" style="fill:#231f20" />
        <path d="M132.15,226.74l1.29-12.86s-12.75-9.11-30.2-2.95v13.56l.17-1.41s-2.71,30.72-3.26,89.38c0,0,3.25,51.88,9.71,96.94,0,0,16.24,6,29.38-2.27,0,0-7.37-102.6-8.48-142l1-39" style="fill:#fff;stroke:#231f20;stroke-miterlimit:10" />
        <path d="M103.38,311.44l2.3,13.47,2.11,13.51c1.37,9,2.68,18,3.83,27.08.55,4.53,1.06,9.06,1.48,13.6s.8,9.09.84,13.66c0,1.14,0,2.28-.13,3.42a12.55,12.55,0,0,1-.27,1.72,3.84,3.84,0,0,1-.32.83,2,2,0,0,1-.67.63l-.44.17a1.61,1.61,0,0,1-.49,0,1,1,0,0,1-.42-.2,1.16,1.16,0,0,1-.34-.32,5.08,5.08,0,0,1-.8-1.55,20.56,20.56,0,0,1-.77-3.35,93.06,93.06,0,0,1-.71-13.65,93.77,93.77,0,0,0,1,13.61,19.35,19.35,0,0,0,.79,3.3,4.59,4.59,0,0,0,.75,1.46,1,1,0,0,0,1.33.3,1.82,1.82,0,0,0,.57-.53,3.61,3.61,0,0,0,.28-.76,11.46,11.46,0,0,0,.25-1.66c.1-1.13.11-2.27.1-3.4-.06-4.55-.47-9.09-.91-13.62s-1-9.06-1.56-13.58c-1.1-9-2.35-18.07-3.66-27.09Z" style="fill:#231f20" />
        <path d="M121.88,384.94a31.44,31.44,0,0,1,.8,4.09c.19,1.38.27,2.77.33,4.16a34.41,34.41,0,0,1-.2,4.18,20.34,20.34,0,0,1-.93,4.07,36.17,36.17,0,0,0,.55-4.11c.08-1.38.13-2.75.08-4.13s-.11-2.76-.21-4.13S122.05,386.31,121.88,384.94Z" style="fill:#231f20" />
        <path d="M128.88,278.44q-5.73-1.56-11.49-3c-1.93-.46-3.85-.93-5.78-1.34a41.66,41.66,0,0,0-5.82-.92,4.12,4.12,0,0,0-1.38.09c-.21.09-.21.09-.17.24a1.85,1.85,0,0,0,.39.5,15.14,15.14,0,0,0,2.36,1.71c1.67,1,3.42,1.95,5.16,2.88,3.51,1.83,7.06,3.58,10.62,5.33-3.63-1.58-7.25-3.21-10.79-5-1.78-.89-3.53-1.82-5.23-2.85a15.31,15.31,0,0,1-2.46-1.75,2,2,0,0,1-.5-.67.61.61,0,0,1,0-.57.76.76,0,0,1,.42-.3,4.5,4.5,0,0,1,1.57-.13,43.22,43.22,0,0,1,5.9,1c1.93.43,3.86.89,5.77,1.41Q123.23,276.61,128.88,278.44Z" style="fill:#231f20" />
        <path d="M115.6,289.44c-1.12.6-2.25,1.2-3.35,1.84a11.93,11.93,0,0,0-3,2.18c-.17.24-.24.42-.09.54a1.67,1.67,0,0,0,.75.31,12.61,12.61,0,0,0,1.86.16c1.27,0,2.54,0,3.82,0a28.61,28.61,0,0,1-3.82.42,9.2,9.2,0,0,1-2-.11,2,2,0,0,1-1-.41,1.06,1.06,0,0,1-.2-.29,1,1,0,0,1,0-.35,1.42,1.42,0,0,1,.25-.54,6.51,6.51,0,0,1,1.53-1.27,18.55,18.55,0,0,1,1.68-.95A28.75,28.75,0,0,1,115.6,289.44Z" style="fill:#231f20" />
        <path d="M122.77,292.05a38.33,38.33,0,0,0,1.08,4,31.13,31.13,0,0,0,1.55,3.84,21.73,21.73,0,0,0,2.12,3.53,18.84,18.84,0,0,0,2.86,3,13.41,13.41,0,0,1-3.16-2.76,19.11,19.11,0,0,1-2.27-3.55,24.33,24.33,0,0,1-1.46-3.95A20.65,20.65,0,0,1,122.77,292.05Z" style="fill:#231f20" />
        <path d="M126.58,237.94a3.48,3.48,0,0,0-.7,1.9,7,7,0,0,0,.08,2,15.87,15.87,0,0,0,1.29,3.89,33.84,33.84,0,0,0,2,3.65c.7,1.19,1.5,2.33,2.25,3.52-.46-.53-.89-1.08-1.34-1.62s-.82-1.13-1.24-1.69a28.07,28.07,0,0,1-2.1-3.65,14.59,14.59,0,0,1-1.22-4,6.92,6.92,0,0,1,.06-2.13A3.42,3.42,0,0,1,126.58,237.94Z" style="fill:#231f20" />
        <path d="M303.82,85.84s11.89-6.52,26.24,9.89c0,0,6.88,12,7.17,19,0,0,12.91,20.29,12.63,41.82,0,0,15.2,27.08,8,37,0,0-9.76,11.1-9.47,15,0,0-8,5.32-16.61,6.47,0,0-12.37-4.62-23.56,1.86,0,0-17.17-5.33-17.91-6.71,0,0-.45-7.17-1.6-8.79,0,0-1.94-19.38,0-30.52,0,0,3.27-5.85,2.24-11.23C291,159.65,279.84,97.58,303.82,85.84Z" style="fill:#fff;stroke:#231f20;stroke-miterlimit:10" />
        <path d="M304.37,85.84s11.9-6.52,26.24,9.89c0,0,6.89,12,7.18,19,0,0,12.91,20.29,12.62,41.82,0,0,15.21,27.08,8,37,0,0-9.75,11.1-9.46,15,0,0-8,5.32-16.61,6.47,0,0-12.37-4.62-23.56,1.86,0,0-17.18-5.33-17.91-6.71,0,0-.46-7.17-1.6-8.79,0,0-1.95-19.38,0-30.52,0,0,3.26-5.85,2.24-11.23C291.54,159.65,280.4,97.58,304.37,85.84Z" style="fill:#fff;stroke:#231f20;stroke-miterlimit:10" />
        <g style="opacity:0.5">
            <path id="SVGID-2" data-name="SVGID" d="M304.57,85.84s11.89-6.53,26.24,9.89c0,0,6.88,12,7.17,19,0,0,12.91,20.3,12.63,41.83,0,0,15.2,27.08,8,37,0,0-9.76,11.1-9.47,15,0,0-8,5.32-16.6,6.47,0,0-12.38-4.62-23.56,1.85,0,0-17.18-5.32-17.92-6.7,0,0-.45-7.17-1.6-8.79,0,0-1.94-19.38,0-30.52,0,0,3.27-5.85,2.24-11.23C291.73,159.65,280.6,97.57,304.57,85.84Z" style="fill:none;stroke:#231f20;stroke-miterlimit:10" />
        </g>
        <path d="M335.72,212.28c-.73-.38-1.22-.58-1.82-.84s-1.14-.45-1.72-.64c-1.15-.41-2.3-.74-3.48-1L326.91,217c.94.24,1.88.51,2.79.83.46.15.9.34,1.34.51s.91.39,1.16.52Z" style="fill:none" />
        <polygon points="329.37 214.1 329.58 213.39 328.4 213.05 328.21 213.78 329.37 214.1" style="fill:#231f20;fill-rule:evenodd" />
        <path d="M331.42,214.79l.26-.71c-.38-.15-.78-.26-1.17-.4l-.23.71C330.66,214.53,331,214.64,331.42,214.79Z" style="fill:#231f20;fill-rule:evenodd" />
        <path d="M333.4,215.61l.32-.68c-.37-.18-.76-.33-1.13-.5l-.29.7C332.67,215.29,333,215.44,333.4,215.61Z" style="fill:#231f20;fill-rule:evenodd" />
        <path d="M328.7,209.76a38.17,38.17,0,0,0-7.17-1.06l-.38,7.49a30.46,30.46,0,0,1,5.76.85Z" style="fill:none" />
        <polygon points="323.01 212.85 323.08 212.1 321.86 211.98 321.81 212.73 323.01 212.85" style="fill:#231f20;fill-rule:evenodd" />
        <path d="M325.15,213.13l.12-.74c-.4-.06-.81-.14-1.21-.19l-.1.74C324.36,213,324.75,213.07,325.15,213.13Z" style="fill:#231f20;fill-rule:evenodd" />
        <path d="M327.26,213.55l.17-.73c-.4-.09-.8-.19-1.2-.26l-.15.73Z" style="fill:#231f20;fill-rule:evenodd" />
        <path d="M321.53,208.7l-1.82,0c-.61,0-1.22,0-1.83.06a30.12,30.12,0,0,0-3.65.38l1.18,7.4a24.79,24.79,0,0,1,2.85-.29c.48,0,1-.07,1.44,0l1.45,0Z" style="fill:none" />
        <polygon points="316.53 212.83 316.45 212.08 315.23 212.25 315.34 212.99 316.53 212.83" style="fill:#231f20;fill-rule:evenodd" />
        <polygon points="318.69 212.69 318.66 211.94 317.43 212 317.48 212.75 318.69 212.69" style="fill:#231f20;fill-rule:evenodd" />
        <polygon points="320.84 212.7 320.86 211.95 319.63 211.91 319.63 212.66 320.84 212.7" style="fill:#231f20;fill-rule:evenodd" />
        <path d="M314.23,209.09a13.92,13.92,0,0,0-1.8.34l-1.8.42c-1.17.33-2.33.76-3.49,1.15l2.75,7c.91-.29,1.8-.63,2.72-.9l1.39-.32a11.31,11.31,0,0,1,1.41-.27Z" style="fill:none" />
        <polygon points="310.21 214.2 309.97 213.49 308.8 213.88 309.07 214.58 310.21 214.2" style="fill:#231f20;fill-rule:evenodd" />
        <path d="M312.28,213.59l-.19-.73a9.44,9.44,0,0,0-1.19.31l.21.72A9.56,9.56,0,0,1,312.28,213.59Z" style="fill:#231f20;fill-rule:evenodd" />
        <path d="M314.38,213.12l-.13-.74c-.41.06-.81.18-1.21.26l.16.73C313.59,213.29,314,213.18,314.38,213.12Z" style="fill:#231f20;fill-rule:evenodd" />
        <path d="M307.14,211c-1.12.51-2.24,1-3.34,1.54l-3.15,1.85,4.15,6.26,2.49-1.47,2.6-1.2Z" style="fill:none" />
        <polygon points="304.32 216.89 303.94 216.24 302.88 216.87 303.29 217.5 304.32 216.89" style="fill:#231f20;fill-rule:evenodd" />
        <path d="M306.21,215.83l-.34-.67a8.61,8.61,0,0,0-1.08.58l.36.66A7.68,7.68,0,0,1,306.21,215.83Z" style="fill:#231f20;fill-rule:evenodd" />
        <polygon points="308.17 214.94 307.88 214.25 306.76 214.76 307.07 215.44 308.17 214.94" style="fill:#231f20;fill-rule:evenodd" />
        <path d="M348.69,180.13a40.18,40.18,0,0,1,.17,10.51,35.83,35.83,0,0,1-2.63,10.25,24.91,24.91,0,0,1-6.11,8.65,22.79,22.79,0,0,1-9.21,5.05,28.57,28.57,0,0,0,4.63-2.4,21.67,21.67,0,0,0,4-3.21,26.82,26.82,0,0,0,5.72-8.49,40.85,40.85,0,0,0,2.79-10,47.09,47.09,0,0,0,.53-5.18A48,48,0,0,0,348.69,180.13Z" style="fill:#231f20" />
        <path d="M338.36,193.08a19.77,19.77,0,0,1-.53,6.12,21.78,21.78,0,0,1-2.28,5.75,23.82,23.82,0,0,1-1.73,2.59,19.84,19.84,0,0,1-2.12,2.27,19.49,19.49,0,0,1-5.1,3.42,32.7,32.7,0,0,0,4.55-4,23.66,23.66,0,0,0,3.53-4.8,28.11,28.11,0,0,0,2.4-5.47A32.38,32.38,0,0,0,338.36,193.08Z" style="fill:#231f20" />
        <path d="M316.84,186.37c.54,2.2,1,4.42,1.32,6.64s.68,4.46.93,6.7.45,4.5.51,6.76a24.72,24.72,0,0,1-.46,6.76,18.85,18.85,0,0,0,0-3.36c-.05-1.12-.16-2.24-.28-3.35l-.73-6.7c-.23-2.23-.5-4.47-.7-6.71S317,188.63,316.84,186.37Z" style="fill:#231f20" />
        <path d="M302.5,184.75l1.07,3.89c.34,1.3.7,2.6,1.08,3.88.75,2.58,1.51,5.14,2.35,7.68s1.76,5.05,2.8,7.5a38.4,38.4,0,0,0,1.75,3.59l1,1.71,1.23,1.59c-.48-.46-1-.93-1.44-1.43l-1.25-1.61a38.27,38.27,0,0,1-2-3.52,54.19,54.19,0,0,1-3.05-7.51c-.83-2.58-1.57-5.17-2.15-7.81A76.61,76.61,0,0,1,302.5,184.75Z" style="fill:#231f20" />
        <path d="M295,199.67a35.68,35.68,0,0,0,3.15,4.67,49.23,49.23,0,0,0,3.7,4.19c.68.65,1.32,1.33,2,1.93l1,.94,1.08.9c1.44,1.19,2.95,2.31,4.48,3.44-.86-.4-1.71-.83-2.54-1.29s-1.65-1-2.41-1.53a32.88,32.88,0,0,1-4.4-3.68,30.79,30.79,0,0,1-3.62-4.44A19.43,19.43,0,0,1,295,199.67Z" style="fill:#231f20" />
        <path d="M339.9,134.12c1.76,3.33,3.25,6.76,4.72,10.21q1.08,2.59,2.12,5.2l1,2.61a23.49,23.49,0,0,0,1.12,2.57,27.08,27.08,0,0,1-2.87-4.87c-.83-1.68-1.59-3.4-2.32-5.12A96.9,96.9,0,0,1,339.9,134.12Z" style="fill:#231f20" />
        <path d="M336.64,149.84a23.77,23.77,0,0,1-2.16,7.06,26.42,26.42,0,0,1-4.05,6.24l-.61.71-.67.65c-.45.43-.87.9-1.35,1.29a23.86,23.86,0,0,1-3,2.22,25.78,25.78,0,0,1-3.25,1.8,14.9,14.9,0,0,1-1.71.69c-.58.22-1.16.42-1.74.61a39.64,39.64,0,0,0,6.26-3.73,30.41,30.41,0,0,0,5.3-4.9,32.87,32.87,0,0,0,4.13-5.92c.29-.53.56-1.08.84-1.62s.51-1.1.74-1.66A28.79,28.79,0,0,0,336.64,149.84Z" style="fill:#231f20" />
        <path d="M324.4,153.54a52.1,52.1,0,0,0-4.9,2.29,45.37,45.37,0,0,0-4.59,2.76,38.19,38.19,0,0,0-4.24,3.26,52.86,52.86,0,0,0-3.87,3.77,22.87,22.87,0,0,1,3.33-4.34c.61-.68,1.34-1.25,2-1.88s1.44-1.14,2.21-1.64a29.26,29.26,0,0,1,4.82-2.64A22.71,22.71,0,0,1,324.4,153.54Z" style="fill:#231f20" />
        <path d="M332.48,104.52a33.15,33.15,0,0,1,5.31,10.18,29.37,29.37,0,0,1-3.1-4.86A29,29,0,0,1,332.48,104.52Z" style="fill:#231f20" />
        <path d="M320.17,106.6a27.18,27.18,0,0,1,3.17,3.92,30.19,30.19,0,0,1,2.51,4.39,20.78,20.78,0,0,1,1.61,4.83,10.91,10.91,0,0,1-.09,5.05,15.54,15.54,0,0,0-.67-4.87,30.37,30.37,0,0,0-1.76-4.59c-.67-1.5-1.45-3-2.26-4.4S321,108,320.17,106.6Z" style="fill:#231f20" />
        <path d="M310.53,102.21a35.61,35.61,0,0,1,9.4,8.65,22.15,22.15,0,0,1,3.13,5.65,12.13,12.13,0,0,1,.46,1.56l.21.78.11.81a12.77,12.77,0,0,1,0,3.21c-.06-.53-.12-1.06-.16-1.58a9,9,0,0,0-.32-1.54l-.17-.76-.27-.74a12.82,12.82,0,0,0-.57-1.45c-.24-.46-.47-.93-.68-1.4l-.79-1.35c-.24-.46-.56-.88-.84-1.32s-.58-.87-.91-1.27a50.14,50.14,0,0,0-4.06-4.81c-.71-.78-1.46-1.52-2.23-2.25S311.32,102.93,310.53,102.21Z" style="fill:#231f20" />
        <path d="M302.5,87.89a5.67,5.67,0,0,1,1.94-.79,9,9,0,0,1,2.07-.21,8.67,8.67,0,0,1,4,1,20.2,20.2,0,0,1-2,0l-2,0C305.18,87.87,303.89,87.88,302.5,87.89Z" style="fill:#231f20" />
        <path d="M300.75,90.41a25.64,25.64,0,0,1,5.54-.12,26.45,26.45,0,0,1,5.5,1,17.06,17.06,0,0,1,5.08,2.41,9.42,9.42,0,0,1,3.43,4.37,11.65,11.65,0,0,0-3.87-3.72,20.51,20.51,0,0,0-4.93-2.1,40.65,40.65,0,0,0-5.3-1.17C304.4,90.78,302.59,90.55,300.75,90.41Z" style="fill:#231f20" />
        <path d="M299.77,92.14a14.48,14.48,0,0,1,3.32.66,21.29,21.29,0,0,1,3.15,1.25,17.43,17.43,0,0,1,5.44,4l-2.94-1.6c-1-.52-1.95-1-2.94-1.51C303.83,94,301.82,93.08,299.77,92.14Z" style="fill:#231f20" />
        <path d="M298.41,95.09a19.47,19.47,0,0,1,6.24,2.25,13.74,13.74,0,0,1,2.71,2,5.06,5.06,0,0,1,1.71,2.89,7.33,7.33,0,0,0-2.21-2.29,26.92,26.92,0,0,0-2.71-1.71C302.28,97.14,300.34,96.19,298.41,95.09Z" style="fill:#231f20" />
        <path d="M297.19,98.65a27.83,27.83,0,0,1,7,5.07,24.1,24.1,0,0,1,2.79,3.34,13.31,13.31,0,0,1,1.84,3.93,33.83,33.83,0,0,0-5.34-6.56c-1-1-2-2-3.09-2.92Z" style="fill:#231f20" />
        <path d="M304.39,226l-1.29-12.85s12.74-9.12,30.2-2.95v13.55l-.17-1.41s2.71,30.73,3.25,89.39c0,0-3.25,51.88-9.71,96.94,0,0-16.23,6-29.37-2.27,0,0,7.36-102.6,8.48-142l-1-39" style="fill:#fff;stroke:#231f20;stroke-miterlimit:10" />
        <path d="M333.15,310.74l-4.08,27c-1.31,9-2.56,18-3.66,27.09-.57,4.52-1.11,9-1.56,13.58s-.85,9.07-.92,13.62c0,1.13,0,2.27.11,3.39a11.38,11.38,0,0,0,.24,1.67,3.63,3.63,0,0,0,.29.76,1.65,1.65,0,0,0,.56.52,1,1,0,0,0,1.33-.29,4.72,4.72,0,0,0,.76-1.46,19.55,19.55,0,0,0,.78-3.3,93.81,93.81,0,0,0,1-13.62,96,96,0,0,1-.71,13.66,19.6,19.6,0,0,1-.78,3.35,4.87,4.87,0,0,1-.8,1.55,1.26,1.26,0,0,1-.33.32,1,1,0,0,1-.43.2,1.54,1.54,0,0,1-.48,0l-.44-.17a2.15,2.15,0,0,1-.68-.63,4.27,4.27,0,0,1-.32-.84,10.86,10.86,0,0,1-.26-1.71c-.11-1.14-.13-2.28-.13-3.43,0-4.57.42-9.11.83-13.65s.94-9.08,1.49-13.6c1.15-9.05,2.45-18.07,3.82-27.08l2.12-13.51Z" style="fill:#231f20" />
        <path d="M314.65,384.24c-.16,1.38-.31,2.76-.41,4.14s-.2,2.75-.22,4.13,0,2.75.09,4.13a35.67,35.67,0,0,0,.54,4.1,20.79,20.79,0,0,1-.93-4.06,34.4,34.4,0,0,1-.19-4.18,41.15,41.15,0,0,1,.33-4.16A31.56,31.56,0,0,1,314.65,384.24Z" style="fill:#231f20" />
        <path d="M307.65,277.74c3.78-1.21,7.57-2.34,11.4-3.35,1.92-.52,3.84-1,5.78-1.42a44.38,44.38,0,0,1,5.89-1,4.5,4.5,0,0,1,1.57.13.72.72,0,0,1,.42.3.6.6,0,0,1,0,.56,2,2,0,0,1-.51.68,15.24,15.24,0,0,1-2.45,1.75c-1.71,1-3.46,2-5.23,2.84-3.55,1.78-7.16,3.41-10.79,5,3.55-1.74,7.1-3.49,10.61-5.32,1.74-.93,3.5-1.85,5.17-2.88a15.14,15.14,0,0,0,2.36-1.71,1.62,1.62,0,0,0,.38-.5c0-.15,0-.15-.17-.24a4.06,4.06,0,0,0-1.37-.09,41.66,41.66,0,0,0-5.82.92c-1.94.41-3.86.88-5.78,1.34Q313.39,276.18,307.65,277.74Z" style="fill:#231f20" />
        <path d="M320.93,288.74a29,29,0,0,1,3.54,1.51c.57.28,1.13.61,1.68.95a6.51,6.51,0,0,1,1.53,1.27,1.41,1.41,0,0,1,.24.54,1,1,0,0,1,0,.35.86.86,0,0,1-.19.29,2,2,0,0,1-1,.41,9.16,9.16,0,0,1-1.95.11,27.07,27.07,0,0,1-3.82-.43c1.28,0,2.56.08,3.82,0a12.61,12.61,0,0,0,1.86-.16,1.73,1.73,0,0,0,.75-.31c.15-.12.09-.3-.08-.54a11.81,11.81,0,0,0-3-2.18C323.19,290,322.06,289.35,320.93,288.74Z" style="fill:#231f20" />
        <path d="M313.77,291.36a21.39,21.39,0,0,1-.72,4.13,26.76,26.76,0,0,1-1.46,3.95,19.45,19.45,0,0,1-2.27,3.55,13.42,13.42,0,0,1-3.17,2.75,18.37,18.37,0,0,0,2.86-3,21.78,21.78,0,0,0,2.13-3.53,31.07,31.07,0,0,0,1.54-3.84A38.37,38.37,0,0,0,313.77,291.36Z" style="fill:#231f20" />
        <path d="M310,237.24a3.55,3.55,0,0,1,.94,1.87,7.6,7.6,0,0,1,.06,2.13,15.41,15.41,0,0,1-1.22,4,28.82,28.82,0,0,1-2.11,3.65c-.41.56-.79,1.15-1.23,1.69s-.88,1.09-1.34,1.61c.74-1.18,1.54-2.32,2.25-3.51a32.11,32.11,0,0,0,2-3.65,16,16,0,0,0,1.3-3.89,7,7,0,0,0,.08-2A3.71,3.71,0,0,0,310,237.24Z" style="fill:#231f20" />
    </g>
</svg>