<svg id="sleevet" xmlns="http://www.w3.org/2000/svg" viewBox="0 0 425.2 425.2">
    <g id="sleevet" data-name="Layer 2">
        <path id="sleevet" d="M125.58,85.06s-28.12,55.83-18.06,203.85c0,0,8.83,4.78,23.24,6.7,5,.66,10.64,1.92,16.82,1.92,2.08,0,4.22-4.19,6.41-3.17l5.59-25.18-11-149.84S134.58,87.49,125.58,85.06Z" style="fill:#fff;stroke:#231f20;stroke-miterlimit:10" />
        <path d="M107.52,288.91l.06,16.14s11.66,10.58,43.75,5.23L154,294.36S123.63,293.81,107.52,288.91Z" style="fill:#fff;stroke:#231f20;stroke-miterlimit:10" />
        <path d="M299.62,85.06s28.11,55.83,18.06,203.85c0,0-8.84,4.78-23.24,6.7-5,.66-10.64,1.92-16.82,1.92-2.09,0-4.22-4.19-6.42-3.17l-5.58-25.18,11-149.84S290.62,87.49,299.62,85.06Z" style="fill:#fff;stroke:#231f20;stroke-miterlimit:10" />
        <path d="M317.68,288.91l-.06,16.14s-11.67,10.58-43.75,5.23l-2.67-15.92S301.57,293.81,317.68,288.91Z" style="fill:#fff;stroke:#231f20;stroke-miterlimit:10" />
    </g>
</svg>