<svg id="sleevet" xmlns="http://www.w3.org/2000/svg" viewBox="0 0 425.2 425.2">
    <g id="sleevet" data-name="Layer 2">
        <path id="sleevet" d="M133.34,308.36l2.77-17.24C111.73,294.23,94,287.58,94,287.58v15.47S111.34,314.62,133.34,308.36Z" style="fill:#fff;stroke:#231f20;stroke-miterlimit:10" />
        <path d="M135.55,291.74c-17.63,2.69-42.72-3.07-42.72-3.07-8-8.37-5.44-36-5.44-36,.84-18,4.6-40.57,4.6-40.57a108.3,108.3,0,0,1,0-31.37c10.88-42.25,19.24-56.89,19.24-56.89,3.35-10,13.81-36.39,13.81-36.39s5.16-4.19,20.69,28.37c0,0,.17,46.95,2.38,74,0,0,4.41,31,2.06,58.56,0,0,3.5,28.41-14.62,43.83" style="fill:#fff;stroke:#231f20;stroke-miterlimit:10" />
        <path d="M291.86,307.7l-2.77-17.24c24.38,3.11,42.12-3.54,42.12-3.54v15.47S313.86,314,291.86,307.7Z" style="fill:#fff;stroke:#231f20;stroke-miterlimit:10" />
        <path d="M289.65,291.08c17.63,2.69,42.72-3.07,42.72-3.07,7.94-8.37,5.44-36,5.44-36-.84-18-4.61-40.57-4.61-40.57a108.3,108.3,0,0,0,0-31.37C322.33,137.84,314,123.2,314,123.2c-3.34-10-13.8-36.39-13.8-36.39s-5.16-4.19-20.69,28.37c0,0-.17,46.95-2.38,74,0,0-4.41,31-2.06,58.56,0,0-3.5,28.41,14.62,43.83" style="fill:#fff;stroke:#231f20;stroke-miterlimit:10" />
    </g>
</svg>