<svg id="sleevef" xmlns="http://www.w3.org/2000/svg" viewBox="0 0 425.2 425.2">
    <g id="sleevef" data-name="Layer 2">
        <path id="sleevef" d="M298.63,88.91s10.06-6.8,22.19,10.31c0,0,5.82,12.53,6.06,19.76,0,0,10.92,21.15,10.68,43.58,0,0,12.85,28.22,6.79,38.58,0,0-8.25,11.56-8,15.66,0,0-6.73,5.54-14,6.74,0,0-10.46-4.82-19.92,1.93,0,0-14.52-5.54-15.14-7,0,0-.38-7.47-1.35-9.15,0,0-1.65-20.2,0-31.81,0,0,2.76-6.09,1.89-11.7C287.78,165.82,278.36,101.14,298.63,88.91Z" style="fill:none;stroke:#231f20;stroke-miterlimit:10" />
        <path id="Profondeur" d="M300.11,237.5c11.13,4.69,24.69-2.34,24.69-2.34l-10.42-5.08L298.72,232Z" style="fill:#ccc;stroke:#000;stroke-miterlimit:10" />
        <path d="M299.1,88.91s10.06-6.8,22.19,10.31c0,0,5.82,12.53,6.06,19.76,0,0,10.92,21.15,10.67,43.58,0,0,12.86,28.22,6.8,38.58,0,0-8.25,11.56-8,15.66,0,0-6.73,5.54-14,6.74,0,0-10.46-4.82-19.92,1.93,0,0-14.52-5.54-15.14-7,0,0-.38-7.47-1.35-9.15,0,0-3.65-20.2-2-31.81,0,0-1.24-6.09-2.11-11.7,0,0-3.42-23.49-1.7-44.84C281.68,106.91,291.05,93.77,299.1,88.91Z" style="fill:#fff;stroke:#231f20;stroke-miterlimit:10" />
        <path d="M324.12,221v14.12s-17.27-1.67-24.69,2.35l-2-13.4A26.77,26.77,0,0,1,324.12,221Z" style="fill:#fff;stroke:#231f20;stroke-miterlimit:10" />
        <path d="M326.17,221a20.11,20.11,0,0,0-1.95-1.07c-.62-.31-1.25-.58-1.87-.83s-1.28-.46-1.91-.69l-2-.56-1.78,7.28,1.44.42c.47.17,1,.31,1.42.51s.92.38,1.36.6.92.48,1.14.62Z" style="fill:none" />
        <path d="M319.27,222.22l.23-.71c-.42-.14-.85-.25-1.28-.37l-.2.72C318.44,222,318.86,222.09,319.27,222.22Z" style="fill:#231f20;fill-rule:evenodd" />
        <path d="M321.45,223l.3-.68c-.42-.17-.82-.36-1.25-.5l-.26.7C320.66,222.7,321.05,222.89,321.45,223Z" style="fill:#231f20;fill-rule:evenodd" />
        <path d="M323.53,224.07l.37-.65c-.4-.22-.79-.44-1.2-.63l-.32.68C322.77,223.65,323.15,223.86,323.53,224.07Z" style="fill:#231f20;fill-rule:evenodd" />
        <path d="M318.48,217.82a26.22,26.22,0,0,0-8.16-.71l.51,7.48a18.88,18.88,0,0,1,5.87.51Z" style="fill:none" />
        <path d="M312.41,221.07v-.75a7.49,7.49,0,0,0-1.34,0l0,.75A7,7,0,0,1,312.41,221.07Z" style="fill:#231f20;fill-rule:evenodd" />
        <path d="M314.72,221.23l.09-.75a11.73,11.73,0,0,0-1.33-.12l-.05.74A11.05,11.05,0,0,1,314.72,221.23Z" style="fill:#231f20;fill-rule:evenodd" />
        <polygon points="317.01 221.61 317.17 220.88 315.86 220.62 315.74 221.35 317.01 221.61" style="fill:#231f20;fill-rule:evenodd" />
        <path d="M310.32,217.11a24.14,24.14,0,0,0-8,1.92l2.9,6.92a16.76,16.76,0,0,1,5.64-1.36Z" style="fill:none" />
        <path d="M305.54,222.09l-.24-.72a9.42,9.42,0,0,0-1.25.47l.27.7A7.42,7.42,0,0,1,305.54,222.09Z" style="fill:#231f20;fill-rule:evenodd" />
        <path d="M307.78,221.49l-.15-.73a9.49,9.49,0,0,0-1.3.32l.19.73A9.3,9.3,0,0,1,307.78,221.49Z" style="fill:#231f20;fill-rule:evenodd" />
        <path d="M310.07,221.15l-.07-.75a11.81,11.81,0,0,0-1.33.18l.12.74A9,9,0,0,1,310.07,221.15Z" style="fill:#231f20;fill-rule:evenodd" />
        <path d="M302.29,219a25.61,25.61,0,0,0-3.65,1.87c-1.17.69-2.2,1.54-3.3,2.32l4.74,5.81c.84-.57,1.62-1.24,2.48-1.74a18.6,18.6,0,0,1,2.63-1.34Z" style="fill:none" />
        <polygon points="299.35 225.26 298.91 224.65 297.83 225.44 298.3 226.03 299.35 225.26" style="fill:#231f20;fill-rule:evenodd" />
        <path d="M301.3,224l-.37-.65c-.39.23-.79.43-1.16.68l.41.62C300.54,224.41,300.93,224.22,301.3,224Z" style="fill:#231f20;fill-rule:evenodd" />
        <polygon points="303.36 222.94 303.05 222.25 302.43 222.51 301.85 222.84 302.19 223.5 302.76 223.19 303.36 222.94" style="fill:#231f20;fill-rule:evenodd" />
        <path d="M326,222.64a21.5,21.5,0,0,0-2-1.08c-.62-.3-1.24-.57-1.87-.82s-1.27-.47-1.91-.7l-1.95-.55-1.79,7.28,1.45.41c.47.18.95.32,1.41.52s.92.38,1.36.6.93.48,1.15.61Z" style="fill:none" />
        <path d="M319.12,223.89l.23-.71c-.42-.14-.86-.25-1.29-.38l-.19.73C318.29,223.65,318.71,223.75,319.12,223.89Z" style="fill:#231f20;fill-rule:evenodd" />
        <path d="M321.29,224.71l.3-.69c-.41-.16-.82-.35-1.24-.49l-.26.7C320.5,224.36,320.89,224.55,321.29,224.71Z" style="fill:#231f20;fill-rule:evenodd" />
        <path d="M323.37,225.73l.37-.65c-.39-.21-.78-.43-1.19-.62l-.33.68C322.62,225.32,323,225.53,323.37,225.73Z" style="fill:#231f20;fill-rule:evenodd" />
        <path d="M318.33,219.49a26.22,26.22,0,0,0-8.16-.71l.51,7.48a18.79,18.79,0,0,1,5.86.51Z" style="fill:none" />
        <path d="M312.25,222.73V222a8.44,8.44,0,0,0-1.33,0l0,.75A7.94,7.94,0,0,1,312.25,222.73Z" style="fill:#231f20;fill-rule:evenodd" />
        <path d="M314.57,222.9l.09-.75a11.74,11.74,0,0,0-1.33-.13l-.05.75A9.4,9.4,0,0,1,314.57,222.9Z" style="fill:#231f20;fill-rule:evenodd" />
        <polygon points="316.86 223.28 317.02 222.55 315.71 222.28 315.58 223.02 316.86 223.28" style="fill:#231f20;fill-rule:evenodd" />
        <path d="M310.17,218.78a23.84,23.84,0,0,0-8,1.92l2.9,6.92a16.47,16.47,0,0,1,5.64-1.36Z" style="fill:none" />
        <path d="M305.38,223.76l-.23-.72a8.92,8.92,0,0,0-1.25.47l.27.7A6.79,6.79,0,0,1,305.38,223.76Z" style="fill:#231f20;fill-rule:evenodd" />
        <path d="M307.63,223.16l-.16-.74a9.76,9.76,0,0,0-1.29.33l.19.72A10.53,10.53,0,0,1,307.63,223.16Z" style="fill:#231f20;fill-rule:evenodd" />
        <path d="M309.91,222.82l-.06-.75a11.81,11.81,0,0,0-1.33.18l.11.74A9.36,9.36,0,0,1,309.91,222.82Z" style="fill:#231f20;fill-rule:evenodd" />
        <path d="M302.14,220.7a26.08,26.08,0,0,0-3.65,1.86c-1.17.7-2.21,1.55-3.3,2.33l4.74,5.81c.83-.57,1.62-1.24,2.47-1.74a18.2,18.2,0,0,1,2.64-1.34Z" style="fill:none" />
        <polygon points="299.19 226.93 298.76 226.32 297.68 227.1 298.14 227.69 299.19 226.93" style="fill:#231f20;fill-rule:evenodd" />
        <path d="M301.15,225.67l-.38-.65c-.38.23-.78.42-1.15.67l.41.63C300.38,226.08,300.78,225.89,301.15,225.67Z" style="fill:#231f20;fill-rule:evenodd" />
        <polygon points="303.2 224.61 302.9 223.92 302.28 224.18 301.69 224.5 302.04 225.17 302.61 224.85 303.2 224.61" style="fill:#231f20;fill-rule:evenodd" />
        <path d="M336.57,187.16a49.43,49.43,0,0,1,.26,10.39,44,44,0,0,1-1.95,10.27,28,28,0,0,1-4.9,9.25,22.84,22.84,0,0,1-3.82,3.6,20.71,20.71,0,0,1-4.62,2.4,23.47,23.47,0,0,0,4.32-2.79,23.18,23.18,0,0,0,3.52-3.69,31,31,0,0,0,4.55-9.08,53.3,53.3,0,0,0,2.14-10c.21-1.7.34-3.42.42-5.14S336.61,188.89,336.57,187.16Z" style="fill:#231f20" />
        <path d="M327.84,200.65a23.25,23.25,0,0,1-.33,6.06,26,26,0,0,1-1.76,5.83,21.12,21.12,0,0,1-3.22,5.2,17.72,17.72,0,0,1-4.64,3.91c.36-.35.73-.7,1.1-1l.54-.51.5-.56,1-1.11.89-1.18a26.76,26.76,0,0,0,2.92-5.12,36.26,36.26,0,0,0,1.92-5.6A44,44,0,0,0,327.84,200.65Z" style="fill:#231f20" />
        <path d="M309.64,193.67c.49,2.3.85,4.61,1.18,6.94s.59,4.65.81,7,.37,4.68.4,7a29.57,29.57,0,0,1-.45,7,22.73,22.73,0,0,0-.05-3.5c-.06-1.16-.16-2.32-.26-3.49l-.64-7c-.19-2.33-.42-4.66-.57-7S309.72,196,309.64,193.67Z" style="fill:#231f20" />
        <path d="M297.51,192l1.85,8c.65,2.65,1.28,5.3,2,7.92s1.47,5.24,2.33,7.82c.23.63.44,1.28.68,1.91l.78,1.88c.28.62.59,1.22.89,1.83s.72,1.15,1.07,1.74A22.74,22.74,0,0,1,303,216a64,64,0,0,1-2.57-7.83c-.69-2.66-1.3-5.33-1.76-8S297.73,194.71,297.51,192Z" style="fill:#231f20" />
        <path d="M291.21,207.53a44.57,44.57,0,0,0,2.61,4.69,48.66,48.66,0,0,0,3.08,4.34,47.71,47.71,0,0,0,3.52,4c1.23,1.29,2.55,2.49,3.89,3.71a26.32,26.32,0,0,1-4.43-3.14,29.72,29.72,0,0,1-6.74-8.53A20.89,20.89,0,0,1,291.21,207.53Z" style="fill:#231f20" />
        <path d="M329.14,139.21c1.54,3.49,2.82,7.07,4.06,10.65.6,1.8,1.2,3.6,1.77,5.41l.85,2.71a27.48,27.48,0,0,0,.92,2.69,29.39,29.39,0,0,1-2.5-5.14c-.72-1.76-1.37-3.55-2-5.35A100.25,100.25,0,0,1,329.14,139.21Z" style="fill:#231f20" />
        <path d="M326.38,155.6a26.92,26.92,0,0,1-1.59,6.9,29.4,29.4,0,0,1-3.2,6.36,23.93,23.93,0,0,1-4.77,5.32,21.64,21.64,0,0,1-6.11,3.59c.5-.33,1-.65,1.49-1l.74-.46c.24-.17.47-.36.7-.54l1.39-1,1.28-1.18a29.65,29.65,0,0,0,4.45-5.29,39.87,39.87,0,0,0,3.32-6.09c.47-1.07.9-2.15,1.27-3.26A34.38,34.38,0,0,0,326.38,155.6Z" style="fill:#231f20" />
        <path d="M316,159.45a38.26,38.26,0,0,0-4.27,2.47,37.41,37.41,0,0,0-3.91,3,36.2,36.2,0,0,0-3.51,3.39c-1.13,1.19-2.14,2.48-3.19,3.78a21.86,21.86,0,0,1,2.59-4.29,23.48,23.48,0,0,1,3.47-3.65,23.09,23.09,0,0,1,4.15-2.84A17.6,17.6,0,0,1,316,159.45Z" style="fill:#231f20" />
        <path d="M322.86,108.37a30.54,30.54,0,0,1,2.71,5.11,29.45,29.45,0,0,1,1.78,5.5,29.77,29.77,0,0,1-2.7-5.11A29.24,29.24,0,0,1,322.86,108.37Z" style="fill:#231f20" />
        <path d="M312.46,110.54a30.05,30.05,0,0,1,2.81,4.25,32.5,32.5,0,0,1,2.14,4.64,24.15,24.15,0,0,1,1.3,5,13.45,13.45,0,0,1-.16,5.1,21.59,21.59,0,0,0-.61-5,38.45,38.45,0,0,0-1.47-4.76c-.56-1.57-1.22-3.1-1.9-4.64S313.2,112.07,312.46,110.54Z" style="fill:#231f20" />
        <path d="M304.31,106a31,31,0,0,1,4.55,4.33,33.41,33.41,0,0,1,3.71,5.1,26.11,26.11,0,0,1,2.51,5.82,20.71,20.71,0,0,1,.55,3.13,15.67,15.67,0,0,1-.07,3.14,21.12,21.12,0,0,0-.42-3.08,19,19,0,0,0-.8-3,36.08,36.08,0,0,0-2.63-5.55,54.59,54.59,0,0,0-3.45-5.12c-.61-.84-1.26-1.65-1.93-2.44S305,106.75,304.31,106Z" style="fill:#231f20" />
        <path d="M297.51,91.05a4.06,4.06,0,0,1,1.62-.81,7.11,7.11,0,0,1,1.78-.22,6.23,6.23,0,0,1,3.4,1,17.1,17.1,0,0,1-1.75,0l-1.66,0C299.79,91,298.72,91,297.51,91.05Z" style="fill:#231f20" />
        <path d="M296,93.67a20.14,20.14,0,0,1,9.75,1.07,14,14,0,0,1,4.26,2.64,9.86,9.86,0,0,1,2.52,4.25,13.75,13.75,0,0,0-3-3.66,16.92,16.92,0,0,0-4.11-2.3,26.38,26.38,0,0,0-4.58-1.3A44.74,44.74,0,0,0,296,93.67Z" style="fill:#231f20" />
        <path d="M295.21,95.47a11.38,11.38,0,0,1,2.93.75,17.5,17.5,0,0,1,2.71,1.34,14.37,14.37,0,0,1,4.43,4.07c-.87-.54-1.66-1.12-2.48-1.65s-1.64-1.07-2.47-1.57C298.67,97.38,297,96.46,295.21,95.47Z" style="fill:#231f20" />
        <path d="M294.06,98.55a13.41,13.41,0,0,1,2.88,1,16.61,16.61,0,0,1,2.64,1.53,10.66,10.66,0,0,1,2.26,2.09,5,5,0,0,1,1.23,2.82,8.16,8.16,0,0,0-1.8-2.29,21,21,0,0,0-2.27-1.81C297.41,100.72,295.73,99.71,294.06,98.55Z" style="fill:#231f20" />
        <path d="M293,102.26a25.29,25.29,0,0,1,6.13,5.5,22.84,22.84,0,0,1,2.3,3.46,13.78,13.78,0,0,1,1.39,3.9,36.53,36.53,0,0,0-2.06-3.5c-.77-1.11-1.56-2.19-2.41-3.23s-1.73-2.07-2.62-3.09Z" style="fill:#231f20" />
        <path d="M126.57,88.2s-10.06-6.79-22.19,10.32c0,0-5.82,12.52-6.07,19.75,0,0-10.91,21.15-10.67,43.59,0,0-12.86,28.21-6.79,38.57,0,0,8.25,11.57,8,15.66,0,0,6.74,5.55,14,6.75,0,0,10.46-4.82,19.92,1.93,0,0,14.53-5.54,15.15-7,0,0,.38-7.47,1.35-9.15,0,0,1.64-20.2,0-31.81,0,0-2.76-6.09-1.89-11.7C137.42,165.12,146.83,100.43,126.57,88.2Z" style="fill:none;stroke:#231f20;stroke-miterlimit:10" />
        <path id="Profondeur-2" data-name="Profondeur" d="M125.09,236.8c-11.13,4.69-24.69-2.35-24.69-2.35l10.42-5.07,15.66,1.86Z" style="fill:#ccc;stroke:#000;stroke-miterlimit:10" />
        <path d="M126.1,88.2S116,81.41,103.91,98.52c0,0-5.82,12.52-6.06,19.75,0,0-10.92,21.15-10.68,43.59,0,0-12.85,28.21-6.79,38.57,0,0,8.25,11.57,8,15.66,0,0,6.73,5.55,14,6.75,0,0,10.46-4.82,19.92,1.93,0,0,14.52-5.54,15.14-7,0,0,.38-7.47,1.35-9.15,0,0,3.65-20.2,2-31.81,0,0,1.24-6.09,2.11-11.7,0,0,3.42-23.5,1.7-44.85C143.52,106.2,134.15,93.06,126.1,88.2Z" style="fill:#fff;stroke:#231f20;stroke-miterlimit:10" />
        <path d="M101.08,220.33v14.13s17.27-1.68,24.69,2.34l2-13.4A26.78,26.78,0,0,0,101.08,220.33Z" style="fill:#fff;stroke:#231f20;stroke-miterlimit:10" />
        <path d="M103.13,226.54c.23-.13.73-.42,1.15-.61s.9-.42,1.36-.6,1-.34,1.41-.52l1.45-.41-1.79-7.28-1.95.55c-.64.23-1.28.43-1.91.7s-1.25.52-1.87.82a20.4,20.4,0,0,0-2,1.08Z" style="fill:none" />
        <path d="M105.76,221l.23.71c.41-.13.83-.23,1.24-.35l-.2-.73C106.61,220.77,106.18,220.87,105.76,221Z" style="fill:#231f20;fill-rule:evenodd" />
        <path d="M103.54,221.85l.29.69c.4-.16.79-.34,1.2-.48l-.26-.7C104.35,221.5,104,221.69,103.54,221.85Z" style="fill:#231f20;fill-rule:evenodd" />
        <path d="M101.41,222.9l.37.65c.37-.2.74-.41,1.13-.59l-.32-.67C102.18,222.47,101.8,222.69,101.41,222.9Z" style="fill:#231f20;fill-rule:evenodd" />
        <path d="M108.5,224.4a18.85,18.85,0,0,1,5.87-.51l.5-7.48a26.22,26.22,0,0,0-8.16.71Z" style="fill:none" />
        <path d="M112.78,219.83l0,.75a9.14,9.14,0,0,1,1.28,0l0-.75A9.82,9.82,0,0,0,112.78,219.83Z" style="fill:#231f20;fill-rule:evenodd" />
        <path d="M110.41,220l.09.74a10.87,10.87,0,0,1,1.28-.12l0-.75A9.83,9.83,0,0,0,110.41,220Z" style="fill:#231f20;fill-rule:evenodd" />
        <polygon points="108.07 220.39 108.24 221.12 109.5 220.87 109.37 220.13 108.07 220.39" style="fill:#231f20;fill-rule:evenodd" />
        <path d="M114.37,223.89a16.4,16.4,0,0,1,5.63,1.35l2.91-6.91a24,24,0,0,0-8-1.92Z" style="fill:none" />
        <path d="M119.83,220.88l-.24.71a8.8,8.8,0,0,1,1.21.45l.27-.7A8,8,0,0,0,119.83,220.88Z" style="fill:#231f20;fill-rule:evenodd" />
        <path d="M117.53,220.27l-.16.73a10.86,10.86,0,0,1,1.25.31l.19-.72A9.58,9.58,0,0,0,117.53,220.27Z" style="fill:#231f20;fill-rule:evenodd" />
        <path d="M115.18,219.92l-.07.74a10.76,10.76,0,0,1,1.27.17l.11-.74A9.58,9.58,0,0,0,115.18,219.92Z" style="fill:#231f20;fill-rule:evenodd" />
        <path d="M120,225.24a18.25,18.25,0,0,1,2.64,1.35c.86.5,1.64,1.17,2.48,1.73l4.74-5.8c-1.1-.78-2.13-1.64-3.3-2.33a26.64,26.64,0,0,0-3.65-1.86Z" style="fill:none" />
        <polygon points="126.16 224.12 125.72 224.74 126.77 225.49 127.23 224.9 126.16 224.12" style="fill:#231f20;fill-rule:evenodd" />
        <path d="M124.16,222.84l-.37.65c.37.22.76.4,1.11.64l.41-.62C124.94,223.26,124.54,223.06,124.16,222.84Z" style="fill:#231f20;fill-rule:evenodd" />
        <polygon points="122.06 221.75 121.75 222.43 122.34 222.68 122.91 222.99 123.25 222.33 122.67 222 122.06 221.75" style="fill:#231f20;fill-rule:evenodd" />
        <path d="M103.29,228.21c.22-.13.73-.42,1.14-.62s.9-.41,1.37-.6.94-.33,1.41-.51l1.44-.41-1.78-7.28-2,.55c-.63.23-1.28.43-1.9.69s-1.26.52-1.87.83a19.31,19.31,0,0,0-2,1.08Z" style="fill:none" />
        <path d="M105.92,222.68l.23.71c.4-.13.82-.23,1.23-.36l-.19-.72C106.76,222.43,106.34,222.54,105.92,222.68Z" style="fill:#231f20;fill-rule:evenodd" />
        <path d="M103.69,223.52l.3.69c.4-.16.78-.35,1.19-.48l-.26-.7C104.5,223.16,104.1,223.36,103.69,223.52Z" style="fill:#231f20;fill-rule:evenodd" />
        <path d="M101.56,224.57l.37.65c.38-.2.75-.41,1.14-.59l-.33-.68C102.34,224.14,102,224.35,101.56,224.57Z" style="fill:#231f20;fill-rule:evenodd" />
        <path d="M108.65,226.07a18.88,18.88,0,0,1,5.87-.51l.51-7.48a25.93,25.93,0,0,0-8.16.71Z" style="fill:none" />
        <path d="M112.94,221.5v.75a9.12,9.12,0,0,1,1.28,0l0-.75A9.69,9.69,0,0,0,112.94,221.5Z" style="fill:#231f20;fill-rule:evenodd" />
        <path d="M110.56,221.66l.09.75a9.23,9.23,0,0,1,1.28-.12l-.05-.75A11.77,11.77,0,0,0,110.56,221.66Z" style="fill:#231f20;fill-rule:evenodd" />
        <polygon points="108.23 222.06 108.39 222.79 109.65 222.53 109.53 221.79 108.23 222.06" style="fill:#231f20;fill-rule:evenodd" />
        <path d="M114.52,225.56a16.51,16.51,0,0,1,5.64,1.35l2.9-6.91a23.9,23.9,0,0,0-8-1.92Z" style="fill:none" />
        <path d="M120,222.55l-.23.71a7.56,7.56,0,0,1,1.2.45l.27-.7A8,8,0,0,0,120,222.55Z" style="fill:#231f20;fill-rule:evenodd" />
        <path d="M117.68,221.93l-.15.74a10.7,10.7,0,0,1,1.24.31l.2-.72A9.76,9.76,0,0,0,117.68,221.93Z" style="fill:#231f20;fill-rule:evenodd" />
        <path d="M115.33,221.59l-.07.74a10.76,10.76,0,0,1,1.27.17l.12-.74A9.72,9.72,0,0,0,115.33,221.59Z" style="fill:#231f20;fill-rule:evenodd" />
        <path d="M120.16,226.91a17.67,17.67,0,0,1,2.63,1.35c.86.5,1.64,1.17,2.48,1.73l4.74-5.81c-1.1-.77-2.13-1.63-3.3-2.32a26.64,26.64,0,0,0-3.65-1.86Z" style="fill:none" />
        <polygon points="126.31 225.79 125.88 226.4 126.92 227.16 127.38 226.57 126.31 225.79" style="fill:#231f20;fill-rule:evenodd" />
        <path d="M124.31,224.51l-.37.65c.37.21.76.4,1.11.64l.41-.63C125.1,224.93,124.7,224.73,124.31,224.51Z" style="fill:#231f20;fill-rule:evenodd" />
        <polygon points="122.21 223.42 121.9 224.1 122.5 224.35 123.06 224.66 123.4 224 122.82 223.67 122.21 223.42" style="fill:#231f20;fill-rule:evenodd" />
        <path d="M88.63,186.46c0,1.73,0,3.45.08,5.17s.21,3.44.42,5.15a54,54,0,0,0,2.13,10,30.8,30.8,0,0,0,4.56,9.09,22.74,22.74,0,0,0,3.52,3.69,23.47,23.47,0,0,0,4.32,2.79A20.5,20.5,0,0,1,99,220a23,23,0,0,1-3.83-3.61,28,28,0,0,1-4.9-9.25,44.37,44.37,0,0,1-1.94-10.26A49.41,49.41,0,0,1,88.63,186.46Z" style="fill:#231f20" />
        <path d="M97.36,200a46.28,46.28,0,0,0,1.08,5.89,36.3,36.3,0,0,0,1.93,5.6,26.71,26.71,0,0,0,2.91,5.12l.9,1.18,1,1.1.49.57.55.5,1.1,1a17.72,17.72,0,0,1-4.64-3.91,21,21,0,0,1-3.22-5.2A26,26,0,0,1,97.69,206,23.2,23.2,0,0,1,97.36,200Z" style="fill:#231f20" />
        <path d="M115.55,193c-.07,2.35-.24,4.69-.41,7s-.38,4.67-.58,7l-.63,7c-.11,1.16-.21,2.33-.26,3.49a24.06,24.06,0,0,0-.06,3.5,30.65,30.65,0,0,1-.45-7c0-2.35.22-4.69.41-7s.47-4.67.81-7S115.07,195.26,115.55,193Z" style="fill:#231f20" />
        <path d="M127.68,191.28c-.22,2.73-.63,5.44-1.1,8.14s-1.08,5.37-1.76,8a65.58,65.58,0,0,1-2.57,7.82,22.62,22.62,0,0,1-4.15,7.1c.36-.59.75-1.15,1.08-1.74s.6-1.22.88-1.83l.79-1.88c.24-.63.45-1.28.68-1.92.85-2.57,1.64-5.17,2.32-7.81s1.34-5.28,2-7.93Z" style="fill:#231f20" />
        <path d="M134,206.82a20.73,20.73,0,0,1-1.94,5.08,28.47,28.47,0,0,1-3,4.58,29.2,29.2,0,0,1-3.76,3.94,26.38,26.38,0,0,1-4.43,3.15c1.33-1.23,2.66-2.43,3.89-3.71a53.27,53.27,0,0,0,3.52-4,47.4,47.4,0,0,0,3.08-4.35A43.59,43.59,0,0,0,134,206.82Z" style="fill:#231f20" />
        <path d="M96.06,138.51a100.93,100.93,0,0,1-3.12,11c-.62,1.8-1.26,3.58-2,5.35a30.12,30.12,0,0,1-2.5,5.14c.37-.88.63-1.79.92-2.69l.85-2.72c.56-1.81,1.16-3.6,1.77-5.4C93.24,145.57,94.51,142,96.06,138.51Z" style="fill:#231f20" />
        <path d="M98.82,154.9a32.58,32.58,0,0,0,1,3.36c.37,1.11.8,2.19,1.26,3.25a39.84,39.84,0,0,0,3.33,6.09,30,30,0,0,0,4.44,5.3l1.28,1.17,1.4,1.05c.23.17.45.36.69.53l.75.46c.49.31,1,.62,1.48.95a21.45,21.45,0,0,1-6.11-3.59,24.09,24.09,0,0,1-4.76-5.31,29.89,29.89,0,0,1-3.21-6.36A27.52,27.52,0,0,1,98.82,154.9Z" style="fill:#231f20" />
        <path d="M109.16,158.75a17.86,17.86,0,0,1,4.68,1.8A24,24,0,0,1,118,163.4a23.48,23.48,0,0,1,3.47,3.65,21.53,21.53,0,0,1,2.58,4.29c-1-1.3-2.06-2.59-3.18-3.79a40.52,40.52,0,0,0-7.42-6.33A36.08,36.08,0,0,0,109.16,158.75Z" style="fill:#231f20" />
        <path d="M102.33,107.67a29.69,29.69,0,0,1-1.78,5.5,29.32,29.32,0,0,1-2.7,5.1,28.64,28.64,0,0,1,1.78-5.49A29.41,29.41,0,0,1,102.33,107.67Z" style="fill:#231f20" />
        <path d="M112.74,109.84c-.74,1.53-1.43,3.06-2.12,4.59s-1.34,3.07-1.9,4.64a39.66,39.66,0,0,0-1.47,4.76,21.58,21.58,0,0,0-.6,5,13.5,13.5,0,0,1-.16-5.11,23.69,23.69,0,0,1,1.3-5,33,33,0,0,1,2.14-4.64A29.12,29.12,0,0,1,112.74,109.84Z" style="fill:#231f20" />
        <path d="M120.89,105.26c-.69.79-1.38,1.56-2,2.38s-1.32,1.6-1.93,2.43a56,56,0,0,0-3.44,5.13,37,37,0,0,0-2.64,5.54,21.69,21.69,0,0,0-.8,3,22.17,22.17,0,0,0-.42,3.08,16.57,16.57,0,0,1-.06-3.15,19.61,19.61,0,0,1,.55-3.12,25.47,25.47,0,0,1,2.51-5.82,33.31,33.31,0,0,1,3.71-5.11A31.57,31.57,0,0,1,120.89,105.26Z" style="fill:#231f20" />
        <path d="M127.68,90.34c-1.2,0-2.27,0-3.38,0l-1.67,0a17,17,0,0,1-1.74,0,6.21,6.21,0,0,1,3.39-1,6.75,6.75,0,0,1,1.79.22A4.07,4.07,0,0,1,127.68,90.34Z" style="fill:#231f20" />
        <path d="M129.16,93a47,47,0,0,0-4.8.7A26.51,26.51,0,0,0,119.77,95a17.16,17.16,0,0,0-4.1,2.29,13.53,13.53,0,0,0-3,3.66,9.82,9.82,0,0,1,2.52-4.24A13.76,13.76,0,0,1,119.41,94a18.79,18.79,0,0,1,4.83-1.15A19.28,19.28,0,0,1,129.16,93Z" style="fill:#231f20" />
        <path d="M130,94.77c-1.76,1-3.46,1.91-5.12,2.94-.84.5-1.65,1-2.47,1.57s-1.62,1.11-2.48,1.64a14.49,14.49,0,0,1,4.43-4.07,16.21,16.21,0,0,1,2.71-1.33A11.38,11.38,0,0,1,130,94.77Z" style="fill:#231f20" />
        <path d="M131.14,97.85c-1.67,1.16-3.36,2.17-4.94,3.31a21,21,0,0,0-2.27,1.82,7.94,7.94,0,0,0-1.8,2.28,5,5,0,0,1,1.23-2.81,11,11,0,0,1,2.26-2.1,16.13,16.13,0,0,1,2.64-1.52A13.22,13.22,0,0,1,131.14,97.85Z" style="fill:#231f20" />
        <path d="M132.17,101.55l-2.73,3c-.9,1-1.78,2-2.63,3.08s-1.64,2.13-2.41,3.23a37.9,37.9,0,0,0-2.05,3.51,14,14,0,0,1,1.38-3.91,24.23,24.23,0,0,1,2.31-3.46A25.49,25.49,0,0,1,132.17,101.55Z" style="fill:#231f20" />
    </g>
</svg>