<svg id="sleevef" xmlns="http://www.w3.org/2000/svg" viewBox="0 0 425.2 425.2">
    <g id="sleevef" data-name="Layer 2">
        <path id="sleevef" d="M132.33,305.63c0,5.24-5.33,7.58-5.33,7.58,4.33,3.15,0,7.19,0,7.19C113.66,310.06,90.33,317,90.33,317c-2.33-2.72,0-5.9,0-5.9-3-4.6-1.33-6.24-1.33-6.24l7.79-15.48,37-2.38Z" style="fill:#fff;stroke:#231f20;stroke-miterlimit:10" />
        <path id="Profondeur" d="M127,320.4C113,329.06,90.33,317,90.33,317l15.51-12.14,19.43,8.82Z" style="fill:#ccc;stroke:#231f20;stroke-miterlimit:10" />
        <path d="M142,271.32c-3.27,23.89-9.67,34.31-9.67,34.31C98,292.2,89,304.88,89,304.88c-10-12.51-5-55-5-55,4.5-5.5,3.5-41.8,3.5-41.8C83,185.29,91,178.81,91,178.81c-1-15.09,17.5-53.91,17.5-53.91a261.14,261.14,0,0,1,16.77-35.85A84.45,84.45,0,0,1,144,120.75c6.14,19.69,5.39,46.22,1.32,72.76C145.33,193.51,144.33,254.24,142,271.32Z" style="fill:#fff;stroke:#231f20;stroke-miterlimit:10" />
        <g style="opacity:0.2">
            <path d="M146,132.52A51.33,51.33,0,0,0,135.77,130a71.85,71.85,0,0,0-10.35-.74c-1.73.06-3.46.05-5.2.22-.86.08-1.74.08-2.6.2s-1.73.21-2.61.29-1.73.24-2.6.37l-2.63.37c-1.75.29-3.48.66-5.29.87q2.39-1.26,4.91-2.29a51.79,51.79,0,0,1,5.18-1.62,39.26,39.26,0,0,1,5.36-1,45.43,45.43,0,0,1,5.47-.39,39.83,39.83,0,0,1,10.86,1.46A25.76,25.76,0,0,1,146,132.52Z" style="fill:#231f20" />
        </g>
        <g style="opacity:0.2">
            <path d="M145.22,184.2a58.23,58.23,0,0,0-13-5.31l-1.67-.47c-.56-.14-1.13-.25-1.69-.38-1.13-.25-2.25-.53-3.4-.67s-2.27-.43-3.43-.52l-3.44-.32c-1.16-.07-2.31-.08-3.47-.13-.57,0-1.15-.06-1.73,0s-1.16.06-1.73.07c-1.16.05-2.32,0-3.48.13s-2.31.24-3.47.34c-.58.06-1.17.1-1.75.17l-1.72.29-3.49.54c-2.31.42-4.6,1-7,1.38,2.15-1,4.35-2,6.6-2.8l3.45-1,1.74-.5c.58-.13,1.18-.23,1.77-.35,1.18-.23,2.37-.45,3.56-.65s2.41-.23,3.62-.35c.6-.06,1.21-.09,1.81-.13s1.21,0,1.82,0c1.21,0,2.43,0,3.64.07A50.32,50.32,0,0,1,133,176.68,35.43,35.43,0,0,1,145.22,184.2Z" style="fill:#231f20" />
        </g>
        <g style="opacity:0.2">
            <path d="M142.41,250.38a93.32,93.32,0,0,0-14.77-4.45c-2.5-.5-5-1-7.53-1.22a68.75,68.75,0,0,0-7.58-.51,67.86,67.86,0,0,0-15.09,1.45,83,83,0,0,0-14.64,4.73,46.42,46.42,0,0,1,14.06-7,53.79,53.79,0,0,1,7.77-1.7,63.9,63.9,0,0,1,8-.48,65.62,65.62,0,0,1,7.92.7,58,58,0,0,1,7.72,1.77A49.7,49.7,0,0,1,142.41,250.38Z" style="fill:#231f20" />
        </g>
        <path d="M84,249.9s20.47-17.5,59.61,0" style="fill:none;stroke:#231f20;stroke-miterlimit:10;stroke-width:0.5px" />
        <path d="M91,178.81s32.67-12.17,55.33,6.08" style="fill:none;stroke:#231f20;stroke-miterlimit:10;stroke-width:0.5px" />
        <path d="M105.84,130.71s25.8-8.54,40.35,1.32" style="fill:none;stroke:#231f20;stroke-miterlimit:10;stroke-width:0.5px" />
        <g style="opacity:0.2">
            <path d="M91,263.15c-.26,1.6-.51,3.2-.69,4.81s-.36,3.22-.46,4.83c-.15,3.19-.24,6.49.7,9.46.21.71.57,1.5.83,2.28s.5,1.57.71,2.36c.39,1.59.74,3.19,1,4.8a77,77,0,0,1,1,9.7c-.27-1.6-.52-3.2-.83-4.79s-.59-3.19-.94-4.77-.71-3.15-1.16-4.69c-.22-.77-.45-1.54-.72-2.29s-.58-1.45-.85-2.29a24.63,24.63,0,0,1-.51-9.84A54.43,54.43,0,0,1,91,263.15Z" style="fill:#231f20" />
        </g>
        <g style="opacity:0.2">
            <path d="M102.75,286.4a35.12,35.12,0,0,1,1.91,6.4c.22,1.09.42,2.19.54,3.3a14,14,0,0,1,.06,3.36c-.26-1.09-.57-2.15-.83-3.22s-.52-2.16-.75-3.24A45.2,45.2,0,0,1,102.75,286.4Z" style="fill:#231f20" />
        </g>
        <g style="opacity:0.2">
            <path d="M118.67,284.65a63.82,63.82,0,0,1-.34,8.42,62.09,62.09,0,0,1-1.33,8.32,62.15,62.15,0,0,1,.33-8.42A63.77,63.77,0,0,1,118.67,284.65Z" style="fill:#231f20" />
        </g>
        <g style="opacity:0.2">
            <path d="M127,282.27a39.6,39.6,0,0,1-.51,10.25,24.26,24.26,0,0,1-1.42,5,10.66,10.66,0,0,1-1.28,2.28,4.48,4.48,0,0,1-2,1.6,4.94,4.94,0,0,0,1.63-1.86,13.62,13.62,0,0,0,1-2.3,38.25,38.25,0,0,0,1.17-4.89C126.12,289,126.51,285.66,127,282.27Z" style="fill:#231f20" />
        </g>
        <g style="opacity:0.2">
            <path d="M132.33,271.4a39.16,39.16,0,0,1,2.48,8.24,33.68,33.68,0,0,1,.59,8.63,20.2,20.2,0,0,1-2.27,8.39,16.28,16.28,0,0,1-2.61,3.5,15.93,15.93,0,0,1-3.52,2.49,18.2,18.2,0,0,0,3.16-2.83,15.82,15.82,0,0,0,2.29-3.51,22.35,22.35,0,0,0,2-8.11,41.91,41.91,0,0,0-.36-8.44c-.18-1.41-.43-2.81-.72-4.2S132.71,272.78,132.33,271.4Z" style="fill:#231f20" />
        </g>
        <g style="opacity:0.2">
            <path d="M86.41,289.4c1,2,1.77,4.05,2.56,6.09.4,1,.78,2,1.2,3a11,11,0,0,0,1.53,2.86,6.35,6.35,0,0,1-2.23-2.51,22,22,0,0,1-1.43-3A26.44,26.44,0,0,1,86.41,289.4Z" style="fill:#231f20" />
        </g>
        <g style="opacity:0.2">
            <path d="M120.75,304.88a26.55,26.55,0,0,1,1.15,6.17,22.07,22.07,0,0,1,0,3.15,9.39,9.39,0,0,1-.22,1.58,3.63,3.63,0,0,1-.28.78,1.06,1.06,0,0,1-.26.35.35.35,0,0,1-.4,0c.29,0,.36-.26.4-.48a4.65,4.65,0,0,0,0-.75c0-.5,0-1-.07-1.52l-.23-3.08A51.76,51.76,0,0,1,120.75,304.88Z" style="fill:#231f20" />
        </g>
        <g style="opacity:0.2">
            <path d="M117,303.9a35.71,35.71,0,0,1,0,11.91,35.71,35.71,0,0,1,0-11.91Z" style="fill:#231f20" />
        </g>
        <g style="opacity:0.2">
            <path d="M110.43,301.39a45.48,45.48,0,0,1,0,13.45,45.48,45.48,0,0,1,0-13.45Z" style="fill:#231f20" />
        </g>
        <g style="opacity:0.2">
            <path d="M105.26,301.39a40.13,40.13,0,0,1,.5,6.73,39,39,0,0,1-.5,6.72,40,40,0,0,1-.5-6.72A41.21,41.21,0,0,1,105.26,301.39Z" style="fill:#231f20" />
        </g>
        <g style="opacity:0.2">
            <path d="M94.1,304.88A61.47,61.47,0,0,1,97.6,310c.54.87,1.09,1.74,1.64,2.6.29.42.57.84.88,1.24a2.59,2.59,0,0,0,1.13,1,2.27,2.27,0,0,1-1.47-.62,9.37,9.37,0,0,1-1.15-1.12,20.07,20.07,0,0,1-1.88-2.54A24.32,24.32,0,0,1,94.1,304.88Z" style="fill:#231f20" />
        </g>
        <g style="opacity:0.2">
            <path d="M91.7,305.63a23.08,23.08,0,0,1,2.4,9.21,19.89,19.89,0,0,1-1.68-4.48A20.11,20.11,0,0,1,91.7,305.63Z" style="fill:#231f20" />
        </g>
        <g style="opacity:0.2">
            <path d="M127,305.63a21.45,21.45,0,0,1-.63,6,18,18,0,0,1-1,2.9A5.24,5.24,0,0,1,123.5,317a8.67,8.67,0,0,0,1.16-2.69c.26-.94.5-1.9.74-2.86C125.89,309.5,126.33,307.56,127,305.63Z" style="fill:#231f20" />
        </g>
        <g style="opacity:0.2">
            <path d="M99.1,178.73a1.15,1.15,0,0,1-.64-.55,5.4,5.4,0,0,1-.4-.75,13.26,13.26,0,0,1-.52-1.58A22.59,22.59,0,0,1,97,172.6a27.6,27.6,0,0,1,0-6.55,57.71,57.71,0,0,1,1,6.44l.35,3.21c.07.53.13,1.07.23,1.59a6.63,6.63,0,0,0,.18.77A1.18,1.18,0,0,0,99.1,178.73Z" style="fill:#231f20" />
        </g>
        <g style="opacity:0.2">
            <path d="M118.13,161.06c.15,2.54.05,5.05,0,7.55l-.2,3.75c0,.63-.06,1.25-.06,1.87a7.22,7.22,0,0,0,0,.93c0,.29,0,.64.3.83-.33-.1-.45-.49-.56-.78a7.62,7.62,0,0,1-.24-.94,15.39,15.39,0,0,1-.23-1.9,34.42,34.42,0,0,1,0-3.8A38.93,38.93,0,0,1,118.13,161.06Z" style="fill:#231f20" />
        </g>
        <g style="opacity:0.2">
            <path d="M103.93,170a9,9,0,0,1,1.12,2.83,12.58,12.58,0,0,1,.26,1.47,14.78,14.78,0,0,0,.18,1.49c-.28-.1-.42-.38-.57-.58a5.15,5.15,0,0,1-.36-.7,8.49,8.49,0,0,1-.48-1.45A7.83,7.83,0,0,1,103.93,170Z" style="fill:#231f20" />
        </g>
        <g style="opacity:0.2">
            <path d="M130.87,164.39l-.14,3.5c0,1.15-.07,2.31,0,3.46s0,2.3.07,3.46.11,2.31.12,3.5a20.09,20.09,0,0,1-1.19-7,22.12,22.12,0,0,1,.27-3.54A15,15,0,0,1,130.87,164.39Z" style="fill:#231f20" />
        </g>
        <g style="opacity:0.2">
            <path d="M99.1,176.73c-.45,1.15-1,2.16-1.36,3.2a9.71,9.71,0,0,0-.79,3.28,3.31,3.31,0,0,1-.51-1.8,5.3,5.3,0,0,1,.37-1.85,6.09,6.09,0,0,1,.93-1.6A5,5,0,0,1,99.1,176.73Z" style="fill:#231f20" />
        </g>
        <g style="opacity:0.2">
            <path d="M105.49,174.77a15.57,15.57,0,0,1,.42,2.78,23.59,23.59,0,0,1,0,2.79,18.68,18.68,0,0,1-.34,2.78,8.83,8.83,0,0,1-.9,2.68c.11-1.88.15-3.67.24-5.51A43.5,43.5,0,0,1,105.49,174.77Z" style="fill:#231f20" />
        </g>
        <g style="opacity:0.2">
            <path d="M111.88,174.52a13,13,0,0,1,.28,2.93,13.54,13.54,0,0,1-.28,2.92,5.66,5.66,0,0,1-.72-2.93A5.88,5.88,0,0,1,111.88,174.52Z" style="fill:#231f20" />
        </g>
        <g style="opacity:0.2">
            <path d="M118.13,176c-.06.72-.17,1.41-.28,2.1s-.24,1.35-.32,2a13.14,13.14,0,0,0-.15,2,2.22,2.22,0,0,0,.75,1.73,3,3,0,0,1-.54-.17,3.19,3.19,0,0,1-.46-.38c-.1-.16-.23-.32-.32-.5s-.13-.36-.2-.55a6.21,6.21,0,0,1-.07-2.23,9.92,9.92,0,0,1,.56-2.09A7.72,7.72,0,0,1,118.13,176Z" style="fill:#231f20" />
        </g>
        <g style="opacity:0.2">
            <path d="M130.87,178.31a12.09,12.09,0,0,1,.27,2.8,16.46,16.46,0,0,1-.24,2.8,13.2,13.2,0,0,1-.76,2.73,7.69,7.69,0,0,1-1.48,2.41,35.23,35.23,0,0,0,1.26-5.31C130.24,182,130.48,180.15,130.87,178.31Z" style="fill:#231f20" />
        </g>
        <g style="opacity:0.2">
            <path d="M92.61,246.8a1.16,1.16,0,0,1-.67-.52,4.62,4.62,0,0,1-.42-.75A9,9,0,0,1,91,244a22.74,22.74,0,0,1-.63-3.25,27.4,27.4,0,0,1,0-6.59,60.86,60.86,0,0,1,1,6.47l.4,3.21c.08.54.15,1.07.26,1.59a6.69,6.69,0,0,0,.2.77A1.19,1.19,0,0,0,92.61,246.8Z" style="fill:#231f20" />
        </g>
        <g style="opacity:0.2">
            <path d="M114.18,229.12c.13,2.55,0,5.06-.1,7.57l-.2,3.75c0,.63-.06,1.25-.06,1.87a7.23,7.23,0,0,0,0,.93c.05.29.06.64.33.81-.34-.08-.48-.46-.59-.75a7.7,7.7,0,0,1-.26-.94,15.32,15.32,0,0,1-.23-1.91,32.29,32.29,0,0,1,0-3.81A37.59,37.59,0,0,1,114.18,229.12Z" style="fill:#231f20" />
        </g>
        <g style="opacity:0.2">
            <path d="M99.83,237.05a9.33,9.33,0,0,1,1.17,2.83c.11.49.22,1,.29,1.47a12.15,12.15,0,0,0,.22,1.49c-.29-.09-.43-.36-.59-.57a6.66,6.66,0,0,1-.38-.69,8.62,8.62,0,0,1-.51-1.45A7.93,7.93,0,0,1,99.83,237.05Z" style="fill:#231f20" />
        </g>
        <g style="opacity:0.2">
            <path d="M128,231.46c-.08,1.18-.14,2.34-.19,3.49s-.08,2.31-.06,3.47,0,2.3.09,3.46.14,2.31.16,3.5a19.43,19.43,0,0,1-1.25-7,21.08,21.08,0,0,1,.29-3.55A14.42,14.42,0,0,1,128,231.46Z" style="fill:#231f20" />
        </g>
        <g style="opacity:0.2">
            <path d="M94.61,243.8c-.26.58-.52,1.11-.78,1.63s-.52,1-.73,1.55a12.2,12.2,0,0,0-.56,1.57,9,9,0,0,0-.26,1.73,3.23,3.23,0,0,1-.52-1.83,5.31,5.31,0,0,1,.42-1.86,6.48,6.48,0,0,1,1-1.59A5.17,5.17,0,0,1,94.61,243.8Z" style="fill:#231f20" />
        </g>
        <g style="opacity:0.2">
            <path d="M99.51,241.84a15.59,15.59,0,0,1,.43,2.78,23.61,23.61,0,0,1,0,2.79,17.46,17.46,0,0,1-.36,2.79,8.71,8.71,0,0,1-.94,2.66c.15-1.87.2-3.66.3-5.5A47.5,47.5,0,0,1,99.51,241.84Z" style="fill:#231f20" />
        </g>
        <g style="opacity:0.2">
            <path d="M108.42,241.59a13.55,13.55,0,0,1,.27,2.93,14.8,14.8,0,0,1-.27,2.91,5.4,5.4,0,0,1-.73-2.92A5.73,5.73,0,0,1,108.42,241.59Z" style="fill:#231f20" />
        </g>
        <g style="opacity:0.2">
            <path d="M115.18,243.05c-.08.74-.21,1.43-.34,2.12s-.26,1.36-.35,2a10.22,10.22,0,0,0-.14,2,2.05,2.05,0,0,0,.83,1.69,4,4,0,0,1-.55-.14,5,5,0,0,1-.49-.35l-.35-.5-.21-.56a5.75,5.75,0,0,1-.08-2.26,9.37,9.37,0,0,1,.6-2.1A7.63,7.63,0,0,1,115.18,243.05Z" style="fill:#231f20" />
        </g>
        <g style="opacity:0.2">
            <path d="M129,245.38a12.12,12.12,0,0,1,.27,2.81,16.64,16.64,0,0,1-.28,2.82,13.8,13.8,0,0,1-.81,2.73,7.43,7.43,0,0,1-1.57,2.37,29.51,29.51,0,0,0,1.4-5.29C128.31,249,128.56,247.23,129,245.38Z" style="fill:#231f20" />
        </g>
        <g style="opacity:0.2">
            <path d="M111.84,131a1.32,1.32,0,0,1-.5-.66,5.52,5.52,0,0,1-.29-.77,15.34,15.34,0,0,1-.39-1.59,29.35,29.35,0,0,1-.41-3.21,29.74,29.74,0,0,1,.18-6.46,48.15,48.15,0,0,1,.82,6.39c.06,1.06.14,2.12.18,3.18l.1,1.59A3.44,3.44,0,0,0,111.84,131Z" style="fill:#231f20" />
        </g>
        <g style="opacity:0.30000000000000004">
            <path d="M122.33,113.28a61,61,0,0,1,.14,7.52c0,1.25-.09,2.49-.17,3.74l-.09,1.86c0,.31,0,.62,0,.93s0,.64.16.89c-.28-.19-.33-.56-.42-.85s-.14-.63-.19-.94c-.1-.63-.16-1.26-.2-1.89-.08-1.26-.08-2.52,0-3.77A42.14,42.14,0,0,1,122.33,113.28Z" style="fill:#231f20" />
        </g>
        <g style="opacity:0.2">
            <path d="M113,122.21a8.46,8.46,0,0,1,.9,2.84,10.28,10.28,0,0,1,.13,1.46c0,.49,0,1,0,1.49a3,3,0,0,1-.75-1.35,8.17,8.17,0,0,1-.35-1.44A7.61,7.61,0,0,1,113,122.21Z" style="fill:#231f20" />
        </g>
        <g style="opacity:0.2">
            <path d="M130.7,116.62c.06,2.35,0,4.65.05,7V127c0,1.16,0,2.32-.05,3.5a24.11,24.11,0,0,1-.95-7,27.44,27.44,0,0,1,.21-3.51A17.68,17.68,0,0,1,130.7,116.62Z" style="fill:#231f20" />
        </g>
        <g style="opacity:0.2">
            <path d="M111.84,129c-.2,1.17-.5,2.2-.75,3.25-.14.52-.24,1-.36,1.57l-.3,1.66a4.8,4.8,0,0,1-.31-3.47,6.91,6.91,0,0,1,.64-1.63A4.92,4.92,0,0,1,111.84,129Z" style="fill:#231f20" />
        </g>
        <g style="opacity:0.2">
            <path d="M114,127a23.92,23.92,0,0,1,.22,8.31,11.09,11.09,0,0,1-.73,2.71c-.06-1.87-.07-3.67,0-5.51A35.65,35.65,0,0,1,114,127Z" style="fill:#231f20" />
        </g>
        <g style="opacity:0.2">
            <path d="M118.23,126.75a10.69,10.69,0,0,1,.36,2.93,11.06,11.06,0,0,1-.36,2.92,6.19,6.19,0,0,1-.64-2.93A6.43,6.43,0,0,1,118.23,126.75Z" style="fill:#231f20" />
        </g>
        <g style="opacity:0.2">
            <path d="M123.33,127.22a31.24,31.24,0,0,1-.21,4c-.06.65-.13,1.3-.15,1.94a2.93,2.93,0,0,0,.36,1.83,1.41,1.41,0,0,1-.79-.73,3.36,3.36,0,0,1-.35-1,7.42,7.42,0,0,1-.06-2.1A9.93,9.93,0,0,1,123.33,127.22Z" style="fill:#231f20" />
        </g>
        <g style="opacity:0.2">
            <path d="M132.7,129.54a14.22,14.22,0,0,1,.32,2.74,21,21,0,0,1-.11,2.75,16.85,16.85,0,0,1-.53,2.71,8.6,8.6,0,0,1-1.13,2.53c.28-1.82.47-3.56.66-5.35S132.31,131.35,132.7,129.54Z" style="fill:#231f20" />
        </g>
        <path id="Profondeur-2" data-name="Profondeur" d="M298.2,319.31c14,8.67,36.67-3.38,36.67-3.38l-15.51-12.14-19.44,8.83Z" style="fill:#ccc;stroke:#231f20;stroke-miterlimit:10" />
        <path d="M292.86,304.54c0,5.24,5.34,7.58,5.34,7.58-4.34,3.15,0,7.19,0,7.19,13.33-10.33,36.67-3.38,36.67-3.38,2.33-2.72,0-5.9,0-5.9,3-4.6,1.33-6.24,1.33-6.24l-7.8-15.48-37-2.38Z" style="fill:#fff;stroke:#231f20;stroke-miterlimit:10" />
        <path d="M283.2,270.23c3.26,23.89,9.66,34.31,9.66,34.31,34.34-13.43,43.34-.75,43.34-.75,10-12.51,5-55,5-55-4.5-5.5-3.5-41.8-3.5-41.8,4.5-22.8-3.5-29.29-3.5-29.29,1-15.09-17.5-53.91-17.5-53.91A260.51,260.51,0,0,0,299.92,88a84.36,84.36,0,0,0-18.73,31.7c-6.15,19.69-5.39,46.23-1.33,72.76C279.86,192.42,280.86,253.15,283.2,270.23Z" style="fill:#fff;stroke:#231f20;stroke-miterlimit:10" />
        <g style="opacity:0.2">
            <path d="M279.2,131.43a25.81,25.81,0,0,1,9.73-4.84,39.83,39.83,0,0,1,10.86-1.46,47.24,47.24,0,0,1,5.46.39,38.69,38.69,0,0,1,5.36,1,53.84,53.84,0,0,1,5.19,1.62c1.67.69,3.32,1.45,4.91,2.29-1.81-.21-3.55-.58-5.3-.87l-2.62-.37c-.87-.13-1.73-.31-2.61-.37s-1.74-.17-2.6-.29-1.74-.12-2.61-.2c-1.73-.17-3.46-.16-5.19-.22a71.65,71.65,0,0,0-10.35.74A51.59,51.59,0,0,0,279.2,131.43Z" style="fill:#231f20" />
        </g>
        <g style="opacity:0.2">
            <path d="M280,183.12a35.44,35.44,0,0,1,12.24-7.53,50.17,50.17,0,0,1,14.18-3.14c1.21,0,2.42,0,3.64-.07.6,0,1.21,0,1.82,0l1.81.13c1.21.12,2.42.18,3.61.35s2.38.42,3.57.65c.59.12,1.18.22,1.77.35l1.74.5,3.45,1c2.25.82,4.45,1.8,6.6,2.8-2.38-.38-4.66-1-7-1.38l-3.48-.54-1.73-.29c-.58-.07-1.16-.11-1.74-.16-1.16-.1-2.32-.22-3.47-.35s-2.32-.08-3.48-.13c-.58,0-1.16,0-1.73-.07s-1.16,0-1.74,0c-1.15.05-2.31.07-3.46.14l-3.45.32c-1.15.08-2.27.37-3.42.51s-2.27.42-3.4.67c-.56.13-1.13.24-1.69.39l-1.68.46A57.79,57.79,0,0,0,280,183.12Z" style="fill:#231f20" />
        </g>
        <g style="opacity:0.2">
            <path d="M282.79,249.29A49.57,49.57,0,0,1,297,242.58a58,58,0,0,1,7.72-1.77,65.62,65.62,0,0,1,7.92-.7,64,64,0,0,1,7.95.48,55.47,55.47,0,0,1,7.77,1.7,46.53,46.53,0,0,1,14.06,7,83.05,83.05,0,0,0-14.65-4.73,69.86,69.86,0,0,0-22.66-.94c-2.53.26-5,.72-7.53,1.22A92.7,92.7,0,0,0,282.79,249.29Z" style="fill:#231f20" />
        </g>
        <path d="M341.2,248.81s-20.47-17.5-59.61,0" style="fill:none;stroke:#231f20;stroke-miterlimit:10;stroke-width:0.5px" />
        <path d="M334.2,177.72s-32.67-12.17-55.34,6.08" style="fill:none;stroke:#231f20;stroke-miterlimit:10;stroke-width:0.5px" />
        <path d="M319.36,129.63S293.55,121.08,279,131" style="fill:none;stroke:#231f20;stroke-miterlimit:10;stroke-width:0.5px" />
        <g style="opacity:0.2">
            <path d="M334.2,262.06a56.31,56.31,0,0,1,1.91,9.57,25.05,25.05,0,0,1-.51,9.85c-.27.83-.59,1.52-.86,2.28s-.49,1.52-.72,2.29c-.44,1.55-.79,3.12-1.16,4.69s-.65,3.17-.93,4.77-.56,3.19-.83,4.79a77.23,77.23,0,0,1,1-9.7c.25-1.61.6-3.21,1-4.8.21-.79.44-1.58.71-2.36s.61-1.57.83-2.28c.94-3,.84-6.27.7-9.46-.1-1.61-.25-3.22-.46-4.83S334.46,263.66,334.2,262.06Z" style="fill:#231f20" />
        </g>
        <g style="opacity:0.2">
            <path d="M322.45,285.31a43.89,43.89,0,0,1-.94,6.6c-.23,1.08-.47,2.16-.74,3.24s-.58,2.13-.84,3.22A14,14,0,0,1,320,295c.12-1.11.32-2.21.53-3.3A35.39,35.39,0,0,1,322.45,285.31Z" style="fill:#231f20" />
        </g>
        <g style="opacity:0.2">
            <path d="M306.53,283.56a71.36,71.36,0,0,1,1.67,16.74,62.09,62.09,0,0,1-1.33-8.32A63.82,63.82,0,0,1,306.53,283.56Z" style="fill:#231f20" />
        </g>
        <g style="opacity:0.2">
            <path d="M298.2,281.18c.49,3.39.87,6.76,1.48,10.08a40.46,40.46,0,0,0,1.17,4.89,14.84,14.84,0,0,0,1,2.29,4.94,4.94,0,0,0,1.63,1.86,4.47,4.47,0,0,1-2-1.59,11.49,11.49,0,0,1-1.29-2.29,24.35,24.35,0,0,1-1.42-5A39.69,39.69,0,0,1,298.2,281.18Z" style="fill:#231f20" />
        </g>
        <g style="opacity:0.2">
            <path d="M292.86,270.31c-.37,1.38-.72,2.76-1,4.16s-.55,2.79-.73,4.2a42,42,0,0,0-.35,8.45,22.14,22.14,0,0,0,2,8.1,16.13,16.13,0,0,0,2.28,3.51,18.64,18.64,0,0,0,3.17,2.83,15.67,15.67,0,0,1-3.53-2.49,16.62,16.62,0,0,1-2.61-3.5,20.35,20.35,0,0,1-2.27-8.39,33.71,33.71,0,0,1,.6-8.63A39.74,39.74,0,0,1,292.86,270.31Z" style="fill:#231f20" />
        </g>
        <g style="opacity:0.2">
            <path d="M338.79,288.31a26.45,26.45,0,0,1-1.64,6.45,21.94,21.94,0,0,1-1.42,3,6.43,6.43,0,0,1-2.23,2.51,11.1,11.1,0,0,0,1.53-2.86c.41-1,.8-2,1.19-3C337,292.36,337.79,290.31,338.79,288.31Z" style="fill:#231f20" />
        </g>
        <g style="opacity:0.2">
            <path d="M304.45,303.79a51.76,51.76,0,0,1-.15,6.24l-.24,3.08c0,.51-.07,1-.06,1.52a3.73,3.73,0,0,0,.05.75c0,.22.1.51.4.49a.39.39,0,0,1-.41-.05,1.23,1.23,0,0,1-.26-.35,3.6,3.6,0,0,1-.27-.78,10.56,10.56,0,0,1-.23-1.58,23.63,23.63,0,0,1,0-3.15A26,26,0,0,1,304.45,303.79Z" style="fill:#231f20" />
        </g>
        <g style="opacity:0.2">
            <path d="M308.2,302.81a32.3,32.3,0,0,1,.5,5.95,31.56,31.56,0,0,1-.5,6,30.75,30.75,0,0,1-.5-6A31.45,31.45,0,0,1,308.2,302.81Z" style="fill:#231f20" />
        </g>
        <g style="opacity:0.2">
            <path d="M314.76,300.3a45.54,45.54,0,0,1,0,13.46,45.54,45.54,0,0,1,0-13.46Z" style="fill:#231f20" />
        </g>
        <g style="opacity:0.2">
            <path d="M319.93,300.3a45.54,45.54,0,0,1,0,13.46,46.46,46.46,0,0,1,0-13.46Z" style="fill:#231f20" />
        </g>
        <g style="opacity:0.2">
            <path d="M331.1,303.79a24,24,0,0,1-2.66,5.68,19.07,19.07,0,0,1-1.87,2.54,9.37,9.37,0,0,1-1.15,1.12,2.28,2.28,0,0,1-1.47.63,2.59,2.59,0,0,0,1.12-1c.32-.4.6-.82.88-1.24.56-.86,1.11-1.72,1.65-2.6A59.15,59.15,0,0,1,331.1,303.79Z" style="fill:#231f20" />
        </g>
        <g style="opacity:0.2">
            <path d="M333.5,304.54a20.56,20.56,0,0,1-.72,4.73,20.15,20.15,0,0,1-1.68,4.49,20.18,20.18,0,0,1,.71-4.74A20.8,20.8,0,0,1,333.5,304.54Z" style="fill:#231f20" />
        </g>
        <g style="opacity:0.2">
            <path d="M298.2,304.54c.66,1.93,1.11,3.87,1.6,5.79.23,1,.47,1.92.74,2.86a8.73,8.73,0,0,0,1.16,2.7,5.25,5.25,0,0,1-1.89-2.42,17.07,17.07,0,0,1-1-2.9A20.74,20.74,0,0,1,298.2,304.54Z" style="fill:#231f20" />
        </g>
        <g style="opacity:0.2">
            <path d="M326.1,177.64a1.24,1.24,0,0,0,.39-.67c.07-.25.13-.51.18-.77.09-.52.15-1.06.22-1.59l.36-3.21a55.48,55.48,0,0,1,1-6.44,27.68,27.68,0,0,1,0,6.56,24.2,24.2,0,0,1-.58,3.24,11.73,11.73,0,0,1-.53,1.58,4.15,4.15,0,0,1-.4.75A1.13,1.13,0,0,1,326.1,177.64Z" style="fill:#231f20" />
        </g>
        <g style="opacity:0.2">
            <path d="M307.07,160a38.15,38.15,0,0,1,1,7.51,34.41,34.41,0,0,1,0,3.8c-.05.64-.12,1.27-.23,1.9a6.33,6.33,0,0,1-.25.95c-.1.28-.22.67-.55.77.26-.19.25-.54.3-.83s0-.62,0-.93c0-.62,0-1.24-.06-1.87l-.2-3.75A70.36,70.36,0,0,1,307.07,160Z" style="fill:#231f20" />
        </g>
        <g style="opacity:0.2">
            <path d="M321.26,168.9a7.79,7.79,0,0,1-.14,3,9.47,9.47,0,0,1-.48,1.45,6.61,6.61,0,0,1-.36.7c-.16.21-.29.48-.57.58a14.78,14.78,0,0,0,.18-1.49c.05-.49.15-1,.25-1.47A9.39,9.39,0,0,1,321.26,168.9Z" style="fill:#231f20" />
        </g>
        <g style="opacity:0.2">
            <path d="M294.32,163.3a14.08,14.08,0,0,1,.92,3.42,22.14,22.14,0,0,1,.28,3.54,19.83,19.83,0,0,1-1.2,7c0-1.18.1-2.34.13-3.5s.07-2.31.07-3.46,0-2.31,0-3.46Z" style="fill:#231f20" />
        </g>
        <g style="opacity:0.2">
            <path d="M326.1,175.64a5,5,0,0,1,1.36,1.23,6.9,6.9,0,0,1,.93,1.6,5.3,5.3,0,0,1,.37,1.85,3.4,3.4,0,0,1-.51,1.8,12,12,0,0,0-.27-1.71,15.18,15.18,0,0,0-.52-1.57C327.06,177.8,326.55,176.79,326.1,175.64Z" style="fill:#231f20" />
        </g>
        <g style="opacity:0.2">
            <path d="M319.71,173.68a45.41,45.41,0,0,1,.54,5.52c.08,1.84.12,3.63.24,5.51a9.14,9.14,0,0,1-.91-2.68,18.66,18.66,0,0,1-.33-2.78,21.65,21.65,0,0,1,0-2.79A14.71,14.71,0,0,1,319.71,173.68Z" style="fill:#231f20" />
        </g>
        <g style="opacity:0.2">
            <path d="M313.32,173.43a6,6,0,0,1,.71,2.92,5.56,5.56,0,0,1-.71,2.93,14.24,14.24,0,0,1-.29-2.92A13,13,0,0,1,313.32,173.43Z" style="fill:#231f20" />
        </g>
        <g style="opacity:0.2">
            <path d="M307.07,174.9a7.87,7.87,0,0,1,1,1.89,9.35,9.35,0,0,1,.56,2.09,6,6,0,0,1-.07,2.23,5.14,5.14,0,0,1-.2.55,3.56,3.56,0,0,1-.32.5,2.67,2.67,0,0,1-.45.38,3,3,0,0,1-.54.17,2.16,2.16,0,0,0,.74-1.72,12,12,0,0,0-.15-2c-.08-.67-.22-1.34-.32-2S307.12,175.63,307.07,174.9Z" style="fill:#231f20" />
        </g>
        <g style="opacity:0.2">
            <path d="M294.32,177.22c.4,1.85.64,3.65,1,5.43a35,35,0,0,0,1.26,5.31,7.72,7.72,0,0,1-1.49-2.41,14.36,14.36,0,0,1-.76-2.73,17.54,17.54,0,0,1-.24-2.8A12.66,12.66,0,0,1,294.32,177.22Z" style="fill:#231f20" />
        </g>
        <g style="opacity:0.2">
            <path d="M332.59,245.71a1.17,1.17,0,0,0,.42-.65,6.73,6.73,0,0,0,.21-.77c.11-.52.18-1,.26-1.59l.39-3.21a62.93,62.93,0,0,1,1.05-6.46,27.32,27.32,0,0,1-.06,6.58,22.71,22.71,0,0,1-.62,3.25,11.55,11.55,0,0,1-.56,1.59,5.41,5.41,0,0,1-.42.74A1.19,1.19,0,0,1,332.59,245.71Z" style="fill:#231f20" />
        </g>
        <g style="opacity:0.2">
            <path d="M311,228a38.22,38.22,0,0,1,1.09,7.51,32.29,32.29,0,0,1,0,3.81,15.34,15.34,0,0,1-.24,1.91,7.66,7.66,0,0,1-.25.94c-.12.29-.25.67-.59.76.27-.18.27-.53.33-.82a5.75,5.75,0,0,0,0-.93c0-.62,0-1.24-.05-1.86l-.21-3.76C311,233.1,310.88,230.58,311,228Z" style="fill:#231f20" />
        </g>
        <g style="opacity:0.2">
            <path d="M325.37,236a7.74,7.74,0,0,1-.21,3.08,8.58,8.58,0,0,1-.5,1.45,5.76,5.76,0,0,1-.38.69c-.16.21-.31.48-.6.57a10.5,10.5,0,0,0,.23-1.49,12.72,12.72,0,0,1,.29-1.47A9.33,9.33,0,0,1,325.37,236Z" style="fill:#231f20" />
        </g>
        <g style="opacity:0.2">
            <path d="M297.24,230.37a14.06,14.06,0,0,1,1,3.42,22,22,0,0,1,.28,3.54,19.18,19.18,0,0,1-1.25,7c0-1.19.13-2.34.17-3.5s.08-2.31.08-3.46,0-2.31-.06-3.46S297.32,231.55,297.24,230.37Z" style="fill:#231f20" />
        </g>
        <g style="opacity:0.2">
            <path d="M330.59,242.71a5,5,0,0,1,1.42,1.2,5.94,5.94,0,0,1,1,1.59,5.1,5.1,0,0,1,.42,1.86,3.15,3.15,0,0,1-.51,1.83,10.86,10.86,0,0,0-.26-1.73,13.45,13.45,0,0,0-.57-1.57c-.2-.52-.47-1-.72-1.55S330.84,243.29,330.59,242.71Z" style="fill:#231f20" />
        </g>
        <g style="opacity:0.2">
            <path d="M325.68,240.75a47.54,47.54,0,0,1,.55,5.52c.09,1.84.14,3.63.3,5.51a8.88,8.88,0,0,1-.95-2.67,18.67,18.67,0,0,1-.35-2.79,23.61,23.61,0,0,1,0-2.79A15.57,15.57,0,0,1,325.68,240.75Z" style="fill:#231f20" />
        </g>
        <g style="opacity:0.2">
            <path d="M316.77,240.5a5.74,5.74,0,0,1,.74,2.92,5.56,5.56,0,0,1-.74,2.93,14.94,14.94,0,0,1-.26-2.92A13.58,13.58,0,0,1,316.77,240.5Z" style="fill:#231f20" />
        </g>
        <g style="opacity:0.2">
            <path d="M310,242a7.71,7.71,0,0,1,1.08,1.89,9.35,9.35,0,0,1,.59,2.1,5.75,5.75,0,0,1-.07,2.26c-.07.19-.14.38-.22.56l-.35.5a4.85,4.85,0,0,1-.48.35,4.57,4.57,0,0,1-.55.15,2.11,2.11,0,0,0,.83-1.7,10.22,10.22,0,0,0-.14-2c-.09-.67-.24-1.34-.36-2S310.1,242.7,310,242Z" style="fill:#231f20" />
        </g>
        <g style="opacity:0.2">
            <path d="M296.24,244.29c.4,1.85.65,3.66,1,5.45a31.8,31.8,0,0,0,1.4,5.29,7.55,7.55,0,0,1-1.56-2.38,13.19,13.19,0,0,1-.82-2.73,16.61,16.61,0,0,1-.27-2.81A12.14,12.14,0,0,1,296.24,244.29Z" style="fill:#231f20" />
        </g>
        <g style="opacity:0.2">
            <path d="M313.36,129.87a3.55,3.55,0,0,0,.31-1.53l.09-1.59c.05-1.06.12-2.12.19-3.18a47.79,47.79,0,0,1,.82-6.38,29.63,29.63,0,0,1,.18,6.45,29.07,29.07,0,0,1-.42,3.21,13.1,13.1,0,0,1-.38,1.59c-.09.26-.18.52-.29.77A1.38,1.38,0,0,1,313.36,129.87Z" style="fill:#231f20" />
        </g>
        <g style="opacity:0.30000000000000004">
            <path d="M302.86,112.2a41,41,0,0,1,.86,7.48c0,1.25,0,2.51-.05,3.77,0,.63-.1,1.26-.19,1.89-.06.31-.12.62-.2.94s-.13.66-.42.85a1.58,1.58,0,0,0,.16-.89c0-.31,0-.62,0-.93l-.1-1.86c-.07-1.25-.12-2.49-.17-3.74A65,65,0,0,1,302.86,112.2Z" style="fill:#231f20" />
        </g>
        <g style="opacity:0.2">
            <path d="M312.19,121.12a7.8,7.8,0,0,1,.08,3,9.15,9.15,0,0,1-.35,1.44,3.12,3.12,0,0,1-.75,1.35c0-.5-.05-1,0-1.48a13.89,13.89,0,0,1,.13-1.46A8.7,8.7,0,0,1,312.19,121.12Z" style="fill:#231f20" />
        </g>
        <g style="opacity:0.2">
            <path d="M294.49,115.53a17,17,0,0,1,.74,3.45,27.45,27.45,0,0,1,.22,3.51,24.07,24.07,0,0,1-1,7c-.06-1.18,0-2.34-.05-3.5v-3.46C294.46,120.18,294.44,117.88,294.49,115.53Z" style="fill:#231f20" />
        </g>
        <g style="opacity:0.2">
            <path d="M313.36,127.87a5,5,0,0,1,1.08,1.39,7.81,7.81,0,0,1,.64,1.62,4.9,4.9,0,0,1-.31,3.47l-.3-1.66c-.12-.52-.23-1.05-.37-1.57C313.85,130.07,313.55,129,313.36,127.87Z" style="fill:#231f20" />
        </g>
        <g style="opacity:0.2">
            <path d="M311.17,125.91a36.93,36.93,0,0,1,.52,5.51c.05,1.84.05,3.64,0,5.52a10.47,10.47,0,0,1-.73-2.71,23.29,23.29,0,0,1,.22-8.32Z" style="fill:#231f20" />
        </g>
        <g style="opacity:0.2">
            <path d="M307,125.66a6.46,6.46,0,0,1,.64,2.92,6.19,6.19,0,0,1-.64,2.93,11.06,11.06,0,0,1-.36-2.92A10.32,10.32,0,0,1,307,125.66Z" style="fill:#231f20" />
        </g>
        <g style="opacity:0.2">
            <path d="M301.86,126.13a9.84,9.84,0,0,1,1.21,3.93,7.42,7.42,0,0,1-.07,2.1,3.26,3.26,0,0,1-.34,1,1.45,1.45,0,0,1-.8.74,2.92,2.92,0,0,0,.37-1.84c0-.64-.09-1.29-.15-1.94A29.44,29.44,0,0,1,301.86,126.13Z" style="fill:#231f20" />
        </g>
        <g style="opacity:0.2">
            <path d="M292.49,128.45a53.71,53.71,0,0,1,.79,5.38c.2,1.79.39,3.53.67,5.36a8.77,8.77,0,0,1-1.13-2.54,16.85,16.85,0,0,1-.53-2.71,19.4,19.4,0,0,1-.11-2.75A13.46,13.46,0,0,1,292.49,128.45Z" style="fill:#231f20" />
        </g>
    </g>
</svg>