<svg id="sleevet" xmlns="http://www.w3.org/2000/svg" viewBox="0 0 425.2 425.2">
    <g id="sleevet" data-name="Layer 2">
        <path id="sleevet" d="M138.79,210.17c-.12,1.92-1.35,9.25-1.35,9.25-.63,1.46-15.15,7.05-15.15,7.05-9.46-6.81-19.92-1.94-19.92-1.94-7.3-1.22-14-6.82-14-6.82.25-4.13-8-15.81-8-15.81-6.07-10.46,6.79-39,6.79-39-.24-22.66,10.67-44,10.67-44,.24-7.3,6.07-20,6.07-20C116,81.71,126,88.57,126,88.57s13.63-.71,17.8,27.13C146.5,133.48,141.73,162.26,138.79,210.17Z" style="fill:#fff;stroke:#231f20;stroke-miterlimit:10" />
        <path d="M88.58,187.79c0,1.74,0,3.48.08,5.21s.2,3.47.42,5.19A54.08,54.08,0,0,0,91.2,208.3a31.61,31.61,0,0,0,4.54,9.18,23.08,23.08,0,0,0,3.52,3.74,23.89,23.89,0,0,0,4.35,2.83A20.86,20.86,0,0,1,99,221.61,22.81,22.81,0,0,1,95.14,218a28.19,28.19,0,0,1-4.89-9.35,44.5,44.5,0,0,1-1.93-10.34A49.5,49.5,0,0,1,88.58,187.79Z" style="fill:#231f20" />
        <path d="M97.31,201.41a45,45,0,0,0,1.08,5.94,37.22,37.22,0,0,0,1.92,5.65,26.8,26.8,0,0,0,2.91,5.17l.9,1.2,1,1.12.49.57.55.51c.38.34.74.69,1.1,1.05a18,18,0,0,1-4.64-4,21.11,21.11,0,0,1-3.22-5.25,26.6,26.6,0,0,1-1.76-5.89A23.55,23.55,0,0,1,97.31,201.41Z" style="fill:#231f20" />
        <path d="M115.5,194.36c-.08,2.37-.25,4.73-.41,7.09s-.39,4.71-.58,7.06l-.63,7.05c-.11,1.17-.21,2.35-.26,3.53a24.43,24.43,0,0,0-.06,3.53,30.73,30.73,0,0,1-.45-7.1c0-2.38.21-4.74.41-7.1s.47-4.71.8-7.06S115,196.68,115.5,194.36Z" style="fill:#231f20" />
        <path d="M127.63,192.65c-.22,2.76-.63,5.49-1.1,8.22s-1.08,5.42-1.76,8.1a66.2,66.2,0,0,1-2.57,7.9,23,23,0,0,1-4.15,7.18c.35-.6.75-1.16,1.08-1.76s.6-1.23.88-1.85l.79-1.9.68-1.93c.85-2.61,1.64-5.23,2.32-7.89s1.34-5.33,2-8Z" style="fill:#231f20" />
        <path d="M133.94,208.35a21.4,21.4,0,0,1-1.93,5.12,30.18,30.18,0,0,1-3,4.61,29,29,0,0,1-3.77,4,26.67,26.67,0,0,1-4.43,3.2c1.33-1.24,2.66-2.46,3.89-3.76a51.11,51.11,0,0,0,6.6-8.43A44.18,44.18,0,0,0,133.94,208.35Z" style="fill:#231f20" />
        <path d="M96,139.37a99.75,99.75,0,0,1-3.11,11.07c-.62,1.82-1.26,3.62-2,5.4A30,30,0,0,1,88.4,161a27.19,27.19,0,0,0,.92-2.72l.85-2.74c.57-1.83,1.17-3.64,1.77-5.46C93.18,146.5,94.46,142.89,96,139.37Z" style="fill:#231f20" />
        <path d="M98.76,155.92c.31,1.14.62,2.28,1,3.38s.8,2.21,1.27,3.28a40.42,40.42,0,0,0,3.31,6.15,30,30,0,0,0,4.45,5.35l1.28,1.19,1.4,1.06c.23.18.45.37.69.54l.75.47c.5.31,1,.63,1.49,1a21.81,21.81,0,0,1-6.13-3.64,24.41,24.41,0,0,1-4.76-5.38,30.31,30.31,0,0,1-3.2-6.42A27.72,27.72,0,0,1,98.76,155.92Z" style="fill:#231f20" />
        <path d="M109.11,159.81a17.45,17.45,0,0,1,4.69,1.83,24.33,24.33,0,0,1,7.62,6.56,21.71,21.71,0,0,1,2.57,4.32c-1-1.31-2-2.61-3.17-3.82a40.55,40.55,0,0,0-3.52-3.42,36.65,36.65,0,0,0-3.91-3A36.21,36.21,0,0,0,109.11,159.81Z" style="fill:#231f20" />
        <path d="M102.28,108.23a30.08,30.08,0,0,1-1.78,5.54,29.22,29.22,0,0,1-2.71,5.16,34.38,34.38,0,0,1,4.49-10.7Z" style="fill:#231f20" />
        <path d="M112.69,110.42c-.74,1.54-1.43,3.09-2.12,4.64s-1.34,3.1-1.9,4.68a38.66,38.66,0,0,0-1.47,4.81,21.38,21.38,0,0,0-.6,5,13.5,13.5,0,0,1-.17-5.15,24.52,24.52,0,0,1,1.3-5,34.24,34.24,0,0,1,2.14-4.69A29.66,29.66,0,0,1,112.69,110.42Z" style="fill:#231f20" />
        <path d="M120.84,105.79c-.7.8-1.39,1.58-2,2.41s-1.32,1.62-1.94,2.46a55.36,55.36,0,0,0-3.44,5.18,36.17,36.17,0,0,0-2.63,5.6,20.26,20.26,0,0,0-.8,3,22.66,22.66,0,0,0-.42,3.1,15.25,15.25,0,0,1-.06-3.17,21.17,21.17,0,0,1,.54-3.15,26.66,26.66,0,0,1,2.5-5.87,34.5,34.5,0,0,1,3.72-5.16A31.54,31.54,0,0,1,120.84,105.79Z" style="fill:#231f20" />
        <path d="M127.63,90.73c-1.2,0-2.27,0-3.38,0l-1.67,0a16.91,16.91,0,0,1-1.74,0,6.22,6.22,0,0,1,3.39-1,6.75,6.75,0,0,1,1.79.22A4,4,0,0,1,127.63,90.73Z" style="fill:#231f20" />
        <path d="M129.11,93.37a44.75,44.75,0,0,0-4.82.71,26.79,26.79,0,0,0-4.59,1.32,17.27,17.27,0,0,0-4.1,2.32,13.79,13.79,0,0,0-3,3.69,9.84,9.84,0,0,1,2.5-4.27,13.87,13.87,0,0,1,4.25-2.67,19,19,0,0,1,4.84-1.16A19.44,19.44,0,0,1,129.11,93.37Z" style="fill:#231f20" />
        <path d="M129.94,95.2c-1.77,1-3.47,1.92-5.13,3-.83.51-1.65,1-2.47,1.59s-1.61,1.12-2.47,1.66a14.44,14.44,0,0,1,4.42-4.1A16.3,16.3,0,0,1,127,96,11,11,0,0,1,129.94,95.2Z" style="fill:#231f20" />
        <path d="M131.09,98.31c-1.68,1.17-3.37,2.19-5,3.35a21.12,21.12,0,0,0-2.27,1.83,8.54,8.54,0,0,0-1.8,2.3A5.13,5.13,0,0,1,123.3,103a11,11,0,0,1,2.26-2.11,16.24,16.24,0,0,1,2.64-1.54A13.36,13.36,0,0,1,131.09,98.31Z" style="fill:#231f20" />
        <path d="M132.12,102.05l-2.74,3.07c-.89,1-1.78,2.06-2.62,3.12s-1.64,2.15-2.41,3.26a40.92,40.92,0,0,0-2.06,3.54,14.62,14.62,0,0,1,1.39-3.93,22.63,22.63,0,0,1,2.3-3.49A25.43,25.43,0,0,1,132.12,102.05Z" style="fill:#231f20" />
        <path d="M125.31,220.58v14.26c-12.14,6.78-24.69,2.37-24.69,2.37l-2-13.53S110.84,222.89,125.31,220.58Z" style="fill:#fff;stroke:#231f20;stroke-miterlimit:10" />
        <path d="M98.84,225.27s18.39-2.41,26.47-2.65" style="fill:#fff" />
        <polygon points="99.33 228.98 105.89 228.17 105 220.73 98.36 221.55 99.33 228.98" style="fill:none" />
        <rect x="103.74" y="224.31" width="1.23" height="0.75" transform="translate(-26.24 14.17) rotate(-6.9)" style="fill:#231f20" />
        <rect x="101.54" y="224.58" width="1.23" height="0.75" transform="translate(-26.98 14.33) rotate(-7.09)" style="fill:#231f20" />
        <polygon points="99.31 224.94 99.4 225.68 100.63 225.53 100.53 224.78 99.31 224.94" style="fill:#231f20;fill-rule:evenodd" />
        <polygon points="105.89 228.17 112.45 227.43 111.66 219.98 105 220.73 105.89 228.17" style="fill:none" />
        <rect x="110.35" y="223.56" width="1.23" height="0.75" transform="translate(-23.83 13.48) rotate(-6.28)" style="fill:#231f20" />
        <rect x="108.15" y="223.8" width="1.23" height="0.75" transform="translate(-24.7 13.77) rotate(-6.51)" style="fill:#231f20" />
        <rect x="105.95" y="224.05" width="1.23" height="0.75" transform="translate(-25.43 13.95) rotate(-6.69)" style="fill:#231f20" />
        <path d="M112.45,227.43c2.19-.23,4.37-.45,6.55-.64l-.65-7.47q-3.36.3-6.69.66Z" style="fill:none" />
        <polygon points="116.93 222.95 117 223.69 118.23 223.58 118.16 222.83 116.93 222.95" style="fill:#231f20;fill-rule:evenodd" />
        <polygon points="114.72 223.16 114.8 223.91 116.03 223.79 115.95 223.04 114.72 223.16" style="fill:#231f20;fill-rule:evenodd" />
        <rect x="112.56" y="223.32" width="1.23" height="0.75" transform="translate(-22.83 13.1) rotate(-6.02)" style="fill:#231f20" />
        <path d="M119,226.79c2.17-.18,4.35-.36,6.42-.42l-.22-7.5c-2.36.08-4.6.26-6.85.45Z" style="fill:none" />
        <polygon points="123.57 222.43 123.61 223.18 124.84 223.12 124.81 222.38 123.57 222.43" style="fill:#231f20;fill-rule:evenodd" />
        <polygon points="121.36 222.57 121.41 223.32 122.64 223.24 122.59 222.49 121.36 222.57" style="fill:#231f20;fill-rule:evenodd" />
        <polygon points="119.16 222.75 119.22 223.5 120.45 223.4 120.39 222.65 119.16 222.75" style="fill:#231f20;fill-rule:evenodd" />
        <line x1="98.76" y1="226.47" x2="125.31" y2="224.05" style="fill:#fff" />
        <rect x="98.75" y="222.42" width="6.66" height="7.5" transform="translate(-20.12 10.2) rotate(-5.21)" style="fill:none" />
        <rect x="103.69" y="225.7" width="1.24" height="0.75" transform="translate(-20.11 10.41) rotate(-5.21)" style="fill:#231f20" />
        <rect x="101.48" y="225.9" width="1.24" height="0.75" transform="translate(-20.06 10.17) rotate(-5.19)" style="fill:#231f20" />
        <rect x="99.27" y="226.1" width="1.24" height="0.75" transform="translate(-20.16 10.01) rotate(-5.21)" style="fill:#231f20" />
        <rect x="105.39" y="221.82" width="6.66" height="7.5" transform="translate(-20.03 10.8) rotate(-5.21)" style="fill:none" />
        <rect x="110.32" y="225.1" width="1.24" height="0.75" transform="translate(-20.02 11.01) rotate(-5.21)" style="fill:#231f20" />
        <rect x="108.11" y="225.3" width="1.24" height="0.75" transform="translate(-19.98 10.77) rotate(-5.19)" style="fill:#231f20" />
        <rect x="105.91" y="225.5" width="1.24" height="0.75" transform="translate(-20.08 10.61) rotate(-5.21)" style="fill:#231f20" />
        <rect x="112.02" y="221.21" width="6.66" height="7.5" transform="translate(-19.95 11.4) rotate(-5.21)" style="fill:none" />
        <rect x="116.96" y="224.49" width="1.24" height="0.75" transform="translate(-19.94 11.61) rotate(-5.21)" style="fill:#231f20" />
        <rect x="114.75" y="224.69" width="1.24" height="0.75" transform="translate(-19.97 11.41) rotate(-5.21)" style="fill:#231f20" />
        <rect x="112.55" y="224.89" width="1.24" height="0.75" transform="translate(-19.93 11.17) rotate(-5.19)" style="fill:#231f20" />
        <rect x="118.66" y="220.61" width="6.66" height="7.5" transform="translate(-19.87 12.01) rotate(-5.21)" style="fill:none" />
        <rect x="123.6" y="223.89" width="1.24" height="0.75" transform="translate(-19.86 12.21) rotate(-5.21)" style="fill:#231f20" />
        <rect x="121.39" y="224.09" width="1.24" height="0.75" transform="translate(-19.89 12.01) rotate(-5.21)" style="fill:#231f20" />
        <rect x="119.19" y="224.29" width="1.24" height="0.75" transform="translate(-19.84 11.77) rotate(-5.19)" style="fill:#231f20" />
        <path d="M286.41,210.31c.12,1.92,1.35,9.25,1.35,9.25.62,1.46,15.14,7.06,15.14,7.06,9.47-6.82,19.92-2,19.92-2,7.31-1.22,14.05-6.81,14.05-6.81-.25-4.14,8-15.82,8-15.82,6.06-10.46-6.79-38.95-6.79-38.95.24-22.66-10.68-44-10.68-44-.24-7.3-6.06-19.95-6.06-19.95-12.13-17.27-22.19-10.41-22.19-10.41s-13.62-.71-17.79,27.14C278.7,133.63,283.47,162.4,286.41,210.31Z" style="fill:#fff;stroke:#231f20;stroke-miterlimit:10" />
        <path d="M336.62,187.93a50.19,50.19,0,0,1,.26,10.47A44.68,44.68,0,0,1,335,208.75a28.42,28.42,0,0,1-4.89,9.34,23.6,23.6,0,0,1-3.82,3.66,21.08,21.08,0,0,1-4.65,2.44,23.81,23.81,0,0,0,4.34-2.83,22.24,22.24,0,0,0,3.52-3.74,31.38,31.38,0,0,0,4.55-9.18,54.08,54.08,0,0,0,2.12-10.11c.21-1.72.35-3.45.42-5.18S336.66,189.67,336.62,187.93Z" style="fill:#231f20" />
        <path d="M327.89,201.55a24,24,0,0,1-.32,6.1,27,27,0,0,1-1.76,5.89,21.11,21.11,0,0,1-3.22,5.25,17.83,17.83,0,0,1-4.65,4c.37-.36.73-.71,1.1-1l.55-.51.5-.57,1-1.12.89-1.2a26.33,26.33,0,0,0,2.92-5.17,36.85,36.85,0,0,0,1.92-5.65A46.73,46.73,0,0,0,327.89,201.55Z" style="fill:#231f20" />
        <path d="M309.7,194.5c.48,2.32.84,4.66,1.17,7s.59,4.69.81,7.05.37,4.73.41,7.1a31.3,31.3,0,0,1-.45,7.1,24.48,24.48,0,0,0-.06-3.53c-.06-1.18-.15-2.35-.26-3.53l-.64-7c-.19-2.35-.41-4.7-.57-7.06S309.77,196.87,309.7,194.5Z" style="fill:#231f20" />
        <path d="M297.57,192.79l1.85,8.06c.64,2.68,1.27,5.35,2,8s1.47,5.28,2.33,7.89l.68,1.93.78,1.9c.28.62.6,1.23.89,1.85s.72,1.16,1.07,1.76A23,23,0,0,1,303,217a65.15,65.15,0,0,1-2.57-7.91c-.69-2.68-1.3-5.38-1.76-8.1S297.79,195.55,297.57,192.79Z" style="fill:#231f20" />
        <path d="M291.26,208.49a45.93,45.93,0,0,0,2.6,4.73,50,50,0,0,0,3.08,4.39,51.94,51.94,0,0,0,3.52,4c1.24,1.3,2.56,2.52,3.9,3.76a27.28,27.28,0,0,1-4.44-3.19,30.2,30.2,0,0,1-3.76-4,28.82,28.82,0,0,1-3-4.62A21,21,0,0,1,291.26,208.49Z" style="fill:#231f20" />
        <path d="M329.19,139.51c1.55,3.53,2.82,7.13,4.06,10.75.61,1.82,1.21,3.63,1.77,5.46l.85,2.74c.29.91.55,1.83.92,2.72a30.69,30.69,0,0,1-2.5-5.2c-.72-1.78-1.36-3.58-2-5.4A102,102,0,0,1,329.19,139.51Z" style="fill:#231f20" />
        <path d="M326.43,156.06a27.29,27.29,0,0,1-1.58,6.94,29.8,29.8,0,0,1-3.19,6.42,24.23,24.23,0,0,1-4.77,5.38,21.62,21.62,0,0,1-6.12,3.64c.49-.33,1-.65,1.49-1L313,177c.23-.17.46-.36.69-.54l1.4-1.05,1.28-1.2a29.57,29.57,0,0,0,4.44-5.35,39.55,39.55,0,0,0,3.32-6.15c.47-1.07.89-2.16,1.26-3.28A32.94,32.94,0,0,0,326.43,156.06Z" style="fill:#231f20" />
        <path d="M316.09,160a40.58,40.58,0,0,0-11.71,8.89c-1.12,1.21-2.13,2.51-3.18,3.82a22,22,0,0,1,2.58-4.32,24.1,24.1,0,0,1,3.46-3.68,23.74,23.74,0,0,1,4.16-2.88A17.32,17.32,0,0,1,316.09,160Z" style="fill:#231f20" />
        <path d="M322.92,108.37a29.85,29.85,0,0,1,2.7,5.16,29.34,29.34,0,0,1,1.78,5.54,34,34,0,0,1-4.48-10.7Z" style="fill:#231f20" />
        <path d="M312.51,110.56a29.66,29.66,0,0,1,2.82,4.29,36.08,36.08,0,0,1,2.14,4.69,25.1,25.1,0,0,1,1.3,5,13.87,13.87,0,0,1-.17,5.14,22.5,22.5,0,0,0-.6-5,38.66,38.66,0,0,0-1.47-4.81c-.56-1.58-1.23-3.13-1.9-4.68S313.25,112.1,312.51,110.56Z" style="fill:#231f20" />
        <path d="M304.36,105.93a32.09,32.09,0,0,1,4.56,4.39,33.74,33.74,0,0,1,3.71,5.16,26.19,26.19,0,0,1,2.5,5.87,20,20,0,0,1,.55,3.15,16.76,16.76,0,0,1-.06,3.17,22.66,22.66,0,0,0-.42-3.1,22,22,0,0,0-.8-3,37.58,37.58,0,0,0-2.63-5.6,55.46,55.46,0,0,0-3.45-5.18c-.61-.84-1.26-1.66-1.93-2.46S305.05,106.73,304.36,105.93Z" style="fill:#231f20" />
        <path d="M297.57,90.87a4,4,0,0,1,1.61-.81,6.75,6.75,0,0,1,1.79-.22,6.22,6.22,0,0,1,3.39,1,17.09,17.09,0,0,1-1.75,0l-1.66,0C299.84,90.82,298.77,90.83,297.57,90.87Z" style="fill:#231f20" />
        <path d="M296.09,93.52a18.92,18.92,0,0,1,4.93-.07,18.4,18.4,0,0,1,4.84,1.17,13.54,13.54,0,0,1,4.25,2.66,9.84,9.84,0,0,1,2.51,4.28,13.48,13.48,0,0,0-3-3.69,16.6,16.6,0,0,0-4.1-2.33,26.28,26.28,0,0,0-4.59-1.32A42.2,42.2,0,0,0,296.09,93.52Z" style="fill:#231f20" />
        <path d="M295.26,95.34a10.9,10.9,0,0,1,2.93.76,17.22,17.22,0,0,1,2.72,1.35,14.46,14.46,0,0,1,4.42,4.11c-.86-.55-1.65-1.13-2.48-1.67s-1.63-1.08-2.47-1.59C298.72,97.27,297,96.33,295.26,95.34Z" style="fill:#231f20" />
        <path d="M294.11,98.45a13.1,13.1,0,0,1,2.88,1,16.33,16.33,0,0,1,2.65,1.54,11,11,0,0,1,2.26,2.11,5.08,5.08,0,0,1,1.22,2.83,8.17,8.17,0,0,0-1.8-2.3,20.07,20.07,0,0,0-2.26-1.83C297.47,100.64,295.78,99.62,294.11,98.45Z" style="fill:#231f20" />
        <path d="M293.08,102.19a25.43,25.43,0,0,1,6.14,5.57,22.63,22.63,0,0,1,2.3,3.49,14.26,14.26,0,0,1,1.38,3.93,38.41,38.41,0,0,0-2-3.54c-.77-1.11-1.56-2.2-2.41-3.26s-1.73-2.09-2.62-3.12Z" style="fill:#231f20" />
        <path d="M299.88,220.72V235c12.15,6.77,24.69,2.36,24.69,2.36l2-13.52S314.36,223,299.88,220.72Z" style="fill:#fff;stroke:#231f20;stroke-miterlimit:10" />
        <path d="M326.36,225.41S308,223,299.88,222.76" style="fill:#fff" />
        <polygon points="326.84 221.69 320.19 220.87 319.31 228.31 325.87 229.12 326.84 221.69" style="fill:none" />
        <rect x="320.49" y="224" width="0.75" height="1.24" transform="translate(59.33 516.17) rotate(-83.1)" style="fill:#231f20" />
        <rect x="322.69" y="224.26" width="0.75" height="1.23" transform="translate(60.04 517.73) rotate(-82.91)" style="fill:#231f20" />
        <polygon points="325.82 225.61 325.92 224.86 324.69 224.71 324.6 225.45 325.82 225.61" style="fill:#231f20;fill-rule:evenodd" />
        <polygon points="320.19 220.87 313.54 220.12 312.75 227.57 319.31 228.31 320.19 220.87" style="fill:none" />
        <rect x="313.88" y="223.24" width="0.75" height="1.24" transform="translate(57.37 511.74) rotate(-83.72)" style="fill:#231f20" />
        <rect x="316.08" y="223.48" width="0.75" height="1.23" transform="translate(57.94 513.12) rotate(-83.49)" style="fill:#231f20" />
        <rect x="318.28" y="223.73" width="0.75" height="1.23" transform="translate(58.59 514.59) rotate(-83.29)" style="fill:#231f20" />
        <path d="M313.54,220.12q-3.33-.36-6.69-.66l-.65,7.47c2.17.19,4.36.41,6.55.64Z" style="fill:none" />
        <polygon points="308.22 223.62 308.29 222.87 307.05 222.76 306.99 223.51 308.22 223.62" style="fill:#231f20;fill-rule:evenodd" />
        <rect x="309.47" y="222.78" width="0.75" height="1.24" transform="translate(56.78 509.52) rotate(-84.3)" style="fill:#231f20" />
        <rect x="311.66" y="223" width="0.75" height="1.24" transform="translate(56.93 510.49) rotate(-83.98)" style="fill:#231f20" />
        <path d="M306.85,219.46c-2.25-.19-4.49-.37-6.85-.45l-.23,7.5c2.07.07,4.26.24,6.43.42Z" style="fill:none" />
        <polygon points="301.6 223.1 301.63 222.35 300.39 222.3 300.37 223.05 301.6 223.1" style="fill:#231f20;fill-rule:evenodd" />
        <polygon points="303.8 223.25 303.85 222.5 302.62 222.41 302.57 223.16 303.8 223.25" style="fill:#231f20;fill-rule:evenodd" />
        <polygon points="306 223.42 306.06 222.67 304.83 222.57 304.77 223.32 306 223.42" style="fill:#231f20;fill-rule:evenodd" />
        <line x1="326.43" y1="226.62" x2="299.88" y2="224.19" style="fill:#fff" />
        <rect x="319.37" y="222.98" width="7.5" height="6.66" transform="translate(68.38 527.53) rotate(-84.79)" style="fill:none" />
        <rect x="320.54" y="225.38" width="0.75" height="1.24" transform="translate(66.69 525.06) rotate(-84.79)" style="fill:#231f20" />
        <rect x="322.75" y="225.59" width="0.75" height="1.24" transform="translate(68.5 527.44) rotate(-84.79)" style="fill:#231f20" />
        <rect x="324.95" y="225.79" width="0.75" height="1.24" transform="translate(70.3 529.82) rotate(-84.79)" style="fill:#231f20" />
        <rect x="312.73" y="222.37" width="7.5" height="6.66" transform="translate(62.95 520.37) rotate(-84.79)" style="fill:none" />
        <rect x="313.9" y="224.78" width="0.75" height="1.24" transform="translate(61.26 517.9) rotate(-84.79)" style="fill:#231f20" />
        <rect x="316.11" y="224.98" width="0.75" height="1.24" transform="translate(63.07 520.28) rotate(-84.79)" style="fill:#231f20" />
        <rect x="318.31" y="225.18" width="0.75" height="1.24" transform="translate(64.87 522.66) rotate(-84.79)" style="fill:#231f20" />
        <rect x="306.09" y="221.77" width="7.5" height="6.66" transform="translate(57.53 513.22) rotate(-84.79)" style="fill:none" />
        <rect x="307.26" y="224.17" width="0.75" height="1.24" transform="translate(55.83 510.74) rotate(-84.79)" style="fill:#231f20" />
        <rect x="309.47" y="224.37" width="0.75" height="1.24" transform="translate(57.64 513.12) rotate(-84.79)" style="fill:#231f20" />
        <rect x="311.68" y="224.58" width="0.75" height="1.24" transform="translate(59.44 515.5) rotate(-84.79)" style="fill:#231f20" />
        <rect x="299.45" y="221.16" width="7.5" height="6.66" transform="translate(52.09 506.05) rotate(-84.79)" style="fill:none" />
        <rect x="300.63" y="223.57" width="0.75" height="1.24" transform="translate(50.4 503.58) rotate(-84.79)" style="fill:#231f20" />
        <rect x="302.84" y="223.77" width="0.75" height="1.24" transform="translate(52.21 505.96) rotate(-84.79)" style="fill:#231f20" />
        <rect x="305.04" y="223.97" width="0.75" height="1.24" transform="translate(54.01 508.34) rotate(-84.79)" style="fill:#231f20" />
    </g>
</svg>