<svg id="sleevef" xmlns="http://www.w3.org/2000/svg" viewBox="0 0 425.2 425.2">
    <g id="sleevef" data-name="Layer 2">
        <path id="sleevef" d="M325,96.47a5.54,5.54,0,0,1,1.94-.78,9.67,9.67,0,0,1,2.08-.22,8.63,8.63,0,0,1,4,1c-.7.06-1.38,0-2,0l-2,0C327.71,96.45,326.42,96.46,325,96.47Z" style="fill:#231f20" />
        <path d="M153.82,96.47c-1.39,0-2.68,0-4,0l-2,0c-.67,0-1.34,0-2.05,0a8.63,8.63,0,0,1,4-1,9.67,9.67,0,0,1,2.08.22A5.46,5.46,0,0,1,153.82,96.47Z" style="fill:#231f20" />
        <path id="Profondeur" d="M322.83,409.14l-.57.19c-2.92.9-16.5,4.52-28.8-2.46l10.35-13.95Z" style="fill:#d0d2d3;stroke:#231f20;stroke-miterlimit:10" />
        <path d="M300.53,86.27s11.89-6.52,26.24,9.9c0,0,6.89,12,7.17,19,0,0,12.91,20.29,12.63,41.82,0,0,15.2,27.08,8,37,0,0-9.75,11.1-9.47,15,0,0-8,5.32-16.6,6.47,0,0-12.38-4.62-23.57,1.86,0,0-17.17-5.32-17.91-6.71,0,0-.45-7.17-1.59-8.79,0,0-1.95-19.38,0-30.52,0,0-.74-5.84-1.76-11.23,0,0-3.17-23.23-.92-44C284.21,103,291.22,90.83,300.53,86.27Z" style="fill:#fff;stroke:#231f20;stroke-miterlimit:10" />
        <path d="M331.88,212.71c-.73-.38-1.23-.58-1.82-.83s-1.15-.46-1.72-.65c-1.15-.4-2.31-.74-3.48-1l-1.8,7.28c.95.24,1.88.51,2.8.83.46.15.89.34,1.34.51s.91.39,1.16.52Z" style="fill:none" />
        <polygon points="325.52 214.54 325.74 213.82 324.55 213.48 324.36 214.21 325.52 214.54" style="fill:#231f20;fill-rule:evenodd" />
        <path d="M327.57,215.22l.27-.7c-.39-.16-.78-.27-1.17-.41l-.23.71C326.81,215,327.2,215.07,327.57,215.22Z" style="fill:#231f20;fill-rule:evenodd" />
        <path d="M329.56,216l.32-.68c-.38-.18-.76-.33-1.14-.5l-.28.7C328.82,215.72,329.2,215.87,329.56,216Z" style="fill:#231f20;fill-rule:evenodd" />
        <path d="M324.86,210.19a38.41,38.41,0,0,0-7.17-1.06l-.38,7.49a30.47,30.47,0,0,1,5.75.85Z" style="fill:none" />
        <polygon points="319.16 213.28 319.24 212.53 318.01 212.41 317.96 213.16 319.16 213.28" style="fill:#231f20;fill-rule:evenodd" />
        <path d="M321.31,213.56l.12-.74c-.41-.06-.81-.14-1.22-.19l-.09.75C320.51,213.42,320.91,213.5,321.31,213.56Z" style="fill:#231f20;fill-rule:evenodd" />
        <path d="M323.42,214l.17-.73c-.4-.09-.8-.19-1.2-.26l-.15.73Z" style="fill:#231f20;fill-rule:evenodd" />
        <path d="M317.69,209.13l-1.82,0c-.61,0-1.22,0-1.83.06a29.91,29.91,0,0,0-3.65.38l1.18,7.4a24.56,24.56,0,0,1,2.85-.29c.48,0,1-.07,1.44,0l1.45,0Z" style="fill:none" />
        <polygon points="312.69 213.26 312.61 212.51 311.39 212.68 311.5 213.42 312.69 213.26" style="fill:#231f20;fill-rule:evenodd" />
        <polygon points="314.84 213.12 314.82 212.37 313.59 212.43 313.64 213.18 314.84 213.12" style="fill:#231f20;fill-rule:evenodd" />
        <polygon points="316.99 213.13 317.02 212.38 315.79 212.34 315.79 213.09 316.99 213.13" style="fill:#231f20;fill-rule:evenodd" />
        <path d="M310.39,209.52a13.6,13.6,0,0,0-1.8.34l-1.8.42c-1.18.34-2.33.76-3.5,1.15l2.76,7c.91-.29,1.8-.63,2.72-.9l1.39-.32a11,11,0,0,1,1.41-.27Z" style="fill:none" />
        <polygon points="306.36 214.63 306.13 213.92 304.96 214.31 305.22 215.01 306.36 214.63" style="fill:#231f20;fill-rule:evenodd" />
        <path d="M308.43,214l-.18-.73a9.44,9.44,0,0,0-1.19.31l.21.72A11,11,0,0,1,308.43,214Z" style="fill:#231f20;fill-rule:evenodd" />
        <path d="M310.53,213.55l-.13-.74c-.4.06-.8.18-1.2.26l.16.73C309.75,213.72,310.14,213.61,310.53,213.55Z" style="fill:#231f20;fill-rule:evenodd" />
        <path d="M303.29,211.43c-1.11.51-2.23,1-3.33,1.54l-3.15,1.86,4.14,6.25,2.49-1.47,2.61-1.2Z" style="fill:none" />
        <polygon points="300.48 217.32 300.1 216.67 299.04 217.3 299.44 217.93 300.48 217.32" style="fill:#231f20;fill-rule:evenodd" />
        <path d="M302.36,216.27l-.33-.68a8.74,8.74,0,0,0-1.09.58l.36.66A7.69,7.69,0,0,1,302.36,216.27Z" style="fill:#231f20;fill-rule:evenodd" />
        <polygon points="304.32 215.37 304.04 214.68 302.91 215.19 303.23 215.87 304.32 215.37" style="fill:#231f20;fill-rule:evenodd" />
        <path d="M344.85,180.56a40.69,40.69,0,0,1,.17,10.52,35.54,35.54,0,0,1-2.64,10.24,24.91,24.91,0,0,1-6.11,8.66,22.85,22.85,0,0,1-9.2,5,29.78,29.78,0,0,0,4.63-2.39,21.69,21.69,0,0,0,4-3.21,27,27,0,0,0,5.73-8.5,40.85,40.85,0,0,0,2.79-9.95,47.09,47.09,0,0,0,.53-5.18A48,48,0,0,0,344.85,180.56Z" style="fill:#231f20" />
        <path d="M334.52,193.51a19.48,19.48,0,0,1-.54,6.12,21.31,21.31,0,0,1-2.28,5.76A24.22,24.22,0,0,1,330,208a20.61,20.61,0,0,1-2.12,2.26,19.38,19.38,0,0,1-5.11,3.42,31.59,31.59,0,0,0,4.55-4,23.43,23.43,0,0,0,3.54-4.8,28.11,28.11,0,0,0,2.4-5.47A32.38,32.38,0,0,0,334.52,193.51Z" style="fill:#231f20" />
        <path d="M313,186.8c.54,2.2.95,4.42,1.32,6.64s.68,4.46.93,6.7.45,4.5.5,6.76a24,24,0,0,1-.46,6.76,18,18,0,0,0,0-3.36c-.06-1.11-.16-2.23-.28-3.35l-.73-6.7c-.23-2.23-.5-4.46-.7-6.71S313.13,189.06,313,186.8Z" style="fill:#231f20" />
        <path d="M298.65,185.19l1.07,3.89c.35,1.29.71,2.59,1.08,3.87.75,2.58,1.51,5.15,2.36,7.68s1.76,5.05,2.8,7.5a37.34,37.34,0,0,0,1.75,3.6l1,1.7L310,215c-.48-.46-1-.93-1.44-1.42L307.29,212a39.81,39.81,0,0,1-2-3.53,54.19,54.19,0,0,1-3.05-7.51c-.83-2.57-1.57-5.17-2.15-7.81A76.92,76.92,0,0,1,298.65,185.19Z" style="fill:#231f20" />
        <path d="M291.19,200.11a36.32,36.32,0,0,0,3.16,4.66,51,51,0,0,0,3.7,4.2c.67.64,1.32,1.32,2,1.92l1,.94,1.09.9c1.44,1.19,3,2.31,4.48,3.45q-1.29-.62-2.55-1.29c-.8-.51-1.65-1-2.41-1.54a33.44,33.44,0,0,1-4.39-3.68,30.79,30.79,0,0,1-3.62-4.44A19.86,19.86,0,0,1,291.19,200.11Z" style="fill:#231f20" />
        <path d="M336.06,134.55c1.76,3.33,3.25,6.76,4.72,10.21.71,1.73,1.43,3.46,2.11,5.2l1,2.61a21.71,21.71,0,0,0,1.12,2.57,26.76,26.76,0,0,1-2.87-4.86c-.83-1.69-1.59-3.41-2.32-5.13A96.9,96.9,0,0,1,336.06,134.55Z" style="fill:#231f20" />
        <path d="M332.8,150.27a24.07,24.07,0,0,1-2.16,7.06,26.46,26.46,0,0,1-4.06,6.24l-.61.71-.66.65c-.45.43-.87.9-1.35,1.29a23.86,23.86,0,0,1-3,2.22,26.49,26.49,0,0,1-3.25,1.8,14.35,14.35,0,0,1-1.72.69c-.58.22-1.16.42-1.74.61a40.19,40.19,0,0,0,6.27-3.73,30.41,30.41,0,0,0,5.3-4.9A33.33,33.33,0,0,0,330,157c.3-.53.56-1.08.85-1.61s.5-1.11.74-1.67A30.64,30.64,0,0,0,332.8,150.27Z" style="fill:#231f20" />
        <path d="M320.56,154a52.1,52.1,0,0,0-4.9,2.29,47.29,47.29,0,0,0-4.59,2.76,39.26,39.26,0,0,0-4.25,3.26c-1.36,1.16-2.6,2.46-3.86,3.77a22.87,22.87,0,0,1,3.33-4.34c.61-.68,1.33-1.25,2-1.88s1.44-1.14,2.21-1.64a28.79,28.79,0,0,1,4.81-2.63A22.48,22.48,0,0,1,320.56,154Z" style="fill:#231f20" />
        <path d="M328.64,105a29.55,29.55,0,0,1,3.09,4.86,29,29,0,0,1,2.21,5.32,29.31,29.31,0,0,1-3.09-4.86A29,29,0,0,1,328.64,105Z" style="fill:#231f20" />
        <path d="M316.33,107A27.18,27.18,0,0,1,319.5,111a31.72,31.72,0,0,1,2.51,4.39,21.26,21.26,0,0,1,1.61,4.83,10.91,10.91,0,0,1-.09,5,15.54,15.54,0,0,0-.67-4.87,30.37,30.37,0,0,0-1.76-4.59c-.68-1.5-1.46-3-2.26-4.4S317.2,108.47,316.33,107Z" style="fill:#231f20" />
        <path d="M306.69,102.64a33.45,33.45,0,0,1,5.07,3.89,32.6,32.6,0,0,1,4.33,4.76,22.34,22.34,0,0,1,3.13,5.66,12,12,0,0,1,.46,1.55l.21.78.11.81a12.77,12.77,0,0,1,0,3.21c-.06-.53-.12-1.06-.16-1.58a9,9,0,0,0-.32-1.54l-.18-.76-.26-.74a12.89,12.89,0,0,0-.58-1.45c-.23-.46-.46-.93-.67-1.4l-.79-1.35c-.25-.46-.56-.88-.85-1.32s-.58-.86-.9-1.27a51.63,51.63,0,0,0-4.06-4.81c-.72-.78-1.47-1.52-2.23-2.25S307.47,103.36,306.69,102.64Z" style="fill:#231f20" />
        <path d="M296.91,90.84a26.29,26.29,0,0,1,5.54-.12,26.56,26.56,0,0,1,5.5,1A16.79,16.79,0,0,1,313,94.12a9.36,9.36,0,0,1,3.44,4.36,11.65,11.65,0,0,0-3.87-3.72,20.68,20.68,0,0,0-4.93-2.1,40.65,40.65,0,0,0-5.3-1.17C300.56,91.22,298.75,91,296.91,90.84Z" style="fill:#231f20" />
        <path d="M295.93,92.57a15,15,0,0,1,3.32.66,21.29,21.29,0,0,1,3.15,1.25,17.39,17.39,0,0,1,5.43,4l-2.93-1.6c-1-.52-1.95-1-2.94-1.51C300,94.39,298,93.51,295.93,92.57Z" style="fill:#231f20" />
        <path d="M294.56,95.52a19.3,19.3,0,0,1,6.24,2.25,13.81,13.81,0,0,1,2.72,2,5,5,0,0,1,1.7,2.89,7.19,7.19,0,0,0-2.2-2.29,28.1,28.1,0,0,0-2.71-1.71C298.44,97.57,296.5,96.62,294.56,95.52Z" style="fill:#231f20" />
        <path d="M293.35,99.08a27.6,27.6,0,0,1,7,5.07,22.78,22.78,0,0,1,2.79,3.34,13,13,0,0,1,1.84,3.94,33.55,33.55,0,0,0-5.33-6.57c-1-1-2-2-3.09-2.92Z" style="fill:#231f20" />
        <path d="M300.54,226.47l-1.28-12.85s12.74-9.12,30.19-3v13.55l-.17-1.41s2.72,30.73,3.26,89.39c0,0-3.25,51.88-9.71,96.94,0,0-13.54-8.27-29.37-2.27,0,0,7.36-102.6,8.48-142l-1-39" style="fill:#fff;stroke:#231f20;stroke-miterlimit:10" />
        <path d="M329.31,311.17l-4.08,27c-1.32,9-2.56,18-3.66,27.09-.57,4.52-1.11,9-1.57,13.58s-.85,9.07-.91,13.62c0,1.13,0,2.27.1,3.39a11.39,11.39,0,0,0,.25,1.67,4.26,4.26,0,0,0,.28.76,1.8,1.8,0,0,0,.57.52,1,1,0,0,0,1.33-.29,4.72,4.72,0,0,0,.76-1.46,20.57,20.57,0,0,0,.78-3.3,93.81,93.81,0,0,0,1-13.62,94.53,94.53,0,0,1-.72,13.66,18.57,18.57,0,0,1-.77,3.34,4.82,4.82,0,0,1-.8,1.56,1.44,1.44,0,0,1-.33.32,1.13,1.13,0,0,1-.43.2,1.61,1.61,0,0,1-.49,0l-.44-.17a2.22,2.22,0,0,1-.67-.63,3.73,3.73,0,0,1-.32-.84,12.18,12.18,0,0,1-.27-1.71c-.1-1.14-.12-2.28-.12-3.43,0-4.57.42-9.11.83-13.65s.93-9.08,1.48-13.6c1.16-9.05,2.46-18.07,3.83-27.08L327,324.65Z" style="fill:#231f20" />
        <path d="M310.81,384.67q-.26,2.07-.42,4.14c-.1,1.37-.19,2.75-.21,4.13s0,2.75.08,4.13a38.06,38.06,0,0,0,.55,4.1,20.09,20.09,0,0,1-.93-4.06,36.56,36.56,0,0,1-.2-4.18c.06-1.39.15-2.79.33-4.16A31.59,31.59,0,0,1,310.81,384.67Z" style="fill:#231f20" />
        <path d="M303.81,278.17c3.77-1.21,7.57-2.34,11.4-3.35,1.91-.52,3.84-1,5.78-1.42a44.38,44.38,0,0,1,5.89-1,4.5,4.5,0,0,1,1.57.13.76.76,0,0,1,.42.3.57.57,0,0,1,0,.56,2,2,0,0,1-.5.68,15.69,15.69,0,0,1-2.45,1.75c-1.71,1-3.46,2-5.24,2.84-3.54,1.78-7.15,3.41-10.79,5,3.56-1.74,7.11-3.49,10.62-5.32,1.74-.93,3.49-1.85,5.17-2.89a14.47,14.47,0,0,0,2.36-1.7,1.79,1.79,0,0,0,.38-.5c0-.15,0-.15-.17-.24a4.08,4.08,0,0,0-1.37-.09,41.57,41.57,0,0,0-5.83.92c-1.93.41-3.85.88-5.77,1.34Q309.55,276.62,303.81,278.17Z" style="fill:#231f20" />
        <path d="M317.09,289.17a28.17,28.17,0,0,1,3.53,1.51,17.28,17.28,0,0,1,1.68.95,6.55,6.55,0,0,1,1.54,1.27,1.41,1.41,0,0,1,.24.54.71.71,0,0,1-.22.64,2,2,0,0,1-1,.41,9.2,9.2,0,0,1-1.95.11,27.07,27.07,0,0,1-3.82-.43c1.28,0,2.55.08,3.82,0a12.61,12.61,0,0,0,1.86-.16,1.79,1.79,0,0,0,.75-.31c.15-.12.09-.3-.09-.54a11.58,11.58,0,0,0-3-2.18C319.34,290.38,318.22,289.78,317.09,289.17Z" style="fill:#231f20" />
        <path d="M309.92,291.79a20,20,0,0,1-.72,4.13,24.68,24.68,0,0,1-1.46,3.95,19.45,19.45,0,0,1-2.27,3.55,13.37,13.37,0,0,1-3.16,2.75,18.37,18.37,0,0,0,2.86-3,21.45,21.45,0,0,0,2.12-3.53,29.64,29.64,0,0,0,1.55-3.84A36,36,0,0,0,309.92,291.79Z" style="fill:#231f20" />
        <path d="M306.12,237.67a3.55,3.55,0,0,1,.94,1.87,7.24,7.24,0,0,1,.05,2.13,15,15,0,0,1-1.21,4.05,30.08,30.08,0,0,1-2.11,3.65c-.41.56-.79,1.15-1.23,1.69s-.89,1.09-1.35,1.61c.75-1.18,1.55-2.32,2.26-3.51a33.76,33.76,0,0,0,2-3.65,16,16,0,0,0,1.29-3.89,7.36,7.36,0,0,0,.09-2A3.71,3.71,0,0,0,306.12,237.67Z" style="fill:#231f20" />
        <path id="Profondeur-2" data-name="Profondeur" d="M103.28,409.14l.57.19c2.92.9,16.5,4.52,28.8-2.46L122.3,392.92Z" style="fill:#d0d2d3;stroke:#231f20;stroke-miterlimit:10" />
        <path d="M125.58,86.27s-11.9-6.52-26.24,9.9c0,0-6.89,12-7.18,19,0,0-12.91,20.29-12.62,41.82,0,0-15.21,27.08-8,37,0,0,9.75,11.1,9.46,15,0,0,8,5.32,16.61,6.47,0,0,12.37-4.62,23.56,1.86,0,0,17.18-5.32,17.91-6.71,0,0,.46-7.17,1.6-8.79,0,0,1.95-19.38,0-30.52,0,0,.74-5.84,1.76-11.23,0,0,3.17-23.23.92-44C141.9,103,134.89,90.83,125.58,86.27Z" style="fill:#fff;stroke:#231f20;stroke-miterlimit:10" />
        <path d="M97.75,219.33c.25-.13.75-.35,1.16-.52s.88-.36,1.34-.51c.91-.32,1.85-.59,2.8-.83l-1.8-7.28c-1.17.3-2.33.64-3.48,1-.58.19-1.15.42-1.72.65s-1.09.45-1.82.83Z" style="fill:none" />
        <polygon points="100.43 214.03 100.65 214.75 101.8 214.42 101.61 213.69 100.43 214.03" style="fill:#231f20;fill-rule:evenodd" />
        <path d="M98.35,214.72l.26.7c.37-.15.75-.26,1.13-.39l-.23-.71C99.12,214.45,98.73,214.57,98.35,214.72Z" style="fill:#231f20;fill-rule:evenodd" />
        <path d="M96.32,215.56l.32.68c.36-.17.73-.32,1.09-.48l-.28-.69C97.07,215.23,96.69,215.38,96.32,215.56Z" style="fill:#231f20;fill-rule:evenodd" />
        <path d="M103.05,217.47a30.24,30.24,0,0,1,5.75-.85l-.38-7.49a38.17,38.17,0,0,0-7.17,1.06Z" style="fill:none" />
        <polygon points="106.89 212.75 106.97 213.5 108.16 213.38 108.11 212.63 106.89 212.75" style="fill:#231f20;fill-rule:evenodd" />
        <path d="M104.71,213l.13.74c.39-.06.78-.14,1.18-.19l-.1-.74C105.52,212.89,105.12,213,104.71,213Z" style="fill:#231f20;fill-rule:evenodd" />
        <path d="M102.57,213.46l.17.74c.39-.09.78-.19,1.17-.26l-.15-.74Z" style="fill:#231f20;fill-rule:evenodd" />
        <path d="M108.8,216.62l1.45,0c.48,0,1,0,1.44,0a24.79,24.79,0,0,1,2.85.29l1.18-7.4a30.12,30.12,0,0,0-3.65-.38c-.61,0-1.22-.08-1.83-.06l-1.82,0Z" style="fill:none" />
        <polygon points="113.47 212.73 113.4 213.47 114.58 213.63 114.69 212.89 113.47 212.73" style="fill:#231f20;fill-rule:evenodd" />
        <polygon points="111.28 212.59 111.26 213.34 112.45 213.4 112.5 212.65 111.28 212.59" style="fill:#231f20;fill-rule:evenodd" />
        <polygon points="109.09 212.6 109.12 213.35 110.32 213.31 110.32 212.56 109.09 212.6" style="fill:#231f20;fill-rule:evenodd" />
        <path d="M114.54,216.92a11.31,11.31,0,0,1,1.41.27l1.39.32c.92.27,1.81.61,2.72.9l2.75-7c-1.16-.39-2.31-.81-3.49-1.15l-1.8-.42a13.92,13.92,0,0,0-1.8-.34Z" style="fill:none" />
        <polygon points="119.91 214.12 119.67 214.84 120.81 215.22 121.07 214.51 119.91 214.12" style="fill:#231f20;fill-rule:evenodd" />
        <path d="M117.8,213.5l-.18.73a11.61,11.61,0,0,1,1.16.3l.21-.72A9.44,9.44,0,0,0,117.8,213.5Z" style="fill:#231f20;fill-rule:evenodd" />
        <path d="M115.67,213l-.13.73c.39.06.78.17,1.16.26l.16-.74C116.46,213.2,116.07,213.08,115.67,213Z" style="fill:#231f20;fill-rule:evenodd" />
        <path d="M120.06,218.41l2.6,1.2,2.49,1.47,4.15-6.25L126.15,213c-1.1-.54-2.22-1-3.34-1.54Z" style="fill:none" />
        <polygon points="125.9 216.86 125.52 217.5 126.55 218.11 126.95 217.48 125.9 216.86" style="fill:#231f20;fill-rule:evenodd" />
        <path d="M124,215.79l-.33.67a8.12,8.12,0,0,1,1,.56l.36-.66A7.42,7.42,0,0,0,124,215.79Z" style="fill:#231f20;fill-rule:evenodd" />
        <polygon points="121.99 214.88 121.7 215.57 122.79 216.07 123.1 215.39 121.99 214.88" style="fill:#231f20;fill-rule:evenodd" />
        <path d="M81.26,180.56a48,48,0,0,0,.06,5.23,47.09,47.09,0,0,0,.53,5.18,40.85,40.85,0,0,0,2.79,9.95,27,27,0,0,0,5.72,8.5,22.09,22.09,0,0,0,4,3.21A29.34,29.34,0,0,0,99,215a22.88,22.88,0,0,1-9.21-5,25,25,0,0,1-6.11-8.66,35.84,35.84,0,0,1-2.63-10.24A40.25,40.25,0,0,1,81.26,180.56Z" style="fill:#231f20" />
        <path d="M91.59,193.51a32.38,32.38,0,0,0,1.28,5.91,28.11,28.11,0,0,0,2.4,5.47,23.39,23.39,0,0,0,3.53,4.8,32.7,32.7,0,0,0,4.55,4,19.49,19.49,0,0,1-5.1-3.42A20.61,20.61,0,0,1,96.13,208a25.93,25.93,0,0,1-1.73-2.59,22,22,0,0,1-2.28-5.76A19.77,19.77,0,0,1,91.59,193.51Z" style="fill:#231f20" />
        <path d="M113.11,186.8c-.13,2.26-.35,4.5-.56,6.74s-.47,4.48-.7,6.71l-.73,6.7c-.12,1.12-.23,2.24-.28,3.35a18.86,18.86,0,0,0,0,3.36,24.72,24.72,0,0,1-.46-6.76c.06-2.26.27-4.51.51-6.76s.55-4.47.93-6.7S112.57,189,113.11,186.8Z" style="fill:#231f20" />
        <path d="M127.46,185.19a79.7,79.7,0,0,1-1.41,7.95c-.58,2.64-1.32,5.24-2.15,7.81a54.19,54.19,0,0,1-3.05,7.51,39.81,39.81,0,0,1-2,3.53l-1.25,1.61c-.46.49-1,1-1.44,1.42l1.23-1.59,1-1.7a39.84,39.84,0,0,0,1.75-3.6c1-2.45,2-4.95,2.8-7.5s1.6-5.1,2.35-7.68c.38-1.28.74-2.58,1.08-3.87Z" style="fill:#231f20" />
        <path d="M134.91,200.11a19.52,19.52,0,0,1-2.52,5.12,30.79,30.79,0,0,1-3.62,4.44,32.88,32.88,0,0,1-4.4,3.68c-.76.58-1.6,1-2.41,1.54s-1.68.88-2.54,1.29c1.53-1.14,3-2.26,4.48-3.45l1.08-.9,1-.94c.72-.6,1.36-1.28,2-1.92a51,51,0,0,0,3.7-4.2A36.25,36.25,0,0,0,134.91,200.11Z" style="fill:#231f20" />
        <path d="M90.05,134.55a96.9,96.9,0,0,1-3.8,10.6c-.73,1.72-1.49,3.44-2.32,5.13a27.34,27.34,0,0,1-2.87,4.86,23.49,23.49,0,0,0,1.12-2.57l1-2.61q1-2.61,2.12-5.2C86.8,141.31,88.29,137.88,90.05,134.55Z" style="fill:#231f20" />
        <path d="M93.31,150.27a28.79,28.79,0,0,0,1.26,3.44c.24.56.49,1.12.74,1.67s.55,1.08.84,1.61a33.38,33.38,0,0,0,4.13,5.92,30.41,30.41,0,0,0,5.3,4.9,39.64,39.64,0,0,0,6.26,3.73c-.58-.19-1.16-.39-1.73-.61a14.35,14.35,0,0,1-1.72-.69,25.78,25.78,0,0,1-3.25-1.8,23.86,23.86,0,0,1-3-2.22c-.48-.39-.9-.86-1.35-1.29l-.67-.65-.6-.71a26.15,26.15,0,0,1-4.06-6.24A23.77,23.77,0,0,1,93.31,150.27Z" style="fill:#231f20" />
        <path d="M105.55,154a22.26,22.26,0,0,1,5.23,1.59,28.49,28.49,0,0,1,4.82,2.63c.77.5,1.48,1.09,2.21,1.64s1.4,1.2,2,1.88a22.87,22.87,0,0,1,3.33,4.34,52.86,52.86,0,0,0-3.87-3.77A38.19,38.19,0,0,0,115,159a47.29,47.29,0,0,0-4.59-2.76A52.1,52.1,0,0,0,105.55,154Z" style="fill:#231f20" />
        <path d="M97.47,105a29,29,0,0,1-2.21,5.32,29.37,29.37,0,0,1-3.1,4.86A33.15,33.15,0,0,1,97.47,105Z" style="fill:#231f20" />
        <path d="M109.78,107c-.87,1.44-1.69,2.89-2.51,4.33s-1.59,2.9-2.26,4.4a30.37,30.37,0,0,0-1.76,4.59,15.54,15.54,0,0,0-.67,4.87,10.91,10.91,0,0,1-.09-5,20.78,20.78,0,0,1,1.61-4.83,30.73,30.73,0,0,1,2.51-4.39A27.18,27.18,0,0,1,109.78,107Z" style="fill:#231f20" />
        <path d="M119.42,102.64c-.79.72-1.57,1.43-2.31,2.19s-1.52,1.47-2.23,2.25a50.14,50.14,0,0,0-4.06,4.81,15.43,15.43,0,0,0-.9,1.27c-.29.44-.6.86-.85,1.32l-.79,1.35c-.21.47-.44.94-.68,1.4a15,15,0,0,0-.57,1.45l-.27.74-.17.76a9,9,0,0,0-.32,1.54c0,.52-.1,1-.16,1.58a12.77,12.77,0,0,1,0-3.21l.11-.81.21-.78a12,12,0,0,1,.46-1.55,22,22,0,0,1,3.13-5.66,33.1,33.1,0,0,1,4.32-4.76A33.53,33.53,0,0,1,119.42,102.64Z" style="fill:#231f20" />
        <path d="M129.2,90.84c-1.84.14-3.65.38-5.45.65a40.65,40.65,0,0,0-5.3,1.17,20.51,20.51,0,0,0-4.93,2.1,11.65,11.65,0,0,0-3.87,3.72,9.34,9.34,0,0,1,3.43-4.36,16.84,16.84,0,0,1,5.08-2.42,28.15,28.15,0,0,1,11-.86Z" style="fill:#231f20" />
        <path d="M130.18,92.57c-2.05.94-4.06,1.82-6,2.8-1,.48-2,1-2.94,1.51l-2.94,1.6a17.43,17.43,0,0,1,5.44-4,21.29,21.29,0,0,1,3.15-1.25A15,15,0,0,1,130.18,92.57Z" style="fill:#231f20" />
        <path d="M131.54,95.52c-1.93,1.1-3.87,2-5.74,3.12a28.1,28.1,0,0,0-2.71,1.71,7.33,7.33,0,0,0-2.21,2.29,5.06,5.06,0,0,1,1.71-2.89,13.74,13.74,0,0,1,2.71-2A19.47,19.47,0,0,1,131.54,95.52Z" style="fill:#231f20" />
        <path d="M132.76,99.08l-3.19,2.86c-1,1-2.1,1.91-3.09,2.92a33.6,33.6,0,0,0-5.34,6.57,13.25,13.25,0,0,1,1.84-3.94,24.1,24.1,0,0,1,2.79-3.34A27.83,27.83,0,0,1,132.76,99.08Z" style="fill:#231f20" />
        <path d="M125.56,226.47l1.29-12.85s-12.74-9.12-30.2-3v13.55l.17-1.41s-2.71,30.73-3.25,89.39c0,0,3.25,51.88,9.71,96.94,0,0,13.53-8.27,29.37-2.27,0,0-7.36-102.6-8.48-142l1-39" style="fill:#fff;stroke:#231f20;stroke-miterlimit:10" />
        <path d="M96.8,311.17l2.29,13.48,2.12,13.51c1.37,9,2.67,18,3.83,27.08.54,4.52,1,9.06,1.48,13.6s.79,9.08.83,13.65c0,1.15,0,2.29-.13,3.43a10.86,10.86,0,0,1-.26,1.71,3.73,3.73,0,0,1-.32.84,2.15,2.15,0,0,1-.68.63l-.44.17a1.54,1.54,0,0,1-.48,0,1,1,0,0,1-.43-.2,1.26,1.26,0,0,1-.33-.32,4.82,4.82,0,0,1-.8-1.56,19.49,19.49,0,0,1-.78-3.34,96,96,0,0,1-.71-13.66,93.81,93.81,0,0,0,1,13.62,20.57,20.57,0,0,0,.78,3.3,4.72,4.72,0,0,0,.76,1.46,1,1,0,0,0,1.33.29,1.76,1.76,0,0,0,.56-.52,3.63,3.63,0,0,0,.29-.76,11.38,11.38,0,0,0,.24-1.67c.1-1.12.12-2.26.11-3.39-.07-4.55-.48-9.09-.92-13.62s-1-9.06-1.56-13.58c-1.1-9.05-2.34-18.07-3.66-27.09Z" style="fill:#231f20" />
        <path d="M115.3,384.67a30,30,0,0,1,.79,4.1,41.15,41.15,0,0,1,.33,4.16,34.4,34.4,0,0,1-.19,4.18,20.79,20.79,0,0,1-.93,4.06,35.67,35.67,0,0,0,.54-4.1c.08-1.38.13-2.75.09-4.13s-.11-2.76-.22-4.13S115.46,386.05,115.3,384.67Z" style="fill:#231f20" />
        <path d="M122.3,278.17q-5.74-1.55-11.5-3c-1.92-.46-3.84-.93-5.78-1.34a41.66,41.66,0,0,0-5.82-.92,4.06,4.06,0,0,0-1.37.09c-.21.09-.22.09-.17.24a1.62,1.62,0,0,0,.38.5,14.47,14.47,0,0,0,2.36,1.7c1.67,1,3.43,2,5.17,2.89,3.51,1.83,7.06,3.58,10.61,5.32-3.63-1.57-7.24-3.2-10.79-5-1.77-.88-3.52-1.81-5.23-2.84a15.24,15.24,0,0,1-2.45-1.75,2.16,2.16,0,0,1-.51-.68.6.6,0,0,1,0-.56.72.72,0,0,1,.42-.3,4.5,4.5,0,0,1,1.57-.13,44.38,44.38,0,0,1,5.89,1c1.94.44,3.86.9,5.78,1.42C114.73,275.83,118.53,277,122.3,278.17Z" style="fill:#231f20" />
        <path d="M109,289.17c-1.13.61-2.26,1.21-3.35,1.85a11.81,11.81,0,0,0-3,2.18c-.17.24-.23.42-.08.54a1.73,1.73,0,0,0,.75.31,12.61,12.61,0,0,0,1.86.16c1.26,0,2.54,0,3.82,0a27.07,27.07,0,0,1-3.82.43,9.16,9.16,0,0,1-2-.11,2,2,0,0,1-1-.41.86.86,0,0,1-.19-.29,1,1,0,0,1,0-.35,1.41,1.41,0,0,1,.24-.54,6.36,6.36,0,0,1,1.54-1.27,18.38,18.38,0,0,1,1.67-.95A29,29,0,0,1,109,289.17Z" style="fill:#231f20" />
        <path d="M116.18,291.79a38.37,38.37,0,0,0,1.09,4,31.07,31.07,0,0,0,1.54,3.84,22.22,22.22,0,0,0,2.13,3.53,18.37,18.37,0,0,0,2.86,3,13.42,13.42,0,0,1-3.17-2.75,19.45,19.45,0,0,1-2.27-3.55,26.76,26.76,0,0,1-1.46-3.95A21.39,21.39,0,0,1,116.18,291.79Z" style="fill:#231f20" />
        <path d="M120,237.67a3.71,3.71,0,0,0-.7,1.91,7,7,0,0,0,.08,2,16.48,16.48,0,0,0,1.3,3.89,32.11,32.11,0,0,0,2,3.65c.71,1.19,1.51,2.33,2.25,3.51-.46-.52-.89-1.07-1.34-1.61s-.82-1.13-1.23-1.69a28.82,28.82,0,0,1-2.11-3.65,15.41,15.41,0,0,1-1.22-4.05,7.6,7.6,0,0,1,.06-2.13A3.55,3.55,0,0,1,120,237.67Z" style="fill:#231f20" />
    </g>
</svg>