<svg id="sleevef" xmlns="http://www.w3.org/2000/svg" viewBox="0 0 425.2 425.2">
    <g id="sleevef" data-name="Layer 2">
        <path id="sleevef" d="M135.41,291c-17.63,2.69-42.72-3.07-42.72-3.07-8-8.37-5.44-36-5.44-36,.84-18,4.6-40.57,4.6-40.57a108.3,108.3,0,0,1,0-31.37c10.88-42.25,19.24-56.89,19.24-56.89,3.35-10,13.81-36.39,13.81-36.39s5.16-4.19,20.69,28.37c0,0,.17,47,2.38,74,0,0,4.41,31,2.06,58.55,0,0,3.5,28.42-14.62,43.84" style="fill:#fff;stroke:#231f20;stroke-miterlimit:10" />
        <path id="Profondeur" d="M92.69,303.62S108.91,314,132.61,309l-2.79-5.38-34.45-5.16Z" style="fill:#ccc;stroke:#231f20;stroke-miterlimit:10" />
        <path d="M135.41,291.52,132.61,309l-39.92-5.38V287.93S110.69,294.67,135.41,291.52Z" style="fill:#fff;stroke:#231f20;stroke-miterlimit:10" />
        <path id="Profondeur-2" data-name="Profondeur" d="M332.51,303.56s-16.23,10.36-39.92,5.38l2.78-5.38,34.46-5.16Z" style="fill:#ccc;stroke:#231f20;stroke-miterlimit:10" />
        <path d="M289.79,290.94c17.63,2.69,42.72-3.07,42.72-3.07,7.94-8.37,5.44-36,5.44-36-.84-18-4.61-40.57-4.61-40.57a108.3,108.3,0,0,0,0-31.37c-10.87-42.25-19.24-56.89-19.24-56.89-3.34-10-13.8-36.39-13.8-36.39s-5.16-4.19-20.69,28.37c0,0-.17,47-2.38,74,0,0-4.41,31-2.06,58.56,0,0-3.5,28.41,14.62,43.83" style="fill:#fff;stroke:#231f20;stroke-miterlimit:10" />
        <path d="M289.79,291.46l2.8,17.48,39.92-5.38V287.87S314.51,294.61,289.79,291.46Z" style="fill:#fff;stroke:#231f20;stroke-miterlimit:10" />
    </g>
</svg>