<svg id="Layer_1" data-name="Layer 1" xmlns="http://www.w3.org/2000/svg" viewBox="0 0 8.74 10.71"><defs><style>.cls-1,.cls-18,.cls-19,.cls-20,.cls-21{fill:#e6e6e6;}.cls-2,.cls-3,.cls-4,.cls-5,.cls-6,.cls-7{fill:#f2f2f2;}.cls-18,.cls-2,.cls-40,.cls-8{fill-opacity:0;}.cls-23,.cls-3{opacity:0.2;}.cls-10,.cls-11,.cls-12,.cls-13,.cls-14,.cls-15,.cls-16,.cls-19,.cls-20,.cls-21,.cls-22,.cls-23,.cls-24,.cls-25,.cls-26,.cls-27,.cls-28,.cls-29,.cls-3,.cls-30,.cls-32,.cls-33,.cls-34,.cls-35,.cls-36,.cls-37,.cls-38,.cls-4,.cls-41,.cls-42,.cls-43,.cls-5,.cls-6,.cls-9{isolation:isolate;}.cls-25,.cls-4{opacity:0.4;}.cls-27,.cls-44,.cls-5{opacity:0.6;}.cls-29,.cls-6{opacity:0.8;}.cls-8{fill:#edddce;}.cls-9{fill:#efe1d3;opacity:0.11;}.cls-10{fill:#f1e5d9;opacity:0.22;}.cls-11{fill:#f3e8de;opacity:0.33;}.cls-12{fill:#f5ece4;opacity:0.44;}.cls-13{fill:#f7f0e9;opacity:0.56;}.cls-14{fill:#f9f4ef;opacity:0.67;}.cls-15{fill:#fbf7f4;opacity:0.78;}.cls-16{fill:#fdfbfa;opacity:0.89;}.cls-17{fill:#fff;}.cls-19,.cls-33,.cls-41{opacity:0.25;}.cls-20,.cls-26,.cls-35,.cls-42{opacity:0.5;}.cls-21,.cls-37,.cls-43{opacity:0.75;}.cls-22{fill:#eedfd1;opacity:0.1;}.cls-23{fill:#efe1d5;}.cls-24{fill:#efe3d8;opacity:0.3;}.cls-25{fill:#f0e5dc;}.cls-26{fill:#f1e8df;}.cls-27{fill:#f2eae2;}.cls-28{fill:#f3ece6;opacity:0.7;}.cls-29{fill:#f3eee9;}.cls-30{fill:#f4f0ed;opacity:0.9;}.cls-31{fill:#f5f2f0;}.cls-32{fill:#efe0d2;opacity:0.13;}.cls-33{fill:#f2e3d7;}.cls-34{fill:#f4e6db;opacity:0.38;}.cls-35{fill:#f6e9df;}.cls-36{fill:#f8ebe3;opacity:0.63;}.cls-37{fill:#fbeee7;}.cls-38{fill:#fdf1ec;opacity:0.88;}.cls-39{fill:#fff4f0;}.cls-40{fill:#f2e8df;}.cls-41{fill:#f5eee7;}.cls-42{fill:#f9f3ef;}.cls-43{fill:#fcf9f7;}</style></defs><title>Veste</title><circle class="cls-1" cx="4.37" cy="5.35" r="2.05"/><circle class="cls-1" cx="4.34" cy="5.37" r="2"/><circle class="cls-1" cx="4.31" cy="5.4" r="1.94"/><circle class="cls-1" cx="4.29" cy="5.42" r="1.89"/><circle class="cls-1" cx="4.26" cy="5.44" r="1.83"/><circle class="cls-1" cx="4.23" cy="5.46" r="1.77"/><circle class="cls-1" cx="4.2" cy="5.48" r="1.72"/><ellipse class="cls-2" cx="4.22" cy="5.47" rx="1.27" ry="1.29" transform="translate(-2.45 3.66) rotate(-37.12)"/><ellipse class="cls-3" cx="4.21" cy="5.48" rx="1.19" ry="1.22" transform="translate(-2.45 3.65) rotate(-37.1)"/><ellipse class="cls-4" cx="4.19" cy="5.49" rx="1.12" ry="1.14" transform="translate(-2.46 3.64) rotate(-37.12)"/><ellipse class="cls-5" cx="4.21" cy="5.46" rx="1.05" ry="1.07" transform="translate(-2.44 3.64) rotate(-37.11)"/><ellipse class="cls-6" cx="4.19" cy="5.46" rx="0.98" ry="0.99" transform="translate(-2.45 3.64) rotate(-37.12)"/><ellipse class="cls-7" cx="4.18" cy="5.49" rx="0.9" ry="0.92" transform="translate(-2.46 3.63) rotate(-37.12)"/><ellipse class="cls-8" cx="5.28" cy="4.64" rx="0.77" ry="1.05" transform="translate(-1.73 4.13) rotate(-37.11)"/><ellipse class="cls-9" cx="5.37" cy="4.63" rx="0.72" ry="0.98" transform="translate(-1.71 4.18) rotate(-37.13)"/><ellipse class="cls-10" cx="5.35" cy="4.61" rx="0.67" ry="0.92" transform="translate(-1.7 4.16) rotate(-37.12)"/><ellipse class="cls-11" cx="5.38" cy="4.58" rx="0.62" ry="0.85" transform="translate(-1.67 4.18) rotate(-37.11)"/><ellipse class="cls-12" cx="5.41" cy="4.54" rx="0.57" ry="0.79" transform="translate(-1.65 4.19) rotate(-37.13)"/><ellipse class="cls-13" cx="5.46" cy="4.53" rx="0.53" ry="0.72" transform="translate(-1.63 4.22) rotate(-37.16)"/><ellipse class="cls-14" cx="5.5" cy="4.52" rx="0.48" ry="0.65" transform="matrix(0.8, -0.6, 0.6, 0.8, -1.62, 4.23)"/><ellipse class="cls-15" cx="5.51" cy="4.49" rx="0.43" ry="0.59" transform="translate(-1.59 4.24) rotate(-37.14)"/><ellipse class="cls-16" cx="5.55" cy="4.45" rx="0.38" ry="0.52" transform="translate(-1.56 4.24) rotate(-37.06)"/><ellipse class="cls-17" cx="5.59" cy="4.45" rx="0.33" ry="0.46" transform="translate(-1.55 4.28) rotate(-37.1)"/><ellipse class="cls-18" cx="4.2" cy="5.46" rx="0.75" ry="0.77" transform="translate(-2.44 3.64) rotate(-37.11)"/><ellipse class="cls-19" cx="4.21" cy="5.49" rx="0.7" ry="0.71" transform="translate(-2.46 3.64) rotate(-37.05)"/><ellipse class="cls-20" cx="4.22" cy="5.47" rx="0.64" ry="0.65" transform="translate(-2.45 3.65) rotate(-37.09)"/><ellipse class="cls-21" cx="4.19" cy="5.49" rx="0.59" ry="0.6" transform="translate(-2.46 3.64) rotate(-37.06)"/><ellipse class="cls-1" cx="4.21" cy="5.45" rx="0.53" ry="0.54" transform="translate(-2.44 3.65) rotate(-37.14)"/><ellipse class="cls-8" cx="3.45" cy="6.06" rx="0.77" ry="1.05" transform="translate(-2.96 3.31) rotate(-37.14)"/><ellipse class="cls-22" cx="3.4" cy="6.09" rx="0.72" ry="0.98" transform="translate(-2.98 3.29) rotate(-37.12)"/><ellipse class="cls-23" cx="3.38" cy="6.08" rx="0.67" ry="0.92" transform="translate(-2.98 3.27) rotate(-37.09)"/><ellipse class="cls-24" cx="3.38" cy="6.12" rx="0.62" ry="0.85" transform="translate(-3.01 3.28) rotate(-37.09)"/><ellipse class="cls-25" cx="3.32" cy="6.14" rx="0.57" ry="0.78" transform="translate(-3.03 3.25) rotate(-37.13)"/><ellipse class="cls-26" cx="3.29" cy="6.17" rx="0.52" ry="0.72" transform="matrix(0.8, -0.6, 0.6, 0.8, -3.06, 3.24)"/><ellipse class="cls-27" cx="3.27" cy="6.18" rx="0.48" ry="0.65" transform="translate(-3.07 3.23) rotate(-37.13)"/><ellipse class="cls-28" cx="3.24" cy="6.2" rx="0.43" ry="0.59" transform="translate(-3.09 3.22) rotate(-37.13)"/><ellipse class="cls-29" cx="3.22" cy="6.23" rx="0.38" ry="0.52" transform="translate(-3.11 3.21) rotate(-37.13)"/><ellipse class="cls-30" cx="3.2" cy="6.25" rx="0.33" ry="0.45" transform="translate(-3.13 3.2) rotate(-37.13)"/><ellipse class="cls-31" cx="3.15" cy="6.29" rx="0.28" ry="0.39" transform="matrix(0.8, -0.6, 0.6, 0.8, -3.16, 3.18)"/><path class="cls-8" d="M4.58,4a.37.37,0,0,0-.34-.59,2.09,2.09,0,0,0-1.11.45,1.78,1.78,0,0,0-.7,1.42c.08.05.27-.59.92-.89s1-.06,1.22-.37Z"/><path class="cls-32" d="M4.49,4a.35.35,0,0,0-.32-.55,1.91,1.91,0,0,0-1,.42,1.69,1.69,0,0,0-.66,1.33c.08,0,.26-.55.87-.83s.9-.06,1.14-.36Z"/><path class="cls-33" d="M4.4,4a.33.33,0,0,0-.3-.52,1.8,1.8,0,0,0-1,.4,1.54,1.54,0,0,0-.61,1.24c.07,0,.23-.52.8-.78s.84,0,1.07-.33Z"/><path class="cls-34" d="M4.3,4A.3.3,0,0,0,4,3.55a1.7,1.7,0,0,0-.9.37,1.46,1.46,0,0,0-.57,1.15c.07,0,.22-.48.75-.72s.78,0,1-.31Z"/><path class="cls-35" d="M4.21,4A.28.28,0,0,0,4,3.59a1.6,1.6,0,0,0-.83.34A1.31,1.31,0,0,0,2.61,5c.06,0,.2-.44.69-.67S4,4.28,4.2,4Z"/><path class="cls-36" d="M4.12,4a.25.25,0,0,0-.23-.4,1.38,1.38,0,0,0-.76.31,1.21,1.21,0,0,0-.48,1c.06,0,.19-.4.63-.6s.66,0,.83-.26Z"/><path class="cls-37" d="M4,4a.23.23,0,0,0-.21-.36,1.34,1.34,0,0,0-.69.27,1.09,1.09,0,0,0-.43.88s.17-.36.57-.55S3.86,4.23,4,4Z"/><path class="cls-38" d="M3.94,4a.2.2,0,0,0-.19-.32A1.24,1.24,0,0,0,3.13,4a1,1,0,0,0-.39.79s.15-.33.52-.49.53,0,.67-.21Z"/><path class="cls-39" d="M3.84,4a.18.18,0,0,0-.16-.29A1,1,0,0,0,3.13,4c-.3.26-.39.68-.34.7s.13-.29.45-.44.47,0,.6-.18Z"/><path class="cls-8" d="M5.7,5.5A.37.37,0,0,1,6.17,6a2,2,0,0,1-.73.94,1.79,1.79,0,0,1-1.56.3c0-.09.64-.1,1.1-.65s.33-.91.7-1.07Z"/><path class="cls-32" d="M5.67,5.59a.35.35,0,0,1,.44.46,1.87,1.87,0,0,1-.68.88A1.69,1.69,0,0,1,4,7.21c0-.09.6-.1,1-.61s.31-.85.65-1Z"/><path class="cls-33" d="M5.64,5.68a.33.33,0,0,1,.42.43,1.83,1.83,0,0,1-.64.82,1.56,1.56,0,0,1-1.36.25c0-.07.56-.08,1-.56s.29-.79.61-.93Z"/><path class="cls-34" d="M5.62,5.77A.3.3,0,0,1,6,6.16a1.65,1.65,0,0,1-.59.77,1.46,1.46,0,0,1-1.26.23c0-.07.52-.08.89-.52s.26-.74.57-.87Z"/><path class="cls-35" d="M5.59,5.86A.28.28,0,0,1,6,6.22a1.53,1.53,0,0,1-.55.7,1.3,1.3,0,0,1-1.16.22c0-.07.48-.07.82-.48s.24-.68.52-.8Z"/><path class="cls-36" d="M5.57,6a.25.25,0,0,1,.32.33,1.38,1.38,0,0,1-.5.64,1.2,1.2,0,0,1-1.06.2c0-.06.44-.07.75-.44s.22-.62.48-.73Z"/><path class="cls-37" d="M5.54,6a.24.24,0,0,1,.3.31,1.32,1.32,0,0,1-.46.58,1.1,1.1,0,0,1-1,.18c0-.06.4-.06.68-.4s.2-.56.43-.66Z"/><path class="cls-38" d="M5.52,6.12a.21.21,0,0,1,.26.27,1.26,1.26,0,0,1-.4.53,1.05,1.05,0,0,1-.87.16s.36-.06.61-.36.18-.51.39-.6Z"/><path class="cls-39" d="M5.49,6.21a.18.18,0,0,1,.24.24,1,1,0,0,1-.36.46.89.89,0,0,1-.77.15s.32,0,.54-.32.16-.45.34-.52Z"/><ellipse class="cls-40" cx="5.62" cy="4.4" rx="0.36" ry="0.7" transform="translate(-1.52 4.28) rotate(-37.09)"/><ellipse class="cls-41" cx="5.61" cy="4.39" rx="0.3" ry="0.62" transform="translate(-1.51 4.28) rotate(-37.11)"/><ellipse class="cls-42" cx="5.65" cy="4.41" rx="0.24" ry="0.54" transform="translate(-1.51 4.3) rotate(-37.11)"/><ellipse class="cls-43" cx="5.63" cy="4.42" rx="0.19" ry="0.46" transform="translate(-1.53 4.29) rotate(-37.15)"/><ellipse class="cls-17" cx="5.64" cy="4.4" rx="0.13" ry="0.37" transform="translate(-1.51 4.29) rotate(-37.08)"/><g class="cls-44"><ellipse class="cls-40" cx="5.6" cy="6.32" rx="0.44" ry="0.22" transform="translate(-2.48 8.76) rotate(-65.23)"/><ellipse class="cls-42" cx="5.6" cy="6.27" rx="0.34" ry="0.15" transform="translate(-2.44 8.72) rotate(-65.15)"/><ellipse class="cls-17" cx="5.58" cy="6.32" rx="0.23" ry="0.08" transform="translate(-2.5 8.73) rotate(-65.14)"/></g><ellipse class="cls-40" cx="3.08" cy="6.31" rx="0.17" ry="0.35" transform="translate(-3.14 3.05) rotate(-36.33)"/><ellipse class="cls-42" cx="3.1" cy="6.33" rx="0.12" ry="0.27" transform="translate(-3.16 3.08) rotate(-36.49)"/><ellipse class="cls-17" cx="3.1" cy="6.3" rx="0.07" ry="0.18" transform="translate(-3.14 3.08) rotate(-36.53)"/><g class="cls-44"><ellipse class="cls-40" cx="3.74" cy="3.89" rx="0.44" ry="0.22" transform="translate(-0.56 0.63) rotate(-9.01)"/><ellipse class="cls-42" cx="3.72" cy="3.84" rx="0.34" ry="0.15" transform="translate(-0.56 0.64) rotate(-9.09)"/><ellipse class="cls-17" cx="3.74" cy="3.86" rx="0.23" ry="0.08" transform="translate(-0.56 0.64) rotate(-9.11)"/></g></svg>